<?xml version="1.0" encoding="utf-8"?>
<!-- Generator: Adobe Illustrator 22.0.1, SVG Export Plug-In . SVG Version: 6.00 Build 0)  -->
<svg version="1.1" xmlns="http://www.w3.org/2000/svg" xmlns:xlink="http://www.w3.org/1999/xlink" x="0px" y="0px"
	 viewBox="0 0 60.1 107.4" style="enable-background:new 0 0 60.1 107.4;" xml:space="preserve">
<style type="text/css">
	.st0{display:none;opacity:0.5;fill:#F9F9FA;}
	.st1{fill:#7AC25B;}
	.st2{fill:none;stroke:#E2E2E2;stroke-miterlimit:10;}
	.st3{fill:#157D3E;stroke:#E2E2E2;stroke-width:3;stroke-miterlimit:10;}
	.st4{display:none;}
	.st5{display:inline;opacity:0.4999;fill:#F9F9FA;}
	.st6{display:inline;opacity:0.75;fill:#F9F9FA;}
	.st7{display:inline;opacity:0.4982;fill:#F9F9FA;}
	.st8{display:inline;opacity:0.3547;fill:#F4F4F5;}
</style>
<g id="Layer_1">
	<path class="st0" d="M60,13.8c-0.3-0.4-1.3-2.8-2.6-5.2c-0.8-1.6-0.9-3.5-0.8-4.5c0-0.4,0.2-0.8,0.4-1.1c0.2-0.2,0.4-0.7,0.4-1.4
		c0-1.4-27.1-1.9-27.1-1.9S3.3,0.2,3.3,1.5c0,0.7,0.2,1.1,0.4,1.4C3.9,3.2,4.1,3.6,4.1,4c0,1,0,2.9-0.8,4.5C2,11,1,13.4,0.7,13.8
		s0,7.4,0,9.1v74c0,0.5,0.2,0.9,0.5,1.3c0.5,0.6,1.5,1.5,2.8,2.3c1.2,0.7,2,1.3,2.5,1.7c0.4,0.3,0.6,0.7,0.7,1.1l0,0
		c0,0.2,0.1,0.4,0.3,0.6l0.5,0.8c0.3,0.5,0.9,0.8,1.5,0.9c3.6,0.3,16.3,1.2,20.9,1.2c4.8,0,17.3-0.9,20.9-1.2c0.6,0,1.1-0.4,1.5-0.9
		l0.5-0.8c0.1-0.2,0.2-0.4,0.3-0.6l0,0c0.1-0.5,0.3-0.9,0.7-1.1c0.5-0.4,1.3-1,2.5-1.7c1.3-0.8,2.2-1.7,2.8-2.3
		c0.3-0.4,0.5-0.8,0.5-1.3v-74C60,21.2,60.3,14.2,60,13.8z"/>
	<path class="st1" d="M60,13.8c-0.3-0.4-1.3-2.8-2.6-5.2c-0.8-1.6-0.9-3.5-0.8-4.5c0-0.4,0.2-0.8,0.4-1.1c0.2-0.2,0.4-0.7,0.4-1.4
		c0-1.4-27.1-1.9-27.1-1.9S3.3,0.2,3.3,1.5c0,0.7,0.2,1.1,0.4,1.4C3.9,3.2,4.1,3.6,4.1,4c0,1,0,2.9-0.8,4.5C2,11,1,13.4,0.7,13.8
		s0,7.4,0,9.1v74c0,0.5,0.2,0.9,0.5,1.3c0.5,0.6,1.5,1.5,2.8,2.3c1.2,0.7,2,1.3,2.5,1.7c0.4,0.3,0.6,0.7,0.7,1.1l0,0
		c0,0.2,0.1,0.4,0.3,0.6l0.5,0.8c0.3,0.5,0.9,0.8,1.5,0.9c3.6,0.3,16.3,1.2,20.9,1.2c4.8,0,17.3-0.9,20.9-1.2c0.6,0,1.1-0.4,1.5-0.9
		l0.5-0.8c0.1-0.2,0.2-0.4,0.3-0.6l0,0c0.1-0.5,0.3-0.9,0.7-1.1c0.5-0.4,1.3-1,2.5-1.7c1.3-0.8,2.2-1.7,2.8-2.3
		c0.3-0.4,0.5-0.8,0.5-1.3v-74C60,21.2,60.3,14.2,60,13.8z"/>
	<path class="st2" d="M9,102.3c0,0,24.5,2.7,42.7,0"/>
	<rect x="4.7" y="47.7" class="st3" width="51.4" height="12.9"/>
	<path class="st2" d="M6.3,2.9c0,0,19.8,2,48,0"/>
	<path class="st3" d="M14.9,60.6h30.9C44.1,72.3,37.8,81,30.3,81S16.6,72.3,14.9,60.6z"/>
	<path class="st3" d="M45.8,47.7H14.9c1.7-11.7,8-20.4,15.5-20.4C37.8,27.3,44.1,36,45.8,47.7z"/>
</g>
<g id="Layer_5" class="st4">
	<path class="st5" d="M51,109.9c0.3,0.9,0.1,1.7-0.6,2.3c-1.5,1.4-4,1.8-5.9,2.1c-4.8,0.8-9.8,0.9-14.6,0.8c-4.9,0-9.8,0-14.6-0.8
		c-1.9-0.3-4.4-0.7-5.9-2.1c-0.7-0.6-1-1.4-0.6-2.3c0.3-0.9,1-1.5,2-1.6c0.6-0.1,1.1-0.1,1.7-0.2c2.2-0.4,4.3-1.2,6.3-2.1
		c5.6-2.5,9.2-5.8,9.2-5.8s0.3-43.3,0.3-51.3c0-8-16.1-11.9-22.7-19.6c-6.6-7.6,7.8-44.8,7.8-44.8h33.2c0,0,15.4,36.4,8.8,44.1
		C48.6,36.3,31.5,41,31.5,49c0,8,0.3,51.3,0.3,51.3s3.6,3.3,9.2,5.8c2,0.9,4.1,1.7,6.3,2.1c0.6,0.1,1.1,0.1,1.7,0.2
		C50,108.4,50.7,109,51,109.9z"/>
</g>
<g id="Layer_3" class="st4">
	<path class="st6" d="M46.1,110.6c0.5,0.7,0.9,1.2,1.3,1.8c2.1,2.9,0.7,6.9-2.7,8.2c-2.9,1-7.3,1.8-14.2,1.6
		c-6.9,0.1-11.3-0.6-14.2-1.6c-3.4-1.2-4.7-5.2-2.7-8.2c0.4-0.5,0.8-1.1,1.3-1.8c2.9-3.9,3.8-19.9,2.6-40.7
		C16.8,53.1,8.9,8.2,5.9-8.4c-0.6-3.3,2-6.3,5.5-6.3h38.3c3.5,0,6.1,3,5.5,6.3c-3,16.7-10.8,61.5-11.7,78.4
		C42.3,90.8,43.2,106.7,46.1,110.6z"/>
</g>
<g id="Layer_4" class="st4">
	<path class="st7" d="M51.9,104.1H3.4C-2.9,104.1-8,99-8,92.6V14.8C-8,8.5-2.9,3.4,3.4,3.4h48.4c6.3,0,11.4,5.1,11.4,11.4v77.8
		C63.3,99,58.2,104.1,51.9,104.1z"/>
	<path class="st7" d="M84.5,30.9c-0.8-4.4-4-7.6-7.8-7.6H63.3v8.4h9.4c2.2,0,4,2.2,4,5v28.9c0,2.7-1.8,5-4,5h-9.4v8.7h13.3
		c4,0,7.3-3.6,8-8.3c0.1-0.4,0.1-0.8,0.1-1.3v-0.4v0V33.2v0v-0.5C84.7,32.1,84.6,31.5,84.5,30.9z"/>
	<path class="st8" d="M9.6,88.3L9.6,88.3c-2.2,0-4-1.8-4-4v-50c0-2.2,1.8-4,4-4h0c2.2,0,4,1.8,4,4v50C13.6,86.5,11.8,88.3,9.6,88.3z
		"/>
	<path class="st8" d="M28.3,88.3L28.3,88.3c-2.2,0-4-1.8-4-4v-50c0-2.2,1.8-4,4-4h0c2.2,0,4,1.8,4,4v50
		C32.3,86.5,30.5,88.3,28.3,88.3z"/>
	<path class="st8" d="M46.6,87L46.6,87c-2.2,0-4-1.8-4-4V33c0-2.2,1.8-4,4-4h0c2.2,0,4,1.8,4,4v50C50.6,85.2,48.8,87,46.6,87z"/>
</g>
</svg>
