<?xml version="1.0" encoding="utf-8"?>
<!-- Generator: Adobe Illustrator 22.0.1, SVG Export Plug-In . SVG Version: 6.00 Build 0)  -->
<svg version="1.1" id="Layer_1" xmlns="http://www.w3.org/2000/svg" xmlns:xlink="http://www.w3.org/1999/xlink" x="0px" y="0px"
	 viewBox="0 0 126.3 310.4" style="enable-background:new 0 0 126.3 310.4;" xml:space="preserve">
<style type="text/css">
	.st0{display:none;}
	.st1{display:inline;fill:#FFFFFF;stroke:#000000;stroke-miterlimit:10;}
	.st2{fill:#707B7F;}
	.st3{fill:#CE403F;}
	.st4{fill:#FFFFFF;}
	.st5{fill:#CD915F;}
	.st6{fill:#AA6628;}
	.st7{opacity:0.5;fill:#F9F9FA;enable-background:new    ;}
	.st8{fill:url(#SVGID_1_);}
	.st9{fill:#DDDDDD;}
	.st10{fill:#F7F7F7;}
	.st11{opacity:0.35;fill:#F4F4F5;enable-background:new    ;}
	.st12{fill:#F9F9FA;stroke:#E2E2E2;stroke-width:3;stroke-miterlimit:10;}
	.st13{fill:url(#SVGID_2_);}
	.st14{opacity:0.6;fill:#F4F4F5;enable-background:new    ;}
	.st15{display:none;fill:#34A6C9;stroke:#1B8EB7;stroke-width:10;stroke-miterlimit:10;}
	.st16{display:none;fill:#F27CA7;stroke:#C94C72;stroke-width:10;stroke-miterlimit:10;}
	.st17{fill:#476269;}
	.st18{fill:#222728;}
	.st19{fill:#DDDDDC;}
	.st20{fill:#F6F7F7;}
	.st21{fill:url(#SVGID_3_);}
	.st22{fill:url(#SVGID_4_);}
	.st23{enable-background:new    ;}
	.st24{opacity:0.84;fill:url(#SVGID_5_);enable-background:new    ;}
	.st25{fill:none;stroke:#E2E2E2;stroke-width:3;stroke-miterlimit:10;}
	.st26{fill:#D95F56;}
	.st27{fill:url(#SVGID_6_);}
	.st28{fill:url(#SVGID_7_);}
	.st29{opacity:0.84;fill:#E8CD2C;enable-background:new    ;}
	.st30{opacity:0.39;fill:#90D7EB;enable-background:new    ;}
	.st31{opacity:0.84;fill:url(#SVGID_8_);enable-background:new    ;}
	.st32{fill:#D2E8C9;stroke:#6EBF59;stroke-width:2;stroke-miterlimit:10;}
	.st33{fill:none;}
	.st34{opacity:0.84;fill:url(#SVGID_9_);enable-background:new    ;}
	.st35{fill:#7AC25B;}
	.st36{fill:none;stroke:#E2E2E2;stroke-miterlimit:10;}
	.st37{fill:#157D3E;stroke:#E2E2E2;stroke-width:3;stroke-miterlimit:10;}
	.st38{opacity:0.84;fill:url(#SVGID_10_);enable-background:new    ;}
	.st39{opacity:0.84;fill:url(#SVGID_11_);enable-background:new    ;}
	.st40{opacity:0.84;fill:url(#SVGID_12_);enable-background:new    ;}
	.st41{opacity:0.84;fill:url(#SVGID_13_);enable-background:new    ;}
</style>
<g id="Layer_1_1_" class="st0">
	<rect x="1402.8" y="-210.3" class="st1" width="136.5" height="482"/>
</g>
<path class="st2" d="M1666.4,1567.1h-127c-11.1,0-20.2-9.1-20.2-20.2v-93.6c0-11.1,9.1-20.2,20.2-20.2h127
	c11.1,0,20.2,9.1,20.2,20.2v93.6C1686.7,1558,1677.6,1567.1,1666.4,1567.1z"/>
<rect x="937.7" y="-371.7" class="st3" width="658.6" height="188.9"/>
<circle class="st4" cx="639.2" cy="77.6" r="6.2"/>
<g>
	<polygon class="st5" points="1554.6,-634 1512.3,-621.3 1604.9,-621.3 	"/>
	<polygon class="st5" points="1892.9,-634 1935.1,-621.3 1842.5,-621.3 	"/>
	<rect x="1554.5" y="-634" class="st5" width="338.4" height="14.9"/>
	<rect x="1512.3" y="-621.3" class="st6" width="422.8" height="11.1"/>
</g>
<path class="st7" d="M757.5,310.4H608.7c-11.7,0-21.2-9.5-21.2-21.2V61.5c0-11.7,9.5-21.2,21.2-21.2h148.8
	c11.7,0,21.2,9.5,21.2,21.2v227.7C778.7,300.9,769.2,310.4,757.5,310.4z"/>
<linearGradient id="SVGID_1_" gradientUnits="userSpaceOnUse" x1="681.553" y1="85.8792" x2="681.553" y2="310.1009" gradientTransform="matrix(1 0 0 1 0 -12.7793)">
	<stop  offset="0" style="stop-color:#FFCC4C"/>
	<stop  offset="1" style="stop-color:#FEBF4B"/>
</linearGradient>
<path class="st8" d="M741.1,298.1H622.2c-11.7,0-21.2-9.5-21.2-21.2V94.3c0-11.7,9.5-21.2,21.2-21.2H741c11.7,0,21.2,9.5,21.2,21.2
	V277C762.2,288.6,752.8,298.1,741.1,298.1z"/>
<circle class="st9" cx="625.8" cy="71.5" r="33"/>
<circle class="st9" cx="661.4" cy="61.9" r="23.4"/>
<circle class="st9" cx="696.4" cy="71.8" r="23.4"/>
<circle class="st9" cx="746" cy="67" r="28.2"/>
<circle class="st10" cx="696.4" cy="62.7" r="23.4"/>
<circle class="st10" cx="717.8" cy="52.8" r="11.7"/>
<path class="st10" d="M638.1,52.8c0-1.5,0.1-2.9,0.4-4.3h-42.7c-2,4.2-3.1,9-3.1,14c0,18.2,14.8,33,33,33c13.6,0,25.3-8.2,30.3-19.9
	C645.8,73.1,638.1,63.8,638.1,52.8z"/>
<path class="st10" d="M658.8,62.4c0,4.6-1,9.1-2.7,13.1c1.7,0.4,3.5,0.6,5.4,0.6c12.9,0,23.4-10.5,23.4-23.4c0-1.5-0.1-2.9-0.4-4.3
	h-28.7C657.6,52.7,658.8,57.4,658.8,62.4z"/>
<path class="st10" d="M655.7,48.4h-17.2c-0.3,1.4-0.4,2.8-0.4,4.3c0,11.1,7.7,20.3,18,22.7c1.7-4,2.7-8.4,2.7-13.1
	C658.8,57.4,657.6,52.7,655.7,48.4z"/>
<path class="st10" d="M772.5,48.4h-53.1c-1.1,3-1.6,6.1-1.6,9.5c0,15.6,12.6,28.2,28.2,28.2s28.2-12.6,28.2-28.2
	C774.1,54.6,773.6,51.4,772.5,48.4z"/>
<path class="st10" d="M501.2,49.3c0,0-0.1-0.1-0.2-0.2C501.1,49.1,501.1,49.2,501.2,49.3L501.2,49.3z"/>
<path class="st10" d="M772.5,48.4H655.7c-2.4-5-5.9-9.3-10.3-12.6c-3.5,3.3-5.9,7.7-6.8,12.6H596c0.5-1.1,1.1-2.2,1.8-3.3
	c4.2-4.6,12.7-12.3,22.7-12.3h55.4c0,0,6.7,0,16,0h55.4c13.2,0,23.9,13.4,25.3,15.3C772.5,48.3,772.5,48.4,772.5,48.4z"/>
<path class="st10" d="M638.5,48.4h17.2c-2.3-5-5.9-9.3-10.3-12.6C641.9,39.2,639.4,43.5,638.5,48.4z"/>
<path class="st7" d="M835.5,114.3c-2.3-11.7-10.8-20.4-21-20.4h-35.8v22.5H804c6,0,10.8,5.9,10.8,13.3V207c0,7.3-4.8,13.3-10.8,13.3
	h-25.3v23.4h35.8c10.7,0,19.6-9.6,21.3-22.2c0.2-1.1,0.3-2.2,0.3-3.4v-1l0,0v-96.7l0,0V119C836.1,117.3,835.9,115.8,835.5,114.3z"/>
<path class="st11" d="M634.6,268L634.6,268c-6,0-10.8-4.8-10.8-10.8v-134c0-6,4.8-10.8,10.8-10.8l0,0c6,0,10.8,4.8,10.8,10.8v134
	C645.4,263.1,640.6,268,634.6,268z"/>
<path class="st11" d="M684.8,268L684.8,268c-6,0-10.8-4.8-10.8-10.8v-134c0-6,4.8-10.8,10.8-10.8l0,0c6,0,10.8,4.8,10.8,10.8v134
	C695.6,263.1,690.8,268,684.8,268z"/>
<path class="st11" d="M733.9,264.7L733.9,264.7c-6,0-10.8-4.8-10.8-10.8v-134c0-6,4.8-10.8,10.8-10.8l0,0c6,0,10.8,4.8,10.8,10.8
	v134C744.7,259.9,739.8,264.7,733.9,264.7z"/>
<g>
	<circle class="st4" cx="4109.9" cy="849.9" r="4.7"/>
	<path class="st12" d="M4195.9,1032.1h-104.4c-11.7,0-21.2-9.5-21.2-21.2v-165c0-11.7,9.5-21.2,21.2-21.2h104.4
		c11.7,0,21.2,9.5,21.2,21.2v165C4217,1022.6,4207.6,1032.1,4195.9,1032.1z"/>
	
		<linearGradient id="SVGID_2_" gradientUnits="userSpaceOnUse" x1="4142.4531" y1="862.6794" x2="4142.4531" y2="1034.8379" gradientTransform="matrix(1 0 0 1 0 -12.7793)">
		<stop  offset="0" style="stop-color:#FFCC4C"/>
		<stop  offset="1" style="stop-color:#FEBF4B"/>
	</linearGradient>
	<path class="st13" d="M4183.2,1022.7h-81.4c-11.7,0-21.2-9.5-21.2-21.2V871.1c0-11.7,9.5-21.2,21.2-21.2h81.4
		c11.7,0,21.2,9.5,21.2,21.2v130.4C4204.4,1013.2,4194.9,1022.7,4183.2,1022.7z"/>
	
		<ellipse transform="matrix(0.2298 -0.9732 0.9732 0.2298 2334.7539 4640.8667)" class="st9" cx="4099.5" cy="845.3" rx="25.3" ry="25.3"/>
	<circle class="st9" cx="4127" cy="837.8" r="17.9"/>
	<circle class="st9" cx="4153.9" cy="845.4" r="17.9"/>
	<circle class="st9" cx="4191.9" cy="841.7" r="21.6"/>
	<circle class="st10" cx="4153.9" cy="838.4" r="17.9"/>
	<circle class="st10" cx="4170.3" cy="830.8" r="9"/>
	<path class="st10" d="M4109.1,830.8c0-1.1,0.1-2.2,0.3-3.3h-32.7c-1.5,3.3-2.4,6.9-2.4,10.7c0,14,11.3,25.3,25.3,25.3
		c10.4,0,19.4-6.3,23.3-15.3C4115,846.4,4109.1,839.3,4109.1,830.8z"/>
	<path class="st10" d="M4125,838.2c0,3.6-0.7,7-2.1,10c1.3,0.3,2.7,0.5,4.1,0.5c9.9,0,17.9-8,17.9-17.9c0-1.1-0.1-2.2-0.3-3.3h-22.1
		C4124.1,830.7,4125,834.4,4125,838.2z"/>
	<path class="st10" d="M4122.6,827.5h-13.2c-0.2,1.1-0.3,2.2-0.3,3.3c0,8.5,5.9,15.6,13.8,17.5c1.3-3.1,2.1-6.5,2.1-10
		C4125,834.4,4124.1,830.7,4122.6,827.5z"/>
	<path class="st10" d="M4212.3,827.5h-40.8c-0.8,2.3-1.3,4.7-1.3,7.3c0,12,9.7,21.6,21.6,21.6s21.6-9.7,21.6-21.6
		C4213.5,832.2,4213.1,829.7,4212.3,827.5z"/>
	<path class="st10" d="M4215.8,831.6c0,0,0-0.1-0.1-0.2C4215.7,831.5,4215.7,831.5,4215.8,831.6L4215.8,831.6z"/>
	<path class="st10" d="M4212.3,827.5h-89.7c-1.8-3.8-4.5-7.2-7.9-9.7c-2.7,2.5-4.6,5.9-5.3,9.7h-32.7c0.4-0.9,0.9-1.7,1.4-2.5
		c3.2-3.5,9.8-9.4,17.5-9.4h42.5c0,0,5.1,0,12.3,0h42.5C4203.1,815.6,4211.2,825.9,4212.3,827.5
		C4212.3,827.3,4212.3,827.4,4212.3,827.5z"/>
	<path class="st10" d="M4109.4,827.5h13.2c-1.8-3.8-4.5-7.2-7.9-9.7C4112,820.3,4110.1,823.7,4109.4,827.5z"/>
	<path class="st12" d="M4260.7,881.5c-1.7-9-8.3-15.7-16.1-15.7h-27.5v17.3h19.4c4.6,0,8.3,4.6,8.3,10.2v59.4
		c0,5.6-3.7,10.2-8.3,10.2h-19.4v17.9h27.5c8.2,0,15.1-7.4,16.4-17c0.1-0.8,0.2-1.7,0.2-2.6v-0.8l0,0v-74.2l0,0v-1.1
		C4261.1,883.8,4261,882.6,4260.7,881.5z"/>
	<path class="st14" d="M4106.4,999.5L4106.4,999.5c-4.6,0-8.3-3.7-8.3-8.3V888.3c0-4.6,3.7-8.3,8.3-8.3l0,0c4.6,0,8.3,3.7,8.3,8.3
		v102.9C4114.7,995.8,4111,999.5,4106.4,999.5z"/>
	<path class="st14" d="M4144.9,999.5L4144.9,999.5c-4.6,0-8.3-3.7-8.3-8.3V888.3c0-4.6,3.7-8.3,8.3-8.3l0,0c4.6,0,8.3,3.7,8.3,8.3
		v102.9C4153.2,995.8,4149.5,999.5,4144.9,999.5z"/>
	<path class="st14" d="M4182.6,997L4182.6,997c-4.6,0-8.3-3.7-8.3-8.3V885.8c0-4.6,3.7-8.3,8.3-8.3l0,0c4.6,0,8.3,3.7,8.3,8.3v102.9
		C4190.9,993.3,4187.2,997,4182.6,997z"/>
</g>
<path class="st15" d="M1316.6,698.3v-32.9l5.8,5.8c9.5,9.5,25,9.5,34.5,0s9.5-25,0-34.5l-45-45l-2.9-2.9c-4.5-4.5-10.2-6.8-16.1-7.1
	c-0.2,0-0.5,0-0.8,0c-0.1,0-0.2,0-0.2,0c-0.1,0-0.1,0-0.2,0s-0.1,0-0.2,0c-6.3-0.1-12.7,2.3-17.5,7.2l-47.9,47.9
	c-9.5,9.5-9.5,25,0,34.5s25,9.5,34.5,0l7.1-7.1l0.6,33.7c-34.6,10-59.9,41.9-59.9,79.8c0,45.9,37.2,83.1,83.1,83.1
	s83.1-37.2,83.1-83.1C1374.6,740.4,1350.3,709,1316.6,698.3z M1291.6,812.8c-19.4,0-35.2-15.8-35.2-35.2s15.8-35.2,35.2-35.2
	c19.4,0,35.2,15.8,35.2,35.2S1311,812.8,1291.6,812.8z"/>
<path class="st16" d="M1602.7,740c32.4-32.4,32.4-85.1,0-117.5s-85.1-32.4-117.5,0s-32.4,85.1,0,117.5
	c10.6,10.6,23.3,17.7,36.8,21.4v25.9h-9.6c-12.1,0-21.9,9.8-21.9,21.9l0,0c0,12.1,9.8,21.9,21.9,21.9h9.6v9.6
	c0,12.1,9.8,21.9,21.9,21.9l0,0c12.1,0,21.9-9.8,21.9-21.9v-9.6h9.6c12.1,0,21.9-9.8,21.9-21.9l0,0c0-12.1-9.8-21.9-21.9-21.9h-9.6
	v-25.9C1579.3,757.7,1592.1,750.5,1602.7,740z M1519,656.3c13.8-13.8,36-13.8,49.8,0c13.8,13.8,13.8,36,0,49.8
	c-13.8,13.8-36,13.8-49.8,0C1505.3,692.4,1505.3,670.1,1519,656.3z"/>
<rect x="1394.1" y="518" class="st17" width="578.1" height="600.5"/>
<path class="st4" d="M1544,695.9l-59.5,59.5c-6.3,6.3-16.4,6.3-22.7,0l0,0c-6.3-6.3-6.3-16.4,0-22.7l59.5-59.5
	c6.3-6.3,16.4-6.3,22.7,0l0,0C1550.3,679.5,1550.3,689.6,1544,695.9z"/>
<path class="st4" d="M1580.8,755.4l-59.5-59.5c-6.3-6.3-6.3-16.4,0-22.7l0,0c6.3-6.3,16.4-6.3,22.7,0l59.5,59.5
	c6.3,6.3,6.3,16.4,0,22.7l0,0C1597.2,761.6,1587.1,761.6,1580.8,755.4z"/>
<path class="st4" d="M1552.5,706.5v75.2c0,11.9-9.6,21.5-21.5,21.5l0,0c-11.9,0-21.5-9.6-21.5-21.5v-75.2c0-11.9,9.6-21.5,21.5-21.5
	l0,0C1542.9,685,1552.5,694.7,1552.5,706.5z"/>
<path class="st4" d="M1532.7,782.1c-52.3,0-94.6,42.4-94.6,94.6c0,52.2,42.4,94.6,94.6,94.6s94.6-42.4,94.6-94.6
	S1584.9,782.1,1532.7,782.1z M1532.7,934.9c-32.1,0-58.2-26-58.2-58.2c0-32.1,26-58.2,58.2-58.2c32.2,0,58.2,26,58.2,58.2
	C1590.8,908.8,1564.8,934.9,1532.7,934.9z"/>
<path class="st4" d="M1773.4,949.8V848.4c0-11.9,9.6-21.5,21.5-21.5l0,0c11.9,0,21.5,9.6,21.5,21.5v101.4c0,11.9-9.6,21.5-21.5,21.5
	l0,0C1783,971.3,1773.4,961.7,1773.4,949.8z"/>
<path class="st4" d="M1834.7,929H1755c-11.9,0-21.5-9.6-21.5-21.5l0,0c0-11.9,9.6-21.5,21.5-21.5h79.7c11.9,0,21.5,9.6,21.5,21.5
	l0,0C1856.2,919.4,1846.6,929,1834.7,929z"/>
<path class="st4" d="M1793.2,848.1c52.3,0,94.6-42.4,94.6-94.6s-42.4-94.6-94.6-94.6s-94.6,42.4-94.6,94.6S1741,848.1,1793.2,848.1z
	 M1793.2,695.3c32.1,0,58.2,26,58.2,58.2c0,32.1-26,58.2-58.2,58.2c-32.2,0-58.2-26-58.2-58.2
	C1735.1,721.3,1761.1,695.3,1793.2,695.3z"/>
<rect x="879.5" y="518" class="st18" width="508.9" height="434.6"/>
<path class="st4" d="M1158.5,695.3l-59.5,59.5c-6.3,6.3-16.4,6.3-22.7,0l0,0c-6.3-6.3-6.3-16.4,0-22.7l59.5-59.5
	c6.3-6.3,16.4-6.3,22.7,0l0,0C1164.7,678.9,1164.7,689,1158.5,695.3z"/>
<path class="st4" d="M1195.3,754.8l-59.5-59.5c-6.3-6.3-6.3-16.4,0-22.7l0,0c6.3-6.3,16.4-6.3,22.7,0l59.5,59.5
	c6.3,6.3,6.3,16.4,0,22.7l0,0C1211.7,761,1201.5,761,1195.3,754.8z"/>
<path class="st4" d="M1164.7,703.6v79.8c0,10.6-8.6,19.2-19.2,19.2l0,0c-10.6,0-19.2-8.6-19.2-19.2v-79.8c0-10.6,8.6-19.2,19.2-19.2
	l0,0C1156.1,684.4,1164.7,693,1164.7,703.6z"/>
<path class="st19" d="M1028.9-329.7c-18,0-34.3,7.5-45.7,19.5v83.2c11.4,12,27.6,19.5,45.7,19.5c34.4,0,62.4-27.4,62.4-61.1
	C1091.2-302.4,1063.3-329.7,1028.9-329.7z"/>
<path class="st19" d="M1567.3-300.9c-8-8.2-19.5-13.4-32.2-13.4c-24.1,0-43.7,18.4-43.7,41.1s19.6,41.1,43.7,41.1
	c12.8,0,24.3-5.2,32.2-13.4V-300.9z"/>
<ellipse class="st19" cx="1111.1" cy="-281.7" rx="28" ry="27.5"/>
<ellipse class="st19" cx="1186.2" cy="-274.3" rx="54.2" ry="53.1"/>
<ellipse class="st19" cx="1265.4" cy="-279" rx="35.9" ry="35.2"/>
<ellipse class="st19" cx="1330.6" cy="-294.9" rx="33.6" ry="32.9"/>
<ellipse class="st19" cx="1364.8" cy="-271.5" rx="38.4" ry="37.6"/>
<ellipse class="st19" cx="1427.5" cy="-280.1" rx="38" ry="37.3"/>
<ellipse class="st19" cx="1476.7" cy="-291.5" rx="23.2" ry="22.7"/>
<path class="st19" d="M1567.3-276.1H984.2c2.2-15.3,1.6-11,3.5-24.2l0,0c0-13.3,12.2-24.2,27.2-24.2h521.7c15,0,27.2,10.8,27.2,24.2
	l0,0C1565-288.2,1565-288.5,1567.3-276.1z"/>
<circle class="st20" cx="1111.1" cy="-293.9" r="28"/>
<circle class="st20" cx="1186.2" cy="-286.3" r="54.2"/>
<circle class="st20" cx="1265.4" cy="-291.2" r="35.9"/>
<circle class="st20" cx="1330.6" cy="-307.4" r="33.6"/>
<circle class="st20" cx="1364.8" cy="-283.5" r="38.4"/>
<circle class="st20" cx="1427.5" cy="-292.3" r="38"/>
<circle class="st20" cx="1476.7" cy="-303.9" r="23.2"/>
<rect x="983.4" y="-347.4" class="st20" width="583.9" height="61.1"/>
<path class="st20" d="M1567.3-314.1c-8-8.4-19.5-13.7-32.2-13.7c-24.1,0-43.7,18.8-43.7,41.9c0,23.2,19.6,41.9,43.7,41.9
	c12.8,0,24.3-5.3,32.2-13.7V-314.1z"/>
<path class="st20" d="M1028.9-344.8c-18,0-34.3,7.7-45.7,19.9v84.9c11.4,12.2,27.6,19.9,45.7,19.9c34.4,0,62.4-27.9,62.4-62.4
	C1091.2-316.8,1063.3-344.8,1028.9-344.8z"/>
<image style="display:none;overflow:visible;enable-background:new    ;" width="2061" height="498" xlink:href="32D1340671620AD3.png"  transform="matrix(0.5755 0 0 0.5755 690.3708 -147.3703)">
</image>
<path class="st7" d="M546.8,279c1.4,1.9,2.6,3.6,3.7,5.2c6,8.5,2.2,20.3-7.8,23.9c-8.4,3-21.4,5.2-41.4,4.8
	c-20.1,0.4-33.1-1.8-41.5-4.8c-10-3.5-13.8-15.4-7.8-23.9c1.1-1.6,2.3-3.3,3.7-5.2c8.4-11.5,11-58.3,7.8-119.2
	c-2.6-49.2-25.6-180.6-34.4-229.4c-1.7-9.7,5.9-18.6,16-18.6h112.2c10.1,0,17.8,8.9,16,18.6c-8.8,48.8-31.8,180.2-34.4,229.4
	C535.8,220.8,538.4,267.6,546.8,279z"/>
<g>
	
		<linearGradient id="SVGID_3_" gradientUnits="userSpaceOnUse" x1="501.2031" y1="-28.0767" x2="501.2031" y2="274.4869" gradientTransform="matrix(1 0 0 1 0 -12.7793)">
		<stop  offset="0" style="stop-color:#FFCC4C"/>
		<stop  offset="1" style="stop-color:#FEBF4B"/>
	</linearGradient>
	<path class="st21" d="M530.4,149c2-38,19.8-139.3,26.5-177c1.3-7.5-4.6-14.3-12.4-14.3H458c-7.8,0-13.7,6.8-12.4,14.3
		c6.8,37.6,24.5,139,26.5,177c0.9,16.3,1.2,79.1,1,92c-0.2,15.3,11.4,19.1,26.6,19.9c0.5,0,1,0,1.5,0s1,0,1.5,0
		c15.2-0.8,26.9-4.6,26.6-19.9C529.3,228,529.6,165.2,530.4,149z"/>
</g>
<circle class="st14" cx="536.2" cy="-20.3" r="6.1"/>
<ellipse transform="matrix(0.1256 -0.9921 0.9921 0.1256 401.6156 570.9219)" class="st14" cx="524.7" cy="57.6" rx="53" ry="6.1"/>
<g>
	<path class="st7" d="M112.4,298c0.8,2.1,0.1,4-1.5,5.5c-3.6,3.2-9.4,4.2-14,5c-11.5,1.9-23.2,2-34.8,1.9c-11.6,0.1-23.4,0-34.8-1.9
		c-4.6-0.8-10.4-1.7-14-5c-1.6-1.5-2.3-3.4-1.5-5.5c0.8-2,2.5-3.5,4.7-3.8c1.3-0.2,2.6-0.3,4-0.5c5.2-0.9,10.2-2.7,15-4.9
		c13.4-6,22-13.8,22-13.8s0.8-103,0.8-121.9s-38.2-28.4-54-46.5C-11.7,88.4,22.6,0,22.6,0h78.9c0,0,36.7,86.7,20.9,104.8
		C106.6,123,66,134.1,66,153s0.8,121.9,0.8,121.9s8.5,7.8,22,13.8c4.8,2.1,9.8,3.9,15,4.9c1.3,0.2,2.6,0.3,4,0.5
		C109.9,294.4,111.6,296,112.4,298z"/>
	
		<linearGradient id="SVGID_4_" gradientUnits="userSpaceOnUse" x1="63.103" y1="33.9615" x2="63.103" y2="144.1703" gradientTransform="matrix(1 0 0 1 0 -12.7793)">
		<stop  offset="0" style="stop-color:#FFCC4C"/>
		<stop  offset="1" style="stop-color:#FEBF4B"/>
	</linearGradient>
	<path class="st22" d="M105.7,107.8L68,129.6c-3,1.7-6.8,1.7-9.8,0l-37.7-21.8c-0.3-0.2-0.6-0.3-0.8-0.4c-2.2-1-15.2-8.3-5.3-39.8
		L24.2,29c1.1-4.3,5-7.4,9.5-7.4h58.8c4.5,0,8.4,3,9.5,7.4l9.9,38.6c9.9,31.5-3.1,38.8-5.3,39.8C106.3,107.5,106,107.7,105.7,107.8z
		"/>
	<circle class="st14" cx="91.3" cy="43.9" r="6.1"/>
	<ellipse class="st14" cx="91.3" cy="76.9" rx="6.1" ry="17"/>
</g>
<text transform="matrix(1 0 0 1 954.3056 43.9175)" style="font-family:'MyriadPro-Regular'; font-size:72px;">Beer</text>
<image style="display:none;overflow:visible;enable-background:new    ;" width="2058" height="988" xlink:href="32D1340671620ADF.png"  transform="matrix(0.4994 0 0 0.4994 880.6812 1348.1384)">
</image>
<image style="display:none;overflow:visible;enable-background:new    ;" width="2116" height="970" xlink:href="32D1340671620AD1.png"  transform="matrix(0.4994 0 0 0.4994 831.0223 1226.5474)">
</image>
<image style="display:none;overflow:visible;enable-background:new    ;" width="2116" height="970" xlink:href="32D1340671620AD2.png"  transform="matrix(0.4994 0 0 0.4994 668.1674 1177.0592)">
</image>
<text transform="matrix(1 0 0 1 2413.9531 -137.3353)" style="font-family:'MyriadPro-Regular'; font-size:72px;">Cocktail</text>
<image style="display:none;overflow:visible;enable-background:new    ;" width="2058" height="988" xlink:href="32D1340671620AD0.png"  transform="matrix(0.4994 0 0 0.4994 2217.1699 -362.4297)">
</image>
<image style="display:none;overflow:visible;enable-background:new    ;" width="2116" height="970" xlink:href="32D1340671620ACC.png"  transform="matrix(0.4994 0 0 0.4994 2167.5112 -484.0208)">
</image>
<image style="display:none;overflow:visible;enable-background:new    ;" width="2116" height="970" xlink:href="32D1340671620ACD.png"  transform="matrix(0.4994 0 0 0.4994 2004.6562 -533.5089)">
</image>
<path class="st7" d="M3362.5-621.3l-5,253.9c-0.1,5.5-3.8,10.2-9.1,11.7c-7.7,2.2-21.6,4.6-45.8,5c-24.2-0.3-38-2.7-45.8-5
	c-5.3-1.5-8.9-6.2-9.1-11.7l-5-253.9c-0.1-7,5.5-12.7,12.4-12.7h94.7C3357-634,3362.6-628.2,3362.5-621.3z"/>
<linearGradient id="SVGID_5_" gradientUnits="userSpaceOnUse" x1="3302.5522" y1="295.2962" x2="3302.5522" y2="59.8589" gradientTransform="matrix(1 0 0 -1 0 -315.2001)">
	<stop  offset="0" style="stop-color:#14AFAB"/>
	<stop  offset="1" style="stop-color:#227893"/>
</linearGradient>
<path class="st24" d="M3351.9-598.4l-4.1,208.7c-0.1,4.5-3.1,8.4-7.5,9.6c-6.3,1.8-17.8,3.8-37.7,4.1c-19.9-0.2-31.2-2.2-37.7-4.1
	c-4.4-1.2-7.3-5.1-7.5-9.6l-4.1-208.7c-0.1-5.8,4.5-10.4,10.2-10.4h77.9C3347.3-608.8,3351.9-604.1,3351.9-598.4z"/>
<path class="st7" d="M3455.4-352.5c-59.6,0.5-52.6-4.3-34.3-14.3c16.8-9.2,12.4-29.6,11.5-32.8c-0.1-0.3-0.1-0.7-0.2-1l-22.3-295.3
	c-0.3-3.5,2.5-6.6,6.1-6.6h78.3c3.6,0,6.4,3,6.1,6.6l-22.3,295.3c0,0.3-0.1,0.7-0.2,1c-0.8,3.3-5.3,23.7,11.5,32.8
	C3507.9-356.8,3515-352,3455.4-352.5z"/>
<image style="display:none;overflow:visible;enable-background:new    ;" width="2058" height="988" xlink:href="32D1340671620ACE.png"  transform="matrix(0.4994 0 0 0.4994 2217.1699 506.2484)">
</image>
<image style="display:none;overflow:visible;enable-background:new    ;" width="2116" height="970" xlink:href="32D1340671620ACF.png"  transform="matrix(0.4994 0 0 0.4994 2167.5112 384.6575)">
</image>
<image style="display:none;overflow:visible;enable-background:new    ;" width="2116" height="970" xlink:href="583C84EE632B914E.png"  transform="matrix(0.4994 0 0 0.4994 2004.6562 335.1692)">
</image>
<text transform="matrix(1 0 0 1 2413.9539 735.3204)" style="font-family:'MyriadPro-Regular'; font-size:72px;">Lhao</text>
<path class="st12" d="M2420.1,1008.1c-23.7,31.1-43,36.1-53.2,41.7c-10.2,5.6-16.2,26.8,3.2,30.9c19.4,4.2,27.9,6.7,27.9,6.7
	s35.7,18.2-50,18.2c-86.4,0-50-18.2-50-18.2s8.4-2.5,27.8-6.7c19.4-4.1,13.4-25.4,3.2-30.9c-10.2-5.6-29.4-10.5-53.2-41.7
	c-23.7-31.1,24.6-122.1,24.6-122.1h95C2395.5,886,2443.8,976.9,2420.1,1008.1z"/>
<path class="st25" d="M2499.8,1105.6c-66.8-0.8-42.6-10.7-26.2-11.9c16.4-1.2,21.7-15.2,21.7-15.2s-0.8-91.8,0-107.3
	c0.8-15.6-11.7-23.3-11.7-23.3c-30.1-32-16.2-104.1-16.2-104.1h64.7c0,0,13.9,72.1-16.2,104.1c0,0-12.5,7.8-11.7,23.3
	c0.8,15.6,0,107.3,0,107.3s5.3,13.9,21.7,15.2C2542.4,1095,2566.6,1104.8,2499.8,1105.6z"/>
<path class="st12" d="M2609.7,1105.6c-39.6,0-30.4-5.9-23.1-9.4c7-3.4,15.4-9.1,15.4-9.1l1.3-28.9c0.9-20.1-4.1-22.3-8.8-29.2
	c-4.7-6.9-5.6-11.3-10-27.3c-4.4-16-1.9-68.1-1.9-68.1h54.4c0,0,2.5,52.1-1.9,68.1c-4.4,16-5.3,20.4-10,27.3
	c-4.7,6.9-9.7,9.1-8.8,29.2l1.3,28.9c0,0,8.4,5.7,15.4,9.1C2640.1,1099.7,2649.3,1105.6,2609.7,1105.6z"/>
<path class="st12" d="M2747.5,984.6c4.1,0,7.4,3.4,7.2,7.5l-3.8,95.7c0,0-0.9,17.9-13.2,17.9c-17.1,0-28.7,0-28.7,0s-11.6,0-28.7,0
	c-12.3,0-13.2-17.9-13.2-17.9l-3.8-95.7c-0.2-4.1,3.1-7.5,7.2-7.5H2747.5L2747.5,984.6z"/>
<ellipse class="st14" cx="2678" cy="1045.1" rx="2.7" ry="39.4"/>
<ellipse class="st14" cx="2688.1" cy="1045.1" rx="2.7" ry="39.4"/>
<ellipse class="st14" cx="2705.1" cy="1045.1" rx="2.7" ry="39.4"/>
<ellipse class="st14" cx="2715.5" cy="1045.1" rx="2.7" ry="39.4"/>
<ellipse class="st14" cx="2732.7" cy="1045.1" rx="2.7" ry="39.4"/>
<ellipse class="st14" cx="2740.9" cy="1045.1" rx="2.7" ry="39.4"/>
<path class="st14" d="M2684.2,1091.8c-0.7,0-1.3,4.6-1.7,12.3h3.5C2685.5,1096.4,2684.9,1091.8,2684.2,1091.8z"/>
<path class="st14" d="M2710.4,1090.1c-0.7,0-1.4,5.3-1.8,13.9h3.7C2711.8,1095.4,2711.1,1090.1,2710.4,1090.1z"/>
<path class="st14" d="M2736.6,1091.8c-0.7,0-1.3,4.6-1.7,12.3h3.5C2737.8,1096.4,2737.2,1091.8,2736.6,1091.8z"/>
<image style="display:none;overflow:visible;enable-background:new    ;" width="2058" height="988" xlink:href="583C84EE632B914A.png"  transform="matrix(0.4994 0 0 0.4994 3565.3457 506.2484)">
</image>
<image style="display:none;overflow:visible;enable-background:new    ;" width="2116" height="970" xlink:href="583C84EE632B9155.png"  transform="matrix(0.4994 0 0 0.4994 3515.6868 384.6575)">
</image>
<image style="display:none;overflow:visible;enable-background:new    ;" width="2116" height="970" xlink:href="583C84EE632B9156.png"  transform="matrix(0.4994 0 0 0.4994 3352.832 335.1692)">
</image>
<image style="display:none;overflow:visible;enable-background:new    ;" width="2058" height="988" xlink:href="583C84EE632B9154.png"  transform="matrix(0.4994 0 0 0.4994 3565.3457 -362.4297)">
</image>
<image style="display:none;overflow:visible;enable-background:new    ;" width="2116" height="970" xlink:href="583C84EE632B9158.png"  transform="matrix(0.4994 0 0 0.4994 3515.6868 -484.0208)">
</image>
<image style="display:none;overflow:visible;enable-background:new    ;" width="2116" height="970" xlink:href="583C84EE632B915B.png"  transform="matrix(0.4994 0 0 0.4994 3352.832 -533.5089)">
</image>
<text transform="matrix(1 0 0 1 3668.406 -137.3355)" style="font-family:'MyriadPro-Regular'; font-size:72px;">Wine</text>
<path class="st12" d="M3615.9,302.3c-103.5-0.2-51.2-11.8-48-12.5c0.1,0,0.2,0,0.3-0.1c1.8-0.5,17.6-5.2,22.9-8.2
	c5.5-3.2,14.6-18.7,14.8-25.7c0.2-6.3-4-21.5-5-25.2c-0.2-0.5-0.4-1-0.7-1.5c-7.5-11-1.3-17.9,3.1-24.8c4.5-7,2-23.6-1.9-30
	c-3.8-6.4-13.9-31.9-17.7-51c-3.1-15.9-27.1-81.2-35-102.7c-1.2-3.3,1.2-6.9,4.8-6.9l126.2,0.3c3.6,0,6,3.6,4.8,6.9
	c-8.1,21.4-32.3,86.6-35.5,102.5c-3.9,19.1-14.1,44.6-18,50.9c-3.8,6.4-6.4,22.9-2,30c4.4,6.9,10.5,13.9,3,24.8
	c-0.3,0.5-0.6,0.9-0.7,1.5c-1,3.6-5.3,18.9-5.1,25.2c0.2,7,9.2,22.6,14.7,25.8c5.2,3.1,21.1,7.8,22.8,8.3c0.1,0,0.2,0.1,0.3,0.1
	C3667.1,290.7,3719.4,302.6,3615.9,302.3z"/>
<path class="st12" d="M3764.5,177.1v101.1c0,0,16.4,7.2,26.1,10.7c8.8,3.2,30.8,14.5-32.3,14.5s-41.1-11.3-32.3-14.5
	c9.7-3.5,26-10.7,26-10.7V177.1c0,0-3.9-2.4-12.9-8.9c-10.2-7.4-27.4-26.8-33.9-48.7c-6.6-21.9,9.9-105.6,9.9-105.6h86.5
	c0,0,16.4,83.8,9.9,105.6c-6.6,21.9-23.7,41.3-33.9,48.7C3768.4,174.7,3764.5,177.1,3764.5,177.1z"/>
<path class="st12" d="M3909.7,153.5c0,6.3-0.4,117.8-0.4,117.8l25.6,14.7c0,0,44.2,16.3-32.6,16.3c-76.8,0-32.6-16.3-32.6-16.3
	l25.6-14.7c0,0-0.4-111.5-0.4-117.8s-3.1-8-8.5-11.4c-5.4-3.4-25-14.8-35.1-32.4c-10.1-17.6,12.4-95.9,12.4-95.9h77.3
	c0,0,22.5,78.4,12.4,95.9c-10.1,17.6-29.7,29-35.1,32.4C3912.8,145.5,3909.7,147.2,3909.7,153.5z"/>
<path class="st12" d="M4050.3,194.2c0,4.6,0,69.5,0,69.5s15.3,22.4,24.2,23s44.4,15.5-32.5,15.5c-76.9,0-41.4-14.9-32.5-15.5
	c8.9-0.6,24.2-23,24.2-23s0-65,0-69.5c0-4.6-3.6-7.7-3.6-7.7c-1.6-16.3-19.1-29.2-43.9-55.9c-24.7-26.7,8-99.8,8-99.8h95.7
	c0,0,32.7,73.1,8,99.8c-24.7,26.7-42.3,39.6-43.9,55.9C4053.9,186.5,4050.3,189.6,4050.3,194.2z"/>
<path class="st26" d="M1662,1562.1h-118.2c-10.7,0-19.4-8.7-19.4-19.4v-118.2c0-10.7,8.7-19.4,19.4-19.4H1662
	c10.7,0,19.4,8.7,19.4,19.4v118.2C1681.4,1553.4,1672.7,1562.1,1662,1562.1z"/>
<path class="st4" d="M1524.5,1456.6v86.2c0,10.7,8.7,19.4,19.4,19.4h118.2c10.7,0,19.4-8.7,19.4-19.4v-86.2H1524.5z"/>
<text transform="matrix(1 0 0 1 1579.0835 1438.7117)" class="st4" style="font-family:'Cloud-Bold'; font-size:26px;">DAY</text>
<g>
	<path class="st12" d="M4496.1,874.9c0,6.3-0.4,117.8-0.4,117.8l25.6,14.7c0,0,44.2,16.3-32.6,16.3c-65.3,0-24.6-16.3-24.6-16.3
		l25.6-14.7c0,0-0.4-111.5-0.4-117.8s-3.1-8-8.5-11.4s-25-14.8-35.1-32.4s12.4-95.9,12.4-95.9h69.3c0,0,22.5,78.4,12.4,95.9
		c-10.1,17.6-29.7,29-35.1,32.4C4499.2,866.8,4496.1,868.6,4496.1,874.9z"/>
	
		<linearGradient id="SVGID_6_" gradientUnits="userSpaceOnUse" x1="4530.8032" y1="818.3122" x2="4530.3423" y2="827.0777" gradientTransform="matrix(1 0 0 1 0 -12.7793)">
		<stop  offset="0" style="stop-color:#AE4F6F"/>
		<stop  offset="1" style="stop-color:#6C365E"/>
	</linearGradient>
	<path class="st27" d="M4529,810.5c-0.3-1.5,0.2-3,1.3-4.1c0.2-0.2,0.4-0.4,0.7-0.4c0.7-0.1,1.3,0.6,1.4,1.3c0.3,1.4-0.7,3-2.2,3.4
		c-0.5,0.1-1.1,0-1.3-0.4"/>
	
		<linearGradient id="SVGID_7_" gradientUnits="userSpaceOnUse" x1="4492.627" y1="820.5743" x2="4492.627" y2="873.0516" gradientTransform="matrix(1 0 0 1 0 -12.7793)">
		<stop  offset="0" style="stop-color:#AE4F6F"/>
		<stop  offset="1" style="stop-color:#6C365E"/>
	</linearGradient>
	<path class="st28" d="M4534.7,824c-0.7,0.1-1.3,0.5-2,0.8c-0.7,0.3-1.6,0.4-2.3,0.2c-0.1,0-0.2,0-0.3-0.1s-0.1-0.1-0.1-0.2
		c0-0.1,0-0.1,0-0.2c0-1.9,0.2-4.1-2.1-5.3c-0.7-0.3-1.4-0.5-2.1-0.5c-2.4,0-4.4,1.4-6.5,2.5c-3.5,1.9-7.3,3-11.2,3.5h-13.2
		c-4.4-0.5-8.7-1.3-13-2.2c-1.8-0.4-3.7-0.8-5.1-1.9c-1.1-0.9-1.9-2.1-2.9-3.1s-2.5-1.8-3.9-1.3c-0.7,0.2-1.2,0.7-1.9,0.9
		c-1.1,0.3-2.2-0.1-3.2-0.5c-1.6-0.7-3.2-1.3-4.5-2.4c-2-1.6-3.7-4.1-6.6-3.4c-1.2,0.3-2.2,1.1-2.8,2.1c-6.3,9.8,5,20.6,11.6,26.7
		c5.5,5.1,11.6,9.3,18,13.2c0.9,0.5,1.7,1,2.4,1.5c7.6,5,9.3,5.8,11.6,5.8c2,0,6.1-3,10.1-5.8c0.7-0.5,1.5-1,2.4-1.5
		c0.5-0.3,1-0.6,1.5-0.9c5-3.1,9.8-6.5,14.3-10.4c2.9-2.6,5.7-5.3,8.2-8.3c1.3-1.6,2.5-3.2,3.6-4.9
		C4535.2,827.4,4537.8,823.7,4534.7,824z"/>
</g>
<g>
	<path class="st12" d="M4000.3,879.4c4.9,0,8.9,4.1,8.7,9l-4.6,115c0,0-1.1,21.5-15.8,21.5c-20.6,0-34.5,0-34.5,0s-13.9,0-34.5,0
		c-14.7,0-15.8-21.5-15.8-21.5l-4.6-115c-0.2-4.9,3.7-9,8.7-9H4000.3z"/>
	<path class="st29" d="M3920.2,928.7c-6.7,0-12.1,3.8-11.8,8.5l2.9,51.1c0,0,0.9,12.4,13.3,12.4c17.3,0,28.9,0,28.9,0s11.7,0,28.9,0
		c12.3,0,13.3-12.4,13.3-12.4l2.9-51.1c0.3-4.6-5.1-8.5-11.8-8.5H3920.2z"/>
	<path class="st30" d="M3936.5,949.3l-13.1-8.9c-2.6-1.8-3.3-5.4-1.5-8l8.9-13.1c1.8-2.6,5.4-3.3,8-1.5l13.1,8.9
		c2.6,1.8,3.3,5.4,1.5,8l-8.9,13.1C3942.7,950.4,3939.1,951.1,3936.5,949.3z"/>
	<path class="st30" d="M3979.1,936.7l-7,2.1c-2,0.6-4-0.5-4.6-2.5l-2.1-7c-0.6-2,0.5-4,2.5-4.6l7-2.1c2-0.6,4,0.5,4.6,2.5l2.1,7
		C3982.2,934.1,3981.1,936.1,3979.1,936.7z"/>
</g>
<path class="st7" d="M4363.5,1008.1l-20.2-11.6c0,0,0.3-67.4,0.3-87.6l45.4-63h-96.1l45.3,62.8c0.1,20,0.3,87.7,0.3,87.7l-20.2,11.6
	c0,0-32.1,12.9,19.4,12.9C4398.4,1021,4363.5,1008.1,4363.5,1008.1z"/>
<linearGradient id="SVGID_8_" gradientUnits="userSpaceOnUse" x1="4340.9531" y1="881.9793" x2="4340.9531" y2="914.9329" gradientTransform="matrix(1 0 0 1 0 -12.7793)">
	<stop  offset="0" style="stop-color:#14AFAB"/>
	<stop  offset="1" style="stop-color:#227893"/>
</linearGradient>
<polygon class="st31" points="4364.8,869.2 4341,902.1 4317.2,869.2 "/>
<path class="st32" d="M4366.7,857.1c5.3-4.6,5.8-12.7,1.2-18s-12.7-5.8-18-1.2"/>
<polygon class="st33" points="4356.9,845.9 4349.5,845.9 4349.5,848.9 4359.6,848.9 "/>
<polygon class="st7" points="4362.5,852.3 4362.5,845.9 4356.9,845.9 4359.5,848.9 "/>
<g>
	<path class="st7" d="M1982.9,284l-32.3-18.6c0,0,0.5-107.9,0.5-140.3l72.7-100.9h-153.9l72.5,100.6c0.2,32,0.5,140.4,0.5,140.4
		l-32.3,18.6c0,0-51.4,20.7,31.1,20.7C2038.8,304.6,1982.9,284,1982.9,284z"/>
	
		<linearGradient id="SVGID_9_" gradientUnits="userSpaceOnUse" x1="1946.853" y1="74.3793" x2="1946.853" y2="127.1438" gradientTransform="matrix(1 0 0 1 0 -12.7793)">
		<stop  offset="0" style="stop-color:#14AFAB"/>
		<stop  offset="1" style="stop-color:#227893"/>
	</linearGradient>
	<polygon class="st34" points="1985,61.6 1946.9,114.2 1908.8,61.6 	"/>
	<polygon class="st33" points="1972.5,24.2 1960.6,24.2 1960.6,29.1 1976.7,29.1 	"/>
	<g>
		<path class="st32" d="M1988,42.2c8.5-7.4,9.3-20.3,1.9-28.8s-20.3-9.3-28.8-1.9"/>
		<polygon class="st7" points="1981.3,34.5 1981.3,24.2 1972.4,24.2 1976.6,29.1 		"/>
	</g>
</g>
<path class="st35" d="M-243,78.2c-0.6-0.8-2.8-5.7-5.3-10.7c-1.7-3.4-1.8-7.2-1.7-9.3c0-0.9,0.4-1.6,0.9-2.3
	c0.4-0.5,0.8-1.4,0.8-2.8c0-2.8-55.6-3.9-55.6-3.9s-55.6,1.1-55.6,3.9c0,1.4,0.4,2.3,0.8,2.8c0.5,0.7,0.9,1.5,0.9,2.3
	c0.1,2.1,0,5.9-1.7,9.3c-2.5,5-4.6,9.9-5.3,10.7c-0.6,0.8,0,15.1,0,18.7v151.9c0,1,0.4,1.9,1,2.7c1.1,1.2,3.1,3.1,5.7,4.7
	c2.4,1.4,4.1,2.7,5.1,3.5c0.7,0.6,1.3,1.4,1.4,2.3l0,0c0.1,0.5,0.3,0.9,0.5,1.3l1.1,1.7c0.7,1.1,1.8,1.7,3,1.8
	c7.4,0.6,33.5,2.5,42.9,2.5c9.8,0,35.6-1.9,42.9-2.5c1.2-0.1,2.4-0.8,3-1.8l1.1-1.7c0.3-0.4,0.4-0.9,0.5-1.3l0,0
	c0.2-0.9,0.7-1.8,1.4-2.3c1-0.8,2.7-2,5.1-3.5c2.6-1.6,4.6-3.5,5.7-4.7c0.7-0.7,1-1.7,1-2.7v-152C-243,93.3-242.4,79-243,78.2z"/>
<path class="st36" d="M-347.7,259.9c0,0,50.3,5.5,87.7,0"/>
<rect x="-356.6" y="147.8" class="st37" width="105.5" height="26.5"/>
<path class="st36" d="M-353.2,55.8c0,0,40.7,4.1,98.6,0"/>
<path class="st37" d="M-335.6,174.3h63.5c-3.5,24-16.4,41.8-31.7,41.8S-332.1,198.3-335.6,174.3z"/>
<path class="st37" d="M-272.2,147.8h-63.5c3.5-24,16.4-41.8,31.7-41.8C-288.5,106-275.7,123.8-272.2,147.8z"/>
<path d="M1174.8,1764.1h-23.1v-106c0-6.4,5.2-11.6,11.6-11.6l0,0c6.4,0,11.6,5.2,11.6,11.6L1174.8,1764.1L1174.8,1764.1z"/>
<path d="M1267.3,1775.7L1267.3,1775.7c0,6.4-5.2,11.6-11.6,11.6h-307c-6.4,0-11.6-5.2-11.6-11.6l0,0c0-6.4,5.2-11.6,11.6-11.6h307.1
	C1262.1,1764.1,1267.3,1769.3,1267.3,1775.7z"/>
<path d="M1792.4,1970.3L1792.4,1970.3c0,6.4-5.2,11.6-11.6,11.6h-307.1c-6.4,0-11.6-5.2-11.6-11.6l0,0c0-6.4,5.2-11.6,11.6-11.6
	h307.1C1787.2,1958.7,1792.4,1963.9,1792.4,1970.3z"/>
<path d="M1203.3,1660.1L1203.3,1660.1c-4.5,4.5-11.8,4.5-16.3,0l-99.2-99.2c-4.5-4.5-4.5-11.8,0-16.3l0,0c4.5-4.5,11.8-4.5,16.3,0
	l99.2,99.2C1207.8,1648.3,1207.8,1655.6,1203.3,1660.1z"/>
<path d="M987.4,1660.1L987.4,1660.1c4.5,4.5,11.8,4.5,16.3,0l99.2-99.2c4.5-4.5,4.5-11.8,0-16.3l0,0c-4.5-4.5-11.8-4.5-16.3,0
	l-99.2,99.2C982.9,1648.3,982.9,1655.6,987.4,1660.1z"/>
<path d="M1038.8,1764.1h-23.1v-106c0-6.4,5.2-11.6,11.6-11.6l0,0c6.4,0,11.6,5.2,11.6,11.6L1038.8,1764.1L1038.8,1764.1z"/>
<path d="M1099.5,1764.1h-43.1v-52.4c0-11.9,9.7-21.6,21.6-21.6l0,0c11.9,0,21.6,9.7,21.6,21.6L1099.5,1764.1L1099.5,1764.1z"/>
<path d="M1685.5,1835h-109.4c-4.3,0-7.9,3.5-7.9,7.9l0,0c0,13.9-11.3,25.2-25.2,25.2l0,0c-10.3,0-18.6,8.3-18.6,18.6v33.7H1721
	c13.8,0,24.9-11.2,24.9-24.9l0,0C1746,1862.1,1718.9,1835,1685.5,1835z"/>
<path d="M1723.4,1857.3h-38.5c-8.7,0-15.8-7.1-15.8-15.8V1803c0-8.7,7.1-15.8,15.8-15.8h38.5c8.7,0,15.8,7.1,15.8,15.8v38.5
	C1739.2,1850.3,1732.1,1857.3,1723.4,1857.3z"/>
<g>
	<path class="st7" d="M2476.1,86.6c-12.3,13.9-52.3,27.8-58,37.6c0,0-0.4,8.6-9.1,9.1c0,0-4.5,3.2-4.5,13.2s-4.3,112,0,116.3
		c4.3,4.3,36.7,14.1,42.2,15.9s38.8,25-54,25s-59.4-23.2-54-25c5.5-1.8,37.9-11.6,42.2-15.9s0-106.3,0-116.3s-4.6-13.2-4.6-13.2
		c-8.6-0.5-9.1-9.1-9.1-9.1c-5.7-9.8-45.8-23.7-58-37.6c-12.3-13.9-9-46.6-9-46.6H2485C2485.1,40,2488.4,72.7,2476.1,86.6z"/>
	<g>
		<path class="st32" d="M2456.3,57.4c8.5-7.4,9.3-20.3,1.9-28.8c-7.4-8.5-20.3-9.3-28.8-1.9"/>
		<polygon class="st7" points="2449.5,49.8 2449.5,39.5 2440.6,39.5 2444.8,44.3 		"/>
	</g>
	
		<linearGradient id="SVGID_10_" gradientUnits="userSpaceOnUse" x1="2392.7397" y1="-376.7548" x2="2392.7397" y2="-442.3887" gradientTransform="matrix(1 0 0 -1 0 -315.2001)">
		<stop  offset="0" style="stop-color:#14AFAB"/>
		<stop  offset="1" style="stop-color:#227893"/>
	</linearGradient>
	<path class="st38" d="M2324.2,61.6c-4.8,0-8.4,4.3-7.5,9c1.1,6.1,3.1,12.2,6.7,16.2c9.2,10.5,37.5,21,46.2,28.9
		c1.1,1,1.9,2.4,2.3,3.8c0.6,2.1,2.2,5.8,7.3,6.1c10.1,3.8,23.9,0.8,26.7,0.1c0.4-0.1,0.7-0.1,1.1-0.2c4.6-0.5,6.2-3.9,6.7-6
		c0.4-1.5,1.1-2.9,2.3-3.9c8.7-7.9,36.9-18.4,46.2-28.9c3.6-4.1,5.6-10.1,6.7-16.3c0.8-4.7-2.8-9-7.5-9h-137.2V61.6z"/>
</g>
<g>
	<path class="st7" d="M2741.2,303.3c-37.3-5.2-19.8-13.9-19.8-13.9l25.9-9.8v-107c-12.1-6.8-20.5-22.5-20.5-22.5
		c-14-24.2-5.4-143.7-5.4-143.7h60.6c0,0,8.6,119.5-5.4,143.7c0,0-8.4,15.6-20.5,22.5v107l25.9,9.8c0,0,17.5,8.7-19.8,13.9
		C2755.3,304.3,2748.2,304.3,2741.2,303.3z"/>
	<g>
		<path class="st32" d="M2776.8,24.3c8.5-7.4,9.3-20.3,1.9-28.8c-7.4-8.5-20.3-9.3-28.8-1.9"/>
		<polygon class="st7" points="2770.1,16.6 2770.1,6.4 2761.1,6.4 2765.4,11.2 		"/>
	</g>
	
		<linearGradient id="SVGID_11_" gradientUnits="userSpaceOnUse" x1="2751.6531" y1="-352.4274" x2="2751.6531" y2="-479.2107" gradientTransform="matrix(1 0 0 -1 0 -315.2001)">
		<stop  offset="0" style="stop-color:#14AFAB"/>
		<stop  offset="1" style="stop-color:#227893"/>
	</linearGradient>
	<path class="st39" d="M2732.8,39.5c-2.9,0-5.3,2.3-5.4,5.1c-1.4,27.4-3.2,85.1,5,99.6c0,0,6.5,12.5,15.9,17.9
		c2,1.3,4.8,0.6,6.1,0.2c0.4-0.1,0.8-0.3,1.2-0.5c9.1-5.6,15.4-17.6,15.4-17.6c8.2-14.5,6.4-72.2,5-99.6c-0.1-2.9-2.5-5.1-5.4-5.1
		H2732.8z"/>
</g>
<g>
	<path class="st7" d="M3097.5,77.5c6.4,48.4,20.4,121.1,1.3,140.2c-12.4,12.4-18.3,19.6-20.9,23.1c-1.2,1.6-1.6,3.6-1.1,5.5
		c1.2,5.2,3.3,16.3,0.7,21c-0.9,1.7-1.8,3.3-2.5,4.9c-1.8,3.9,0.5,8.5,4.7,9.4l17.8,3.9c0.2,0,0.4,0.1,0.7,0.2
		c4.1,1.3,41,14.1-33.3,18.8c-0.3,0-0.6,0-0.9,0c-74.3-4.7-37.3-17.5-33.3-18.8c0.2-0.1,0.4-0.1,0.7-0.2l17.8-3.9
		c4.2-0.9,6.5-5.5,4.7-9.4c-0.7-1.5-1.5-3.2-2.5-4.9c-2.6-4.8-0.5-15.8,0.7-21c0.4-1.9,0-3.9-1.1-5.5c-2.6-3.5-8.5-10.7-20.9-23.1
		c-19.1-19.1-5.1-91.8,1.3-140.2c3.8-29-3.8-48-10.5-58.5c-2.9-4.5,0.4-10.3,5.7-10.3h76c5.3,0,8.5,5.9,5.7,10.3
		C3101.3,29.5,3093.7,48.4,3097.5,77.5z"/>
	<g>
		<path class="st32" d="M3095.6,26.6c8.5-7.4,9.3-20.3,1.9-28.8c-7.4-8.5-20.3-9.3-28.8-1.9"/>
		<polygon class="st7" points="3088.9,19 3088.9,8.7 3079.9,8.7 3084.1,13.5 		"/>
	</g>
	
		<linearGradient id="SVGID_12_" gradientUnits="userSpaceOnUse" x1="3064.325" y1="-347.787" x2="3064.325" y2="-547.8777" gradientTransform="matrix(1 0 0 -1 0 -315.2001)">
		<stop  offset="0" style="stop-color:#14AFAB"/>
		<stop  offset="1" style="stop-color:#227893"/>
	</linearGradient>
	<path class="st40" d="M3088,33.3h-47.2c-2.4,0-4.1,2.3-3.5,4.6c2.6,9.6,4.2,22.4,2.4,38.6c-4.8,43.6-15.2,109.1-1,126.3
		c8.9,10.8,13.3,17.2,15.4,20.4c0.2,0.2,0.3,0.5,0.5,0.7c8.8,8.8,17.5,1.8,19.4,0.1c0.2-0.2,0.5-0.5,0.6-0.8
		c2.1-3.3,6.5-9.7,15.4-20.4c14.3-17.2,3.8-82.7-1-126.3c-1.8-16.3-0.2-29,2.4-38.6C3092.1,35.6,3090.4,33.3,3088,33.3z"/>
</g>
<linearGradient id="SVGID_13_" gradientUnits="userSpaceOnUse" x1="3455.3423" y1="363.678" x2="3455.8442" y2="94.5882" gradientTransform="matrix(1 0 0 -1 0 -315.2001)">
	<stop  offset="0" style="stop-color:#14AFAB"/>
	<stop  offset="1" style="stop-color:#227893"/>
</linearGradient>
<path class="st41" d="M3488.5-678.4h-66.2c-3,0-5.4,2.6-5.2,5.6l18.9,249.7c0,5.1,8.7,9.2,19.4,9.2c10.7,0,19.4-4.1,19.4-9.2
	l18.9-249.7C3493.9-675.8,3491.5-678.4,3488.5-678.4z"/>
</svg>
