<?xml version="1.0" encoding="utf-8"?>
<!-- Generator: Adobe Illustrator 22.0.1, SVG Export Plug-In . SVG Version: 6.00 Build 0)  -->
<svg version="1.1" id="Layer_1" xmlns="http://www.w3.org/2000/svg" xmlns:xlink="http://www.w3.org/1999/xlink" x="0px" y="0px"
	 viewBox="0 0 50.2 138.6" style="enable-background:new 0 0 50.2 138.6;" xml:space="preserve">
<style type="text/css">
	.st0{fill:#F1BAA5;}
	.st1{fill:#54A5D3;}
	.st2{opacity:0.3;fill:#757576;enable-background:new    ;}
	.st3{fill:#392812;}
	.st4{fill:#2278B3;}
	.st5{opacity:0.5;fill:#D28B6B;enable-background:new    ;}
	.st6{fill:#193058;}
	.st7{fill:#EAEAEA;}
	.st8{fill:#C54E3C;}
	.st9{fill:#FFFFFF;}
	.st10{fill:url(#SVGID_1_);}
	.st11{fill:none;stroke:#392812;stroke-linecap:round;stroke-miterlimit:10;}
	.st12{opacity:0.35;fill:none;stroke:#FFFFFF;stroke-linecap:round;stroke-miterlimit:10;enable-background:new    ;}
	.st13{fill:#8A2727;}
	.st14{fill:#B63030;}
</style>
<path class="st0" d="M269.6,92.4L269.6,92.4c-2.3,0-4.1-1.9-4.1-4.1V68.5h4.1V92.4z"/>
<path class="st0" d="M291.5,92.4L291.5,92.4c2.3,0,4.1-1.9,4.1-4.1V68.5h-4.1V92.4z"/>
<path class="st1" d="M285.2,64.8h-9c-1.8,0-3.3-1.5-3.3-3.3V60c0-1.8,1.5-3.3,3.3-3.3h9c1.8,0,3.3,1.5,3.3,3.3v1.5
	C288.5,63.3,287,64.8,285.2,64.8z"/>
<path class="st2" d="M303.9,138.6h-46.5c-1,0-1.8-0.8-1.8-1.8v-1.2c0-1,0.8-1.8,1.8-1.8h46.5c1,0,1.8,0.8,1.8,1.8v1.2
	C305.8,137.8,304.9,138.6,303.9,138.6z"/>
<path class="st1" d="M280.6,57.7c-8.3,0-15.1,4.8-15.1,10.8h30.2C295.7,62.6,288.9,57.7,280.6,57.7z"/>
<path class="st3" d="M283.5,33.4V19.6c0-4.5,3.7-8.2,8.2-8.2l0,0c4.5,0,8.2,3.7,8.2,8.2v13.8c0,4.5-3.7,8.2-8.2,8.2l0,0
	C287.2,41.6,283.5,37.9,283.5,33.4z"/>
<path class="st3" d="M261.2,33.4V19.6c0-4.5,3.7-8.2,8.2-8.2l0,0c4.5,0,8.2,3.7,8.2,8.2v13.8c0,4.5-3.7,8.2-8.2,8.2l0,0
	C264.9,41.6,261.2,37.9,261.2,33.4z"/>
<path class="st4" d="M283.1,64.1h-5.3c-1.8,0-3.3-1.5-3.3-3.3l0,0c0-1.8,1.5-3.3,3.3-3.3h5.3c1.8,0,3.3,1.5,3.3,3.3l0,0
	C286.4,62.6,284.9,64.1,283.1,64.1z"/>
<path class="st4" d="M291.5,89c0-0.3,0-0.6,0-0.8V70.7c0-6-4.9-11-11-11c-6,0-11,4.9-11,11v17.4c0,0.3,0,0.6,0,0.8L291.5,89
	L291.5,89z"/>
<path class="st0" d="M280.6,65.8L280.6,65.8c-2,0-3.5-1.6-3.5-3.5v-6.6c0-2,1.6-3.5,3.5-3.5l0,0c2,0,3.5,1.6,3.5,3.5v6.6
	C284.1,64.3,282.5,65.8,280.6,65.8z"/>
<path class="st5" d="M280.6,52.1L280.6,52.1c-2,0-3.5,1.6-3.5,3.5v2.9c1.1,0.3,2.3,0.4,3.5,0.4l0,0c1.2,0,2.4-0.2,3.5-0.4v-2.9
	C284.1,53.7,282.5,52.1,280.6,52.1z"/>
<path class="st0" d="M280.6,57.7L280.6,57.7c-8.3,0-15.1-6.8-15.1-15.1V23.1c0-8.3,6.8-15.1,15.1-15.1l0,0c8.3,0,15.1,6.8,15.1,15.1
	v19.6C295.7,51,288.9,57.7,280.6,57.7z"/>
<path class="st3" d="M288,28.5h-14.8c-5,0-9.1-4.1-9.1-9.1v-4.3c0-5,4.1-9.1,9.1-9.1H288c5,0,9.1,4.1,9.1,9.1v4.3
	C297.1,24.5,293,28.5,288,28.5z"/>
<path class="st6" d="M280.6,99.1L280.6,99.1c5.5,0,10-4.4,11-10.1h-21.9C270.6,94.7,275.1,99.1,280.6,99.1z"/>
<rect x="272.6" y="130.6" class="st7" width="4.3" height="2.9"/>
<rect x="284.2" y="130.6" class="st7" width="4.3" height="2.9"/>
<path class="st8" d="M277.7,135c0-1.6-1.3-2.9-2.9-2.9s-2.9,1.3-2.9,2.9v0.4h5.8V135z"/>
<rect x="271.9" y="135.4" class="st9" width="5.8" height="0.8"/>
<path class="st8" d="M289.3,135c0-1.6-1.3-2.9-2.9-2.9s-2.9,1.3-2.9,2.9v0.4h5.8V135z"/>
<rect x="283.5" y="135.4" class="st9" width="5.8" height="0.8"/>
<linearGradient id="SVGID_1_" gradientUnits="userSpaceOnUse" x1="281.85" y1="98.8548" x2="281.85" y2="91.9878" gradientTransform="matrix(1 0 0 -1 0 140)">
	<stop  offset="0" style="stop-color:#309FBC"/>
	<stop  offset="1" style="stop-color:#71C493"/>
</linearGradient>
<path class="st10" d="M283.3,41.8v4.9c0,0.7-0.4,1.3-0.9,1.3s-0.8-0.6-0.8-1.3v-3.5c0,0.5-0.3,0.9-0.6,0.9c-0.3,0-0.6-0.4-0.6-0.9
	V42c0-0.5,0.3-0.9,0.6-0.9h0.6v0.7H283.3z"/>
<path class="st11" d="M284.3,43.1c-0.9-1.2-2.3-1.9-3.9-1.9s-3,0.8-3.9,1.9"/>
<path class="st6" d="M272.6,95.3h4.3c0,0-3.7,7.6-4,16.5s4,18.8,4,18.8h-4.6c0,0-4.5-12.1-4-18.8S272.6,95.3,272.6,95.3z"/>
<path class="st6" d="M288.5,95.3h-4.3c0,0,3.7,7.6,4,16.5s-4,18.8-4,18.8h4.6c0,0,4.5-12.1,4-18.8S288.5,95.3,288.5,95.3z"/>
<path class="st3" d="M271.1,34.1v1.5c0,0.5,0.4,0.9,0.9,0.9s0.9-0.4,0.9-0.9v-1.9L271.1,34.1z"/>
<path class="st3" d="M290.8,34.1v1.5c0,0.5-0.4,0.9-0.9,0.9s-0.9-0.4-0.9-0.9v-1.9L290.8,34.1z"/>
<g>
	<path class="st0" d="M160,62.4c-0.2,1.6-1.5,2.8-3.1,2.9c-0.1,0-0.3,0-0.4,0l-4.5-0.7h-3.4L137,63.5c-1.1-0.1-2.1-0.3-2.9-0.5
		c-7.2-2.1-5.7-8.9-5.6-9.5l0,0l1.6-9.9c0.2-1.6,1.6-2.7,3.1-2.7c0.2,0,0.3,0,0.5,0c1.7,0.3,2.9,1.9,2.6,3.6l-1.3,8
		c0,0.1,0,0.2-0.1,0.4c-0.1,0.3-0.1,0.6-0.1,0.9l0,0c-0.3,2.5,0.9,3.1,1.6,3.3c0,0,0,0,0.1,0c0.3,0.1,0.5,0,0.5,0l20.2,2
		C158.9,59.1,160.1,60.7,160,62.4z"/>
	<path class="st1" d="M162.9,54.4c-8.3,0-8.1,0.1-14.4,3.7v6.4l25.3,1.5h4.1C178,59.6,171.2,54.4,162.9,54.4z"/>
	<path class="st0" d="M173.8,92.4L173.8,92.4c2.3,0,4.1-1.9,4.1-4.1V66h-4.1V92.4z"/>
	<path class="st2" d="M186.2,138.6h-46.5c-1,0-1.8-0.8-1.8-1.8v-1.2c0-1,0.8-1.8,1.8-1.8h46.5c1,0,1.8,0.8,1.8,1.8v1.2
		C188.1,137.8,187.3,138.6,186.2,138.6z"/>
	<path class="st6" d="M162.9,99.1L162.9,99.1c5.5,0,10-4.4,11-10.1H152C152.9,94.7,157.4,99.1,162.9,99.1z"/>
	<rect x="154.9" y="90.1" class="st6" width="4.3" height="40.5"/>
	<rect x="166.5" y="90.1" class="st6" width="4.3" height="40.5"/>
	<rect x="154.9" y="130.6" class="st7" width="4.3" height="2.9"/>
	<rect x="166.5" y="130.6" class="st7" width="4.3" height="2.9"/>
	<path class="st8" d="M160,135c0-1.6-1.3-2.9-2.9-2.9s-2.9,1.3-2.9,2.9v0.4h5.8L160,135L160,135z"/>
	<rect x="154.2" y="135.4" class="st9" width="5.8" height="0.8"/>
	<path class="st8" d="M171.6,135c0-1.6-1.3-2.9-2.9-2.9s-2.9,1.3-2.9,2.9v0.4h5.8L171.6,135L171.6,135z"/>
	<rect x="165.8" y="135.4" class="st9" width="5.8" height="0.8"/>
	<path class="st0" d="M131.6,56.3h0.5C132.1,56.4,131.9,56.4,131.6,56.3z"/>
	
		<ellipse transform="matrix(7.378887e-02 -0.9973 0.9973 7.378887e-02 73.46 195.5366)" class="st0" cx="142" cy="58.2" rx="3.9" ry="4.5"/>
	<path class="st12" d="M143.2,56c1.1,0.1,1.9,0.9,1.8,1.8"/>
	<path class="st4" d="M173.8,89V65.6c0-6.2-4.9-11.3-11-11.3l0,0c-6,0-11,5-11,11.3V89H173.8z"/>
	<path class="st0" d="M162.9,59.8L162.9,59.8c-2,0-3.5-1.6-3.5-3.5v-6.6c0-2,1.6-3.5,3.5-3.5l0,0c2,0,3.5,1.6,3.5,3.5v6.6
		C166.4,58.2,164.8,59.8,162.9,59.8z"/>
	<path class="st5" d="M162.9,46.1L162.9,46.1c-2,0-3.5,1.6-3.5,3.5v2.9c1.1,0.3,2.3,0.4,3.5,0.4l0,0c1.2,0,2.4-0.2,3.5-0.4v-2.9
		C166.4,47.7,164.8,46.1,162.9,46.1z"/>
	<path class="st3" d="M165.8,27.4V13.5c0-4.5,3.7-8.2,8.2-8.2l0,0c4.5,0,8.2,3.7,8.2,8.2v13.8c0,4.5-3.7,8.2-8.2,8.2l0,0
		C169.5,35.6,165.8,31.9,165.8,27.4z"/>
	<path class="st3" d="M143.5,27.4V13.5c0-4.5,3.7-8.2,8.2-8.2l0,0c4.5,0,8.2,3.7,8.2,8.2v13.8c0,4.5-3.7,8.2-8.2,8.2l0,0
		C147.2,35.6,143.5,31.9,143.5,27.4z"/>
	<path class="st0" d="M162.9,51.7L162.9,51.7c-8.3,0-15.1-6.8-15.1-15.1V17c0-8.3,6.8-15.1,15.1-15.1l0,0c8.3,0,15.1,6.8,15.1,15.1
		v19.6C178,44.9,171.2,51.7,162.9,51.7z"/>
	<path class="st3" d="M170.3,22.5h-14.8c-5,0-9.1-4.1-9.1-9.1V9.1c0-5,4.1-9.1,9.1-9.1h14.8c5,0,9.1,4.1,9.1,9.1v4.3
		C179.4,18.4,175.3,22.5,170.3,22.5z"/>
	<path class="st3" d="M154.3,30.4L154.3,30.4c-0.5,0-0.9-0.4-0.9-0.9v-2.8c0-0.5,0.4-0.9,0.9-0.9l0,0c0.5,0,0.9,0.4,0.9,0.9v2.8
		C155.1,30,154.7,30.4,154.3,30.4z"/>
	<path class="st3" d="M172.2,30.4L172.2,30.4c-0.5,0-0.9-0.4-0.9-0.9v-2.8c0-0.5,0.4-0.9,0.9-0.9l0,0c0.5,0,0.9,0.4,0.9,0.9v2.8
		C173.1,30,172.7,30.4,172.2,30.4z"/>
	<path class="st11" d="M159,38.2c0.9,1.2,2.3,1.9,3.9,1.9s3-0.8,3.9-1.9"/>
</g>
<path class="st2" d="M48.4,138.6H1.8c-1,0-1.8-0.8-1.8-1.8v-1.2c0-1,0.8-1.8,1.8-1.8h46.5c1,0,1.8,0.8,1.8,1.8v1.2
	C50.2,137.8,49.4,138.6,48.4,138.6z"/>
<path class="st1" d="M25,54.4c-8.3,0-15.1,5.2-15.1,11.7h30.2C40.1,59.6,33.3,54.4,25,54.4z"/>
<path class="st6" d="M25,99.1L25,99.1c5.5,0,10-4.4,11-10.1H14.1C15,94.7,19.5,99.1,25,99.1z"/>
<rect x="17" y="90.1" class="st6" width="4.3" height="40.5"/>
<rect x="28.7" y="90.1" class="st6" width="4.3" height="40.5"/>
<path class="st0" d="M14.1,92.4L14.1,92.4c-2.3,0-4.1-1.9-4.1-4.1V66h4.1V92.4z"/>
<path class="st0" d="M36,92.4L36,92.4c2.3,0,4.1-1.9,4.1-4.1V66H36V92.4z"/>
<rect x="17" y="130.6" class="st7" width="4.3" height="2.9"/>
<rect x="28.7" y="130.6" class="st7" width="4.3" height="2.9"/>
<path class="st8" d="M22.1,135c0-1.6-1.3-2.9-2.9-2.9s-2.9,1.3-2.9,2.9v0.4h5.8C22.1,135.4,22.1,135,22.1,135z"/>
<rect x="16.3" y="135.4" class="st9" width="5.8" height="0.8"/>
<path class="st8" d="M33.7,135c0-1.6-1.3-2.9-2.9-2.9s-2.9,1.3-2.9,2.9v0.4h5.8V135z"/>
<rect x="27.9" y="135.4" class="st9" width="5.8" height="0.8"/>
<path class="st4" d="M36,89V65.6c0-6.2-4.9-11.3-11-11.3s-11,5-11,11.3V89H36z"/>
<path class="st3" d="M27.9,27.4V13.5c0-4.5,3.7-8.2,8.2-8.2l0,0c4.5,0,8.2,3.7,8.2,8.2v13.8c0,4.5-3.7,8.2-8.2,8.2l0,0
	C31.6,35.6,27.9,31.9,27.9,27.4z"/>
<path class="st3" d="M5.6,27.4V13.5c0-4.5,3.7-8.2,8.2-8.2l0,0c4.5,0,8.2,3.7,8.2,8.2v13.8c0,4.5-3.7,8.2-8.2,8.2l0,0
	C9.3,35.6,5.6,31.9,5.6,27.4z"/>
<path class="st0" d="M25,59.8L25,59.8c-2,0-3.5-1.6-3.5-3.5v-6.6c0-2,1.6-3.5,3.5-3.5l0,0c2,0,3.5,1.6,3.5,3.5v6.6
	C28.5,58.2,27,59.8,25,59.8z"/>
<path class="st5" d="M25,46.1L25,46.1c-2,0-3.5,1.6-3.5,3.5v2.9c1.1,0.3,2.3,0.4,3.5,0.4l0,0c1.2,0,2.4-0.2,3.5-0.4v-2.9
	C28.5,47.7,27,46.1,25,46.1z"/>
<path class="st0" d="M25,51.7L25,51.7c-8.3,0-15.1-6.8-15.1-15.1V17C9.9,8.7,16.7,1.9,25,1.9l0,0c8.3,0,15.1,6.8,15.1,15.1v19.6
	C40.1,44.9,33.3,51.7,25,51.7z"/>
<path class="st3" d="M32.4,22.5H17.6c-5,0-9.1-4.1-9.1-9.1V9.1c0-5,4.1-9.1,9.1-9.1h14.8c5,0,9.1,4.1,9.1,9.1v4.3
	C41.5,18.4,37.4,22.5,32.4,22.5z"/>
<path class="st3" d="M16.4,30.4L16.4,30.4c-0.5,0-0.9-0.4-0.9-0.9v-2.8c0-0.5,0.4-0.9,0.9-0.9l0,0c0.5,0,0.9,0.4,0.9,0.9v2.8
	C17.2,30,16.9,30.4,16.4,30.4z"/>
<path class="st3" d="M34.3,30.4L34.3,30.4c-0.5,0-0.9-0.4-0.9-0.9v-2.8c0-0.5,0.4-0.9,0.9-0.9l0,0c0.5,0,0.9,0.4,0.9,0.9v2.8
	C35.2,30,34.8,30.4,34.3,30.4z"/>
<g>
	<path class="st13" d="M21.9,39.1c0.8-0.8,1.9-1.2,3.1-1.2s2.3,0.5,3.1,1.2c0.8-0.7,1.3-1.7,1.5-2.8h-9.2
		C20.6,37.4,21.1,38.4,21.9,39.1z"/>
	<path class="st14" d="M21.9,39.1c0.8,0.8,1.9,1.2,3.1,1.2s2.3-0.5,3.1-1.2c-0.8-0.8-1.9-1.2-3.1-1.2S22.7,38.4,21.9,39.1z"/>
	<path class="st9" d="M29.6,35.6h-9.2c0,0.1,0,0.2,0,0.3s0,0.3,0.1,0.4h9.2c0-0.1,0.1-0.3,0.1-0.4C29.6,35.8,29.6,35.7,29.6,35.6z"
		/>
</g>
</svg>
