<?xml version="1.0" encoding="utf-8"?>
<!-- Generator: Adobe Illustrator 22.0.1, SVG Export Plug-In . SVG Version: 6.00 Build 0)  -->
<svg version="1.1" id="Layer_1" xmlns="http://www.w3.org/2000/svg" xmlns:xlink="http://www.w3.org/1999/xlink" x="0px" y="0px"
	 viewBox="0 0 70 138.6" style="enable-background:new 0 0 70 138.6;" xml:space="preserve">
<style type="text/css">
	.st0{opacity:0.3;fill:#757576;}
	.st1{fill:#54A5D3;}
	.st2{fill:#193058;}
	.st3{fill:#F1BAA5;}
	.st4{fill:#EAEAEA;}
	.st5{fill:#C54E3C;}
	.st6{fill:#FFFFFF;}
	.st7{fill:#392812;}
	.st8{fill:#2278B3;}
	.st9{opacity:0.5;fill:#D28B6B;}
	.st10{fill:url(#SVGID_1_);}
	.st11{fill:none;stroke:#392812;stroke-linecap:round;stroke-miterlimit:10;}
	.st12{opacity:0.35;fill:none;stroke:#FFFFFF;stroke-linecap:round;stroke-miterlimit:10;}
	.st13{fill:#8A2727;}
	.st14{fill:#B63030;}
</style>
<path class="st0" d="M-79.8,138.6h-46.5c-1,0-1.8-0.8-1.8-1.8v-1.2c0-1,0.8-1.8,1.8-1.8h46.5c1,0,1.8,0.8,1.8,1.8v1.2
	C-78,137.8-78.8,138.6-79.8,138.6z"/>
<path class="st1" d="M-103.2,54.4c-8.3,0-15.1,5.2-15.1,11.7h30.2C-88.1,59.6-94.8,54.4-103.2,54.4z"/>
<path class="st2" d="M-103.2,99.1L-103.2,99.1c5.5,0,10-4.4,11-10.1h-21.9C-113.2,94.7-108.6,99.1-103.2,99.1z"/>
<rect x="-111.1" y="90.1" class="st2" width="4.3" height="40.5"/>
<rect x="-99.5" y="90.1" class="st2" width="4.3" height="40.5"/>
<path class="st3" d="M-114.1,92.4L-114.1,92.4c-2.3,0-4.1-1.9-4.1-4.1V66h4.1V92.4z"/>
<path class="st3" d="M-92.2,92.4L-92.2,92.4c2.3,0,4.1-1.9,4.1-4.1V66h-4.1V92.4z"/>
<rect x="-111.1" y="130.6" class="st4" width="4.3" height="2.9"/>
<rect x="-99.5" y="130.6" class="st4" width="4.3" height="2.9"/>
<path class="st5" d="M-106.1,135c0-1.6-1.3-2.9-2.9-2.9s-2.9,1.3-2.9,2.9v0.4h5.8V135z"/>
<rect x="-111.9" y="135.4" class="st6" width="5.8" height="0.8"/>
<path class="st5" d="M-94.4,135c0-1.6-1.3-2.9-2.9-2.9s-2.9,1.3-2.9,2.9v0.4h5.8V135z"/>
<rect x="-100.3" y="135.4" class="st6" width="5.8" height="0.8"/>
<path class="st3" d="M141.5,92.4L141.5,92.4c-2.3,0-4.1-1.9-4.1-4.1V68.5h4.1V92.4z"/>
<path class="st3" d="M163.4,92.4L163.4,92.4c2.3,0,4.1-1.9,4.1-4.1V68.5h-4.1V92.4z"/>
<path class="st1" d="M157,64.8h-9c-1.8,0-3.3-1.5-3.3-3.3V60c0-1.8,1.5-3.3,3.3-3.3h9c1.8,0,3.3,1.5,3.3,3.3v1.5
	C160.3,63.3,158.9,64.8,157,64.8z"/>
<path class="st0" d="M175.8,138.6h-46.5c-1,0-1.8-0.8-1.8-1.8v-1.2c0-1,0.8-1.8,1.8-1.8h46.5c1,0,1.8,0.8,1.8,1.8v1.2
	C177.6,137.8,176.8,138.6,175.8,138.6z"/>
<path class="st1" d="M152.4,57.7c-8.3,0-15.1,4.8-15.1,10.8h30.2C167.5,62.6,160.7,57.7,152.4,57.7z"/>
<path class="st7" d="M155.3,33.4V19.6c0-4.5,3.7-8.2,8.2-8.2h0c4.5,0,8.2,3.7,8.2,8.2v13.8c0,4.5-3.7,8.2-8.2,8.2h0
	C159,41.6,155.3,37.9,155.3,33.4z"/>
<path class="st7" d="M133,33.4V19.6c0-4.5,3.7-8.2,8.2-8.2h0c4.5,0,8.2,3.7,8.2,8.2v13.8c0,4.5-3.7,8.2-8.2,8.2h0
	C136.7,41.6,133,37.9,133,33.4z"/>
<path class="st8" d="M154.9,64.1h-5.3c-1.8,0-3.3-1.5-3.3-3.3v0c0-1.8,1.5-3.3,3.3-3.3h5.3c1.8,0,3.3,1.5,3.3,3.3v0
	C158.2,62.6,156.7,64.1,154.9,64.1z"/>
<path class="st8" d="M163.3,89c0-0.3,0-0.6,0-0.8V70.7c0-6-4.9-11-11-11c-6,0-11,4.9-11,11v17.4c0,0.3,0,0.6,0,0.8H163.3z"/>
<path class="st3" d="M152.4,65.8L152.4,65.8c-2,0-3.5-1.6-3.5-3.5v-6.6c0-2,1.6-3.5,3.5-3.5h0c2,0,3.5,1.6,3.5,3.5v6.6
	C156,64.3,154.4,65.8,152.4,65.8z"/>
<path class="st9" d="M152.4,52.1L152.4,52.1c-2,0-3.5,1.6-3.5,3.5v2.9c1.1,0.3,2.3,0.4,3.5,0.4h0c1.2,0,2.4-0.2,3.5-0.4v-2.9
	C156,53.7,154.4,52.1,152.4,52.1z"/>
<path class="st3" d="M152.4,57.7L152.4,57.7c-8.3,0-15.1-6.8-15.1-15.1V23.1c0-8.3,6.8-15.1,15.1-15.1h0c8.3,0,15.1,6.8,15.1,15.1
	v19.6C167.5,51,160.8,57.7,152.4,57.7z"/>
<path class="st7" d="M159.8,28.5H145c-5,0-9.1-4.1-9.1-9.1v-4.3c0-5,4.1-9.1,9.1-9.1h14.8c5,0,9.1,4.1,9.1,9.1v4.3
	C168.9,24.5,164.9,28.5,159.8,28.5z"/>
<path class="st2" d="M152.4,99.1L152.4,99.1c5.5,0,10-4.4,11-10.1h-21.9C142.4,94.7,147,99.1,152.4,99.1z"/>
<rect x="144.5" y="130.6" class="st4" width="4.3" height="2.9"/>
<rect x="156.1" y="130.6" class="st4" width="4.3" height="2.9"/>
<path class="st5" d="M149.5,135c0-1.6-1.3-2.9-2.9-2.9s-2.9,1.3-2.9,2.9v0.4h5.8V135z"/>
<rect x="143.7" y="135.4" class="st6" width="5.8" height="0.8"/>
<path class="st5" d="M161.1,135c0-1.6-1.3-2.9-2.9-2.9s-2.9,1.3-2.9,2.9v0.4h5.8V135z"/>
<rect x="155.3" y="135.4" class="st6" width="5.8" height="0.8"/>
<linearGradient id="SVGID_1_" gradientUnits="userSpaceOnUse" x1="153.6989" y1="41.1452" x2="153.6989" y2="48.0122">
	<stop  offset="0" style="stop-color:#309FBC"/>
	<stop  offset="1" style="stop-color:#71C493"/>
</linearGradient>
<path class="st10" d="M155.1,41.8v4.9c0,0.7-0.4,1.3-0.9,1.3c-0.5,0-0.8-0.6-0.8-1.3v-3.5c0,0.5-0.3,0.9-0.6,0.9
	c-0.3,0-0.6-0.4-0.6-0.9V42c0-0.5,0.3-0.9,0.6-0.9h0.6v0.7H155.1z"/>
<path class="st11" d="M156.2,43.1c-0.9-1.2-2.3-1.9-3.9-1.9s-3,0.8-3.9,1.9"/>
<path class="st2" d="M144.5,95.3h4.3c0,0-3.7,7.6-4,16.5s4,18.8,4,18.8h-4.6c0,0-4.5-12.1-4-18.8S144.5,95.3,144.5,95.3z"/>
<path class="st2" d="M160.3,95.3H156c0,0,3.7,7.6,4,16.5c0.3,8.9-4,18.8-4,18.8h4.6c0,0,4.5-12.1,4-18.8
	C164.2,105,160.3,95.3,160.3,95.3z"/>
<path class="st7" d="M143,34.1v1.5c0,0.5,0.4,0.9,0.9,0.9s0.9-0.4,0.9-0.9v-1.9L143,34.1z"/>
<path class="st7" d="M162.6,34.1v1.5c0,0.5-0.4,0.9-0.9,0.9s-0.9-0.4-0.9-0.9v-1.9L162.6,34.1z"/>
<path class="st8" d="M-92.2,89V65.6c0-6.2-4.9-11.3-11-11.3s-11,5-11,11.3V89H-92.2z"/>
<g>
	<path class="st3" d="M31.8,62.4c-0.2,1.6-1.5,2.8-3.1,2.9c-0.1,0-0.3,0-0.4,0l-4.5-0.7l-3.4,0L8.8,63.4c-1.1-0.1-2.1-0.3-2.9-0.5
		c-7.2-2.1-5.7-8.9-5.6-9.5c0,0,0,0,0,0l1.6-9.9c0.3-1.6,1.6-2.7,3.1-2.7c0.2,0,0.3,0,0.5,0c1.7,0.3,2.9,1.9,2.6,3.6l-1.3,8
		c0,0.1,0,0.2-0.1,0.4c-0.1,0.3-0.1,0.6-0.1,0.9v0c-0.3,2.5,0.9,3.1,1.6,3.3c0,0,0,0,0.1,0c0.3,0.1,0.5,0,0.5,0l20.2,2
		C30.7,59.1,32,60.7,31.8,62.4z"/>
	<path class="st1" d="M34.7,54.4c-8.3,0-8.1,0.1-14.4,3.7v6.4L45.7,66h4.1C49.8,59.6,43.1,54.4,34.7,54.4z"/>
	<path class="st3" d="M45.7,92.4L45.7,92.4c2.3,0,4.1-1.9,4.1-4.1V66h-4.1V92.4z"/>
	<path class="st0" d="M58.1,138.6H11.6c-1,0-1.8-0.8-1.8-1.8v-1.2c0-1,0.8-1.8,1.8-1.8h46.5c1,0,1.8,0.8,1.8,1.8v1.2
		C59.9,137.8,59.1,138.6,58.1,138.6z"/>
	<path class="st2" d="M34.7,99.1L34.7,99.1c5.5,0,10-4.4,11-10.1H23.8C24.7,94.7,29.3,99.1,34.7,99.1z"/>
	<rect x="26.8" y="90.1" class="st2" width="4.3" height="40.5"/>
	<rect x="38.4" y="90.1" class="st2" width="4.3" height="40.5"/>
	<rect x="26.8" y="130.6" class="st4" width="4.3" height="2.9"/>
	<rect x="38.4" y="130.6" class="st4" width="4.3" height="2.9"/>
	<path class="st5" d="M31.8,135c0-1.6-1.3-2.9-2.9-2.9S26,133.4,26,135v0.4h5.8V135z"/>
	<rect x="26" y="135.4" class="st6" width="5.8" height="0.8"/>
	<path class="st5" d="M43.4,135c0-1.6-1.3-2.9-2.9-2.9s-2.9,1.3-2.9,2.9v0.4h5.8V135z"/>
	<rect x="37.6" y="135.4" class="st6" width="5.8" height="0.8"/>
	<path class="st3" d="M3.4,56.3l0.5,0C3.9,56.4,3.7,56.4,3.4,56.3z"/>
	
		<ellipse transform="matrix(7.379080e-02 -0.9973 0.9973 7.379080e-02 -45.2318 67.7239)" class="st3" cx="13.8" cy="58.2" rx="3.9" ry="4.5"/>
	<path class="st12" d="M15,56c1.1,0.1,1.9,0.9,1.8,1.8"/>
	<path class="st8" d="M45.7,89V65.6c0-6.2-4.9-11.3-11-11.3h0c-6,0-11,5-11,11.3V89H45.7z"/>
	<path class="st3" d="M34.7,59.8L34.7,59.8c-2,0-3.5-1.6-3.5-3.5v-6.6c0-2,1.6-3.5,3.5-3.5h0c2,0,3.5,1.6,3.5,3.5v6.6
		C38.3,58.2,36.7,59.8,34.7,59.8z"/>
	<path class="st9" d="M34.7,46.1L34.7,46.1c-2,0-3.5,1.6-3.5,3.5v2.9c1.1,0.3,2.3,0.4,3.5,0.4h0c1.2,0,2.4-0.2,3.5-0.4v-2.9
		C38.3,47.7,36.7,46.1,34.7,46.1z"/>
	<path class="st7" d="M37.6,27.4V13.5c0-4.5,3.7-8.2,8.2-8.2h0c4.5,0,8.2,3.7,8.2,8.2v13.8c0,4.5-3.7,8.2-8.2,8.2h0
		C41.3,35.6,37.6,31.9,37.6,27.4z"/>
	<path class="st7" d="M15.3,27.4V13.5c0-4.5,3.7-8.2,8.2-8.2h0c4.5,0,8.2,3.7,8.2,8.2v13.8c0,4.5-3.7,8.2-8.2,8.2h0
		C19,35.6,15.3,31.9,15.3,27.4z"/>
	<path class="st3" d="M34.7,51.7L34.7,51.7c-8.3,0-15.1-6.8-15.1-15.1V17c0-8.3,6.8-15.1,15.1-15.1h0c8.3,0,15.1,6.8,15.1,15.1v19.6
		C49.8,44.9,43.1,51.7,34.7,51.7z"/>
	<path class="st7" d="M42.1,22.5H27.3c-5,0-9.1-4.1-9.1-9.1V9.1c0-5,4.1-9.1,9.1-9.1h14.8c5,0,9.1,4.1,9.1,9.1v4.3
		C51.2,18.4,47.2,22.5,42.1,22.5z"/>
	<path class="st7" d="M26.1,30.4L26.1,30.4c-0.5,0-0.9-0.4-0.9-0.9v-2.8c0-0.5,0.4-0.9,0.9-0.9h0c0.5,0,0.9,0.4,0.9,0.9v2.8
		C27,30,26.6,30.4,26.1,30.4z"/>
	<path class="st7" d="M44.1,30.4L44.1,30.4c-0.5,0-0.9-0.4-0.9-0.9v-2.8c0-0.5,0.4-0.9,0.9-0.9l0,0c0.5,0,0.9,0.4,0.9,0.9v2.8
		C44.9,30,44.5,30.4,44.1,30.4z"/>
	<path class="st11" d="M30.8,38.2c0.9,1.2,2.3,1.9,3.9,1.9s3-0.8,3.9-1.9"/>
</g>
<path class="st7" d="M-100.3,27.4V13.5c0-4.5,3.7-8.2,8.2-8.2h0c4.5,0,8.2,3.7,8.2,8.2v13.8c0,4.5-3.7,8.2-8.2,8.2h0
	C-96.6,35.6-100.3,31.9-100.3,27.4z"/>
<path class="st7" d="M-122.5,27.4V13.5c0-4.5,3.7-8.2,8.2-8.2h0c4.5,0,8.2,3.7,8.2,8.2v13.8c0,4.5-3.7,8.2-8.2,8.2h0
	C-118.9,35.6-122.5,31.9-122.5,27.4z"/>
<path class="st3" d="M-103.2,59.8L-103.2,59.8c-2,0-3.5-1.6-3.5-3.5v-6.6c0-2,1.6-3.5,3.5-3.5h0c2,0,3.5,1.6,3.5,3.5v6.6
	C-99.6,58.2-101.2,59.8-103.2,59.8z"/>
<path class="st9" d="M-103.2,46.1L-103.2,46.1c-2,0-3.5,1.6-3.5,3.5v2.9c1.1,0.3,2.3,0.4,3.5,0.4h0c1.2,0,2.4-0.2,3.5-0.4v-2.9
	C-99.6,47.7-101.2,46.1-103.2,46.1z"/>
<path class="st3" d="M-103.2,51.7L-103.2,51.7c-8.3,0-15.1-6.8-15.1-15.1V17c0-8.3,6.8-15.1,15.1-15.1h0c8.3,0,15.1,6.8,15.1,15.1
	v19.6C-88.1,44.9-94.8,51.7-103.2,51.7z"/>
<path class="st7" d="M-95.7,22.5h-14.8c-5,0-9.1-4.1-9.1-9.1V9.1c0-5,4.1-9.1,9.1-9.1h14.8c5,0,9.1,4.1,9.1,9.1v4.3
	C-86.6,18.4-90.7,22.5-95.7,22.5z"/>
<path class="st7" d="M-111.8,30.4L-111.8,30.4c-0.5,0-0.9-0.4-0.9-0.9v-2.8c0-0.5,0.4-0.9,0.9-0.9l0,0c0.5,0,0.9,0.4,0.9,0.9v2.8
	C-110.9,30-111.3,30.4-111.8,30.4z"/>
<path class="st7" d="M-93.8,30.4L-93.8,30.4c-0.5,0-0.9-0.4-0.9-0.9v-2.8c0-0.5,0.4-0.9,0.9-0.9l0,0c0.5,0,0.9,0.4,0.9,0.9v2.8
	C-93,30-93.3,30.4-93.8,30.4z"/>
<g>
	<path class="st13" d="M-106.3,39.1c0.8-0.8,1.9-1.2,3.1-1.2s2.3,0.5,3.1,1.2c0.8-0.7,1.3-1.7,1.5-2.8h-9.2
		C-107.6,37.4-107.1,38.4-106.3,39.1z"/>
	<path class="st14" d="M-106.3,39.1c0.8,0.8,1.9,1.2,3.1,1.2s2.3-0.5,3.1-1.2c-0.8-0.8-1.9-1.2-3.1-1.2S-105.5,38.4-106.3,39.1z"/>
	<path class="st6" d="M-98.6,35.6h-9.2c0,0.1,0,0.2,0,0.3c0,0.1,0,0.3,0.1,0.4h9.2c0-0.1,0.1-0.3,0.1-0.4
		C-98.5,35.8-98.6,35.7-98.6,35.6z"/>
</g>
</svg>
