<?xml version="1.0" encoding="utf-8"?>
<!-- Generator: Adobe Illustrator 22.0.1, SVG Export Plug-In . SVG Version: 6.00 Build 0)  -->
<svg version="1.1" id="Layer_1" xmlns="http://www.w3.org/2000/svg" xmlns:xlink="http://www.w3.org/1999/xlink" x="0px" y="0px"
	 viewBox="0 0 50.2 132.5" style="enable-background:new 0 0 50.2 132.5;" xml:space="preserve">
<style type="text/css">
	.st0{opacity:0.3;fill:#757576;}
	.st1{fill:#54A5D3;}
	.st2{fill:#193058;}
	.st3{fill:#F1BAA5;}
	.st4{fill:#EAEAEA;}
	.st5{fill:#C54E3C;}
	.st6{fill:#FFFFFF;}
	.st7{opacity:0.35;fill:none;stroke:#FFFFFF;stroke-linecap:round;stroke-miterlimit:10;}
	.st8{fill:#392812;}
	.st9{fill:#2278B3;}
	.st10{opacity:0.5;fill:#D28B6B;}
	.st11{fill:url(#SVGID_1_);}
	.st12{fill:none;stroke:#392812;stroke-linecap:round;stroke-miterlimit:10;}
	.st13{fill:#8A2727;}
	.st14{fill:#B63030;}
</style>
<path class="st0" d="M-207.2,132.5h-46.5c-1,0-1.8-0.8-1.8-1.8v-1.2c0-1,0.8-1.8,1.8-1.8h46.5c1,0,1.8,0.8,1.8,1.8v1.2
	C-205.4,131.7-206.2,132.5-207.2,132.5z"/>
<path class="st1" d="M-230.6,48.3c-8.3,0-15.1,5.2-15.1,11.7h30.2C-215.5,53.5-222.2,48.3-230.6,48.3z"/>
<path class="st2" d="M-230.6,93L-230.6,93c5.5,0,10-4.4,11-10.1h-21.9C-240.6,88.7-236,93-230.6,93z"/>
<rect x="-238.5" y="84.1" class="st2" width="4.3" height="40.5"/>
<rect x="-226.9" y="84.1" class="st2" width="4.3" height="40.5"/>
<path class="st3" d="M-241.5,86.3L-241.5,86.3c-2.3,0-4.1-1.9-4.1-4.1V60h4.1V86.3z"/>
<path class="st3" d="M-219.6,86.3L-219.6,86.3c2.3,0,4.1-1.9,4.1-4.1V60h-4.1V86.3z"/>
<rect x="-238.5" y="124.6" class="st4" width="4.3" height="2.9"/>
<rect x="-226.9" y="124.6" class="st4" width="4.3" height="2.9"/>
<path class="st5" d="M-233.5,128.9c0-1.6-1.3-2.9-2.9-2.9s-2.9,1.3-2.9,2.9v0.4h5.8V128.9z"/>
<rect x="-239.3" y="129.3" class="st6" width="5.8" height="0.8"/>
<path class="st5" d="M-221.9,128.9c0-1.6-1.3-2.9-2.9-2.9s-2.9,1.3-2.9,2.9v0.4h5.8V128.9z"/>
<rect x="-227.7" y="129.3" class="st6" width="5.8" height="0.8"/>
<path class="st3" d="M-95.6,56.3c-0.2,1.6-1.5,2.8-3.1,2.9c-0.1,0-0.3,0-0.4,0l-4.5-0.7l-3.4,0l-11.6-1.1c-1.1-0.1-2.1-0.3-2.9-0.5
	c-7.2-2.1-5.7-8.9-5.6-9.5c0,0,0,0,0,0l1.6-9.9c0.2-1.6,1.6-2.7,3.1-2.7c0.2,0,0.3,0,0.5,0c1.7,0.3,2.9,1.9,2.6,3.6l-1.3,8
	c0,0.1,0,0.2-0.1,0.4c-0.1,0.3-0.1,0.6-0.1,0.9v0c-0.3,2.5,0.9,3.1,1.6,3.3c0,0,0,0,0.1,0c0.3,0.1,0.5,0,0.5,0l20.2,2
	C-96.7,53.1-95.4,54.6-95.6,56.3z"/>
<path class="st1" d="M-92.7,48.3c-8.3,0-8.1,0.1-14.4,3.7v6.4l25.3,1.5h4.1C-77.6,53.5-84.4,48.3-92.7,48.3z"/>
<path class="st3" d="M-81.7,86.3L-81.7,86.3c2.3,0,4.1-1.9,4.1-4.1V60h-4.1V86.3z"/>
<path class="st0" d="M-69.3,132.5h-46.5c-1,0-1.8-0.8-1.8-1.8v-1.2c0-1,0.8-1.8,1.8-1.8h46.5c1,0,1.8,0.8,1.8,1.8v1.2
	C-67.5,131.7-68.3,132.5-69.3,132.5z"/>
<path class="st2" d="M-92.7,93L-92.7,93c5.5,0,10-4.4,11-10.1h-21.9C-102.7,88.7-98.1,93-92.7,93z"/>
<rect x="-100.6" y="84.1" class="st2" width="4.3" height="40.5"/>
<rect x="-89" y="84.1" class="st2" width="4.3" height="40.5"/>
<rect x="-100.6" y="124.6" class="st4" width="4.3" height="2.9"/>
<rect x="-89" y="124.6" class="st4" width="4.3" height="2.9"/>
<path class="st5" d="M-95.6,128.9c0-1.6-1.3-2.9-2.9-2.9s-2.9,1.3-2.9,2.9v0.4h5.8V128.9z"/>
<rect x="-101.4" y="129.3" class="st6" width="5.8" height="0.8"/>
<path class="st5" d="M-84,128.9c0-1.6-1.3-2.9-2.9-2.9s-2.9,1.3-2.9,2.9v0.4h5.8V128.9z"/>
<rect x="-89.8" y="129.3" class="st6" width="5.8" height="0.8"/>
<path class="st3" d="M-124,50.3l0.5,0C-123.5,50.3-123.7,50.4-124,50.3z"/>
<ellipse transform="matrix(7.379080e-02 -0.9973 0.9973 7.379080e-02 -157.2072 -64.9414)" class="st3" cx="-113.6" cy="52.2" rx="3.9" ry="4.5"/>
<path class="st7" d="M-112.4,49.9c1.1,0.1,1.9,0.9,1.8,1.8"/>
<path class="st3" d="M14.1,86.3L14.1,86.3c-2.3,0-4.1-1.9-4.1-4.1V62.5h4.1V86.3z"/>
<path class="st3" d="M36,86.3L36,86.3c2.3,0,4.1-1.9,4.1-4.1V62.5H36V86.3z"/>
<path class="st1" d="M29.6,58.8h-9c-1.8,0-3.3-1.5-3.3-3.3V54c0-1.8,1.5-3.3,3.3-3.3h9c1.8,0,3.3,1.5,3.3,3.3v1.5
	C32.9,57.3,31.4,58.8,29.6,58.8z"/>
<path class="st0" d="M48.4,132.5H1.8c-1,0-1.8-0.8-1.8-1.8l0-1.2c0-1,0.8-1.8,1.8-1.8h46.5c1,0,1.8,0.8,1.8,1.8v1.2
	C50.2,131.7,49.4,132.5,48.4,132.5z"/>
<path class="st1" d="M25,51.7c-8.3,0-15.1,4.8-15.1,10.8h30.2C40.1,56.5,33.3,51.7,25,51.7z"/>
<path class="st8" d="M27.9,27.4V13.5c0-4.5,3.7-8.2,8.2-8.2h0c4.5,0,8.2,3.7,8.2,8.2v13.8c0,4.5-3.7,8.2-8.2,8.2h0
	C31.6,35.6,27.9,31.9,27.9,27.4z"/>
<path class="st8" d="M5.6,27.4V13.5c0-4.5,3.7-8.2,8.2-8.2h0c4.5,0,8.2,3.7,8.2,8.2v13.8c0,4.5-3.7,8.2-8.2,8.2h0
	C9.3,35.6,5.6,31.9,5.6,27.4z"/>
<path class="st9" d="M27.5,58h-5.3c-1.8,0-3.3-1.5-3.3-3.3v0c0-1.8,1.5-3.3,3.3-3.3h5.3c1.8,0,3.3,1.5,3.3,3.3v0
	C30.8,56.5,29.3,58,27.5,58z"/>
<path class="st9" d="M35.9,82.9c0-0.3,0-0.6,0-0.8V64.7c0-6-4.9-11-11-11c-6,0-11,4.9-11,11v17.4c0,0.3,0,0.6,0,0.8H35.9z"/>
<path class="st3" d="M25,59.8L25,59.8c-2,0-3.5-1.6-3.5-3.5v-6.6c0-2,1.6-3.5,3.5-3.5h0c2,0,3.5,1.6,3.5,3.5v6.6
	C28.5,58.2,27,59.8,25,59.8z"/>
<path class="st10" d="M25,46.1L25,46.1c-2,0-3.5,1.6-3.5,3.5v2.9c1.1,0.3,2.3,0.4,3.5,0.4h0c1.2,0,2.4-0.2,3.5-0.4v-2.9
	C28.5,47.7,27,46.1,25,46.1z"/>
<path class="st3" d="M25,51.7L25,51.7c-8.3,0-15.1-6.8-15.1-15.1V17C9.9,8.7,16.7,1.9,25,1.9h0c8.3,0,15.1,6.8,15.1,15.1v19.6
	C40.1,44.9,33.3,51.7,25,51.7z"/>
<path class="st8" d="M32.4,22.5H17.6c-5,0-9.1-4.1-9.1-9.1V9.1c0-5,4.1-9.1,9.1-9.1h14.8c5,0,9.1,4.1,9.1,9.1v4.3
	C41.5,18.4,37.5,22.5,32.4,22.5z"/>
<path class="st2" d="M25,93L25,93c5.5,0,10-4.4,11-10.1H14.1C15,88.7,19.5,93,25,93z"/>
<rect x="17" y="124.6" class="st4" width="4.3" height="2.9"/>
<rect x="28.7" y="124.6" class="st4" width="4.3" height="2.9"/>
<path class="st5" d="M22.1,128.9c0-1.6-1.3-2.9-2.9-2.9s-2.9,1.3-2.9,2.9v0.4h5.8V128.9z"/>
<rect x="16.3" y="129.3" class="st6" width="5.8" height="0.8"/>
<path class="st5" d="M33.7,128.9c0-1.6-1.3-2.9-2.9-2.9c-1.6,0-2.9,1.3-2.9,2.9v0.4h5.8V128.9z"/>
<rect x="27.9" y="129.3" class="st6" width="5.8" height="0.8"/>
<linearGradient id="SVGID_1_" gradientUnits="userSpaceOnUse" x1="26.2891" y1="35.0959" x2="26.2891" y2="41.963">
	<stop  offset="0" style="stop-color:#309FBC"/>
	<stop  offset="1" style="stop-color:#71C493"/>
</linearGradient>
<path class="st11" d="M27.7,35.8v4.9c0,0.7-0.4,1.3-0.9,1.3c-0.5,0-0.8-0.6-0.8-1.3v-3.5c0,0.5-0.3,0.9-0.6,0.9
	c-0.3,0-0.6-0.4-0.6-0.9V36c0-0.5,0.3-0.9,0.6-0.9H26v0.7H27.7z"/>
<path class="st12" d="M28.7,37c-0.9-1.2-2.3-1.9-3.9-1.9s-3,0.8-3.9,1.9"/>
<path class="st2" d="M17,89.2h4.3c0,0-3.7,7.6-4,16.5s4,18.8,4,18.8h-4.6c0,0-4.5-12.1-4-18.8C13.1,98.9,17,89.2,17,89.2z"/>
<path class="st2" d="M32.9,89.2h-4.3c0,0,3.7,7.6,4,16.5s-4,18.8-4,18.8h4.6c0,0,4.5-12.1,4-18.8C36.8,98.9,32.9,89.2,32.9,89.2z"/>
<path class="st8" d="M15.5,28.1v1.5c0,0.5,0.4,0.9,0.9,0.9s0.9-0.4,0.9-0.9v-1.9L15.5,28.1z"/>
<path class="st8" d="M35.2,28.1v1.5c0,0.5-0.4,0.9-0.9,0.9s-0.9-0.4-0.9-0.9v-1.9L35.2,28.1z"/>
<path class="st9" d="M-81.7,82.9V59.6c0-6.2-4.9-11.3-11-11.3h0c-6,0-11,5-11,11.3v23.3H-81.7z"/>
<path class="st9" d="M-219.6,82.9V59.6c0-6.2-4.9-11.3-11-11.3s-11,5-11,11.3v23.3H-219.6z"/>
<path class="st3" d="M-92.7,53.7L-92.7,53.7c-2,0-3.5-1.6-3.5-3.5v-6.6c0-2,1.6-3.5,3.5-3.5h0c2,0,3.5,1.6,3.5,3.5v6.6
	C-89.2,52.2-90.7,53.7-92.7,53.7z"/>
<path class="st10" d="M-92.7,40L-92.7,40c-2,0-3.5,1.6-3.5,3.5v2.9c1.1,0.3,2.3,0.4,3.5,0.4h0c1.2,0,2.4-0.2,3.5-0.4v-2.9
	C-89.2,41.6-90.7,40-92.7,40z"/>
<path class="st8" d="M-89.8,21.3V7.5c0-4.5,3.7-8.2,8.2-8.2h0c4.5,0,8.2,3.7,8.2,8.2v13.8c0,4.5-3.7,8.2-8.2,8.2h0
	C-86.1,29.5-89.8,25.8-89.8,21.3z"/>
<path class="st8" d="M-112.1,21.3V7.5c0-4.5,3.7-8.2,8.2-8.2h0c4.5,0,8.2,3.7,8.2,8.2v13.8c0,4.5-3.7,8.2-8.2,8.2h0
	C-108.4,29.5-112.1,25.8-112.1,21.3z"/>
<path class="st3" d="M-92.7,45.6L-92.7,45.6c-8.3,0-15.1-6.8-15.1-15.1V11c0-8.3,6.8-15.1,15.1-15.1h0c8.3,0,15.1,6.8,15.1,15.1
	v19.6C-77.6,38.9-84.4,45.6-92.7,45.6z"/>
<path class="st8" d="M-85.3,16.4h-14.8c-5,0-9.1-4.1-9.1-9.1V3.1c0-5,4.1-9.1,9.1-9.1h14.8c5,0,9.1,4.1,9.1,9.1v4.3
	C-76.2,12.4-80.2,16.4-85.3,16.4z"/>
<path class="st8" d="M-101.3,24.3L-101.3,24.3c-0.5,0-0.9-0.4-0.9-0.9v-2.8c0-0.5,0.4-0.9,0.9-0.9l0,0c0.5,0,0.9,0.4,0.9,0.9v2.8
	C-100.5,23.9-100.8,24.3-101.3,24.3z"/>
<path class="st8" d="M-83.3,24.3L-83.3,24.3c-0.5,0-0.9-0.4-0.9-0.9v-2.8c0-0.5,0.4-0.9,0.9-0.9l0,0c0.5,0,0.9,0.4,0.9,0.9v2.8
	C-82.5,23.9-82.9,24.3-83.3,24.3z"/>
<path class="st12" d="M-96.6,32.1c0.9,1.2,2.3,1.9,3.9,1.9s3-0.8,3.9-1.9"/>
<path class="st8" d="M-227.7,21.3V7.5c0-4.5,3.7-8.2,8.2-8.2h0c4.5,0,8.2,3.7,8.2,8.2v13.8c0,4.5-3.7,8.2-8.2,8.2h0
	C-224,29.5-227.7,25.8-227.7,21.3z"/>
<path class="st8" d="M-250,21.3V7.5c0-4.5,3.7-8.2,8.2-8.2h0c4.5,0,8.2,3.7,8.2,8.2v13.8c0,4.5-3.7,8.2-8.2,8.2h0
	C-246.3,29.5-250,25.8-250,21.3z"/>
<path class="st3" d="M-230.6,53.7L-230.6,53.7c-2,0-3.5-1.6-3.5-3.5v-6.6c0-2,1.6-3.5,3.5-3.5l0,0c2,0,3.5,1.6,3.5,3.5v6.6
	C-227,52.2-228.6,53.7-230.6,53.7z"/>
<path class="st10" d="M-230.6,40L-230.6,40c-2,0-3.5,1.6-3.5,3.5v2.9c1.1,0.3,2.3,0.4,3.5,0.4h0c1.2,0,2.4-0.2,3.5-0.4v-2.9
	C-227,41.6-228.6,40-230.6,40z"/>
<path class="st3" d="M-230.6,45.6L-230.6,45.6c-8.3,0-15.1-6.8-15.1-15.1V11c0-8.3,6.8-15.1,15.1-15.1h0c8.3,0,15.1,6.8,15.1,15.1
	v19.6C-215.5,38.9-222.2,45.6-230.6,45.6z"/>
<path class="st8" d="M-223.2,16.4H-238c-5,0-9.1-4.1-9.1-9.1V3.1c0-5,4.1-9.1,9.1-9.1h14.8c5,0,9.1,4.1,9.1,9.1v4.3
	C-214.1,12.4-218.1,16.4-223.2,16.4z"/>
<path class="st8" d="M-239.2,24.3L-239.2,24.3c-0.5,0-0.9-0.4-0.9-0.9v-2.8c0-0.5,0.4-0.9,0.9-0.9l0,0c0.5,0,0.9,0.4,0.9,0.9v2.8
	C-238.3,23.9-238.7,24.3-239.2,24.3z"/>
<path class="st8" d="M-221.2,24.3L-221.2,24.3c-0.5,0-0.9-0.4-0.9-0.9v-2.8c0-0.5,0.4-0.9,0.9-0.9l0,0c0.5,0,0.9,0.4,0.9,0.9v2.8
	C-220.4,23.9-220.8,24.3-221.2,24.3z"/>
<g>
	<path class="st13" d="M-233.7,33.1c0.8-0.8,1.9-1.2,3.1-1.2s2.3,0.5,3.1,1.2c0.8-0.7,1.3-1.7,1.5-2.8h-9.2
		C-235,31.4-234.5,32.4-233.7,33.1z"/>
	<path class="st14" d="M-233.7,33.1c0.8,0.8,1.9,1.2,3.1,1.2s2.3-0.5,3.1-1.2c-0.8-0.8-1.9-1.2-3.1-1.2S-232.9,32.3-233.7,33.1z"/>
	<path class="st6" d="M-226,29.5h-9.2c0,0.1,0,0.2,0,0.3c0,0.1,0,0.3,0.1,0.4h9.2c0-0.1,0.1-0.3,0.1-0.4
		C-225.9,29.7-226,29.6-226,29.5z"/>
</g>
</svg>
