<?xml version="1.0" encoding="utf-8"?>
<!-- Generator: Adobe Illustrator 22.0.1, SVG Export Plug-In . SVG Version: 6.00 Build 0)  -->
<svg version="1.1" id="Layer_1" xmlns="http://www.w3.org/2000/svg" xmlns:xlink="http://www.w3.org/1999/xlink" x="0px" y="0px"
	 viewBox="0 0 63.4 82.1" style="enable-background:new 0 0 63.4 82.1;" xml:space="preserve">
<style type="text/css">
	.st0{display:none;}
	.st1{display:inline;fill:#B0B0D1;}
	.st2{display:inline;opacity:0.65;fill:#F9F9FA;enable-background:new    ;}
	.st3{display:inline;fill:#FFFFFF;}
	.st4{display:inline;fill:url(#SVGID_1_);}
	.st5{display:inline;fill:#DDDDDD;}
	.st6{display:inline;fill:#F7F7F7;}
	.st7{display:inline;}
	.st8{opacity:0.6;fill:#F4F4F5;enable-background:new    ;}
	.st9{fill:none;stroke:#FFFFFF;stroke-width:5;stroke-miterlimit:10;}
	.st10{fill:none;stroke:#FFFFFF;stroke-width:5;stroke-linejoin:round;stroke-miterlimit:10;}
	.st11{fill:#FFFFFF;}
	.st12{fill:none;stroke:#FFFFFF;stroke-width:3;stroke-miterlimit:10;}
	.st13{fill:none;stroke:#FFFFFF;stroke-width:5;stroke-linecap:round;stroke-linejoin:round;stroke-miterlimit:10;}
	.st14{fill:#FFFFFF;stroke:#FFFFFF;stroke-width:5;stroke-miterlimit:10;}
</style>
<g id="Layer_1_1_" class="st0">
	<rect x="-323.4" y="-132.3" class="st1" width="398.1" height="398.1"/>
	<path class="st2" d="M13.5,17.5C11.2,5.8,2.7-2.9-7.5-2.9h-35.2v-32.3c0-11.7-9.5-21.2-21.2-21.2h-148.9
		c-11.7,0-21.2,9.5-21.2,21.2v227.7c0,11.7,9.5,21.2,21.2,21.2H-64c11.7,0,21.2-9.5,21.2-21.2V147h35.2c10.7,0,19.6-9.6,21.3-22.2
		c0.2-1.1,0.3-2.2,0.3-3.4V22.2C14,20.5,13.8,18.9,13.5,17.5z M-7.3,110.2c0,7.3-4.8,13.3-10.8,13.3h-24.7V19.6h24.7
		c6,0,10.8,5.9,10.8,13.3V110.2z"/>
	<circle class="st3" cx="-182.9" cy="-23.7" r="6.2"/>
	
		<linearGradient id="SVGID_1_" gradientUnits="userSpaceOnUse" x1="-138.4335" y1="95.8786" x2="-138.4335" y2="-128.343" gradientTransform="matrix(1 0 0 -1 0 72.1571)">
		<stop  offset="0" style="stop-color:#FFCC4C"/>
		<stop  offset="1" style="stop-color:#FEBF4B"/>
	</linearGradient>
	<path class="st4" d="M-71.4,201.3h-134c-7.5,0-13.6-6.1-13.6-13.6V-10.1c0-7.5,6.1-13.6,13.6-13.6h134c7.5,0,13.6,6.1,13.6,13.6
		v197.9C-57.8,195.2-63.9,201.3-71.4,201.3z"/>
	<circle class="st5" cx="-196.3" cy="-29.8" r="33"/>
	<circle class="st5" cx="-160.6" cy="-39.5" r="23.4"/>
	<circle class="st5" cx="-125.7" cy="-29.5" r="23.4"/>
	<circle class="st5" cx="-76.1" cy="-34.4" r="28.2"/>
	<circle class="st6" cx="-125.7" cy="-38.6" r="23.4"/>
	<circle class="st6" cx="-104.3" cy="-48.6" r="11.7"/>
	<path class="st6" d="M-184-48.6c0-1.5,0.1-2.9,0.4-4.3h-42.6c-2,4.2-3.1,9-3.1,14c0,18.2,14.8,33,33,33c13.6,0,25.2-8.2,30.3-19.9
		C-176.3-28.3-184-37.5-184-48.6z"/>
	<path class="st6" d="M-163.3-38.9c0,4.6-1,9.1-2.7,13.1c1.7,0.4,3.5,0.6,5.4,0.6c12.9,0,23.4-10.5,23.4-23.4c0-1.5-0.1-2.9-0.4-4.3
		h-28.8C-164.4-48.7-163.3-43.9-163.3-38.9z"/>
	<path class="st6" d="M-166.4-52.9h-17.2c-0.3,1.4-0.4,2.8-0.4,4.3c0,11.1,7.7,20.3,18,22.7c1.7-4,2.7-8.4,2.7-13.1
		C-163.3-43.9-164.4-48.7-166.4-52.9z"/>
	<path class="st6" d="M-49.6-52.9h-53.1c-1.1,3-1.6,6.1-1.6,9.5c0,15.6,12.6,28.2,28.2,28.2s28.2-12.6,28.2-28.2
		C-47.9-46.8-48.5-49.9-49.6-52.9z"/>
	<path class="st6" d="M-44.9-47.5c0,0-0.1-0.1-0.2-0.2C-45.1-47.7-45.1-47.6-44.9-47.5L-44.9-47.5z"/>
	<path class="st6" d="M-49.6-52.9h-116.8c-2.4-5-5.9-9.3-10.3-12.6c-3.5,3.3-6,7.7-6.9,12.6h-42.6c0.5-1.1,1.1-2.2,1.8-3.3
		c4.2-4.6,12.7-12.3,22.7-12.3h55.4c0,0,6.7,0,16,0h55.4c13.2,0,23.9,13.4,25.3,15.3C-49.6-53.1-49.6-53-49.6-52.9z"/>
	<path class="st6" d="M-183.6-52.9h17.2c-2.3-5-5.9-9.3-10.3-12.6C-180.2-62.2-182.7-57.8-183.6-52.9z"/>
	<g class="st7">
		<path class="st8" d="M-188,169.5L-188,169.5c-6,0-10.8-4.8-10.8-10.8v-134c0-6,4.8-10.8,10.8-10.8l0,0c6,0,10.8,4.8,10.8,10.8v134
			C-177.2,164.7-182.1,169.5-188,169.5z"/>
		<path class="st8" d="M-137.8,169.5L-137.8,169.5c-6,0-10.8-4.8-10.8-10.8v-134c0-6,4.8-10.8,10.8-10.8l0,0c6,0,10.8,4.8,10.8,10.8
			v134C-127,164.7-131.8,169.5-137.8,169.5z"/>
		<path class="st8" d="M-88.7,166.2L-88.7,166.2c-6,0-10.8-4.8-10.8-10.8v-134c0-6,4.8-10.8,10.8-10.8l0,0c6,0,10.8,4.8,10.8,10.8
			v134C-77.9,161.4-82.8,166.2-88.7,166.2z"/>
	</g>
</g>
<g>
	<path class="st9" d="M-72.2,58.9h-57.1c-6.9,0-12.5-5.6-12.5-12.5V9.7c0-18.2,14.8-33,33-33h16.2c18.2,0,33,14.8,33,33v36.6
		C-59.7,53.2-65.3,58.9-72.2,58.9z"/>
	<rect x="-141.9" y="7.5" class="st10" width="82.2" height="26.1"/>
	<circle class="st9" cx="-129.1" cy="45.6" r="4.5"/>
	<circle class="st9" cx="-70" cy="45.6" r="4.5"/>
	<path class="st9" d="M-76.4,65.4h-48.3c-1.1,0-1.9-1.5-1.9-3.2l0,0c0-1.9,0.9-3.2,1.9-3.2h48.3c1.1,0,1.9,1.5,1.9,3.2l0,0
		C-74.5,64-75.4,65.4-76.4,65.4z"/>
	<path class="st11" d="M-88.5,41.9h-22.1c-0.3,0-0.6,0.3-0.6,0.6l0,0c0,0.3,0.3,0.6,0.6,0.6h22.1c0.3,0,0.6-0.3,0.6-0.6l0,0
		C-87.9,42.2-88.2,41.9-88.5,41.9z"/>
	<path class="st11" d="M-88.5,44.3h-22.1c-0.3,0-0.6,0.3-0.6,0.6l0,0c0,0.3,0.3,0.6,0.6,0.6h22.1c0.3,0,0.6-0.3,0.6-0.6l0,0
		C-87.9,44.5-88.2,44.3-88.5,44.3z"/>
	<path class="st11" d="M-88.5,46.9h-22.1c-0.3,0-0.6,0.3-0.6,0.6l0,0c0,0.3,0.3,0.6,0.6,0.6h22.1c0.3,0,0.6-0.3,0.6-0.6l0,0
		C-87.9,47.2-88.2,46.9-88.5,46.9z"/>
	<path class="st9" d="M-120.9,91.9L-120.9,91.9c0.3,0.1,0.6,0,0.7-0.3l5.7-15.4c0.1-0.3,0-0.6-0.3-0.7l0,0c-0.3-0.1-0.6,0-0.7,0.3
		l-5.7,15.4C-121.4,91.5-121.2,91.8-120.9,91.9z"/>
	<path class="st12" d="M-117.4,83.6H-84"/>
	<path class="st12" d="M-119.1,90.3h36.7"/>
	<path class="st12" d="M-87,76.9h-27.4"/>
	<path class="st9" d="M-80.6,91.9L-80.6,91.9c-0.3,0.1-0.6,0-0.7-0.3L-87,76.2c-0.1-0.3,0-0.6,0.3-0.7l0,0c0.3-0.1,0.6,0,0.7,0.3
		l5.7,15.4C-80.1,91.5-80.3,91.8-80.6,91.9z"/>
</g>
<g>
	<g>
		<path class="st10" d="M7.2,60l14.1-2.1c0.5-0.1,0.1-5.6,0.1-6.3c-0.1-2.7,0.7-5.1,1.3-7.6c1-4.1,0.3-8.4-0.4-12.6
			c-0.3-1.8-1.5-4.1-2.8-5.3c-1.9-1.8-4.6-3.2-7.3-2.8c-2.7,0.4-5.3,1.6-7.1,3.6C2.5,29.7,2.4,34,2.6,37.6c0.2,4.7,1.6,9.2,2.6,13.7
			C5.9,54.2,6.5,57.1,7.2,60z"/>
		<path class="st13" d="M9.2,67.4c0.8,2.9,1.7,5.7,2.7,8.5c0.1,0.3,0.3,0.7,0.5,0.9c2.1,3.4,7,3.8,9.8,0.8c3.2-3.3,1.2-7.2,0.5-12.2
			L9.2,67.4z"/>
	</g>
	<g>
		<path class="st10" d="M58.2,30.6c1-4.5,2.4-9,2.6-13.7C61,13.3,60.9,9,58.3,6.2c-1.8-2-4.4-3.2-7.1-3.6c-2.7-0.4-5.4,1-7.3,2.8
			c-1.3,1.2-2.5,3.5-2.8,5.3c-0.7,4.2-1.4,8.5-0.4,12.6c0.6,2.5,1.4,4.9,1.3,7.6c0,0.7-0.4,6.2,0.1,6.3l14.1,2.1
			C56.9,36.4,57.5,33.5,58.2,30.6z"/>
		<path class="st13" d="M40.7,44.7c-0.7,5-2.7,8.9,0.5,12.2c2.8,3,7.7,2.6,9.8-0.8c0.2-0.2,0.4-0.6,0.5-0.9c1-2.8,1.9-5.6,2.7-8.5
			L40.7,44.7z"/>
	</g>
</g>
<g>
	<path class="st14" d="M-248.8,9h-9.5c-0.2,0-0.3-0.1-0.3-0.3l0,0c0-0.2,0.1-0.3,0.3-0.3h9.5V9z"/>
	<path class="st14" d="M-231,9h9.4c0.2,0,0.3-0.1,0.3-0.3l0,0c0-0.2-0.1-0.3-0.3-0.3h-9.4V9z"/>
	<circle class="st9" cx="-240" cy="9" r="8.9"/>
	<circle class="st11" cx="-240" cy="9" r="3.2"/>
	<path class="st9" d="M-240.5,50.5h1.4c1.8,0,3.6,0.4,5.2,1V45c0-3.2-2.6-5.9-5.9-5.9s-5.9,2.6-5.9,5.9v6.5
		C-244.1,50.8-242.3,50.5-240.5,50.5z"/>
	<path class="st9" d="M-239.1,50.5h-1.4c-1.4,0-2.8,0.2-4,0.6v16.1c0,2,1.6,3.6,3.6,3.6h2.3c2,0,3.6-1.6,3.6-3.6V51.1
		C-236.3,50.7-237.7,50.5-239.1,50.5z"/>
	<path class="st9" d="M-239.8,26.7L-239.8,26.7c-1.1,0-2-0.9-2-2v-5c0-1.1,0.9-2,2-2l0,0c1.1,0,2,0.9,2,2v5
		C-237.8,25.8-238.7,26.7-239.8,26.7z"/>
	<path class="st9" d="M-235,51.1v7.6h6.4c1.9,0,3.5-1.6,3.5-3.5V32.3c0-6.1-4.9-11-11-11h-1.8v-1.5c0-1.1-0.9-2-2-2
		c-1.1,0-2,0.9-2,2v1.5h-1.8c-6.1,0-11,4.9-11,11v22.9c0,1.9,1.6,3.5,3.5,3.5h6.7v-7.6"/>
</g>
<g>
	<path class="st9" d="M-330.6,36.4c0,5-1.7,9.6-4.5,12.9c-2.8,3.3-6.7,5.4-10.9,5.4l-72.8,0.2c-8.5,0-15.5-8.2-15.6-18.2
		c0-5,1.7-9.6,4.5-12.9c2.8-3.3,6.7-5.4,10.9-5.4h4.6V4.7c0-10,6.9-18.3,15.5-18.3l32.6-0.1c8.5,0,15.5,8.2,15.6,18.2v13.7h4.6
		C-337.6,18.2-330.6,26.4-330.6,36.4z"/>
	<path class="st9" d="M-412.9,38.4h-9.7c-1.1,0-1.9-0.9-1.9-1.9l0,0c0-1.1,0.9-1.9,1.9-1.9h9.7c1.1,0,1.9,0.9,1.9,1.9l0,0
		C-411,37.5-411.8,38.4-412.9,38.4z"/>
	<path class="st9" d="M-344,38.4h-9.7c-1.1,0-1.9-0.9-1.9-1.9l0,0c0-1.1,0.9-1.9,1.9-1.9h9.7c1.1,0,1.9,0.9,1.9,1.9l0,0
		C-342.1,37.5-343,38.4-344,38.4z"/>
	<path class="st9" d="M-422.4,54.8v6.3c0,3.3,2.7,6,6,6h2.1c3.3,0,6-2.7,6-6v-6.3H-422.4z"/>
	<path class="st9" d="M-358.3,54.8v6.3c0,3.3,2.7,6,6,6h2.1c3.3,0,6-2.7,6-6v-6.3H-358.3z"/>
	<path class="st9" d="M-370.5-2.1h-25.7c-4.3,0-7.7,3.4-7.7,7.7V17h41V5.6C-362.8,1.4-366.2-2.1-370.5-2.1z"/>
	<path class="st9" d="M-375.6,45.7h-16.1c-1.1,0-1.9-0.9-1.9-1.9v0c0-1.1,0.9-1.9,1.9-1.9h16.1c1.1,0,1.9,0.9,1.9,1.9v0
		C-373.6,44.9-374.5,45.7-375.6,45.7z"/>
</g>
</svg>
