<?xml version="1.0" encoding="utf-8"?>
<!-- Generator: Adobe Illustrator 22.0.1, SVG Export Plug-In . SVG Version: 6.00 Build 0)  -->
<svg version="1.1" id="Layer_1" xmlns="http://www.w3.org/2000/svg" xmlns:xlink="http://www.w3.org/1999/xlink" x="0px" y="0px"
	 viewBox="0 0 330.5 221.9" style="enable-background:new 0 0 330.5 221.9;" xml:space="preserve">
<style type="text/css">
	.st0{display:none;}
	.st1{display:inline;fill:#FFFFFF;stroke:#000000;stroke-miterlimit:10;}
	.st2{fill:#707B7F;}
	.st3{fill:#FFFFFF;}
	.st4{fill:#CD915F;}
	.st5{fill:#AA6628;}
	.st6{opacity:0.5;fill:#F9F9FA;enable-background:new    ;}
	.st7{fill:url(#SVGID_1_);}
	.st8{fill:#DDDDDD;}
	.st9{fill:#F7F7F7;}
	.st10{opacity:0.35;fill:#F4F4F5;enable-background:new    ;}
	.st11{fill:url(#SVGID_2_);}
	.st12{opacity:0.6;fill:#F4F4F5;enable-background:new    ;}
	.st13{display:none;fill:#34A6C9;stroke:#1B8EB7;stroke-width:10;stroke-miterlimit:10;}
	.st14{display:none;fill:#F27CA7;stroke:#C94C72;stroke-width:10;stroke-miterlimit:10;}
	.st15{fill:#476269;}
	.st16{fill:#222728;}
	.st17{fill:#DDDDDC;}
	.st18{fill:#F6F7F7;}
	.st19{fill:url(#SVGID_3_);}
	.st20{fill:url(#SVGID_4_);}
	.st21{enable-background:new    ;}
	.st22{opacity:0.5;enable-background:new    ;}
	.st23{fill:#F9F9FA;}
	.st24{fill:#D95F56;}
	.st25{fill:url(#SVGID_5_);}
	.st26{fill:url(#SVGID_6_);}
	.st27{opacity:0.84;fill:#E8CD2C;enable-background:new    ;}
	.st28{opacity:0.39;fill:#90D7EB;enable-background:new    ;}
	.st29{opacity:0.84;fill:url(#SVGID_7_);enable-background:new    ;}
	.st30{fill:#D2E8C9;stroke:#6EBF59;stroke-width:2;stroke-miterlimit:10;}
	.st31{fill:none;}
	.st32{fill:#E4F1DD;}
	.st33{fill:#7AC25B;}
	.st34{fill:none;stroke:#E2E2E2;stroke-miterlimit:10;}
	.st35{fill:#157D3E;stroke:#E2E2E2;stroke-width:3;stroke-miterlimit:10;}
	.st36{fill:none;stroke:#FFFFFF;stroke-width:10;stroke-miterlimit:10;}
	.st37{fill:none;stroke:#FFFFFF;stroke-width:9;stroke-miterlimit:10;}
</style>
<g id="Layer_1_1_" class="st0">
	<rect x="-691.5" y="-1882.2" class="st1" width="136.5" height="482"/>
</g>
<path class="st2" d="M-427.9-104.8h-127c-11.1,0-20.2-9.1-20.2-20.2v-93.6c0-11.1,9.1-20.2,20.2-20.2h127c11.1,0,20.2,9.1,20.2,20.2
	v93.6C-407.7-113.9-416.8-104.8-427.9-104.8z"/>
<circle class="st3" cx="-1731" cy="-1594.3" r="6.2"/>
<g>
	<polygon class="st4" points="-539.8,-2305.9 -582,-2293.3 -489.5,-2293.3 	"/>
	<polygon class="st4" points="-201.4,-2305.9 -159.3,-2293.3 -251.8,-2293.3 	"/>
	<rect x="-539.9" y="-2305.9" class="st4" width="338.4" height="14.9"/>
	<rect x="-582" y="-2293.3" class="st5" width="422.8" height="11.1"/>
</g>
<path class="st6" d="M-1612.7-1361.5h-148.8c-11.7,0-21.2-9.5-21.2-21.2v-227.7c0-11.7,9.5-21.2,21.2-21.2h148.8
	c11.7,0,21.2,9.5,21.2,21.2v227.7C-1591.5-1371-1601-1361.5-1612.7-1361.5z"/>
<linearGradient id="SVGID_1_" gradientUnits="userSpaceOnUse" x1="-1688.5518" y1="-5274.7212" x2="-1688.5518" y2="-5050.4995" gradientTransform="matrix(1 0 0 1 0 3675.7998)">
	<stop  offset="0" style="stop-color:#FFCC4C"/>
	<stop  offset="1" style="stop-color:#FEBF4B"/>
</linearGradient>
<path class="st7" d="M-1629.2-1373.8H-1748c-11.7,0-21.2-9.5-21.2-21.2v-182.7c0-11.7,9.5-21.2,21.2-21.2h118.8
	c11.7,0,21.2,9.5,21.2,21.2v182.7C-1608-1383.3-1617.5-1373.8-1629.2-1373.8z"/>
<circle class="st8" cx="-1744.5" cy="-1600.4" r="33"/>
<ellipse transform="matrix(0.1602 -0.9871 0.9871 0.1602 154.2937 -3038.8601)" class="st8" cx="-1708.8" cy="-1610.1" rx="23.4" ry="23.4"/>
<ellipse transform="matrix(0.1602 -0.9871 0.9871 0.1602 173.817 -2995.9133)" class="st8" cx="-1673.8" cy="-1600.1" rx="23.4" ry="23.4"/>
<circle class="st8" cx="-1624.3" cy="-1604.9" r="28.2"/>
<ellipse transform="matrix(0.1602 -0.9871 0.9871 0.1602 182.7995 -3003.5559)" class="st9" cx="-1673.8" cy="-1609.2" rx="23.4" ry="23.4"/>
<circle class="st9" cx="-1652.5" cy="-1619.2" r="11.7"/>
<path class="st9" d="M-1732.2-1619.2c0-1.5,0.1-2.9,0.4-4.3h-42.6c-2,4.2-3.1,9-3.1,14c0,18.2,14.8,33,33,33
	c13.6,0,25.3-8.2,30.3-19.9C-1724.5-1598.8-1732.2-1608.1-1732.2-1619.2z"/>
<path class="st9" d="M-1711.5-1609.5c0,4.6-1,9.1-2.7,13.1c1.7,0.4,3.5,0.6,5.4,0.6c12.9,0,23.4-10.5,23.4-23.4
	c0-1.5-0.1-2.9-0.4-4.3h-28.7C-1712.6-1619.2-1711.5-1614.5-1711.5-1609.5z"/>
<path class="st9" d="M-1714.6-1623.5h-17.2c-0.3,1.4-0.4,2.8-0.4,4.3c0,11.1,7.7,20.3,18,22.7c1.7-4,2.7-8.4,2.7-13.1
	C-1711.5-1614.5-1712.6-1619.2-1714.6-1623.5z"/>
<path class="st9" d="M-1597.7-1623.5h-53.1c-1.1,3-1.6,6.1-1.6,9.5c0,15.6,12.6,28.2,28.2,28.2c15.6,0,28.2-12.6,28.2-28.2
	C-1596.1-1617.3-1596.7-1620.5-1597.7-1623.5z"/>
<path class="st9" d="M-1593.1-1622.6c0,0-0.1-0.1-0.2-0.2C-1593.3-1622.8-1593.2-1622.7-1593.1-1622.6L-1593.1-1622.6z"/>
<path class="st9" d="M-1597.7-1623.5h-116.9c-2.4-5-5.9-9.3-10.3-12.6c-3.5,3.3-5.9,7.7-6.8,12.6h-42.6c0.5-1.1,1.1-2.2,1.8-3.3
	c4.2-4.6,12.7-12.3,22.7-12.3h55.4c0,0,6.7,0,16,0h55.4c13.2,0,23.9,13.4,25.3,15.3C-1597.8-1623.6-1597.8-1623.6-1597.7-1623.5z"/>
<path class="st9" d="M-1731.8-1623.5h17.2c-2.3-5-5.9-9.3-10.3-12.6C-1728.4-1632.8-1730.8-1628.4-1731.8-1623.5z"/>
<path class="st6" d="M-1534.7-1557.7c-2.3-11.7-10.8-20.4-21-20.4h-35.8v22.5h25.3c6,0,10.8,5.9,10.8,13.3v77.4
	c0,7.3-4.8,13.3-10.8,13.3h-25.3v23.4h35.8c10.7,0,19.6-9.6,21.3-22.2c0.2-1.1,0.3-2.2,0.3-3.4v-1l0,0v-96.7l0,0v-1.4
	C-1534.1-1554.6-1534.3-1556.2-1534.7-1557.7z"/>
<path class="st10" d="M-1735.7-1404L-1735.7-1404c-6,0-10.8-4.8-10.8-10.8v-134c0-6,4.8-10.8,10.8-10.8l0,0c6,0,10.8,4.8,10.8,10.8
	v134C-1724.8-1408.8-1729.7-1404-1735.7-1404z"/>
<path class="st10" d="M-1685.4-1404L-1685.4-1404c-6,0-10.8-4.8-10.8-10.8v-134c0-6,4.8-10.8,10.8-10.8l0,0c6,0,10.8,4.8,10.8,10.8
	v134C-1674.6-1408.8-1679.5-1404-1685.4-1404z"/>
<path class="st10" d="M-1636.4-1407.2L-1636.4-1407.2c-6,0-10.8-4.8-10.8-10.8v-134c0-6,4.8-10.8,10.8-10.8l0,0
	c6,0,10.8,4.8,10.8,10.8v134C-1625.6-1412.1-1630.4-1407.2-1636.4-1407.2z"/>
<g>
	<circle class="st3" cx="2015.6" cy="-822.1" r="4.7"/>
	<path class="st6" d="M2101.5-639.9h-104.4c-11.7,0-21.2-9.5-21.2-21.2v-165c0-11.7,9.5-21.2,21.2-21.2h104.4
		c11.7,0,21.2,9.5,21.2,21.2v165C2122.7-649.3,2113.2-639.9,2101.5-639.9z"/>
	
		<linearGradient id="SVGID_2_" gradientUnits="userSpaceOnUse" x1="2048.2483" y1="-4497.9209" x2="2048.2483" y2="-4325.7627" gradientTransform="matrix(1 0 0 1 0 3675.7998)">
		<stop  offset="0" style="stop-color:#FFCC4C"/>
		<stop  offset="1" style="stop-color:#FEBF4B"/>
	</linearGradient>
	<path class="st11" d="M2088.9-649.3h-81.4c-11.7,0-21.2-9.5-21.2-21.2v-130.4c0-11.7,9.5-21.2,21.2-21.2h81.4
		c11.7,0,21.2,9.5,21.2,21.2v130.4C2110.1-658.8,2100.6-649.3,2088.9-649.3z"/>
	<circle class="st8" cx="2005.3" cy="-826.8" r="25.3"/>
	<circle class="st8" cx="2032.7" cy="-834.2" r="17.9"/>
	<circle class="st8" cx="2059.5" cy="-826.5" r="17.9"/>
	<circle class="st8" cx="2097.6" cy="-830.2" r="21.6"/>
	<circle class="st9" cx="2059.5" cy="-833.5" r="17.9"/>
	<circle class="st9" cx="2075.9" cy="-841.1" r="9"/>
	<path class="st9" d="M2014.7-841.1c0-1.1,0.1-2.2,0.3-3.3h-32.7c-1.5,3.3-2.4,6.9-2.4,10.7c0,14,11.3,25.3,25.3,25.3
		c10.4,0,19.4-6.3,23.3-15.3C2020.6-825.5,2014.7-832.7,2014.7-841.1z"/>
	<path class="st9" d="M2030.6-833.7c0,3.6-0.7,7-2.1,10c1.3,0.3,2.7,0.5,4.1,0.5c9.9,0,17.9-8,17.9-17.9c0-1.1-0.1-2.2-0.3-3.3
		h-22.1C2029.8-841.2,2030.6-837.6,2030.6-833.7z"/>
	<path class="st9" d="M2028.2-844.5H2015c-0.2,1.1-0.3,2.2-0.3,3.3c0,8.5,5.9,15.6,13.8,17.5c1.3-3.1,2.1-6.5,2.1-10
		C2030.6-837.6,2029.8-841.2,2028.2-844.5z"/>
	<path class="st9" d="M2118-844.5h-40.8c-0.8,2.3-1.3,4.7-1.3,7.3c0,12,9.7,21.6,21.6,21.6s21.6-9.7,21.6-21.6
		C2119.2-839.8,2118.8-842.2,2118-844.5z"/>
	<path class="st9" d="M2121.5-840.3c0,0-0.1-0.1-0.1-0.2C2121.4-840.5,2121.4-840.4,2121.5-840.3L2121.5-840.3z"/>
	<path class="st9" d="M2118-844.5h-89.7c-1.8-3.8-4.5-7.2-7.9-9.7c-2.7,2.5-4.6,5.9-5.3,9.7h-32.7c0.4-0.9,0.9-1.7,1.4-2.5
		c3.2-3.5,9.8-9.4,17.5-9.4h42.5c0,0,5.1,0,12.3,0h42.5C2108.8-856.4,2116.9-846.1,2118-844.5C2117.9-844.6,2117.9-844.5,2118-844.5
		z"/>
	<path class="st9" d="M2015-844.5h13.2c-1.8-3.8-4.5-7.2-7.9-9.7C2017.6-851.6,2015.7-848.2,2015-844.5z"/>
	<path class="st6" d="M2166.3-790.4c-1.7-9-8.3-15.7-16.1-15.7h-27.5v17.3h19.4c4.6,0,8.3,4.6,8.3,10.2v59.4
		c0,5.6-3.7,10.2-8.3,10.2h-19.4v17.9h27.5c8.2,0,15.1-7.4,16.4-17c0.1-0.8,0.2-1.7,0.2-2.6v-0.8l0,0v-74.2l0,0v-1.1
		C2166.8-788.1,2166.6-789.3,2166.3-790.4z"/>
	<path class="st12" d="M2012-672.4L2012-672.4c-4.6,0-8.3-3.7-8.3-8.3v-102.9c0-4.6,3.7-8.3,8.3-8.3l0,0c4.6,0,8.3,3.7,8.3,8.3
		v102.9C2020.3-676.1,2016.6-672.4,2012-672.4z"/>
	<path class="st12" d="M2050.6-672.4L2050.6-672.4c-4.6,0-8.3-3.7-8.3-8.3v-102.9c0-4.6,3.7-8.3,8.3-8.3l0,0c4.6,0,8.3,3.7,8.3,8.3
		v102.9C2058.9-676.1,2055.2-672.4,2050.6-672.4z"/>
	<path class="st12" d="M2088.3-674.9L2088.3-674.9c-4.6,0-8.3-3.7-8.3-8.3v-102.9c0-4.6,3.7-8.3,8.3-8.3l0,0c4.6,0,8.3,3.7,8.3,8.3
		v102.9C2096.6-678.7,2092.9-674.9,2088.3-674.9z"/>
</g>
<path class="st13" d="M-777.7-973.6v-32.9l5.8,5.8c9.5,9.5,25,9.5,34.5,0s9.5-25,0-34.5l-45-45l-2.9-2.9c-4.5-4.5-10.2-6.8-16.1-7.1
	c-0.2,0-0.5,0-0.8,0c-0.1,0-0.2,0-0.2,0c-0.1,0-0.1,0-0.2,0c-0.1,0-0.1,0-0.2,0c-6.3-0.1-12.7,2.3-17.5,7.2l-47.9,47.9
	c-9.5,9.5-9.5,25,0,34.5c9.5,9.5,25,9.5,34.5,0l7.1-7.1l0.6,33.7c-34.6,10-59.9,41.9-59.9,79.8c0,45.9,37.2,83.1,83.1,83.1
	c45.9,0,83.1-37.2,83.1-83.1C-719.7-931.5-744.1-963-777.7-973.6z M-802.8-859.2c-19.4,0-35.2-15.8-35.2-35.2s15.8-35.2,35.2-35.2
	s35.2,15.8,35.2,35.2S-783.3-859.2-802.8-859.2z"/>
<path class="st14" d="M-491.7-932c32.4-32.4,32.4-85.1,0-117.5c-32.4-32.4-85.1-32.4-117.5,0c-32.4,32.4-32.4,85.1,0,117.5
	c10.6,10.6,23.3,17.7,36.8,21.4v25.9h-9.6c-12.1,0-21.9,9.8-21.9,21.9l0,0c0,12.1,9.8,21.9,21.9,21.9h9.6v9.6
	c0,12.1,9.8,21.9,21.9,21.9l0,0c12.1,0,21.9-9.8,21.9-21.9v-9.6h9.6c12.1,0,21.9-9.8,21.9-21.9l0,0c0-12.1-9.8-21.9-21.9-21.9h-9.5
	v-25.9C-515-914.3-502.3-921.4-491.7-932z M-575.3-1015.6c13.8-13.8,36-13.8,49.8,0c13.8,13.8,13.8,36,0,49.8s-36,13.8-49.8,0
	C-589.1-979.6-589.1-1001.9-575.3-1015.6z"/>
<rect x="-700.2" y="-1153.9" class="st15" width="578.1" height="600.5"/>
<path class="st3" d="M-550.3-976.1l-59.5,59.5c-6.3,6.3-16.4,6.3-22.7,0l0,0c-6.3-6.3-6.3-16.4,0-22.7l59.5-59.5
	c6.3-6.3,16.4-6.3,22.7,0l0,0C-544.1-992.5-544.1-982.3-550.3-976.1z"/>
<path class="st3" d="M-513.5-916.6l-59.5-59.5c-6.3-6.3-6.3-16.4,0-22.7l0,0c6.3-6.3,16.4-6.3,22.7,0l59.5,59.5
	c6.3,6.3,6.3,16.4,0,22.7l0,0C-497.1-910.3-507.3-910.3-513.5-916.6z"/>
<path class="st3" d="M-541.8-965.4v75.2c0,11.9-9.6,21.5-21.5,21.5l0,0c-11.9,0-21.5-9.6-21.5-21.5v-75.2c0-11.9,9.6-21.5,21.5-21.5
	l0,0C-551.4-986.9-541.8-977.3-541.8-965.4z"/>
<path class="st3" d="M-561.7-889.8c-52.3,0-94.6,42.4-94.6,94.6s42.4,94.6,94.6,94.6s94.6-42.4,94.6-94.6S-509.4-889.8-561.7-889.8z
	 M-561.7-737c-32.1,0-58.2-26-58.2-58.2c0-32.1,26-58.2,58.2-58.2c32.1,0,58.2,26,58.2,58.2C-503.5-763.1-529.5-737-561.7-737z"/>
<path class="st3" d="M-321-722.1v-101.4c0-11.9,9.6-21.5,21.5-21.5l0,0c11.9,0,21.5,9.6,21.5,21.5v101.4c0,11.9-9.6,21.5-21.5,21.5
	l0,0C-311.3-700.6-321-710.2-321-722.1z"/>
<path class="st3" d="M-259.6-742.9h-79.7c-11.9,0-21.5-9.6-21.5-21.5l0,0c0-11.9,9.6-21.5,21.5-21.5h79.7c11.9,0,21.5,9.6,21.5,21.5
	l0,0C-238.1-752.5-247.8-742.9-259.6-742.9z"/>
<path class="st3" d="M-301.1-823.9c52.3,0,94.6-42.4,94.6-94.6c0-52.3-42.4-94.6-94.6-94.6s-94.6,42.4-94.6,94.6
	C-395.7-866.2-353.4-823.9-301.1-823.9z M-301.1-976.6c32.1,0,58.2,26,58.2,58.2c0,32.1-26,58.2-58.2,58.2
	c-32.1,0-58.2-26-58.2-58.2C-359.3-950.6-333.2-976.6-301.1-976.6z"/>
<rect x="-1214.8" y="-1153.9" class="st16" width="508.9" height="434.6"/>
<path class="st3" d="M-935.9-976.6l-59.5,59.5c-6.3,6.3-16.4,6.3-22.7,0l0,0c-6.3-6.3-6.3-16.4,0-22.7l59.5-59.5
	c6.3-6.3,16.4-6.3,22.7,0l0,0C-929.6-993-929.6-982.9-935.9-976.6z"/>
<path class="st3" d="M-899.1-917.2l-59.5-59.5c-6.3-6.3-6.3-16.4,0-22.7l0,0c6.3-6.3,16.4-6.3,22.7,0l59.5,59.5
	c6.3,6.3,6.3,16.4,0,22.7l0,0C-882.7-910.9-892.8-910.9-899.1-917.2z"/>
<path class="st3" d="M-929.7-968.3v79.8c0,10.6-8.6,19.2-19.2,19.2l0,0c-10.6,0-19.2-8.6-19.2-19.2v-79.8c0-10.6,8.6-19.2,19.2-19.2
	l0,0C-938.2-987.5-929.7-978.9-929.7-968.3z"/>
<g>
	<path class="st17" d="M-1065.5-2001.7c-18,0-34.3,7.5-45.7,19.5v83.2c11.4,12,27.6,19.5,45.7,19.5c34.4,0,62.4-27.4,62.4-61.1
		C-1003.1-1974.3-1031-2001.7-1065.5-2001.7z"/>
	<path class="st17" d="M-527-1972.8c-8-8.2-19.5-13.4-32.2-13.4c-24.1,0-43.7,18.4-43.7,41.1c0,22.7,19.6,41.1,43.7,41.1
		c12.8,0,24.3-5.2,32.2-13.4V-1972.8z"/>
	<ellipse class="st17" cx="-983.3" cy="-1953.7" rx="28" ry="27.5"/>
	<ellipse class="st17" cx="-908.2" cy="-1946.2" rx="54.2" ry="53.1"/>
	<ellipse class="st17" cx="-828.9" cy="-1951" rx="35.9" ry="35.2"/>
	<ellipse class="st17" cx="-763.7" cy="-1966.8" rx="33.6" ry="32.9"/>
	<ellipse class="st17" cx="-729.5" cy="-1943.5" rx="38.4" ry="37.6"/>
	<ellipse class="st17" cx="-666.8" cy="-1952" rx="38" ry="37.3"/>
	<ellipse class="st17" cx="-617.6" cy="-1963.5" rx="23.2" ry="22.7"/>
	<path class="st17" d="M-527-1948.1h-583.1c2.2-15.3,1.6-11,3.5-24.2l0,0c0-13.3,12.2-24.2,27.2-24.2h521.7
		c15,0,27.2,10.8,27.2,24.2l0,0C-529.3-1960.1-529.4-1960.4-527-1948.1z"/>
	<circle class="st18" cx="-983.3" cy="-1965.8" r="28"/>
	<ellipse class="st18" cx="-908.2" cy="-1958.2" rx="54.2" ry="54.2"/>
	<circle class="st18" cx="-828.9" cy="-1963.1" r="35.9"/>
	<circle class="st18" cx="-763.7" cy="-1979.3" r="33.6"/>
	<circle class="st18" cx="-729.5" cy="-1955.5" r="38.4"/>
	<circle class="st18" cx="-666.8" cy="-1964.2" r="38"/>
	
		<ellipse transform="matrix(0.2425 -0.9701 0.9701 0.2425 1449.1519 -2095.8032)" class="st18" cx="-617.6" cy="-1975.9" rx="23.2" ry="23.2"/>
	<rect x="-1110.9" y="-2019.3" class="st18" width="583.9" height="61.1"/>
	<path class="st18" d="M-527-1986.1c-8-8.4-19.5-13.7-32.2-13.7c-24.1,0-43.7,18.8-43.7,41.9s19.6,41.9,43.7,41.9
		c12.8,0,24.3-5.3,32.2-13.7V-1986.1z"/>
	<path class="st18" d="M-1065.5-2016.7c-18,0-34.3,7.7-45.7,19.9v84.9c11.4,12.2,27.6,19.9,45.7,19.9c34.4,0,62.4-27.9,62.4-62.4
		S-1031-2016.7-1065.5-2016.7z"/>
</g>
<path class="st6" d="M-1823.4-1392.9c1.4,1.9,2.6,3.6,3.7,5.2c6,8.5,2.2,20.3-7.8,23.9c-8.4,3-21.4,5.2-41.4,4.8
	c-20.1,0.4-33.1-1.8-41.5-4.8c-10-3.5-13.8-15.4-7.8-23.9c1.1-1.6,2.3-3.3,3.7-5.2c8.4-11.5,11-58.3,7.8-119.2
	c-2.6-49.2-25.6-180.6-34.4-229.4c-1.7-9.7,5.9-18.6,16-18.6h112.2c10.1,0,17.8,8.9,16,18.6c-8.8,48.8-31.8,180.2-34.4,229.4
	C-1834.4-1451.2-1831.8-1404.4-1823.4-1392.9z"/>
<g>
	
		<linearGradient id="SVGID_3_" gradientUnits="userSpaceOnUse" x1="-1868.9017" y1="-5388.6138" x2="-1868.9017" y2="-5086.0503" gradientTransform="matrix(1 0 0 1 0 3675.7998)">
		<stop  offset="0" style="stop-color:#FFCC4C"/>
		<stop  offset="1" style="stop-color:#FEBF4B"/>
	</linearGradient>
	<path class="st19" d="M-1839.8-1523c2-38,19.8-139.3,26.5-177c1.3-7.5-4.6-14.3-12.4-14.3h-86.5c-7.8,0-13.7,6.8-12.4,14.3
		c6.8,37.6,24.5,139,26.5,177c0.9,16.3,1.2,79.1,1,92c-0.2,15.3,11.4,19.1,26.6,19.9c0.5,0,1,0,1.5,0s1,0,1.5,0
		c15.2-0.8,26.9-4.6,26.6-19.9C-1841-1443.9-1840.7-1506.7-1839.8-1523z"/>
</g>
<circle class="st12" cx="-1834" cy="-1692.2" r="6.1"/>
<ellipse transform="matrix(0.1256 -0.9921 0.9921 0.1256 -12.1252 -3242.4844)" class="st12" cx="-1845.5" cy="-1614.4" rx="53" ry="6.1"/>
<g>
	<path class="st6" d="M-1982-1373.9c0.8,2.1,0.1,4-1.5,5.5c-3.6,3.2-9.4,4.2-14,5c-11.5,1.9-23.2,2-34.8,1.9
		c-11.6,0.1-23.4,0-34.8-1.9c-4.6-0.8-10.4-1.7-14-5c-1.6-1.5-2.3-3.4-1.5-5.5c0.8-2,2.5-3.5,4.7-3.8c1.3-0.2,2.6-0.3,4-0.5
		c5.2-0.9,10.2-2.7,15-4.9c13.4-6,22-13.8,22-13.8s0.8-103,0.8-121.9c0-18.9-38.2-28.4-54-46.5c-15.8-18.2,18.5-106.5,18.5-106.5
		h78.9c0,0,36.7,86.7,20.9,104.8c-15.8,18.1-56.4,29.3-56.4,48.2s0.8,121.9,0.8,121.9s8.5,7.8,22,13.8c4.8,2.1,9.8,3.9,15,4.9
		c1.3,0.2,2.6,0.3,4,0.5C-1984.5-1377.5-1982.8-1376-1982-1373.9z"/>
	
		<linearGradient id="SVGID_4_" gradientUnits="userSpaceOnUse" x1="-2031.1018" y1="-5326.5757" x2="-2031.1018" y2="-5216.3672" gradientTransform="matrix(1 0 0 1 0 3675.7998)">
		<stop  offset="0" style="stop-color:#FFCC4C"/>
		<stop  offset="1" style="stop-color:#FEBF4B"/>
	</linearGradient>
	<path class="st20" d="M-1988.6-1564.1l-37.7,21.8c-3,1.7-6.8,1.7-9.8,0l-37.7-21.8c-0.3-0.2-0.6-0.3-0.8-0.4
		c-2.2-1-15.2-8.3-5.3-39.8l9.8-38.6c1.1-4.3,5-7.4,9.5-7.4h58.8c4.5,0,8.4,3,9.5,7.4l9.9,38.6c9.9,31.5-3.1,38.8-5.3,39.8
		C-1988.1-1564.4-1988.3-1564.3-1988.6-1564.1z"/>
	<circle class="st12" cx="-2003" cy="-1628" r="6.1"/>
	<ellipse class="st12" cx="-2003" cy="-1595" rx="6.1" ry="17"/>
</g>
<text transform="matrix(1 0 0 1 -1139.901 -1628.0405)" style="font-family:'MyriadPro-Regular'; font-size:72px;">Beer</text>
<text transform="matrix(1 0 0 1 319.7462 -1809.2936)" style="font-family:'MyriadPro-Regular'; font-size:72px;">Cocktail</text>
<path class="st6" d="M136.3-1367.4c-77,0-50.8-18-50.8-18s14.7-4.4,27.8-6.6c13.1-2.2,16.3-27.3,16.3-27.3s0-73.2,0-95
	c0-21.9-5-22.9-5-22.9L51-1630.9h170.5l-73.6,93.7c0,0-5,1-5,22.9c0,21.8,0,95,0,95s3.2,25.1,16.3,27.3c13.1,2.2,27.9,6.6,27.9,6.6
	S213.3-1367.4,136.3-1367.4z"/>
<path class="st6" d="M429.8-1585.3c-12.3,13.9-52.3,27.8-58,37.6c0,0-0.4,8.6-9.1,9.1c0,0-4.5,3.2-4.5,13.2s-4.3,112,0,116.3
	c4.3,4.3,36.7,14.1,42.2,15.9s38.8,25-54,25s-59.4-23.2-54-25c5.5-1.8,37.9-11.6,42.2-15.9c4.3-4.3,0-106.3,0-116.3
	s-4.6-13.2-4.6-13.2c-8.6-0.5-9.1-9.1-9.1-9.1c-5.7-9.8-45.8-23.7-58-37.6c-12.3-13.9-9-46.6-9-46.6h184.8
	C438.8-1631.9,442.1-1599.2,429.8-1585.3z"/>
<path class="st6" d="M502.6-1368.6c-37.3-5.2-19.8-13.9-19.8-13.9l25.9-9.8v-107c-12.1-6.8-20.5-22.5-20.5-22.5
	c-14-24.2-5.4-143.7-5.4-143.7h60.6c0,0,8.6,119.5-5.4,143.7c0,0-8.4,15.6-20.5,22.5v107l25.9,9.8c0,0,17.5,8.7-19.8,13.9
	C516.6-1367.6,509.5-1367.6,502.6-1368.6z"/>
<path class="st6" d="M679.1-1594.4c6.4,48.4,20.4,121.1,1.3,140.2c-12.4,12.4-18.3,19.6-20.9,23.1c-1.2,1.6-1.6,3.6-1.1,5.5
	c1.2,5.2,3.3,16.3,0.7,21c-0.9,1.7-1.8,3.3-2.5,4.9c-1.8,3.9,0.5,8.5,4.7,9.4l17.8,3.9c0.2,0,0.4,0.1,0.7,0.2
	c4.1,1.3,41,14.1-33.3,18.8c-0.3,0-0.6,0-0.9,0c-74.3-4.7-37.3-17.5-33.3-18.8c0.2-0.1,0.4-0.1,0.7-0.2l17.8-3.9
	c4.2-0.9,6.5-5.5,4.7-9.4c-0.7-1.5-1.5-3.2-2.5-4.9c-2.6-4.8-0.5-15.8,0.7-21c0.4-1.9,0-3.9-1.1-5.5c-2.6-3.5-8.5-10.7-20.9-23.1
	c-19.1-19.1-5.1-91.8,1.3-140.2c3.8-29-3.8-48-10.5-58.5c-2.9-4.5,0.4-10.3,5.7-10.3h76c5.3,0,8.5,5.8,5.7,10.3
	C682.9-1642.4,675.3-1623.5,679.1-1594.4z"/>
<path class="st6" d="M847.6-1637v251.8c0,7.3-5.6,13.4-12.8,14l-24.3,2.2c-11.8,1-23.6,1-35.4,0l-24.3-2.2
	c-7.3-0.6-12.8-6.7-12.8-14V-1637c0-7.8,6.3-14.1,14.1-14.1h81.5C841.3-1651.1,847.6-1644.8,847.6-1637z"/>
<path class="st6" d="M992.3-1638.4l-5,253.9c-0.1,5.5-3.8,10.2-9.1,11.7c-7.7,2.2-21.6,4.6-45.8,5c-24.2-0.3-38-2.7-45.8-5
	c-5.3-1.5-8.9-6.2-9.1-11.7l-5-253.9c-0.1-7,5.5-12.7,12.4-12.7h94.7C986.9-1651.1,992.5-1645.4,992.3-1638.4z"/>
<path class="st6" d="M1085.2-1369.7c-59.6,0.5-52.6-4.3-34.3-14.3c16.8-9.2,12.4-29.6,11.5-32.8c-0.1-0.3-0.1-0.7-0.2-1l-22.3-295.3
	c-0.3-3.5,2.5-6.6,6.1-6.6h78.3c3.6,0,6.4,3,6.1,6.6l-22.3,295.3c0,0.3-0.1,0.7-0.2,1c-0.8,3.3-5.3,23.7,11.5,32.8
	C1137.8-1374,1144.8-1369.1,1085.2-1369.7z"/>
<text transform="matrix(1 0 0 1 319.7469 -936.6376)" class="st6" style="font-family:'MyriadPro-Regular'; font-size:72px;">Lhao</text>
<path class="st6" d="M325.7-663.9c-23.7,31.1-43,36.1-53.2,41.7s-16.2,26.8,3.2,30.9c19.4,4.2,27.9,6.7,27.9,6.7s35.7,18.2-50,18.2
	c-86.4,0-50-18.2-50-18.2s8.4-2.5,27.8-6.7c19.4-4.1,13.4-25.4,3.2-30.9c-10.2-5.6-29.4-10.5-53.2-41.7C157.7-695,206-786,206-786
	h95C301.2-785.9,349.5-695,325.7-663.9z"/>
<path class="st6" d="M405.5-566.3c-66.8-0.8-42.6-10.7-26.2-11.9s21.7-15.2,21.7-15.2s-0.8-91.8,0-107.3
	c0.8-15.6-11.7-23.3-11.7-23.3c-30.1-32-16.2-104.1-16.2-104.1h64.7c0,0,13.9,72.1-16.2,104.1c0,0-12.5,7.8-11.7,23.3
	c0.8,15.6,0,107.3,0,107.3s5.3,13.9,21.7,15.2C448.1-577,472.3-567.1,405.5-566.3z"/>
<path class="st6" d="M515.4-566.3c-39.6,0-30.4-5.9-23.1-9.4c7-3.4,15.4-9.1,15.4-9.1l1.3-28.9c0.9-20.1-4.1-22.3-8.8-29.2
	c-4.7-6.9-5.6-11.3-10-27.3s-1.9-68.1-1.9-68.1h54.4c0,0,2.5,52.1-1.9,68.1s-5.3,20.4-10,27.3s-9.7,9.1-8.8,29.2l1.3,28.9
	c0,0,8.4,5.7,15.4,9.1C545.8-572.2,555-566.3,515.4-566.3z"/>
<path class="st6" d="M653.2-687.4c4.1,0,7.4,3.4,7.2,7.5l-3.8,95.7c0,0-0.9,17.9-13.2,17.9c-17.1,0-28.7,0-28.7,0s-11.6,0-28.7,0
	c-12.3,0-13.2-17.9-13.2-17.9l-3.8-95.7c-0.2-4.1,3.1-7.5,7.2-7.5H653.2z"/>
<text transform="matrix(1 0 0 1 1574.1991 -1809.2936)" style="font-family:'MyriadPro-Regular'; font-size:72px;">Wine</text>
<path class="st6" d="M1521.5-1369.6c-103.5-0.2-51.2-11.8-48-12.5c0.1,0,0.2,0,0.3-0.1c1.8-0.5,17.6-5.2,22.9-8.2
	c5.5-3.2,14.6-18.7,14.8-25.7c0.2-6.3-4-21.5-5-25.2c-0.1-0.5-0.4-1-0.7-1.5c-7.5-11-1.3-17.9,3.1-24.8c4.5-7,2-23.6-1.9-30
	c-3.8-6.4-13.9-31.9-17.7-51c-3.1-15.9-27.1-81.2-35-102.7c-1.2-3.3,1.2-6.9,4.8-6.9l126.2,0.3c3.6,0,6,3.6,4.8,6.9
	c-8.1,21.4-32.3,86.6-35.5,102.5c-3.9,19.1-14.1,44.6-18,50.9c-3.8,6.4-6.4,22.9-2,30c4.4,6.9,10.5,13.9,3,24.8
	c-0.3,0.5-0.6,0.9-0.7,1.5c-1,3.6-5.3,18.9-5.1,25.2c0.2,7,9.2,22.6,14.7,25.8c5.2,3.1,21.1,7.8,22.8,8.3c0.1,0,0.2,0.1,0.3,0.1
	C1572.8-1381.2,1625-1369.4,1521.5-1369.6z"/>
<path class="st6" d="M1670.2-1494.9v101.1c0,0,16.4,7.2,26.1,10.7c8.8,3.2,30.8,14.5-32.3,14.5s-41.1-11.3-32.3-14.5
	c9.7-3.5,26-10.7,26-10.7v-101.1c0,0-3.9-2.4-12.9-8.9c-10.2-7.4-27.4-26.8-33.9-48.7c-6.6-21.9,9.9-105.6,9.9-105.6h86.5
	c0,0,16.4,83.8,9.9,105.6c-6.6,21.9-23.7,41.3-33.9,48.7C1674.1-1497.2,1670.2-1494.9,1670.2-1494.9z"/>
<path class="st6" d="M1815.3-1518.4c0,6.3-0.4,117.8-0.4,117.8l25.6,14.7c0,0,44.2,16.3-32.6,16.3s-32.6-16.3-32.6-16.3l25.6-14.7
	c0,0-0.4-111.5-0.4-117.8c0-6.3-3.1-8-8.5-11.4c-5.4-3.4-25-14.8-35.1-32.4s12.4-95.9,12.4-95.9h77.3c0,0,22.5,78.4,12.4,95.9
	c-10.1,17.6-29.7,29-35.1,32.4C1818.5-1526.4,1815.3-1524.7,1815.3-1518.4z"/>
<path class="st6" d="M1956-1477.7c0,4.6,0,69.5,0,69.5s15.3,22.4,24.2,23s44.4,15.5-32.5,15.5s-41.4-14.9-32.5-15.5s24.2-23,24.2-23
	s0-65,0-69.5c0-4.6-3.6-7.7-3.6-7.7c-1.6-16.3-19.1-29.2-43.9-55.9c-24.7-26.7,8-99.8,8-99.8h95.6c0,0,32.7,73.1,8,99.8
	s-42.3,39.6-43.9,55.9C1959.6-1485.4,1956-1482.3,1956-1477.7z"/>
<path class="st24" d="M-432.3-109.8h-118.2c-10.7,0-19.4-8.7-19.4-19.4v-118.2c0-10.7,8.7-19.4,19.4-19.4h118.2
	c10.7,0,19.4,8.7,19.4,19.4v118.2C-412.9-118.5-421.6-109.8-432.3-109.8z"/>
<path class="st3" d="M-569.9-215.4v86.2c0,10.7,8.7,19.4,19.4,19.4h118.2c10.7,0,19.4-8.7,19.4-19.4v-86.2H-569.9z"/>
<text transform="matrix(1 0 0 1 -515.1231 -233.2464)" class="st3" style="font-family:'Cloud-Bold'; font-size:26px;">DAY</text>
<g>
	<path class="st6" d="M2401.7-797.1c0,6.3-0.4,117.8-0.4,117.8l25.6,14.7c0,0,44.2,16.3-32.6,16.3c-65.3,0-24.6-16.3-24.6-16.3
		l25.6-14.7c0,0-0.4-111.5-0.4-117.8s-3.1-8-8.5-11.4s-25-14.8-35.1-32.4s12.4-95.9,12.4-95.9h69.3c0,0,22.5,78.4,12.4,95.9
		c-10.1,17.6-29.7,29-35.1,32.4C2404.9-805.1,2401.7-803.3,2401.7-797.1z"/>
	
		<linearGradient id="SVGID_5_" gradientUnits="userSpaceOnUse" x1="2436.501" y1="-4542.23" x2="2436.0396" y2="-4533.4644" gradientTransform="matrix(1 0 0 1 0 3675.7998)">
		<stop  offset="0" style="stop-color:#AE4F6F"/>
		<stop  offset="1" style="stop-color:#6C365E"/>
	</linearGradient>
	<path class="st25" d="M2434.6-861.4c-0.3-1.5,0.2-3,1.3-4.1c0.2-0.2,0.4-0.4,0.7-0.4c0.7-0.1,1.3,0.6,1.4,1.3
		c0.3,1.4-0.7,3-2.2,3.4c-0.5,0.1-1.1,0-1.3-0.4"/>
	
		<linearGradient id="SVGID_6_" gradientUnits="userSpaceOnUse" x1="2398.4001" y1="-4539.9629" x2="2398.4001" y2="-4487.4854" gradientTransform="matrix(1 0 0 1 0 3675.7998)">
		<stop  offset="0" style="stop-color:#AE4F6F"/>
		<stop  offset="1" style="stop-color:#6C365E"/>
	</linearGradient>
	<path class="st26" d="M2440.4-847.9c-0.7,0.1-1.3,0.5-2,0.8s-1.6,0.4-2.3,0.2c-0.1,0-0.2,0-0.3-0.1s-0.1-0.1-0.1-0.2s0-0.1,0-0.2
		c0-1.9,0.2-4.1-2.1-5.3c-0.7-0.3-1.4-0.5-2.1-0.5c-2.4,0-4.4,1.4-6.5,2.5c-3.5,1.9-7.3,3-11.2,3.5h-13.2c-4.4-0.5-8.7-1.3-13-2.2
		c-1.8-0.4-3.7-0.8-5.1-1.9c-1.1-0.9-1.9-2.1-2.9-3.1s-2.5-1.8-3.9-1.3c-0.7,0.2-1.2,0.7-1.9,0.9c-1.1,0.3-2.2-0.1-3.2-0.5
		c-1.6-0.7-3.2-1.3-4.5-2.4c-2-1.6-3.7-4.1-6.6-3.4c-1.2,0.3-2.2,1.1-2.8,2.1c-6.3,9.8,5,20.6,11.6,26.7c5.5,5.1,11.6,9.3,18,13.2
		c0.9,0.5,1.7,1,2.4,1.5c7.6,5,9.3,5.8,11.6,5.8c2,0,6.1-3,10.1-5.8c0.7-0.5,1.5-1,2.4-1.5c0.5-0.3,1-0.6,1.5-0.9
		c5-3.1,9.8-6.5,14.3-10.4c2.9-2.6,5.7-5.3,8.2-8.3c1.3-1.6,2.5-3.2,3.6-4.9C2440.9-844.6,2443.4-848.3,2440.4-847.9z"/>
</g>
<g>
	<path class="st6" d="M1906-792.5c4.9,0,8.9,4.1,8.7,9l-4.6,115c0,0-1.1,21.5-15.8,21.5c-20.6,0-34.5,0-34.5,0s-13.9,0-34.5,0
		c-14.7,0-15.8-21.5-15.8-21.5l-4.6-115c-0.2-4.9,3.7-9,8.7-9H1906z"/>
	<path class="st27" d="M1825.8-743.3c-6.7,0-12.1,3.8-11.8,8.5l2.9,51.1c0,0,0.9,12.4,13.3,12.4c17.3,0,28.9,0,28.9,0s11.7,0,28.9,0
		c12.3,0,13.3-12.4,13.3-12.4l2.9-51.1c0.3-4.6-5.1-8.5-11.8-8.5H1825.8z"/>
	<path class="st28" d="M1842.1-722.6l-13.1-8.9c-2.6-1.8-3.3-5.4-1.5-8l8.9-13.1c1.8-2.6,5.4-3.3,8-1.5l13.1,8.9
		c2.6,1.8,3.3,5.4,1.5,8l-8.9,13.1C1848.3-721.5,1844.7-720.9,1842.1-722.6z"/>
	<path class="st28" d="M1884.7-735.2l-7,2.1c-2,0.6-4-0.5-4.6-2.5l-2.1-7c-0.6-2,0.5-4,2.5-4.6l7-2.1c2-0.6,4,0.5,4.6,2.5l2.1,7
		C1887.8-737.9,1886.7-735.8,1884.7-735.2z"/>
</g>
<g>
	<path class="st6" d="M2269.2-663.8l-20.2-11.6c0,0,0.3-67.4,0.3-87.6l45.4-63h-96.1l45.3,62.8c0.1,20,0.3,87.7,0.3,87.7l-20.2,11.6
		c0,0-32.1,12.9,19.4,12.9C2304.1-650.9,2269.2-663.8,2269.2-663.8z"/>
	
		<linearGradient id="SVGID_7_" gradientUnits="userSpaceOnUse" x1="2246.6982" y1="-4478.5605" x2="2246.6982" y2="-4445.6074" gradientTransform="matrix(1 0 0 1 0 3675.7998)">
		<stop  offset="0" style="stop-color:#14AFAB"/>
		<stop  offset="1" style="stop-color:#227893"/>
	</linearGradient>
	<polygon class="st29" points="2270.4,-802.7 2246.7,-769.8 2222.9,-802.7 	"/>
	<path class="st30" d="M2272.3-814.8c5.3-4.6,5.8-12.7,1.2-18s-12.7-5.8-18-1.2"/>
	<g>
		<polygon class="st31" points="2262.6,-826 2255.2,-826 2255.2,-825.2 2264,-825.2 		"/>
		<polygon class="st32" points="2268.2,-819.6 2268.2,-826 2262.6,-826 2263.3,-825.2 		"/>
	</g>
</g>
<path class="st33" d="M-2154.8-1593.8c-0.6-0.8-2.8-5.7-5.3-10.7c-1.7-3.4-1.8-7.2-1.7-9.3c0-0.9,0.4-1.6,0.9-2.3
	c0.4-0.5,0.8-1.4,0.8-2.8c0-2.8-55.6-3.9-55.6-3.9s-55.6,1.1-55.6,3.9c0,1.4,0.4,2.3,0.8,2.8c0.5,0.7,0.9,1.5,0.9,2.3
	c0.1,2.1,0,5.9-1.7,9.3c-2.5,5-4.6,9.9-5.3,10.7c-0.7,0.8,0,15.1,0,18.7v151.9c0,1,0.4,1.9,1,2.7c1.1,1.2,3.1,3.1,5.7,4.7
	c2.4,1.4,4.1,2.7,5.1,3.5c0.7,0.6,1.3,1.4,1.4,2.3l0,0c0.1,0.5,0.3,0.9,0.5,1.3l1.1,1.7c0.7,1.1,1.8,1.7,3,1.8
	c7.4,0.6,33.5,2.5,42.9,2.5c9.8,0,35.6-1.9,42.9-2.5c1.2-0.1,2.4-0.8,3-1.8l1.1-1.7c0.3-0.4,0.4-0.9,0.5-1.3l0,0
	c0.2-0.9,0.7-1.8,1.4-2.3c1-0.8,2.7-2,5.1-3.5c2.6-1.6,4.6-3.5,5.7-4.7c0.7-0.7,1-1.7,1-2.7v-151.9
	C-2154.8-1578.7-2154.1-1592.9-2154.8-1593.8z"/>
<path class="st34" d="M-2259.5-1412c0,0,50.3,5.5,87.7,0"/>
<rect x="-2268.4" y="-1524.1" class="st35" width="105.5" height="26.5"/>
<path class="st34" d="M-2264.9-1616.1c0,0,40.7,4.1,98.6,0"/>
<path class="st35" d="M-2247.4-1497.6h63.5c-3.5,24-16.4,41.8-31.7,41.8C-2231-1455.8-2243.8-1473.6-2247.4-1497.6z"/>
<path class="st35" d="M-2183.9-1524.1h-63.5c3.5-24,16.4-41.8,31.7-41.8C-2200.3-1565.9-2187.4-1548.1-2183.9-1524.1z"/>
<path d="M-943.8,278.2h-23.1v-106c0-6.4,5.2-11.6,11.6-11.6l0,0c6.4,0,11.6,5.2,11.6,11.6v106H-943.8z"/>
<path d="M-851.3,289.8L-851.3,289.8c0,6.4-5.2,11.6-11.6,11.6h-307c-6.4,0-11.6-5.2-11.6-11.6l0,0c0-6.4,5.2-11.6,11.6-11.6h307.1
	C-856.5,278.2-851.3,283.4-851.3,289.8z"/>
<path d="M-915.3,174.2L-915.3,174.2c-4.5,4.5-11.8,4.5-16.3,0l-99.2-99.2c-4.5-4.5-4.5-11.8,0-16.3l0,0c4.5-4.5,11.8-4.5,16.3,0
	l99.2,99.2C-910.8,162.4-910.8,169.7-915.3,174.2z"/>
<path d="M-1131.2,174.2L-1131.2,174.2c4.5,4.5,11.8,4.5,16.3,0l99.2-99.2c4.5-4.5,4.5-11.8,0-16.3l0,0c-4.5-4.5-11.8-4.5-16.3,0
	l-99.2,99.2C-1135.7,162.4-1135.7,169.7-1131.2,174.2z"/>
<path d="M-1079.8,278.2h-23.1v-106c0-6.4,5.2-11.6,11.6-11.6l0,0c6.4,0,11.6,5.2,11.6,11.6L-1079.8,278.2L-1079.8,278.2z"/>
<path d="M-1019.1,278.2h-43.1v-52.4c0-11.9,9.7-21.6,21.6-21.6l0,0c11.9,0,21.6,9.7,21.6,21.6v52.4H-1019.1z"/>
<path class="st3" d="M-302,298.4L-302,298.4c0,6.4-5.2,11.6-11.6,11.6h-307c-6.4,0-11.6-5.2-11.6-11.6l0,0c0-6.4,5.2-11.6,11.6-11.6
	h307.1C-307.1,286.8-302,292-302,298.4z"/>
<path class="st36" d="M-336.4,191.7l-10.8-0.6c-6.8-0.4-12-10-13.9-15.5c-2.7-7.7-5-16.3-11.5-21.9c-5.4-4.6-12.3-7.2-19.3-7.2
	h-81.2c-16.4,0-29.7,13.3-29.7,29.7c-1.9,23.2-21.6,16.2-21.6,29V238c0,12.7,10.3,23.1,23.1,23.1h174.1c12.7,0,22.2-4,22.2-16.7
	l0.9-18.8C-304.1,212.8-302.7,191.7-336.4,191.7z"/>
<circle class="st3" cx="-475.5" cy="260.1" r="22.5"/>
<circle class="st3" cx="-352.7" cy="260.1" r="22.5"/>
<path class="st3" d="M-569.2,246.6H-641c-1.9,0-3.4-1.5-3.4-3.4l0,0c0-1.9,1.5-3.4,3.4-3.4h71.8c1.9,0,3.4,1.5,3.4,3.4l0,0
	C-565.8,245.1-567.4,246.6-569.2,246.6z"/>
<path class="st3" d="M-650.6,246.6h-5.5c-1.9,0-3.4-1.5-3.4-3.4l0,0c0-1.9,1.5-3.4,3.4-3.4h5.5c1.9,0,3.4,1.5,3.4,3.4l0,0
	C-647.3,245.1-648.8,246.6-650.6,246.6z"/>
<path class="st3" d="M-547.5,221.9h-78.9c-1.9,0-3.4-1.5-3.4-3.4l0,0c0-1.9,1.5-3.4,3.4-3.4h78.9c1.9,0,3.4,1.5,3.4,3.4l0,0
	C-544.1,220.4-545.6,221.9-547.5,221.9z"/>
<path class="st3" d="M-639.7,197.9h-31.9c-1.9,0-3.4-1.5-3.4-3.4l0,0c0-1.9,1.5-3.4,3.4-3.4h31.9c1.9,0,3.4,1.5,3.4,3.4l0,0
	C-636.4,196.4-637.9,197.9-639.7,197.9z"/>
<path class="st3" d="M-571.4,197.9h-55c-1.9,0-3.4-1.5-3.4-3.4l0,0c0-1.9,1.5-3.4,3.4-3.4h55c1.9,0,3.4,1.5,3.4,3.4l0,0
	C-568,196.4-569.5,197.9-571.4,197.9z"/>
<g>
	<circle class="st37" cx="93.8" cy="48.9" r="44.4"/>
	<path class="st3" d="M93.8,53.7L93.8,53.7c-2,0-3.6-1.6-3.6-3.6v-33c0-2,1.6-3.6,3.6-3.6h0c2,0,3.6,1.6,3.6,3.6v33
		C97.4,52.1,95.8,53.7,93.8,53.7z"/>
	<path class="st3" d="M90.3,50.1L90.3,50.1c0-2,1.6-3.6,3.6-3.6h18.5c2,0,3.6,1.6,3.6,3.6v0c0,2-1.6,3.6-3.6,3.6H93.8
		C91.9,53.7,90.3,52.1,90.3,50.1z"/>
	
		<image style="overflow:visible;" width="1377" height="561" xlink:href="../p5/out.png"  transform="matrix(0.24 0 0 0.24 0 87.2386)">
	</image>
</g>
</svg>
