<?xml version="1.0" encoding="utf-8"?>
<!-- Generator: Adobe Illustrator 22.0.1, SVG Export Plug-In . SVG Version: 6.00 Build 0)  -->
<svg version="1.1" id="Layer_1" xmlns="http://www.w3.org/2000/svg" xmlns:xlink="http://www.w3.org/1999/xlink" x="0px" y="0px"
	 viewBox="0 0 330.5 221.9" style="enable-background:new 0 0 330.5 221.9;" xml:space="preserve">
<style type="text/css">
	.st0{display:none;}
	.st1{display:inline;fill:#FFFFFF;stroke:#000000;stroke-miterlimit:10;}
	.st2{display:none;fill:#34A6C9;stroke:#1B8EB7;stroke-width:10;stroke-miterlimit:10;}
	.st3{display:none;fill:#F27CA7;stroke:#C94C72;stroke-width:10;stroke-miterlimit:10;}
	.st4{fill:none;stroke:#FFFFFF;stroke-width:9;stroke-miterlimit:10;}
	.st5{fill:#FFFFFF;}
</style>
<g id="Layer_1_1_" class="st0">
	<rect x="-2916.8" y="-1882.2" class="st1" width="136.5" height="482"/>
</g>
<path class="st2" d="M-3003-973.6v-32.9l5.8,5.8c9.5,9.5,25,9.5,34.5,0s9.5-25,0-34.5l-45-45l-2.9-2.9c-4.5-4.5-10.2-6.8-16.1-7.1
	c-0.2,0-0.5,0-0.8,0c-0.1,0-0.2,0-0.2,0c-0.1,0-0.1,0-0.2,0c-0.1,0-0.1,0-0.2,0c-6.3-0.1-12.7,2.3-17.5,7.2l-47.9,47.9
	c-9.5,9.5-9.5,25,0,34.5s25,9.5,34.5,0l7.1-7.1l0.6,33.7c-34.6,10-59.9,41.9-59.9,79.8c0,45.9,37.2,83.1,83.1,83.1
	s83.1-37.2,83.1-83.1C-2945-931.5-2969.4-963-3003-973.6z M-3028.1-859.2c-19.4,0-35.2-15.8-35.2-35.2s15.8-35.2,35.2-35.2
	c19.4,0,35.2,15.8,35.2,35.2S-3008.6-859.2-3028.1-859.2z"/>
<path class="st3" d="M-2717-932c32.4-32.4,32.4-85.1,0-117.5s-85.1-32.4-117.5,0c-32.4,32.4-32.4,85.1,0,117.5
	c10.6,10.6,23.3,17.7,36.8,21.4v25.9h-9.6c-12.1,0-21.9,9.8-21.9,21.9l0,0c0,12.1,9.8,21.9,21.9,21.9h9.6v9.6
	c0,12.1,9.8,21.9,21.9,21.9l0,0c12.1,0,21.9-9.8,21.9-21.9v-9.6h9.6c12.1,0,21.9-9.8,21.9-21.9l0,0c0-12.1-9.8-21.9-21.9-21.9h-9.5
	v-25.9C-2740.3-914.3-2727.6-921.4-2717-932z M-2800.6-1015.6c13.8-13.8,36-13.8,49.8,0c13.8,13.8,13.8,36,0,49.8
	c-13.8,13.8-36,13.8-49.8,0C-2814.4-979.6-2814.4-1001.9-2800.6-1015.6z"/>
<g>
	<circle class="st4" cx="-2131.5" cy="48.9" r="44.4"/>
	<path class="st5" d="M-2134.1,52.6L-2134.1,52.6c-1.4-1.4-1.4-3.7,0-5.1l23.3-23.3c1.4-1.4,3.7-1.4,5.1,0l0,0
		c1.4,1.4,1.4,3.7,0,5.1l-23.3,23.3C-2130.4,54.1-2132.7,54.1-2134.1,52.6z"/>
	
		<image style="overflow:visible;enable-background:new    ;" width="1377" height="561" xlink:href="../p5/out.png"  transform="matrix(0.24 0 0 0.24 -2225.3379 87.2386)">
	</image>
	<path class="st5" d="M-2131.5,28L-2131.5,28c2,0,3.6,1.6,3.6,3.6v18.5c0,2-1.6,3.6-3.6,3.6l0,0c-2,0-3.6-1.6-3.6-3.6V31.5
		C-2135.1,29.6-2133.5,28-2131.5,28z"/>
</g>
<g>
	<circle class="st4" cx="-1720" cy="48.9" r="44.4"/>
	<path class="st5" d="M-1723.1,48.4L-1723.1,48.4c1-1.7,3.2-2.3,4.9-1.2l28.3,17c1.7,1,2.3,3.2,1.2,4.9l0,0c-1,1.7-3.2,2.3-4.9,1.2
		l-28.3-17C-1723.5,52.3-1724.1,50.1-1723.1,48.4z"/>
	
		<image style="overflow:visible;enable-background:new    ;" width="1377" height="561" xlink:href="../p5/out.png"  transform="matrix(0.24 0 0 0.24 -1813.7826 87.2386)">
	</image>
	<path class="st5" d="M-1719,28L-1719,28c2,0.1,3.5,1.8,3.4,3.8l-0.9,18.5c-0.1,2-1.8,3.5-3.8,3.4l0,0c-2-0.1-3.5-1.8-3.4-3.8
		l0.9-18.6C-1722.6,29.4-1721,27.9-1719,28z"/>
</g>
<g>
	<path class="st5" d="M-1243.8,46L-1243.8,46c2,0,3.6,1.6,3.6,3.6v33c0,2-1.6,3.6-3.6,3.6l0,0c-2,0-3.6-1.6-3.6-3.6v-33
		C-1247.4,47.6-1245.8,46-1243.8,46z"/>
	<circle class="st4" cx="-1243.8" cy="48.9" r="44.4"/>
	
		<image style="overflow:visible;enable-background:new    ;" width="1377" height="561" xlink:href="../p5/out.png"  transform="matrix(0.24 0 0 0.24 -1337.6454 87.2386)">
	</image>
	<path class="st5" d="M-1242.4,28L-1242.4,28c2,0.1,3.5,1.8,3.4,3.8l-1.2,18.5c-0.1,2-1.8,3.5-3.8,3.4l0,0c-2-0.1-3.5-1.8-3.4-3.8
		l1.2-18.6C-1246.1,29.4-1244.4,27.9-1242.4,28z"/>
</g>
<g>
	<path class="st5" d="M-782.5,47.8L-782.5,47.8c1.4,1.4,1.4,3.7,0,5.1l-23.3,23.3c-1.4,1.4-3.7,1.4-5.1,0l0,0
		c-1.4-1.4-1.4-3.7,0-5.1l23.3-23.3C-786.1,46.4-783.9,46.4-782.5,47.8z"/>
	<circle class="st4" cx="-785.1" cy="48.9" r="44.4"/>
	
		<image style="overflow:visible;enable-background:new    ;" width="1377" height="561" xlink:href="../p5/out.png"  transform="matrix(0.24 0 0 0.24 -878.8787 87.2386)">
	</image>
	<path class="st5" d="M-783.6,28L-783.6,28c2,0.1,3.5,1.8,3.4,3.8l-1.2,18.5c-0.1,2-1.8,3.5-3.8,3.4l0,0c-2-0.1-3.5-1.8-3.4-3.8
		l1.2-18.6C-787.3,29.4-785.6,27.9-783.6,28z"/>
</g>
<g>
	<path class="st5" d="M-323.7,52.6L-323.7,52.6c-1.4,1.4-3.7,1.4-5.1,0l-23.3-23.3c-1.4-1.4-1.4-3.7,0-5.1l0,0
		c1.4-1.4,3.7-1.4,5.1,0l23.3,23.3C-322.3,48.9-322.3,51.2-323.7,52.6z"/>
	<circle class="st4" cx="-326.3" cy="48.9" r="44.4"/>
	
		<image style="overflow:visible;enable-background:new    ;" width="1377" height="561" xlink:href="../p5/out.png"  transform="matrix(0.24 0 0 0.24 -420.1119 87.2386)">
	</image>
	<path class="st5" d="M-323.3,28.1L-323.3,28.1c2,0.3,3.4,2.1,3.1,4l-2.5,18.3c-0.3,2-2.1,3.4-4,3.1l0,0c-2-0.3-3.4-2.1-3.1-4
		l2.5-18.4C-327.1,29.2-325.3,27.8-323.3,28.1z"/>
</g>
<g>
	<path class="st5" d="M93.8,53.6L93.8,53.6c-2,0-3.6-1.6-3.6-3.6l0-33c0-2,1.6-3.6,3.6-3.6l0,0c2,0,3.6,1.6,3.6,3.6l0,33
		C97.4,52,95.8,53.6,93.8,53.6z"/>
	<circle class="st4" cx="93.8" cy="48.9" r="44.4"/>
	
		<image style="overflow:visible;enable-background:new    ;" width="1377" height="561" xlink:href="../p5/out.png"  transform="matrix(0.24 0 0 0.24 0 87.2386)">
	</image>
	<path class="st5" d="M101.3,29.2L101.3,29.2c1.9,0.7,2.8,2.7,2.2,4.6l-6.2,17.4c-0.7,1.9-2.7,2.8-4.6,2.2l0,0
		c-1.9-0.7-2.8-2.7-2.2-4.6l6.3-17.5C97.3,29.5,99.4,28.5,101.3,29.2z"/>
</g>
</svg>
