<?xml version="1.0" encoding="utf-8"?>
<!-- Generator: Adobe Illustrator 22.0.1, SVG Export Plug-In . SVG Version: 6.00 Build 0)  -->
<svg version="1.1" id="Layer_1" xmlns="http://www.w3.org/2000/svg" xmlns:xlink="http://www.w3.org/1999/xlink" x="0px" y="0px"
	 viewBox="0 0 584.2 139.8" style="enable-background:new 0 0 584.2 139.8;" xml:space="preserve">
<style type="text/css">
	.st0{display:none;}
	.st1{display:inline;fill:#FFFFFF;stroke:#000000;stroke-miterlimit:10;}
	.st2{fill:#707B7F;}
	.st3{fill:#FFFFFF;}
	.st4{fill:#CD915F;}
	.st5{fill:#AA6628;}
	.st6{opacity:0.5;fill:#F9F9FA;enable-background:new    ;}
	.st7{fill:url(#SVGID_1_);}
	.st8{fill:#DDDDDD;}
	.st9{fill:#F7F7F7;}
	.st10{opacity:0.35;fill:#F4F4F5;enable-background:new    ;}
	.st11{fill:url(#SVGID_2_);}
	.st12{opacity:0.6;fill:#F4F4F5;enable-background:new    ;}
	.st13{display:none;fill:#34A6C9;stroke:#1B8EB7;stroke-width:10;stroke-miterlimit:10;}
	.st14{display:none;fill:#F27CA7;stroke:#C94C72;stroke-width:10;stroke-miterlimit:10;}
	.st15{fill:#476269;}
	.st16{fill:#222728;}
	.st17{fill:#DDDDDC;}
	.st18{fill:#F6F7F7;}
	.st19{fill:url(#SVGID_3_);}
	.st20{fill:url(#SVGID_4_);}
	.st21{enable-background:new    ;}
	.st22{opacity:0.5;enable-background:new    ;}
	.st23{fill:#F9F9FA;}
	.st24{fill:#D95F56;}
	.st25{fill:url(#SVGID_5_);}
	.st26{fill:url(#SVGID_6_);}
	.st27{opacity:0.84;fill:#E8CD2C;enable-background:new    ;}
	.st28{opacity:0.39;fill:#90D7EB;enable-background:new    ;}
	.st29{opacity:0.84;fill:url(#SVGID_7_);enable-background:new    ;}
	.st30{fill:#D2E8C9;stroke:#6EBF59;stroke-width:2;stroke-miterlimit:10;}
	.st31{fill:none;}
	.st32{fill:#E4F1DD;}
	.st33{fill:#7AC25B;}
	.st34{fill:none;stroke:#E2E2E2;stroke-miterlimit:10;}
	.st35{fill:#157D3E;stroke:#E2E2E2;stroke-width:3;stroke-miterlimit:10;}
	.st36{fill:none;stroke:#000000;stroke-width:10;stroke-miterlimit:10;}
</style>
<g id="Layer_1_1_" class="st0">
	<rect x="419.7" y="137.1" class="st1" width="136.5" height="482"/>
</g>
<path class="st2" d="M683.3,1914.5h-127c-11.1,0-20.2-9.1-20.2-20.2v-93.6c0-11.1,9.1-20.2,20.2-20.2h127c11.1,0,20.2,9.1,20.2,20.2
	v93.6C703.5,1905.4,694.4,1914.5,683.3,1914.5z"/>
<circle class="st3" cx="-619.8" cy="425" r="6.2"/>
<g>
	<polygon class="st4" points="571.4,-286.6 529.2,-274 621.7,-274 	"/>
	<polygon class="st4" points="909.8,-286.6 951.9,-274 859.4,-274 	"/>
	<rect x="571.3" y="-286.6" class="st4" width="338.4" height="14.9"/>
	<rect x="529.2" y="-274" class="st5" width="422.8" height="11.1"/>
</g>
<path class="st6" d="M-501.5,657.8h-148.8c-11.7,0-21.2-9.5-21.2-21.2V408.9c0-11.7,9.5-21.2,21.2-21.2h148.8
	c11.7,0,21.2,9.5,21.2,21.2v227.7C-480.3,648.3-489.8,657.8-501.5,657.8z"/>
<linearGradient id="SVGID_1_" gradientUnits="userSpaceOnUse" x1="-577.4" y1="-3575.3999" x2="-577.4" y2="-3351.1782" gradientTransform="matrix(1 0 0 1 0 3995.7998)">
	<stop  offset="0" style="stop-color:#FFCC4C"/>
	<stop  offset="1" style="stop-color:#FEBF4B"/>
</linearGradient>
<path class="st7" d="M-518,645.5h-118.8c-11.7,0-21.2-9.5-21.2-21.2V441.6c0-11.7,9.5-21.2,21.2-21.2H-518
	c11.7,0,21.2,9.5,21.2,21.2v182.7C-496.8,636-506.3,645.5-518,645.5z"/>
<circle class="st8" cx="-633.3" cy="418.9" r="33"/>
<ellipse transform="matrix(0.1602 -0.9871 0.9871 0.1602 -905.8001 -246.2278)" class="st8" cx="-597.6" cy="409.2" rx="23.4" ry="23.4"/>
<ellipse transform="matrix(0.1602 -0.9871 0.9871 0.1602 -886.2769 -203.2812)" class="st8" cx="-562.6" cy="419.2" rx="23.4" ry="23.4"/>
<circle class="st8" cx="-513.1" cy="414.4" r="28.2"/>
<ellipse transform="matrix(0.1602 -0.9871 0.9871 0.1602 -877.2943 -210.9238)" class="st9" cx="-562.6" cy="410.1" rx="23.4" ry="23.4"/>
<circle class="st9" cx="-541.3" cy="400.1" r="11.7"/>
<path class="st9" d="M-621,400.1c0-1.5,0.1-2.9,0.4-4.3h-42.6c-2,4.2-3.1,9-3.1,14c0,18.2,14.8,33,33,33c13.6,0,25.3-8.2,30.3-19.9
	C-613.3,420.5-621,411.2-621,400.1z"/>
<path class="st9" d="M-600.3,409.8c0,4.6-1,9.1-2.7,13.1c1.7,0.4,3.5,0.6,5.4,0.6c12.9,0,23.4-10.5,23.4-23.4c0-1.5-0.1-2.9-0.4-4.3
	h-28.7C-601.4,400.1-600.3,404.8-600.3,409.8z"/>
<path class="st9" d="M-603.4,395.8h-17.2c-0.3,1.4-0.4,2.8-0.4,4.3c0,11.1,7.7,20.3,18,22.7c1.7-4,2.7-8.4,2.7-13.1
	C-600.3,404.8-601.4,400.1-603.4,395.8z"/>
<path class="st9" d="M-486.5,395.8h-53.1c-1.1,3-1.6,6.1-1.6,9.5c0,15.6,12.6,28.2,28.2,28.2c15.6,0,28.2-12.6,28.2-28.2
	C-484.9,402-485.5,398.8-486.5,395.8z"/>
<path class="st9" d="M-481.9,396.7c0,0-0.1-0.1-0.2-0.2C-482.1,396.5-482,396.6-481.9,396.7L-481.9,396.7z"/>
<path class="st9" d="M-486.5,395.8h-116.9c-2.4-5-5.9-9.3-10.3-12.6c-3.5,3.3-5.9,7.7-6.8,12.6h-42.6c0.5-1.1,1.1-2.2,1.8-3.3
	c4.2-4.6,12.7-12.3,22.7-12.3h55.4c0,0,6.7,0,16,0h55.4c13.2,0,23.9,13.4,25.3,15.3C-486.6,395.7-486.6,395.7-486.5,395.8z"/>
<path class="st9" d="M-620.6,395.8h17.2c-2.3-5-5.9-9.3-10.3-12.6C-617.2,386.5-619.6,390.9-620.6,395.8z"/>
<path class="st6" d="M-423.5,461.6c-2.3-11.7-10.8-20.4-21-20.4h-35.8v22.5h25.3c6,0,10.8,5.9,10.8,13.3v77.4
	c0,7.3-4.8,13.3-10.8,13.3h-25.3v23.4h35.8c10.7,0,19.6-9.6,21.3-22.2c0.2-1.1,0.3-2.2,0.3-3.4v-1l0,0v-96.7l0,0v-1.4
	C-422.9,464.7-423.1,463.1-423.5,461.6z"/>
<path class="st10" d="M-624.5,615.3L-624.5,615.3c-6,0-10.8-4.8-10.8-10.8v-134c0-6,4.8-10.8,10.8-10.8l0,0c6,0,10.8,4.8,10.8,10.8
	v134C-613.6,610.5-618.5,615.3-624.5,615.3z"/>
<path class="st10" d="M-574.2,615.3L-574.2,615.3c-6,0-10.8-4.8-10.8-10.8v-134c0-6,4.8-10.8,10.8-10.8l0,0c6,0,10.8,4.8,10.8,10.8
	v134C-563.4,610.5-568.3,615.3-574.2,615.3z"/>
<path class="st10" d="M-525.2,612.1L-525.2,612.1c-6,0-10.8-4.8-10.8-10.8v-134c0-6,4.8-10.8,10.8-10.8l0,0c6,0,10.8,4.8,10.8,10.8
	v134C-514.4,607.2-519.2,612.1-525.2,612.1z"/>
<g>
	<circle class="st3" cx="3126.8" cy="1197.2" r="4.7"/>
	<path class="st6" d="M3212.7,1379.4h-104.4c-11.7,0-21.2-9.5-21.2-21.2v-165c0-11.7,9.5-21.2,21.2-21.2h104.4
		c11.7,0,21.2,9.5,21.2,21.2v165C3233.9,1370,3224.4,1379.4,3212.7,1379.4z"/>
	
		<linearGradient id="SVGID_2_" gradientUnits="userSpaceOnUse" x1="3159.4001" y1="-2798.5999" x2="3159.4001" y2="-2626.4414" gradientTransform="matrix(1 0 0 1 0 3995.7998)">
		<stop  offset="0" style="stop-color:#FFCC4C"/>
		<stop  offset="1" style="stop-color:#FEBF4B"/>
	</linearGradient>
	<path class="st11" d="M3200.1,1370h-81.4c-11.7,0-21.2-9.5-21.2-21.2v-130.4c0-11.7,9.5-21.2,21.2-21.2h81.4
		c11.7,0,21.2,9.5,21.2,21.2v130.4C3221.3,1360.5,3211.8,1370,3200.1,1370z"/>
	<circle class="st8" cx="3116.5" cy="1192.5" r="25.3"/>
	<circle class="st8" cx="3143.9" cy="1185.1" r="17.9"/>
	<circle class="st8" cx="3170.7" cy="1192.8" r="17.9"/>
	<circle class="st8" cx="3208.8" cy="1189.1" r="21.6"/>
	<circle class="st9" cx="3170.7" cy="1185.8" r="17.9"/>
	<circle class="st9" cx="3187.1" cy="1178.2" r="9"/>
	<path class="st9" d="M3125.9,1178.2c0-1.1,0.1-2.2,0.3-3.3h-32.7c-1.5,3.3-2.4,6.9-2.4,10.7c0,14,11.3,25.3,25.3,25.3
		c10.4,0,19.4-6.3,23.3-15.3C3131.8,1193.8,3125.9,1186.6,3125.9,1178.2z"/>
	<path class="st9" d="M3141.8,1185.6c0,3.6-0.7,7-2.1,10c1.3,0.3,2.7,0.5,4.1,0.5c9.9,0,17.9-8,17.9-17.9c0-1.1-0.1-2.2-0.3-3.3
		h-22.1C3141,1178.1,3141.8,1181.7,3141.8,1185.6z"/>
	<path class="st9" d="M3139.4,1174.8h-13.2c-0.2,1.1-0.3,2.2-0.3,3.3c0,8.5,5.9,15.6,13.8,17.5c1.3-3.1,2.1-6.5,2.1-10
		C3141.8,1181.7,3141,1178.1,3139.4,1174.8z"/>
	<path class="st9" d="M3229.2,1174.8h-40.8c-0.8,2.3-1.3,4.7-1.3,7.3c0,12,9.7,21.6,21.6,21.6s21.6-9.7,21.6-21.6
		C3230.4,1179.5,3230,1177.1,3229.2,1174.8z"/>
	<path class="st9" d="M3232.7,1179c0,0-0.1-0.1-0.1-0.2C3232.6,1178.8,3232.6,1178.9,3232.7,1179L3232.7,1179z"/>
	<path class="st9" d="M3229.2,1174.8h-89.7c-1.8-3.8-4.5-7.2-7.9-9.7c-2.7,2.5-4.6,5.9-5.3,9.7h-32.7c0.4-0.9,0.9-1.7,1.4-2.5
		c3.2-3.5,9.8-9.4,17.5-9.4h42.5c0,0,5.1,0,12.3,0h42.5C3220,1162.9,3228.1,1173.2,3229.2,1174.8
		C3229.1,1174.7,3229.1,1174.8,3229.2,1174.8z"/>
	<path class="st9" d="M3126.2,1174.8h13.2c-1.8-3.8-4.5-7.2-7.9-9.7C3128.8,1167.7,3126.9,1171.1,3126.2,1174.8z"/>
	<path class="st6" d="M3277.5,1228.9c-1.7-9-8.3-15.7-16.1-15.7h-27.5v17.3h19.4c4.6,0,8.3,4.6,8.3,10.2v59.4
		c0,5.6-3.7,10.2-8.3,10.2h-19.4v17.9h27.5c8.2,0,15.1-7.4,16.4-17c0.1-0.8,0.2-1.7,0.2-2.6v-0.8l0,0v-74.2l0,0v-1.1
		C3278,1231.2,3277.8,1230,3277.5,1228.9z"/>
	<path class="st12" d="M3123.2,1346.9L3123.2,1346.9c-4.6,0-8.3-3.7-8.3-8.3v-102.9c0-4.6,3.7-8.3,8.3-8.3l0,0
		c4.6,0,8.3,3.7,8.3,8.3v102.9C3131.5,1343.2,3127.8,1346.9,3123.2,1346.9z"/>
	<path class="st12" d="M3161.8,1346.9L3161.8,1346.9c-4.6,0-8.3-3.7-8.3-8.3v-102.9c0-4.6,3.7-8.3,8.3-8.3l0,0
		c4.6,0,8.3,3.7,8.3,8.3v102.9C3170.1,1343.2,3166.4,1346.9,3161.8,1346.9z"/>
	<path class="st12" d="M3199.5,1344.4L3199.5,1344.4c-4.6,0-8.3-3.7-8.3-8.3v-102.9c0-4.6,3.7-8.3,8.3-8.3l0,0
		c4.6,0,8.3,3.7,8.3,8.3v102.9C3207.8,1340.6,3204.1,1344.4,3199.5,1344.4z"/>
</g>
<path class="st13" d="M333.5,1045.7v-32.9l5.8,5.8c9.5,9.5,25,9.5,34.5,0s9.5-25,0-34.5l-45-45l-2.9-2.9c-4.5-4.5-10.2-6.8-16.1-7.1
	c-0.2,0-0.5,0-0.8,0c-0.1,0-0.2,0-0.2,0c-0.1,0-0.1,0-0.2,0s-0.1,0-0.2,0c-6.3-0.1-12.7,2.3-17.5,7.2L243,984.2
	c-9.5,9.5-9.5,25,0,34.5c9.5,9.5,25,9.5,34.5,0l7.1-7.1l0.6,33.7c-34.6,10-59.9,41.9-59.9,79.8c0,45.9,37.2,83.1,83.1,83.1
	s83.1-37.2,83.1-83.1C391.5,1087.8,367.1,1056.3,333.5,1045.7z M308.4,1160.1c-19.4,0-35.2-15.8-35.2-35.2s15.8-35.2,35.2-35.2
	s35.2,15.8,35.2,35.2S327.9,1160.1,308.4,1160.1z"/>
<path class="st14" d="M619.5,1087.3c32.4-32.4,32.4-85.1,0-117.5s-85.1-32.4-117.5,0s-32.4,85.1,0,117.5
	c10.6,10.6,23.3,17.7,36.8,21.4v25.9h-9.6c-12.1,0-21.9,9.8-21.9,21.9l0,0c0,12.1,9.8,21.9,21.9,21.9h9.6v9.6
	c0,12.1,9.8,21.9,21.9,21.9l0,0c12.1,0,21.9-9.8,21.9-21.9v-9.6h9.6c12.1,0,21.9-9.8,21.9-21.9l0,0c0-12.1-9.8-21.9-21.9-21.9h-9.5
	v-25.9C596.2,1105,608.9,1097.9,619.5,1087.3z M535.9,1003.7c13.8-13.8,36-13.8,49.8,0s13.8,36,0,49.8s-36,13.8-49.8,0
	C522.1,1039.7,522.1,1017.4,535.9,1003.7z"/>
<rect x="411" y="865.4" class="st15" width="578.1" height="600.5"/>
<path class="st3" d="M560.9,1043.2l-59.5,59.5c-6.3,6.3-16.4,6.3-22.7,0l0,0c-6.3-6.3-6.3-16.4,0-22.7l59.5-59.5
	c6.3-6.3,16.4-6.3,22.7,0l0,0C567.1,1026.8,567.1,1037,560.9,1043.2z"/>
<path class="st3" d="M597.7,1102.7l-59.5-59.5c-6.3-6.3-6.3-16.4,0-22.7l0,0c6.3-6.3,16.4-6.3,22.7,0l59.5,59.5
	c6.3,6.3,6.3,16.4,0,22.7l0,0C614.1,1109,603.9,1109,597.7,1102.7z"/>
<path class="st3" d="M569.4,1053.9v75.2c0,11.9-9.6,21.5-21.5,21.5l0,0c-11.9,0-21.5-9.6-21.5-21.5v-75.2c0-11.9,9.6-21.5,21.5-21.5
	l0,0C559.8,1032.4,569.4,1042,569.4,1053.9z"/>
<path class="st3" d="M549.5,1129.5c-52.3,0-94.6,42.4-94.6,94.6s42.4,94.6,94.6,94.6s94.6-42.4,94.6-94.6S601.8,1129.5,549.5,1129.5
	z M549.5,1282.3c-32.1,0-58.2-26-58.2-58.2c0-32.1,26-58.2,58.2-58.2c32.1,0,58.2,26,58.2,58.2
	C607.7,1256.2,581.7,1282.3,549.5,1282.3z"/>
<path class="st3" d="M790.2,1297.2v-101.4c0-11.9,9.6-21.5,21.5-21.5l0,0c11.9,0,21.5,9.6,21.5,21.5v101.4
	c0,11.9-9.6,21.5-21.5,21.5l0,0C799.9,1318.7,790.2,1309.1,790.2,1297.2z"/>
<path class="st3" d="M851.6,1276.4h-79.7c-11.9,0-21.5-9.6-21.5-21.5l0,0c0-11.9,9.6-21.5,21.5-21.5h79.7c11.9,0,21.5,9.6,21.5,21.5
	l0,0C873.1,1266.8,863.4,1276.4,851.6,1276.4z"/>
<path class="st3" d="M810.1,1195.4c52.3,0,94.6-42.4,94.6-94.6c0-52.3-42.4-94.6-94.6-94.6s-94.6,42.4-94.6,94.6
	C715.5,1153.1,757.8,1195.4,810.1,1195.4z M810.1,1042.7c32.1,0,58.2,26,58.2,58.2c0,32.1-26,58.2-58.2,58.2
	c-32.1,0-58.2-26-58.2-58.2C751.9,1068.7,778,1042.7,810.1,1042.7z"/>
<rect x="-103.6" y="865.4" class="st16" width="508.9" height="434.6"/>
<path class="st3" d="M175.3,1042.7l-59.5,59.5c-6.3,6.3-16.4,6.3-22.7,0l0,0c-6.3-6.3-6.3-16.4,0-22.7l59.5-59.5
	c6.3-6.3,16.4-6.3,22.7,0l0,0C181.6,1026.3,181.6,1036.4,175.3,1042.7z"/>
<path class="st3" d="M212.1,1102.1l-59.5-59.5c-6.3-6.3-6.3-16.4,0-22.7l0,0c6.3-6.3,16.4-6.3,22.7,0l59.5,59.5
	c6.3,6.3,6.3,16.4,0,22.7l0,0C228.5,1108.4,218.4,1108.4,212.1,1102.1z"/>
<path class="st3" d="M181.5,1051v79.8c0,10.6-8.6,19.2-19.2,19.2l0,0c-10.6,0-19.2-8.6-19.2-19.2V1051c0-10.6,8.6-19.2,19.2-19.2
	l0,0C173,1031.8,181.5,1040.4,181.5,1051z"/>
<path class="st17" d="M45.7,17.6c-18,0-34.3,7.5-45.7,19.5v83.2c11.4,12,27.6,19.5,45.7,19.5c34.4,0,62.4-27.4,62.4-61.1
	S80.2,17.6,45.7,17.6z"/>
<path class="st17" d="M584.2,46.5c-8-8.2-19.5-13.4-32.2-13.4c-24.1,0-43.7,18.4-43.7,41.1s19.6,41.1,43.7,41.1
	c12.8,0,24.3-5.2,32.2-13.4V46.5z"/>
<ellipse class="st17" cx="127.9" cy="65.6" rx="28" ry="27.5"/>
<ellipse class="st17" cx="203" cy="73.1" rx="54.2" ry="53.1"/>
<ellipse class="st17" cx="282.3" cy="68.3" rx="35.9" ry="35.2"/>
<ellipse class="st17" cx="347.5" cy="52.5" rx="33.6" ry="32.9"/>
<ellipse class="st17" cx="381.7" cy="75.8" rx="38.4" ry="37.6"/>
<ellipse class="st17" cx="444.4" cy="67.3" rx="38" ry="37.3"/>
<ellipse class="st17" cx="493.6" cy="55.8" rx="23.2" ry="22.7"/>
<path class="st17" d="M584.2,71.2H1.1c2.2-15.3,1.6-11,3.5-24.2l0,0c0-13.3,12.2-24.2,27.2-24.2h521.7c15,0,27.2,10.8,27.2,24.2l0,0
	C581.9,59.2,581.8,58.9,584.2,71.2z"/>
<circle class="st18" cx="127.9" cy="53.5" r="28"/>
<ellipse class="st18" cx="203" cy="61.1" rx="54.2" ry="54.2"/>
<circle class="st18" cx="282.3" cy="56.2" r="35.9"/>
<circle class="st18" cx="347.5" cy="40" r="33.6"/>
<circle class="st18" cx="381.7" cy="63.8" r="38.4"/>
<circle class="st18" cx="444.4" cy="55.1" r="38"/>
<ellipse transform="matrix(0.2425 -0.9701 0.9701 0.2425 331.7802 511.7363)" class="st18" cx="493.6" cy="43.4" rx="23.2" ry="23.2"/>
<rect class="st18" width="584.2" height="61.1"/>
<path class="st18" d="M584.2,33.2c-8-8.4-19.5-13.7-32.2-13.7c-24.1,0-43.7,18.8-43.7,41.9s19.6,41.9,43.7,41.9
	c12.8,0,24.3-5.3,32.2-13.7V33.2z"/>
<path class="st18" d="M45.7,2.6c-18,0-34.3,7.7-45.7,19.9v84.9c11.4,12.2,27.6,19.9,45.7,19.9c34.4,0,62.4-27.9,62.4-62.4
	S80.2,2.6,45.7,2.6z"/>
<path class="st6" d="M-712.2,626.4c1.4,1.9,2.6,3.6,3.7,5.2c6,8.5,2.2,20.3-7.8,23.9c-8.4,3-21.4,5.2-41.4,4.8
	c-20.1,0.4-33.1-1.8-41.5-4.8c-10-3.5-13.8-15.4-7.8-23.9c1.1-1.6,2.3-3.3,3.7-5.2c8.4-11.5,11-58.3,7.8-119.2
	c-2.6-49.2-25.6-180.6-34.4-229.4c-1.7-9.7,5.9-18.6,16-18.6h112.2c10.1,0,17.8,8.9,16,18.6c-8.8,48.8-31.8,180.2-34.4,229.4
	C-723.2,568.1-720.6,614.9-712.2,626.4z"/>
<g>
	
		<linearGradient id="SVGID_3_" gradientUnits="userSpaceOnUse" x1="-757.75" y1="-3689.2925" x2="-757.75" y2="-3386.729" gradientTransform="matrix(1 0 0 1 0 3995.7998)">
		<stop  offset="0" style="stop-color:#FFCC4C"/>
		<stop  offset="1" style="stop-color:#FEBF4B"/>
	</linearGradient>
	<path class="st19" d="M-728.6,496.3c2-38,19.8-139.3,26.5-177c1.3-7.5-4.6-14.3-12.4-14.3H-801c-7.8,0-13.7,6.8-12.4,14.3
		c6.8,37.6,24.5,139,26.5,177c0.9,16.3,1.2,79.1,1,92c-0.2,15.3,11.4,19.1,26.6,19.9c0.5,0,1,0,1.5,0s1,0,1.5,0
		c15.2-0.8,26.9-4.6,26.6-19.9C-729.8,575.4-729.5,512.6-728.6,496.3z"/>
</g>
<circle class="st12" cx="-722.8" cy="327.1" r="6.1"/>
<ellipse transform="matrix(0.1256 -0.9921 0.9921 0.1256 -1043.8624 -374.4322)" class="st12" cx="-734.3" cy="405" rx="53" ry="6.1"/>
<g>
	<path class="st6" d="M-870.8,645.4c0.8,2.1,0.1,4-1.5,5.5c-3.6,3.2-9.4,4.2-14,5c-11.5,1.9-23.2,2-34.8,1.9
		c-11.6,0.1-23.4,0-34.8-1.9c-4.6-0.8-10.4-1.7-14-5c-1.6-1.5-2.3-3.4-1.5-5.5c0.8-2,2.5-3.5,4.7-3.8c1.3-0.2,2.6-0.3,4-0.5
		c5.2-0.9,10.2-2.7,15-4.9c13.4-6,22-13.8,22-13.8s0.8-103,0.8-121.9s-38.2-28.4-54-46.5c-15.8-18.2,18.5-106.5,18.5-106.5h78.9
		c0,0,36.7,86.7,20.9,104.8c-15.8,18.1-56.4,29.3-56.4,48.2s0.8,121.9,0.8,121.9s8.5,7.8,22,13.8c4.8,2.1,9.8,3.9,15,4.9
		c1.3,0.2,2.6,0.3,4,0.5C-873.3,641.8-871.6,643.3-870.8,645.4z"/>
	
		<linearGradient id="SVGID_4_" gradientUnits="userSpaceOnUse" x1="-919.95" y1="-3627.2544" x2="-919.95" y2="-3517.0457" gradientTransform="matrix(1 0 0 1 0 3995.7998)">
		<stop  offset="0" style="stop-color:#FFCC4C"/>
		<stop  offset="1" style="stop-color:#FEBF4B"/>
	</linearGradient>
	<path class="st20" d="M-877.4,455.2l-37.7,21.8c-3,1.7-6.8,1.7-9.8,0l-37.7-21.8c-0.3-0.2-0.6-0.3-0.8-0.4
		c-2.2-1-15.2-8.3-5.3-39.8l9.8-38.6c1.1-4.3,5-7.4,9.5-7.4h58.8c4.5,0,8.4,3,9.5,7.4l9.9,38.6c9.9,31.5-3.1,38.8-5.3,39.8
		C-876.9,454.9-877.1,455-877.4,455.2z"/>
	<circle class="st12" cx="-891.8" cy="391.3" r="6.1"/>
	<ellipse class="st12" cx="-891.8" cy="424.3" rx="6.1" ry="17"/>
</g>
<text transform="matrix(1 0 0 1 -28.7493 391.2808)" style="font-family:'MyriadPro-Regular'; font-size:72px;">Beer</text>
<text transform="matrix(1 0 0 1 1430.8979 210.0278)" style="font-family:'MyriadPro-Regular'; font-size:72px;">Cocktail</text>
<path class="st6" d="M1247.5,651.9c-77,0-50.8-18-50.8-18s14.7-4.4,27.8-6.6c13.1-2.2,16.3-27.3,16.3-27.3s0-73.2,0-95
	c0-21.9-5-22.9-5-22.9l-73.6-93.7h170.5l-73.6,93.7c0,0-5,1-5,22.9c0,21.8,0,95,0,95s3.2,25.1,16.3,27.3c13.1,2.2,27.9,6.6,27.9,6.6
	S1324.5,651.9,1247.5,651.9z"/>
<path class="st6" d="M1541,434c-12.3,13.9-52.3,27.8-58,37.6c0,0-0.4,8.6-9.1,9.1c0,0-4.5,3.2-4.5,13.2s-4.3,112,0,116.3
	s36.7,14.1,42.2,15.9s38.8,25-54,25s-59.4-23.2-54-25c5.5-1.8,37.9-11.6,42.2-15.9c4.3-4.3,0-106.3,0-116.3s-4.6-13.2-4.6-13.2
	c-8.6-0.5-9.1-9.1-9.1-9.1c-5.7-9.8-45.8-23.7-58-37.6c-12.3-13.9-9-46.6-9-46.6h184.8C1550,387.4,1553.3,420.1,1541,434z"/>
<path class="st6" d="M1613.8,650.7c-37.3-5.2-19.8-13.9-19.8-13.9l25.9-9.8V520c-12.1-6.8-20.5-22.5-20.5-22.5
	c-14-24.2-5.4-143.7-5.4-143.7h60.6c0,0,8.6,119.5-5.4,143.7c0,0-8.4,15.6-20.5,22.5v107l25.9,9.8c0,0,17.5,8.7-19.8,13.9
	C1627.8,651.7,1620.7,651.7,1613.8,650.7z"/>
<path class="st6" d="M1790.3,424.9c6.4,48.4,20.4,121.1,1.3,140.2c-12.4,12.4-18.3,19.6-20.9,23.1c-1.2,1.6-1.6,3.6-1.1,5.5
	c1.2,5.2,3.3,16.3,0.7,21c-0.9,1.7-1.8,3.3-2.5,4.9c-1.8,3.9,0.5,8.5,4.7,9.4l17.8,3.9c0.2,0,0.4,0.1,0.7,0.2
	c4.1,1.3,41,14.1-33.3,18.8c-0.3,0-0.6,0-0.9,0c-74.3-4.7-37.3-17.5-33.3-18.8c0.2-0.1,0.4-0.1,0.7-0.2l17.8-3.9
	c4.2-0.9,6.5-5.5,4.7-9.4c-0.7-1.5-1.5-3.2-2.5-4.9c-2.6-4.8-0.5-15.8,0.7-21c0.4-1.9,0-3.9-1.1-5.5c-2.6-3.5-8.5-10.7-20.9-23.1
	c-19.1-19.1-5.1-91.8,1.3-140.2c3.8-29-3.8-48-10.5-58.5c-2.9-4.5,0.4-10.3,5.7-10.3h76c5.3,0,8.5,5.8,5.7,10.3
	C1794.1,376.9,1786.5,395.8,1790.3,424.9z"/>
<path class="st6" d="M1958.8,382.3v251.8c0,7.3-5.6,13.4-12.8,14l-24.3,2.2c-11.8,1-23.6,1-35.4,0l-24.3-2.2
	c-7.3-0.6-12.8-6.7-12.8-14V382.3c0-7.8,6.3-14.1,14.1-14.1h81.5C1952.5,368.2,1958.8,374.5,1958.8,382.3z"/>
<path class="st6" d="M2103.5,380.9l-5,253.9c-0.1,5.5-3.8,10.2-9.1,11.7c-7.7,2.2-21.6,4.6-45.8,5c-24.2-0.3-38-2.7-45.8-5
	c-5.3-1.5-8.9-6.2-9.1-11.7l-5-253.9c-0.1-7,5.5-12.7,12.4-12.7h94.7C2098.1,368.2,2103.7,373.9,2103.5,380.9z"/>
<path class="st6" d="M2196.4,649.6c-59.6,0.5-52.6-4.3-34.3-14.3c16.8-9.2,12.4-29.6,11.5-32.8c-0.1-0.3-0.1-0.7-0.2-1l-22.3-295.3
	c-0.3-3.5,2.5-6.6,6.1-6.6h78.3c3.6,0,6.4,3,6.1,6.6l-22.3,295.3c0,0.3-0.1,0.7-0.2,1c-0.8,3.3-5.3,23.7,11.5,32.8
	C2249,645.3,2256,650.2,2196.4,649.6z"/>
<text transform="matrix(1 0 0 1 1430.8987 1082.6837)" class="st6" style="font-family:'MyriadPro-Regular'; font-size:72px;">Lhao</text>
<path class="st6" d="M1436.9,1355.4c-23.7,31.1-43,36.1-53.2,41.7s-16.2,26.8,3.2,30.9c19.4,4.2,27.9,6.7,27.9,6.7
	s35.7,18.2-50,18.2c-86.4,0-50-18.2-50-18.2s8.4-2.5,27.8-6.7c19.4-4.1,13.4-25.4,3.2-30.9c-10.2-5.6-29.4-10.5-53.2-41.7
	c-23.7-31.1,24.6-122.1,24.6-122.1h95C1412.4,1233.4,1460.7,1324.3,1436.9,1355.4z"/>
<path class="st6" d="M1516.7,1453c-66.8-0.8-42.6-10.7-26.2-11.9s21.7-15.2,21.7-15.2s-0.8-91.8,0-107.3
	c0.8-15.6-11.7-23.3-11.7-23.3c-30.1-32-16.2-104.1-16.2-104.1h64.7c0,0,13.9,72.1-16.2,104.1c0,0-12.5,7.8-11.7,23.3
	c0.8,15.6,0,107.3,0,107.3s5.3,13.9,21.7,15.2C1559.3,1442.3,1583.5,1452.2,1516.7,1453z"/>
<path class="st6" d="M1626.6,1453c-39.6,0-30.4-5.9-23.1-9.4c7-3.4,15.4-9.1,15.4-9.1l1.3-28.9c0.9-20.1-4.1-22.3-8.8-29.2
	c-4.7-6.9-5.6-11.3-10-27.3s-1.9-68.1-1.9-68.1h54.4c0,0,2.5,52.1-1.9,68.1s-5.3,20.4-10,27.3s-9.7,9.1-8.8,29.2l1.3,28.9
	c0,0,8.4,5.7,15.4,9.1C1657,1447.1,1666.2,1453,1626.6,1453z"/>
<path class="st6" d="M1764.4,1331.9c4.1,0,7.4,3.4,7.2,7.5l-3.8,95.7c0,0-0.9,17.9-13.2,17.9c-17.1,0-28.7,0-28.7,0s-11.6,0-28.7,0
	c-12.3,0-13.2-17.9-13.2-17.9l-3.8-95.7c-0.2-4.1,3.1-7.5,7.2-7.5H1764.4z"/>
<text transform="matrix(1 0 0 1 2685.3508 210.0278)" style="font-family:'MyriadPro-Regular'; font-size:72px;">Wine</text>
<path class="st6" d="M2632.7,649.7c-103.5-0.2-51.2-11.8-48-12.5c0.1,0,0.2,0,0.3-0.1c1.8-0.5,17.6-5.2,22.9-8.2
	c5.5-3.2,14.6-18.7,14.8-25.7c0.2-6.3-4-21.5-5-25.2c-0.1-0.5-0.4-1-0.7-1.5c-7.5-11-1.3-17.9,3.1-24.8c4.5-7,2-23.6-1.9-30
	c-3.8-6.4-13.9-31.9-17.7-51c-3.1-15.9-27.1-81.2-35-102.7c-1.2-3.3,1.2-6.9,4.8-6.9l126.2,0.3c3.6,0,6,3.6,4.8,6.9
	c-8.1,21.4-32.3,86.6-35.5,102.5c-3.9,19.1-14.1,44.6-18,50.9c-3.8,6.4-6.4,22.9-2,30c4.4,6.9,10.5,13.9,3,24.8
	c-0.3,0.5-0.6,0.9-0.7,1.5c-1,3.6-5.3,18.9-5.1,25.2c0.2,7,9.2,22.6,14.7,25.8c5.2,3.1,21.1,7.8,22.8,8.3c0.1,0,0.2,0.1,0.3,0.1
	C2684,638.1,2736.2,649.9,2632.7,649.7z"/>
<path class="st6" d="M2781.4,524.4v101.1c0,0,16.4,7.2,26.1,10.7c8.8,3.2,30.8,14.5-32.3,14.5s-41.1-11.3-32.3-14.5
	c9.7-3.5,26-10.7,26-10.7V524.4c0,0-3.9-2.4-12.9-8.9c-10.2-7.4-27.4-26.8-33.9-48.7c-6.6-21.9,9.9-105.6,9.9-105.6h86.5
	c0,0,16.4,83.8,9.9,105.6c-6.6,21.9-23.7,41.3-33.9,48.7C2785.3,522.1,2781.4,524.4,2781.4,524.4z"/>
<path class="st6" d="M2926.5,500.9c0,6.3-0.4,117.8-0.4,117.8l25.6,14.7c0,0,44.2,16.3-32.6,16.3s-32.6-16.3-32.6-16.3l25.6-14.7
	c0,0-0.4-111.5-0.4-117.8s-3.1-8-8.5-11.4s-25-14.8-35.1-32.4s12.4-95.9,12.4-95.9h77.3c0,0,22.5,78.4,12.4,95.9
	c-10.1,17.6-29.7,29-35.1,32.4C2929.7,492.9,2926.5,494.6,2926.5,500.9z"/>
<path class="st6" d="M3067.2,541.6c0,4.6,0,69.5,0,69.5s15.3,22.4,24.2,23s44.4,15.5-32.5,15.5s-41.4-14.9-32.5-15.5
	s24.2-23,24.2-23s0-65,0-69.5c0-4.6-3.6-7.7-3.6-7.7c-1.6-16.3-19.1-29.2-43.9-55.9c-24.7-26.7,8-99.8,8-99.8h95.6
	c0,0,32.7,73.1,8,99.8c-24.7,26.7-42.3,39.6-43.9,55.9C3070.8,533.9,3067.2,537,3067.2,541.6z"/>
<path class="st24" d="M678.9,1909.5H560.7c-10.7,0-19.4-8.7-19.4-19.4v-118.2c0-10.7,8.7-19.4,19.4-19.4h118.2
	c10.7,0,19.4,8.7,19.4,19.4v118.2C698.3,1900.8,689.6,1909.5,678.9,1909.5z"/>
<path class="st3" d="M541.3,1803.9v86.2c0,10.7,8.7,19.4,19.4,19.4h118.2c10.7,0,19.4-8.7,19.4-19.4v-86.2H541.3z"/>
<text transform="matrix(1 0 0 1 596.0286 1786.075)" class="st3" style="font-family:'Cloud-Bold'; font-size:26px;">DAY</text>
<g>
	<path class="st6" d="M3512.9,1222.2c0,6.3-0.4,117.8-0.4,117.8l25.6,14.7c0,0,44.2,16.3-32.6,16.3c-65.3,0-24.6-16.3-24.6-16.3
		l25.6-14.7c0,0-0.4-111.5-0.4-117.8s-3.1-8-8.5-11.4s-25-14.8-35.1-32.4s12.4-95.9,12.4-95.9h69.3c0,0,22.5,78.4,12.4,95.9
		c-10.1,17.6-29.7,29-35.1,32.4C3516.1,1214.2,3512.9,1216,3512.9,1222.2z"/>
	
		<linearGradient id="SVGID_5_" gradientUnits="userSpaceOnUse" x1="3547.6526" y1="-2842.9087" x2="3547.1912" y2="-2834.1431" gradientTransform="matrix(1 0 0 1 0 3995.7998)">
		<stop  offset="0" style="stop-color:#AE4F6F"/>
		<stop  offset="1" style="stop-color:#6C365E"/>
	</linearGradient>
	<path class="st25" d="M3545.8,1157.9c-0.3-1.5,0.2-3,1.3-4.1c0.2-0.2,0.4-0.4,0.7-0.4c0.7-0.1,1.3,0.6,1.4,1.3
		c0.3,1.4-0.7,3-2.2,3.4c-0.5,0.1-1.1,0-1.3-0.4"/>
	
		<linearGradient id="SVGID_6_" gradientUnits="userSpaceOnUse" x1="3509.552" y1="-2840.6416" x2="3509.552" y2="-2788.1641" gradientTransform="matrix(1 0 0 1 0 3995.7998)">
		<stop  offset="0" style="stop-color:#AE4F6F"/>
		<stop  offset="1" style="stop-color:#6C365E"/>
	</linearGradient>
	<path class="st26" d="M3551.6,1171.4c-0.7,0.1-1.3,0.5-2,0.8s-1.6,0.4-2.3,0.2c-0.1,0-0.2,0-0.3-0.1s-0.1-0.1-0.1-0.2s0-0.1,0-0.2
		c0-1.9,0.2-4.1-2.1-5.3c-0.7-0.3-1.4-0.5-2.1-0.5c-2.4,0-4.4,1.4-6.5,2.5c-3.5,1.9-7.3,3-11.2,3.5h-13.2c-4.4-0.5-8.7-1.3-13-2.2
		c-1.8-0.4-3.7-0.8-5.1-1.9c-1.1-0.9-1.9-2.1-2.9-3.1s-2.5-1.8-3.9-1.3c-0.7,0.2-1.2,0.7-1.9,0.9c-1.1,0.3-2.2-0.1-3.2-0.5
		c-1.6-0.7-3.2-1.3-4.5-2.4c-2-1.6-3.7-4.1-6.6-3.4c-1.2,0.3-2.2,1.1-2.8,2.1c-6.3,9.8,5,20.6,11.6,26.7c5.5,5.1,11.6,9.3,18,13.2
		c0.9,0.5,1.7,1,2.4,1.5c7.6,5,9.3,5.8,11.6,5.8c2,0,6.1-3,10.1-5.8c0.7-0.5,1.5-1,2.4-1.5c0.5-0.3,1-0.6,1.5-0.9
		c5-3.1,9.8-6.5,14.3-10.4c2.9-2.6,5.7-5.3,8.2-8.3c1.3-1.6,2.5-3.2,3.6-4.9C3552.1,1174.7,3554.6,1171,3551.6,1171.4z"/>
</g>
<g>
	<path class="st6" d="M3017.2,1226.8c4.9,0,8.9,4.1,8.7,9l-4.6,115c0,0-1.1,21.5-15.8,21.5c-20.6,0-34.5,0-34.5,0s-13.9,0-34.5,0
		c-14.7,0-15.8-21.5-15.8-21.5l-4.6-115c-0.2-4.9,3.7-9,8.7-9H3017.2z"/>
	<path class="st27" d="M2937,1276c-6.7,0-12.1,3.8-11.8,8.5l2.9,51.1c0,0,0.9,12.4,13.3,12.4c17.3,0,28.9,0,28.9,0s11.7,0,28.9,0
		c12.3,0,13.3-12.4,13.3-12.4l2.9-51.1c0.3-4.6-5.1-8.5-11.8-8.5H2937z"/>
	<path class="st28" d="M2953.3,1296.7l-13.1-8.9c-2.6-1.8-3.3-5.4-1.5-8l8.9-13.1c1.8-2.6,5.4-3.3,8-1.5l13.1,8.9
		c2.6,1.8,3.3,5.4,1.5,8l-8.9,13.1C2959.5,1297.8,2955.9,1298.4,2953.3,1296.7z"/>
	<path class="st28" d="M2995.9,1284.1l-7,2.1c-2,0.6-4-0.5-4.6-2.5l-2.1-7c-0.6-2,0.5-4,2.5-4.6l7-2.1c2-0.6,4,0.5,4.6,2.5l2.1,7
		C2999,1281.4,2997.9,1283.5,2995.9,1284.1z"/>
</g>
<g>
	<path class="st6" d="M3380.4,1355.5l-20.2-11.6c0,0,0.3-67.4,0.3-87.6l45.4-63h-96.1l45.3,62.8c0.1,20,0.3,87.7,0.3,87.7
		l-20.2,11.6c0,0-32.1,12.9,19.4,12.9C3415.3,1368.4,3380.4,1355.5,3380.4,1355.5z"/>
	
		<linearGradient id="SVGID_7_" gradientUnits="userSpaceOnUse" x1="3357.8501" y1="-2779.2393" x2="3357.8501" y2="-2746.2859" gradientTransform="matrix(1 0 0 1 0 3995.7998)">
		<stop  offset="0" style="stop-color:#14AFAB"/>
		<stop  offset="1" style="stop-color:#227893"/>
	</linearGradient>
	<polygon class="st29" points="3381.6,1216.6 3357.9,1249.5 3334.1,1216.6 	"/>
	<path class="st30" d="M3383.5,1204.5c5.3-4.6,5.8-12.7,1.2-18s-12.7-5.8-18-1.2"/>
	<g>
		<polygon class="st31" points="3373.8,1193.3 3366.4,1193.3 3366.4,1194.1 3375.2,1194.1 		"/>
		<polygon class="st32" points="3379.4,1199.7 3379.4,1193.3 3373.8,1193.3 3374.5,1194.1 		"/>
	</g>
</g>
<path class="st33" d="M-1043.6,425.5c-0.6-0.8-2.8-5.7-5.3-10.7c-1.7-3.4-1.8-7.2-1.7-9.3c0-0.9,0.4-1.6,0.9-2.3
	c0.4-0.5,0.8-1.4,0.8-2.8c0-2.8-55.6-3.9-55.6-3.9s-55.6,1.1-55.6,3.9c0,1.4,0.4,2.3,0.8,2.8c0.5,0.7,0.9,1.5,0.9,2.3
	c0.1,2.1,0,5.9-1.7,9.3c-2.5,5-4.6,9.9-5.3,10.7s0,15.1,0,18.7v151.9c0,1,0.4,1.9,1,2.7c1.1,1.2,3.1,3.1,5.7,4.7
	c2.4,1.4,4.1,2.7,5.1,3.5c0.7,0.6,1.3,1.4,1.4,2.3l0,0c0.1,0.5,0.3,0.9,0.5,1.3l1.1,1.7c0.7,1.1,1.8,1.7,3,1.8
	c7.4,0.6,33.5,2.5,42.9,2.5c9.8,0,35.6-1.9,42.9-2.5c1.2-0.1,2.4-0.8,3-1.8l1.1-1.7c0.3-0.4,0.4-0.9,0.5-1.3l0,0
	c0.2-0.9,0.7-1.8,1.4-2.3c1-0.8,2.7-2,5.1-3.5c2.6-1.6,4.6-3.5,5.7-4.7c0.7-0.7,1-1.7,1-2.7V444.2
	C-1043.6,440.6-1042.9,426.4-1043.6,425.5z"/>
<path class="st34" d="M-1148.3,607.3c0,0,50.3,5.5,87.7,0"/>
<rect x="-1157.2" y="495.2" class="st35" width="105.5" height="26.5"/>
<path class="st34" d="M-1153.7,403.2c0,0,40.7,4.1,98.6,0"/>
<path class="st35" d="M-1136.2,521.7h63.5c-3.5,24-16.4,41.8-31.7,41.8C-1119.8,563.5-1132.6,545.7-1136.2,521.7z"/>
<path class="st35" d="M-1072.7,495.2h-63.5c3.5-24,16.4-41.8,31.7-41.8C-1089.1,453.4-1076.2,471.2-1072.7,495.2z"/>
<path d="M167.4,2297.5h-23.1v-106c0-6.4,5.2-11.6,11.6-11.6l0,0c6.4,0,11.6,5.2,11.6,11.6v106H167.4z"/>
<path d="M259.9,2309.1L259.9,2309.1c0,6.4-5.2,11.6-11.6,11.6h-307c-6.4,0-11.6-5.2-11.6-11.6l0,0c0-6.4,5.2-11.6,11.6-11.6h307.1
	C254.7,2297.5,259.9,2302.7,259.9,2309.1z"/>
<path d="M809.2,2317.7L809.2,2317.7c0,6.4-5.2,11.6-11.6,11.6h-307c-6.4,0-11.6-5.2-11.6-11.6l0,0c0-6.4,5.2-11.6,11.6-11.6h307.1
	C804.1,2306.1,809.2,2311.3,809.2,2317.7z"/>
<path d="M195.9,2193.5L195.9,2193.5c-4.5,4.5-11.8,4.5-16.3,0l-99.2-99.2c-4.5-4.5-4.5-11.8,0-16.3l0,0c4.5-4.5,11.8-4.5,16.3,0
	l99.2,99.2C200.4,2181.7,200.4,2189,195.9,2193.5z"/>
<path d="M-20,2193.5L-20,2193.5c4.5,4.5,11.8,4.5,16.3,0l99.2-99.2c4.5-4.5,4.5-11.8,0-16.3l0,0c-4.5-4.5-11.8-4.5-16.3,0
	l-99.2,99.2C-24.5,2181.7-24.5,2189-20,2193.5z"/>
<path d="M31.4,2297.5H8.3v-106c0-6.4,5.2-11.6,11.6-11.6l0,0c6.4,0,11.6,5.2,11.6,11.6L31.4,2297.5L31.4,2297.5z"/>
<path d="M92.1,2297.5H49v-52.4c0-11.9,9.7-21.6,21.6-21.6l0,0c11.9,0,21.6,9.7,21.6,21.6L92.1,2297.5L92.1,2297.5z"/>
<path class="st36" d="M774.8,2211l-10.8-0.6c-6.8-0.4-12-10-13.9-15.5c-2.7-7.7-5-16.3-11.5-21.9c-5.4-4.6-12.3-7.2-19.3-7.2h-81.2
	c-16.4,0-29.7,13.3-29.7,29.7c-1.9,23.2-21.6,16.2-21.6,29v32.8c0,12.7,10.3,23.1,23.1,23.1H784c12.7,0,22.2-4,22.2-16.7l0.9-18.8
	C807.1,2232.1,808.5,2211,774.8,2211z"/>
<circle cx="635.7" cy="2279.4" r="22.5"/>
<circle cx="758.5" cy="2279.4" r="22.5"/>
<path d="M542,2265.9h-71.8c-1.9,0-3.4-1.5-3.4-3.4l0,0c0-1.9,1.5-3.4,3.4-3.4H542c1.9,0,3.4,1.5,3.4,3.4l0,0
	C545.4,2264.4,543.8,2265.9,542,2265.9z"/>
<path d="M460.6,2265.9h-5.5c-1.9,0-3.4-1.5-3.4-3.4l0,0c0-1.9,1.5-3.4,3.4-3.4h5.5c1.9,0,3.4,1.5,3.4,3.4l0,0
	C463.9,2264.4,462.4,2265.9,460.6,2265.9z"/>
<path d="M563.7,2241.2h-78.9c-1.9,0-3.4-1.5-3.4-3.4l0,0c0-1.9,1.5-3.4,3.4-3.4h78.9c1.9,0,3.4,1.5,3.4,3.4l0,0
	C567.1,2239.7,565.6,2241.2,563.7,2241.2z"/>
<path d="M471.5,2217.2h-31.9c-1.9,0-3.4-1.5-3.4-3.4l0,0c0-1.9,1.5-3.4,3.4-3.4h31.9c1.9,0,3.4,1.5,3.4,3.4l0,0
	C474.8,2215.7,473.3,2217.2,471.5,2217.2z"/>
<path d="M539.8,2217.2h-55c-1.9,0-3.4-1.5-3.4-3.4l0,0c0-1.9,1.5-3.4,3.4-3.4h55c1.9,0,3.4,1.5,3.4,3.4l0,0
	C543.2,2215.7,541.7,2217.2,539.8,2217.2z"/>
</svg>
