<?xml version="1.0" encoding="utf-8"?>
<!-- Generator: Adobe Illustrator 22.0.1, SVG Export Plug-In . SVG Version: 6.00 Build 0)  -->
<svg version="1.1" xmlns="http://www.w3.org/2000/svg" xmlns:xlink="http://www.w3.org/1999/xlink" x="0px" y="0px"
	 viewBox="0 0 195.6 302.7" style="enable-background:new 0 0 195.6 302.7;" xml:space="preserve">
<style type="text/css">
	.st0{fill:url(#SVGID_1_);}
	.st1{fill:#673F1B;}
	.st2{opacity:0.41;fill:#723817;}
	.st3{fill:url(#SVGID_2_);}
	.st4{fill:url(#SVGID_3_);}
	.st5{font-family:'PlantagenetCherokee';}
	.st6{font-size:29.6602px;}
	.st7{fill:url(#SVGID_4_);}
	.st8{fill:#F8D2AC;stroke:#502F14;stroke-miterlimit:10;}
	.st9{fill:#F27755;}
	.st10{fill:#CD4E48;}
	.st11{fill:#CC5336;}
	.st12{fill:url(#SVGID_5_);}
	.st13{fill:none;stroke:#CD4E48;stroke-width:2;stroke-linecap:round;stroke-miterlimit:10;}
	.st14{fill:#F0EFEF;}
	.st15{fill:#392914;}
	.st16{fill:#E2E2E2;}
	.st17{fill:url(#SVGID_6_);}
	.st18{fill:url(#SVGID_7_);}
	.st19{fill:#EFAD9E;}
	.st20{fill:#C74C38;}
	.st21{fill:#582811;}
	.st22{fill:#FFFFFF;}
	.st23{opacity:0.327;fill:#8750A0;}
	.st24{fill:#D68B7F;}
	.st25{fill:none;stroke:#392914;stroke-width:2;stroke-linecap:round;stroke-miterlimit:10;}
	.st26{fill:none;stroke:#502F14;stroke-miterlimit:10;}
	.st27{fill:url(#SVGID_8_);}
	.st28{fill:url(#SVGID_9_);}
	.st29{fill:#0F1013;}
	.st30{opacity:0.19;}
	.st31{fill:#FBF9FC;}
	.st32{fill:url(#SVGID_10_);}
	.st33{fill:url(#SVGID_11_);}
	.st34{fill:#54A5D3;}
	.st35{fill:#392812;}
	.st36{fill:#F1BAA5;}
	.st37{fill:#2278B3;}
	.st38{opacity:0.5;fill:#D28B6B;}
	.st39{fill:#8A2727;}
	.st40{fill:#B63030;}
	.st41{fill:none;stroke:#000000;stroke-linecap:round;stroke-miterlimit:10;}
</style>
<g id="Layer_1">
	<linearGradient id="SVGID_1_" gradientUnits="userSpaceOnUse" x1="-257.1849" y1="-1.091394e-11" x2="-257.1849" y2="300.1706">
		<stop  offset="0" style="stop-color:#D4975D"/>
		<stop  offset="1" style="stop-color:#BA8351"/>
	</linearGradient>
	<path class="st0" d="M-165.5,5.7l2.1-5.7h-35.3l-2.3,14.1L-203.2,0h-7.5l-0.8,7.7l-1.2-7.7h-101.6v11.6L-315.7,0H-355v280.3
		l16.1,0.4c-6.5,2.6,3.4,22,3.4,22h176.1V10l-1.5-7.9L-165.5,5.7z"/>
	<text transform="matrix(1 0 0 1 -322.3329 49.972)" class="st1 st5 st6">WANTED</text>
	<path class="st2" d="M-344.5,292.4l3.1-8.1h4.8c0,0-5.3,5.1,1.1,18.5"/>
	<linearGradient id="SVGID_2_" gradientUnits="userSpaceOnUse" x1="-337.315" y1="283.0415" x2="-345.8599" y2="292.2228">
		<stop  offset="0" style="stop-color:#C18955"/>
		<stop  offset="0.1095" style="stop-color:#C88E58"/>
		<stop  offset="0.2937" style="stop-color:#D0945C"/>
		<stop  offset="0.4943" style="stop-color:#D4975D"/>
		<stop  offset="0.7902" style="stop-color:#C28955"/>
		<stop  offset="1" style="stop-color:#BA8351"/>
	</linearGradient>
	<path class="st3" d="M-338.9,280.7l-16.1-0.4l19.5,22.4C-335.5,302.7-345.4,283.3-338.9,280.7z"/>
	<linearGradient id="SVGID_3_" gradientUnits="userSpaceOnUse" x1="97.7891" y1="-1.000444e-11" x2="97.7891" y2="300.1706">
		<stop  offset="0" style="stop-color:#D4975D"/>
		<stop  offset="1" style="stop-color:#BA8351"/>
	</linearGradient>
	<path class="st4" d="M189.5,5.7l2.1-5.7h-35.3l-2.3,14.1L151.7,0h-7.5l-0.8,7.7L142.3,0H40.6v11.6L39.3,0H0v280.3l16.1,0.4
		c-6.5,2.6,3.4,22,3.4,22h176.1V10l-1.5-7.9L189.5,5.7z"/>
	<text transform="matrix(1 0 0 1 32.6411 49.972)" class="st1 st5 st6">WANTED</text>
	<path class="st2" d="M10.5,292.4l3.1-8.1h4.8c0,0-5.3,5.1,1.1,18.5"/>
	<linearGradient id="SVGID_4_" gradientUnits="userSpaceOnUse" x1="17.659" y1="283.0415" x2="9.1141" y2="292.2228">
		<stop  offset="0" style="stop-color:#C18955"/>
		<stop  offset="0.1095" style="stop-color:#C88E58"/>
		<stop  offset="0.2937" style="stop-color:#D0945C"/>
		<stop  offset="0.4943" style="stop-color:#D4975D"/>
		<stop  offset="0.7902" style="stop-color:#C28955"/>
		<stop  offset="1" style="stop-color:#BA8351"/>
	</linearGradient>
	<path class="st7" d="M16.1,280.7L0,280.3l19.5,22.4C19.5,302.7,9.6,283.3,16.1,280.7z"/>
	<path class="st8" d="M-175.6,231.1h-163.2c-2.5,0-4.6-2-4.6-4.6V68.1c0-2.5,2-4.6,4.6-4.6h163.2c2.5,0,4.6,2,4.6,4.6v158.4
		C-171,229.1-173.1,231.1-175.6,231.1z"/>
	<path class="st9" d="M-257.2,192.7L-257.2,192.7c-20.1,0-36.4-16.3-36.4-36.4v-24.6c0-20.1,16.3-36.4,36.4-36.4h0
		c20.1,0,36.4,16.3,36.4,36.4v24.6C-220.7,176.3-237.1,192.7-257.2,192.7z"/>
	<path class="st10" d="M-257.2,158.1L-257.2,158.1c-2.6,0-4.6-2.1-4.6-4.6v-20h9.3v20C-252.5,156-254.6,158.1-257.2,158.1z"/>
	
		<rect x="-259.5" y="103.7" transform="matrix(-8.556943e-10 1 -1 -8.556943e-10 -123.7156 390.6541)" class="st10" width="4.6" height="59.5"/>
	<g>
		<path class="st9" d="M-293.6,149.7c-4.1,0-7.5-3.4-7.5-7.5s3.4-7.5,7.5-7.5"/>
		<path class="st11" d="M-293.6,146.9c-2.6,0-4.7-2.1-4.7-4.7s2.1-4.7,4.7-4.7"/>
	</g>
	<g>
		<path class="st9" d="M-220.7,134.7c4.1,0,7.5,3.4,7.5,7.5s-3.4,7.5-7.5,7.5"/>
		<path class="st11" d="M-220.7,137.5c2.6,0,4.7,2.1,4.7,4.7s-2.1,4.7-4.7,4.7"/>
	</g>
	<linearGradient id="SVGID_5_" gradientUnits="userSpaceOnUse" x1="-247.7952" y1="179.4498" x2="-247.7952" y2="168.6798">
		<stop  offset="0" style="stop-color:#FFD83B"/>
		<stop  offset="0.1765" style="stop-color:#FCCC3C"/>
		<stop  offset="0.499" style="stop-color:#F9B83C"/>
		<stop  offset="0.7838" style="stop-color:#F7AC3C"/>
		<stop  offset="0.9988" style="stop-color:#F7A73C"/>
	</linearGradient>
	<path class="st12" d="M-243.6,169.7v7.6c0,1.1-0.9,2.1-2.1,2.1c-0.6,0-1.1-0.2-1.5-0.6s-0.6-0.9-0.6-1.5v-3.5c-0.2,1-1,1.7-2.1,1.7
		c-0.6,0-1.1-0.2-1.5-0.6c-0.4-0.4-0.6-0.9-0.6-1.5v-4.8h4.2v1.1H-243.6z"/>
	<line class="st13" x1="-274.4" y1="169.2" x2="-240" y2="169.2"/>
	<g>
		<g>
			<path class="st14" d="M-275.1,144.4c4.7,0,8.6-3.8,8.6-8.6h-17.2C-283.7,140.5-279.9,144.4-275.1,144.4z"/>
		</g>
		<path class="st15" d="M-274.9,141.2c3,0,5.4-2.4,5.4-5.4h-10.7C-280.3,138.8-277.9,141.2-274.9,141.2z"/>
	</g>
	<g>
		<g>
			<path class="st14" d="M-239.2,144.4c4.7,0,8.6-3.8,8.6-8.6h-17.2C-247.8,140.5-244,144.4-239.2,144.4z"/>
		</g>
		<path class="st15" d="M-239,141.2c3,0,5.4-2.4,5.4-5.4h-10.7C-244.4,138.8-242,141.2-239,141.2z"/>
	</g>
	<g>
		<path d="M-305.9,216.5v14.6h97.3v-14.6c0-1.8-0.2-3.6-0.6-5.4h-96.1C-305.6,212.9-305.9,214.7-305.9,216.5z"/>
		<path d="M-232.4,192.6H-282c-5.9,0-11.3,2.1-15.4,5.7h80.5C-221.1,194.8-226.5,192.6-232.4,192.6z"/>
		<path d="M-300.9,201.9c-1.3,1.7-2.4,3.6-3.3,5.7h93.9c-0.8-2-1.9-4-3.3-5.7H-300.9z"/>
	</g>
	<path class="st16" d="M-305.2,211.1h96.1c-0.3-1.2-0.7-2.4-1.1-3.6h-93.9C-304.6,208.7-305,209.9-305.2,211.1z"/>
	<path class="st16" d="M-216.9,198.3h-80.5c-1.3,1.1-2.4,2.3-3.4,3.6h87.3C-214.5,200.6-215.7,199.4-216.9,198.3z"/>
	<rect x="-305.9" y="224.7" class="st16" width="97.3" height="3.6"/>
	<rect x="-305.9" y="216.3" class="st16" width="97.3" height="3.6"/>
	<path class="st16" d="M-276.8,192.7v0.9c0,9.3,8,16.7,17.9,16.7h5c9.9,0,17.9-7.5,17.9-16.7v-0.9H-276.8z"/>
	<path class="st9" d="M-256.3,207.6L-256.3,207.6c-9.9,0-17.9-8-17.9-17.9V188c0-4.7,3.8-8.6,8.6-8.6h18.7c4.7,0,8.6,3.8,8.6,8.6
		v1.6C-238.4,199.5-246.4,207.6-256.3,207.6z"/>
	<linearGradient id="SVGID_6_" gradientUnits="userSpaceOnUse" x1="-482.6883" y1="-1.000444e-11" x2="-482.6883" y2="300.1706">
		<stop  offset="0" style="stop-color:#D4975D"/>
		<stop  offset="1" style="stop-color:#BA8351"/>
	</linearGradient>
	<path class="st17" d="M-391,5.7l2.1-5.7h-35.3l-2.3,14.1L-428.7,0h-7.5l-0.8,7.7l-1.2-7.7h-101.6v11.6L-541.2,0h-39.3v280.3
		l16.1,0.4c-6.5,2.6,3.4,22,3.4,22h176.1V10l-1.5-7.9L-391,5.7z"/>
	<text transform="matrix(1 0 0 1 -547.8363 49.972)" class="st1 st5 st6">WANTED</text>
	<path class="st2" d="M-570,292.4l3.1-8.1h4.8c0,0-5.3,5.1,1.1,18.5"/>
	<linearGradient id="SVGID_7_" gradientUnits="userSpaceOnUse" x1="-562.8184" y1="283.0415" x2="-571.3633" y2="292.2228">
		<stop  offset="0" style="stop-color:#C18955"/>
		<stop  offset="0.1095" style="stop-color:#C88E58"/>
		<stop  offset="0.2937" style="stop-color:#D0945C"/>
		<stop  offset="0.4943" style="stop-color:#D4975D"/>
		<stop  offset="0.7902" style="stop-color:#C28955"/>
		<stop  offset="1" style="stop-color:#BA8351"/>
	</linearGradient>
	<path class="st18" d="M-564.4,280.7l-16.1-0.4l19.5,22.4C-561,302.7-570.9,283.3-564.4,280.7z"/>
	<path class="st8" d="M-401.1,231.1h-163.2c-2.5,0-4.6-2-4.6-4.6V68.1c0-2.5,2-4.6,4.6-4.6h163.2c2.5,0,4.6,2,4.6,4.6v158.4
		C-396.5,229.1-398.6,231.1-401.1,231.1z"/>
	<g>
		<polygon class="st19" points="-501.9,231.1 -512.1,231.5 -508.6,202.4 -497.3,203.8 		"/>
		<path class="st20" d="M-497.1,210.8l-13.4-1.6l1.2-10.2c0.4-3.3,3.4-5.7,6.8-5.3l4.5,0.5c1.6,0.2,2.7,1.6,2.5,3.2L-497.1,210.8z"
			/>
	</g>
	<g>
		<polygon class="st19" points="-456.5,230.7 -446.3,231.1 -449.8,202 -461.1,203.4 		"/>
		<path class="st20" d="M-461.4,210.4l13.4-1.6l-1.2-10.2c-0.4-3.3-3.4-5.7-6.8-5.3l-4.5,0.5c-1.6,0.2-2.7,1.6-2.5,3.2L-461.4,210.4
			z"/>
	</g>
	<path class="st21" d="M-469.9,163.7h-17.7c-14.1,0-25.5-11.4-25.5-25.5v-17.7c0-14.1,11.4-25.5,25.5-25.5h17.7
		c14.1,0,25.5,11.4,25.5,25.5v17.7C-444.4,152.4-455.8,163.7-469.9,163.7z"/>
	<path class="st20" d="M-456.9,230.7h-44.4v-25.9c0-5.7,4.6-10.3,10.3-10.3h23.7c5.7,0,10.3,4.6,10.3,10.3V230.7z"/>
	<path class="st19" d="M-479.1,206.5L-479.1,206.5c-4.8,0-8.7-3.9-8.7-8.7v-15.3h17.4v15.3C-470.4,202.6-474.3,206.5-479.1,206.5z"
		/>
	<path class="st19" d="M-478.7,190.2L-478.7,190.2c-16.4,0-29.6-13.3-29.6-29.6v-29.4c0-16.4,13.3-29.6,29.6-29.6h0
		c16.4,0,29.6,13.3,29.6,29.6v29.4C-449.1,176.9-462.4,190.2-478.7,190.2z"/>
	<circle class="st22" cx="-494.8" cy="140.8" r="10.1"/>
	<path class="st23" d="M-491.9,152.4c-1.3,0.2-2.5,0.1-3.6-0.1c1.2,1,2.9,1.6,4.7,1.5c3.2-0.3,5.7-2.7,5.4-5.4c0,0,0,0,0,0
		C-486.3,150.4-488.8,152-491.9,152.4z"/>
	<path class="st23" d="M-463.8,152.4c1.3,0.2,2.5,0.1,3.6-0.1c-1.2,1-2.9,1.6-4.7,1.5c-3.2-0.3-5.7-2.7-5.4-5.4c0,0,0,0,0,0
		C-469.4,150.4-466.9,152-463.8,152.4z"/>
	<path class="st24" d="M-494.8,130.7c-5.6,0-10.1,4.5-10.1,10.1h20.2C-484.7,135.3-489.3,130.7-494.8,130.7z"/>
	<circle class="st15" cx="-494.8" cy="143.4" r="1.7"/>
	<circle class="st22" cx="-461.8" cy="140.8" r="10.1"/>
	<path class="st24" d="M-461.8,130.7c-5.6,0-10.1,4.5-10.1,10.1h20.2C-451.7,135.3-456.2,130.7-461.8,130.7z"/>
	<circle class="st15" cx="-461.8" cy="143.4" r="1.7"/>
	<ellipse class="st21" cx="-478.7" cy="112.5" rx="21.8" ry="13.4"/>
	<path class="st25" d="M-485.4,165.7c0,0,5.7-5.7,12.5,0"/>
	<path class="st21" d="M-493.2,129.5h-6.7c-1.2,0-2.2-1-2.2-2.2l0,0c0-1.2,1-2.2,2.2-2.2h6.7c1.2,0,2.2,1,2.2,2.2l0,0
		C-491,128.5-492,129.5-493.2,129.5z"/>
	<path class="st21" d="M-456.8,129.8h-6.7c-1.2,0-2.2-1-2.2-2.2v0c0-1.2,1-2.2,2.2-2.2h6.7c1.2,0,2.2,1,2.2,2.2v0
		C-454.6,128.9-455.6,129.8-456.8,129.8z"/>
	<path class="st26" d="M-401.1,231.1h-163.2c-2.5,0-4.6-2-4.6-4.6V68.1c0-2.5,2-4.6,4.6-4.6h163.2c2.5,0,4.6,2,4.6,4.6v158.4
		C-396.5,229.1-398.6,231.1-401.1,231.1z"/>
	<linearGradient id="SVGID_8_" gradientUnits="userSpaceOnUse" x1="-959.2307" y1="-1.000444e-11" x2="-959.2307" y2="300.1706">
		<stop  offset="0" style="stop-color:#D4975D"/>
		<stop  offset="1" style="stop-color:#BA8351"/>
	</linearGradient>
	<path class="st27" d="M-867.5,5.7l2.1-5.7h-35.3l-2.3,14.1L-905.3,0h-7.5l-0.8,7.7l-1.2-7.7h-101.6v11.6l-1.4-11.6h-39.3v280.3
		l16.1,0.4c-6.5,2.6,3.4,22,3.4,22h176.1V10l-1.5-7.9L-867.5,5.7z"/>
	<text transform="matrix(1 0 0 1 -1024.3788 49.972)" class="st1 st5 st6">WANTED</text>
	<path class="st2" d="M-1046.5,292.4l3.1-8.1h4.8c0,0-5.3,5.1,1.1,18.5"/>
	<linearGradient id="SVGID_9_" gradientUnits="userSpaceOnUse" x1="-1039.3608" y1="283.0415" x2="-1047.9058" y2="292.2228">
		<stop  offset="0" style="stop-color:#C18955"/>
		<stop  offset="0.1095" style="stop-color:#C88E58"/>
		<stop  offset="0.2937" style="stop-color:#D0945C"/>
		<stop  offset="0.4943" style="stop-color:#D4975D"/>
		<stop  offset="0.7902" style="stop-color:#C28955"/>
		<stop  offset="1" style="stop-color:#BA8351"/>
	</linearGradient>
	<path class="st28" d="M-1040.9,280.7l-16.1-0.4l19.5,22.4C-1037.5,302.7-1047.4,283.3-1040.9,280.7z"/>
	<path class="st8" d="M-877.7,231.1h-163.2c-2.5,0-4.6-2-4.6-4.6V68.1c0-2.5,2-4.6,4.6-4.6h163.2c2.5,0,4.6,2,4.6,4.6v158.4
		C-873.1,229.1-875.1,231.1-877.7,231.1z"/>
	<path class="st26" d="M-877.7,231.1h-163.2c-2.5,0-4.6-2-4.6-4.6V68.1c0-2.5,2-4.6,4.6-4.6h163.2c2.5,0,4.6,2,4.6,4.6v158.4
		C-873.1,229.1-875.1,231.1-877.7,231.1z"/>
</g>
<g id="Layer_2">
	<path class="st29" d="M-932.6,231.4h-52.7v-34.4V192c0-7.4,6-13.4,13.4-13.4h25.9c7.4,0,13.4,6,13.4,13.4V231.4z"/>
	<rect x="-968.2" y="178.6" class="st22" width="18.4" height="52.7"/>
	<path d="M-958.3,189.2l2.8-2.8c0.6-0.6,0.2-1.7-0.7-1.7h-5.6c-0.9,0-1.3,1.1-0.7,1.7l2.8,2.8C-959.3,189.6-958.7,189.6-958.3,189.2
		z"/>
	<path class="st30" d="M-964.8,178.2l4.3,6.3l-6.1,3.8c-0.6,0.5-1.5,0-1.6-0.9l1.1-8.2L-964.8,178.2z"/>
	<path class="st30" d="M-953.4,179.1l-4,5.5l6.1,3.8c0.6,0.5,1.5,0,1.6-0.9l-1.3-7.4L-953.4,179.1z"/>
	<path class="st31" d="M-964.8,177.8l4.3,6.8l-6.1,3.2c-0.6,0.4-1.5,0-1.6-0.7l1.1-8.4L-964.8,177.8z"/>
	<path class="st31" d="M-953.2,177.8l-4.3,6.8l6.1,3.2c0.6,0.4,1.5,0,1.6-0.7l-1.1-8.4L-953.2,177.8z"/>
	<linearGradient id="SVGID_10_" gradientUnits="userSpaceOnUse" x1="-708.8188" y1="-1.000444e-11" x2="-708.8188" y2="300.1706">
		<stop  offset="0" style="stop-color:#D4975D"/>
		<stop  offset="1" style="stop-color:#BA8351"/>
	</linearGradient>
	<path class="st32" d="M-617.1,5.7L-615,0h-35.3l-2.3,14.1L-654.9,0h-7.5l-0.8,7.7l-1.2-7.7H-766v11.6L-767.3,0h-39.3v280.3
		l16.1,0.4c-6.5,2.6,3.4,22,3.4,22H-611V10l-1.5-7.9L-617.1,5.7z"/>
	<text transform="matrix(1 0 0 1 -773.9669 49.972)" class="st1 st5 st6">WANTED</text>
	<path class="st2" d="M-796.1,292.4l3.1-8.1h4.8c0,0-5.3,5.1,1.1,18.5"/>
	<linearGradient id="SVGID_11_" gradientUnits="userSpaceOnUse" x1="-788.9489" y1="283.0415" x2="-797.4938" y2="292.2228">
		<stop  offset="0" style="stop-color:#C18955"/>
		<stop  offset="0.1095" style="stop-color:#C88E58"/>
		<stop  offset="0.2937" style="stop-color:#D0945C"/>
		<stop  offset="0.4943" style="stop-color:#D4975D"/>
		<stop  offset="0.7902" style="stop-color:#C28955"/>
		<stop  offset="1" style="stop-color:#BA8351"/>
	</linearGradient>
	<path class="st33" d="M-790.5,280.7l-16.1-0.4l19.5,22.4C-787.1,302.7-797,283.3-790.5,280.7z"/>
	<path class="st8" d="M-627.2,231.1h-163.2c-2.5,0-4.6-2-4.6-4.6V68.1c0-2.5,2-4.6,4.6-4.6h163.2c2.5,0,4.6,2,4.6,4.6v158.4
		C-622.7,229.1-624.7,231.1-627.2,231.1z"/>
	<path class="st34" d="M-708.8,192c-15.3,0-27.7,9.6-27.7,21.4h55.3C-681.2,201.6-693.5,192-708.8,192z"/>
	<path class="st35" d="M-744.3,145.6V114c0-6.6,5.4-12,12-12h6.2c6.6,0,12,5.4,12,12v31.5c0,6.6-5.4,12-12,12h-6.2
		C-739,157.6-744.3,152.2-744.3,145.6z"/>
	<path class="st35" d="M-702.3,145.6V114c0-6.6,5.4-12,12-12h6.2c6.6,0,12,5.4,12,12v31.5c0,6.6-5.4,12-12,12h-6.2
		C-696.9,157.6-702.3,152.2-702.3,145.6z"/>
	<rect x="-688.7" y="213.4" class="st36" width="7.6" height="18.1"/>
	<rect x="-736.5" y="213.4" class="st36" width="7.6" height="18.1"/>
	<path class="st37" d="M-688.7,231.5v-18.8c0-11.4-9-20.7-20.1-20.7s-20.1,9.3-20.1,20.7v18.8H-688.7z"/>
	<path class="st36" d="M-708.8,201.9L-708.8,201.9c-3.6,0-6.5-2.9-6.5-6.5v-12.2c0-3.6,2.9-6.5,6.5-6.5l0,0c3.6,0,6.5,2.9,6.5,6.5
		v12.2C-702.3,199-705.2,201.9-708.8,201.9z"/>
	<path class="st38" d="M-708.8,176.8L-708.8,176.8c-3.6,0-6.5,2.9-6.5,6.5v5.4c2.1,0.5,4.2,0.8,6.5,0.8h0c2.2,0,4.4-0.3,6.5-0.8
		v-5.4C-702.3,179.7-705.2,176.8-708.8,176.8z"/>
	<path class="st36" d="M-708.8,187.1L-708.8,187.1c-15.3,0-27.7-12.4-27.7-27.7v-35.9c0-15.3,12.4-27.7,27.7-27.7h0
		c15.3,0,27.7,12.4,27.7,27.7v35.9C-681.2,174.7-693.5,187.1-708.8,187.1z"/>
	<path class="st35" d="M-696.6,133.6H-721c-10,0-18.1-8.1-18.1-18.1v-5c0-10,8.1-18.1,18.1-18.1h24.3c10,0,18.1,8.1,18.1,18.1v5
		C-678.5,125.5-686.6,133.6-696.6,133.6z"/>
	<path class="st35" d="M-724.6,148L-724.6,148c-0.9,0-1.6-0.7-1.6-1.6v-5.1c0-0.9,0.7-1.6,1.6-1.6l0,0c0.9,0,1.6,0.7,1.6,1.6v5.1
		C-723,147.3-723.7,148-724.6,148z"/>
	<path class="st35" d="M-691.7,148L-691.7,148c-0.9,0-1.6-0.7-1.6-1.6v-5.1c0-0.9,0.7-1.6,1.6-1.6l0,0c0.9,0,1.6,0.7,1.6,1.6v5.1
		C-690.1,147.3-690.8,148-691.7,148z"/>
	<g>
		<path class="st39" d="M-714.5,164.1c1.5-1.4,3.5-2.2,5.7-2.2s4.2,0.9,5.7,2.2c1.5-1.3,2.4-3.2,2.7-5.2h-16.8
			C-716.9,161-716,162.8-714.5,164.1z"/>
		<path class="st40" d="M-714.5,164.1c1.5,1.4,3.5,2.2,5.7,2.2s4.2-0.9,5.7-2.2c-1.5-1.4-3.5-2.2-5.7-2.2S-713,162.7-714.5,164.1z"
			/>
		<path class="st22" d="M-700.4,157.6h-16.8c0,0.2-0.1,0.4-0.1,0.6c0,0.3,0.1,0.5,0.1,0.7h16.8c0-0.2,0.1-0.5,0.1-0.7
			C-700.3,158-700.4,157.8-700.4,157.6z"/>
	</g>
	<path class="st35" d="M-991.1,137.7v-15.8c0-6.6,5.4-12,12-12h2.8c6.6,0,12,5.4,12,12v15.8c0,6.6-5.4,12-12,12h-2.8
		C-985.7,149.7-991.1,144.3-991.1,137.7z"/>
	<path class="st35" d="M-953.7,137.9v-15.8c0-6.6,5.4-12,12-12h2.8c6.6,0,12,5.4,12,12v15.8c0,6.6-5.4,12-12,12h-2.8
		C-948.4,149.9-953.7,144.6-953.7,137.9z"/>
	<path class="st36" d="M-959,184.7L-959,184.7c-3.2,0-5.8-2.6-5.8-5.8v-10.8c0-3.2,2.6-5.8,5.8-5.8l0,0c3.2,0,5.8,2.6,5.8,5.8V179
		C-953.2,182.2-955.8,184.7-959,184.7z"/>
	<path class="st38" d="M-959,162.4L-959,162.4c-3.2,0-5.8,2.6-5.8,5.8v4.8c1.8,0.4,3.8,0.7,5.8,0.7h0c2,0,3.9-0.3,5.8-0.7v-4.8
		C-953.2,165-955.8,162.4-959,162.4z"/>
	<path class="st36" d="M-959,171.8L-959,171.8c-13.6,0-24.6-11-24.6-24.6v-24.8c0-13.6,11-24.6,24.6-24.6h0
		c13.6,0,24.6,11,24.6,24.6v24.8C-934.4,160.8-945.4,171.8-959,171.8z"/>
	<path class="st26" d="M-627.2,231.1h-163.2c-2.5,0-4.6-2-4.6-4.6V68.1c0-2.5,2-4.6,4.6-4.6h163.2c2.5,0,4.6,2,4.6,4.6v158.4
		C-622.7,229.1-624.7,231.1-627.2,231.1z"/>
	<path class="st35" d="M-943.6,122.9h-35c-4.2,0-7.6-3.4-7.6-7.6v0c0-13,10.6-23.6,23.6-23.6h37c2,0,3.6,1.6,3.6,3.6v6.1
		C-922.1,113.2-931.7,122.9-943.6,122.9z"/>
	<path d="M-960.8,190.8l-2.1,29.6c0,0.4,0.1,0.8,0.4,1.1l2.6,2.6c0.5,0.5,1.4,0.5,1.9,0l2.6-2.6c0.3-0.3,0.4-0.7,0.4-1.1l-2.6-29.6
		c-0.1-0.7-0.6-1.2-1.4-1.2h-0.5C-960.2,189.5-960.8,190.1-960.8,190.8z"/>
	<path class="st41" d="M-966,155.3h10.8c0,0,3.1,0,3.4-1.5"/>
	<path class="st35" d="M-973.4,141.8L-973.4,141.8c-1,0-1.8-0.8-1.8-1.8v-4.1c0-1,0.8-1.8,1.8-1.8l0,0c1,0,1.8,0.8,1.8,1.8v4.1
		C-971.6,141-972.4,141.8-973.4,141.8z"/>
	<path class="st35" d="M-943.1,141.8L-943.1,141.8c-1,0-1.8-0.8-1.8-1.8v-4.1c0-1,0.8-1.8,1.8-1.8l0,0c1,0,1.8,0.8,1.8,1.8v4.1
		C-941.3,141-942.1,141.8-943.1,141.8z"/>
</g>
</svg>
