<?xml version="1.0" encoding="utf-8"?>
<!-- Generator: Adobe Illustrator 22.0.1, SVG Export Plug-In . SVG Version: 6.00 Build 0)  -->
<svg version="1.1" id="Layer_1" xmlns="http://www.w3.org/2000/svg" xmlns:xlink="http://www.w3.org/1999/xlink" x="0px" y="0px"
	 viewBox="0 0 108.8 85.8" style="enable-background:new 0 0 108.8 85.8;" xml:space="preserve">
<style type="text/css">
	.st0{display:none;}
	.st1{display:inline;fill:#B0B0D1;}
	.st2{display:inline;opacity:0.65;fill:#F9F9FA;enable-background:new    ;}
	.st3{display:inline;fill:#FFFFFF;}
	.st4{display:inline;fill:url(#SVGID_1_);}
	.st5{display:inline;fill:#DDDDDD;}
	.st6{display:inline;fill:#F7F7F7;}
	.st7{display:inline;}
	.st8{opacity:0.6;fill:#F4F4F5;enable-background:new    ;}
	.st9{fill:none;stroke:#FFFFFF;stroke-width:5;stroke-miterlimit:10;}
	.st10{fill:none;stroke:#FFFFFF;stroke-width:5;stroke-linejoin:round;stroke-miterlimit:10;}
	.st11{fill:#FFFFFF;}
	.st12{fill:none;stroke:#FFFFFF;stroke-width:3;stroke-miterlimit:10;}
	.st13{fill:none;stroke:#FFFFFF;stroke-width:5;stroke-linecap:round;stroke-linejoin:round;stroke-miterlimit:10;}
	.st14{fill:#FFFFFF;stroke:#FFFFFF;stroke-width:5;stroke-miterlimit:10;}
</style>
<g id="Layer_1_1_" class="st0">
	<rect x="113.5" y="-116.1" class="st1" width="398.1" height="398.1"/>
	<path class="st2" d="M450.4,33.7c-2.3-11.7-10.8-20.4-21-20.4h-35.2V-19c0-11.7-9.5-21.2-21.2-21.2H224.1
		c-11.7,0-21.2,9.5-21.2,21.2v227.7c0,11.7,9.5,21.2,21.2,21.2h148.8c11.7,0,21.2-9.5,21.2-21.2v-45.5h35.2
		c10.7,0,19.6-9.6,21.3-22.2c0.2-1.1,0.3-2.2,0.3-3.4V38.4C450.9,36.7,450.7,35.1,450.4,33.7z M429.6,126.4
		c0,7.3-4.8,13.3-10.8,13.3h-24.7V35.8h24.7c6,0,10.8,5.9,10.8,13.3V126.4z"/>
	<circle class="st3" cx="254" cy="-7.5" r="6.2"/>
	
		<linearGradient id="SVGID_1_" gradientUnits="userSpaceOnUse" x1="298.5" y1="112.1" x2="298.5" y2="-112.1216" gradientTransform="matrix(1 0 0 -1 0 104.6)">
		<stop  offset="0" style="stop-color:#FFCC4C"/>
		<stop  offset="1" style="stop-color:#FEBF4B"/>
	</linearGradient>
	<path class="st4" d="M365.5,217.5h-134c-7.5,0-13.6-6.1-13.6-13.6V6.1c0-7.5,6.1-13.6,13.6-13.6h134c7.5,0,13.6,6.1,13.6,13.6V204
		C379.1,211.4,373,217.5,365.5,217.5z"/>
	<circle class="st5" cx="240.6" cy="-13.6" r="33"/>
	<circle class="st5" cx="276.3" cy="-23.3" r="23.4"/>
	<circle class="st5" cx="311.2" cy="-13.3" r="23.4"/>
	<circle class="st5" cx="360.8" cy="-18.2" r="28.2"/>
	<circle class="st6" cx="311.2" cy="-22.4" r="23.4"/>
	<circle class="st6" cx="332.6" cy="-32.4" r="11.7"/>
	<path class="st6" d="M252.9-32.4c0-1.5,0.1-2.9,0.4-4.3h-42.6c-2,4.2-3.1,9-3.1,14c0,18.2,14.8,33,33,33c13.6,0,25.2-8.2,30.3-19.9
		C260.6-12.1,252.9-21.3,252.9-32.4z"/>
	<path class="st6" d="M273.6-22.7c0,4.6-1,9.1-2.7,13.1c1.7,0.4,3.5,0.6,5.4,0.6c12.9,0,23.4-10.5,23.4-23.4c0-1.5-0.1-2.9-0.4-4.3
		h-28.8C272.5-32.5,273.6-27.7,273.6-22.7z"/>
	<path class="st6" d="M270.5-36.7h-17.2c-0.3,1.4-0.4,2.8-0.4,4.3c0,11.1,7.7,20.3,18,22.7c1.7-4,2.7-8.4,2.7-13.1
		C273.6-27.7,272.5-32.5,270.5-36.7z"/>
	<path class="st6" d="M387.3-36.7h-53.1c-1.1,3-1.6,6.1-1.6,9.5c0,15.6,12.6,28.2,28.2,28.2C376.4,1,389-11.6,389-27.2
		C389-30.6,388.4-33.7,387.3-36.7z"/>
	<path class="st6" d="M392-31.3c0,0-0.1-0.1-0.2-0.2C391.8-31.5,391.8-31.4,392-31.3L392-31.3z"/>
	<path class="st6" d="M387.3-36.7H270.5c-2.4-5-5.9-9.3-10.3-12.6c-3.5,3.3-6,7.7-6.9,12.6h-42.6c0.5-1.1,1.1-2.2,1.8-3.3
		c4.2-4.6,12.7-12.3,22.7-12.3h55.4c0,0,6.7,0,16,0H362c13.2,0,23.9,13.4,25.3,15.3C387.3-36.9,387.3-36.8,387.3-36.7z"/>
	<path class="st6" d="M253.3-36.7h17.2c-2.3-5-5.9-9.3-10.3-12.6C256.7-46,254.2-41.6,253.3-36.7z"/>
	<g class="st7">
		<path class="st8" d="M248.9,185.7L248.9,185.7c-6,0-10.8-4.8-10.8-10.8v-134c0-6,4.8-10.8,10.8-10.8l0,0c6,0,10.8,4.8,10.8,10.8
			v134C259.7,180.9,254.8,185.7,248.9,185.7z"/>
		<path class="st8" d="M299.1,185.7L299.1,185.7c-6,0-10.8-4.8-10.8-10.8v-134c0-6,4.8-10.8,10.8-10.8l0,0c6,0,10.8,4.8,10.8,10.8
			v134C309.9,180.9,305.1,185.7,299.1,185.7z"/>
		<path class="st8" d="M348.2,182.4L348.2,182.4c-6,0-10.8-4.8-10.8-10.8v-134c0-6,4.8-10.8,10.8-10.8l0,0c6,0,10.8,4.8,10.8,10.8
			v134C359,177.6,354.1,182.4,348.2,182.4z"/>
	</g>
</g>
<g>
	<path class="st9" d="M364.7,75.1h-57.1c-6.9,0-12.5-5.6-12.5-12.5V25.9c0-18.2,14.8-33,33-33h16.2c18.2,0,33,14.8,33,33v36.6
		C377.2,69.4,371.6,75.1,364.7,75.1z"/>
	<rect x="295" y="23.7" class="st10" width="82.2" height="26.1"/>
	<circle class="st9" cx="307.8" cy="61.8" r="4.5"/>
	<circle class="st9" cx="366.9" cy="61.8" r="4.5"/>
	<path class="st9" d="M360.5,81.6h-48.3c-1.1,0-1.9-1.5-1.9-3.2l0,0c0-1.9,0.9-3.2,1.9-3.2h48.3c1.1,0,1.9,1.5,1.9,3.2l0,0
		C362.4,80.2,361.5,81.6,360.5,81.6z"/>
	<path class="st11" d="M348.4,58.1h-22.1c-0.3,0-0.6,0.3-0.6,0.6l0,0c0,0.3,0.3,0.6,0.6,0.6h22.1c0.3,0,0.6-0.3,0.6-0.6l0,0
		C349,58.4,348.7,58.1,348.4,58.1z"/>
	<path class="st11" d="M348.4,60.5h-22.1c-0.3,0-0.6,0.3-0.6,0.6l0,0c0,0.3,0.3,0.6,0.6,0.6h22.1c0.3,0,0.6-0.3,0.6-0.6l0,0
		C349,60.7,348.7,60.5,348.4,60.5z"/>
	<path class="st11" d="M348.4,63.1h-22.1c-0.3,0-0.6,0.3-0.6,0.6l0,0c0,0.3,0.3,0.6,0.6,0.6h22.1c0.3,0,0.6-0.3,0.6-0.6l0,0
		C349,63.4,348.7,63.1,348.4,63.1z"/>
	<path class="st9" d="M316,108.2L316,108.2c0.3,0.1,0.6,0,0.7-0.3l5.7-15.4c0.1-0.3,0-0.6-0.3-0.7l0,0c-0.3-0.1-0.6,0-0.7,0.3
		l-5.7,15.4C315.5,107.8,315.7,108.1,316,108.2z"/>
	<path class="st12" d="M319.5,99.8h33.4"/>
	<path class="st12" d="M317.9,106.5h36.7"/>
	<path class="st12" d="M349.9,93.1h-27.4"/>
	<path class="st9" d="M356.3,108.2L356.3,108.2c-0.3,0.1-0.6,0-0.7-0.3l-5.7-15.4c-0.1-0.3,0-0.6,0.3-0.7l0,0c0.3-0.1,0.6,0,0.7,0.3
		l5.7,15.4C356.8,107.8,356.6,108.1,356.3,108.2z"/>
</g>
<g>
	<g>
		<path class="st10" d="M444.1,76.2l14.1-2.1c0.5-0.1,0.1-5.6,0.1-6.3c-0.1-2.7,0.7-5.1,1.3-7.6c1-4.1,0.3-8.4-0.4-12.6
			c-0.3-1.8-1.5-4.1-2.8-5.3c-1.9-1.8-4.6-3.2-7.3-2.8s-5.3,1.6-7.1,3.6c-2.6,2.8-2.7,7.1-2.5,10.7c0.2,4.7,1.6,9.2,2.6,13.7
			C442.8,70.4,443.4,73.3,444.1,76.2z"/>
		<path class="st13" d="M446.2,83.6c0.8,2.9,1.7,5.7,2.7,8.5c0.1,0.3,0.3,0.7,0.5,0.9c2.1,3.4,7,3.8,9.8,0.8
			c3.2-3.3,1.2-7.2,0.5-12.2L446.2,83.6z"/>
	</g>
	<g>
		<path class="st10" d="M495.2,46.8c1-4.5,2.4-9,2.6-13.7c0.2-3.6,0.1-7.9-2.5-10.7c-1.8-2-4.4-3.2-7.1-3.6c-2.7-0.4-5.4,1-7.3,2.8
			c-1.3,1.2-2.5,3.5-2.8,5.3c-0.7,4.2-1.4,8.5-0.4,12.6c0.6,2.5,1.4,4.9,1.3,7.6c0,0.7-0.4,6.2,0.1,6.3l14.1,2.1
			C493.9,52.6,494.5,49.7,495.2,46.8z"/>
		<path class="st13" d="M477.6,60.9c-0.7,5-2.7,8.9,0.5,12.2c2.8,3,7.7,2.6,9.8-0.8c0.2-0.2,0.4-0.6,0.5-0.9c1-2.8,1.9-5.6,2.7-8.5
			L477.6,60.9z"/>
	</g>
</g>
<g>
	<path class="st14" d="M188.1,25.2h-9.5c-0.2,0-0.3-0.1-0.3-0.3l0,0c0-0.2,0.1-0.3,0.3-0.3h9.5V25.2z"/>
	<path class="st14" d="M205.9,25.2h9.4c0.2,0,0.3-0.1,0.3-0.3l0,0c0-0.2-0.1-0.3-0.3-0.3h-9.4V25.2z"/>
	<circle class="st9" cx="196.9" cy="25.2" r="8.9"/>
	<circle class="st11" cx="196.9" cy="25.2" r="3.2"/>
	<path class="st9" d="M196.4,66.7h1.4c1.8,0,3.6,0.4,5.2,1v-6.5c0-3.2-2.6-5.9-5.9-5.9c-3.3,0-5.9,2.6-5.9,5.9v6.5
		C192.8,67,194.6,66.7,196.4,66.7z"/>
	<path class="st9" d="M197.8,66.7h-1.4c-1.4,0-2.8,0.2-4,0.6v16.1c0,2,1.6,3.6,3.6,3.6h2.3c2,0,3.6-1.6,3.6-3.6V67.3
		C200.6,66.9,199.2,66.7,197.8,66.7z"/>
	<path class="st9" d="M197.1,42.9L197.1,42.9c-1.1,0-2-0.9-2-2v-5c0-1.1,0.9-2,2-2l0,0c1.1,0,2,0.9,2,2v5
		C199.1,42,198.2,42.9,197.1,42.9z"/>
	<path class="st9" d="M201.9,67.3v7.6h6.4c1.9,0,3.5-1.6,3.5-3.5V48.5c0-6.1-4.9-11-11-11H199V36c0-1.1-0.9-2-2-2c-1.1,0-2,0.9-2,2
		v1.5h-1.8c-6.1,0-11,4.9-11,11v22.9c0,1.9,1.6,3.5,3.5,3.5h6.7v-7.6"/>
</g>
<g>
	<path class="st9" d="M106.3,52.6c0,5-1.7,9.6-4.5,12.9c-2.8,3.3-6.7,5.4-10.9,5.4l-72.8,0.2c-8.5,0-15.5-8.2-15.6-18.2
		c0-5,1.7-9.6,4.5-12.9s6.7-5.4,10.9-5.4h4.6V20.9c0-10,6.9-18.3,15.5-18.3l32.6-0.1c8.5,0,15.5,8.2,15.6,18.2v13.7h4.6
		C99.3,34.4,106.3,42.6,106.3,52.6z"/>
	<path class="st9" d="M24,54.6h-9.7c-1.1,0-1.9-0.9-1.9-1.9l0,0c0-1.1,0.9-1.9,1.9-1.9H24c1.1,0,1.9,0.9,1.9,1.9l0,0
		C25.9,53.7,25.1,54.6,24,54.6z"/>
	<path class="st9" d="M92.9,54.6h-9.7c-1.1,0-1.9-0.9-1.9-1.9l0,0c0-1.1,0.9-1.9,1.9-1.9h9.7c1.1,0,1.9,0.9,1.9,1.9l0,0
		C94.8,53.7,93.9,54.6,92.9,54.6z"/>
	<path class="st9" d="M14.5,71v6.3c0,3.3,2.7,6,6,6h2.1c3.3,0,6-2.7,6-6V71H14.5z"/>
	<path class="st9" d="M78.6,71v6.3c0,3.3,2.7,6,6,6h2.1c3.3,0,6-2.7,6-6V71H78.6z"/>
	<path class="st9" d="M66.5,14.2H40.8c-4.3,0-7.7,3.4-7.7,7.7v11.4h41V21.9C74.1,17.6,70.7,14.2,66.5,14.2z"/>
	<path class="st9" d="M61.4,61.9H45.3c-1.1,0-1.9-0.9-1.9-1.9v0c0-1.1,0.9-1.9,1.9-1.9h16.1c1.1,0,1.9,0.9,1.9,1.9v0
		C63.3,61.1,62.4,61.9,61.4,61.9z"/>
</g>
</svg>
