<?xml version="1.0" encoding="utf-8"?>
<!-- Generator: Adobe Illustrator 22.0.1, SVG Export Plug-In . SVG Version: 6.00 Build 0)  -->
<svg version="1.1" id="Layer_1" xmlns="http://www.w3.org/2000/svg" xmlns:xlink="http://www.w3.org/1999/xlink" x="0px" y="0px"
	 viewBox="0 0 144.7 400.7" style="enable-background:new 0 0 144.7 400.7;" xml:space="preserve">
<style type="text/css">
	.st0{display:none;}
	.st1{display:inline;fill:#FFFFFF;stroke:#000000;stroke-miterlimit:10;}
	.st2{fill:#707B7F;}
	.st3{fill:#CE403F;}
	.st4{fill:#FFFFFF;}
	.st5{fill:#CD915F;}
	.st6{fill:#AA6628;}
	.st7{opacity:0.5;fill:#F9F9FA;enable-background:new    ;}
	.st8{fill:url(#SVGID_1_);}
	.st9{fill:#DDDDDD;}
	.st10{fill:#F7F7F7;}
	.st11{opacity:0.35;fill:#F4F4F5;enable-background:new    ;}
	.st12{fill:#F9F9FA;stroke:#E2E2E2;stroke-width:3;stroke-miterlimit:10;}
	.st13{fill:url(#SVGID_2_);}
	.st14{opacity:0.6;fill:#F4F4F5;enable-background:new    ;}
	.st15{display:none;fill:#34A6C9;stroke:#1B8EB7;stroke-width:10;stroke-miterlimit:10;}
	.st16{display:none;fill:#F27CA7;stroke:#C94C72;stroke-width:10;stroke-miterlimit:10;}
	.st17{fill:#476269;}
	.st18{fill:#222728;}
	.st19{fill:#DDDDDC;}
	.st20{fill:#F6F7F7;}
	.st21{fill:url(#SVGID_3_);}
	.st22{fill:url(#SVGID_4_);}
	.st23{enable-background:new    ;}
	.st24{fill:none;stroke:#E2E2E2;stroke-width:3;stroke-miterlimit:10;}
	.st25{fill:#D95F56;}
	.st26{fill:url(#SVGID_5_);}
	.st27{fill:url(#SVGID_6_);}
	.st28{opacity:0.84;fill:#E8CD2C;enable-background:new    ;}
	.st29{opacity:0.39;fill:#90D7EB;enable-background:new    ;}
	.st30{opacity:0.84;fill:url(#SVGID_7_);enable-background:new    ;}
	.st31{fill:#D2E8C9;stroke:#6EBF59;stroke-width:2;stroke-miterlimit:10;}
	.st32{fill:#E2E2E2;}
	.st33{fill:#7AC25B;}
	.st34{fill:none;stroke:#E2E2E2;stroke-miterlimit:10;}
	.st35{fill:#157D3E;stroke:#E2E2E2;stroke-width:3;stroke-miterlimit:10;}
</style>
<g id="Layer_1_1_" class="st0">
	<rect x="1249.8" y="-122.1" class="st1" width="136.5" height="482"/>
</g>
<path class="st2" d="M1513.4,1655.3h-127c-11.1,0-20.2-9.1-20.2-20.2v-93.6c0-11.1,9.1-20.2,20.2-20.2h127
	c11.1,0,20.2,9.1,20.2,20.2v93.6C1533.6,1646.2,1524.5,1655.3,1513.4,1655.3z"/>
<rect x="784.6" y="-283.5" class="st3" width="658.6" height="188.9"/>
<circle class="st4" cx="493" cy="165.8" r="6.2"/>
<g>
	<polygon class="st5" points="1401.5,-545.8 1359.2,-533.1 1451.8,-533.1 	"/>
	<polygon class="st5" points="1739.8,-545.8 1782,-533.1 1689.5,-533.1 	"/>
	<rect x="1401.4" y="-545.8" class="st5" width="338.4" height="14.9"/>
	<rect x="1359.2" y="-533.1" class="st6" width="422.8" height="11.1"/>
</g>
<path class="st7" d="M611.4,398.6H462.5c-11.7,0-21.2-9.5-21.2-21.2V149.7c0-11.7,9.5-21.2,21.2-21.2h148.8
	c11.7,0,21.2,9.5,21.2,21.2v227.7C632.5,389.1,623.1,398.6,611.4,398.6z"/>
<linearGradient id="SVGID_1_" gradientUnits="userSpaceOnUse" x1="535.5001" y1="238.7" x2="535.5001" y2="14.4783" gradientTransform="matrix(1 0 0 -1 0 400)">
	<stop  offset="0" style="stop-color:#FFCC4C"/>
	<stop  offset="1" style="stop-color:#FEBF4B"/>
</linearGradient>
<path class="st8" d="M594.9,386.3H476.1c-11.7,0-21.2-9.5-21.2-21.2V182.5c0-11.7,9.5-21.2,21.2-21.2h118.8
	c11.7,0,21.2,9.5,21.2,21.2v182.7C616.1,376.8,606.6,386.3,594.9,386.3z"/>
<circle class="st9" cx="479.6" cy="159.7" r="33"/>
<circle class="st9" cx="515.3" cy="150.1" r="23.4"/>
<circle class="st9" cx="550.2" cy="160" r="23.4"/>
<circle class="st9" cx="599.8" cy="155.2" r="28.2"/>
<circle class="st10" cx="550.2" cy="150.9" r="23.4"/>
<circle class="st10" cx="571.6" cy="141" r="11.7"/>
<path class="st10" d="M491.9,141c0-1.5,0.1-2.9,0.4-4.3h-42.6c-2,4.2-3.1,9-3.1,14c0,18.2,14.8,33,33,33c13.6,0,25.3-8.2,30.3-19.9
	C499.6,161.3,491.9,152,491.9,141z"/>
<path class="st10" d="M512.6,150.6c0,4.6-1,9.1-2.7,13.1c1.7,0.4,3.5,0.6,5.4,0.6c12.9,0,23.4-10.5,23.4-23.4c0-1.5-0.1-2.9-0.4-4.3
	h-28.7C511.5,140.9,512.6,145.6,512.6,150.6z"/>
<path class="st10" d="M509.5,136.6h-17.2c-0.3,1.4-0.4,2.8-0.4,4.3c0,11.1,7.7,20.3,18,22.7c1.7-4,2.7-8.4,2.7-13.1
	C512.6,145.6,511.5,140.9,509.5,136.6z"/>
<path class="st10" d="M626.4,136.6h-53.1c-1.1,3-1.6,6.1-1.6,9.5c0,15.6,12.6,28.2,28.2,28.2c15.6,0,28.2-12.6,28.2-28.2
	C628,142.8,627.4,139.6,626.4,136.6z"/>
<path class="st10" d="M631,137.5c0,0-0.1-0.1-0.2-0.2C630.8,137.3,630.8,137.4,631,137.5L631,137.5z"/>
<path class="st10" d="M626.4,136.6H509.5c-2.4-5-5.9-9.3-10.3-12.6c-3.5,3.3-5.9,7.7-6.8,12.6h-42.6c0.5-1.1,1.1-2.2,1.8-3.3
	c4.2-4.6,12.7-12.3,22.7-12.3h55.4c0,0,6.7,0,16,0h55.4c13.2,0,23.9,13.4,25.3,15.3C626.3,136.5,626.3,136.6,626.4,136.6z"/>
<path class="st10" d="M492.3,136.6h17.2c-2.3-5-5.9-9.3-10.3-12.6C495.7,127.4,493.2,131.7,492.3,136.6z"/>
<path class="st7" d="M689.4,202.5c-2.3-11.7-10.8-20.4-21-20.4h-35.8v22.5h25.3c6,0,10.8,5.9,10.8,13.3v77.4
	c0,7.3-4.8,13.3-10.8,13.3h-25.3V332h35.8c10.7,0,19.6-9.6,21.3-22.2c0.2-1.1,0.3-2.2,0.3-3.4v-1l0,0v-96.7l0,0v-1.4
	C690,205.5,689.8,204,689.4,202.5z"/>
<path class="st11" d="M488.4,356.2L488.4,356.2c-6,0-10.8-4.8-10.8-10.8v-134c0-6,4.8-10.8,10.8-10.8l0,0c6,0,10.8,4.8,10.8,10.8
	v134C499.2,351.3,494.4,356.2,488.4,356.2z"/>
<path class="st11" d="M538.6,356.2L538.6,356.2c-6,0-10.8-4.8-10.8-10.8v-134c0-6,4.8-10.8,10.8-10.8l0,0c6,0,10.8,4.8,10.8,10.8
	v134C549.4,351.3,544.6,356.2,538.6,356.2z"/>
<path class="st11" d="M587.7,352.9L587.7,352.9c-6,0-10.8-4.8-10.8-10.8v-134c0-6,4.8-10.8,10.8-10.8l0,0c6,0,10.8,4.8,10.8,10.8
	v134C598.5,348.1,593.7,352.9,587.7,352.9z"/>
<g>
	<circle class="st4" cx="3956.9" cy="938.1" r="4.7"/>
	<path class="st12" d="M4042.8,1120.3h-104.4c-11.7,0-21.2-9.5-21.2-21.2v-165c0-11.7,9.5-21.2,21.2-21.2h104.4
		c11.7,0,21.2,9.5,21.2,21.2v165C4064,1110.8,4054.5,1120.3,4042.8,1120.3z"/>
	
		<linearGradient id="SVGID_2_" gradientUnits="userSpaceOnUse" x1="3989.5" y1="-538.1" x2="3989.5" y2="-710.2584" gradientTransform="matrix(1 0 0 -1 0 400)">
		<stop  offset="0" style="stop-color:#FFCC4C"/>
		<stop  offset="1" style="stop-color:#FEBF4B"/>
	</linearGradient>
	<path class="st13" d="M4030.2,1110.9h-81.4c-11.7,0-21.2-9.5-21.2-21.2V959.3c0-11.7,9.5-21.2,21.2-21.2h81.4
		c11.7,0,21.2,9.5,21.2,21.2v130.4C4051.4,1101.4,4041.9,1110.9,4030.2,1110.9z"/>
	<circle class="st9" cx="3946.5" cy="933.4" r="25.3"/>
	<circle class="st9" cx="3973.9" cy="926" r="17.9"/>
	<circle class="st9" cx="4000.8" cy="933.6" r="17.9"/>
	<circle class="st9" cx="4038.8" cy="929.9" r="21.6"/>
	<circle class="st10" cx="4000.8" cy="926.6" r="17.9"/>
	<circle class="st10" cx="4017.2" cy="919" r="9"/>
	<path class="st10" d="M3956,919c0-1.1,0.1-2.2,0.3-3.3h-32.7c-1.5,3.3-2.4,6.9-2.4,10.7c0,14,11.3,25.3,25.3,25.3
		c10.4,0,19.4-6.3,23.3-15.3C3961.9,934.6,3956,927.5,3956,919z"/>
	<path class="st10" d="M3971.9,926.4c0,3.6-0.7,7-2.1,10c1.3,0.3,2.7,0.5,4.1,0.5c9.9,0,17.9-8,17.9-17.9c0-1.1-0.1-2.2-0.3-3.3
		h-22.1C3971,918.9,3971.9,922.6,3971.9,926.4z"/>
	<path class="st10" d="M3969.5,915.7h-13.2c-0.2,1.1-0.3,2.2-0.3,3.3c0,8.5,5.9,15.6,13.8,17.5c1.3-3.1,2.1-6.5,2.1-10
		C3971.9,922.6,3971,918.9,3969.5,915.7z"/>
	<path class="st10" d="M4059.2,915.7h-40.8c-0.8,2.3-1.3,4.7-1.3,7.3c0,12,9.7,21.6,21.6,21.6s21.6-9.7,21.6-21.6
		C4060.5,920.4,4060,917.9,4059.2,915.7z"/>
	<path class="st10" d="M4062.8,919.8c0,0-0.1-0.1-0.1-0.2C4062.7,919.7,4062.7,919.7,4062.8,919.8L4062.8,919.8z"/>
	<path class="st10" d="M4059.2,915.7h-89.7c-1.8-3.8-4.5-7.2-7.9-9.7c-2.7,2.5-4.6,5.9-5.3,9.7h-32.7c0.4-0.9,0.9-1.7,1.4-2.5
		c3.2-3.5,9.8-9.4,17.5-9.4h42.5c0,0,5.1,0,12.3,0h42.5c10.2,0,18.3,10.3,19.4,11.8C4059.2,915.5,4059.2,915.6,4059.2,915.7z"/>
	<path class="st10" d="M3956.3,915.7h13.2c-1.8-3.8-4.5-7.2-7.9-9.7C3958.9,908.5,3957,911.9,3956.3,915.7z"/>
	<path class="st12" d="M4107.6,969.7c-1.7-9-8.3-15.7-16.1-15.7H4064v17.3h19.4c4.6,0,8.3,4.6,8.3,10.2v59.4
		c0,5.6-3.7,10.2-8.3,10.2H4064v17.9h27.5c8.2,0,15.1-7.4,16.4-17c0.1-0.8,0.2-1.7,0.2-2.6v-0.8l0,0v-74.2l0,0v-1.1
		C4108.1,972,4107.9,970.8,4107.6,969.7z"/>
	<path class="st14" d="M3953.3,1087.7L3953.3,1087.7c-4.6,0-8.3-3.7-8.3-8.3V976.5c0-4.6,3.7-8.3,8.3-8.3l0,0c4.6,0,8.3,3.7,8.3,8.3
		v102.9C3961.6,1084,3957.9,1087.7,3953.3,1087.7z"/>
	<path class="st14" d="M3991.9,1087.7L3991.9,1087.7c-4.6,0-8.3-3.7-8.3-8.3V976.5c0-4.6,3.7-8.3,8.3-8.3l0,0c4.6,0,8.3,3.7,8.3,8.3
		v102.9C4000.2,1084,3996.5,1087.7,3991.9,1087.7z"/>
	<path class="st14" d="M4029.6,1085.2L4029.6,1085.2c-4.6,0-8.3-3.7-8.3-8.3V974c0-4.6,3.7-8.3,8.3-8.3l0,0c4.6,0,8.3,3.7,8.3,8.3
		v102.9C4037.9,1081.5,4034.2,1085.2,4029.6,1085.2z"/>
</g>
<path class="st15" d="M1163.6,786.5v-32.9l5.8,5.8c9.5,9.5,25,9.5,34.5,0s9.5-25,0-34.5l-45-45l-2.9-2.9c-4.5-4.5-10.2-6.8-16.1-7.1
	c-0.2,0-0.5,0-0.8,0c-0.1,0-0.2,0-0.2,0c-0.1,0-0.1,0-0.2,0s-0.1,0-0.2,0c-6.3-0.1-12.7,2.3-17.5,7.2l-47.9,47.9
	c-9.5,9.5-9.5,25,0,34.5s25,9.5,34.5,0l7.1-7.1l0.6,33.7c-34.6,10-59.9,41.9-59.9,79.8c0,45.9,37.2,83.1,83.1,83.1
	s83.1-37.2,83.1-83.1C1221.6,828.6,1197.2,797.2,1163.6,786.5z M1138.5,901c-19.4,0-35.2-15.8-35.2-35.2s15.8-35.2,35.2-35.2
	c19.4,0,35.2,15.8,35.2,35.2S1157.9,901,1138.5,901z"/>
<path class="st16" d="M1449.6,828.2c32.4-32.4,32.4-85.1,0-117.5s-85.1-32.4-117.5,0s-32.4,85.1,0,117.5
	c10.6,10.6,23.3,17.7,36.8,21.4v25.9h-9.6c-12.1,0-21.9,9.8-21.9,21.9l0,0c0,12.1,9.8,21.9,21.9,21.9h9.6v9.6
	c0,12.1,9.8,21.9,21.9,21.9l0,0c12.1,0,21.9-9.8,21.9-21.9v-9.6h9.6c12.1,0,21.9-9.8,21.9-21.9l0,0c0-12.1-9.8-21.9-21.9-21.9h-9.6
	v-25.9C1426.3,845.9,1439,838.7,1449.6,828.2z M1365.9,744.5c13.8-13.8,36-13.8,49.8,0s13.8,36,0,49.8s-36,13.8-49.8,0
	C1352.2,780.6,1352.2,758.3,1365.9,744.5z"/>
<rect x="1241.1" y="606.2" class="st17" width="578.1" height="600.5"/>
<path class="st4" d="M1390.9,784.1l-59.5,59.5c-6.3,6.3-16.4,6.3-22.7,0l0,0c-6.3-6.3-6.3-16.4,0-22.7l59.5-59.5
	c6.3-6.3,16.4-6.3,22.7,0l0,0C1397.2,767.7,1397.2,777.8,1390.9,784.1z"/>
<path class="st4" d="M1427.8,843.6l-59.5-59.5c-6.3-6.3-6.3-16.4,0-22.7l0,0c6.3-6.3,16.4-6.3,22.7,0l59.5,59.5
	c6.3,6.3,6.3,16.4,0,22.7l0,0C1444.2,849.8,1434,849.8,1427.8,843.6z"/>
<path class="st4" d="M1399.5,794.7V870c0,11.9-9.6,21.5-21.5,21.5l0,0c-11.9,0-21.5-9.6-21.5-21.5v-75.2c0-11.9,9.6-21.5,21.5-21.5
	l0,0C1389.9,773.2,1399.5,782.9,1399.5,794.7z"/>
<path class="st4" d="M1379.6,870.3c-52.3,0-94.6,42.4-94.6,94.6s42.4,94.6,94.6,94.6s94.6-42.4,94.6-94.6S1431.9,870.3,1379.6,870.3
	z M1379.6,1023.1c-32.1,0-58.2-26-58.2-58.2c0-32.1,26-58.2,58.2-58.2s58.2,26,58.2,58.2C1437.8,997,1411.7,1023.1,1379.6,1023.1z"
	/>
<path class="st4" d="M1620.3,1038V936.6c0-11.9,9.6-21.5,21.5-21.5l0,0c11.9,0,21.5,9.6,21.5,21.5V1038c0,11.9-9.6,21.5-21.5,21.5
	l0,0C1629.9,1059.5,1620.3,1049.9,1620.3,1038z"/>
<path class="st4" d="M1681.6,1017.2H1602c-11.9,0-21.5-9.6-21.5-21.5l0,0c0-11.9,9.6-21.5,21.5-21.5h79.7c11.9,0,21.5,9.6,21.5,21.5
	l0,0C1703.2,1007.6,1693.5,1017.2,1681.6,1017.2z"/>
<path class="st4" d="M1640.2,936.3c52.3,0,94.6-42.4,94.6-94.6s-42.4-94.6-94.6-94.6s-94.6,42.4-94.6,94.6
	S1587.9,936.3,1640.2,936.3z M1640.2,783.5c32.1,0,58.2,26,58.2,58.2c0,32.1-26,58.2-58.2,58.2c-32.1,0-58.2-26-58.2-58.2
	S1608.1,783.5,1640.2,783.5z"/>
<rect x="726.5" y="606.2" class="st18" width="508.9" height="434.6"/>
<path class="st4" d="M1005.4,783.5L945.9,843c-6.3,6.3-16.4,6.3-22.7,0l0,0c-6.3-6.3-6.3-16.4,0-22.7l59.5-59.5
	c6.3-6.3,16.4-6.3,22.7,0l0,0C1011.7,767.1,1011.7,777.2,1005.4,783.5z"/>
<path class="st4" d="M1042.2,843l-59.5-59.5c-6.3-6.3-6.3-16.4,0-22.7l0,0c6.3-6.3,16.4-6.3,22.7,0l59.5,59.5
	c6.3,6.3,6.3,16.4,0,22.7l0,0C1058.6,849.2,1048.5,849.2,1042.2,843z"/>
<path class="st4" d="M1011.6,791.8v79.8c0,10.6-8.6,19.2-19.2,19.2l0,0c-10.6,0-19.2-8.6-19.2-19.2v-79.8c0-10.6,8.6-19.2,19.2-19.2
	l0,0C1003,772.6,1011.6,781.2,1011.6,791.8z"/>
<path class="st19" d="M875.8-241.5c-18,0-34.3,7.5-45.7,19.5v83.2c11.4,12,27.6,19.5,45.7,19.5c34.4,0,62.4-27.4,62.4-61.1
	C938.2-214.2,910.3-241.5,875.8-241.5z"/>
<path class="st19" d="M1414.3-212.7c-8-8.2-19.5-13.4-32.2-13.4c-24.1,0-43.7,18.4-43.7,41.1s19.6,41.1,43.7,41.1
	c12.8,0,24.3-5.2,32.2-13.4V-212.7z"/>
<ellipse class="st19" cx="958" cy="-193.5" rx="28" ry="27.5"/>
<ellipse class="st19" cx="1033.1" cy="-186.1" rx="54.2" ry="53.1"/>
<ellipse class="st19" cx="1112.4" cy="-190.8" rx="35.9" ry="35.2"/>
<ellipse class="st19" cx="1177.6" cy="-206.7" rx="33.6" ry="32.9"/>
<ellipse class="st19" cx="1211.8" cy="-183.3" rx="38.4" ry="37.6"/>
<ellipse class="st19" cx="1274.4" cy="-191.9" rx="38" ry="37.3"/>
<ellipse class="st19" cx="1323.6" cy="-203.3" rx="23.2" ry="22.7"/>
<path class="st19" d="M1414.3-187.9H831.2c2.2-15.3,1.6-11,3.5-24.2l0,0c0-13.3,12.2-24.2,27.2-24.2h521.7c15,0,27.2,10.8,27.2,24.2
	l0,0C1411.9-200,1411.9-200.3,1414.3-187.9z"/>
<circle class="st20" cx="958" cy="-205.7" r="28"/>
<ellipse transform="matrix(0.2298 -0.9732 0.9732 0.2298 988.5428 852.8776)" class="st20" cx="1033.1" cy="-198.1" rx="54.2" ry="54.2"/>
<circle class="st20" cx="1112.4" cy="-203" r="35.9"/>
<circle class="st20" cx="1177.6" cy="-219.2" r="33.6"/>
<circle class="st20" cx="1211.8" cy="-195.3" r="38.4"/>
<circle class="st20" cx="1274.4" cy="-204.1" r="38"/>
<circle class="st20" cx="1323.6" cy="-215.7" r="23.2"/>
<rect x="830.4" y="-259.2" class="st20" width="583.9" height="61.1"/>
<path class="st20" d="M1414.3-225.9c-8-8.4-19.5-13.7-32.2-13.7c-24.1,0-43.7,18.8-43.7,41.9s19.6,41.9,43.7,41.9
	c12.8,0,24.3-5.3,32.2-13.7V-225.9z"/>
<path class="st20" d="M875.8-256.6c-18,0-34.3,7.7-45.7,19.9v84.9c11.4,12.2,27.6,19.9,45.7,19.9c34.4,0,62.4-27.9,62.4-62.4
	C938.2-228.6,910.3-256.6,875.8-256.6z"/>
<image style="display:none;overflow:visible;enable-background:new    ;" width="2056" height="494" xlink:href="DD6EE7EF3D3EFC0A.png"  transform="matrix(0.5771 0 0 0.5771 537.2121 -58.418)">
</image>
<path class="st7" d="M117.9,367.2c1.4,1.9,2.6,3.6,3.7,5.2c6,8.5,2.2,20.3-7.8,23.9c-8.4,3-21.4,5.2-41.4,4.8
	c-20.1,0.4-33.1-1.8-41.5-4.8c-10-3.5-13.8-15.4-7.8-23.9c1.1-1.6,2.3-3.3,3.7-5.2c8.4-11.5,11-58.3,7.8-119.2
	C32,198.8,9,67.4,0.2,18.6C-1.5,8.9,6.2,0,16.3,0h112.2c10.1,0,17.8,8.9,16,18.6c-8.8,48.8-31.8,180.2-34.4,229.4
	C106.9,309,109.5,355.8,117.9,367.2z"/>
<g>
	
		<linearGradient id="SVGID_3_" gradientUnits="userSpaceOnUse" x1="72.35" y1="352.6649" x2="72.35" y2="50.1014" gradientTransform="matrix(1 0 0 -1 0 400)">
		<stop  offset="0" style="stop-color:#FFCC4C"/>
		<stop  offset="1" style="stop-color:#FEBF4B"/>
	</linearGradient>
	<path class="st21" d="M101.5,237.2c2-38,19.8-139.3,26.5-177c1.3-7.5-4.6-14.3-12.4-14.3H29.1c-7.8,0-13.7,6.8-12.4,14.3
		c6.8,37.6,24.5,139,26.5,177c0.9,16.3,1.2,79.1,1,92c-0.2,15.3,11.4,19.1,26.6,19.9c0.5,0,1,0,1.5,0s1,0,1.5,0
		c15.2-0.8,26.9-4.6,26.6-19.9C100.3,316.2,100.6,253.4,101.5,237.2z"/>
</g>
<circle class="st14" cx="107.2" cy="67.9" r="6.1"/>
<ellipse transform="matrix(0.1256 -0.9921 0.9921 0.1256 -60.8807 222.468)" class="st14" cx="95.8" cy="145.8" rx="53" ry="6.1"/>
<g>
	<path class="st7" d="M-352.2,386.2c0.8,2.1,0.1,4-1.5,5.5c-3.6,3.2-9.4,4.2-14,5c-11.5,1.9-23.2,2-34.8,1.9
		c-11.6,0.1-23.4,0-34.8-1.9c-4.6-0.8-10.4-1.7-14-5c-1.6-1.5-2.3-3.4-1.5-5.5c0.8-2,2.5-3.5,4.7-3.8c1.3-0.2,2.6-0.3,4-0.5
		c5.2-0.9,10.2-2.7,15-4.9c13.4-6,22-13.8,22-13.8s0.8-103,0.8-121.9s-38.2-28.4-54-46.5c-15.8-18.2,18.5-106.5,18.5-106.5h78.9
		c0,0,36.7,86.7,20.9,104.8c-15.8,18.1-56.4,29.3-56.4,48.2s0.8,121.9,0.8,121.9s8.5,7.8,22,13.8c4.8,2.1,9.8,3.9,15,4.9
		c1.3,0.2,2.6,0.3,4,0.5C-354.7,382.6-353,384.2-352.2,386.2z"/>
	
		<linearGradient id="SVGID_4_" gradientUnits="userSpaceOnUse" x1="-401.3099" y1="290.6268" x2="-401.3099" y2="180.4181" gradientTransform="matrix(1 0 0 -1 0 400)">
		<stop  offset="0" style="stop-color:#FFCC4C"/>
		<stop  offset="1" style="stop-color:#FEBF4B"/>
	</linearGradient>
	<path class="st22" d="M-358.8,196l-37.7,21.8c-3,1.7-6.8,1.7-9.8,0L-444,196c-0.3-0.2-0.6-0.3-0.8-0.4c-2.2-1-15.2-8.3-5.3-39.8
		l9.8-38.6c1.1-4.3,5-7.4,9.5-7.4h58.8c4.5,0,8.4,3,9.5,7.4l9.9,38.6c9.9,31.5-3.1,38.8-5.3,39.8
		C-358.3,195.7-358.6,195.9-358.8,196z"/>
	<circle class="st14" cx="-373.3" cy="132.1" r="6.1"/>
	<ellipse class="st14" cx="-373.3" cy="165.1" rx="6.1" ry="17"/>
</g>
<text transform="matrix(1 0 0 1 801.3303 132.1087)" style="font-family:'MyriadPro-Regular'; font-size:72px;">Beer</text>
<image style="display:none;overflow:visible;enable-background:new    ;" width="2056" height="986" xlink:href="DD6EE7EF3D3EFC0E.png"  transform="matrix(0.5 0 0 0.5 727.6044 1436.5408)">
</image>
<image style="display:none;overflow:visible;enable-background:new    ;" width="2114" height="968" xlink:href="DD6EE7EF3D3EFC09.png"  transform="matrix(0.5 0 0 0.5 677.9443 1314.9623)">
</image>
<image style="display:none;overflow:visible;enable-background:new    ;" width="2114" height="968" xlink:href="DD6EE7EF3D3EFC0B.png"  transform="matrix(0.5 0 0 0.5 515.0895 1265.4741)">
</image>
<text transform="matrix(1 0 0 1 2260.9775 -49.1443)" style="font-family:'MyriadPro-Regular'; font-size:72px;">Cocktail</text>
<image style="display:none;overflow:visible;enable-background:new    ;" width="2056" height="986" xlink:href="DD6EE7EF3D3EFC08.png"  transform="matrix(0.5 0 0 0.5 2064.093 -274.0275)">
</image>
<path class="st12" d="M2077.6,392.7c-77,0-50.8-18-50.8-18s14.7-4.4,27.8-6.6s16.3-27.3,16.3-27.3s0-73.2,0-95c0-21.9-5-22.9-5-22.9
	l-73.6-93.7h170.4l-73.6,93.7c0,0-5,1-5,22.9c0,21.8,0,95,0,95s3.2,25.1,16.3,27.3c13.1,2.2,27.9,6.6,27.9,6.6
	S2154.6,392.7,2077.6,392.7z"/>
<path class="st12" d="M2371.1,174.8c-12.3,13.9-52.3,27.8-58,37.6c0,0-0.4,8.6-9.1,9.1c0,0-4.5,3.2-4.5,13.2s-4.3,112,0,116.3
	s36.7,14.1,42.2,15.9s38.8,25-54,25s-59.4-23.2-54-25c5.5-1.8,37.9-11.6,42.2-15.9s0-106.3,0-116.3s-4.6-13.2-4.6-13.2
	c-8.6-0.5-9.1-9.1-9.1-9.1c-5.7-9.8-45.8-23.7-58-37.6c-12.3-13.9-9-46.6-9-46.6H2380C2380.1,128.2,2383.4,160.9,2371.1,174.8z"/>
<path class="st12" d="M2443.8,391.5c-37.3-5.2-19.8-13.9-19.8-13.9l25.9-9.8v-107c-12.1-6.8-20.5-22.5-20.5-22.5
	c-14-24.2-5.4-143.7-5.4-143.7h60.6c0,0,8.6,119.5-5.4,143.7c0,0-8.4,15.6-20.5,22.5v107l25.9,9.8c0,0,17.5,8.7-19.8,13.9
	C2457.9,392.5,2450.8,392.5,2443.8,391.5z"/>
<path class="st12" d="M2620.4,165.7c6.4,48.4,20.4,121.1,1.3,140.2c-12.4,12.4-18.3,19.6-20.9,23.1c-1.2,1.6-1.6,3.6-1.1,5.5
	c1.2,5.2,3.3,16.3,0.7,21c-0.9,1.7-1.8,3.3-2.5,4.9c-1.8,3.9,0.5,8.5,4.7,9.4l17.8,3.9c0.2,0,0.4,0.1,0.7,0.2
	c4.1,1.3,41,14.1-33.3,18.8c-0.3,0-0.6,0-0.9,0c-74.3-4.7-37.3-17.5-33.3-18.8c0.2-0.1,0.4-0.1,0.7-0.2l17.8-3.9
	c4.2-0.9,6.5-5.5,4.7-9.4c-0.7-1.5-1.5-3.2-2.5-4.9c-2.6-4.8-0.5-15.8,0.7-21c0.4-1.9,0-3.9-1.1-5.5c-2.6-3.5-8.5-10.7-20.9-23.1
	c-19.1-19.1-5.1-91.8,1.3-140.2c3.8-29-3.8-48-10.5-58.5c-2.9-4.5,0.4-10.3,5.7-10.3h76c5.3,0,8.5,5.9,5.7,10.3
	C2624.2,117.7,2616.5,136.6,2620.4,165.7z"/>
<image style="display:none;overflow:visible;enable-background:new    ;" width="2114" height="968" xlink:href="DD6EE7EF3D3EFC16.png"  transform="matrix(0.5 0 0 0.5 2014.4331 -395.6059)">
</image>
<path class="st12" d="M2788.8,123.1v251.8c0,7.3-5.6,13.4-12.8,14l-24.3,2.2c-11.8,1-23.6,1-35.4,0l-24.3-2.2
	c-7.3-0.6-12.8-6.7-12.8-14V123.1c0-7.8,6.3-14.1,14.1-14.1h81.5C2782.5,109,2788.8,115.3,2788.8,123.1z"/>
<image style="display:none;overflow:visible;enable-background:new    ;" width="2114" height="968" xlink:href="DD6EE7EF3D3EFC19.png"  transform="matrix(0.5 0 0 0.5 1851.5782 -445.0941)">
</image>
<path class="st12" d="M2933.6,121.7l-5,253.9c-0.1,5.5-3.8,10.2-9.1,11.7c-7.7,2.2-21.6,4.6-45.8,5c-24.2-0.3-38-2.7-45.8-5
	c-5.3-1.5-8.9-6.2-9.1-11.7l-5-253.9c-0.1-7,5.5-12.7,12.4-12.7h94.7C2928.2,109,2933.8,114.8,2933.6,121.7z"/>
<path class="st12" d="M3026.5,390.5c-59.6,0.5-52.6-4.3-34.3-14.3c16.8-9.2,12.4-29.6,11.5-32.8c-0.1-0.3-0.1-0.7-0.2-1L2981.3,47
	c-0.3-3.5,2.5-6.6,6.1-6.6h78.3c3.6,0,6.4,3,6.1,6.6l-22.3,295.3c0,0.3-0.1,0.7-0.2,1c-0.8,3.3-5.3,23.7,11.5,32.8
	C3079.1,386.2,3086.1,391,3026.5,390.5z"/>
<image style="display:none;overflow:visible;enable-background:new    ;" width="2056" height="986" xlink:href="DD6EE7EF3D3EFC1A.png"  transform="matrix(0.5 0 0 0.5 2064.093 594.6507)">
</image>
<image style="display:none;overflow:visible;enable-background:new    ;" width="2114" height="968" xlink:href="DD6EE7EF3D3EFC18.png"  transform="matrix(0.5 0 0 0.5 2014.4331 473.0723)">
</image>
<image style="display:none;overflow:visible;enable-background:new    ;" width="2114" height="968" xlink:href="1078593DA1A6DCD.png"  transform="matrix(0.5 0 0 0.5 1851.5782 423.5841)">
</image>
<text transform="matrix(1 0 0 1 2260.9783 823.5115)" style="font-family:'MyriadPro-Regular'; font-size:72px;">Lhao</text>
<path class="st12" d="M2267,1096.3c-23.7,31.1-43,36.1-53.2,41.7s-16.2,26.8,3.2,30.9c19.4,4.2,27.9,6.7,27.9,6.7s35.7,18.2-50,18.2
	c-86.4,0-50-18.2-50-18.2s8.4-2.5,27.8-6.7c19.4-4.1,13.4-25.4,3.2-30.9c-10.2-5.6-29.4-10.5-53.2-41.7
	c-23.7-31.1,24.6-122.1,24.6-122.1h95C2242.4,974.2,2290.8,1065.1,2267,1096.3z"/>
<path class="st24" d="M2346.7,1193.8c-66.8-0.8-42.6-10.7-26.2-11.9c16.4-1.2,21.7-15.2,21.7-15.2s-0.8-91.8,0-107.3
	c0.8-15.6-11.7-23.3-11.7-23.3c-30.1-32-16.2-104.1-16.2-104.1h64.7c0,0,13.9,72.1-16.2,104.1c0,0-12.5,7.8-11.7,23.3
	c0.8,15.6,0,107.3,0,107.3s5.3,13.9,21.7,15.2C2389.3,1183.2,2413.5,1193,2346.7,1193.8z"/>
<path class="st12" d="M2456.7,1193.8c-39.6,0-30.4-5.9-23.1-9.4c7-3.4,15.4-9.1,15.4-9.1l1.3-28.9c0.9-20.1-4.1-22.3-8.8-29.2
	c-4.7-6.9-5.6-11.3-10-27.3s-1.9-68.1-1.9-68.1h54.4c0,0,2.5,52.1-1.9,68.1s-5.3,20.4-10,27.3s-9.7,9.1-8.8,29.2l1.3,28.9
	c0,0,8.4,5.7,15.4,9.1C2487.1,1187.9,2496.3,1193.8,2456.7,1193.8z"/>
<path class="st12" d="M2594.5,1072.8c4.1,0,7.4,3.4,7.2,7.5l-3.8,95.7c0,0-0.9,17.9-13.2,17.9c-17.1,0-28.7,0-28.7,0s-11.6,0-28.7,0
	c-12.3,0-13.2-17.9-13.2-17.9l-3.8-95.7c-0.2-4.1,3.1-7.5,7.2-7.5H2594.5z"/>
<ellipse class="st14" cx="2525" cy="1133.3" rx="2.7" ry="39.4"/>
<ellipse class="st14" cx="2535.1" cy="1133.3" rx="2.7" ry="39.4"/>
<ellipse class="st14" cx="2552.1" cy="1133.3" rx="2.7" ry="39.4"/>
<ellipse class="st14" cx="2562.4" cy="1133.3" rx="2.7" ry="39.4"/>
<ellipse class="st14" cx="2579.7" cy="1133.3" rx="2.7" ry="39.4"/>
<ellipse class="st14" cx="2587.8" cy="1133.3" rx="2.7" ry="39.4"/>
<path class="st14" d="M2531.1,1180c-0.7,0-1.3,4.6-1.7,12.3h3.5C2532.4,1184.6,2531.8,1180,2531.1,1180z"/>
<path class="st14" d="M2557.4,1178.3c-0.7,0-1.4,5.3-1.8,13.9h3.7C2558.7,1183.6,2558.1,1178.3,2557.4,1178.3z"/>
<path class="st14" d="M2583.5,1180c-0.7,0-1.3,4.6-1.7,12.3h3.5C2584.8,1184.6,2584.2,1180,2583.5,1180z"/>
<image style="display:none;overflow:visible;enable-background:new    ;" width="2056" height="986" xlink:href="1078593DA1A6DC3.png"  transform="matrix(0.5 0 0 0.5 3412.2688 594.6507)">
</image>
<image style="display:none;overflow:visible;enable-background:new    ;" width="2114" height="968" xlink:href="1078593DA1A6DC5.png"  transform="matrix(0.5 0 0 0.5 3362.6086 473.0723)">
</image>
<image style="display:none;overflow:visible;enable-background:new    ;" width="2114" height="968" xlink:href="1078593DA1A6DC7.png"  transform="matrix(0.5 0 0 0.5 3199.7539 423.5841)">
</image>
<image style="display:none;overflow:visible;enable-background:new    ;" width="2056" height="986" xlink:href="1078593DA1A6DC4.png"  transform="matrix(0.5 0 0 0.5 3412.2688 -274.0275)">
</image>
<image style="display:none;overflow:visible;enable-background:new    ;" width="2114" height="968" xlink:href="1078593DA1A6DDC.png"  transform="matrix(0.5 0 0 0.5 3362.6086 -395.6059)">
</image>
<image style="display:none;overflow:visible;enable-background:new    ;" width="2114" height="968" xlink:href="1078593DA1A6DDD.png"  transform="matrix(0.5 0 0 0.5 3199.7539 -445.0941)">
</image>
<text transform="matrix(1 0 0 1 3515.4304 -49.1444)" style="font-family:'MyriadPro-Regular'; font-size:72px;">Wine</text>
<path class="st12" d="M3462.8,390.5c-103.5-0.2-51.2-11.8-48-12.5c0.1,0,0.2,0,0.3-0.1c1.8-0.5,17.6-5.2,22.9-8.2
	c5.5-3.2,14.6-18.7,14.8-25.7c0.2-6.3-4-21.5-5-25.2c-0.1-0.5-0.4-1-0.7-1.5c-7.5-11-1.3-17.9,3.1-24.8c4.5-7,2-23.6-1.9-30
	c-3.8-6.4-13.9-31.9-17.7-51c-3.1-15.9-27.1-81.2-35-102.7c-1.2-3.3,1.2-6.9,4.8-6.9l126.2,0.3c3.6,0,6,3.6,4.8,6.9
	c-8.1,21.4-32.3,86.6-35.5,102.5c-3.9,19.1-14.1,44.6-18,50.9c-3.8,6.4-6.4,22.9-2,30c4.4,6.9,10.5,13.9,3,24.8
	c-0.3,0.5-0.6,0.9-0.7,1.5c-1,3.6-5.3,18.9-5.1,25.2c0.2,7,9.2,22.6,14.7,25.8c5.2,3.1,21.1,7.8,22.8,8.3c0.1,0,0.2,0.1,0.3,0.1
	C3514.1,378.9,3566.3,390.8,3462.8,390.5z"/>
<path class="st12" d="M3611.4,265.3v101.1c0,0,16.4,7.2,26.1,10.7c8.8,3.2,30.8,14.5-32.3,14.5s-41.1-11.3-32.3-14.5
	c9.7-3.5,26-10.7,26-10.7V265.3c0,0-3.9-2.4-12.9-8.9c-10.2-7.4-27.4-26.8-33.9-48.7c-6.6-21.9,9.9-105.6,9.9-105.6h86.5
	c0,0,16.4,83.8,9.9,105.6c-6.6,21.9-23.7,41.3-33.9,48.7C3615.4,262.9,3611.4,265.3,3611.4,265.3z"/>
<path class="st12" d="M3756.6,241.7c0,6.3-0.4,117.8-0.4,117.8l25.6,14.7c0,0,44.2,16.3-32.6,16.3s-32.6-16.3-32.6-16.3l25.6-14.7
	c0,0-0.4-111.5-0.4-117.8s-3.1-8-8.5-11.4s-25-14.8-35.1-32.4s12.4-95.9,12.4-95.9h77.3c0,0,22.5,78.4,12.4,95.9
	c-10.1,17.6-29.7,29-35.1,32.4C3759.7,233.7,3756.6,235.4,3756.6,241.7z"/>
<path class="st12" d="M3897.3,282.4c0,4.6,0,69.5,0,69.5s15.3,22.4,24.2,23s44.4,15.5-32.5,15.5s-41.4-14.9-32.5-15.5
	s24.2-23,24.2-23s0-65,0-69.5c0-4.6-3.6-7.7-3.6-7.7c-1.6-16.3-19.1-29.2-43.9-55.9c-24.7-26.7,8-99.8,8-99.8h95.6
	c0,0,32.7,73.1,8,99.8s-42.3,39.6-43.9,55.9C3900.9,274.7,3897.3,277.8,3897.3,282.4z"/>
<path class="st25" d="M1509,1650.3h-118.2c-10.7,0-19.4-8.7-19.4-19.4v-118.2c0-10.7,8.7-19.4,19.4-19.4H1509
	c10.7,0,19.4,8.7,19.4,19.4V1631C1528.4,1641.6,1519.6,1650.3,1509,1650.3z"/>
<path class="st4" d="M1371.4,1544.8v86.2c0,10.7,8.7,19.4,19.4,19.4H1509c10.7,0,19.4-8.7,19.4-19.4v-86.2H1371.4z"/>
<text transform="matrix(1 0 0 1 1426.108 1526.9027)" class="st4" style="font-family:'Cloud-Bold'; font-size:26px;">DAY</text>
<g>
	<path class="st12" d="M4343,963.1c0,6.3-0.4,117.8-0.4,117.8l25.6,14.7c0,0,44.2,16.3-32.6,16.3c-65.3,0-24.6-16.3-24.6-16.3
		l25.6-14.7c0,0-0.4-111.5-0.4-117.8s-3.1-8-8.5-11.4s-25-14.8-35.1-32.4c-10.1-17.6,12.4-95.9,12.4-95.9h69.3
		c0,0,22.5,78.4,12.4,95.9c-10.1,17.6-29.7,29-35.1,32.4C4346.1,955,4343,956.8,4343,963.1z"/>
	
		<linearGradient id="SVGID_5_" gradientUnits="userSpaceOnUse" x1="4377.751" y1="-493.7198" x2="4377.2896" y2="-502.4854" gradientTransform="matrix(1 0 0 -1 0 400)">
		<stop  offset="0" style="stop-color:#AE4F6F"/>
		<stop  offset="1" style="stop-color:#6C365E"/>
	</linearGradient>
	<path class="st26" d="M4375.9,898.7c-0.3-1.5,0.2-3,1.3-4.1c0.2-0.2,0.4-0.4,0.7-0.4c0.7-0.1,1.3,0.6,1.4,1.3
		c0.3,1.4-0.7,3-2.2,3.4c-0.5,0.1-1.1,0-1.3-0.4"/>
	
		<linearGradient id="SVGID_6_" gradientUnits="userSpaceOnUse" x1="4339.6519" y1="-495.9861" x2="4339.6519" y2="-548.4634" gradientTransform="matrix(1 0 0 -1 0 400)">
		<stop  offset="0" style="stop-color:#AE4F6F"/>
		<stop  offset="1" style="stop-color:#6C365E"/>
	</linearGradient>
	<path class="st27" d="M4381.7,912.2c-0.7,0.1-1.3,0.5-2,0.8s-1.6,0.4-2.3,0.2c-0.1,0-0.2,0-0.3-0.1c-0.1-0.1-0.1-0.1-0.1-0.2
		c0-0.1,0-0.1,0-0.2c0-1.9,0.2-4.1-2.1-5.3c-0.7-0.3-1.4-0.5-2.1-0.5c-2.4,0-4.4,1.4-6.5,2.5c-3.5,1.9-7.3,3-11.2,3.5h-13.2
		c-4.4-0.5-8.7-1.3-13-2.2c-1.8-0.4-3.7-0.8-5.1-1.9c-1.1-0.9-1.9-2.1-2.9-3.1s-2.5-1.8-3.9-1.3c-0.7,0.2-1.2,0.7-1.9,0.9
		c-1.1,0.3-2.2-0.1-3.2-0.5c-1.6-0.7-3.2-1.3-4.5-2.4c-2-1.6-3.7-4.1-6.6-3.4c-1.2,0.3-2.2,1.1-2.8,2.1c-6.3,9.8,5,20.6,11.6,26.7
		c5.5,5.1,11.6,9.3,18,13.2c0.9,0.5,1.7,1,2.4,1.5c7.6,5,9.3,5.8,11.6,5.8c2,0,6.1-3,10.1-5.8c0.7-0.5,1.5-1,2.4-1.5
		c0.5-0.3,1-0.6,1.5-0.9c5-3.1,9.8-6.5,14.3-10.4c2.9-2.6,5.7-5.3,8.2-8.3c1.3-1.6,2.5-3.2,3.6-4.9
		C4382.2,915.6,4384.7,911.9,4381.7,912.2z"/>
</g>
<g>
	<path class="st12" d="M3847.2,967.6c4.9,0,8.9,4.1,8.7,9l-4.6,115c0,0-1.1,21.5-15.8,21.5c-20.6,0-34.5,0-34.5,0s-13.9,0-34.5,0
		c-14.7,0-15.8-21.5-15.8-21.5l-4.6-115c-0.2-4.9,3.7-9,8.7-9H3847.2z"/>
	<path class="st28" d="M3767.1,1016.9c-6.7,0-12.1,3.8-11.8,8.5l2.9,51.1c0,0,0.9,12.4,13.3,12.4c17.3,0,28.9,0,28.9,0
		s11.7,0,28.9,0c12.3,0,13.3-12.4,13.3-12.4l2.9-51.1c0.3-4.6-5.1-8.5-11.8-8.5H3767.1z"/>
	<path class="st29" d="M3783.4,1037.5l-13.1-8.9c-2.6-1.8-3.3-5.4-1.5-8l8.9-13.1c1.8-2.6,5.4-3.3,8-1.5l13.1,8.9
		c2.6,1.8,3.3,5.4,1.5,8l-8.9,13.1C3789.6,1038.6,3786,1039.3,3783.4,1037.5z"/>
	<path class="st29" d="M3826,1024.9l-7,2.1c-2,0.6-4-0.5-4.6-2.5l-2.1-7c-0.6-2,0.5-4,2.5-4.6l7-2.1c2-0.6,4,0.5,4.6,2.5l2.1,7
		C3829.1,1022.3,3828,1024.3,3826,1024.9z"/>
</g>
<g>
	<path class="st12" d="M4210.5,1096.3l-20.2-11.6c0,0,0.3-67.4,0.3-87.6l45.4-63h-96.1l45.3,62.8c0.1,20,0.3,87.7,0.3,87.7
		l-20.2,11.6c0,0-32.1,12.9,19.4,12.9C4245.4,1109.2,4210.5,1096.3,4210.5,1096.3z"/>
	
		<linearGradient id="SVGID_7_" gradientUnits="userSpaceOnUse" x1="4187.9502" y1="-557.4" x2="4187.9502" y2="-590.3535" gradientTransform="matrix(1 0 0 -1 0 400)">
		<stop  offset="0" style="stop-color:#14AFAB"/>
		<stop  offset="1" style="stop-color:#227893"/>
	</linearGradient>
	<polygon class="st30" points="4211.7,957.4 4187.9,990.3 4164.2,957.4 	"/>
	<path class="st31" d="M4213.6,945.3c5.3-4.6,5.8-12.7,1.2-18c-4.6-5.3-12.7-5.8-18-1.2"/>
	<rect x="4196.5" y="932.7" class="st32" width="13" height="3"/>
</g>
<path class="st33" d="M-525,166.4c-0.6-0.8-2.8-5.7-5.3-10.7c-1.7-3.4-1.8-7.2-1.7-9.3c0-0.9,0.4-1.6,0.9-2.3
	c0.4-0.5,0.8-1.4,0.8-2.8c0-2.8-55.6-3.9-55.6-3.9s-55.6,1.1-55.6,3.9c0,1.4,0.4,2.3,0.8,2.8c0.5,0.7,0.9,1.5,0.9,2.3
	c0.1,2.1,0,5.9-1.7,9.3c-2.5,5-4.6,9.9-5.3,10.7c-0.6,0.8,0,15.1,0,18.7V337c0,1,0.4,1.9,1,2.7c1.1,1.2,3.1,3.1,5.7,4.7
	c2.4,1.4,4.1,2.7,5.1,3.5c0.7,0.6,1.3,1.4,1.4,2.3l0,0c0.1,0.5,0.3,0.9,0.5,1.3l1.1,1.7c0.7,1.1,1.8,1.7,3,1.8
	c7.4,0.6,33.5,2.5,42.9,2.5c9.8,0,35.6-1.9,42.9-2.5c1.2-0.1,2.4-0.8,3-1.8l1.1-1.7c0.3-0.4,0.4-0.9,0.5-1.3l0,0
	c0.2-0.9,0.7-1.8,1.4-2.3c1-0.8,2.7-2,5.1-3.5c2.6-1.6,4.6-3.5,5.7-4.7c0.7-0.7,1-1.7,1-2.7V185C-525,181.5-524.4,167.2-525,166.4z"
	/>
<path class="st34" d="M-629.7,348.1c0,0,50.3,5.5,87.7,0"/>
<rect x="-638.6" y="236" class="st35" width="105.5" height="26.5"/>
<path class="st34" d="M-635.1,144c0,0,40.7,4.1,98.6,0"/>
<path class="st35" d="M-617.6,262.5h63.5c-3.5,24-16.4,41.8-31.7,41.8C-601.1,304.3-614.1,286.6-617.6,262.5z"/>
<path class="st35" d="M-554.1,236h-63.5c3.5-24,16.4-41.8,31.7-41.8C-570.5,194.2-557.6,212-554.1,236z"/>
<path d="M1021.8,1852.3h-23.1v-106c0-6.4,5.2-11.6,11.6-11.6l0,0c6.4,0,11.6,5.2,11.6,11.6L1021.8,1852.3L1021.8,1852.3z"/>
<path d="M1114.2,1863.9L1114.2,1863.9c0,6.4-5.2,11.6-11.6,11.6h-307c-6.4,0-11.6-5.2-11.6-11.6l0,0c0-6.4,5.2-11.6,11.6-11.6h307.1
	C1109.1,1852.3,1114.2,1857.5,1114.2,1863.9z"/>
<path d="M1639.3,2058.5L1639.3,2058.5c0,6.4-5.2,11.6-11.6,11.6h-307.1c-6.4,0-11.6-5.2-11.6-11.6l0,0c0-6.4,5.2-11.6,11.6-11.6
	h307.1C1634.2,2046.9,1639.3,2052.1,1639.3,2058.5z"/>
<path d="M1050.2,1748.3L1050.2,1748.3c-4.5,4.5-11.8,4.5-16.3,0l-99.2-99.2c-4.5-4.5-4.5-11.8,0-16.3l0,0c4.5-4.5,11.8-4.5,16.3,0
	l99.2,99.2C1054.7,1736.5,1054.7,1743.8,1050.2,1748.3z"/>
<path d="M834.4,1748.3L834.4,1748.3c4.5,4.5,11.8,4.5,16.3,0l99.2-99.2c4.5-4.5,4.5-11.8,0-16.3l0,0c-4.5-4.5-11.8-4.5-16.3,0
	l-99.2,99.2C829.9,1736.5,829.9,1743.8,834.4,1748.3z"/>
<path d="M885.7,1852.3h-23.1v-106c0-6.4,5.2-11.6,11.6-11.6l0,0c6.4,0,11.6,5.2,11.6,11.6L885.7,1852.3L885.7,1852.3z"/>
<path d="M946.4,1852.3h-43.1v-52.4c0-11.9,9.7-21.6,21.6-21.6l0,0c11.9,0,21.6,9.7,21.6,21.6L946.4,1852.3L946.4,1852.3z"/>
<path d="M1532.5,1923.2h-109.4c-4.3,0-7.9,3.5-7.9,7.9l0,0c0,13.9-11.3,25.2-25.2,25.2l0,0c-10.3,0-18.6,8.3-18.6,18.6v33.7H1568
	c13.8,0,24.9-11.2,24.9-24.9l0,0C1592.9,1950.3,1565.9,1923.2,1532.5,1923.2z"/>
<path d="M1570.3,1945.5h-38.5c-8.7,0-15.8-7.1-15.8-15.8v-38.5c0-8.7,7.1-15.8,15.8-15.8h38.5c8.7,0,15.8,7.1,15.8,15.8v38.5
	C1586.1,1938.5,1579.1,1945.5,1570.3,1945.5z"/>
</svg>
