<?xml version="1.0" encoding="utf-8"?>
<!-- Generator: Adobe Illustrator 22.0.1, SVG Export Plug-In . SVG Version: 6.00 Build 0)  -->
<svg version="1.1" id="Layer_1" xmlns="http://www.w3.org/2000/svg" xmlns:xlink="http://www.w3.org/1999/xlink" x="0px" y="0px"
	 viewBox="0 0 248.7 277.6" style="enable-background:new 0 0 248.7 277.6;" xml:space="preserve">
<style type="text/css">
	.st0{display:none;}
	.st1{display:inline;fill:#FFFFFF;stroke:#000000;stroke-miterlimit:10;}
	.st2{fill:#707B7F;}
	.st3{fill:#CE403F;}
	.st4{fill:#CD915F;}
	.st5{fill:#AA6628;}
	.st6{fill:#FFFFFF;}
	.st7{opacity:0.5;fill:#F9F9FA;enable-background:new    ;}
	.st8{fill:url(#SVGID_1_);}
	.st9{fill:#DDDDDD;}
	.st10{fill:#F7F7F7;}
	.st11{opacity:0.35;fill:#F4F4F5;enable-background:new    ;}
	.st12{fill:#F9F9FA;stroke:#E2E2E2;stroke-width:3;stroke-miterlimit:10;}
	.st13{fill:url(#SVGID_2_);}
	.st14{opacity:0.6;fill:#F4F4F5;enable-background:new    ;}
	.st15{display:none;fill:#34A6C9;stroke:#1B8EB7;stroke-width:10;stroke-miterlimit:10;}
	.st16{display:none;fill:#F27CA7;stroke:#C94C72;stroke-width:10;stroke-miterlimit:10;}
	.st17{fill:#476269;}
	.st18{fill:#222728;}
	.st19{fill:#DDDDDC;}
	.st20{fill:#F6F7F7;}
	.st21{fill:url(#SVGID_3_);}
	.st22{fill:url(#SVGID_4_);}
	.st23{enable-background:new    ;}
	.st24{fill:none;stroke:#E2E2E2;stroke-width:3;stroke-miterlimit:10;}
	.st25{fill:#D95F56;}
	.st26{fill:url(#SVGID_5_);}
	.st27{fill:url(#SVGID_6_);}
	.st28{opacity:0.84;fill:#E8CD2C;enable-background:new    ;}
	.st29{opacity:0.39;fill:#90D7EB;enable-background:new    ;}
	.st30{opacity:0.84;fill:url(#SVGID_7_);enable-background:new    ;}
	.st31{fill:#D2E8C9;stroke:#6EBF59;stroke-width:2;stroke-miterlimit:10;}
	.st32{fill:#E2E2E2;}
	.st33{fill:#7AC25B;}
	.st34{fill:none;stroke:#E2E2E2;stroke-miterlimit:10;}
	.st35{fill:#157D3E;stroke:#E2E2E2;stroke-width:3;stroke-miterlimit:10;}
</style>
<g id="Layer_1_1_" class="st0">
	<rect x="808.5" y="-243.1" class="st1" width="136.5" height="482"/>
</g>
<path class="st2" d="M1072.1,1534.3h-127c-11.1,0-20.2-9.1-20.2-20.2v-93.6c0-11.1,9.1-20.2,20.2-20.2h127
	c11.1,0,20.2,9.1,20.2,20.2v93.6C1092.3,1525.2,1083.2,1534.3,1072.1,1534.3z"/>
<rect x="343.3" y="-404.5" class="st3" width="658.6" height="188.9"/>
<g>
	<polygon class="st4" points="960.2,-666.8 917.9,-654.1 1010.5,-654.1 	"/>
	<polygon class="st4" points="1298.5,-666.8 1340.7,-654.1 1248.2,-654.1 	"/>
	<rect x="960.1" y="-666.8" class="st4" width="338.4" height="14.9"/>
	<rect x="917.9" y="-654.1" class="st5" width="422.8" height="11.1"/>
</g>
<g>
	<circle class="st6" cx="51.7" cy="44.8" r="6.2"/>
	<path class="st7" d="M170.1,277.6H21.2C9.5,277.6,0,268.1,0,256.4V28.7C0,17,9.5,7.5,21.2,7.5H170c11.7,0,21.2,9.5,21.2,21.2v227.7
		C191.2,268.1,181.8,277.6,170.1,277.6z"/>
	
		<linearGradient id="SVGID_1_" gradientUnits="userSpaceOnUse" x1="94.2" y1="117.7" x2="94.2" y2="-106.5217" gradientTransform="matrix(1 0 0 -1 0 158)">
		<stop  offset="0" style="stop-color:#FFCC4C"/>
		<stop  offset="1" style="stop-color:#FEBF4B"/>
	</linearGradient>
	<path class="st8" d="M153.6,265.3H34.8c-11.7,0-21.2-9.5-21.2-21.2V61.5c0-11.7,9.5-21.2,21.2-21.2h118.8
		c11.7,0,21.2,9.5,21.2,21.2v182.7C174.8,255.8,165.3,265.3,153.6,265.3z"/>
	<circle class="st9" cx="38.3" cy="38.7" r="33"/>
	<circle class="st9" cx="74" cy="29.1" r="23.4"/>
	<circle class="st9" cx="108.9" cy="39" r="23.4"/>
	<circle class="st9" cx="158.5" cy="34.2" r="28.2"/>
	<circle class="st10" cx="108.9" cy="29.9" r="23.4"/>
	<circle class="st10" cx="130.3" cy="20" r="11.7"/>
	<path class="st10" d="M50.6,20c0-1.5,0.1-2.9,0.4-4.3H8.4c-2,4.2-3.1,9-3.1,14c0,18.2,14.8,33,33,33c13.6,0,25.3-8.2,30.3-19.9
		C58.3,40.3,50.6,31,50.6,20z"/>
	<path class="st10" d="M71.3,29.6c0,4.6-1,9.1-2.7,13.1c1.7,0.4,3.5,0.6,5.4,0.6c12.9,0,23.4-10.5,23.4-23.4c0-1.5-0.1-2.9-0.4-4.3
		H68.3C70.2,19.9,71.3,24.6,71.3,29.6z"/>
	<path class="st10" d="M68.2,15.6H51c-0.3,1.4-0.4,2.8-0.4,4.3c0,11.1,7.7,20.3,18,22.7c1.7-4,2.7-8.4,2.7-13.1
		C71.3,24.6,70.2,19.9,68.2,15.6z"/>
	<path class="st10" d="M185.1,15.6H132c-1.1,3-1.6,6.1-1.6,9.5c0,15.6,12.6,28.2,28.2,28.2s28.2-12.6,28.2-28.2
		C186.7,21.8,186.1,18.6,185.1,15.6z"/>
	<path class="st10" d="M189.7,16.5c0,0-0.1-0.1-0.2-0.2C189.5,16.3,189.5,16.4,189.7,16.5L189.7,16.5z"/>
	<path class="st10" d="M185.1,15.6H68.2c-2.4-5-5.9-9.3-10.3-12.6c-3.5,3.3-5.9,7.7-6.8,12.6H8.5c0.5-1.1,1.1-2.2,1.8-3.3
		C14.5,7.7,23,0,33,0h55.4c0,0,6.7,0,16,0h55.4c13.2,0,23.9,13.4,25.3,15.3C185,15.5,185,15.6,185.1,15.6z"/>
	<path class="st10" d="M51,15.6h17.2c-2.3-5-5.9-9.3-10.3-12.6C54.4,6.4,51.9,10.7,51,15.6z"/>
	<path class="st7" d="M248.1,81.5c-2.3-11.7-10.8-20.4-21-20.4h-35.8v22.5h25.3c6,0,10.8,5.9,10.8,13.3v77.4
		c0,7.3-4.8,13.3-10.8,13.3h-25.3V211h35.8c10.7,0,19.6-9.6,21.3-22.2c0.2-1.1,0.3-2.2,0.3-3.4v-1l0,0V87.7l0,0v-1.4
		C248.7,84.5,248.5,83,248.1,81.5z"/>
	<path class="st11" d="M47.1,235.2L47.1,235.2c-6,0-10.8-4.8-10.8-10.8v-134c0-6,4.8-10.8,10.8-10.8l0,0c6,0,10.8,4.8,10.8,10.8v134
		C57.9,230.3,53.1,235.2,47.1,235.2z"/>
	<path class="st11" d="M97.3,235.2L97.3,235.2c-6,0-10.8-4.8-10.8-10.8v-134c0-6,4.8-10.8,10.8-10.8l0,0c6,0,10.8,4.8,10.8,10.8v134
		C108.1,230.3,103.3,235.2,97.3,235.2z"/>
	<path class="st11" d="M146.4,231.9L146.4,231.9c-6,0-10.8-4.8-10.8-10.8v-134c0-6,4.8-10.8,10.8-10.8l0,0c6,0,10.8,4.8,10.8,10.8
		v134C157.2,227.1,152.4,231.9,146.4,231.9z"/>
</g>
<g>
	<circle class="st6" cx="3515.6" cy="817.1" r="4.7"/>
	<path class="st12" d="M3601.5,999.3h-104.4c-11.7,0-21.2-9.5-21.2-21.2v-165c0-11.7,9.5-21.2,21.2-21.2h104.4
		c11.7,0,21.2,9.5,21.2,21.2v165C3622.7,989.8,3613.2,999.3,3601.5,999.3z"/>
	
		<linearGradient id="SVGID_2_" gradientUnits="userSpaceOnUse" x1="3548.2" y1="-659.1" x2="3548.2" y2="-831.2584" gradientTransform="matrix(1 0 0 -1 0 158)">
		<stop  offset="0" style="stop-color:#FFCC4C"/>
		<stop  offset="1" style="stop-color:#FEBF4B"/>
	</linearGradient>
	<path class="st13" d="M3588.9,989.9h-81.4c-11.7,0-21.2-9.5-21.2-21.2V838.3c0-11.7,9.5-21.2,21.2-21.2h81.4
		c11.7,0,21.2,9.5,21.2,21.2v130.4C3610.1,980.4,3600.6,989.9,3588.9,989.9z"/>
	<circle class="st9" cx="3505.2" cy="812.4" r="25.3"/>
	<circle class="st9" cx="3532.6" cy="805" r="17.9"/>
	<circle class="st9" cx="3559.5" cy="812.6" r="17.9"/>
	<circle class="st9" cx="3597.5" cy="808.9" r="21.6"/>
	<circle class="st10" cx="3559.5" cy="805.6" r="17.9"/>
	<circle class="st10" cx="3575.9" cy="798" r="9"/>
	<path class="st10" d="M3514.7,798c0-1.1,0.1-2.2,0.3-3.3h-32.7c-1.5,3.3-2.4,6.9-2.4,10.7c0,14,11.3,25.3,25.3,25.3
		c10.4,0,19.4-6.3,23.3-15.3C3520.6,813.6,3514.7,806.5,3514.7,798z"/>
	<path class="st10" d="M3530.6,805.4c0,3.6-0.7,7-2.1,10c1.3,0.3,2.7,0.5,4.1,0.5c9.9,0,17.9-8,17.9-17.9c0-1.1-0.1-2.2-0.3-3.3
		h-22.1C3529.7,797.9,3530.6,801.6,3530.6,805.4z"/>
	<path class="st10" d="M3528.2,794.7H3515c-0.2,1.1-0.3,2.2-0.3,3.3c0,8.5,5.9,15.6,13.8,17.5c1.3-3.1,2.1-6.5,2.1-10
		C3530.6,801.6,3529.7,797.9,3528.2,794.7z"/>
	<path class="st10" d="M3617.9,794.7h-40.8c-0.8,2.3-1.3,4.7-1.3,7.3c0,12,9.7,21.6,21.6,21.6s21.6-9.7,21.6-21.6
		C3619.2,799.4,3618.7,796.9,3617.9,794.7z"/>
	<path class="st10" d="M3621.5,798.8c0,0-0.1-0.1-0.1-0.2C3621.4,798.7,3621.4,798.7,3621.5,798.8L3621.5,798.8z"/>
	<path class="st10" d="M3617.9,794.7h-89.7c-1.8-3.8-4.5-7.2-7.9-9.7c-2.7,2.5-4.6,5.9-5.3,9.7h-32.7c0.4-0.9,0.9-1.7,1.4-2.5
		c3.2-3.5,9.8-9.4,17.5-9.4h42.5c0,0,5.1,0,12.3,0h42.5c10.2,0,18.3,10.3,19.4,11.8C3617.9,794.5,3617.9,794.6,3617.9,794.7z"/>
	<path class="st10" d="M3515,794.7h13.2c-1.8-3.8-4.5-7.2-7.9-9.7C3517.6,787.5,3515.7,790.9,3515,794.7z"/>
	<path class="st12" d="M3666.3,848.7c-1.7-9-8.3-15.7-16.1-15.7h-27.5v17.3h19.4c4.6,0,8.3,4.6,8.3,10.2v59.4
		c0,5.6-3.7,10.2-8.3,10.2h-19.4V948h27.5c8.2,0,15.1-7.4,16.4-17c0.1-0.8,0.2-1.7,0.2-2.6v-0.8l0,0v-74.2l0,0v-1.1
		C3666.8,851,3666.6,849.8,3666.3,848.7z"/>
	<path class="st14" d="M3512,966.7L3512,966.7c-4.6,0-8.3-3.7-8.3-8.3V855.5c0-4.6,3.7-8.3,8.3-8.3l0,0c4.6,0,8.3,3.7,8.3,8.3v102.9
		C3520.3,963,3516.6,966.7,3512,966.7z"/>
	<path class="st14" d="M3550.6,966.7L3550.6,966.7c-4.6,0-8.3-3.7-8.3-8.3V855.5c0-4.6,3.7-8.3,8.3-8.3l0,0c4.6,0,8.3,3.7,8.3,8.3
		v102.9C3558.9,963,3555.2,966.7,3550.6,966.7z"/>
	<path class="st14" d="M3588.3,964.2L3588.3,964.2c-4.6,0-8.3-3.7-8.3-8.3V853c0-4.6,3.7-8.3,8.3-8.3l0,0c4.6,0,8.3,3.7,8.3,8.3
		v102.9C3596.6,960.5,3592.9,964.2,3588.3,964.2z"/>
</g>
<path class="st15" d="M722.3,665.5v-32.9l5.8,5.8c9.5,9.5,25,9.5,34.5,0s9.5-25,0-34.5l-45-45l-2.9-2.9c-4.5-4.5-10.2-6.8-16.1-7.1
	c-0.2,0-0.5,0-0.8,0c-0.1,0-0.2,0-0.2,0c-0.1,0-0.1,0-0.2,0s-0.1,0-0.2,0c-6.3-0.1-12.7,2.3-17.5,7.2L631.8,604
	c-9.5,9.5-9.5,25,0,34.5s25,9.5,34.5,0l7.1-7.1l0.6,33.7c-34.6,10-59.9,41.9-59.9,79.8c0,45.9,37.2,83.1,83.1,83.1
	s83.1-37.2,83.1-83.1C780.3,707.6,755.9,676.2,722.3,665.5z M697.2,780c-19.4,0-35.2-15.8-35.2-35.2s15.8-35.2,35.2-35.2
	c19.4,0,35.2,15.8,35.2,35.2S716.6,780,697.2,780z"/>
<path class="st16" d="M1008.3,707.2c32.4-32.4,32.4-85.1,0-117.5s-85.1-32.4-117.5,0s-32.4,85.1,0,117.5
	c10.6,10.6,23.3,17.7,36.8,21.4v25.9H918c-12.1,0-21.9,9.8-21.9,21.9l0,0c0,12.1,9.8,21.9,21.9,21.9h9.6v9.6
	c0,12.1,9.8,21.9,21.9,21.9l0,0c12.1,0,21.9-9.8,21.9-21.9v-9.6h9.6c12.1,0,21.9-9.8,21.9-21.9l0,0c0-12.1-9.8-21.9-21.9-21.9h-9.6
	v-25.9C985,724.9,997.7,717.7,1008.3,707.2z M924.6,623.5c13.8-13.8,36-13.8,49.8,0s13.8,36,0,49.8s-36,13.8-49.8,0
	C910.9,659.6,910.9,637.3,924.6,623.5z"/>
<rect x="799.8" y="485.2" class="st17" width="578.1" height="600.5"/>
<path class="st6" d="M949.6,663.1l-59.5,59.5c-6.3,6.3-16.4,6.3-22.7,0l0,0c-6.3-6.3-6.3-16.4,0-22.7l59.5-59.5
	c6.3-6.3,16.4-6.3,22.7,0l0,0C955.9,646.7,955.9,656.8,949.6,663.1z"/>
<path class="st6" d="M986.5,722.6L927,663.1c-6.3-6.3-6.3-16.4,0-22.7l0,0c6.3-6.3,16.4-6.3,22.7,0l59.5,59.5
	c6.3,6.3,6.3,16.4,0,22.7l0,0C1002.9,728.8,992.7,728.8,986.5,722.6z"/>
<path class="st6" d="M958.2,673.7V749c0,11.9-9.6,21.5-21.5,21.5l0,0c-11.9,0-21.5-9.6-21.5-21.5v-75.2c0-11.9,9.6-21.5,21.5-21.5
	l0,0C948.6,652.2,958.2,661.9,958.2,673.7z"/>
<path class="st6" d="M938.3,749.3c-52.3,0-94.6,42.4-94.6,94.6s42.4,94.6,94.6,94.6s94.6-42.4,94.6-94.6S990.6,749.3,938.3,749.3z
	 M938.3,902.1c-32.1,0-58.2-26-58.2-58.2c0-32.1,26-58.2,58.2-58.2s58.2,26,58.2,58.2C996.5,876,970.4,902.1,938.3,902.1z"/>
<path class="st6" d="M1179,917V815.6c0-11.9,9.6-21.5,21.5-21.5l0,0c11.9,0,21.5,9.6,21.5,21.5V917c0,11.9-9.6,21.5-21.5,21.5l0,0
	C1188.6,938.5,1179,928.9,1179,917z"/>
<path class="st6" d="M1240.3,896.2h-79.6c-11.9,0-21.5-9.6-21.5-21.5l0,0c0-11.9,9.6-21.5,21.5-21.5h79.7c11.9,0,21.5,9.6,21.5,21.5
	l0,0C1261.9,886.6,1252.2,896.2,1240.3,896.2z"/>
<path class="st6" d="M1198.9,815.3c52.3,0,94.6-42.4,94.6-94.6s-42.4-94.6-94.6-94.6s-94.6,42.4-94.6,94.6
	S1146.6,815.3,1198.9,815.3z M1198.9,662.5c32.1,0,58.2,26,58.2,58.2c0,32.1-26,58.2-58.2,58.2c-32.1,0-58.2-26-58.2-58.2
	S1166.8,662.5,1198.9,662.5z"/>
<rect x="285.2" y="485.2" class="st18" width="508.9" height="434.6"/>
<path class="st6" d="M564.1,662.5L504.6,722c-6.3,6.3-16.4,6.3-22.7,0l0,0c-6.3-6.3-6.3-16.4,0-22.7l59.5-59.5
	c6.3-6.3,16.4-6.3,22.7,0l0,0C570.4,646.1,570.4,656.2,564.1,662.5z"/>
<path class="st6" d="M600.9,722l-59.5-59.5c-6.3-6.3-6.3-16.4,0-22.7l0,0c6.3-6.3,16.4-6.3,22.7,0l59.5,59.5
	c6.3,6.3,6.3,16.4,0,22.7l0,0C617.3,728.2,607.2,728.2,600.9,722z"/>
<path class="st6" d="M570.3,670.8v79.8c0,10.6-8.6,19.2-19.2,19.2l0,0c-10.6,0-19.2-8.6-19.2-19.2v-79.8c0-10.6,8.6-19.2,19.2-19.2
	l0,0C561.7,651.6,570.3,660.2,570.3,670.8z"/>
<path class="st19" d="M434.5-362.5c-18,0-34.3,7.5-45.7,19.5v83.2c11.4,12,27.6,19.5,45.7,19.5c34.4,0,62.4-27.4,62.4-61.1
	C496.9-335.2,469-362.5,434.5-362.5z"/>
<path class="st19" d="M973-333.7c-8-8.2-19.5-13.4-32.2-13.4c-24.1,0-43.7,18.4-43.7,41.1s19.6,41.1,43.7,41.1
	c12.8,0,24.3-5.2,32.2-13.4V-333.7z"/>
<ellipse class="st19" cx="516.7" cy="-314.5" rx="28" ry="27.5"/>
<ellipse class="st19" cx="591.8" cy="-307.1" rx="54.2" ry="53.1"/>
<ellipse class="st19" cx="671.1" cy="-311.8" rx="35.9" ry="35.2"/>
<ellipse class="st19" cx="736.3" cy="-327.7" rx="33.6" ry="32.9"/>
<ellipse class="st19" cx="770.5" cy="-304.3" rx="38.4" ry="37.6"/>
<ellipse class="st19" cx="833.1" cy="-312.9" rx="38" ry="37.3"/>
<ellipse class="st19" cx="882.3" cy="-324.3" rx="23.2" ry="22.7"/>
<path class="st19" d="M973-308.9H389.9c2.2-15.3,1.6-11,3.5-24.2l0,0c0-13.3,12.2-24.2,27.2-24.2h521.7c15,0,27.2,10.8,27.2,24.2
	l0,0C970.6-321,970.6-321.3,973-308.9z"/>
<circle class="st20" cx="516.7" cy="-326.7" r="28"/>
<ellipse transform="matrix(0.2298 -0.9732 0.9732 0.2298 766.3959 330.1829)" class="st20" cx="591.8" cy="-319.1" rx="54.2" ry="54.2"/>
<circle class="st20" cx="671.1" cy="-324" r="35.9"/>
<circle class="st20" cx="736.3" cy="-340.2" r="33.6"/>
<circle class="st20" cx="770.5" cy="-316.3" r="38.4"/>
<circle class="st20" cx="833.1" cy="-325.1" r="38"/>
<circle class="st20" cx="882.3" cy="-336.7" r="23.2"/>
<rect x="389.1" y="-380.2" class="st20" width="583.9" height="61.1"/>
<path class="st20" d="M973-346.9c-8-8.4-19.5-13.7-32.2-13.7c-24.1,0-43.7,18.8-43.7,41.9s19.6,41.9,43.7,41.9
	c12.8,0,24.3-5.3,32.2-13.7V-346.9z"/>
<path class="st20" d="M434.5-377.6c-18,0-34.3,7.7-45.7,19.9v84.9c11.4,12.2,27.6,19.9,45.7,19.9c34.4,0,62.4-27.9,62.4-62.4
	C496.9-349.6,469-377.6,434.5-377.6z"/>
<image style="display:none;overflow:visible;enable-background:new    ;" width="2056" height="494" xlink:href="22F02A60838E7B9D.png"  transform="matrix(0.5771 0 0 0.5771 95.9121 -179.418)">
</image>
<path class="st7" d="M-323.4,246.2c1.4,1.9,2.6,3.6,3.7,5.2c6,8.5,2.2,20.3-7.8,23.9c-8.4,3-21.4,5.2-41.4,4.8
	c-20.1,0.4-33.1-1.8-41.5-4.8c-10-3.5-13.8-15.4-7.8-23.9c1.1-1.6,2.3-3.3,3.7-5.2c8.4-11.5,11-58.3,7.8-119.2
	c-2.6-49.2-25.6-180.6-34.4-229.4c-1.7-9.7,6-18.6,16.1-18.6h112.2c10.1,0,17.8,8.9,16,18.6c-8.8,48.8-31.8,180.2-34.4,229.4
	C-334.4,188-331.8,234.8-323.4,246.2z"/>
<g>
	
		<linearGradient id="SVGID_3_" gradientUnits="userSpaceOnUse" x1="-368.95" y1="231.6649" x2="-368.95" y2="-70.8986" gradientTransform="matrix(1 0 0 -1 0 158)">
		<stop  offset="0" style="stop-color:#FFCC4C"/>
		<stop  offset="1" style="stop-color:#FEBF4B"/>
	</linearGradient>
	<path class="st21" d="M-339.8,116.2c2-38,19.8-139.3,26.5-177c1.3-7.5-4.6-14.3-12.4-14.3h-86.5c-7.8,0-13.7,6.8-12.4,14.3
		c6.8,37.6,24.5,139,26.5,177c0.9,16.3,1.2,79.1,1,92c-0.2,15.3,11.4,19.1,26.6,19.9c0.5,0,1,0,1.5,0s1,0,1.5,0
		c15.2-0.8,26.9-4.6,26.6-19.9C-341,195.2-340.7,132.4-339.8,116.2z"/>
</g>
<circle class="st14" cx="-334.1" cy="-53.1" r="6.1"/>
<ellipse transform="matrix(0.1256 -0.9921 0.9921 0.1256 -326.7127 -321.1401)" class="st14" cx="-345.5" cy="24.8" rx="53" ry="6.1"/>
<g>
	<path class="st7" d="M-793.5,265.2c0.8,2.1,0.1,4-1.5,5.5c-3.6,3.2-9.4,4.2-14,5c-11.5,1.9-23.2,2-34.8,1.9
		c-11.6,0.1-23.4,0-34.8-1.9c-4.6-0.8-10.4-1.7-14-5c-1.6-1.5-2.3-3.4-1.5-5.5c0.8-2,2.5-3.5,4.7-3.8c1.3-0.2,2.6-0.3,4-0.5
		c5.2-0.9,10.2-2.7,15-4.9c13.4-6,22-13.8,22-13.8s0.8-103,0.8-121.9s-38.2-28.4-54-46.5c-15.8-18.2,18.5-106.5,18.5-106.5h78.9
		c0,0,36.7,86.7,20.9,104.8s-56.4,29.3-56.4,48.2s0.8,121.9,0.8,121.9s8.5,7.8,22,13.8c4.8,2.1,9.8,3.9,15,4.9
		c1.3,0.2,2.6,0.3,4,0.5C-796,261.6-794.3,263.2-793.5,265.2z"/>
	
		<linearGradient id="SVGID_4_" gradientUnits="userSpaceOnUse" x1="-842.6099" y1="169.6268" x2="-842.6099" y2="59.4181" gradientTransform="matrix(1 0 0 -1 0 158)">
		<stop  offset="0" style="stop-color:#FFCC4C"/>
		<stop  offset="1" style="stop-color:#FEBF4B"/>
	</linearGradient>
	<path class="st22" d="M-800.1,75l-37.7,21.8c-3,1.7-6.8,1.7-9.8,0L-885.3,75c-0.3-0.2-0.6-0.3-0.8-0.4c-2.2-1-15.2-8.3-5.3-39.8
		l9.8-38.6c1.1-4.3,5-7.4,9.5-7.4h58.8c4.5,0,8.4,3,9.5,7.4l9.9,38.6c9.9,31.5-3.1,38.8-5.3,39.8C-799.6,74.7-799.9,74.9-800.1,75z"
		/>
	<circle class="st14" cx="-814.6" cy="11.1" r="6.1"/>
	<ellipse class="st14" cx="-814.6" cy="44.1" rx="6.1" ry="17"/>
</g>
<text transform="matrix(1 0 0 1 516.7002 24.7709)" style="font-family:'MyriadPro-Regular'; font-size:72px;">Beer</text>
<image style="display:none;overflow:visible;enable-background:new    ;" width="2056" height="986" xlink:href="22F02A60838E7B9F.png"  transform="matrix(0.5 0 0 0.5 286.3044 1315.5408)">
</image>
<image style="display:none;overflow:visible;enable-background:new    ;" width="2114" height="968" xlink:href="22F02A60838E7B9A.png"  transform="matrix(0.5 0 0 0.5 236.6443 1193.9623)">
</image>
<image style="display:none;overflow:visible;enable-background:new    ;" width="2114" height="968" xlink:href="22F02A60838E7B9B.png"  transform="matrix(0.5 0 0 0.5 73.7895 1144.4741)">
</image>
<text transform="matrix(1 0 0 1 1819.6775 -170.1443)" style="font-family:'MyriadPro-Regular'; font-size:72px;">Cocktail</text>
<image style="display:none;overflow:visible;enable-background:new    ;" width="2056" height="986" xlink:href="22F02A60838E7BA5.png"  transform="matrix(0.5 0 0 0.5 1622.793 -395.0275)">
</image>
<path class="st12" d="M1636.3,271.7c-77,0-50.8-18-50.8-18s14.7-4.4,27.8-6.6s16.3-27.3,16.3-27.3s0-73.2,0-95c0-21.9-5-22.9-5-22.9
	L1551,8.2h170.4l-73.6,93.7c0,0-5,1-5,22.9c0,21.8,0,95,0,95s3.2,25.1,16.3,27.3c13.1,2.2,27.9,6.6,27.9,6.6
	S1713.3,271.7,1636.3,271.7z"/>
<path class="st12" d="M1929.8,53.8c-12.3,13.9-52.3,27.8-58,37.6c0,0-0.4,8.6-9.1,9.1c0,0-4.5,3.2-4.5,13.2s-4.3,112,0,116.3
	s36.7,14.1,42.2,15.9s38.8,25-54,25s-59.4-23.2-54-25c5.5-1.8,37.9-11.6,42.2-15.9s0-106.3,0-116.3s-4.6-13.2-4.6-13.2
	c-8.6-0.5-9.1-9.1-9.1-9.1c-5.7-9.8-45.8-23.7-58-37.6c-12.3-13.9-9-46.6-9-46.6h184.8C1938.8,7.2,1942.1,39.9,1929.8,53.8z"/>
<path class="st12" d="M2002.5,270.5c-37.3-5.2-19.8-13.9-19.8-13.9l25.9-9.8v-107c-12.1-6.8-20.5-22.5-20.5-22.5
	c-14-24.2-5.4-143.7-5.4-143.7h60.6c0,0,8.6,119.5-5.4,143.7c0,0-8.4,15.6-20.5,22.5v107l25.9,9.8c0,0,17.5,8.7-19.8,13.9
	C2016.6,271.5,2009.5,271.5,2002.5,270.5z"/>
<path class="st12" d="M2179.1,44.7c6.4,48.4,20.4,121.1,1.3,140.2c-12.4,12.4-18.3,19.6-20.9,23.1c-1.2,1.6-1.6,3.6-1.1,5.5
	c1.2,5.2,3.3,16.3,0.7,21c-0.9,1.7-1.8,3.3-2.5,4.9c-1.8,3.9,0.5,8.5,4.7,9.4l17.8,3.9c0.2,0,0.4,0.1,0.7,0.2
	c4.1,1.3,41,14.1-33.3,18.8c-0.3,0-0.6,0-0.9,0c-74.3-4.7-37.3-17.5-33.3-18.8c0.2-0.1,0.4-0.1,0.7-0.2l17.8-3.9
	c4.2-0.9,6.5-5.5,4.7-9.4c-0.7-1.5-1.5-3.2-2.5-4.9c-2.6-4.8-0.5-15.8,0.7-21c0.4-1.9,0-3.9-1.1-5.5c-2.6-3.5-8.5-10.7-20.9-23.1
	c-19.1-19.1-5.1-91.8,1.3-140.2c3.8-29-3.8-48-10.5-58.5c-2.9-4.5,0.4-10.3,5.7-10.3h76c5.3,0,8.5,5.9,5.7,10.3
	C2182.9-3.3,2175.2,15.6,2179.1,44.7z"/>
<image style="display:none;overflow:visible;enable-background:new    ;" width="2114" height="968" xlink:href="22F02A60838E7BA7.png"  transform="matrix(0.5 0 0 0.5 1573.1331 -516.6059)">
</image>
<path class="st12" d="M2347.5,2.1v251.8c0,7.3-5.6,13.4-12.8,14l-24.3,2.2c-11.8,1-23.6,1-35.4,0l-24.3-2.2
	c-7.3-0.6-12.8-6.7-12.8-14V2.1c0-7.8,6.3-14.1,14.1-14.1h81.5C2341.2-12,2347.5-5.7,2347.5,2.1z"/>
<image style="display:none;overflow:visible;enable-background:new    ;" width="2114" height="968" xlink:href="22F02A60838E7BAA.png"  transform="matrix(0.5 0 0 0.5 1410.2782 -566.0941)">
</image>
<path class="st12" d="M2492.3,0.7l-5,253.9c-0.1,5.5-3.8,10.2-9.1,11.7c-7.7,2.2-21.6,4.6-45.8,5c-24.2-0.3-38-2.7-45.8-5
	c-5.3-1.5-8.9-6.2-9.1-11.7l-5-253.9c-0.1-7,5.5-12.7,12.4-12.7h94.7C2486.9-12,2492.5-6.2,2492.3,0.7z"/>
<path class="st12" d="M2585.2,269.5c-59.6,0.5-52.6-4.3-34.3-14.3c16.8-9.2,12.4-29.6,11.5-32.8c-0.1-0.3-0.1-0.7-0.2-1L2540-74
	c-0.3-3.5,2.5-6.6,6.1-6.6h78.3c3.6,0,6.4,3,6.1,6.6l-22.3,295.3c0,0.3-0.1,0.7-0.2,1c-0.8,3.3-5.3,23.7,11.5,32.8
	C2637.8,265.2,2644.8,270,2585.2,269.5z"/>
<image style="display:none;overflow:visible;enable-background:new    ;" width="2056" height="986" xlink:href="22F02A60838E7BAB.png"  transform="matrix(0.5 0 0 0.5 1622.793 473.6507)">
</image>
<image style="display:none;overflow:visible;enable-background:new    ;" width="2114" height="968" xlink:href="22F02A60838E7BAD.png"  transform="matrix(0.5 0 0 0.5 1573.1331 352.0723)">
</image>
<image style="display:none;overflow:visible;enable-background:new    ;" width="2114" height="968" xlink:href="CB61FF30397DDB6.png"  transform="matrix(0.5 0 0 0.5 1410.2782 302.5841)">
</image>
<text transform="matrix(1 0 0 1 1819.6782 702.5115)" style="font-family:'MyriadPro-Regular'; font-size:72px;">Lhao</text>
<path class="st12" d="M1825.7,975.3c-23.7,31.1-43,36.1-53.2,41.7s-16.2,26.8,3.2,30.9c19.4,4.2,27.9,6.7,27.9,6.7
	s35.7,18.2-50,18.2c-86.4,0-50-18.2-50-18.2s8.4-2.5,27.8-6.7c19.4-4.1,13.4-25.4,3.2-30.9c-10.2-5.6-29.4-10.5-53.2-41.7
	c-23.7-31.1,24.6-122.1,24.6-122.1h95C1801.1,853.2,1849.5,944.1,1825.7,975.3z"/>
<path class="st24" d="M1905.4,1072.8c-66.8-0.8-42.6-10.7-26.2-11.9c16.4-1.2,21.7-15.2,21.7-15.2s-0.8-91.8,0-107.3
	c0.8-15.6-11.7-23.3-11.7-23.3c-30.1-32-16.2-104.1-16.2-104.1h64.7c0,0,13.9,72.1-16.2,104.1c0,0-12.5,7.8-11.7,23.3
	c0.8,15.6,0,107.3,0,107.3s5.3,13.9,21.7,15.2C1948,1062.2,1972.2,1072,1905.4,1072.8z"/>
<path class="st12" d="M2015.4,1072.8c-39.6,0-30.4-5.9-23.1-9.4c7-3.4,15.4-9.1,15.4-9.1l1.3-28.9c0.9-20.1-4.1-22.3-8.8-29.2
	c-4.7-6.9-5.6-11.3-10-27.3s-1.9-68.1-1.9-68.1h54.4c0,0,2.5,52.1-1.9,68.1s-5.3,20.4-10,27.3s-9.7,9.1-8.8,29.2l1.3,28.9
	c0,0,8.4,5.7,15.4,9.1C2045.8,1066.9,2055,1072.8,2015.4,1072.8z"/>
<path class="st12" d="M2153.2,951.8c4.1,0,7.4,3.4,7.2,7.5l-3.8,95.7c0,0-0.9,17.9-13.2,17.9c-17.1,0-28.7,0-28.7,0s-11.6,0-28.7,0
	c-12.3,0-13.2-17.9-13.2-17.9l-3.8-95.7c-0.2-4.1,3.1-7.5,7.2-7.5H2153.2z"/>
<ellipse class="st14" cx="2083.7" cy="1012.3" rx="2.7" ry="39.4"/>
<ellipse class="st14" cx="2093.8" cy="1012.3" rx="2.7" ry="39.4"/>
<ellipse class="st14" cx="2110.8" cy="1012.3" rx="2.7" ry="39.4"/>
<ellipse class="st14" cx="2121.1" cy="1012.3" rx="2.7" ry="39.4"/>
<ellipse class="st14" cx="2138.4" cy="1012.3" rx="2.7" ry="39.4"/>
<ellipse class="st14" cx="2146.5" cy="1012.3" rx="2.7" ry="39.4"/>
<path class="st14" d="M2089.8,1059c-0.7,0-1.3,4.6-1.7,12.3h3.5C2091.1,1063.6,2090.5,1059,2089.8,1059z"/>
<path class="st14" d="M2116.1,1057.3c-0.7,0-1.4,5.3-1.8,13.9h3.7C2117.4,1062.6,2116.8,1057.3,2116.1,1057.3z"/>
<path class="st14" d="M2142.2,1059c-0.7,0-1.3,4.6-1.7,12.3h3.5C2143.5,1063.6,2142.9,1059,2142.2,1059z"/>
<image style="display:none;overflow:visible;enable-background:new    ;" width="2056" height="986" xlink:href="CB61FF30397DDB1.png"  transform="matrix(0.5 0 0 0.5 2970.9688 473.6507)">
</image>
<image style="display:none;overflow:visible;enable-background:new    ;" width="2114" height="968" xlink:href="CB61FF30397DDB2.png"  transform="matrix(0.5 0 0 0.5 2921.3086 352.0723)">
</image>
<image style="display:none;overflow:visible;enable-background:new    ;" width="2114" height="968" xlink:href="CB61FF30397DDB0.png"  transform="matrix(0.5 0 0 0.5 2758.4539 302.5841)">
</image>
<image style="display:none;overflow:visible;enable-background:new    ;" width="2056" height="986" xlink:href="CB61FF30397DDCE.png"  transform="matrix(0.5 0 0 0.5 2970.9688 -395.0275)">
</image>
<image style="display:none;overflow:visible;enable-background:new    ;" width="2114" height="968" xlink:href="CB61FF30397DDD1.png"  transform="matrix(0.5 0 0 0.5 2921.3086 -516.6059)">
</image>
<image style="display:none;overflow:visible;enable-background:new    ;" width="2114" height="968" xlink:href="CB61FF30397DDD2.png"  transform="matrix(0.5 0 0 0.5 2758.4539 -566.0941)">
</image>
<text transform="matrix(1 0 0 1 3074.1304 -170.1444)" style="font-family:'MyriadPro-Regular'; font-size:72px;">Wine</text>
<path class="st12" d="M3021.5,269.5c-103.5-0.2-51.2-11.8-48-12.5c0.1,0,0.2,0,0.3-0.1c1.8-0.5,17.6-5.2,22.9-8.2
	c5.5-3.2,14.6-18.7,14.8-25.7c0.2-6.3-4-21.5-5-25.2c-0.1-0.5-0.4-1-0.7-1.5c-7.5-11-1.3-17.9,3.1-24.8c4.5-7,2-23.6-1.9-30
	c-3.8-6.4-13.9-31.9-17.7-51c-3.1-15.9-27.1-81.2-35-102.7c-1.2-3.3,1.2-6.9,4.8-6.9l126.2,0.3c3.6,0,6,3.6,4.8,6.9
	c-8.1,21.4-32.3,86.6-35.5,102.5c-3.9,19.1-14.1,44.6-18,50.9c-3.8,6.4-6.4,22.9-2,30c4.4,6.9,10.5,13.9,3,24.8
	c-0.3,0.5-0.6,0.9-0.7,1.5c-1,3.6-5.3,18.9-5.1,25.2c0.2,7,9.2,22.6,14.7,25.8c5.2,3.1,21.1,7.8,22.8,8.3c0.1,0,0.2,0.1,0.3,0.1
	C3072.8,257.9,3125,269.8,3021.5,269.5z"/>
<path class="st12" d="M3170.1,144.3v101.1c0,0,16.4,7.2,26.1,10.7c8.8,3.2,30.8,14.5-32.3,14.5s-41.1-11.3-32.3-14.5
	c9.7-3.5,26-10.7,26-10.7V144.3c0,0-3.9-2.4-12.9-8.9c-10.2-7.4-27.4-26.8-33.9-48.7c-6.6-21.9,9.9-105.6,9.9-105.6h86.5
	c0,0,16.4,83.8,9.9,105.6c-6.6,21.9-23.7,41.3-33.9,48.7C3174.1,141.9,3170.1,144.3,3170.1,144.3z"/>
<path class="st12" d="M3315.3,120.7c0,6.3-0.4,117.8-0.4,117.8l25.6,14.7c0,0,44.2,16.3-32.6,16.3s-32.6-16.3-32.6-16.3l25.6-14.7
	c0,0-0.4-111.5-0.4-117.8s-3.1-8-8.5-11.4s-25-14.8-35.1-32.4s12.4-95.9,12.4-95.9h77.3c0,0,22.5,78.4,12.4,95.9
	c-10.1,17.6-29.7,29-35.1,32.4C3318.4,112.7,3315.3,114.4,3315.3,120.7z"/>
<path class="st12" d="M3456,161.4c0,4.6,0,69.5,0,69.5s15.3,22.4,24.2,23s44.4,15.5-32.5,15.5s-41.4-14.9-32.5-15.5s24.2-23,24.2-23
	s0-65,0-69.5c0-4.6-3.6-7.7-3.6-7.7c-1.6-16.3-19.1-29.2-43.9-55.9c-24.7-26.7,8-99.8,8-99.8h95.6c0,0,32.7,73.1,8,99.8
	s-42.3,39.6-43.9,55.9C3459.6,153.7,3456,156.8,3456,161.4z"/>
<path class="st25" d="M1067.7,1529.3H949.5c-10.7,0-19.4-8.7-19.4-19.4v-118.2c0-10.7,8.7-19.4,19.4-19.4h118.2
	c10.7,0,19.4,8.7,19.4,19.4V1510C1087.1,1520.6,1078.3,1529.3,1067.7,1529.3z"/>
<path class="st6" d="M930.1,1423.8v86.2c0,10.7,8.7,19.4,19.4,19.4h118.2c10.7,0,19.4-8.7,19.4-19.4v-86.2H930.1z"/>
<text transform="matrix(1 0 0 1 984.808 1405.9027)" class="st6" style="font-family:'Cloud-Bold'; font-size:26px;">DAY</text>
<g>
	<path class="st12" d="M3901.7,842.1c0,6.3-0.4,117.8-0.4,117.8l25.6,14.7c0,0,44.2,16.3-32.6,16.3c-65.3,0-24.6-16.3-24.6-16.3
		l25.6-14.7c0,0-0.4-111.5-0.4-117.8s-3.1-8-8.5-11.4s-25-14.8-35.1-32.4c-10.1-17.6,12.4-95.9,12.4-95.9h69.3
		c0,0,22.5,78.4,12.4,95.9c-10.1,17.6-29.7,29-35.1,32.4C3904.8,834,3901.7,835.8,3901.7,842.1z"/>
	
		<linearGradient id="SVGID_5_" gradientUnits="userSpaceOnUse" x1="3936.4509" y1="-614.7198" x2="3935.9895" y2="-623.4854" gradientTransform="matrix(1 0 0 -1 0 158)">
		<stop  offset="0" style="stop-color:#AE4F6F"/>
		<stop  offset="1" style="stop-color:#6C365E"/>
	</linearGradient>
	<path class="st26" d="M3934.6,777.7c-0.3-1.5,0.2-3,1.3-4.1c0.2-0.2,0.4-0.4,0.7-0.4c0.7-0.1,1.3,0.6,1.4,1.3
		c0.3,1.4-0.7,3-2.2,3.4c-0.5,0.1-1.1,0-1.3-0.4"/>
	
		<linearGradient id="SVGID_6_" gradientUnits="userSpaceOnUse" x1="3898.3521" y1="-616.9861" x2="3898.3521" y2="-669.4634" gradientTransform="matrix(1 0 0 -1 0 158)">
		<stop  offset="0" style="stop-color:#AE4F6F"/>
		<stop  offset="1" style="stop-color:#6C365E"/>
	</linearGradient>
	<path class="st27" d="M3940.4,791.2c-0.7,0.1-1.3,0.5-2,0.8s-1.6,0.4-2.3,0.2c-0.1,0-0.2,0-0.3-0.1c-0.1-0.1-0.1-0.1-0.1-0.2
		c0-0.1,0-0.1,0-0.2c0-1.9,0.2-4.1-2.1-5.3c-0.7-0.3-1.4-0.5-2.1-0.5c-2.4,0-4.4,1.4-6.5,2.5c-3.5,1.9-7.3,3-11.2,3.5h-13.2
		c-4.4-0.5-8.7-1.3-13-2.2c-1.8-0.4-3.7-0.8-5.1-1.9c-1.1-0.9-1.9-2.1-2.9-3.1s-2.5-1.8-3.9-1.3c-0.7,0.2-1.2,0.7-1.9,0.9
		c-1.1,0.3-2.2-0.1-3.2-0.5c-1.6-0.7-3.2-1.3-4.5-2.4c-2-1.6-3.7-4.1-6.6-3.4c-1.2,0.3-2.2,1.1-2.8,2.1c-6.3,9.8,5,20.6,11.6,26.7
		c5.5,5.1,11.6,9.3,18,13.2c0.9,0.5,1.7,1,2.4,1.5c7.6,5,9.3,5.8,11.6,5.8c2,0,6.1-3,10.1-5.8c0.7-0.5,1.5-1,2.4-1.5
		c0.5-0.3,1-0.6,1.5-0.9c5-3.1,9.8-6.5,14.3-10.4c2.9-2.6,5.7-5.3,8.2-8.3c1.3-1.6,2.5-3.2,3.6-4.9
		C3940.9,794.6,3943.4,790.9,3940.4,791.2z"/>
</g>
<g>
	<path class="st12" d="M3405.9,846.6c4.9,0,8.9,4.1,8.7,9l-4.6,115c0,0-1.1,21.5-15.8,21.5c-20.6,0-34.5,0-34.5,0s-13.9,0-34.5,0
		c-14.7,0-15.8-21.5-15.8-21.5l-4.6-115c-0.2-4.9,3.7-9,8.7-9H3405.9z"/>
	<path class="st28" d="M3325.8,895.9c-6.7,0-12.1,3.8-11.8,8.5l2.9,51.1c0,0,0.9,12.4,13.3,12.4c17.3,0,28.9,0,28.9,0s11.7,0,28.9,0
		c12.3,0,13.3-12.4,13.3-12.4l2.9-51.1c0.3-4.6-5.1-8.5-11.8-8.5H3325.8z"/>
	<path class="st29" d="M3342.1,916.5l-13.1-8.9c-2.6-1.8-3.3-5.4-1.5-8l8.9-13.1c1.8-2.6,5.4-3.3,8-1.5l13.1,8.9
		c2.6,1.8,3.3,5.4,1.5,8l-8.9,13.1C3348.3,917.6,3344.7,918.3,3342.1,916.5z"/>
	<path class="st29" d="M3384.7,903.9l-7,2.1c-2,0.6-4-0.5-4.6-2.5l-2.1-7c-0.6-2,0.5-4,2.5-4.6l7-2.1c2-0.6,4,0.5,4.6,2.5l2.1,7
		C3387.8,901.3,3386.7,903.3,3384.7,903.9z"/>
</g>
<g>
	<path class="st12" d="M3769.2,975.3l-20.2-11.6c0,0,0.3-67.4,0.3-87.6l45.4-63h-96.1l45.3,62.8c0.1,20,0.3,87.7,0.3,87.7
		l-20.2,11.6c0,0-32.1,12.9,19.4,12.9C3804.1,988.2,3769.2,975.3,3769.2,975.3z"/>
	
		<linearGradient id="SVGID_7_" gradientUnits="userSpaceOnUse" x1="3746.6501" y1="-678.4" x2="3746.6501" y2="-711.3535" gradientTransform="matrix(1 0 0 -1 0 158)">
		<stop  offset="0" style="stop-color:#14AFAB"/>
		<stop  offset="1" style="stop-color:#227893"/>
	</linearGradient>
	<polygon class="st30" points="3770.4,836.4 3746.6,869.3 3722.9,836.4 	"/>
	<path class="st31" d="M3772.3,824.3c5.3-4.6,5.8-12.7,1.2-18c-4.6-5.3-12.7-5.8-18-1.2"/>
	<rect x="3755.2" y="811.7" class="st32" width="13" height="3"/>
</g>
<path class="st33" d="M-966.3,45.4c-0.6-0.8-2.8-5.7-5.3-10.7c-1.7-3.4-1.8-7.2-1.7-9.3c0-0.9,0.4-1.6,0.9-2.3
	c0.4-0.5,0.8-1.4,0.8-2.8c0-2.8-55.6-3.9-55.6-3.9s-55.6,1.1-55.6,3.9c0,1.4,0.4,2.3,0.8,2.8c0.5,0.7,0.9,1.5,0.9,2.3
	c0.1,2.1,0,5.9-1.7,9.3c-2.5,5-4.6,9.9-5.3,10.7c-0.6,0.8,0,15.1,0,18.7V216c0,1,0.4,1.9,1,2.7c1.1,1.2,3.1,3.1,5.7,4.7
	c2.4,1.4,4.1,2.7,5.1,3.5c0.7,0.6,1.3,1.4,1.4,2.3l0,0c0.1,0.5,0.3,0.9,0.5,1.3l1.1,1.7c0.7,1.1,1.8,1.7,3,1.8
	c7.4,0.6,33.5,2.5,42.9,2.5c9.8,0,35.6-1.9,42.9-2.5c1.2-0.1,2.4-0.8,3-1.8l1.1-1.7c0.3-0.4,0.4-0.9,0.5-1.3l0,0
	c0.2-0.9,0.7-1.8,1.4-2.3c1-0.8,2.7-2,5.1-3.5c2.6-1.6,4.6-3.5,5.7-4.7c0.7-0.7,1-1.7,1-2.7V64C-966.3,60.5-965.7,46.2-966.3,45.4z"
	/>
<path class="st34" d="M-1071,227.1c0,0,50.3,5.5,87.7,0"/>
<rect x="-1079.9" y="115" class="st35" width="105.5" height="26.5"/>
<path class="st34" d="M-1076.4,23c0,0,40.7,4.1,98.6,0"/>
<path class="st35" d="M-1058.9,141.5h63.5c-3.5,24-16.4,41.8-31.7,41.8S-1055.4,165.6-1058.9,141.5z"/>
<path class="st35" d="M-995.4,115h-63.5c3.5-24,16.4-41.8,31.7-41.8C-1011.8,73.2-998.9,91-995.4,115z"/>
<path d="M580.5,1731.3h-23.1v-106c0-6.4,5.2-11.6,11.6-11.6l0,0c6.4,0,11.6,5.2,11.6,11.6L580.5,1731.3L580.5,1731.3z"/>
<path d="M672.9,1742.9L672.9,1742.9c0,6.4-5.2,11.6-11.6,11.6h-307c-6.4,0-11.6-5.2-11.6-11.6l0,0c0-6.4,5.2-11.6,11.6-11.6h307.1
	C667.8,1731.3,672.9,1736.5,672.9,1742.9z"/>
<path d="M1198,1937.5L1198,1937.5c0,6.4-5.2,11.6-11.6,11.6H879.3c-6.4,0-11.6-5.2-11.6-11.6l0,0c0-6.4,5.2-11.6,11.6-11.6h307.1
	C1192.9,1925.9,1198,1931.1,1198,1937.5z"/>
<path d="M608.9,1627.3L608.9,1627.3c-4.5,4.5-11.8,4.5-16.3,0l-99.2-99.2c-4.5-4.5-4.5-11.8,0-16.3l0,0c4.5-4.5,11.8-4.5,16.3,0
	l99.2,99.2C613.4,1615.5,613.4,1622.8,608.9,1627.3z"/>
<path d="M393.1,1627.3L393.1,1627.3c4.5,4.5,11.8,4.5,16.3,0l99.2-99.2c4.5-4.5,4.5-11.8,0-16.3l0,0c-4.5-4.5-11.8-4.5-16.3,0
	l-99.2,99.2C388.6,1615.5,388.6,1622.8,393.1,1627.3z"/>
<path d="M444.4,1731.3h-23.1v-106c0-6.4,5.2-11.6,11.6-11.6l0,0c6.4,0,11.6,5.2,11.6,11.6L444.4,1731.3L444.4,1731.3z"/>
<path d="M505.1,1731.3H462v-52.4c0-11.9,9.7-21.6,21.6-21.6l0,0c11.9,0,21.6,9.7,21.6,21.6L505.1,1731.3L505.1,1731.3z"/>
<path d="M1091.2,1802.2H981.8c-4.3,0-7.9,3.5-7.9,7.9l0,0c0,13.9-11.3,25.2-25.2,25.2l0,0c-10.3,0-18.6,8.3-18.6,18.6v33.7h196.6
	c13.8,0,24.9-11.2,24.9-24.9l0,0C1151.6,1829.3,1124.6,1802.2,1091.2,1802.2z"/>
<path d="M1129,1824.5h-38.5c-8.7,0-15.8-7.1-15.8-15.8v-38.5c0-8.7,7.1-15.8,15.8-15.8h38.5c8.7,0,15.8,7.1,15.8,15.8v38.5
	C1144.8,1817.5,1137.8,1824.5,1129,1824.5z"/>
</svg>
