<?xml version="1.0" encoding="utf-8"?>
<!-- Generator: Adobe Illustrator 22.0.1, SVG Export Plug-In . SVG Version: 6.00 Build 0)  -->
<svg version="1.1" id="Layer_1" xmlns="http://www.w3.org/2000/svg" xmlns:xlink="http://www.w3.org/1999/xlink" x="0px" y="0px"
	 viewBox="0 0 99.3 288.5" style="enable-background:new 0 0 99.3 288.5;" xml:space="preserve">
<style type="text/css">
	.st0{display:none;}
	.st1{display:inline;fill:#FFFFFF;stroke:#000000;stroke-miterlimit:10;}
	.st2{fill:#707B7F;}
	.st3{fill:#CE403F;}
	.st4{fill:#FFFFFF;}
	.st5{fill:#CD915F;}
	.st6{fill:#AA6628;}
	.st7{opacity:0.5;fill:#F9F9FA;enable-background:new    ;}
	.st8{fill:url(#SVGID_1_);}
	.st9{fill:#DDDDDD;}
	.st10{fill:#F7F7F7;}
	.st11{opacity:0.35;fill:#F4F4F5;enable-background:new    ;}
	.st12{fill:url(#SVGID_2_);}
	.st13{opacity:0.6;fill:#F4F4F5;enable-background:new    ;}
	.st14{display:none;fill:#34A6C9;stroke:#1B8EB7;stroke-width:10;stroke-miterlimit:10;}
	.st15{display:none;fill:#F27CA7;stroke:#C94C72;stroke-width:10;stroke-miterlimit:10;}
	.st16{fill:#476269;}
	.st17{fill:#222728;}
	.st18{fill:#DDDDDC;}
	.st19{fill:#F6F7F7;}
	.st20{fill:url(#SVGID_3_);}
	.st21{fill:url(#SVGID_4_);}
	.st22{enable-background:new    ;}
	.st23{fill:#F9F9FA;stroke:#E2E2E2;stroke-width:3;stroke-miterlimit:10;}
	.st24{fill:none;stroke:#E2E2E2;stroke-width:3;stroke-miterlimit:10;}
	.st25{fill:#D95F56;}
	.st26{fill:url(#SVGID_5_);}
	.st27{fill:url(#SVGID_6_);}
	.st28{opacity:0.84;fill:#E8CD2C;enable-background:new    ;}
	.st29{opacity:0.39;fill:#90D7EB;enable-background:new    ;}
	.st30{opacity:0.84;fill:url(#SVGID_7_);enable-background:new    ;}
	.st31{fill:#D2E8C9;stroke:#6EBF59;stroke-width:2;stroke-miterlimit:10;}
	.st32{fill:none;}
	.st33{fill:#E4F1DD;}
	.st34{fill:#7AC25B;}
	.st35{fill:none;stroke:#E2E2E2;stroke-miterlimit:10;}
	.st36{fill:#157D3E;stroke:#E2E2E2;stroke-width:3;stroke-miterlimit:10;}
</style>
<g id="Layer_1_1_" class="st0">
	<rect x="-3040.1" y="-945.5" class="st1" width="136.5" height="482"/>
</g>
<path class="st2" d="M-2776.5,832h-127c-11.1,0-20.2-9.1-20.2-20.2v-93.6c0-11.1,9.1-20.2,20.2-20.2h127c11.1,0,20.2,9.1,20.2,20.2
	v93.6C-2756.3,822.9-2765.4,832-2776.5,832z"/>
<rect x="-3505.2" y="-1106.9" class="st3" width="658.6" height="188.9"/>
<circle class="st4" cx="-4079.6" cy="-657.5" r="6.2"/>
<g>
	<polygon class="st5" points="-2888.4,-1369.1 -2930.6,-1356.5 -2838.1,-1356.5 	"/>
	<polygon class="st5" points="-2550,-1369.1 -2507.9,-1356.5 -2600.4,-1356.5 	"/>
	<rect x="-2888.5" y="-1369.1" class="st5" width="338.4" height="14.9"/>
	<rect x="-2930.6" y="-1356.5" class="st6" width="422.8" height="11.1"/>
</g>
<path class="st7" d="M-3961.3-424.8h-148.8c-11.7,0-21.2-9.5-21.2-21.2v-227.6c0-11.7,9.5-21.2,21.2-21.2h148.8
	c11.7,0,21.2,9.5,21.2,21.2v227.7C-3940.1-434.3-3949.6-424.8-3961.3-424.8z"/>
<linearGradient id="SVGID_1_" gradientUnits="userSpaceOnUse" x1="-4037.2471" y1="1048.9" x2="-4037.2471" y2="824.6784" gradientTransform="matrix(1 0 0 -1 0 386.8)">
	<stop  offset="0" style="stop-color:#FFCC4C"/>
	<stop  offset="1" style="stop-color:#FEBF4B"/>
</linearGradient>
<path class="st8" d="M-3977.8-437h-118.8c-11.7,0-21.2-9.5-21.2-21.2v-182.7c0-11.7,9.5-21.2,21.2-21.2h118.8
	c11.7,0,21.2,9.5,21.2,21.2v182.7C-3956.6-446.5-3966.1-437-3977.8-437z"/>
<circle class="st9" cx="-4093.1" cy="-663.7" r="33"/>
<circle class="st9" cx="-4057.4" cy="-673.3" r="23.4"/>
<circle class="st9" cx="-4022.4" cy="-663.4" r="23.4"/>
<circle class="st9" cx="-3972.9" cy="-668.2" r="28.2"/>
<circle class="st10" cx="-4022.4" cy="-672.4" r="23.4"/>
<circle class="st10" cx="-4001.1" cy="-682.4" r="11.7"/>
<path class="st10" d="M-4080.8-682.4c0-1.5,0.1-2.9,0.4-4.3h-42.6c-2,4.2-3.1,9-3.1,14c0,18.2,14.8,33,33,33
	c13.6,0,25.3-8.2,30.3-19.9C-4073.1-662.1-4080.8-671.3-4080.8-682.4z"/>
<path class="st10" d="M-4060.1-672.7c0,4.6-1,9.1-2.7,13.1c1.7,0.4,3.5,0.6,5.4,0.6c12.9,0,23.4-10.5,23.4-23.4
	c0-1.5-0.1-2.9-0.4-4.3h-28.7C-4061.2-682.5-4060.1-677.7-4060.1-672.7z"/>
<path class="st10" d="M-4063.2-686.7h-17.2c-0.3,1.4-0.4,2.8-0.4,4.3c0,11.1,7.7,20.3,18,22.7c1.7-4,2.7-8.4,2.7-13.1
	C-4060.1-677.7-4061.2-682.5-4063.2-686.7z"/>
<path class="st10" d="M-3946.3-686.7h-53.1c-1.1,3-1.6,6.1-1.6,9.5c0,15.6,12.6,28.2,28.2,28.2c15.6,0,28.2-12.6,28.2-28.2
	C-3944.7-680.6-3945.3-683.8-3946.3-686.7z"/>
<path class="st10" d="M-3941.7-685.9c0,0-0.1-0.1-0.2-0.2C-3941.9-686-3941.8-685.9-3941.7-685.9L-3941.7-685.9z"/>
<path class="st10" d="M-3946.3-686.7h-116.9c-2.4-5-5.9-9.3-10.3-12.6c-3.5,3.3-5.9,7.7-6.8,12.6h-42.6c0.5-1.1,1.1-2.2,1.8-3.3
	c4.2-4.6,12.7-12.3,22.7-12.3h55.4c0,0,6.7,0,16,0h55.4c13.2,0,23.9,13.4,25.3,15.3C-3946.4-686.9-3946.4-686.8-3946.3-686.7z"/>
<path class="st10" d="M-4080.4-686.7h17.2c-2.3-5-5.9-9.3-10.3-12.6C-4077-696-4079.4-691.6-4080.4-686.7z"/>
<path class="st7" d="M-3883.3-620.9c-2.3-11.7-10.8-20.4-21-20.4h-35.8v22.5h25.3c6,0,10.8,5.9,10.8,13.3v77.4
	c0,7.3-4.8,13.3-10.8,13.3h-25.3v23.4h35.8c10.7,0,19.6-9.6,21.3-22.2c0.2-1.1,0.3-2.2,0.3-3.4v-1l0,0v-96.7l0,0v-1.4
	C-3882.7-617.8-3882.9-619.4-3883.3-620.9z"/>
<path class="st11" d="M-4084.3-467.2L-4084.3-467.2c-6,0-10.8-4.8-10.8-10.8v-134c0-6,4.8-10.8,10.8-10.8l0,0
	c6,0,10.8,4.8,10.8,10.8v134C-4073.4-472-4078.3-467.2-4084.3-467.2z"/>
<path class="st11" d="M-4034-467.2L-4034-467.2c-6,0-10.8-4.8-10.8-10.8v-134c0-6,4.8-10.8,10.8-10.8l0,0c6,0,10.8,4.8,10.8,10.8
	v134C-4023.2-472-4028.1-467.2-4034-467.2z"/>
<path class="st11" d="M-3985-470.5L-3985-470.5c-6,0-10.8-4.8-10.8-10.8v-134c0-6,4.8-10.8,10.8-10.8l0,0c6,0,10.8,4.8,10.8,10.8
	v134C-3974.1-475.3-3979-470.5-3985-470.5z"/>
<g>
	<circle class="st4" cx="-333" cy="114.7" r="4.7"/>
	<path class="st7" d="M-247.1,296.9h-104.4c-11.7,0-21.2-9.5-21.2-21.2v-165c0-11.7,9.5-21.2,21.2-21.2h104.4
		c11.7,0,21.2,9.5,21.2,21.2v165C-225.9,287.4-235.4,296.9-247.1,296.9z"/>
	
		<linearGradient id="SVGID_2_" gradientUnits="userSpaceOnUse" x1="-300.447" y1="272.1" x2="-300.447" y2="99.9416" gradientTransform="matrix(1 0 0 -1 0 386.8)">
		<stop  offset="0" style="stop-color:#FFCC4C"/>
		<stop  offset="1" style="stop-color:#FEBF4B"/>
	</linearGradient>
	<path class="st12" d="M-259.7,287.5h-81.4c-11.7,0-21.2-9.5-21.2-21.2V135.9c0-11.7,9.5-21.2,21.2-21.2h81.4
		c11.7,0,21.2,9.5,21.2,21.2v130.4C-238.5,278-248,287.5-259.7,287.5z"/>
	<circle class="st9" cx="-343.3" cy="110" r="25.3"/>
	<circle class="st9" cx="-315.9" cy="102.6" r="17.9"/>
	<circle class="st9" cx="-289.1" cy="110.2" r="17.9"/>
	<circle class="st9" cx="-251" cy="106.5" r="21.6"/>
	<circle class="st10" cx="-289.1" cy="103.3" r="17.9"/>
	<circle class="st10" cx="-272.7" cy="95.6" r="9"/>
	<path class="st10" d="M-333.9,95.6c0-1.1,0.1-2.2,0.3-3.3h-32.7c-1.5,3.3-2.4,6.9-2.4,10.7c0,14,11.3,25.3,25.3,25.3
		c10.4,0,19.4-6.3,23.3-15.3C-328,111.2-333.9,104.1-333.9,95.6z"/>
	<path class="st10" d="M-318,103c0,3.6-0.7,7-2.1,10c1.3,0.3,2.7,0.5,4.1,0.5c9.9,0,17.9-8,17.9-17.9c0-1.1-0.1-2.2-0.3-3.3h-22.1
		C-318.8,95.6-318,99.2-318,103z"/>
	<path class="st10" d="M-320.4,92.3h-13.2c-0.2,1.1-0.3,2.2-0.3,3.3c0,8.5,5.9,15.6,13.8,17.5c1.3-3.1,2.1-6.5,2.1-10
		C-318,99.2-318.8,95.6-320.4,92.3z"/>
	<path class="st10" d="M-230.6,92.3h-40.8c-0.8,2.3-1.3,4.7-1.3,7.3c0,12,9.7,21.6,21.6,21.6c12,0,21.6-9.7,21.6-21.6
		C-229.4,97-229.8,94.6-230.6,92.3z"/>
	<path class="st10" d="M-227.1,96.4c0,0-0.1-0.1-0.1-0.2C-227.2,96.3-227.2,96.4-227.1,96.4L-227.1,96.4z"/>
	<path class="st10" d="M-230.6,92.3h-89.7c-1.8-3.8-4.5-7.2-7.9-9.7c-2.7,2.5-4.6,5.9-5.3,9.7h-32.7c0.4-0.9,0.9-1.7,1.4-2.5
		c3.2-3.5,9.8-9.4,17.5-9.4h42.5c0,0,5.1,0,12.3,0h42.5c10,0,18.2,10.2,19.3,11.7C-230.7,92.2-230.7,92.2-230.6,92.3z"/>
	<path class="st10" d="M-333.6,92.3h13.2c-1.8-3.8-4.5-7.2-7.9-9.7C-331,85.2-332.9,88.5-333.6,92.3z"/>
	<path class="st7" d="M-182.3,146.3c-1.7-9-8.3-15.7-16.1-15.7h-27.5v17.3h19.4c4.6,0,8.3,4.6,8.3,10.2v59.4
		c0,5.6-3.7,10.2-8.3,10.2h-19.4v17.9h27.5c8.2,0,15.1-7.4,16.4-17c0.1-0.8,0.2-1.7,0.2-2.6v-0.8l0,0V151l0,0v-1.1
		C-181.8,148.7-182,147.5-182.3,146.3z"/>
	<path class="st13" d="M-336.6,264.3L-336.6,264.3c-4.6,0-8.3-3.7-8.3-8.3V153.1c0-4.6,3.7-8.3,8.3-8.3l0,0c4.6,0,8.3,3.7,8.3,8.3
		V256C-328.2,260.6-332,264.3-336.6,264.3z"/>
	<path class="st13" d="M-298,264.3L-298,264.3c-4.6,0-8.3-3.7-8.3-8.3V153.1c0-4.6,3.7-8.3,8.3-8.3l0,0c4.6,0,8.3,3.7,8.3,8.3V256
		C-289.7,260.6-293.4,264.3-298,264.3z"/>
	<path class="st13" d="M-260.3,261.8L-260.3,261.8c-4.6,0-8.3-3.7-8.3-8.3V150.6c0-4.6,3.7-8.3,8.3-8.3l0,0c4.6,0,8.3,3.7,8.3,8.3
		v102.9C-252,258.1-255.7,261.8-260.3,261.8z"/>
</g>
<path class="st14" d="M-3126.3-36.8v-32.9l5.8,5.8c9.5,9.5,25,9.5,34.5,0s9.5-25,0-34.5l-45-45l-2.9-2.9c-4.5-4.5-10.2-6.8-16.1-7.1
	c-0.2,0-0.5,0-0.8,0c-0.1,0-0.2,0-0.2,0c-0.1,0-0.1,0-0.2,0c-0.1,0-0.1,0-0.2,0c-6.3-0.1-12.7,2.3-17.5,7.2l-47.9,47.9
	c-9.5,9.5-9.5,25,0,34.5s25,9.5,34.5,0l7.1-7.1l0.6,33.7c-34.6,10-59.9,41.9-59.9,79.8c0,45.9,37.2,83.1,83.1,83.1
	c45.9,0,83.1-37.2,83.1-83.1C-3068.3,5.2-3092.7-26.2-3126.3-36.8z M-3151.4,77.6c-19.4,0-35.2-15.8-35.2-35.2s15.8-35.2,35.2-35.2
	s35.2,15.8,35.2,35.2S-3131.9,77.6-3151.4,77.6z"/>
<path class="st15" d="M-2840.3,4.8c32.4-32.4,32.4-85.1,0-117.5s-85.1-32.4-117.5,0s-32.4,85.1,0,117.5
	c10.6,10.6,23.3,17.7,36.8,21.4v25.9h-9.6c-12.1,0-21.9,9.8-21.9,21.9l0,0c0,12.1,9.8,21.9,21.9,21.9h9.6v9.6
	c0,12.1,9.8,21.9,21.9,21.9l0,0c12.1,0,21.9-9.8,21.9-21.9v-9.6h9.6c12.1,0,21.9-9.8,21.9-21.9l0,0c0-12.1-9.8-21.9-21.9-21.9h-9.6
	V26.2C-2863.6,22.5-2850.9,15.4-2840.3,4.8z M-2923.9-78.9c13.8-13.8,36-13.8,49.8,0s13.8,36,0,49.8s-36,13.8-49.8,0
	C-2937.7-42.8-2937.7-65.1-2923.9-78.9z"/>
<rect x="-3048.8" y="-217.2" class="st16" width="578.1" height="600.5"/>
<path class="st4" d="M-2898.9-39.3l-59.5,59.5c-6.3,6.3-16.4,6.3-22.7,0l0,0c-6.3-6.3-6.3-16.4,0-22.7l59.5-59.5
	c6.3-6.3,16.4-6.3,22.7,0l0,0C-2892.7-55.7-2892.7-45.5-2898.9-39.3z"/>
<path class="st4" d="M-2862.1,20.2l-59.5-59.5c-6.3-6.3-6.3-16.4,0-22.7l0,0c6.3-6.3,16.4-6.3,22.7,0l59.5,59.5
	c6.3,6.3,6.3,16.4,0,22.7l0,0C-2845.7,26.4-2855.9,26.4-2862.1,20.2z"/>
<path class="st4" d="M-2890.4-28.6v75.2c0,11.9-9.6,21.5-21.5,21.5l0,0c-11.9,0-21.5-9.6-21.5-21.5v-75.2c0-11.9,9.6-21.5,21.5-21.5
	l0,0C-2900-50.1-2890.4-40.5-2890.4-28.6z"/>
<path class="st4" d="M-2910.3,46.9c-52.3,0-94.6,42.4-94.6,94.6s42.4,94.6,94.6,94.6s94.6-42.4,94.6-94.6S-2858,46.9-2910.3,46.9z
	 M-2910.3,199.7c-32.1,0-58.2-26-58.2-58.2c0-32.1,26-58.2,58.2-58.2c32.1,0,58.2,26,58.2,58.2S-2878.1,199.7-2910.3,199.7z"/>
<path class="st4" d="M-2669.6,214.7V113.2c0-11.9,9.6-21.5,21.5-21.5l0,0c11.9,0,21.5,9.6,21.5,21.5v101.4
	c0,11.9-9.6,21.5-21.5,21.5l0,0C-2659.9,236.2-2669.6,226.5-2669.6,214.7z"/>
<path class="st4" d="M-2608.2,193.9h-79.7c-11.9,0-21.5-9.6-21.5-21.5l0,0c0-11.9,9.6-21.5,21.5-21.5h79.7
	c11.9,0,21.5,9.6,21.5,21.5l0,0C-2586.7,184.2-2596.4,193.9-2608.2,193.9z"/>
<path class="st4" d="M-2649.7,112.9c52.3,0,94.6-42.4,94.6-94.6s-42.4-94.6-94.6-94.6s-94.6,42.4-94.6,94.6
	S-2702,112.9-2649.7,112.9z M-2649.7-39.9c32.1,0,58.2,26,58.2,58.2c0,32.1-26,58.2-58.2,58.2c-32.1,0-58.2-26-58.2-58.2
	C-2707.9-13.8-2681.8-39.9-2649.7-39.9z"/>
<rect x="-3563.4" y="-217.2" class="st17" width="508.9" height="434.6"/>
<path class="st4" d="M-3284.5-39.9l-59.5,59.5c-6.3,6.3-16.4,6.3-22.7,0l0,0c-6.3-6.3-6.3-16.4,0-22.7l59.5-59.5
	c6.3-6.3,16.4-6.3,22.7,0l0,0C-3278.2-56.3-3278.2-46.1-3284.5-39.9z"/>
<path class="st4" d="M-3247.7,19.6l-59.5-59.5c-6.3-6.3-6.3-16.4,0-22.7l0,0c6.3-6.3,16.4-6.3,22.7,0l59.5,59.5
	c6.3,6.3,6.3,16.4,0,22.7l0,0C-3231.3,25.9-3241.4,25.9-3247.7,19.6z"/>
<path class="st4" d="M-3278.2-31.5v79.8c0,10.6-8.6,19.2-19.2,19.2l0,0c-10.6,0-19.2-8.6-19.2-19.2v-79.8c0-10.6,8.6-19.2,19.2-19.2
	l0,0C-3286.8-50.7-3278.2-42.1-3278.2-31.5z"/>
<path class="st18" d="M-3414.1-1064.9c-18,0-34.3,7.5-45.7,19.5v83.2c11.4,12,27.6,19.5,45.7,19.5c34.4,0,62.4-27.4,62.4-61.1
	C-3351.7-1037.5-3379.6-1064.9-3414.1-1064.9z"/>
<path class="st18" d="M-2875.6-1036c-8-8.2-19.5-13.4-32.2-13.4c-24.1,0-43.7,18.4-43.7,41.1s19.6,41.1,43.7,41.1
	c12.8,0,24.3-5.2,32.2-13.4V-1036z"/>
<ellipse class="st18" cx="-3331.9" cy="-1016.9" rx="28" ry="27.5"/>
<ellipse class="st18" cx="-3256.8" cy="-1009.4" rx="54.2" ry="53.1"/>
<ellipse class="st18" cx="-3177.5" cy="-1014.2" rx="35.9" ry="35.2"/>
<ellipse class="st18" cx="-3112.3" cy="-1030.1" rx="33.6" ry="32.9"/>
<ellipse class="st18" cx="-3078.1" cy="-1006.7" rx="38.4" ry="37.6"/>
<ellipse class="st18" cx="-3015.4" cy="-1015.3" rx="38" ry="37.3"/>
<ellipse class="st18" cx="-2966.2" cy="-1026.7" rx="23.2" ry="22.7"/>
<path class="st18" d="M-2875.6-1011.3h-583.1c2.2-15.3,1.6-11,3.5-24.2l0,0c0-13.3,12.2-24.2,27.2-24.2h521.7
	c15,0,27.2,10.8,27.2,24.2l0,0C-2877.9-1023.3-2878-1023.6-2875.6-1011.3z"/>
<circle class="st19" cx="-3331.9" cy="-1029.1" r="28"/>
<circle class="st19" cx="-3256.8" cy="-1021.5" r="54.2"/>
<circle class="st19" cx="-3177.5" cy="-1026.3" r="35.9"/>
<circle class="st19" cx="-3112.3" cy="-1042.5" r="33.6"/>
<circle class="st19" cx="-3078.1" cy="-1018.7" r="38.4"/>
<circle class="st19" cx="-3015.4" cy="-1027.4" r="38"/>
<circle class="st19" cx="-2966.2" cy="-1039.1" r="23.2"/>
<rect x="-3459.5" y="-1082.6" class="st19" width="583.9" height="61.1"/>
<path class="st19" d="M-2875.6-1049.3c-8-8.4-19.5-13.7-32.2-13.7c-24.1,0-43.7,18.8-43.7,41.9s19.6,41.9,43.7,41.9
	c12.8,0,24.3-5.3,32.2-13.7V-1049.3z"/>
<path class="st19" d="M-3414.1-1079.9c-18,0-34.3,7.7-45.7,19.9v84.9c11.4,12.2,27.6,19.9,45.7,19.9c34.4,0,62.4-27.9,62.4-62.4
	S-3379.6-1079.9-3414.1-1079.9z"/>
<image style="display:none;overflow:visible;enable-background:new    ;" width="2056" height="494" xlink:href="4B2C2A19E0FF9F63.png"  transform="matrix(0.5771 0 0 0.5771 -3752.7124 -881.7865)">
</image>
<path class="st7" d="M-4172-456.1c1.4,1.9,2.6,3.6,3.7,5.2c6,8.5,2.2,20.3-7.8,23.9c-8.4,3-21.4,5.2-41.4,4.8
	c-20.1,0.4-33.1-1.8-41.5-4.8c-10-3.5-13.8-15.4-7.8-23.9c1.1-1.6,2.3-3.3,3.7-5.2c8.4-11.5,11-58.3,7.8-119.2
	c-2.6-49.2-25.6-180.6-34.4-229.4c-1.7-9.7,5.9-18.6,16-18.6h112.2c10.1,0,17.8,8.9,16,18.6c-8.8,48.8-31.8,180.2-34.4,229.4
	C-4183-514.4-4180.4-467.6-4172-456.1z"/>
<g>
	
		<linearGradient id="SVGID_3_" gradientUnits="userSpaceOnUse" x1="-4217.5967" y1="1162.8333" x2="-4217.5967" y2="860.2699" gradientTransform="matrix(1 0 0 -1 0 386.8)">
		<stop  offset="0" style="stop-color:#FFCC4C"/>
		<stop  offset="1" style="stop-color:#FEBF4B"/>
	</linearGradient>
	<path class="st20" d="M-4188.4-586.2c2-38,19.8-139.3,26.5-177c1.3-7.5-4.6-14.3-12.4-14.3h-86.5c-7.8,0-13.7,6.8-12.4,14.3
		c6.8,37.6,24.5,139,26.5,177c0.9,16.3,1.2,79.1,1,92c-0.2,15.3,11.4,19.1,26.6,19.9c0.5,0,1,0,1.5,0s1,0,1.5,0
		c15.2-0.8,26.9-4.6,26.6-19.9C-4189.6-507.2-4189.3-569.9-4188.4-586.2z"/>
</g>
<circle class="st13" cx="-4182.6" cy="-755.5" r="6.1"/>
<ellipse transform="matrix(0.1256 -0.9921 0.9921 0.1256 -2995.3911 -4753.6523)" class="st13" cx="-4194.4" cy="-677.6" rx="53" ry="6.1"/>
<g>
	<path class="st7" d="M-4330.6-437.2c0.8,2.1,0.1,4-1.5,5.5c-3.6,3.2-9.4,4.2-14,5c-11.5,1.9-23.2,2-34.8,1.9
		c-11.6,0.1-23.4,0-34.8-1.9c-4.6-0.8-10.4-1.7-14-5c-1.6-1.5-2.3-3.4-1.5-5.5c0.8-2,2.5-3.5,4.7-3.8c1.3-0.2,2.6-0.3,4-0.5
		c5.2-0.9,10.2-2.7,15-4.9c13.4-6,22-13.8,22-13.8s0.8-103,0.8-121.9s-38.2-28.4-54-46.5c-15.8-18.2,18.5-106.5,18.5-106.5h78.9
		c0,0,36.7,86.7,20.9,104.8c-15.8,18.1-56.4,29.3-56.4,48.2s0.8,121.9,0.8,121.9s8.6,7.8,22,13.8c4.8,2.1,9.8,3.9,15,4.9
		c1.3,0.2,2.6,0.3,4,0.5C-4333.1-440.7-4331.4-439.2-4330.6-437.2z"/>
	
		<linearGradient id="SVGID_4_" gradientUnits="userSpaceOnUse" x1="-4379.7974" y1="1100.7953" x2="-4379.7974" y2="990.5866" gradientTransform="matrix(1 0 0 -1 0 386.8)">
		<stop  offset="0" style="stop-color:#FFCC4C"/>
		<stop  offset="1" style="stop-color:#FEBF4B"/>
	</linearGradient>
	<path class="st21" d="M-4337.2-627.3l-37.7,21.8c-3,1.7-6.8,1.7-9.8,0l-37.7-21.8c-0.3-0.2-0.6-0.3-0.8-0.4
		c-2.2-1-15.2-8.3-5.3-39.8l9.8-38.6c1.1-4.3,5-7.4,9.5-7.4h58.8c4.5,0,8.4,3,9.5,7.4l9.9,38.6c9.9,31.5-3.1,38.8-5.3,39.8
		C-4336.7-627.6-4336.9-627.5-4337.2-627.3z"/>
	<circle class="st13" cx="-4351.6" cy="-691.3" r="6.1"/>
	<ellipse class="st13" cx="-4351.6" cy="-658.3" rx="6.1" ry="17"/>
</g>
<text transform="matrix(1 0 0 1 -3488.5942 -691.2598)" style="font-family:'MyriadPro-Regular'; font-size:72px;">Beer</text>
<image style="display:none;overflow:visible;enable-background:new    ;" width="2056" height="986" xlink:href="4B2C2A19E0FF9F61.png"  transform="matrix(0.5 0 0 0.5 -3562.3201 613.1722)">
</image>
<image style="display:none;overflow:visible;enable-background:new    ;" width="2114" height="968" xlink:href="4B2C2A19E0FF9F67.png"  transform="matrix(0.5 0 0 0.5 -3611.9802 491.5938)">
</image>
<image style="display:none;overflow:visible;enable-background:new    ;" width="2114" height="968" xlink:href="4B2C2A19E0FF9F60.png"  transform="matrix(0.5 0 0 0.5 -3774.835 442.1056)">
</image>
<text transform="matrix(1 0 0 1 -2028.947 -872.5128)" style="font-family:'MyriadPro-Regular'; font-size:72px;">Cocktail</text>
<image style="display:none;overflow:visible;enable-background:new    ;" width="2056" height="986" xlink:href="4B2C2A19E0FF9F6E.png"  transform="matrix(0.5 0 0 0.5 -2225.8313 -1097.3959)">
</image>
<path class="st23" d="M-2212.3-430.6c-77,0-50.8-18-50.8-18s14.7-4.4,27.8-6.6c13.1-2.2,16.3-27.3,16.3-27.3s0-73.2,0-95
	c0-21.9-5-22.9-5-22.9l-73.6-93.7h170.4l-73.6,93.7c0,0-5,1-5,22.9c0,21.8,0,95,0,95s3.2,25.1,16.3,27.3c13.1,2.2,27.9,6.6,27.9,6.6
	S-2135.3-430.6-2212.3-430.6z"/>
<path class="st23" d="M-1918.8-648.5c-12.3,13.9-52.3,27.8-58,37.6c0,0-0.4,8.6-9.1,9.1c0,0-4.5,3.2-4.5,13.2s-4.3,112,0,116.3
	s36.7,14.1,42.2,15.9c5.5,1.8,38.8,25-54,25s-59.4-23.2-54-25c5.5-1.8,37.9-11.6,42.2-15.9c4.3-4.3,0-106.3,0-116.3
	s-4.6-13.2-4.6-13.2c-8.6-0.5-9.1-9.1-9.1-9.1c-5.7-9.8-45.8-23.7-58-37.6c-12.3-13.9-9-46.6-9-46.6h184.8
	C-1909.8-695.1-1906.5-662.4-1918.8-648.5z"/>
<path class="st23" d="M-1846-431.8c-37.3-5.2-19.8-13.9-19.8-13.9l25.9-9.8v-107c-12.1-6.8-20.5-22.5-20.5-22.5
	c-14-24.2-5.4-143.7-5.4-143.7h60.6c0,0,8.6,119.5-5.4,143.7c0,0-8.4,15.6-20.5,22.5v107l25.9,9.8c0,0,17.5,8.7-19.8,13.9
	C-1832-430.9-1839.1-430.9-1846-431.8z"/>
<path class="st23" d="M-1669.5-657.7c6.4,48.4,20.4,121.1,1.3,140.2c-12.4,12.4-18.3,19.6-20.9,23.1c-1.2,1.6-1.6,3.6-1.1,5.5
	c1.2,5.2,3.3,16.3,0.7,21c-0.9,1.7-1.8,3.3-2.5,4.9c-1.8,3.9,0.5,8.5,4.7,9.4l17.8,3.9c0.2,0,0.4,0.1,0.7,0.2
	c4.1,1.3,41,14.1-33.3,18.8c-0.3,0-0.6,0-0.9,0c-74.3-4.7-37.3-17.5-33.3-18.8c0.2-0.1,0.4-0.1,0.7-0.2l17.8-3.9
	c4.2-0.9,6.5-5.5,4.7-9.4c-0.7-1.5-1.5-3.2-2.5-4.9c-2.6-4.8-0.5-15.8,0.7-21c0.4-1.9,0-3.9-1.1-5.5c-2.6-3.5-8.5-10.7-20.9-23.1
	c-19.1-19.1-5.1-91.8,1.3-140.2c3.8-29-3.8-48-10.5-58.5c-2.9-4.5,0.4-10.3,5.7-10.3h76c5.3,0,8.5,5.9,5.7,10.3
	C-1665.7-705.7-1673.3-686.7-1669.5-657.7z"/>
<image style="display:none;overflow:visible;enable-background:new    ;" width="2114" height="968" xlink:href="4B2C2A19E0FF9F6F.png"  transform="matrix(0.5 0 0 0.5 -2275.4915 -1218.9744)">
</image>
<path class="st23" d="M-1501-700.2v251.8c0,7.3-5.6,13.4-12.8,14l-24.3,2.2c-11.8,1-23.6,1-35.4,0l-24.3-2.2
	c-7.3-0.6-12.8-6.7-12.8-14v-251.8c0-7.8,6.3-14.1,14.1-14.1h81.5C-1507.3-714.3-1501-708-1501-700.2z"/>
<image style="display:none;overflow:visible;enable-background:new    ;" width="2114" height="968" xlink:href="4B2C2A19E0FF9F62.png"  transform="matrix(0.5 0 0 0.5 -2438.3462 -1268.4625)">
</image>
<path class="st23" d="M-1356.3-701.7l-5,253.9c-0.1,5.5-3.8,10.2-9.1,11.7c-7.7,2.2-21.6,4.6-45.8,5c-24.2-0.3-38-2.7-45.8-5
	c-5.3-1.5-8.9-6.2-9.1-11.7l-5-253.9c-0.1-7,5.5-12.7,12.4-12.7h94.7C-1361.7-714.3-1356.1-708.6-1356.3-701.7z"/>
<path class="st23" d="M-1263.4-432.9c-59.6,0.5-52.6-4.3-34.3-14.3c16.8-9.2,12.4-29.6,11.5-32.8c-0.1-0.3-0.1-0.7-0.2-1
	l-22.3-295.3c-0.3-3.5,2.5-6.6,6.1-6.6h78.3c3.6,0,6.4,3,6.1,6.6l-22.3,295.3c0,0.3-0.1,0.7-0.2,1c-0.8,3.3-5.3,23.7,11.5,32.8
	C-1210.8-437.2-1203.8-432.4-1263.4-432.9z"/>
<image style="display:none;overflow:visible;enable-background:new    ;" width="2056" height="986" xlink:href="4B2C2A19E0FF9F65.png"  transform="matrix(0.5 0 0 0.5 -2225.8313 -228.7178)">
</image>
<image style="display:none;overflow:visible;enable-background:new    ;" width="2114" height="968" xlink:href="4B2C2A19E0FF9F66.png"  transform="matrix(0.5 0 0 0.5 -2275.4915 -350.2962)">
</image>
<image style="display:none;overflow:visible;enable-background:new    ;" width="2114" height="968" xlink:href="DD6215BD84F20950.png"  transform="matrix(0.5 0 0 0.5 -2438.3462 -399.7844)">
</image>
<text transform="matrix(1 0 0 1 -2028.9463 0.143)" style="font-family:'MyriadPro-Regular'; font-size:72px;">Lhao</text>
<path class="st23" d="M-2022.9,272.9c-23.7,31.1-43,36.1-53.2,41.7s-16.2,26.8,3.2,30.9c19.4,4.2,27.9,6.7,27.9,6.7
	s35.7,18.2-50,18.2c-86.4,0-50-18.2-50-18.2s8.4-2.5,27.8-6.7c19.4-4.1,13.4-25.4,3.2-30.9c-10.2-5.6-29.4-10.5-53.2-41.7
	c-23.7-31.1,24.6-122.1,24.6-122.1h95C-2047.4,150.9-1999.1,241.8-2022.9,272.9z"/>
<path class="st24" d="M-1943.1,370.5c-66.8-0.8-42.6-10.7-26.2-11.9c16.4-1.2,21.7-15.2,21.7-15.2s-0.8-91.8,0-107.3
	c0.8-15.6-11.7-23.3-11.7-23.3c-30.1-32-16.2-104.1-16.2-104.1h64.7c0,0,13.9,72.1-16.2,104.1c0,0-12.5,7.8-11.7,23.3
	c0.8,15.6,0,107.3,0,107.3s5.3,13.9,21.7,15.2C-1900.5,359.8-1876.3,369.6-1943.1,370.5z"/>
<path class="st23" d="M-1833.2,370.5c-39.6,0-30.4-5.9-23.1-9.4c7-3.4,15.4-9.1,15.4-9.1l1.3-28.9c0.9-20.1-4.1-22.3-8.8-29.2
	c-4.7-6.9-5.6-11.3-10-27.3s-1.9-68.1-1.9-68.1h54.4c0,0,2.5,52.1-1.9,68.1s-5.3,20.4-10,27.3c-4.7,6.9-9.7,9.1-8.8,29.2l1.3,28.9
	c0,0,8.4,5.7,15.4,9.1C-1802.8,364.6-1793.6,370.5-1833.2,370.5z"/>
<path class="st23" d="M-1695.4,249.4c4.1,0,7.4,3.4,7.2,7.5l-3.8,95.7c0,0-0.9,17.9-13.2,17.9c-17.1,0-28.7,0-28.7,0s-11.6,0-28.7,0
	c-12.3,0-13.2-17.9-13.2-17.9l-3.8-95.7c-0.2-4.1,3.1-7.5,7.2-7.5L-1695.4,249.4L-1695.4,249.4z"/>
<ellipse class="st13" cx="-1764.9" cy="309.9" rx="2.7" ry="39.4"/>
<ellipse class="st13" cx="-1754.8" cy="309.9" rx="2.7" ry="39.4"/>
<ellipse class="st13" cx="-1737.8" cy="309.9" rx="2.7" ry="39.4"/>
<ellipse class="st13" cx="-1727.5" cy="309.9" rx="2.7" ry="39.4"/>
<ellipse class="st13" cx="-1710.2" cy="309.9" rx="2.7" ry="39.4"/>
<ellipse class="st13" cx="-1702.1" cy="309.9" rx="2.7" ry="39.4"/>
<path class="st13" d="M-1758.7,356.6c-0.7,0-1.3,4.6-1.7,12.3h3.5C-1757.5,361.2-1758.1,356.6-1758.7,356.6z"/>
<path class="st13" d="M-1732.5,354.9c-0.7,0-1.4,5.3-1.8,13.9h3.7C-1731.2,360.2-1731.8,354.9-1732.5,354.9z"/>
<path class="st13" d="M-1706.4,356.6c-0.7,0-1.3,4.6-1.7,12.3h3.5C-1705.1,361.2-1705.7,356.6-1706.4,356.6z"/>
<image style="display:none;overflow:visible;enable-background:new    ;" width="2056" height="986" xlink:href="DD6215BD84F20957.png"  transform="matrix(0.5 0 0 0.5 -877.6558 -228.7178)">
</image>
<image style="display:none;overflow:visible;enable-background:new    ;" width="2114" height="968" xlink:href="DD6215BD84F20951.png"  transform="matrix(0.5 0 0 0.5 -927.3158 -350.2962)">
</image>
<image style="display:none;overflow:visible;enable-background:new    ;" width="2114" height="968" xlink:href="DD6215BD84F20953.png"  transform="matrix(0.5 0 0 0.5 -1090.1707 -399.7844)">
</image>
<image style="display:none;overflow:visible;enable-background:new    ;" width="2056" height="986" xlink:href="DD6215BD84F2094E.png"  transform="matrix(0.5 0 0 0.5 -877.6558 -1097.3959)">
</image>
<image style="display:none;overflow:visible;enable-background:new    ;" width="2114" height="968" xlink:href="DD6215BD84F2094F.png"  transform="matrix(0.5 0 0 0.5 -927.3158 -1218.9744)">
</image>
<image style="display:none;overflow:visible;enable-background:new    ;" width="2114" height="968" xlink:href="DD6215BD84F20970.png"  transform="matrix(0.5 0 0 0.5 -1090.1707 -1268.4625)">
</image>
<text transform="matrix(1 0 0 1 -774.4941 -872.5131)" style="font-family:'MyriadPro-Regular'; font-size:72px;">Wine</text>
<path class="st23" d="M-827.1-432.9c-103.5-0.2-51.2-11.8-48-12.5c0.1,0,0.2,0,0.3-0.1c1.8-0.5,17.6-5.2,22.9-8.2
	c5.5-3.2,14.6-18.7,14.8-25.7c0.2-6.3-4-21.5-5-25.2c-0.2-0.5-0.4-1-0.7-1.5c-7.5-11-1.3-17.9,3.1-24.8c4.5-7,2-23.6-1.9-30
	c-3.8-6.4-13.9-31.9-17.7-51c-3.1-15.9-27.1-81.2-35-102.7c-1.2-3.3,1.2-6.9,4.8-6.9l126.2,0.3c3.6,0,6,3.6,4.8,6.9
	c-8.1,21.4-32.3,86.6-35.5,102.5c-3.9,19.1-14.1,44.6-18,50.9c-3.8,6.4-6.4,22.9-2,30c4.4,6.9,10.5,13.9,3,24.8
	c-0.3,0.5-0.6,0.9-0.7,1.5c-1,3.6-5.3,18.9-5.1,25.2c0.2,7,9.2,22.6,14.7,25.8c5.2,3.1,21.1,7.8,22.8,8.3c0.1,0,0.2,0.1,0.3,0.1
	C-775.8-444.4-723.6-432.6-827.1-432.9z"/>
<path class="st23" d="M-678.4-558.1V-457c0,0,16.4,7.2,26.1,10.7c8.8,3.2,30.8,14.5-32.3,14.5s-41.1-11.3-32.3-14.5
	c9.7-3.5,26-10.7,26-10.7v-101.1c0,0-3.9-2.4-12.9-8.9c-10.2-7.4-27.4-26.8-33.9-48.7c-6.6-21.9,9.9-105.6,9.9-105.6h86.5
	c0,0,16.4,83.8,9.9,105.6c-6.6,21.9-23.7,41.3-33.9,48.7C-674.5-560.5-678.4-558.1-678.4-558.1z"/>
<path class="st23" d="M-533.3-581.7c0,6.3-0.4,117.8-0.4,117.8l25.6,14.7c0,0,44.2,16.3-32.6,16.3s-32.6-16.3-32.6-16.3l25.6-14.7
	c0,0-0.4-111.5-0.4-117.8s-3.1-8-8.5-11.4c-5.4-3.4-25-14.8-35.1-32.4c-10.1-17.6,12.4-95.9,12.4-95.9h77.3c0,0,22.5,78.4,12.4,95.9
	c-10.1,17.6-29.7,29-35.1,32.4C-530.1-589.7-533.3-587.9-533.3-581.7z"/>
<path class="st23" d="M-392.6-540.9c0,4.6,0,69.5,0,69.5s15.3,22.4,24.2,23s44.4,15.5-32.5,15.5s-41.4-14.9-32.5-15.5
	s24.2-23,24.2-23s0-65,0-69.5c0-4.6-3.6-7.7-3.6-7.7c-1.6-16.3-19.1-29.2-43.9-55.9c-24.7-26.7,8-99.8,8-99.8h95.7
	c0,0,32.7,73.1,8,99.8c-24.7,26.7-42.3,39.6-43.9,55.9C-389-548.6-392.6-545.5-392.6-540.9z"/>
<path class="st25" d="M-2780.9,827h-118.2c-10.7,0-19.4-8.7-19.4-19.4V689.4c0-10.7,8.7-19.4,19.4-19.4h118.2
	c10.7,0,19.4,8.7,19.4,19.4v118.2C-2761.5,818.2-2770.2,827-2780.9,827z"/>
<path class="st4" d="M-2918.5,721.4v86.2c0,10.7,8.7,19.4,19.4,19.4h118.2c10.7,0,19.4-8.7,19.4-19.4v-86.2H-2918.5z"/>
<text transform="matrix(1 0 0 1 -2863.8164 703.5342)" class="st4" style="font-family:'Cloud-Bold'; font-size:26px;">DAY</text>
<g>
	<path class="st7" d="M53.1,139.7c0,6.3-0.4,117.8-0.4,117.8l25.6,14.7c0,0,44.2,16.3-32.6,16.3c-65.3,0-24.6-16.3-24.6-16.3
		l25.6-14.7c0,0-0.4-111.5-0.4-117.8c0-6.3-3.1-8-8.5-11.4c-5.4-3.4-25-14.8-35.1-32.4C-7.5,78.3,15,0,15,0h69.3
		c0,0,22.5,78.4,12.4,95.9c-10.1,17.6-29.7,29-35.1,32.4C56.2,131.7,53.1,133.4,53.1,139.7z"/>
	
		<linearGradient id="SVGID_5_" gradientUnits="userSpaceOnUse" x1="87.8078" y1="316.4495" x2="87.3464" y2="307.6841" gradientTransform="matrix(1 0 0 -1 0 386.8)">
		<stop  offset="0" style="stop-color:#AE4F6F"/>
		<stop  offset="1" style="stop-color:#6C365E"/>
	</linearGradient>
	<path class="st26" d="M86,75.4c-0.3-1.5,0.2-3,1.3-4.1c0.2-0.2,0.4-0.4,0.7-0.4c0.7-0.1,1.3,0.6,1.4,1.3c0.3,1.4-0.7,3-2.2,3.4
		c-0.5,0.1-1.1,0-1.3-0.4"/>
	
		<linearGradient id="SVGID_6_" gradientUnits="userSpaceOnUse" x1="49.705" y1="314.1823" x2="49.705" y2="261.7051" gradientTransform="matrix(1 0 0 -1 0 386.8)">
		<stop  offset="0" style="stop-color:#AE4F6F"/>
		<stop  offset="1" style="stop-color:#6C365E"/>
	</linearGradient>
	<path class="st27" d="M91.8,88.8c-0.7,0.1-1.3,0.5-2,0.8c-0.7,0.3-1.6,0.4-2.3,0.2c-0.1,0-0.2,0-0.3-0.1c-0.1-0.1-0.1-0.1-0.1-0.2
		s0-0.1,0-0.2c0-1.9,0.2-4.1-2.1-5.3c-0.7-0.3-1.4-0.5-2.1-0.5c-2.4,0-4.4,1.4-6.5,2.5c-3.5,1.9-7.3,3-11.2,3.5H52
		c-4.4-0.5-8.7-1.3-13-2.2c-1.8-0.4-3.7-0.8-5.1-1.9c-1.1-0.9-1.9-2.1-2.9-3.1s-2.5-1.8-3.9-1.3c-0.7,0.2-1.2,0.7-1.9,0.9
		c-1.1,0.3-2.2-0.1-3.2-0.5c-1.6-0.7-3.2-1.3-4.5-2.4c-2-1.6-3.7-4.1-6.6-3.4c-1.2,0.3-2.2,1.1-2.8,2.1c-6.3,9.8,5,20.6,11.6,26.7
		c5.5,5.1,11.6,9.3,18,13.2c0.9,0.5,1.7,1,2.4,1.5c7.6,5,9.3,5.8,11.6,5.8c2,0,6.1-3,10.1-5.8c0.7-0.5,1.5-1,2.4-1.5
		c0.5-0.3,1-0.6,1.5-0.9c5-3.1,9.8-6.5,14.3-10.4c2.9-2.6,5.7-5.3,8.2-8.3c1.3-1.6,2.5-3.2,3.6-4.9C92.3,92.2,94.8,88.5,91.8,88.8z"
		/>
</g>
<g>
	<path class="st7" d="M-442.6,144.2c4.9,0,8.9,4.1,8.7,9l-4.6,115c0,0-1.1,21.5-15.8,21.5c-20.6,0-34.5,0-34.5,0s-13.9,0-34.5,0
		c-14.7,0-15.8-21.5-15.8-21.5l-4.6-115c-0.2-4.9,3.7-9,8.7-9C-535,144.2-442.6,144.2-442.6,144.2z"/>
	<path class="st28" d="M-522.8,193.5c-6.7,0-12.1,3.8-11.8,8.5l2.9,51.1c0,0,0.9,12.4,13.3,12.4c17.3,0,28.9,0,28.9,0s11.7,0,28.9,0
		c12.3,0,13.3-12.4,13.3-12.4l2.9-51.1c0.3-4.6-5.1-8.5-11.8-8.5H-522.8z"/>
	<path class="st29" d="M-506.5,214.1l-13.1-8.9c-2.6-1.8-3.3-5.4-1.5-8l8.9-13.1c1.8-2.6,5.4-3.3,8-1.5l13.1,8.9
		c2.6,1.8,3.3,5.4,1.5,8l-8.9,13.1C-500.3,215.2-503.9,215.9-506.5,214.1z"/>
	<path class="st29" d="M-463.9,201.6l-7,2.1c-2,0.6-4-0.5-4.6-2.5l-2.1-7c-0.6-2,0.5-4,2.5-4.6l7-2.1c2-0.6,4,0.5,4.6,2.5l2.1,7
		C-460.8,198.9-461.9,201-463.9,201.6z"/>
</g>
<g>
	<path class="st7" d="M-79.4,273l-20.2-11.6c0,0,0.3-67.4,0.3-87.6l45.4-63H-150l45.3,62.8c0.1,20,0.3,87.7,0.3,87.7l-20.2,11.6
		c0,0-32.1,12.9,19.4,12.9C-44.5,285.9-79.4,273-79.4,273z"/>
	
		<linearGradient id="SVGID_7_" gradientUnits="userSpaceOnUse" x1="-101.997" y1="252.8" x2="-101.997" y2="219.8465" gradientTransform="matrix(1 0 0 -1 0 386.8)">
		<stop  offset="0" style="stop-color:#14AFAB"/>
		<stop  offset="1" style="stop-color:#227893"/>
	</linearGradient>
	<polygon class="st30" points="-78.2,134 -101.9,167 -125.7,134 	"/>
	<path class="st31" d="M-76.3,122c5.3-4.6,5.8-12.7,1.2-18c-4.6-5.3-12.7-5.8-18-1.2"/>
	<g>
		<polygon class="st32" points="-86,110.8 -93.4,110.8 -93.4,111.6 -84.6,111.6 		"/>
		<polygon class="st33" points="-80.4,117.2 -80.4,110.8 -86,110.8 -85.3,111.6 		"/>
	</g>
</g>
<path class="st34" d="M-4503.4-657c-0.6-0.8-2.8-5.7-5.3-10.7c-1.7-3.4-1.8-7.2-1.7-9.3c0-0.9,0.4-1.6,0.9-2.3
	c0.4-0.5,0.8-1.4,0.8-2.8c0-2.8-55.6-3.9-55.6-3.9s-55.6,1.1-55.6,3.9c0,1.4,0.4,2.3,0.8,2.8c0.5,0.7,0.9,1.5,0.9,2.3
	c0.1,2.1,0,5.9-1.7,9.3c-2.5,5-4.6,9.9-5.3,10.7s0,15.1,0,18.7v151.9c0,1,0.4,1.9,1,2.7c1.1,1.2,3.1,3.1,5.7,4.7
	c2.4,1.4,4.1,2.7,5.1,3.5c0.7,0.6,1.3,1.4,1.4,2.3l0,0c0.1,0.5,0.3,0.9,0.5,1.3l1.1,1.7c0.7,1.1,1.8,1.7,3,1.8
	c7.4,0.6,33.5,2.5,42.9,2.5c9.8,0,35.6-1.9,42.9-2.5c1.2-0.1,2.4-0.8,3-1.8l1.1-1.7c0.3-0.4,0.4-0.9,0.5-1.3l0,0
	c0.2-0.9,0.7-1.8,1.4-2.3c1-0.8,2.7-2,5.1-3.5c2.6-1.6,4.6-3.5,5.7-4.7c0.7-0.7,1-1.7,1-2.7v-151.9
	C-4503.4-641.9-4502.7-656.2-4503.4-657z"/>
<path class="st35" d="M-4608.1-475.3c0,0,50.3,5.5,87.7,0"/>
<rect x="-4617" y="-587.4" class="st36" width="105.5" height="26.5"/>
<path class="st35" d="M-4613.5-679.4c0,0,40.7,4.1,98.6,0"/>
<path class="st36" d="M-4596-560.8h63.5c-3.5,24-16.4,41.8-31.7,41.8C-4579.6-519-4592.4-536.8-4596-560.8z"/>
<path class="st36" d="M-4532.5-587.4h-63.5c3.5-24,16.4-41.8,31.7-41.8C-4548.9-629.2-4536-611.4-4532.5-587.4z"/>
<path d="M-3268.1,1029h-23.1V923c0-6.4,5.2-11.6,11.6-11.6l0,0c6.4,0,11.6,5.2,11.6,11.6v106H-3268.1z"/>
<path d="M-3175.6,1040.5L-3175.6,1040.5c0,6.4-5.2,11.6-11.6,11.6h-307.1c-6.4,0-11.6-5.2-11.6-11.6l0,0c0-6.4,5.2-11.6,11.6-11.6
	h307.1C-3180.8,1029-3175.6,1034.1-3175.6,1040.5z"/>
<path d="M-2650.5,1235.1L-2650.5,1235.1c0,6.4-5.2,11.6-11.6,11.6h-307.1c-6.4,0-11.6-5.2-11.6-11.6l0,0c0-6.4,5.2-11.6,11.6-11.6
	h307.1C-2655.7,1223.6-2650.5,1228.7-2650.5,1235.1z"/>
<path d="M-3239.7,925L-3239.7,925c-4.5,4.5-11.8,4.5-16.3,0l-99.2-99.2c-4.5-4.5-4.5-11.8,0-16.3l0,0c4.5-4.5,11.8-4.5,16.3,0
	l99.2,99.2C-3235.1,913.1-3235.1,920.4-3239.7,925z"/>
<path d="M-3455.5,925L-3455.5,925c4.5,4.5,11.8,4.5,16.3,0l99.2-99.2c4.5-4.5,4.5-11.8,0-16.3l0,0c-4.5-4.5-11.8-4.5-16.3,0
	l-99.2,99.2C-3460,913.1-3460,920.4-3455.5,925z"/>
<path d="M-3404.1,1029h-23.1V923c0-6.4,5.2-11.6,11.6-11.6l0,0c6.4,0,11.6,5.2,11.6,11.6v106H-3404.1z"/>
<path d="M-3343.4,1029h-43.1v-52.4c0-11.9,9.7-21.6,21.6-21.6l0,0c11.9,0,21.6,9.7,21.6,21.6v52.4H-3343.4z"/>
<path d="M-2757.4,1099.8h-109.4c-4.3,0-7.9,3.5-7.9,7.9l0,0c0,13.9-11.3,25.2-25.2,25.2l0,0c-10.3,0-18.6,8.3-18.6,18.6v33.7h196.6
	c13.8,0,24.9-11.2,24.9-24.9l0,0C-2696.9,1126.9-2724,1099.8-2757.4,1099.8z"/>
<path d="M-2719.5,1122.2h-38.5c-8.7,0-15.8-7.1-15.8-15.8v-38.5c0-8.7,7.1-15.8,15.8-15.8h38.5c8.7,0,15.8,7.1,15.8,15.8v38.5
	C-2703.7,1115.1-2710.8,1122.2-2719.5,1122.2z"/>
</svg>
