<?xml version="1.0" encoding="utf-8"?>
<!-- Generator: Adobe Illustrator 22.0.1, SVG Export Plug-In . SVG Version: 6.00 Build 0)  -->
<svg version="1.1" id="Layer_1" xmlns="http://www.w3.org/2000/svg" xmlns:xlink="http://www.w3.org/1999/xlink" x="0px" y="0px"
	 viewBox="0 0 109.8 145.5" style="enable-background:new 0 0 109.8 145.5;" xml:space="preserve">
<style type="text/css">
	.st0{display:none;}
	.st1{display:inline;fill:#FFFFFF;stroke:#000000;stroke-miterlimit:10;}
	.st2{fill:#707B7F;}
	.st3{fill:#CE403F;}
	.st4{fill:#FFFFFF;}
	.st5{fill:#CD915F;}
	.st6{fill:#AA6628;}
	.st7{opacity:0.5;fill:#F9F9FA;enable-background:new    ;}
	.st8{fill:url(#SVGID_1_);}
	.st9{fill:#DDDDDD;}
	.st10{fill:#F7F7F7;}
	.st11{opacity:0.35;fill:#F4F4F5;enable-background:new    ;}
	.st12{fill:url(#SVGID_2_);}
	.st13{opacity:0.6;fill:#F4F4F5;enable-background:new    ;}
	.st14{display:none;fill:#34A6C9;stroke:#1B8EB7;stroke-width:10;stroke-miterlimit:10;}
	.st15{display:none;fill:#F27CA7;stroke:#C94C72;stroke-width:10;stroke-miterlimit:10;}
	.st16{fill:#476269;}
	.st17{fill:#222728;}
	.st18{fill:#DDDDDC;}
	.st19{fill:#F6F7F7;}
	.st20{fill:url(#SVGID_3_);}
	.st21{fill:url(#SVGID_4_);}
	.st22{enable-background:new    ;}
	.st23{fill:#F9F9FA;stroke:#E2E2E2;stroke-width:3;stroke-miterlimit:10;}
	.st24{fill:none;stroke:#E2E2E2;stroke-width:3;stroke-miterlimit:10;}
	.st25{fill:#D95F56;}
	.st26{fill:url(#SVGID_5_);}
	.st27{fill:url(#SVGID_6_);}
	.st28{opacity:0.84;fill:#FFDC31;enable-background:new    ;}
	.st29{opacity:0.39;fill:#90D7EB;enable-background:new    ;}
	.st30{opacity:0.84;fill:url(#SVGID_7_);enable-background:new    ;}
	.st31{fill:#D2E8C9;stroke:#6EBF59;stroke-width:2;stroke-miterlimit:10;}
	.st32{fill:none;}
	.st33{fill:#E4F1DD;}
	.st34{fill:#7AC25B;}
	.st35{fill:none;stroke:#E2E2E2;stroke-miterlimit:10;}
	.st36{fill:#157D3E;stroke:#E2E2E2;stroke-width:3;stroke-miterlimit:10;}
</style>
<g id="Layer_1_1_" class="st0">
	<rect x="-2496.3" y="-1089.7" class="st1" width="136.5" height="482"/>
</g>
<g id="Layer_2_1_">
	<path class="st2" d="M-2232.7,687.7h-127c-11.1,0-20.2-9.1-20.2-20.2v-93.6c0-11.1,9.1-20.2,20.2-20.2h127
		c11.1,0,20.2,9.1,20.2,20.2v93.6C-2212.5,678.6-2221.6,687.7-2232.7,687.7z"/>
	<rect x="-2961.5" y="-1251.1" class="st3" width="658.6" height="188.9"/>
	<circle class="st4" cx="-3535.8" cy="-801.8" r="6.2"/>
	<g>
		<polygon class="st5" points="-2344.6,-1513.4 -2386.8,-1500.7 -2294.3,-1500.7 		"/>
		<polygon class="st5" points="-2006.2,-1513.4 -1964.1,-1500.7 -2056.6,-1500.7 		"/>
		<rect x="-2344.7" y="-1513.4" class="st5" width="338.4" height="14.9"/>
		<rect x="-2386.8" y="-1500.7" class="st6" width="422.8" height="11.1"/>
	</g>
	<path class="st7" d="M-3417.5-569h-148.8c-11.7,0-21.2-9.5-21.2-21.2v-227.7c0-11.7,9.5-21.2,21.2-21.2h148.8
		c11.7,0,21.2,9.5,21.2,21.2v227.7C-3396.3-578.5-3405.8-569-3417.5-569z"/>
	
		<linearGradient id="SVGID_1_" gradientUnits="userSpaceOnUse" x1="-3493.4001" y1="954.4" x2="-3493.4001" y2="730.1785" gradientTransform="matrix(1 0 0 -1 0 148)">
		<stop  offset="0" style="stop-color:#FFCC4C"/>
		<stop  offset="1" style="stop-color:#FEBF4B"/>
	</linearGradient>
	<path class="st8" d="M-3434-581.3h-118.8c-11.7,0-21.2-9.5-21.2-21.2v-182.7c0-11.7,9.5-21.2,21.2-21.2h118.8
		c11.7,0,21.2,9.5,21.2,21.2v182.7C-3412.8-590.8-3422.3-581.3-3434-581.3z"/>
	<circle class="st9" cx="-3549.3" cy="-807.9" r="33"/>
	<circle class="st9" cx="-3513.6" cy="-817.5" r="23.4"/>
	<circle class="st9" cx="-3478.6" cy="-807.6" r="23.4"/>
	<circle class="st9" cx="-3429.1" cy="-812.4" r="28.2"/>
	<circle class="st10" cx="-3478.6" cy="-816.7" r="23.4"/>
	<circle class="st10" cx="-3457.3" cy="-826.6" r="11.7"/>
	<path class="st10" d="M-3537-826.6c0-1.5,0.1-2.9,0.4-4.3h-42.6c-2,4.2-3.1,9-3.1,14c0,18.2,14.8,33,33,33
		c13.6,0,25.3-8.2,30.3-19.9C-3529.3-806.3-3537-815.6-3537-826.6z"/>
	<path class="st10" d="M-3516.3-817c0,4.6-1,9.1-2.7,13.1c1.7,0.4,3.5,0.6,5.4,0.6c12.9,0,23.4-10.5,23.4-23.4
		c0-1.5-0.1-2.9-0.4-4.3h-28.7C-3517.4-826.7-3516.3-822-3516.3-817z"/>
	<path class="st10" d="M-3519.4-830.9h-17.2c-0.3,1.4-0.4,2.8-0.4,4.3c0,11.1,7.7,20.3,18,22.7c1.7-4,2.7-8.4,2.7-13.1
		C-3516.3-822-3517.4-826.7-3519.4-830.9z"/>
	<path class="st10" d="M-3402.5-830.9h-53.1c-1.1,3-1.6,6.1-1.6,9.5c0,15.6,12.6,28.2,28.2,28.2c15.6,0,28.2-12.6,28.2-28.2
		C-3400.9-824.8-3401.5-828-3402.5-830.9z"/>
	<path class="st10" d="M-3397.9-830.1c0,0-0.1-0.1-0.2-0.2C-3398.1-830.3-3398-830.2-3397.9-830.1L-3397.9-830.1z"/>
	<path class="st10" d="M-3402.5-830.9h-116.9c-2.4-5-5.9-9.3-10.3-12.6c-3.5,3.3-5.9,7.7-6.8,12.6h-42.6c0.5-1.1,1.1-2.2,1.8-3.3
		c4.2-4.6,12.7-12.3,22.7-12.3h55.4c0,0,6.7,0,16,0h55.4c13.2,0,23.9,13.4,25.3,15.3C-3402.6-831.1-3402.6-831-3402.5-830.9z"/>
	<path class="st10" d="M-3536.6-830.9h17.2c-2.3-5-5.9-9.3-10.3-12.6C-3533.2-840.2-3535.7-835.9-3536.6-830.9z"/>
	<path class="st7" d="M-3339.5-765.1c-2.3-11.7-10.8-20.4-21-20.4h-35.8v22.5h25.3c6,0,10.8,5.9,10.8,13.3v77.4
		c0,7.3-4.8,13.3-10.8,13.3h-25.3v23.4h35.8c10.7,0,19.6-9.6,21.3-22.2c0.2-1.1,0.3-2.2,0.3-3.4v-1l0,0V-759l0,0v-1.4
		C-3338.9-762.1-3339.1-763.6-3339.5-765.1z"/>
	<path class="st11" d="M-3540.5-611.4L-3540.5-611.4c-6,0-10.8-4.8-10.8-10.8v-134c0-6,4.8-10.8,10.8-10.8l0,0
		c6,0,10.8,4.8,10.8,10.8v134C-3529.7-616.3-3534.5-611.4-3540.5-611.4z"/>
	<path class="st11" d="M-3490.3-611.4L-3490.3-611.4c-6,0-10.8-4.8-10.8-10.8v-134c0-6,4.8-10.8,10.8-10.8l0,0
		c6,0,10.8,4.8,10.8,10.8v134C-3479.4-616.3-3484.3-611.4-3490.3-611.4z"/>
	<path class="st11" d="M-3441.2-614.7L-3441.2-614.7c-6,0-10.8-4.8-10.8-10.8v-134c0-6,4.8-10.8,10.8-10.8l0,0
		c6,0,10.8,4.8,10.8,10.8v134C-3430.4-619.5-3435.2-614.7-3441.2-614.7z"/>
	<g>
		<circle class="st4" cx="210.8" cy="-29.5" r="4.7"/>
		<path class="st7" d="M296.7,152.7H192.3c-11.7,0-21.2-9.5-21.2-21.2v-165c0-11.7,9.5-21.2,21.2-21.2h104.4
			c11.7,0,21.2,9.5,21.2,21.2v165C317.9,143.2,308.4,152.7,296.7,152.7z"/>
		
			<linearGradient id="SVGID_2_" gradientUnits="userSpaceOnUse" x1="243.4" y1="177.5" x2="243.4" y2="5.3416" gradientTransform="matrix(1 0 0 -1 0 148)">
			<stop  offset="0" style="stop-color:#FFCC4C"/>
			<stop  offset="1" style="stop-color:#FEBF4B"/>
		</linearGradient>
		<path class="st12" d="M284.1,143.3h-81.4c-11.7,0-21.2-9.5-21.2-21.2V-8.3c0-11.7,9.5-21.2,21.2-21.2h81.4
			c11.7,0,21.2,9.5,21.2,21.2v130.4C305.3,133.8,295.8,143.3,284.1,143.3z"/>
		<circle class="st9" cx="200.5" cy="-34.2" r="25.3"/>
		<circle class="st9" cx="227.9" cy="-41.6" r="17.9"/>
		<circle class="st9" cx="254.7" cy="-34" r="17.9"/>
		<circle class="st9" cx="292.8" cy="-37.7" r="21.6"/>
		<circle class="st10" cx="254.7" cy="-41" r="17.9"/>
		<circle class="st10" cx="271.1" cy="-48.6" r="9"/>
		<path class="st10" d="M209.9-48.6c0-1.1,0.1-2.2,0.3-3.3h-32.7c-1.5,3.3-2.4,6.9-2.4,10.7c0,14,11.3,25.3,25.3,25.3
			c10.4,0,19.4-6.3,23.3-15.3C215.8-33,209.9-40.1,209.9-48.6z"/>
		<path class="st10" d="M225.8-41.2c0,3.6-0.7,7-2.1,10c1.3,0.3,2.7,0.5,4.1,0.5c9.9,0,17.9-8,17.9-17.9c0-1.1-0.1-2.2-0.3-3.3
			h-22.1C225-48.7,225.8-45,225.8-41.2z"/>
		<path class="st10" d="M223.4-51.9h-13.2c-0.2,1.1-0.3,2.2-0.3,3.3c0,8.5,5.9,15.6,13.8,17.5c1.3-3.1,2.1-6.5,2.1-10
			C225.8-45,225-48.7,223.4-51.9z"/>
		<path class="st10" d="M313.1-51.9h-40.8c-0.8,2.3-1.3,4.7-1.3,7.3c0,12,9.7,21.6,21.6,21.6c12,0,21.6-9.7,21.6-21.6
			C314.4-47.2,314-49.7,313.1-51.9z"/>
		<path class="st10" d="M316.7-47.8c0,0-0.1-0.1-0.1-0.2C316.6-47.9,316.6-47.9,316.7-47.8L316.7-47.8z"/>
		<path class="st10" d="M313.1-51.9h-89.7c-1.8-3.8-4.5-7.2-7.9-9.7c-2.7,2.5-4.6,5.9-5.3,9.7h-32.7c0.4-0.9,0.9-1.7,1.4-2.5
			c3.2-3.5,9.8-9.4,17.5-9.4h42.5c0,0,5.1,0,12.3,0h42.5c10.2,0,18.3,10.3,19.4,11.8C313.1-52.1,313.1-52,313.1-51.9z"/>
		<path class="st10" d="M210.2-51.9h13.2c-1.8-3.8-4.5-7.2-7.9-9.7C212.8-59.1,210.9-55.7,210.2-51.9z"/>
		<path class="st7" d="M361.5,2.1c-1.7-9-8.3-15.7-16.1-15.7h-27.5V3.7h19.4c4.6,0,8.3,4.6,8.3,10.2v59.4c0,5.6-3.7,10.2-8.3,10.2
			h-19.4v17.9h27.5c8.2,0,15.1-7.4,16.4-17c0.1-0.8,0.2-1.7,0.2-2.6V81l0,0V6.8l0,0V5.7C362,4.4,361.8,3.2,361.5,2.1z"/>
		<path class="st13" d="M207.2,120.1L207.2,120.1c-4.6,0-8.3-3.7-8.3-8.3V8.9c0-4.6,3.7-8.3,8.3-8.3l0,0c4.6,0,8.3,3.7,8.3,8.3
			v102.9C215.5,116.4,211.8,120.1,207.2,120.1z"/>
		<path class="st13" d="M245.8,120.1L245.8,120.1c-4.6,0-8.3-3.7-8.3-8.3V8.9c0-4.6,3.7-8.3,8.3-8.3l0,0c4.6,0,8.3,3.7,8.3,8.3
			v102.9C254.1,116.4,250.4,120.1,245.8,120.1z"/>
		<path class="st13" d="M283.5,117.6L283.5,117.6c-4.6,0-8.3-3.7-8.3-8.3V6.4c0-4.6,3.7-8.3,8.3-8.3l0,0c4.6,0,8.3,3.7,8.3,8.3
			v102.9C291.8,113.9,288.1,117.6,283.5,117.6z"/>
	</g>
	<path class="st14" d="M-2582.5-181.1V-214l5.8,5.8c9.5,9.5,25,9.5,34.5,0s9.5-25,0-34.5l-45-45l-2.9-2.9
		c-4.5-4.5-10.2-6.8-16.1-7.1c-0.2,0-0.5,0-0.8,0c-0.1,0-0.2,0-0.2,0c-0.1,0-0.1,0-0.2,0c-0.1,0-0.1,0-0.2,0
		c-6.3-0.1-12.7,2.3-17.5,7.2l-47.9,47.9c-9.5,9.5-9.5,25,0,34.5s25,9.5,34.5,0l7.1-7.1l0.6,33.7c-34.6,10-59.9,41.9-59.9,79.8
		c0,45.9,37.2,83.1,83.1,83.1s83.1-37.2,83.1-83.1C-2524.5-139-2548.9-170.4-2582.5-181.1z M-2607.6-66.6
		c-19.4,0-35.2-15.8-35.2-35.2s15.8-35.2,35.2-35.2s35.2,15.8,35.2,35.2S-2588.1-66.6-2607.6-66.6z"/>
	<path class="st15" d="M-2296.5-139.4c32.4-32.4,32.4-85.1,0-117.5s-85.1-32.4-117.5,0s-32.4,85.1,0,117.5
		c10.6,10.6,23.3,17.7,36.8,21.4v25.9h-9.6c-12.1,0-21.9,9.8-21.9,21.9l0,0c0,12.1,9.8,21.9,21.9,21.9h9.6v9.6
		c0,12.1,9.8,21.9,21.9,21.9l0,0c12.1,0,21.9-9.8,21.9-21.9v-9.6h9.6c12.1,0,21.9-9.8,21.9-21.9l0,0c0-12.1-9.8-21.9-21.9-21.9h-9.6
		V-118C-2319.8-121.7-2307.1-128.9-2296.5-139.4z M-2380.1-223.1c13.8-13.8,36-13.8,49.8,0s13.8,36,0,49.8s-36,13.8-49.8,0
		C-2393.9-187-2393.9-209.3-2380.1-223.1z"/>
	<rect x="-2505" y="-361.4" class="st16" width="578.1" height="600.5"/>
	<path class="st4" d="M-2355.1-183.5l-59.5,59.5c-6.3,6.3-16.4,6.3-22.7,0l0,0c-6.3-6.3-6.3-16.4,0-22.7l59.5-59.5
		c6.3-6.3,16.4-6.3,22.7,0l0,0C-2348.9-199.9-2348.9-189.8-2355.1-183.5z"/>
	<path class="st4" d="M-2318.3-124l-59.5-59.5c-6.3-6.3-6.3-16.4,0-22.7l0,0c6.3-6.3,16.4-6.3,22.7,0l59.5,59.5
		c6.3,6.3,6.3,16.4,0,22.7l0,0C-2301.9-117.8-2312.1-117.8-2318.3-124z"/>
	<path class="st4" d="M-2346.6-172.9v75.2c0,11.9-9.6,21.5-21.5,21.5l0,0c-11.9,0-21.5-9.6-21.5-21.5v-75.2
		c0-11.9,9.6-21.5,21.5-21.5l0,0C-2356.2-194.4-2346.6-184.7-2346.6-172.9z"/>
	<path class="st4" d="M-2366.5-97.3c-52.3,0-94.6,42.4-94.6,94.6s42.4,94.6,94.6,94.6s94.6-42.4,94.6-94.6S-2314.2-97.3-2366.5-97.3
		z M-2366.5,55.5c-32.1,0-58.2-26-58.2-58.2c0-32.1,26-58.2,58.2-58.2c32.1,0,58.2,26,58.2,58.2
		C-2308.3,29.4-2334.4,55.5-2366.5,55.5z"/>
	<path class="st4" d="M-2125.8,70.4V-31c0-11.9,9.6-21.5,21.5-21.5l0,0c11.9,0,21.5,9.6,21.5,21.5V70.4c0,11.9-9.6,21.5-21.5,21.5
		l0,0C-2116.2,91.9-2125.8,82.3-2125.8,70.4z"/>
	<path class="st4" d="M-2064.4,49.6h-79.7c-11.9,0-21.5-9.6-21.5-21.5l0,0c0-11.9,9.6-21.5,21.5-21.5h79.7
		c11.9,0,21.5,9.6,21.5,21.5l0,0C-2042.9,40-2052.6,49.6-2064.4,49.6z"/>
	<path class="st4" d="M-2105.9-31.3c52.3,0,94.6-42.4,94.6-94.6s-42.4-94.6-94.6-94.6s-94.6,42.4-94.6,94.6
		S-2158.2-31.3-2105.9-31.3z M-2105.9-184.1c32.1,0,58.2,26,58.2,58.2c0,32.1-26,58.2-58.2,58.2s-58.2-26-58.2-58.2
		C-2164.1-158.1-2138-184.1-2105.9-184.1z"/>
	<rect x="-3019.6" y="-361.4" class="st17" width="508.9" height="434.6"/>
	<path class="st4" d="M-2740.7-184.1l-59.5,59.5c-6.3,6.3-16.4,6.3-22.7,0l0,0c-6.3-6.3-6.3-16.4,0-22.7l59.5-59.5
		c6.3-6.3,16.4-6.3,22.7,0l0,0C-2734.4-200.5-2734.4-190.4-2740.7-184.1z"/>
	<path class="st4" d="M-2703.9-124.6l-59.5-59.5c-6.3-6.3-6.3-16.4,0-22.7l0,0c6.3-6.3,16.4-6.3,22.7,0l59.5,59.5
		c6.3,6.3,6.3,16.4,0,22.7l0,0C-2687.5-118.4-2697.6-118.4-2703.9-124.6z"/>
	<path class="st4" d="M-2734.5-175.7v79.8c0,10.6-8.6,19.2-19.2,19.2l0,0c-10.6,0-19.2-8.6-19.2-19.2v-79.8
		c0-10.6,8.6-19.2,19.2-19.2l0,0C-2743.1-194.9-2734.5-186.4-2734.5-175.7z"/>
	<path class="st18" d="M-2870.3-1209.1c-18,0-34.3,7.5-45.7,19.5v83.2c11.4,12,27.6,19.5,45.7,19.5c34.4,0,62.4-27.4,62.4-61.1
		C-2807.9-1181.8-2835.8-1209.1-2870.3-1209.1z"/>
	<path class="st18" d="M-2331.8-1180.3c-8-8.2-19.5-13.4-32.2-13.4c-24.1,0-43.7,18.4-43.7,41.1s19.6,41.1,43.7,41.1
		c12.8,0,24.3-5.2,32.2-13.4V-1180.3z"/>
	<ellipse class="st18" cx="-2788.1" cy="-1161.1" rx="28" ry="27.5"/>
	<ellipse class="st18" cx="-2713" cy="-1153.6" rx="54.2" ry="53.1"/>
	<ellipse class="st18" cx="-2633.7" cy="-1158.4" rx="35.9" ry="35.2"/>
	<ellipse class="st18" cx="-2568.5" cy="-1174.3" rx="33.6" ry="32.9"/>
	<ellipse class="st18" cx="-2534.3" cy="-1150.9" rx="38.4" ry="37.6"/>
	<ellipse class="st18" cx="-2471.7" cy="-1159.5" rx="38" ry="37.3"/>
	<ellipse class="st18" cx="-2422.5" cy="-1170.9" rx="23.2" ry="22.7"/>
	<path class="st18" d="M-2331.8-1155.5h-583.1c2.2-15.3,1.6-11,3.5-24.2l0,0c0-13.3,12.2-24.2,27.2-24.2h521.7
		c15,0,27.2,10.8,27.2,24.2l0,0C-2334.1-1167.6-2334.2-1167.9-2331.8-1155.5z"/>
	<circle class="st19" cx="-2788.1" cy="-1173.3" r="28"/>
	<circle class="st19" cx="-2713" cy="-1165.7" r="54.2"/>
	<circle class="st19" cx="-2633.7" cy="-1170.6" r="35.9"/>
	<circle class="st19" cx="-2568.5" cy="-1186.7" r="33.6"/>
	<circle class="st19" cx="-2534.3" cy="-1162.9" r="38.4"/>
	<circle class="st19" cx="-2471.7" cy="-1171.7" r="38"/>
	<circle class="st19" cx="-2422.5" cy="-1183.3" r="23.2"/>
	<rect x="-2915.7" y="-1226.8" class="st19" width="583.9" height="61.1"/>
	<path class="st19" d="M-2331.8-1193.5c-8-8.4-19.5-13.7-32.2-13.7c-24.1,0-43.7,18.8-43.7,41.9c0,23.2,19.6,41.9,43.7,41.9
		c12.8,0,24.3-5.3,32.2-13.7V-1193.5z"/>
	<path class="st19" d="M-2870.3-1224.2c-18,0-34.3,7.7-45.7,19.9v84.9c11.4,12.2,27.6,19.9,45.7,19.9c34.4,0,62.4-27.9,62.4-62.4
		C-2807.9-1196.2-2835.8-1224.2-2870.3-1224.2z"/>
	
		<image style="display:none;overflow:visible;enable-background:new    ;" width="2056" height="494" xlink:href="5E0E1FF8C45EB864.png"  transform="matrix(0.5771 0 0 0.5771 -3208.8755 -1026.0127)">
	</image>
	<path class="st7" d="M-3628.2-600.4c1.4,1.9,2.6,3.6,3.7,5.2c6,8.5,2.2,20.3-7.8,23.9c-8.4,3-21.4,5.2-41.4,4.8
		c-20.1,0.4-33.1-1.8-41.5-4.8c-10-3.5-13.8-15.4-7.8-23.9c1.1-1.6,2.3-3.3,3.7-5.2c8.4-11.5,11-58.3,7.8-119.2
		c-2.6-49.2-25.6-180.6-34.4-229.4c-1.7-9.7,5.9-18.6,16-18.6h112.2c10.1,0,17.8,8.9,16,18.6c-8.8,48.8-31.8,180.2-34.4,229.4
		C-3639.2-658.6-3636.6-611.8-3628.2-600.4z"/>
	<g>
		
			<linearGradient id="SVGID_3_" gradientUnits="userSpaceOnUse" x1="-3673.75" y1="1068.2595" x2="-3673.75" y2="765.6961" gradientTransform="matrix(1 0 0 -1 0 148)">
			<stop  offset="0" style="stop-color:#FFCC4C"/>
			<stop  offset="1" style="stop-color:#FEBF4B"/>
		</linearGradient>
		<path class="st20" d="M-3644.6-730.4c2-38,19.8-139.3,26.5-177c1.3-7.5-4.6-14.3-12.4-14.3h-86.5c-7.8,0-13.7,6.8-12.4,14.3
			c6.8,37.6,24.5,139,26.5,177c0.9,16.3,1.2,79.1,1,92c-0.2,15.3,11.4,19.1,26.6,19.9c0.5,0,1,0,1.5,0s1,0,1.5,0
			c15.2-0.8,26.9-4.6,26.6-19.9C-3645.8-651.4-3645.5-714.2-3644.6-730.4z"/>
	</g>
	<circle class="st13" cx="-3638.8" cy="-899.7" r="6.1"/>
	
		<ellipse transform="matrix(0.1256 -0.9921 0.9921 0.1256 -2376.7214 -4340.2012)" class="st13" cx="-3650.5" cy="-821.8" rx="53" ry="6.1"/>
	<g>
		<path class="st7" d="M-3786.8-581.4c0.8,2.1,0.1,4-1.5,5.5c-3.6,3.2-9.4,4.2-14,5c-11.5,1.9-23.2,2-34.8,1.9
			c-11.6,0.1-23.4,0-34.8-1.9c-4.6-0.8-10.4-1.7-14-5c-1.6-1.5-2.3-3.4-1.5-5.5c0.8-2,2.5-3.5,4.7-3.8c1.3-0.2,2.7-0.3,4-0.5
			c5.2-0.9,10.2-2.7,15-4.9c13.4-6,22-13.8,22-13.8s0.8-103,0.8-121.9s-38.2-28.4-54-46.5c-15.8-18.2,18.5-106.5,18.5-106.5h78.9
			c0,0,36.7,86.7,20.9,104.8s-56.4,29.3-56.4,48.2s0.8,121.9,0.8,121.9s8.5,7.8,22,13.8c4.8,2.1,9.8,3.9,15,4.9
			c1.3,0.2,2.6,0.3,4,0.5C-3789.3-585-3787.6-583.4-3786.8-581.4z"/>
		
			<linearGradient id="SVGID_4_" gradientUnits="userSpaceOnUse" x1="-3835.95" y1="1006.2215" x2="-3835.95" y2="896.0128" gradientTransform="matrix(1 0 0 -1 0 148)">
			<stop  offset="0" style="stop-color:#FFCC4C"/>
			<stop  offset="1" style="stop-color:#FEBF4B"/>
		</linearGradient>
		<path class="st21" d="M-3793.4-771.6l-37.7,21.8c-3,1.7-6.8,1.7-9.8,0l-37.7-21.8c-0.3-0.2-0.6-0.3-0.8-0.4
			c-2.2-1-15.2-8.3-5.3-39.8l9.8-38.6c1.1-4.3,5-7.4,9.5-7.4h58.8c4.5,0,8.4,3,9.5,7.4l9.9,38.6c9.9,31.5-3.1,38.8-5.3,39.8
			C-3792.9-771.9-3793.1-771.7-3793.4-771.6z"/>
		<circle class="st13" cx="-3807.8" cy="-835.5" r="6.1"/>
		<ellipse class="st13" cx="-3807.8" cy="-802.5" rx="6.1" ry="17"/>
	</g>
	<text transform="matrix(1 0 0 1 -2944.7573 -835.4861)" style="font-family:'MyriadPro-Regular'; font-size:72px;">Beer</text>
	
		<image style="display:none;overflow:visible;enable-background:new    ;" width="2056" height="986" xlink:href="5E0E1FF8C45EB865.png"  transform="matrix(0.5 0 0 0.5 -3018.4832 468.946)">
	</image>
	
		<image style="display:none;overflow:visible;enable-background:new    ;" width="2114" height="968" xlink:href="5E0E1FF8C45EB863.png"  transform="matrix(0.5 0 0 0.5 -3068.1433 347.3676)">
	</image>
	
		<image style="display:none;overflow:visible;enable-background:new    ;" width="2114" height="968" xlink:href="5E0E1FF8C45EB86C.png"  transform="matrix(0.5 0 0 0.5 -3230.998 297.8794)">
	</image>
	<text transform="matrix(1 0 0 1 -1485.11 -1016.739)" style="font-family:'MyriadPro-Regular'; font-size:72px;">Cocktail</text>
	
		<image style="display:none;overflow:visible;enable-background:new    ;" width="2056" height="986" xlink:href="5E0E1FF8C45EB86F.png"  transform="matrix(0.5 0 0 0.5 -1681.9945 -1241.6222)">
	</image>
	<path class="st23" d="M-1668.5-574.8c-77,0-50.8-18-50.8-18s14.7-4.4,27.8-6.6c13.1-2.2,16.3-27.3,16.3-27.3s0-73.2,0-95
		c0-21.9-5-22.9-5-22.9l-73.6-93.7h170.4l-73.6,93.7c0,0-5,1-5,22.9c0,21.8,0,95,0,95s3.2,25.1,16.3,27.3
		c13.1,2.2,27.9,6.6,27.9,6.6S-1591.5-574.8-1668.5-574.8z"/>
	<path class="st23" d="M-1375-792.8c-12.3,13.9-52.3,27.8-58,37.6c0,0-0.4,8.6-9.1,9.1c0,0-4.5,3.2-4.5,13.2s-4.3,112,0,116.3
		s36.7,14.1,42.2,15.9c5.5,1.8,38.8,25-54,25s-59.4-23.2-54-25c5.5-1.8,37.9-11.6,42.2-15.9c4.3-4.3,0-106.3,0-116.3
		s-4.6-13.2-4.6-13.2c-8.6-0.5-9.1-9.1-9.1-9.1c-5.7-9.8-45.8-23.7-58-37.6c-12.3-13.9-9-46.6-9-46.6h184.8
		C-1366-839.4-1362.7-806.7-1375-792.8z"/>
	<path class="st23" d="M-1302.2-576.1c-37.3-5.2-19.8-13.9-19.8-13.9l25.9-9.8v-107c-12.1-6.8-20.5-22.5-20.5-22.5
		c-14-24.2-5.4-143.7-5.4-143.7h60.6c0,0,8.6,119.5-5.4,143.7c0,0-8.4,15.6-20.5,22.5v107l25.9,9.8c0,0,17.5,8.7-19.8,13.9
		C-1288.2-575.1-1295.3-575.1-1302.2-576.1z"/>
	<path class="st23" d="M-1125.7-801.9c6.4,48.4,20.4,121.1,1.3,140.2c-12.4,12.4-18.3,19.6-20.9,23.1c-1.2,1.6-1.6,3.6-1.1,5.5
		c1.2,5.2,3.3,16.3,0.7,21c-0.9,1.7-1.8,3.3-2.5,4.9c-1.8,3.9,0.5,8.5,4.7,9.4l17.8,3.9c0.2,0,0.4,0.1,0.7,0.2
		c4.1,1.3,41,14.1-33.3,18.8c-0.3,0-0.6,0-0.9,0c-74.3-4.7-37.3-17.5-33.3-18.8c0.2-0.1,0.4-0.1,0.7-0.2l17.8-3.9
		c4.2-0.9,6.5-5.5,4.7-9.4c-0.7-1.5-1.5-3.2-2.5-4.9c-2.6-4.8-0.5-15.8,0.7-21c0.4-1.9,0-3.9-1.1-5.5c-2.6-3.5-8.5-10.7-20.9-23.1
		c-19.1-19.1-5.1-91.8,1.3-140.2c3.8-29-3.8-48-10.5-58.5c-2.9-4.5,0.4-10.3,5.7-10.3h76c5.3,0,8.5,5.9,5.7,10.3
		C-1121.9-849.9-1129.6-830.9-1125.7-801.9z"/>
	
		<image style="display:none;overflow:visible;enable-background:new    ;" width="2114" height="968" xlink:href="5E0E1FF8C45EB86D.png"  transform="matrix(0.5 0 0 0.5 -1731.6545 -1363.2006)">
	</image>
	<path class="st23" d="M-957.2-844.5v251.8c0,7.3-5.6,13.4-12.8,14l-24.3,2.2c-11.8,1-23.6,1-35.4,0l-24.3-2.2
		c-7.3-0.6-12.8-6.7-12.8-14v-251.8c0-7.8,6.3-14.1,14.1-14.1h81.5C-963.5-858.6-957.2-852.2-957.2-844.5z"/>
	
		<image style="display:none;overflow:visible;enable-background:new    ;" width="2114" height="968" xlink:href="5E0E1FF8C45EB862.png"  transform="matrix(0.5 0 0 0.5 -1894.5093 -1412.6888)">
	</image>
	<path class="st23" d="M-812.5-845.9l-5,253.9c-0.1,5.5-3.8,10.2-9.1,11.7c-7.7,2.2-21.6,4.6-45.8,5c-24.2-0.3-38-2.7-45.8-5
		c-5.3-1.5-8.9-6.2-9.1-11.7l-5-253.9c-0.1-7,5.5-12.7,12.4-12.7h94.7C-817.9-858.6-812.3-852.8-812.5-845.9z"/>
	<path class="st23" d="M-719.6-577.1c-59.6,0.5-52.6-4.3-34.3-14.3c16.8-9.2,12.4-29.6,11.5-32.8c-0.1-0.3-0.1-0.7-0.2-1
		l-22.3-295.3c-0.3-3.5,2.5-6.6,6.1-6.6h78.3c3.6,0,6.4,3,6.1,6.6l-22.3,295.3c0,0.3-0.1,0.7-0.2,1c-0.8,3.3-5.3,23.7,11.5,32.8
		C-667-581.4-660-576.6-719.6-577.1z"/>
	
		<image style="display:none;overflow:visible;enable-background:new    ;" width="2056" height="986" xlink:href="5E0E1FF8C45EB866.png"  transform="matrix(0.5 0 0 0.5 -1681.9945 -372.944)">
	</image>
	
		<image style="display:none;overflow:visible;enable-background:new    ;" width="2114" height="968" xlink:href="5E0E1FF8C45EB867.png"  transform="matrix(0.5 0 0 0.5 -1731.6545 -494.5224)">
	</image>
	
		<image style="display:none;overflow:visible;enable-background:new    ;" width="2114" height="968" xlink:href="980A9EF461B0A6C3.png"  transform="matrix(0.5 0 0 0.5 -1894.5093 -544.0106)">
	</image>
	<text transform="matrix(1 0 0 1 -1485.1093 -144.0832)" style="font-family:'MyriadPro-Regular'; font-size:72px;">Lhao</text>
	<path class="st23" d="M-1479.1,128.7c-23.7,31.1-43,36.1-53.2,41.7s-16.2,26.8,3.2,30.9c19.4,4.2,27.9,6.7,27.9,6.7
		s35.7,18.2-50,18.2c-86.4,0-50-18.2-50-18.2s8.4-2.5,27.8-6.7c19.4-4.1,13.4-25.4,3.2-30.9c-10.2-5.6-29.4-10.5-53.2-41.7
		c-23.7-31.1,24.6-122.1,24.6-122.1h95C-1503.6,6.6-1455.3,97.6-1479.1,128.7z"/>
	<path class="st24" d="M-1399.3,226.2c-66.8-0.8-42.6-10.7-26.2-11.9s21.7-15.2,21.7-15.2s-0.8-91.8,0-107.3
		c0.8-15.6-11.7-23.3-11.7-23.3c-30.1-32-16.2-104.1-16.2-104.1h64.7c0,0,13.9,72.1-16.2,104.1c0,0-12.5,7.8-11.7,23.3
		c0.8,15.6,0,107.3,0,107.3s5.3,13.9,21.7,15.2C-1356.7,215.6-1332.6,225.4-1399.3,226.2z"/>
	<path class="st23" d="M-1289.4,226.2c-39.6,0-30.4-5.9-23.1-9.4c7-3.4,15.4-9.1,15.4-9.1l1.3-28.9c0.9-20.1-4.1-22.3-8.8-29.2
		c-4.7-6.9-5.6-11.3-10-27.3s-1.9-68.1-1.9-68.1h54.4c0,0,2.5,52.1-1.9,68.1s-5.3,20.4-10,27.3c-4.7,6.9-9.7,9.1-8.8,29.2l1.3,28.9
		c0,0,8.4,5.7,15.4,9.1C-1259,220.3-1249.8,226.2-1289.4,226.2z"/>
	<path class="st23" d="M-1151.6,105.2c4.1,0,7.4,3.4,7.2,7.5l-3.8,95.7c0,0-0.9,17.9-13.2,17.9c-17.1,0-28.7,0-28.7,0
		s-11.6,0-28.7,0c-12.3,0-13.2-17.9-13.2-17.9l-3.8-95.7c-0.2-4.1,3.1-7.5,7.2-7.5H-1151.6z"/>
	<ellipse class="st13" cx="-1221.1" cy="165.7" rx="2.7" ry="39.4"/>
	<ellipse class="st13" cx="-1211" cy="165.7" rx="2.7" ry="39.4"/>
	<ellipse class="st13" cx="-1194" cy="165.7" rx="2.7" ry="39.4"/>
	<ellipse class="st13" cx="-1183.7" cy="165.7" rx="2.7" ry="39.4"/>
	<ellipse class="st13" cx="-1166.4" cy="165.7" rx="2.7" ry="39.4"/>
	<ellipse class="st13" cx="-1158.3" cy="165.7" rx="2.7" ry="39.4"/>
	<path class="st13" d="M-1214.9,212.4c-0.7,0-1.3,4.6-1.7,12.3h3.5C-1213.7,217-1214.3,212.4-1214.9,212.4z"/>
	<path class="st13" d="M-1188.7,210.7c-0.7,0-1.4,5.3-1.8,13.9h3.7C-1187.4,216-1188,210.7-1188.7,210.7z"/>
	<path class="st13" d="M-1162.6,212.4c-0.7,0-1.3,4.6-1.7,12.3h3.5C-1161.3,217-1161.9,212.4-1162.6,212.4z"/>
	
		<image style="display:none;overflow:visible;enable-background:new    ;" width="2056" height="986" xlink:href="980A9EF461B0A6C1.png"  transform="matrix(0.5 0 0 0.5 -333.8188 -372.944)">
	</image>
	
		<image style="display:none;overflow:visible;enable-background:new    ;" width="2114" height="968" xlink:href="980A9EF461B0A6C7.png"  transform="matrix(0.5 0 0 0.5 -383.4789 -494.5224)">
	</image>
	
		<image style="display:none;overflow:visible;enable-background:new    ;" width="2114" height="968" xlink:href="980A9EF461B0A6C2.png"  transform="matrix(0.5 0 0 0.5 -546.3337 -544.0106)">
	</image>
	
		<image style="display:none;overflow:visible;enable-background:new    ;" width="2056" height="986" xlink:href="980A9EF461B0A6DD.png"  transform="matrix(0.5 0 0 0.5 -333.8188 -1241.6222)">
	</image>
	
		<image style="display:none;overflow:visible;enable-background:new    ;" width="2114" height="968" xlink:href="980A9EF461B0A6DE.png"  transform="matrix(0.5 0 0 0.5 -383.4789 -1363.2006)">
	</image>
	
		<image style="display:none;overflow:visible;enable-background:new    ;" width="2114" height="968" xlink:href="980A9EF461B0A6DF.png"  transform="matrix(0.5 0 0 0.5 -546.3337 -1412.6888)">
	</image>
	<text transform="matrix(1 0 0 1 -230.6572 -1016.739)" style="font-family:'MyriadPro-Regular'; font-size:72px;">Wine</text>
	<path class="st23" d="M-283.3-577.1c-103.5-0.2-51.2-11.8-48-12.5c0.1,0,0.2,0,0.3-0.1c1.8-0.5,17.6-5.2,22.9-8.2
		c5.5-3.2,14.6-18.7,14.8-25.7c0.2-6.3-4-21.5-5-25.2c-0.2-0.5-0.4-1-0.7-1.5c-7.5-11-1.3-17.9,3.1-24.8c4.5-7,2-23.6-1.9-30
		c-3.8-6.4-13.9-31.9-17.7-51c-3.1-15.9-27.1-81.2-35-102.7c-1.2-3.3,1.2-6.9,4.8-6.9l126.2,0.3c3.6,0,6,3.6,4.8,6.9
		c-8.1,21.4-32.3,86.6-35.5,102.5c-3.9,19.1-14.1,44.6-18,50.9c-3.8,6.4-6.4,22.9-2,30c4.4,6.9,10.5,13.9,3,24.8
		c-0.3,0.5-0.6,0.9-0.7,1.5c-1,3.6-5.3,18.9-5.1,25.2c0.2,7,9.2,22.6,14.7,25.8c5.2,3.1,21.1,7.8,22.8,8.3c0.1,0,0.2,0.1,0.3,0.1
		C-232-588.7-179.8-576.8-283.3-577.1z"/>
	<path class="st23" d="M-134.6-702.3v101.1c0,0,16.4,7.2,26.1,10.7c8.8,3.2,30.8,14.5-32.3,14.5s-41.1-11.3-32.3-14.5
		c9.7-3.5,26-10.7,26-10.7v-101.1c0,0-3.9-2.4-12.9-8.9c-10.2-7.4-27.4-26.8-33.9-48.7c-6.6-21.9,9.9-105.6,9.9-105.6h86.5
		c0,0,16.4,83.8,9.9,105.6c-6.6,21.9-23.7,41.3-33.9,48.7C-130.7-704.7-134.6-702.3-134.6-702.3z"/>
	<path class="st23" d="M10.5-725.9c0,6.3-0.4,117.8-0.4,117.8l25.6,14.7c0,0,44.2,16.3-32.6,16.3s-32.6-16.3-32.6-16.3L-4-608.1
		c0,0-0.4-111.5-0.4-117.8s-3.1-8-8.5-11.4s-25-14.8-35.1-32.4c-10.1-17.6,12.4-95.9,12.4-95.9h77.3c0,0,22.5,78.4,12.4,95.9
		c-10.1,17.6-29.7,29-35.1,32.4S10.5-732.2,10.5-725.9z"/>
	<path class="st23" d="M151.2-685.1c0,4.6,0,69.5,0,69.5s15.3,22.4,24.2,23s44.4,15.5-32.5,15.5s-41.4-14.9-32.5-15.5
		s24.2-23,24.2-23s0-65,0-69.5c0-4.6-3.6-7.7-3.6-7.7c-1.6-16.3-19.1-29.2-43.9-55.9c-24.7-26.7,8-99.8,8-99.8h95.7
		c0,0,32.7,73.1,8,99.8s-42.3,39.6-43.9,55.9C154.8-692.9,151.2-689.8,151.2-685.1z"/>
	<path class="st25" d="M-2237.1,682.7h-118.2c-10.7,0-19.4-8.7-19.4-19.4V545.2c0-10.7,8.7-19.4,19.4-19.4h118.2
		c10.7,0,19.4,8.7,19.4,19.4v118.2C-2217.7,674-2226.4,682.7-2237.1,682.7z"/>
	<path class="st4" d="M-2374.7,577.2v86.2c0,10.7,8.7,19.4,19.4,19.4h118.2c10.7,0,19.4-8.7,19.4-19.4v-86.2H-2374.7z"/>
	<text transform="matrix(1 0 0 1 -2319.9795 559.308)" class="st4" style="font-family:'Cloud-Bold'; font-size:26px;">DAY</text>
	<g>
		<path class="st7" d="M596.9-4.5c0,6.3-0.4,117.8-0.4,117.8l25.6,14.7c0,0,44.2,16.3-32.6,16.3c-65.3,0-24.6-16.3-24.6-16.3
			l25.6-14.7c0,0-0.4-111.5-0.4-117.8s-3.1-8-8.5-11.4s-25-14.8-35.1-32.4s12.4-95.9,12.4-95.9h69.3c0,0,22.5,78.4,12.4,95.9
			c-10.1,17.6-29.7,29-35.1,32.4S596.9-10.8,596.9-4.5z"/>
		
			<linearGradient id="SVGID_5_" gradientUnits="userSpaceOnUse" x1="631.6509" y1="221.8754" x2="631.1896" y2="213.11" gradientTransform="matrix(1 0 0 -1 0 148)">
			<stop  offset="0" style="stop-color:#AE4F6F"/>
			<stop  offset="1" style="stop-color:#6C365E"/>
		</linearGradient>
		<path class="st26" d="M629.8-68.9c-0.3-1.5,0.2-3,1.3-4.1c0.2-0.2,0.4-0.4,0.7-0.4c0.7-0.1,1.3,0.6,1.4,1.3c0.3,1.4-0.7,3-2.2,3.4
			c-0.5,0.1-1.1,0-1.3-0.4"/>
		
			<linearGradient id="SVGID_6_" gradientUnits="userSpaceOnUse" x1="593.5519" y1="219.6085" x2="593.5519" y2="167.1313" gradientTransform="matrix(1 0 0 -1 0 148)">
			<stop  offset="0" style="stop-color:#AE4F6F"/>
			<stop  offset="1" style="stop-color:#6C365E"/>
		</linearGradient>
		<path class="st27" d="M635.6-55.4c-0.7,0.1-1.3,0.5-2,0.8s-1.6,0.4-2.3,0.2c-0.1,0-0.2,0-0.3-0.1s-0.1-0.1-0.1-0.2
			c0-0.1,0-0.1,0-0.2c0-1.9,0.2-4.1-2.1-5.3c-0.7-0.3-1.4-0.5-2.1-0.5c-2.4,0-4.4,1.4-6.5,2.5c-3.5,1.9-7.3,3-11.2,3.5h-13.2
			c-4.4-0.5-8.7-1.3-13-2.2c-1.8-0.4-3.7-0.8-5.1-1.9c-1.1-0.9-1.9-2.1-2.9-3.1s-2.5-1.8-3.9-1.3c-0.7,0.2-1.2,0.7-1.9,0.9
			c-1.1,0.3-2.2-0.1-3.2-0.5c-1.6-0.7-3.2-1.3-4.5-2.4c-2-1.6-3.7-4.1-6.6-3.4c-1.2,0.3-2.2,1.1-2.8,2.1c-6.3,9.8,5,20.6,11.6,26.7
			c5.5,5.1,11.6,9.3,18,13.2c0.9,0.5,1.7,1,2.4,1.5c7.6,5,9.3,5.8,11.6,5.8c2,0,6.1-3,10.1-5.8c0.7-0.5,1.5-1,2.4-1.5
			c0.5-0.3,1-0.6,1.5-0.9c5-3.1,9.8-6.5,14.3-10.4c2.9-2.6,5.7-5.3,8.2-8.3c1.3-1.6,2.5-3.2,3.6-4.9C636.1-52,638.6-55.7,635.6-55.4
			z"/>
	</g>
	<path class="st7" d="M101.2,0c4.9,0,8.9,4.1,8.7,9l-4.6,115c0,0-1.1,21.5-15.8,21.5c-20.6,0-34.5,0-34.5,0s-13.9,0-34.5,0
		C5.7,145.5,4.6,124,4.6,124L0,9c-0.2-4.9,3.7-9,8.7-9H101.2z"/>
	<path class="st28" d="M21,49.3c-6.7,0-12.1,3.8-11.8,8.5l2.9,51.1c0,0,0.9,12.4,13.3,12.4c17.3,0,28.9,0,28.9,0s11.7,0,28.9,0
		c12.3,0,13.3-12.4,13.3-12.4l2.9-51.1c0.3-4.6-5.1-8.5-11.8-8.5C87.6,49.3,21,49.3,21,49.3z"/>
	<path class="st29" d="M37.3,69.9L24.2,61c-2.6-1.8-3.3-5.4-1.5-8l8.9-13.1c1.8-2.6,5.4-3.3,8-1.5l13.1,8.9c2.6,1.8,3.3,5.4,1.5,8
		l-8.9,13.1C43.5,71,39.9,71.7,37.3,69.9z"/>
	<path class="st29" d="M79.9,57.3l-7,2.1c-2,0.6-4-0.5-4.6-2.5l-2.1-7c-0.6-2,0.5-4,2.5-4.6l7-2.1c2-0.6,4,0.5,4.6,2.5l2.1,7
		C83,54.7,81.9,56.7,79.9,57.3z"/>
	<g>
		<path class="st7" d="M464.4,128.8l-20.2-11.6c0,0,0.3-67.4,0.3-87.6l45.4-63h-96.1l45.3,62.8c0.1,20,0.3,87.7,0.3,87.7l-20.2,11.6
			c0,0-32.1,12.9,19.4,12.9C499.3,141.7,464.4,128.8,464.4,128.8z"/>
		
			<linearGradient id="SVGID_7_" gradientUnits="userSpaceOnUse" x1="441.85" y1="158.2" x2="441.85" y2="125.2465" gradientTransform="matrix(1 0 0 -1 0 148)">
			<stop  offset="0" style="stop-color:#14AFAB"/>
			<stop  offset="1" style="stop-color:#227893"/>
		</linearGradient>
		<polygon class="st30" points="465.6,-10.2 441.9,22.7 418.1,-10.2 		"/>
		<path class="st31" d="M467.5-22.3c5.3-4.6,5.8-12.7,1.2-18c-4.6-5.3-12.7-5.8-18-1.2"/>
		<g>
			<polygon class="st32" points="457.8,-33.4 450.4,-33.4 450.4,-32.7 459.2,-32.7 			"/>
			<polygon class="st33" points="463.4,-27 463.4,-33.4 457.8,-33.4 458.5,-32.7 			"/>
		</g>
	</g>
	<path class="st34" d="M-3959.6-801.2c-0.6-0.8-2.8-5.7-5.3-10.7c-1.7-3.4-1.8-7.2-1.7-9.3c0-0.9,0.4-1.6,0.9-2.3
		c0.4-0.5,0.8-1.4,0.8-2.8c0-2.8-55.6-3.9-55.6-3.9s-55.6,1.1-55.6,3.9c0,1.4,0.4,2.3,0.8,2.8c0.5,0.7,0.9,1.5,0.9,2.3
		c0.1,2.1,0,5.9-1.7,9.3c-2.5,5-4.6,9.9-5.3,10.7c-0.6,0.8,0,15.1,0,18.7v151.9c0,1,0.4,1.9,1,2.7c1.1,1.2,3.1,3.1,5.7,4.7
		c2.4,1.4,4.1,2.7,5.1,3.5c0.7,0.6,1.3,1.4,1.4,2.3l0,0c0.1,0.5,0.3,0.9,0.5,1.3l1.1,1.7c0.7,1.1,1.8,1.7,3,1.8
		c7.4,0.6,33.5,2.5,42.9,2.5c9.8,0,35.6-1.9,42.9-2.5c1.2-0.1,2.4-0.8,3-1.8l1.1-1.7c0.3-0.4,0.4-0.9,0.5-1.3l0,0
		c0.2-0.9,0.7-1.8,1.4-2.3c1-0.8,2.7-2,5.1-3.5c2.6-1.6,4.6-3.5,5.7-4.7c0.7-0.7,1-1.7,1-2.7v-151.9
		C-3959.6-786.1-3958.9-800.4-3959.6-801.2z"/>
	<path class="st35" d="M-4064.3-619.5c0,0,50.3,5.5,87.7,0"/>
	<rect x="-4073.2" y="-731.6" class="st36" width="105.5" height="26.5"/>
	<path class="st35" d="M-4069.7-823.6c0,0,40.7,4.1,98.6,0"/>
	<path class="st36" d="M-4052.2-705.1h63.5c-3.5,24-16.4,41.8-31.7,41.8C-4035.8-663.3-4048.7-681-4052.2-705.1z"/>
	<path class="st36" d="M-3988.7-731.6h-63.5c3.5-24,16.4-41.8,31.7-41.8C-4005.1-773.4-3992.2-755.6-3988.7-731.6z"/>
	<path d="M-2724.3,884.7h-23.1v-106c0-6.4,5.2-11.6,11.6-11.6l0,0c6.4,0,11.6,5.2,11.6,11.6v106H-2724.3z"/>
	<path d="M-2631.8,896.3L-2631.8,896.3c0,6.4-5.2,11.6-11.6,11.6h-307.1c-6.4,0-11.6-5.2-11.6-11.6l0,0c0-6.4,5.2-11.6,11.6-11.6
		h307.1C-2637,884.7-2631.8,889.9-2631.8,896.3z"/>
	<path d="M-2106.8,1090.9L-2106.8,1090.9c0,6.4-5.2,11.6-11.6,11.6h-307.1c-6.4,0-11.6-5.2-11.6-11.6l0,0c0-6.4,5.2-11.6,11.6-11.6
		h307.1C-2111.9,1079.3-2106.8,1084.5-2106.8,1090.9z"/>
	<path d="M-2695.9,780.7L-2695.9,780.7c-4.5,4.5-11.8,4.5-16.3,0l-99.2-99.2c-4.5-4.5-4.5-11.8,0-16.3l0,0c4.5-4.5,11.8-4.5,16.3,0
		l99.2,99.2C-2691.4,768.9-2691.4,776.2-2695.9,780.7z"/>
	<path d="M-2911.7,780.7L-2911.7,780.7c4.5,4.5,11.8,4.5,16.3,0l99.2-99.2c4.5-4.5,4.5-11.8,0-16.3l0,0c-4.5-4.5-11.8-4.5-16.3,0
		l-99.2,99.2C-2916.2,768.9-2916.2,776.2-2911.7,780.7z"/>
	<path d="M-2860.4,884.7h-23.1v-106c0-6.4,5.2-11.6,11.6-11.6l0,0c6.4,0,11.6,5.2,11.6,11.6v106H-2860.4z"/>
	<path d="M-2799.6,884.7h-43.1v-52.4c0-11.9,9.7-21.6,21.6-21.6l0,0c11.9,0,21.6,9.7,21.6,21.6v52.4H-2799.6z"/>
	<path d="M-2213.6,955.6H-2323c-4.3,0-7.9,3.5-7.9,7.9l0,0c0,13.9-11.3,25.2-25.2,25.2l0,0c-10.3,0-18.6,8.3-18.6,18.6v33.7h196.6
		c13.8,0,24.9-11.2,24.9-24.9l0,0C-2153.1,982.7-2180.2,955.6-2213.6,955.6z"/>
	<path d="M-2175.7,977.9h-38.5c-8.7,0-15.8-7.1-15.8-15.8v-38.5c0-8.7,7.1-15.8,15.8-15.8h38.5c8.7,0,15.8,7.1,15.8,15.8v38.5
		C-2160,970.9-2167,977.9-2175.7,977.9z"/>
</g>
</svg>
