<?xml version="1.0" encoding="utf-8"?>
<!-- Generator: Adobe Illustrator 22.0.1, SVG Export Plug-In . SVG Version: 6.00 Build 0)  -->
<svg version="1.1" xmlns="http://www.w3.org/2000/svg" xmlns:xlink="http://www.w3.org/1999/xlink" x="0px" y="0px"
	 viewBox="0 0 422.8 23.7" style="enable-background:new 0 0 422.8 23.7;" xml:space="preserve">
<style type="text/css">
	.st0{display:none;}
	.st1{opacity:0.5;fill:#F9F9FA;}
	.st2{display:inline;fill:#7AC25B;}
	.st3{display:inline;fill:none;stroke:#E2E2E2;stroke-miterlimit:10;}
	.st4{display:inline;fill:#157D3E;stroke:#E2E2E2;stroke-width:3;stroke-miterlimit:10;}
	.st5{display:inline;opacity:0.4999;fill:#F9F9FA;}
	.st6{display:inline;opacity:0.5;fill:#F9F9FA;}
	.st7{display:inline;opacity:0.4982;fill:#F9F9FA;}
	.st8{display:inline;opacity:0.3547;fill:#F4F4F5;}
	.st9{fill:#CD915F;}
	.st10{fill:#AA6628;}
</style>
<g id="Layer_1" class="st0">
	<path class="st1" d="M213.7-53.5c-0.3-0.4-1.3-2.8-2.6-5.2c-0.8-1.6-0.9-3.5-0.8-4.5c0-0.4,0.2-0.8,0.4-1.1
		c0.2-0.2,0.4-0.7,0.4-1.4c0-1.4-27.1-1.9-27.1-1.9S157-67.2,157-65.8c0,0.7,0.2,1.1,0.4,1.4c0.3,0.3,0.4,0.7,0.4,1.1
		c0,1,0,2.9-0.8,4.5c-1.2,2.4-2.3,4.8-2.6,5.2c-0.3,0.4,0,7.4,0,9.1v74c0,0.5,0.2,0.9,0.5,1.3c0.5,0.6,1.5,1.5,2.8,2.3
		c1.2,0.7,2,1.3,2.5,1.7c0.4,0.3,0.6,0.7,0.7,1.1l0,0c0,0.2,0.1,0.4,0.3,0.6l0.5,0.8c0.3,0.5,0.9,0.8,1.5,0.9
		c3.6,0.3,16.3,1.2,20.9,1.2c4.8,0,17.3-0.9,20.9-1.2c0.6,0,1.1-0.4,1.5-0.9l0.5-0.8c0.1-0.2,0.2-0.4,0.3-0.6l0,0
		c0.1-0.5,0.3-0.9,0.7-1.1c0.5-0.4,1.3-1,2.5-1.7c1.3-0.8,2.2-1.7,2.8-2.3c0.3-0.4,0.5-0.8,0.5-1.3v-74
		C213.7-46.2,214-53.1,213.7-53.5z"/>
	<path class="st2" d="M213.7-53.5c-0.3-0.4-1.3-2.8-2.6-5.2c-0.8-1.6-0.9-3.5-0.8-4.5c0-0.4,0.2-0.8,0.4-1.1
		c0.2-0.2,0.4-0.7,0.4-1.4c0-1.4-27.1-1.9-27.1-1.9S157-67.2,157-65.8c0,0.7,0.2,1.1,0.4,1.4c0.3,0.3,0.4,0.7,0.4,1.1
		c0,1,0,2.9-0.8,4.5c-1.2,2.4-2.3,4.8-2.6,5.2c-0.3,0.4,0,7.4,0,9.1v74c0,0.5,0.2,0.9,0.5,1.3c0.5,0.6,1.5,1.5,2.8,2.3
		c1.2,0.7,2,1.3,2.5,1.7c0.4,0.3,0.6,0.7,0.7,1.1l0,0c0,0.2,0.1,0.4,0.3,0.6l0.5,0.8c0.3,0.5,0.9,0.8,1.5,0.9
		c3.6,0.3,16.3,1.2,20.9,1.2c4.8,0,17.3-0.9,20.9-1.2c0.6,0,1.1-0.4,1.5-0.9l0.5-0.8c0.1-0.2,0.2-0.4,0.3-0.6l0,0
		c0.1-0.5,0.3-0.9,0.7-1.1c0.5-0.4,1.3-1,2.5-1.7c1.3-0.8,2.2-1.7,2.8-2.3c0.3-0.4,0.5-0.8,0.5-1.3v-74
		C213.7-46.2,214-53.1,213.7-53.5z"/>
	<path class="st3" d="M162.7,34.9c0,0,24.5,2.7,42.7,0"/>
	<rect x="158.4" y="-19.6" class="st4" width="51.4" height="12.9"/>
	<path class="st3" d="M160.1-64.4c0,0,19.8,2,48,0"/>
	<path class="st4" d="M168.6-6.7h30.9c-1.7,11.7-8,20.3-15.5,20.3C176.6,13.7,170.4,5,168.6-6.7z"/>
	<path class="st4" d="M199.5-19.6h-30.9c1.7-11.7,8-20.4,15.5-20.4C191.6-40,197.8-31.3,199.5-19.6z"/>
</g>
<g id="Layer_5" class="st0">
	<path class="st5" d="M204.8,42.6c0.3,0.9,0.1,1.7-0.6,2.3c-1.5,1.4-4,1.8-5.9,2.1c-4.8,0.8-9.8,0.9-14.6,0.8c-4.9,0-9.8,0-14.6-0.8
		c-1.9-0.3-4.4-0.7-5.9-2.1c-0.7-0.6-1-1.4-0.6-2.3c0.3-0.9,1-1.5,2-1.6c0.6-0.1,1.1-0.1,1.7-0.2c2.2-0.4,4.3-1.2,6.3-2.1
		c5.6-2.5,9.2-5.8,9.2-5.8s0.3-43.3,0.3-51.3c0-8-16.1-11.9-22.7-19.6c-6.6-7.6,7.8-44.8,7.8-44.8h33.2c0,0,15.4,36.4,8.8,44.1
		c-6.6,7.6-23.7,12.3-23.7,20.3c0,8,0.3,51.3,0.3,51.3s3.6,3.3,9.2,5.8c2,0.9,4.1,1.7,6.3,2.1c0.6,0.1,1.1,0.1,1.7,0.2
		C203.7,41.1,204.5,41.7,204.8,42.6z"/>
</g>
<g id="Layer_3" class="st0">
	<path class="st6" d="M199.9,43.3c0.5,0.7,0.9,1.2,1.3,1.8c2.1,2.9,0.7,6.9-2.7,8.2c-2.9,1-7.3,1.8-14.2,1.6
		c-6.9,0.1-11.3-0.6-14.2-1.6c-3.4-1.2-4.7-5.2-2.7-8.2c0.4-0.5,0.8-1.1,1.3-1.8c2.9-3.9,3.8-19.9,2.6-40.7
		c-0.9-16.8-8.7-61.7-11.7-78.4c-0.6-3.3,2-6.3,5.5-6.3h38.3c3.5,0,6.1,3,5.5,6.3c-3,16.7-10.8,61.5-11.7,78.4
		C196.1,23.4,197,39.4,199.9,43.3z"/>
</g>
<g id="Layer_4" class="st0">
	<path class="st7" d="M205.6,36.8h-48.4c-6.3,0-11.4-5.1-11.4-11.4v-77.8c0-6.3,5.1-11.4,11.4-11.4h48.4c6.3,0,11.4,5.1,11.4,11.4
		v77.8C217.1,31.6,211.9,36.8,205.6,36.8z"/>
	<path class="st7" d="M238.3-36.4c-0.8-4.4-4-7.6-7.8-7.6h-13.3v8.4h9.4c2.2,0,4,2.2,4,5v28.9c0,2.7-1.8,5-4,5h-9.4v8.7h13.3
		c4,0,7.3-3.6,8-8.3c0.1-0.4,0.1-0.8,0.1-1.3V2v0v-36.1v0v-0.5C238.5-35.2,238.4-35.8,238.3-36.4z"/>
	<path class="st8" d="M163.3,20.9L163.3,20.9c-2.2,0-4-1.8-4-4v-50c0-2.2,1.8-4,4-4h0c2.2,0,4,1.8,4,4v50
		C167.3,19.1,165.5,20.9,163.3,20.9z"/>
	<path class="st8" d="M182,20.9L182,20.9c-2.2,0-4-1.8-4-4v-50c0-2.2,1.8-4,4-4l0,0c2.2,0,4,1.8,4,4v50
		C186.1,19.1,184.3,20.9,182,20.9z"/>
	<path class="st8" d="M200.3,19.7L200.3,19.7c-2.2,0-4-1.8-4-4v-50c0-2.2,1.8-4,4-4h0c2.2,0,4,1.8,4,4v50
		C204.4,17.9,202.6,19.7,200.3,19.7z"/>
</g>
<g id="Layer_6">
	<g>
		<polygon class="st9" points="42.3,0 0,12.6 92.6,12.6 		"/>
		<polygon class="st9" points="380.6,0 422.8,12.6 330.2,12.6 		"/>
		<rect x="42.2" y="0" class="st9" width="338.4" height="14.9"/>
		<rect y="12.6" class="st10" width="422.8" height="11.1"/>
	</g>
</g>
</svg>
