<?xml version="1.0" encoding="utf-8"?>
<!-- Generator: Adobe Illustrator 22.0.1, SVG Export Plug-In . SVG Version: 6.00 Build 0)  -->
<svg version="1.1" id="Layer_1" xmlns="http://www.w3.org/2000/svg" xmlns:xlink="http://www.w3.org/1999/xlink" x="0px" y="0px"
	 viewBox="0 0 157.4 219.6" style="enable-background:new 0 0 157.4 219.6;" xml:space="preserve">
<style type="text/css">
	.st0{display:none;}
	.st1{display:inline;fill:#FFFFFF;stroke:#000000;stroke-miterlimit:10;}
	.st2{fill:#707B7F;}
	.st3{fill:#CE403F;}
	.st4{fill:#FFFFFF;}
	.st5{fill:#CD915F;}
	.st6{fill:#AA6628;}
	.st7{opacity:0.5;fill:#F9F9FA;enable-background:new    ;}
	.st8{fill:url(#SVGID_1_);}
	.st9{fill:#DDDDDD;}
	.st10{fill:#F7F7F7;}
	.st11{opacity:0.35;fill:#F4F4F5;enable-background:new    ;}
	.st12{fill:url(#SVGID_2_);}
	.st13{opacity:0.6;fill:#F4F4F5;enable-background:new    ;}
	.st14{display:none;fill:#34A6C9;stroke:#1B8EB7;stroke-width:10;stroke-miterlimit:10;}
	.st15{display:none;fill:#F27CA7;stroke:#C94C72;stroke-width:10;stroke-miterlimit:10;}
	.st16{fill:#476269;}
	.st17{fill:#222728;}
	.st18{fill:#DDDDDC;}
	.st19{fill:#F6F7F7;}
	.st20{fill:url(#SVGID_3_);}
	.st21{fill:url(#SVGID_4_);}
	.st22{enable-background:new    ;}
	.st23{fill:#F9F9FA;stroke:#E2E2E2;stroke-width:3;stroke-miterlimit:10;}
	.st24{fill:#D95F56;}
	.st25{fill:url(#SVGID_5_);}
	.st26{fill:url(#SVGID_6_);}
	.st27{opacity:0.84;fill:#E8CD2C;enable-background:new    ;}
	.st28{opacity:0.39;fill:#90D7EB;enable-background:new    ;}
	.st29{opacity:0.84;fill:url(#SVGID_7_);enable-background:new    ;}
	.st30{fill:#D2E8C9;stroke:#6EBF59;stroke-width:2;stroke-miterlimit:10;}
	.st31{fill:none;}
	.st32{fill:#E4F1DD;}
	.st33{fill:#7AC25B;}
	.st34{fill:none;stroke:#E2E2E2;stroke-miterlimit:10;}
	.st35{fill:#157D3E;stroke:#E2E2E2;stroke-width:3;stroke-miterlimit:10;}
	.st36{fill:url(#SVGID_8_);}
	.st37{fill:url(#SVGID_9_);}
	.st38{fill:url(#SVGID_10_);}
	.st39{fill:url(#SVGID_11_);}
	.st40{fill:url(#SVGID_12_);}
	.st41{opacity:0.84;fill:#FFDC31;enable-background:new    ;}
</style>
<g id="Layer_1_1_" class="st0">
	<rect x="-714.9" y="-1089" class="st1" width="136.5" height="482"/>
</g>
<path class="st2" d="M-451.3,688.5h-127c-11.1,0-20.2-9.1-20.2-20.2v-93.6c0-11.1,9.1-20.2,20.2-20.2h127c11.1,0,20.2,9.1,20.2,20.2
	v93.6C-431.1,679.4-440.2,688.5-451.3,688.5z"/>
<rect x="-1180" y="-1250.4" class="st3" width="658.6" height="188.9"/>
<circle class="st4" cx="-1754.4" cy="-801" r="6.2"/>
<g>
	<polygon class="st5" points="-563.2,-1512.6 -605.4,-1500 -512.9,-1500 	"/>
	<polygon class="st5" points="-224.8,-1512.6 -182.7,-1500 -275.2,-1500 	"/>
	<rect x="-563.3" y="-1512.6" class="st5" width="338.4" height="14.9"/>
	<rect x="-605.4" y="-1500" class="st6" width="422.8" height="11.1"/>
</g>
<path class="st7" d="M-1636.1-568.3h-148.8c-11.7,0-21.2-9.5-21.2-21.2v-227.6c0-11.7,9.5-21.2,21.2-21.2h148.8
	c11.7,0,21.2,9.5,21.2,21.2v227.7C-1614.9-577.8-1624.4-568.3-1636.1-568.3z"/>
<linearGradient id="SVGID_1_" gradientUnits="userSpaceOnUse" x1="-1712" y1="2457.4001" x2="-1712" y2="2233.1785" gradientTransform="matrix(1 0 0 -1 0 1651.8)">
	<stop  offset="0" style="stop-color:#FFCC4C"/>
	<stop  offset="1" style="stop-color:#FEBF4B"/>
</linearGradient>
<path class="st8" d="M-1652.6-580.5h-118.8c-11.7,0-21.2-9.5-21.2-21.2v-182.7c0-11.7,9.5-21.2,21.2-21.2h118.8
	c11.7,0,21.2,9.5,21.2,21.2v182.7C-1631.4-590-1640.9-580.5-1652.6-580.5z"/>
<circle class="st9" cx="-1767.9" cy="-807.2" r="33"/>
<circle class="st9" cx="-1732.2" cy="-816.8" r="23.4"/>
<circle class="st9" cx="-1697.2" cy="-806.9" r="23.4"/>
<circle class="st9" cx="-1647.7" cy="-811.7" r="28.2"/>
<circle class="st10" cx="-1697.2" cy="-815.9" r="23.4"/>
<circle class="st10" cx="-1675.9" cy="-825.9" r="11.7"/>
<path class="st10" d="M-1755.6-825.9c0-1.5,0.1-2.9,0.4-4.3h-42.6c-2,4.2-3.1,9-3.1,14c0,18.2,14.8,33,33,33
	c13.6,0,25.3-8.2,30.3-19.9C-1747.9-805.6-1755.6-814.8-1755.6-825.9z"/>
<path class="st10" d="M-1734.9-816.2c0,4.6-1,9.1-2.7,13.1c1.7,0.4,3.5,0.6,5.4,0.6c12.9,0,23.4-10.5,23.4-23.4
	c0-1.5-0.1-2.9-0.4-4.3h-28.7C-1736-826-1734.9-821.2-1734.9-816.2z"/>
<path class="st10" d="M-1738-830.2h-17.2c-0.3,1.4-0.4,2.8-0.4,4.3c0,11.1,7.7,20.3,18,22.7c1.7-4,2.7-8.4,2.7-13.1
	C-1734.9-821.2-1736-826-1738-830.2z"/>
<path class="st10" d="M-1621.1-830.2h-53.1c-1.1,3-1.6,6.1-1.6,9.5c0,15.6,12.6,28.2,28.2,28.2s28.2-12.6,28.2-28.2
	C-1619.5-824.1-1620.1-827.3-1621.1-830.2z"/>
<path class="st10" d="M-1616.5-829.4c0,0-0.1-0.1-0.2-0.2C-1616.7-829.5-1616.6-829.4-1616.5-829.4L-1616.5-829.4z"/>
<path class="st10" d="M-1621.1-830.2H-1738c-2.4-5-5.9-9.3-10.3-12.6c-3.5,3.3-5.9,7.7-6.8,12.6h-42.6c0.5-1.1,1.1-2.2,1.8-3.3
	c4.2-4.6,12.7-12.3,22.7-12.3h55.4c0,0,6.7,0,16,0h55.4c13.2,0,23.9,13.4,25.3,15.3C-1621.2-830.4-1621.2-830.3-1621.1-830.2z"/>
<path class="st10" d="M-1755.2-830.2h17.2c-2.3-5-5.9-9.3-10.3-12.6C-1751.8-839.5-1754.2-835.1-1755.2-830.2z"/>
<path class="st7" d="M-1558.1-764.4c-2.3-11.7-10.8-20.4-21-20.4h-35.8v22.5h25.3c6,0,10.8,5.9,10.8,13.3v77.4
	c0,7.3-4.8,13.3-10.8,13.3h-25.3v23.4h35.8c10.7,0,19.6-9.6,21.3-22.2c0.2-1.1,0.3-2.2,0.3-3.4v-1l0,0v-96.7l0,0v-1.4
	C-1557.5-761.3-1557.7-762.9-1558.1-764.4z"/>
<path class="st11" d="M-1759.1-610.7L-1759.1-610.7c-6,0-10.8-4.8-10.8-10.8v-134c0-6,4.8-10.8,10.8-10.8l0,0
	c6,0,10.8,4.8,10.8,10.8v134C-1748.2-615.5-1753.1-610.7-1759.1-610.7z"/>
<path class="st11" d="M-1708.8-610.7L-1708.8-610.7c-6,0-10.8-4.8-10.8-10.8v-134c0-6,4.8-10.8,10.8-10.8l0,0
	c6,0,10.8,4.8,10.8,10.8v134C-1698-615.5-1702.9-610.7-1708.8-610.7z"/>
<path class="st11" d="M-1659.8-614L-1659.8-614c-6,0-10.8-4.8-10.8-10.8v-134c0-6,4.8-10.8,10.8-10.8l0,0c6,0,10.8,4.8,10.8,10.8
	v134C-1648.9-618.8-1653.8-614-1659.8-614z"/>
<g>
	<circle class="st4" cx="1992.2" cy="-28.8" r="4.7"/>
	<path class="st7" d="M2078.1,153.4h-104.4c-11.7,0-21.2-9.5-21.2-21.2v-165c0-11.7,9.5-21.2,21.2-21.2h104.4
		c11.7,0,21.2,9.5,21.2,21.2v165C2099.3,143.9,2089.8,153.4,2078.1,153.4z"/>
	
		<linearGradient id="SVGID_2_" gradientUnits="userSpaceOnUse" x1="2024.8" y1="1680.6001" x2="2024.8" y2="1508.4419" gradientTransform="matrix(1 0 0 -1 0 1651.8)">
		<stop  offset="0" style="stop-color:#FFCC4C"/>
		<stop  offset="1" style="stop-color:#FEBF4B"/>
	</linearGradient>
	<path class="st12" d="M2065.5,144h-81.4c-11.7,0-21.2-9.5-21.2-21.2V-7.6c0-11.7,9.5-21.2,21.2-21.2h81.4
		c11.7,0,21.2,9.5,21.2,21.2v130.4C2086.7,134.5,2077.2,144,2065.5,144z"/>
	<circle class="st9" cx="1981.9" cy="-33.5" r="25.3"/>
	<circle class="st9" cx="2009.3" cy="-40.9" r="17.9"/>
	<circle class="st9" cx="2036.1" cy="-33.3" r="17.9"/>
	<circle class="st9" cx="2074.2" cy="-37" r="21.6"/>
	<circle class="st10" cx="2036.1" cy="-40.2" r="17.9"/>
	<circle class="st10" cx="2052.5" cy="-47.9" r="9"/>
	<path class="st10" d="M1991.3-47.9c0-1.1,0.1-2.2,0.3-3.3h-32.7c-1.5,3.3-2.4,6.9-2.4,10.7c0,14,11.3,25.3,25.3,25.3
		c10.4,0,19.4-6.3,23.3-15.3C1997.2-32.3,1991.3-39.4,1991.3-47.9z"/>
	<path class="st10" d="M2007.2-40.5c0,3.6-0.7,7-2.1,10c1.3,0.3,2.7,0.5,4.1,0.5c9.9,0,17.9-8,17.9-17.9c0-1.1-0.1-2.2-0.3-3.3
		h-22.1C2006.4-47.9,2007.2-44.3,2007.2-40.5z"/>
	<path class="st10" d="M2004.8-51.2h-13.2c-0.2,1.1-0.3,2.2-0.3,3.3c0,8.5,5.9,15.6,13.8,17.5c1.3-3.1,2.1-6.5,2.1-10
		C2007.2-44.3,2006.4-47.9,2004.8-51.2z"/>
	<path class="st10" d="M2094.6-51.2h-40.8c-0.8,2.3-1.3,4.7-1.3,7.3c0,12,9.7,21.6,21.6,21.6c12,0,21.6-9.7,21.6-21.6
		C2095.8-46.5,2095.4-48.9,2094.6-51.2z"/>
	<path class="st10" d="M2098.1-47.1c0,0-0.1-0.1-0.1-0.2C2098-47.2,2098-47.1,2098.1-47.1L2098.1-47.1z"/>
	<path class="st10" d="M2094.6-51.2h-89.7c-1.8-3.8-4.5-7.2-7.9-9.7c-2.7,2.5-4.6,5.9-5.3,9.7H1959c0.4-0.9,0.9-1.7,1.4-2.5
		c3.2-3.5,9.8-9.4,17.5-9.4h42.5c0,0,5.1,0,12.3,0h42.5c10,0,18.2,10.2,19.3,11.7C2094.5-51.3,2094.5-51.3,2094.6-51.2z"/>
	<path class="st10" d="M1991.6-51.2h13.2c-1.8-3.8-4.5-7.2-7.9-9.7C1994.2-58.3,1992.3-55,1991.6-51.2z"/>
	<path class="st7" d="M2142.9,2.8c-1.7-9-8.3-15.7-16.1-15.7h-27.5V4.4h19.4c4.6,0,8.3,4.6,8.3,10.2V74c0,5.6-3.7,10.2-8.3,10.2
		h-19.4v17.9h27.5c8.2,0,15.1-7.4,16.4-17c0.1-0.8,0.2-1.7,0.2-2.6v-0.8l0,0V7.5l0,0V6.4C2143.4,5.2,2143.2,4,2142.9,2.8z"/>
	<path class="st13" d="M1988.6,120.8L1988.6,120.8c-4.6,0-8.3-3.7-8.3-8.3V9.6c0-4.6,3.7-8.3,8.3-8.3l0,0c4.6,0,8.3,3.7,8.3,8.3
		v102.9C1997,117.1,1993.2,120.8,1988.6,120.8z"/>
	<path class="st13" d="M2027.2,120.8L2027.2,120.8c-4.6,0-8.3-3.7-8.3-8.3V9.6c0-4.6,3.7-8.3,8.3-8.3l0,0c4.6,0,8.3,3.7,8.3,8.3
		v102.9C2035.5,117.1,2031.8,120.8,2027.2,120.8z"/>
	<path class="st13" d="M2064.9,118.3L2064.9,118.3c-4.6,0-8.3-3.7-8.3-8.3V7.1c0-4.6,3.7-8.3,8.3-8.3l0,0c4.6,0,8.3,3.7,8.3,8.3V110
		C2073.2,114.6,2069.5,118.3,2064.9,118.3z"/>
</g>
<path class="st14" d="M-801.1-180.3v-32.9l5.8,5.8c9.5,9.5,25,9.5,34.5,0s9.5-25,0-34.5l-45-45l-2.9-2.9c-4.5-4.5-10.2-6.8-16.1-7.1
	c-0.2,0-0.5,0-0.8,0c-0.1,0-0.2,0-0.2,0c-0.1,0-0.1,0-0.2,0c-0.1,0-0.1,0-0.2,0c-6.3-0.1-12.7,2.3-17.5,7.2l-47.9,47.9
	c-9.5,9.5-9.5,25,0,34.5s25,9.5,34.5,0l7.1-7.1l0.6,33.7c-34.6,10-59.9,41.9-59.9,79.8c0,45.9,37.2,83.1,83.1,83.1
	c45.9,0,83.1-37.2,83.1-83.1C-743.1-138.3-767.5-169.7-801.1-180.3z M-826.2-65.9c-19.4,0-35.2-15.8-35.2-35.2s15.8-35.2,35.2-35.2
	s35.2,15.8,35.2,35.2S-806.7-65.9-826.2-65.9z"/>
<path class="st15" d="M-515.1-138.7c32.4-32.4,32.4-85.1,0-117.5s-85.1-32.4-117.5,0s-32.4,85.1,0,117.5
	c10.6,10.6,23.3,17.7,36.8,21.4v25.9h-9.6c-12.1,0-21.9,9.8-21.9,21.9l0,0c0,12.1,9.8,21.9,21.9,21.9h9.6v9.6
	c0,12.1,9.8,21.9,21.9,21.9l0,0c12.1,0,21.9-9.8,21.9-21.9v-9.6h9.6c12.1,0,21.9-9.8,21.9-21.9l0,0c0-12.1-9.8-21.9-21.9-21.9h-9.6
	v-25.9C-538.4-121-525.7-128.1-515.1-138.7z M-598.7-222.4c13.8-13.8,36-13.8,49.8,0s13.8,36,0,49.8s-36,13.8-49.8,0
	C-612.5-186.3-612.5-208.6-598.7-222.4z"/>
<rect x="-723.6" y="-360.7" class="st16" width="578.1" height="600.5"/>
<path class="st4" d="M-573.7-182.8l-59.5,59.5c-6.3,6.3-16.4,6.3-22.7,0l0,0c-6.3-6.3-6.3-16.4,0-22.7l59.5-59.5
	c6.3-6.3,16.4-6.3,22.7,0l0,0C-567.5-199.2-567.5-189-573.7-182.8z"/>
<path class="st4" d="M-536.9-123.3l-59.5-59.5c-6.3-6.3-6.3-16.4,0-22.7l0,0c6.3-6.3,16.4-6.3,22.7,0l59.5,59.5
	c6.3,6.3,6.3,16.4,0,22.7l0,0C-520.5-117.1-530.7-117.1-536.9-123.3z"/>
<path class="st4" d="M-565.2-172.1v75.2c0,11.9-9.6,21.5-21.5,21.5l0,0c-11.9,0-21.5-9.6-21.5-21.5v-75.2c0-11.9,9.6-21.5,21.5-21.5
	l0,0C-574.8-193.6-565.2-184-565.2-172.1z"/>
<path class="st4" d="M-585.1-96.6c-52.3,0-94.6,42.4-94.6,94.6s42.4,94.6,94.6,94.6c52.2,0,94.6-42.4,94.6-94.6
	C-490.5-54.2-532.8-96.6-585.1-96.6z M-585.1,56.2c-32.1,0-58.2-26-58.2-58.2c0-32.1,26-58.2,58.2-58.2c32.1,0,58.2,26,58.2,58.2
	S-552.9,56.2-585.1,56.2z"/>
<path class="st4" d="M-344.4,71.2V-30.3c0-11.9,9.6-21.5,21.5-21.5l0,0c11.9,0,21.5,9.6,21.5,21.5V71.1c0,11.9-9.6,21.5-21.5,21.5
	l0,0C-334.7,92.7-344.4,83-344.4,71.2z"/>
<path class="st4" d="M-283,50.4h-79.7c-11.9,0-21.5-9.6-21.5-21.5l0,0c0-11.9,9.6-21.5,21.5-21.5h79.7c11.9,0,21.5,9.6,21.5,21.5
	l0,0C-261.5,40.7-271.2,50.4-283,50.4z"/>
<path class="st4" d="M-324.5-30.6c52.3,0,94.6-42.4,94.6-94.6s-42.4-94.6-94.6-94.6s-94.6,42.4-94.6,94.6S-376.8-30.6-324.5-30.6z
	 M-324.5-183.4c32.1,0,58.2,26,58.2,58.2c0,32.1-26,58.2-58.2,58.2c-32.1,0-58.2-26-58.2-58.2C-382.7-157.3-356.6-183.4-324.5-183.4
	z"/>
<rect x="-1238.2" y="-360.7" class="st17" width="508.9" height="434.6"/>
<path class="st4" d="M-959.3-183.4l-59.5,59.5c-6.3,6.3-16.4,6.3-22.7,0l0,0c-6.3-6.3-6.3-16.4,0-22.7l59.5-59.5
	c6.3-6.3,16.4-6.3,22.7,0l0,0C-953-199.8-953-189.6-959.3-183.4z"/>
<path class="st4" d="M-922.5-123.9l-59.5-59.5c-6.3-6.3-6.3-16.4,0-22.7l0,0c6.3-6.3,16.4-6.3,22.7,0l59.5,59.5
	c6.3,6.3,6.3,16.4,0,22.7l0,0C-906.1-117.6-916.2-117.6-922.5-123.9z"/>
<path class="st4" d="M-953-175v79.8c0,10.6-8.6,19.2-19.2,19.2l0,0c-10.6,0-19.2-8.6-19.2-19.2V-175c0-10.6,8.6-19.2,19.2-19.2l0,0
	C-961.6-194.2-953-185.6-953-175z"/>
<path class="st18" d="M-1088.9-1208.4c-18,0-34.3,7.5-45.7,19.5v83.2c11.4,12,27.6,19.5,45.7,19.5c34.4,0,62.4-27.4,62.4-61.1
	S-1054.4-1208.4-1088.9-1208.4z"/>
<path class="st18" d="M-550.4-1179.5c-8-8.2-19.5-13.4-32.2-13.4c-24.1,0-43.7,18.4-43.7,41.1s19.6,41.1,43.7,41.1
	c12.8,0,24.3-5.2,32.2-13.4V-1179.5z"/>
<ellipse class="st18" cx="-1006.7" cy="-1160.4" rx="28" ry="27.5"/>
<ellipse class="st18" cx="-931.6" cy="-1152.9" rx="54.2" ry="53.1"/>
<ellipse class="st18" cx="-852.3" cy="-1157.7" rx="35.9" ry="35.2"/>
<ellipse class="st18" cx="-787.1" cy="-1173.6" rx="33.6" ry="32.9"/>
<ellipse class="st18" cx="-752.9" cy="-1150.2" rx="38.4" ry="37.6"/>
<ellipse class="st18" cx="-690.2" cy="-1158.8" rx="38" ry="37.3"/>
<ellipse class="st18" cx="-641" cy="-1170.2" rx="23.2" ry="22.7"/>
<path class="st18" d="M-550.4-1154.8h-583.1c2.2-15.3,1.6-11,3.5-24.2l0,0c0-13.3,12.2-24.2,27.2-24.2h521.7
	c15,0,27.2,10.8,27.2,24.2l0,0C-552.7-1166.8-552.8-1167.1-550.4-1154.8z"/>
<ellipse transform="matrix(0.9239 -0.3827 0.3827 0.9239 372.104 -474.5061)" class="st19" cx="-1006.7" cy="-1172.6" rx="28" ry="28"/>
<circle class="st19" cx="-931.6" cy="-1165" r="54.2"/>
<circle class="st19" cx="-852.3" cy="-1169.8" r="35.9"/>
<circle class="st19" cx="-787.1" cy="-1186" r="33.6"/>
<circle class="st19" cx="-752.9" cy="-1162.2" r="38.4"/>
<circle class="st19" cx="-690.2" cy="-1170.9" r="38"/>
<circle class="st19" cx="-641" cy="-1182.6" r="23.2"/>
<rect x="-1134.3" y="-1226.1" class="st19" width="583.9" height="61.1"/>
<path class="st19" d="M-550.4-1192.8c-8-8.4-19.5-13.7-32.2-13.7c-24.1,0-43.7,18.8-43.7,41.9s19.6,41.9,43.7,41.9
	c12.8,0,24.3-5.3,32.2-13.7V-1192.8z"/>
<path class="st19" d="M-1088.9-1223.4c-18,0-34.3,7.7-45.7,19.9v84.9c11.4,12.2,27.6,19.9,45.7,19.9c34.4,0,62.4-27.9,62.4-62.4
	S-1054.4-1223.4-1088.9-1223.4z"/>
<path class="st7" d="M-1846.8-599.6c1.4,1.9,2.6,3.6,3.7,5.2c6,8.5,2.2,20.3-7.8,23.9c-8.4,3-21.4,5.2-41.4,4.8
	c-20.1,0.4-33.1-1.8-41.5-4.8c-10-3.5-13.8-15.4-7.8-23.9c1.1-1.6,2.3-3.3,3.7-5.2c8.4-11.5,11-58.3,7.8-119.2
	c-2.6-49.2-25.6-180.6-34.4-229.4c-1.7-9.7,5.9-18.6,16-18.6h112.2c10.1,0,17.8,8.9,16,18.6c-8.8,48.8-31.8,180.2-34.4,229.4
	C-1857.8-657.9-1855.2-611.1-1846.8-599.6z"/>
<g>
	
		<linearGradient id="SVGID_3_" gradientUnits="userSpaceOnUse" x1="-1892.35" y1="2571.3408" x2="-1892.35" y2="2268.7773" gradientTransform="matrix(1 0 0 -1 0 1651.8)">
		<stop  offset="0" style="stop-color:#FFCC4C"/>
		<stop  offset="1" style="stop-color:#FEBF4B"/>
	</linearGradient>
	<path class="st20" d="M-1863.2-729.7c2-38,19.8-139.3,26.5-177c1.3-7.5-4.6-14.3-12.4-14.3h-86.5c-7.8,0-13.7,6.8-12.4,14.3
		c6.8,37.6,24.5,139,26.5,177c0.9,16.3,1.2,79.1,1,92c-0.2,15.3,11.4,19.1,26.6,19.9c0.5,0,1,0,1.5,0s1,0,1.5,0
		c15.2-0.8,26.9-4.6,26.6-19.9C-1864.4-650.7-1864.1-713.4-1863.2-729.7z"/>
</g>
<circle class="st13" cx="-1857.4" cy="-899" r="6.1"/>
<ellipse transform="matrix(0.1256 -0.9921 0.9921 0.1256 -819.8641 -2572.3235)" class="st13" cx="-1869.2" cy="-821.1" rx="53" ry="6.1"/>
<g>
	<path class="st7" d="M-2005.4-580.7c0.8,2.1,0.1,4-1.5,5.5c-3.6,3.2-9.4,4.2-14,5c-11.5,1.9-23.2,2-34.8,1.9
		c-11.6,0.1-23.4,0-34.8-1.9c-4.6-0.8-10.4-1.7-14-5c-1.6-1.5-2.3-3.4-1.5-5.5c0.8-2,2.5-3.5,4.7-3.8c1.3-0.2,2.6-0.3,4-0.5
		c5.2-0.9,10.2-2.7,15-4.9c13.4-6,22-13.8,22-13.8s0.8-103,0.8-121.9s-38.2-28.4-54-46.5c-15.8-18.2,18.5-106.5,18.5-106.5h78.9
		c0,0,36.7,86.7,20.9,104.8s-56.4,29.3-56.4,48.2s0.8,121.9,0.8,121.9s8.6,7.8,22,13.8c4.8,2.1,9.8,3.9,15,4.9
		c1.3,0.2,2.6,0.3,4,0.5C-2007.9-584.2-2006.2-582.7-2005.4-580.7z"/>
	
		<linearGradient id="SVGID_4_" gradientUnits="userSpaceOnUse" x1="-2054.55" y1="2509.303" x2="-2054.55" y2="2399.0942" gradientTransform="matrix(1 0 0 -1 0 1651.8)">
		<stop  offset="0" style="stop-color:#FFCC4C"/>
		<stop  offset="1" style="stop-color:#FEBF4B"/>
	</linearGradient>
	<path class="st21" d="M-2012-770.8l-37.7,21.8c-3,1.7-6.8,1.7-9.8,0l-37.7-21.8c-0.3-0.2-0.6-0.3-0.8-0.4c-2.2-1-15.2-8.3-5.3-39.8
		l9.8-38.6c1.1-4.3,5-7.4,9.5-7.4h58.8c4.5,0,8.4,3,9.5,7.4l9.9,38.6c9.9,31.5-3.1,38.8-5.3,39.8
		C-2011.5-771.1-2011.7-771-2012-770.8z"/>
	<circle class="st13" cx="-2026.4" cy="-834.8" r="6.1"/>
	<ellipse class="st13" cx="-2026.4" cy="-801.8" rx="6.1" ry="17"/>
</g>
<text transform="matrix(1 0 0 1 -1163.2908 -834.7673)" style="font-family:'MyriadPro-Regular'; font-size:72px;">Beer</text>
<text transform="matrix(1 0 0 1 296.3564 -1016.0203)" style="font-family:'MyriadPro-Regular'; font-size:72px;">Cocktail</text>
<path class="st23" d="M112.9-574.1c-77,0-50.8-18-50.8-18s14.7-4.4,27.8-6.6c13.1-2.2,16.3-27.3,16.3-27.3s0-73.2,0-95
	c0-21.9-5-22.9-5-22.9l-73.6-93.7H198l-73.6,93.7c0,0-5,1-5,22.9c0,21.8,0,95,0,95s3.2,25.1,16.3,27.3s27.9,6.6,27.9,6.6
	S189.9-574.1,112.9-574.1z"/>
<path class="st23" d="M406.4-792c-12.3,13.9-52.3,27.8-58,37.6c0,0-0.4,8.6-9.1,9.1c0,0-4.5,3.2-4.5,13.2s-4.3,112,0,116.3
	s36.7,14.1,42.2,15.9s38.8,25-54,25s-59.4-23.2-54-25c5.5-1.8,37.9-11.6,42.2-15.9c4.3-4.3,0-106.3,0-116.3s-4.6-13.2-4.6-13.2
	c-8.6-0.5-9.1-9.1-9.1-9.1c-5.7-9.8-45.8-23.7-58-37.6c-12.3-13.9-9-46.6-9-46.6h184.8C415.4-838.6,418.7-805.9,406.4-792z"/>
<path class="st23" d="M479.2-575.3c-37.3-5.2-19.8-13.9-19.8-13.9l25.9-9.8v-107c-12.1-6.8-20.5-22.5-20.5-22.5
	c-14-24.2-5.4-143.7-5.4-143.7H520c0,0,8.6,119.5-5.4,143.7c0,0-8.4,15.6-20.5,22.5v107l25.9,9.8c0,0,17.5,8.7-19.8,13.9
	C493.2-574.4,486.1-574.4,479.2-575.3z"/>
<path class="st23" d="M655.7-801.2c6.4,48.4,20.4,121.1,1.3,140.2c-12.4,12.4-18.3,19.6-20.9,23.1c-1.2,1.6-1.6,3.6-1.1,5.5
	c1.2,5.2,3.3,16.3,0.7,21c-0.9,1.7-1.8,3.3-2.5,4.9c-1.8,3.9,0.5,8.5,4.7,9.4l17.8,3.9c0.2,0,0.4,0.1,0.7,0.2
	c4.1,1.3,41,14.1-33.3,18.8c-0.3,0-0.6,0-0.9,0c-74.3-4.7-37.3-17.5-33.3-18.8c0.2-0.1,0.4-0.1,0.7-0.2l17.8-3.9
	c4.2-0.9,6.5-5.5,4.7-9.4c-0.7-1.5-1.5-3.2-2.5-4.9c-2.6-4.8-0.5-15.8,0.7-21c0.4-1.9,0-3.9-1.1-5.5c-2.6-3.5-8.5-10.7-20.9-23.1
	c-19.1-19.1-5.1-91.8,1.3-140.2c3.8-29-3.8-48-10.5-58.5c-2.9-4.5,0.4-10.3,5.7-10.3h76c5.3,0,8.5,5.9,5.7,10.3
	C659.5-849.2,651.9-830.2,655.7-801.2z"/>
<path class="st23" d="M838.9-845.2l-5,253.9c-0.1,5.5-3.8,10.2-9.1,11.7c-7.7,2.2-21.6,4.6-45.8,5c-24.2-0.3-38-2.7-45.8-5
	c-5.3-1.5-8.9-6.2-9.1-11.7l-5-253.9c-0.1-7,5.5-12.7,12.4-12.7h94.7C833.5-857.8,839.1-852.1,838.9-845.2z"/>
<path class="st23" d="M931.8-576.4c-59.6,0.5-52.6-4.3-34.3-14.3c16.8-9.2,12.4-29.6,11.5-32.8c-0.1-0.3-0.1-0.7-0.2-1l-22.3-295.3
	c-0.3-3.5,2.5-6.6,6.1-6.6h78.3c3.6,0,6.4,3,6.1,6.6l-22.3,295.3c0,0.3-0.1,0.7-0.2,1c-0.8,3.3-5.3,23.7,11.5,32.8
	C984.4-580.7,991.4-575.9,931.8-576.4z"/>
<text transform="matrix(1 0 0 1 296.3571 -143.3645)" style="font-family:'MyriadPro-Regular'; font-size:72px;">Lhao</text>
<path class="st7" d="M150.8,122.1c-23.7,31.1-43,36.1-53.2,41.7s-16.2,26.8,3.2,30.9c19.4,4.2,27.9,6.7,27.9,6.7s35.7,18.2-50,18.2
	c-86.4,0-50-18.2-50-18.2s8.4-2.5,27.8-6.7c19.4-4.1,13.4-25.4,3.2-30.9c-10.2-5.6-29.4-10.5-53.2-41.7C-17.2,91,31.1,0,31.1,0h95
	C126.3,0.1,174.6,91,150.8,122.1z"/>
<path class="st7" d="M547.9,219.7c-66.8-0.8-42.6-10.7-26.2-11.9c16.4-1.2,21.7-15.2,21.7-15.2s-0.8-91.8,0-107.3
	c0.8-15.6-11.7-23.3-11.7-23.3c-30.1-32-16.2-104.1-16.2-104.1h64.7c0,0,13.9,72.1-16.2,104.1c0,0-12.5,7.8-11.7,23.3
	c0.8,15.6,0,107.3,0,107.3s5.3,13.9,21.7,15.2C590.5,209,614.7,218.8,547.9,219.7z"/>
<path class="st7" d="M949.5,219.7c-39.6,0-30.4-5.9-23.1-9.4c7-3.4,15.4-9.1,15.4-9.1l1.3-28.9c0.9-20.1-4.1-22.3-8.8-29.2
	s-5.6-11.3-10-27.3s-1.9-68.1-1.9-68.1h54.4c0,0,2.5,52.1-1.9,68.1s-5.3,20.4-10,27.3s-9.7,9.1-8.8,29.2l1.3,28.9
	c0,0,8.4,5.7,15.4,9.1C979.9,213.8,989.1,219.7,949.5,219.7z"/>
<text transform="matrix(1 0 0 1 1550.8093 -1016.0206)" style="font-family:'MyriadPro-Regular'; font-size:72px;">Wine</text>
<path class="st7" d="M1366.9-576.4c-103.5-0.2-51.2-11.8-48-12.5c0.1,0,0.2,0,0.3-0.1c1.8-0.5,17.6-5.2,22.9-8.2
	c5.5-3.2,14.6-18.7,14.8-25.7c0.2-6.3-4-21.5-5-25.2c-0.2-0.5-0.4-1-0.7-1.5c-7.5-11-1.3-17.9,3.1-24.8c4.5-7,2-23.6-1.9-30
	c-3.8-6.4-13.9-31.9-17.7-51c-3.1-15.9-27.1-81.2-35-102.7c-1.2-3.3,1.2-6.9,4.8-6.9l126.2,0.3c3.6,0,6,3.6,4.8,6.9
	c-8.1,21.4-32.3,86.6-35.5,102.5c-3.9,19.1-14.1,44.6-18,50.9c-3.8,6.4-6.4,22.9-2,30c4.4,6.9,10.5,13.9,3,24.8
	c-0.3,0.5-0.6,0.9-0.7,1.5c-1,3.6-5.3,18.9-5.1,25.2c0.2,7,9.2,22.6,14.7,25.8c5.2,3.1,21.1,7.8,22.8,8.3c0.1,0,0.2,0.1,0.3,0.1
	C1418.2-587.9,1470.4-576.1,1366.9-576.4z"/>
<path class="st7" d="M1718.4-701.6v101.1c0,0,16.4,7.2,26.1,10.7c8.8,3.2,30.8,14.5-32.3,14.5s-41.1-11.3-32.3-14.5
	c9.7-3.5,26-10.7,26-10.7v-101.1c0,0-3.9-2.4-12.9-8.9c-10.2-7.4-27.4-26.8-33.9-48.7c-6.6-21.9,9.9-105.6,9.9-105.6h86.5
	c0,0,16.4,83.8,9.9,105.6c-6.6,21.9-23.7,41.3-33.9,48.7C1722.3-704,1718.4-701.6,1718.4-701.6z"/>
<path class="st7" d="M2122.7-725.2c0,6.3-0.4,117.8-0.4,117.8l25.6,14.7c0,0,44.2,16.3-32.6,16.3s-32.6-16.3-32.6-16.3l25.6-14.7
	c0,0-0.4-111.5-0.4-117.8s-3.1-8-8.5-11.4s-25-14.8-35.1-32.4c-10.1-17.6,12.4-95.9,12.4-95.9h77.3c0,0,22.5,78.4,12.4,95.9
	c-10.1,17.6-29.7,29-35.1,32.4C2125.9-733.2,2122.7-731.4,2122.7-725.2z"/>
<path class="st7" d="M2485.2-684.4c0,4.6,0,69.5,0,69.5s15.3,22.4,24.2,23s44.4,15.5-32.5,15.5s-41.4-14.9-32.5-15.5
	s24.2-23,24.2-23s0-65,0-69.5c0-4.6-3.6-7.7-3.6-7.7c-1.6-16.3-19.1-29.2-43.9-55.9c-24.7-26.7,8-99.8,8-99.8h95.7
	c0,0,32.7,73.1,8,99.8s-42.3,39.6-43.9,55.9C2488.8-692.1,2485.2-689,2485.2-684.4z"/>
<path class="st24" d="M-455.7,683.5h-118.2c-10.7,0-19.4-8.7-19.4-19.4V545.9c0-10.7,8.7-19.4,19.4-19.4h118.2
	c10.7,0,19.4,8.7,19.4,19.4v118.2C-436.3,674.7-445,683.5-455.7,683.5z"/>
<path class="st4" d="M-593.3,577.9v86.2c0,10.7,8.7,19.4,19.4,19.4h118.2c10.7,0,19.4-8.7,19.4-19.4v-86.2H-593.3z"/>
<text transform="matrix(1 0 0 1 -538.5131 560.0267)" class="st4" style="font-family:'Cloud-Bold'; font-size:26px;">DAY</text>
<g>
	<path class="st7" d="M2378.3-3.8c0,6.3-0.4,117.8-0.4,117.8l25.6,14.7c0,0,44.2,16.3-32.6,16.3c-65.3,0-24.6-16.3-24.6-16.3
		l25.6-14.7c0,0-0.4-111.5-0.4-117.8s-3.1-8-8.5-11.4s-25-14.8-35.1-32.4c-10.2-17.6,12.3-95.9,12.3-95.9h69.3
		c0,0,22.5,78.4,12.4,95.9c-10.1,17.6-29.7,29-35.1,32.4S2378.3-10.1,2378.3-3.8z"/>
	
		<linearGradient id="SVGID_5_" gradientUnits="userSpaceOnUse" x1="2413.0552" y1="1724.96" x2="2412.5938" y2="1716.1946" gradientTransform="matrix(1 0 0 -1 0 1651.8)">
		<stop  offset="0" style="stop-color:#AE4F6F"/>
		<stop  offset="1" style="stop-color:#6C365E"/>
	</linearGradient>
	<path class="st25" d="M2411.2-68.1c-0.3-1.5,0.2-3,1.3-4.1c0.2-0.2,0.4-0.4,0.7-0.4c0.7-0.1,1.3,0.6,1.4,1.3c0.3,1.4-0.7,3-2.2,3.4
		c-0.5,0.1-1.1,0-1.3-0.4"/>
	
		<linearGradient id="SVGID_6_" gradientUnits="userSpaceOnUse" x1="2374.9519" y1="1722.6899" x2="2374.9519" y2="1670.2126" gradientTransform="matrix(1 0 0 -1 0 1651.8)">
		<stop  offset="0" style="stop-color:#AE4F6F"/>
		<stop  offset="1" style="stop-color:#6C365E"/>
	</linearGradient>
	<path class="st26" d="M2417-54.7c-0.7,0.1-1.3,0.5-2,0.8s-1.6,0.4-2.3,0.2c-0.1,0-0.2,0-0.3-0.1s-0.1-0.1-0.1-0.2
		c0-0.1,0-0.1,0-0.2c0-1.9,0.2-4.1-2.1-5.3c-0.7-0.3-1.4-0.5-2.1-0.5c-2.4,0-4.4,1.4-6.5,2.5c-3.5,1.9-7.3,3-11.2,3.5h-13.2
		c-4.4-0.5-8.7-1.3-13-2.2c-1.8-0.4-3.7-0.8-5.1-1.9c-1.1-0.9-1.9-2.1-2.9-3.1s-2.5-1.8-3.9-1.3c-0.7,0.2-1.2,0.7-1.9,0.9
		c-1.1,0.3-2.2-0.1-3.2-0.5c-1.6-0.7-3.2-1.3-4.5-2.4c-2-1.6-3.7-4.1-6.6-3.4c-1.2,0.3-2.2,1.1-2.8,2.1c-6.3,9.8,5,20.6,11.6,26.7
		c5.5,5.1,11.6,9.3,18,13.2c0.9,0.5,1.7,1,2.4,1.5c7.6,5,9.3,5.8,11.6,5.8c2,0,6.1-3,10.1-5.8c0.7-0.5,1.5-1,2.4-1.5
		c0.5-0.3,1-0.6,1.5-0.9c5-3.1,9.8-6.5,14.3-10.4c2.9-2.6,5.7-5.3,8.2-8.3c1.3-1.6,2.5-3.2,3.6-4.9C2417.5-51.3,2420-55,2417-54.7z"
		/>
</g>
<g>
	<path class="st7" d="M1882.6,0.7c4.9,0,8.9,4.1,8.7,9l-4.6,115c0,0-1.1,21.5-15.8,21.5c-20.6,0-34.5,0-34.5,0s-13.9,0-34.5,0
		c-14.7,0-15.8-21.5-15.8-21.5l-4.6-115c-0.2-4.9,3.7-9,8.7-9C1790.2,0.7,1882.6,0.7,1882.6,0.7z"/>
	<path class="st27" d="M1802.4,50c-6.7,0-12.1,3.8-11.8,8.5l2.9,51.1c0,0,0.9,12.4,13.3,12.4c17.3,0,28.9,0,28.9,0s11.7,0,28.9,0
		c12.3,0,13.3-12.4,13.3-12.4l2.9-51.1c0.3-4.6-5.1-8.5-11.8-8.5H1802.4z"/>
	<path class="st28" d="M1818.7,70.6l-13.1-8.9c-2.6-1.8-3.3-5.4-1.5-8l8.9-13.1c1.8-2.6,5.4-3.3,8-1.5l13.1,8.9
		c2.6,1.8,3.3,5.4,1.5,8l-8.9,13.1C1824.9,71.7,1821.3,72.4,1818.7,70.6z"/>
	<path class="st28" d="M1861.3,58.1l-7,2.1c-2,0.6-4-0.5-4.6-2.5l-2.1-7c-0.6-2,0.5-4,2.5-4.6l7-2.1c2-0.6,4,0.5,4.6,2.5l2.1,7
		C1864.4,55.4,1863.3,57.5,1861.3,58.1z"/>
</g>
<g>
	<path class="st7" d="M1284.9,109.6c3.7,0,6.7,3.1,6.5,6.8l-3.5,86.4c0,0-0.8,16.1-11.9,16.1c-15.5,0-25.9,0-25.9,0s-10.4,0-25.9,0
		c-11,0-11.9-16.1-11.9-16.1l-3.5-86.4c-0.2-3.7,2.8-6.8,6.5-6.8C1215.5,109.6,1284.9,109.6,1284.9,109.6z"/>
	<path class="st27" d="M1224.6,146.6c-5,0-9.1,2.9-8.9,6.4l2.2,38.4c0,0,0.7,9.3,10,9.3c13,0,21.7,0,21.7,0s8.8,0,21.7,0
		c9.2,0,10-9.3,10-9.3l2.2-38.4c0.2-3.5-3.8-6.4-8.9-6.4H1224.6z"/>
	<path class="st28" d="M1236.9,162.1l-9.8-6.7c-2-1.4-2.5-4.1-1.1-6l6.7-9.8c1.4-2,4.1-2.5,6-1.1l9.8,6.7c2,1.4,2.5,4.1,1.1,6
		l-6.7,9.8C1241.5,162.9,1238.8,163.4,1236.9,162.1z"/>
	<path class="st28" d="M1268.9,152.7l-5.3,1.6c-1.5,0.5-3-0.4-3.5-1.9l-1.6-5.3c-0.5-1.5,0.4-3,1.9-3.5l5.3-1.6
		c1.5-0.5,3,0.4,3.5,1.9l1.6,5.3C1271.2,150.7,1270.4,152.2,1268.9,152.7z"/>
</g>
<g>
	<path class="st7" d="M2245.8,129.5l-20.2-11.6c0,0,0.3-67.4,0.3-87.6l45.4-63h-96.1l45.3,62.8c0.1,20,0.3,87.7,0.3,87.7l-20.2,11.6
		c0,0-32.1,12.9,19.4,12.9C2280.7,142.4,2245.8,129.5,2245.8,129.5z"/>
	
		<linearGradient id="SVGID_7_" gradientUnits="userSpaceOnUse" x1="2223.25" y1="1661.3" x2="2223.25" y2="1628.3467" gradientTransform="matrix(1 0 0 -1 0 1651.8)">
		<stop  offset="0" style="stop-color:#14AFAB"/>
		<stop  offset="1" style="stop-color:#227893"/>
	</linearGradient>
	<polygon class="st29" points="2247,-9.5 2223.3,23.5 2199.5,-9.5 	"/>
	<path class="st30" d="M2248.9-21.5c5.3-4.6,5.8-12.7,1.2-18s-12.7-5.8-18-1.2"/>
	<g>
		<polygon class="st31" points="2239.2,-32.7 2231.8,-32.7 2231.8,-31.9 2240.6,-31.9 		"/>
		<polygon class="st32" points="2244.8,-26.3 2244.8,-32.7 2239.2,-32.7 2239.9,-31.9 		"/>
	</g>
</g>
<path class="st33" d="M-2178.2-800.5c-0.6-0.8-2.8-5.7-5.3-10.7c-1.7-3.4-1.8-7.2-1.7-9.3c0-0.9,0.4-1.6,0.9-2.3
	c0.4-0.5,0.8-1.4,0.8-2.8c0-2.8-55.6-3.9-55.6-3.9s-55.6,1.1-55.6,3.9c0,1.4,0.4,2.3,0.8,2.8c0.5,0.7,0.9,1.5,0.9,2.3
	c0.1,2.1,0,5.9-1.7,9.3c-2.5,5-4.6,9.9-5.3,10.7s0,15.1,0,18.7v151.9c0,1,0.4,1.9,1,2.7c1.1,1.2,3.1,3.1,5.7,4.7
	c2.4,1.4,4.1,2.7,5.1,3.5c0.7,0.6,1.3,1.4,1.4,2.3l0,0c0.1,0.5,0.3,0.9,0.5,1.3l1.1,1.7c0.7,1.1,1.8,1.7,3,1.8
	c7.4,0.6,33.5,2.5,42.9,2.5c9.8,0,35.6-1.9,42.9-2.5c1.2-0.1,2.4-0.8,3-1.8l1.1-1.7c0.3-0.4,0.4-0.9,0.5-1.3l0,0
	c0.2-0.9,0.7-1.8,1.4-2.3c1-0.8,2.7-2,5.1-3.5c2.6-1.6,4.6-3.5,5.7-4.7c0.7-0.7,1-1.7,1-2.7v-151.9
	C-2178.2-785.4-2177.5-799.7-2178.2-800.5z"/>
<path class="st34" d="M-2282.9-618.8c0,0,50.3,5.5,87.7,0"/>
<rect x="-2291.8" y="-730.9" class="st35" width="105.5" height="26.5"/>
<path class="st34" d="M-2288.3-822.9c0,0,40.7,4.1,98.6,0"/>
<path class="st35" d="M-2270.8-704.3h63.5c-3.5,24-16.4,41.8-31.7,41.8C-2254.4-662.5-2267.2-680.3-2270.8-704.3z"/>
<path class="st35" d="M-2207.3-730.9h-63.5c3.5-24,16.4-41.8,31.7-41.8C-2223.7-772.7-2210.8-754.9-2207.3-730.9z"/>
<path d="M-942.9,885.5H-966v-106c0-6.4,5.2-11.6,11.6-11.6l0,0c6.4,0,11.6,5.2,11.6,11.6L-942.9,885.5L-942.9,885.5z"/>
<path d="M-850.4,897L-850.4,897c0,6.4-5.2,11.6-11.6,11.6h-307.1c-6.4,0-11.6-5.2-11.6-11.6l0,0c0-6.4,5.2-11.6,11.6-11.6H-862
	C-855.6,885.5-850.4,890.6-850.4,897z"/>
<path d="M-325.3,1091.6L-325.3,1091.6c0,6.4-5.2,11.6-11.6,11.6H-644c-6.4,0-11.6-5.2-11.6-11.6l0,0c0-6.4,5.2-11.6,11.6-11.6h307.1
	C-330.5,1080.1-325.3,1085.2-325.3,1091.6z"/>
<path d="M-914.5,781.5L-914.5,781.5c-4.5,4.5-11.8,4.5-16.3,0l-99.2-99.2c-4.5-4.5-4.5-11.8,0-16.3l0,0c4.5-4.5,11.8-4.5,16.3,0
	l99.2,99.2C-909.9,769.6-909.9,776.9-914.5,781.5z"/>
<path d="M-1130.3,781.5L-1130.3,781.5c4.5,4.5,11.8,4.5,16.3,0l99.2-99.2c4.5-4.5,4.5-11.8,0-16.3l0,0c-4.5-4.5-11.8-4.5-16.3,0
	l-99.2,99.2C-1134.8,769.6-1134.8,776.9-1130.3,781.5z"/>
<path d="M-1078.9,885.5h-23.1v-106c0-6.4,5.2-11.6,11.6-11.6l0,0c6.4,0,11.6,5.2,11.6,11.6L-1078.9,885.5L-1078.9,885.5z"/>
<path d="M-1018.2,885.5h-43.1v-52.4c0-11.9,9.7-21.6,21.6-21.6l0,0c11.9,0,21.6,9.7,21.6,21.6L-1018.2,885.5L-1018.2,885.5z"/>
<path d="M-432.2,956.3h-109.4c-4.3,0-7.9,3.5-7.9,7.9l0,0c0,13.9-11.3,25.2-25.2,25.2l0,0c-10.3,0-18.6,8.3-18.6,18.6v33.7h196.6
	c13.8,0,24.9-11.2,24.9-24.9l0,0C-371.7,983.4-398.8,956.3-432.2,956.3z"/>
<path d="M-394.3,978.7h-38.5c-8.7,0-15.8-7.1-15.8-15.8v-38.5c0-8.7,7.1-15.8,15.8-15.8h38.5c8.7,0,15.8,7.1,15.8,15.8v38.5
	C-378.5,971.6-385.6,978.7-394.3,978.7z"/>
<linearGradient id="SVGID_8_" gradientUnits="userSpaceOnUse" x1="1367.6" y1="1066.7394" x2="1367.6" y2="1139.5879" gradientTransform="matrix(1 0 0 1 0 -1840.015)">
	<stop  offset="0" style="stop-color:#AE4F6F"/>
	<stop  offset="1" style="stop-color:#6C365E"/>
</linearGradient>
<path class="st36" d="M1391.6-771.6h-24h-24c-1.6,0-2.7,1.6-2.1,3.1c1.8,4.3,3.5,11.5,3.9,12.8c2.4,10.1,3.1,20.3,8.1,29.4
	c3.7,6.7,8.1,12.8,12.6,19c0.9,1.2,1.5,1.7,1.5,1.7s0.6-0.5,1.5-1.7c4.5-6.2,8.9-12.3,12.6-19c5-9.1,5.7-19.3,8.1-29.4
	c0.3-1.3,2.1-8.5,3.9-12.8C1394.3-770,1393.2-771.6,1391.6-771.6z"/>
<linearGradient id="SVGID_9_" gradientUnits="userSpaceOnUse" x1="1712.208" y1="1070.6462" x2="1712.208" y2="1129.8652" gradientTransform="matrix(1 0 0 1 0 -1840.015)">
	<stop  offset="0" style="stop-color:#AE4F6F"/>
	<stop  offset="1" style="stop-color:#6C365E"/>
</linearGradient>
<path class="st37" d="M1757.7-765c0.3-2.1-1.6-3.9-4-3.9h-41.5h-41.5c-2.4,0-4.2,1.8-4,3.9c1,8.1,6.2,27.8,32.1,48.9
	c7.5,6.1,19.2,6.1,26.7,0C1751.5-737.2,1756.7-756.9,1757.7-765z"/>
<linearGradient id="SVGID_10_" gradientUnits="userSpaceOnUse" x1="2115.3081" y1="1060.5681" x2="2115.3081" y2="1100.7627" gradientTransform="matrix(1 0 0 1 0 -1840.015)">
	<stop  offset="0" style="stop-color:#AE4F6F"/>
	<stop  offset="1" style="stop-color:#6C365E"/>
</linearGradient>
<path class="st38" d="M2160.8-776.5c0.3-1.4-1.6-2.6-4-2.6h-41.5h-41.5c-2.4,0-4.2,1.2-4,2.6c1,5.5,6.2,18.8,32.1,33.2
	c7.5,4.1,19.2,4.1,26.7,0C2154.6-757.6,2159.8-771,2160.8-776.5z"/>
<linearGradient id="SVGID_11_" gradientUnits="userSpaceOnUse" x1="2476.9502" y1="1079.9469" x2="2476.9502" y2="1129.6537" gradientTransform="matrix(1 0 0 1 0 -1840.015)">
	<stop  offset="0" style="stop-color:#AE4F6F"/>
	<stop  offset="1" style="stop-color:#6C365E"/>
</linearGradient>
<path class="st39" d="M2531.3-759.6h-48.8c-1.9,0-3.7,0-5.6,0c-1.9,0-3.7,0-5.6,0h-48.7c-0.6,0.8,1,5.2,1.3,6.2
	c0.9,2.8,3.7,4.5,6.2,6.2c6.3,4.3,9.8,10.3,14.8,15.8c5.5,6.1,12,11.4,18.8,16.1c3.7,2.6,8.5,3.8,13.3,3.8s9.6-1.3,13.3-3.8
	c6.8-4.7,13.3-9.9,18.8-16.1c5-5.5,8.5-11.5,14.8-15.8c2.5-1.7,5.3-3.4,6.2-6.2C2530.3-754.4,2531.9-758.8,2531.3-759.6z"/>
<linearGradient id="SVGID_12_" gradientUnits="userSpaceOnUse" x1="2518.3999" y1="1080.615" x2="2518.3999" y2="1080.615" gradientTransform="matrix(1 0 0 1 0 -1840.015)">
	<stop  offset="0" style="stop-color:#AE4F6F"/>
	<stop  offset="1" style="stop-color:#6C365E"/>
</linearGradient>
<path class="st40" d="M2518.4-759.4"/>
<ellipse class="st13" cx="1393.1" cy="-821.8" rx="6.1" ry="6.1"/>
<ellipse transform="matrix(0.1586 -0.9873 0.9873 0.1586 1941.7661 709.0108)" class="st13" cx="1386.9" cy="-784.8" rx="20.1" ry="5.8"/>
<ellipse transform="matrix(0.1454 -0.9894 0.9894 0.1454 2954.8152 1805.2357)" class="st13" cx="2522.4" cy="-807.8" rx="7.2" ry="4"/>
<ellipse transform="matrix(8.062460e-02 -0.9967 0.9967 8.062460e-02 3083.3386 1801.9484)" class="st13" cx="2518.5" cy="-770.4" rx="20.1" ry="5.8"/>
<ellipse transform="matrix(1.111431e-03 -1 1 1.111431e-03 2568.4775 930.6711)" class="st13" cx="1750.1" cy="-820.3" rx="6.1" ry="3.6"/>
<ellipse transform="matrix(0.9997 -2.536530e-02 2.536530e-02 0.9997 21.4009 54.3069)" class="st13" cx="2151.3" cy="-816.4" rx="3.8" ry="3.8"/>
<path class="st13" d="M1754.7-782.4c0,12.7-5.6,24.7-8.2,24.7s-1.1-12-1.1-24.7s2.1-23,4.7-23S1754.7-795.1,1754.7-782.4z"/>
<path class="st13" d="M2155.2-782.4c0,7.7-3.9,14-6.1,14s-1.8-6.3-1.8-14s1.8-14,3.9-14C2153.4-796.4,2155.2-790.2,2155.2-782.4z"/>
<path class="st41" d="M30.4,37.1C20.3,60.8,7.7,98.3,20.3,114.9c19.3,25.3,34.8,29.2,43.1,33.8c15.4,5.9,30.7,0,30.7,0
	c8.2-4,23.9-8.6,43.1-33.8c12.7-16.6,0.1-54.1-10.1-77.9H30.4V37.1z"/>
<path class="st27" d="M521.3-19.1c-1.9,17.5-4.4,53.7,14.1,70.3c13.1,11.7,25.1,0,25.1,0c17.1-18.1,16-52.8,14.1-70.3
	C574.6-19.1,521.3-19.1,521.3-19.1z"/>
<path class="st27" d="M927.5,66.2c-0.4,12.8-0.7,37.1,1.8,46.4c3.5,12.8,4.2,16.3,8,21.8c0,0,12.2,14.4,24.5,0c4.3-5.1,4.5-9,8-21.8
	c2.5-9.3,2.2-33.6,1.8-46.4C971.6,66.2,927.5,66.2,927.5,66.2z"/>
<circle class="st13" cx="114.9" cy="25.9" r="5"/>
<ellipse transform="matrix(0.9872 -0.1597 0.1597 0.9872 -8.6323 20.1594)" class="st13" cx="121.1" cy="63.8" rx="5" ry="21.5"/>
<ellipse class="st13" cx="567.9" cy="-32.7" rx="2.8" ry="4.5"/>
<ellipse class="st13" cx="567.9" cy="0" rx="2.8" ry="21.5"/>
<ellipse class="st13" cx="966.9" cy="81.5" rx="2.7" ry="17.3"/>
<circle class="st13" cx="966.9" cy="56.8" r="2.7"/>
</svg>
