<?xml version="1.0" encoding="utf-8"?>
<!-- Generator: Adobe Illustrator 22.0.1, SVG Export Plug-In . SVG Version: 6.00 Build 0)  -->
<svg version="1.1" id="Layer_1" xmlns="http://www.w3.org/2000/svg" xmlns:xlink="http://www.w3.org/1999/xlink" x="0px" y="0px"
	 viewBox="0 0 88.6 261.8" style="enable-background:new 0 0 88.6 261.8;" xml:space="preserve">
<style type="text/css">
	.st0{display:none;}
	.st1{display:inline;fill:#FFFFFF;stroke:#000000;stroke-miterlimit:10;}
	.st2{fill:#707B7F;}
	.st3{fill:#CE403F;}
	.st4{fill:#FFFFFF;}
	.st5{fill:#CD915F;}
	.st6{fill:#AA6628;}
	.st7{opacity:0.5;fill:#F9F9FA;enable-background:new    ;}
	.st8{fill:url(#SVGID_1_);}
	.st9{fill:#DDDDDD;}
	.st10{fill:#F7F7F7;}
	.st11{opacity:0.35;fill:#F4F4F5;enable-background:new    ;}
	.st12{fill:url(#SVGID_2_);}
	.st13{opacity:0.6;fill:#F4F4F5;enable-background:new    ;}
	.st14{display:none;fill:#34A6C9;stroke:#1B8EB7;stroke-width:10;stroke-miterlimit:10;}
	.st15{display:none;fill:#F27CA7;stroke:#C94C72;stroke-width:10;stroke-miterlimit:10;}
	.st16{fill:#476269;}
	.st17{fill:#222728;}
	.st18{fill:#DDDDDC;}
	.st19{fill:#F6F7F7;}
	.st20{fill:url(#SVGID_3_);}
	.st21{fill:url(#SVGID_4_);}
	.st22{enable-background:new    ;}
	.st23{fill:#F9F9FA;stroke:#E2E2E2;stroke-width:3;stroke-miterlimit:10;}
	.st24{fill:#D95F56;}
	.st25{fill:url(#SVGID_5_);}
	.st26{fill:url(#SVGID_6_);}
	.st27{opacity:0.84;fill:#E8CD2C;enable-background:new    ;}
	.st28{opacity:0.39;fill:#90D7EB;enable-background:new    ;}
	.st29{opacity:0.84;fill:url(#SVGID_7_);enable-background:new    ;}
	.st30{fill:#D2E8C9;stroke:#6EBF59;stroke-width:2;stroke-miterlimit:10;}
	.st31{fill:none;}
	.st32{fill:#E4F1DD;}
	.st33{fill:#7AC25B;}
	.st34{fill:none;stroke:#E2E2E2;stroke-miterlimit:10;}
	.st35{fill:#157D3E;stroke:#E2E2E2;stroke-width:3;stroke-miterlimit:10;}
	.st36{fill:url(#SVGID_8_);}
	.st37{fill:url(#SVGID_9_);}
	.st38{fill:url(#SVGID_10_);}
	.st39{fill:url(#SVGID_11_);}
	.st40{fill:url(#SVGID_12_);}
	.st41{opacity:0.84;fill:#FFDC31;enable-background:new    ;}
</style>
<g id="Layer_1_1_" class="st0">
	<rect x="-1218.4" y="-1046.9" class="st1" width="136.5" height="482"/>
</g>
<path class="st2" d="M-954.8,730.6h-127c-11.1,0-20.2-9.1-20.2-20.2v-93.6c0-11.1,9.1-20.2,20.2-20.2h127c11.1,0,20.2,9.1,20.2,20.2
	v93.6C-934.6,721.5-943.7,730.6-954.8,730.6z"/>
<rect x="-1683.5" y="-1208.3" class="st3" width="658.6" height="188.9"/>
<circle class="st4" cx="-2257.9" cy="-758.9" r="6.2"/>
<g>
	<polygon class="st5" points="-1066.7,-1470.5 -1108.9,-1457.9 -1016.4,-1457.9 	"/>
	<polygon class="st5" points="-728.3,-1470.5 -686.2,-1457.9 -778.7,-1457.9 	"/>
	<rect x="-1066.8" y="-1470.5" class="st5" width="338.4" height="14.9"/>
	<rect x="-1108.9" y="-1457.9" class="st6" width="422.8" height="11.1"/>
</g>
<path class="st7" d="M-2139.6-526.2h-148.8c-11.7,0-21.2-9.5-21.2-21.2V-775c0-11.7,9.5-21.2,21.2-21.2h148.8
	c11.7,0,21.2,9.5,21.2,21.2v227.7C-2118.4-535.7-2127.9-526.2-2139.6-526.2z"/>
<linearGradient id="SVGID_1_" gradientUnits="userSpaceOnUse" x1="-2215.5" y1="2457.3" x2="-2215.5" y2="2233.0784" gradientTransform="matrix(1 0 0 -1 0 1693.8)">
	<stop  offset="0" style="stop-color:#FFCC4C"/>
	<stop  offset="1" style="stop-color:#FEBF4B"/>
</linearGradient>
<path class="st8" d="M-2156.1-538.4h-118.8c-11.7,0-21.2-9.5-21.2-21.2v-182.7c0-11.7,9.5-21.2,21.2-21.2h118.8
	c11.7,0,21.2,9.5,21.2,21.2v182.7C-2134.9-547.9-2144.4-538.4-2156.1-538.4z"/>
<circle class="st9" cx="-2271.4" cy="-765.1" r="33"/>
<circle class="st9" cx="-2235.7" cy="-774.7" r="23.4"/>
<circle class="st9" cx="-2200.7" cy="-764.8" r="23.4"/>
<circle class="st9" cx="-2151.2" cy="-769.6" r="28.2"/>
<circle class="st10" cx="-2200.7" cy="-773.8" r="23.4"/>
<circle class="st10" cx="-2179.4" cy="-783.8" r="11.7"/>
<path class="st10" d="M-2259.1-783.8c0-1.5,0.1-2.9,0.4-4.3h-42.6c-2,4.2-3.1,9-3.1,14c0,18.2,14.8,33,33,33
	c13.6,0,25.3-8.2,30.3-19.9C-2251.4-763.5-2259.1-772.7-2259.1-783.8z"/>
<path class="st10" d="M-2238.4-774.1c0,4.6-1,9.1-2.7,13.1c1.7,0.4,3.5,0.6,5.4,0.6c12.9,0,23.4-10.5,23.4-23.4
	c0-1.5-0.1-2.9-0.4-4.3h-28.7C-2239.5-783.9-2238.4-779.1-2238.4-774.1z"/>
<path class="st10" d="M-2241.5-788.1h-17.2c-0.3,1.4-0.4,2.8-0.4,4.3c0,11.1,7.7,20.3,18,22.7c1.7-4,2.7-8.4,2.7-13.1
	C-2238.4-779.1-2239.5-783.9-2241.5-788.1z"/>
<path class="st10" d="M-2124.6-788.1h-53.1c-1.1,3-1.6,6.1-1.6,9.5c0,15.6,12.6,28.2,28.2,28.2c15.6,0,28.2-12.6,28.2-28.2
	C-2123-782-2123.6-785.2-2124.6-788.1z"/>
<path class="st10" d="M-2120-787.3c0,0-0.1-0.1-0.2-0.2C-2120.2-787.4-2120.1-787.3-2120-787.3L-2120-787.3z"/>
<path class="st10" d="M-2124.6-788.1h-116.9c-2.4-5-5.9-9.3-10.3-12.6c-3.5,3.3-5.9,7.7-6.8,12.6h-42.6c0.5-1.1,1.1-2.2,1.8-3.3
	c4.2-4.6,12.7-12.3,22.7-12.3h55.4c0,0,6.7,0,16,0h55.4c13.2,0,23.9,13.4,25.3,15.3C-2124.7-788.3-2124.7-788.2-2124.6-788.1z"/>
<path class="st10" d="M-2258.7-788.1h17.2c-2.3-5-5.9-9.3-10.3-12.6C-2255.3-797.4-2257.7-793-2258.7-788.1z"/>
<path class="st7" d="M-2061.6-722.3c-2.3-11.7-10.8-20.4-21-20.4h-35.8v22.5h25.3c6,0,10.8,5.9,10.8,13.3v77.4
	c0,7.3-4.8,13.3-10.8,13.3h-25.3v23.4h35.8c10.7,0,19.6-9.6,21.3-22.2c0.2-1.1,0.3-2.2,0.3-3.4v-1l0,0v-96.7l0,0v-1.4
	C-2061-719.2-2061.2-720.8-2061.6-722.3z"/>
<path class="st11" d="M-2262.6-568.6L-2262.6-568.6c-6,0-10.8-4.8-10.8-10.8v-134c0-6,4.8-10.8,10.8-10.8l0,0
	c6,0,10.8,4.8,10.8,10.8v134C-2251.7-573.4-2256.6-568.6-2262.6-568.6z"/>
<path class="st11" d="M-2212.3-568.6L-2212.3-568.6c-6,0-10.8-4.8-10.8-10.8v-134c0-6,4.8-10.8,10.8-10.8l0,0
	c6,0,10.8,4.8,10.8,10.8v134C-2201.5-573.4-2206.4-568.6-2212.3-568.6z"/>
<path class="st11" d="M-2163.3-571.9L-2163.3-571.9c-6,0-10.8-4.8-10.8-10.8v-134c0-6,4.8-10.8,10.8-10.8l0,0
	c6,0,10.8,4.8,10.8,10.8v134C-2152.4-576.7-2157.3-571.9-2163.3-571.9z"/>
<g>
	<circle class="st4" cx="1488.7" cy="13.3" r="4.7"/>
	<path class="st7" d="M1574.6,195.5h-104.4c-11.7,0-21.2-9.5-21.2-21.2V9.3c0-11.7,9.5-21.2,21.2-21.2h104.4
		c11.7,0,21.2,9.5,21.2,21.2v165C1595.8,186,1586.3,195.5,1574.6,195.5z"/>
	
		<linearGradient id="SVGID_2_" gradientUnits="userSpaceOnUse" x1="1521.3" y1="1680.5" x2="1521.3" y2="1508.3417" gradientTransform="matrix(1 0 0 -1 0 1693.8)">
		<stop  offset="0" style="stop-color:#FFCC4C"/>
		<stop  offset="1" style="stop-color:#FEBF4B"/>
	</linearGradient>
	<path class="st12" d="M1562,186.1h-81.4c-11.7,0-21.2-9.5-21.2-21.2V34.5c0-11.7,9.5-21.2,21.2-21.2h81.4
		c11.7,0,21.2,9.5,21.2,21.2v130.4C1583.2,176.6,1573.7,186.1,1562,186.1z"/>
	<circle class="st9" cx="1478.4" cy="8.6" r="25.3"/>
	<circle class="st9" cx="1505.8" cy="1.2" r="17.9"/>
	<circle class="st9" cx="1532.6" cy="8.8" r="17.9"/>
	<circle class="st9" cx="1570.7" cy="5.1" r="21.6"/>
	<circle class="st10" cx="1532.6" cy="1.9" r="17.9"/>
	<circle class="st10" cx="1549" cy="-5.8" r="9"/>
	<path class="st10" d="M1487.8-5.8c0-1.1,0.1-2.2,0.3-3.3h-32.7c-1.5,3.3-2.4,6.9-2.4,10.7c0,14,11.3,25.3,25.3,25.3
		c10.4,0,19.4-6.3,23.3-15.3C1493.7,9.8,1487.8,2.7,1487.8-5.8z"/>
	<path class="st10" d="M1503.7,1.6c0,3.6-0.7,7-2.1,10c1.3,0.3,2.7,0.5,4.1,0.5c9.9,0,17.9-8,17.9-17.9c0-1.1-0.1-2.2-0.3-3.3h-22.1
		C1502.9-5.8,1503.7-2.2,1503.7,1.6z"/>
	<path class="st10" d="M1501.3-9.1h-13.2c-0.2,1.1-0.3,2.2-0.3,3.3c0,8.5,5.9,15.6,13.8,17.5c1.3-3.1,2.1-6.5,2.1-10
		C1503.7-2.2,1502.9-5.8,1501.3-9.1z"/>
	<path class="st10" d="M1591.1-9.1h-40.8c-0.8,2.3-1.3,4.7-1.3,7.3c0,12,9.7,21.6,21.6,21.6c12,0,21.6-9.7,21.6-21.6
		C1592.3-4.4,1591.9-6.8,1591.1-9.1z"/>
	<path class="st10" d="M1594.6-5c0,0-0.1-0.1-0.1-0.2C1594.5-5.1,1594.5-5,1594.6-5L1594.6-5z"/>
	<path class="st10" d="M1591.1-9.1h-89.7c-1.8-3.8-4.5-7.2-7.9-9.7c-2.7,2.5-4.6,5.9-5.3,9.7h-32.7c0.4-0.9,0.9-1.7,1.4-2.5
		c3.2-3.5,9.8-9.4,17.5-9.4h42.5c0,0,5.1,0,12.3,0h42.5c10,0,18.2,10.2,19.3,11.7C1591-9.2,1591-9.2,1591.1-9.1z"/>
	<path class="st10" d="M1488.1-9.1h13.2c-1.8-3.8-4.5-7.2-7.9-9.7C1490.7-16.2,1488.8-12.9,1488.1-9.1z"/>
	<path class="st7" d="M1639.4,44.9c-1.7-9-8.3-15.7-16.1-15.7h-27.5v17.3h19.4c4.6,0,8.3,4.6,8.3,10.2v59.4c0,5.6-3.7,10.2-8.3,10.2
		h-19.4v17.9h27.5c8.2,0,15.1-7.4,16.4-17c0.1-0.8,0.2-1.7,0.2-2.6v-0.8l0,0V49.6l0,0v-1.1C1639.9,47.3,1639.7,46.1,1639.4,44.9z"/>
	<path class="st13" d="M1485.1,162.9L1485.1,162.9c-4.6,0-8.3-3.7-8.3-8.3V51.7c0-4.6,3.7-8.3,8.3-8.3l0,0c4.6,0,8.3,3.7,8.3,8.3
		v102.9C1493.5,159.2,1489.7,162.9,1485.1,162.9z"/>
	<path class="st13" d="M1523.7,162.9L1523.7,162.9c-4.6,0-8.3-3.7-8.3-8.3V51.7c0-4.6,3.7-8.3,8.3-8.3l0,0c4.6,0,8.3,3.7,8.3,8.3
		v102.9C1532,159.2,1528.3,162.9,1523.7,162.9z"/>
	<path class="st13" d="M1561.4,160.4L1561.4,160.4c-4.6,0-8.3-3.7-8.3-8.3V49.2c0-4.6,3.7-8.3,8.3-8.3l0,0c4.6,0,8.3,3.7,8.3,8.3
		v102.9C1569.7,156.7,1566,160.4,1561.4,160.4z"/>
</g>
<path class="st14" d="M-1304.6-138.2v-32.9l5.8,5.8c9.5,9.5,25,9.5,34.5,0s9.5-25,0-34.5l-45-45l-2.9-2.9
	c-4.5-4.5-10.2-6.8-16.1-7.1c-0.2,0-0.5,0-0.8,0c-0.1,0-0.2,0-0.2,0c-0.1,0-0.1,0-0.2,0s-0.1,0-0.2,0c-6.3-0.1-12.7,2.3-17.5,7.2
	l-47.9,47.9c-9.5,9.5-9.5,25,0,34.5s25,9.5,34.5,0l7.1-7.1l0.6,33.7c-34.6,10-59.9,41.9-59.9,79.8c0,45.9,37.2,83.1,83.1,83.1
	s83.1-37.2,83.1-83.1C-1246.6-96.2-1271-127.6-1304.6-138.2z M-1329.7-23.8c-19.4,0-35.2-15.8-35.2-35.2s15.8-35.2,35.2-35.2
	s35.2,15.8,35.2,35.2S-1310.2-23.8-1329.7-23.8z"/>
<path class="st15" d="M-1018.6-96.6c32.4-32.4,32.4-85.1,0-117.5s-85.1-32.4-117.5,0s-32.4,85.1,0,117.5
	c10.6,10.6,23.3,17.7,36.8,21.4v25.9h-9.6c-12.1,0-21.9,9.8-21.9,21.9l0,0c0,12.1,9.8,21.9,21.9,21.9h9.6v9.6
	c0,12.1,9.8,21.9,21.9,21.9l0,0c12.1,0,21.9-9.8,21.9-21.9v-9.6h9.6c12.1,0,21.9-9.8,21.9-21.9l0,0c0-12.1-9.8-21.9-21.9-21.9h-9.6
	v-25.9C-1041.9-78.9-1029.2-86-1018.6-96.6z M-1102.2-180.3c13.8-13.8,36-13.8,49.8,0s13.8,36,0,49.8s-36,13.8-49.8,0
	C-1116-144.2-1116-166.5-1102.2-180.3z"/>
<rect x="-1227.1" y="-318.6" class="st16" width="578.1" height="600.5"/>
<path class="st4" d="M-1077.2-140.7l-59.5,59.5c-6.3,6.3-16.4,6.3-22.7,0l0,0c-6.3-6.3-6.3-16.4,0-22.7l59.5-59.5
	c6.3-6.3,16.4-6.3,22.7,0l0,0C-1071-157.1-1071-146.9-1077.2-140.7z"/>
<path class="st4" d="M-1040.4-81.2l-59.5-59.5c-6.3-6.3-6.3-16.4,0-22.7l0,0c6.3-6.3,16.4-6.3,22.7,0l59.5,59.5
	c6.3,6.3,6.3,16.4,0,22.7l0,0C-1024-75-1034.2-75-1040.4-81.2z"/>
<path class="st4" d="M-1068.7-130v75.2c0,11.9-9.6,21.5-21.5,21.5l0,0c-11.9,0-21.5-9.6-21.5-21.5V-130c0-11.9,9.6-21.5,21.5-21.5
	l0,0C-1078.3-151.5-1068.7-141.9-1068.7-130z"/>
<path class="st4" d="M-1088.6-54.5c-52.3,0-94.6,42.4-94.6,94.6s42.4,94.6,94.6,94.6S-994,92.3-994,40.1S-1036.3-54.5-1088.6-54.5z
	 M-1088.6,98.3c-32.1,0-58.2-26-58.2-58.2c0-32.1,26-58.2,58.2-58.2c32.1,0,58.2,26,58.2,58.2S-1056.4,98.3-1088.6,98.3z"/>
<path class="st4" d="M-847.9,113.3V11.8c0-11.9,9.6-21.5,21.5-21.5l0,0c11.9,0,21.5,9.6,21.5,21.5v101.4c0,11.9-9.6,21.5-21.5,21.5
	l0,0C-838.2,134.8-847.9,125.1-847.9,113.3z"/>
<path class="st4" d="M-786.5,92.5h-79.7c-11.9,0-21.5-9.6-21.5-21.5l0,0c0-11.9,9.6-21.5,21.5-21.5h79.7c11.9,0,21.5,9.6,21.5,21.5
	l0,0C-765,82.8-774.7,92.5-786.5,92.5z"/>
<path class="st4" d="M-828,11.5c52.3,0,94.6-42.4,94.6-94.6s-42.4-94.6-94.6-94.6s-94.6,42.4-94.6,94.6S-880.3,11.5-828,11.5z
	 M-828-141.3c32.1,0,58.2,26,58.2,58.2c0,32.1-26,58.2-58.2,58.2c-32.1,0-58.2-26-58.2-58.2C-886.2-115.2-860.1-141.3-828-141.3z"/>
<rect x="-1741.7" y="-318.6" class="st17" width="508.9" height="434.6"/>
<path class="st4" d="M-1462.8-141.3l-59.5,59.5c-6.3,6.3-16.4,6.3-22.7,0l0,0c-6.3-6.3-6.3-16.4,0-22.7l59.5-59.5
	c6.3-6.3,16.4-6.3,22.7,0l0,0C-1456.5-157.7-1456.5-147.5-1462.8-141.3z"/>
<path class="st4" d="M-1426-81.8l-59.5-59.5c-6.3-6.3-6.3-16.4,0-22.7l0,0c6.3-6.3,16.4-6.3,22.7,0l59.5,59.5
	c6.3,6.3,6.3,16.4,0,22.7l0,0C-1409.6-75.5-1419.7-75.5-1426-81.8z"/>
<path class="st4" d="M-1456.5-132.9v79.8c0,10.6-8.6,19.2-19.2,19.2l0,0c-10.6,0-19.2-8.6-19.2-19.2v-79.8
	c0-10.6,8.6-19.2,19.2-19.2l0,0C-1465.1-152.1-1456.5-143.5-1456.5-132.9z"/>
<path class="st18" d="M-1592.4-1166.3c-18,0-34.3,7.5-45.7,19.5v83.2c11.4,12,27.6,19.5,45.7,19.5c34.4,0,62.4-27.4,62.4-61.1
	S-1557.9-1166.3-1592.4-1166.3z"/>
<path class="st18" d="M-1053.9-1137.4c-8-8.2-19.5-13.4-32.2-13.4c-24.1,0-43.7,18.4-43.7,41.1s19.6,41.1,43.7,41.1
	c12.8,0,24.3-5.2,32.2-13.4V-1137.4z"/>
<ellipse class="st18" cx="-1510.2" cy="-1118.3" rx="28" ry="27.5"/>
<ellipse class="st18" cx="-1435.1" cy="-1110.8" rx="54.2" ry="53.1"/>
<ellipse class="st18" cx="-1355.8" cy="-1115.6" rx="35.9" ry="35.2"/>
<ellipse class="st18" cx="-1290.6" cy="-1131.5" rx="33.6" ry="32.9"/>
<ellipse class="st18" cx="-1256.4" cy="-1108.1" rx="38.4" ry="37.6"/>
<ellipse class="st18" cx="-1193.7" cy="-1116.7" rx="38" ry="37.3"/>
<ellipse class="st18" cx="-1144.5" cy="-1128.1" rx="23.2" ry="22.7"/>
<path class="st18" d="M-1053.9-1112.7H-1637c2.2-15.3,1.6-11,3.5-24.2l0,0c0-13.3,12.2-24.2,27.2-24.2h521.7
	c15,0,27.2,10.8,27.2,24.2l0,0C-1056.2-1124.7-1056.3-1125-1053.9-1112.7z"/>
<circle class="st19" cx="-1510.2" cy="-1130.5" r="28"/>
<circle class="st19" cx="-1435.1" cy="-1122.9" r="54.2"/>
<circle class="st19" cx="-1355.8" cy="-1127.7" r="35.9"/>
<circle class="st19" cx="-1290.6" cy="-1143.9" r="33.6"/>
<circle class="st19" cx="-1256.4" cy="-1120.1" r="38.4"/>
<circle class="st19" cx="-1193.7" cy="-1128.8" r="38"/>
<circle class="st19" cx="-1144.5" cy="-1140.5" r="23.2"/>
<rect x="-1637.8" y="-1184" class="st19" width="583.9" height="61.1"/>
<path class="st19" d="M-1053.9-1150.7c-8-8.4-19.5-13.7-32.2-13.7c-24.1,0-43.7,18.8-43.7,41.9s19.6,41.9,43.7,41.9
	c12.8,0,24.3-5.3,32.2-13.7V-1150.7z"/>
<path class="st19" d="M-1592.4-1181.3c-18,0-34.3,7.7-45.7,19.9v84.9c11.4,12.2,27.6,19.9,45.7,19.9c34.4,0,62.4-27.9,62.4-62.4
	S-1557.9-1181.3-1592.4-1181.3z"/>
<path class="st7" d="M-2350.3-557.5c1.4,1.9,2.6,3.6,3.7,5.2c6,8.5,2.2,20.3-7.8,23.9c-8.4,3-21.4,5.2-41.4,4.8
	c-20.1,0.4-33.1-1.8-41.5-4.8c-10-3.5-13.8-15.4-7.8-23.9c1.1-1.6,2.3-3.3,3.7-5.2c8.4-11.5,11-58.3,7.8-119.2
	c-2.6-49.2-25.6-180.6-34.4-229.4c-1.7-9.7,5.9-18.6,16-18.6h112.2c10.1,0,17.8,8.9,16,18.6c-8.8,48.8-31.8,180.2-34.4,229.4
	C-2361.3-615.8-2358.7-569-2350.3-557.5z"/>
<g>
	
		<linearGradient id="SVGID_3_" gradientUnits="userSpaceOnUse" x1="-2395.8499" y1="2571.241" x2="-2395.8499" y2="2268.6775" gradientTransform="matrix(1 0 0 -1 0 1693.8)">
		<stop  offset="0" style="stop-color:#FFCC4C"/>
		<stop  offset="1" style="stop-color:#FEBF4B"/>
	</linearGradient>
	<path class="st20" d="M-2366.7-687.6c2-38,19.8-139.3,26.5-177c1.3-7.5-4.6-14.3-12.4-14.3h-86.5c-7.8,0-13.7,6.8-12.4,14.3
		c6.8,37.6,24.5,139,26.5,177c0.9,16.3,1.2,79.1,1,92c-0.2,15.3,11.4,19.1,26.6,19.9c0.5,0,1,0,1.5,0s1,0,1.5,0
		c15.2-0.8,26.9-4.6,26.6-19.9C-2367.9-608.6-2367.6-671.3-2366.7-687.6z"/>
</g>
<circle class="st13" cx="-2360.9" cy="-856.9" r="6.1"/>
<ellipse transform="matrix(0.1256 -0.9921 0.9921 0.1256 -1301.9982 -3035.0461)" class="st13" cx="-2372.8" cy="-778.9" rx="53" ry="6.1"/>
<g>
	<path class="st7" d="M-2508.9-538.6c0.8,2.1,0.1,4-1.5,5.5c-3.6,3.2-9.4,4.2-14,5c-11.5,1.9-23.2,2-34.8,1.9
		c-11.6,0.1-23.4,0-34.8-1.9c-4.6-0.8-10.4-1.7-14-5c-1.6-1.5-2.3-3.4-1.5-5.5c0.8-2,2.5-3.5,4.7-3.8c1.3-0.2,2.6-0.3,4-0.5
		c5.2-0.9,10.2-2.7,15-4.9c13.4-6,22-13.8,22-13.8s0.8-103,0.8-121.9s-38.2-28.4-54-46.5c-15.8-18.2,18.5-106.5,18.5-106.5h78.9
		c0,0,36.7,86.7,20.9,104.8s-56.4,29.3-56.4,48.2s0.8,121.9,0.8,121.9s8.6,7.8,22,13.8c4.8,2.1,9.8,3.9,15,4.9
		c1.3,0.2,2.6,0.3,4,0.5C-2511.4-542.1-2509.7-540.6-2508.9-538.6z"/>
	
		<linearGradient id="SVGID_4_" gradientUnits="userSpaceOnUse" x1="-2558.05" y1="2509.2031" x2="-2558.05" y2="2398.9944" gradientTransform="matrix(1 0 0 -1 0 1693.8)">
		<stop  offset="0" style="stop-color:#FFCC4C"/>
		<stop  offset="1" style="stop-color:#FEBF4B"/>
	</linearGradient>
	<path class="st21" d="M-2515.5-728.7l-37.7,21.8c-3,1.7-6.8,1.7-9.8,0l-37.7-21.8c-0.3-0.2-0.6-0.3-0.8-0.4
		c-2.2-1-15.2-8.3-5.3-39.8l9.8-38.6c1.1-4.3,5-7.4,9.5-7.4h58.8c4.5,0,8.4,3,9.5,7.4l9.9,38.6c9.9,31.5-3.1,38.8-5.3,39.8
		C-2515-729-2515.2-728.9-2515.5-728.7z"/>
	<circle class="st13" cx="-2529.9" cy="-792.7" r="6.1"/>
	<ellipse class="st13" cx="-2529.9" cy="-759.7" rx="6.1" ry="17"/>
</g>
<text transform="matrix(1 0 0 1 -1666.851 -792.6675)" style="font-family:'MyriadPro-Regular'; font-size:72px;">Beer</text>
<text transform="matrix(1 0 0 1 -207.2037 -973.9204)" style="font-family:'MyriadPro-Regular'; font-size:72px;">Cocktail</text>
<path class="st23" d="M-390.6-532c-77,0-50.8-18-50.8-18s14.7-4.4,27.8-6.6c13.1-2.2,16.3-27.3,16.3-27.3s0-73.2,0-95
	c0-21.9-5-22.9-5-22.9l-73.6-93.7h170.4l-73.6,93.7c0,0-5,1-5,22.9c0,21.8,0,95,0,95s3.2,25.1,16.3,27.3c13.1,2.2,27.9,6.6,27.9,6.6
	S-313.6-532-390.6-532z"/>
<path class="st23" d="M-97.1-749.9c-12.3,13.9-52.3,27.8-58,37.6c0,0-0.4,8.6-9.1,9.1c0,0-4.5,3.2-4.5,13.2s-4.3,112,0,116.3
	s36.7,14.1,42.2,15.9c5.5,1.8,38.8,25-54,25s-59.4-23.2-54-25c5.5-1.8,37.9-11.6,42.2-15.9c4.3-4.3,0-106.3,0-116.3
	s-4.6-13.2-4.6-13.2c-8.6-0.5-9.1-9.1-9.1-9.1c-5.7-9.8-45.8-23.7-58-37.6c-12.3-13.9-9-46.6-9-46.6h184.8
	C-88.1-796.5-84.8-763.8-97.1-749.9z"/>
<path class="st23" d="M-24.3-533.2c-37.3-5.2-19.8-13.9-19.8-13.9l25.9-9.8v-107c-12.1-6.8-20.5-22.5-20.5-22.5
	c-14-24.2-5.4-143.7-5.4-143.7h60.6c0,0,8.6,119.5-5.4,143.7c0,0-8.4,15.6-20.5,22.5v107l25.9,9.8c0,0,17.5,8.7-19.8,13.9
	C-10.3-532.3-17.4-532.3-24.3-533.2z"/>
<path class="st23" d="M152.2-759.1c6.4,48.4,20.4,121.1,1.3,140.2c-12.4,12.4-18.3,19.6-20.9,23.1c-1.2,1.6-1.6,3.6-1.1,5.5
	c1.2,5.2,3.3,16.3,0.7,21c-0.9,1.7-1.8,3.3-2.5,4.9c-1.8,3.9,0.5,8.5,4.7,9.4l17.8,3.9c0.2,0,0.4,0.1,0.7,0.2
	c4.1,1.3,41,14.1-33.3,18.8c-0.3,0-0.6,0-0.9,0c-74.3-4.7-37.3-17.5-33.3-18.8c0.2-0.1,0.4-0.1,0.7-0.2l17.8-3.9
	c4.2-0.9,6.5-5.5,4.7-9.4c-0.7-1.5-1.5-3.2-2.5-4.9c-2.6-4.8-0.5-15.8,0.7-21c0.4-1.9,0-3.9-1.1-5.5c-2.6-3.5-8.5-10.7-20.9-23.1
	c-19.1-19.1-5.1-91.8,1.3-140.2c3.8-29-3.8-48-10.5-58.5c-2.9-4.5,0.4-10.3,5.7-10.3h76c5.3,0,8.5,5.9,5.7,10.3
	C156-807.1,148.4-788.1,152.2-759.1z"/>
<path class="st23" d="M335.4-803.1l-5,253.9c-0.1,5.5-3.8,10.2-9.1,11.7c-7.7,2.2-21.6,4.6-45.8,5c-24.2-0.3-38-2.7-45.8-5
	c-5.3-1.5-8.9-6.2-9.1-11.7l-5-253.9c-0.1-7,5.5-12.7,12.4-12.7h94.7C330-815.7,335.6-810,335.4-803.1z"/>
<path class="st23" d="M428.3-534.3c-59.6,0.5-52.6-4.3-34.3-14.3c16.8-9.2,12.4-29.6,11.5-32.8c-0.1-0.3-0.1-0.7-0.2-1L383-877.7
	c-0.3-3.5,2.5-6.6,6.1-6.6h78.3c3.6,0,6.4,3,6.1,6.6l-22.3,295.3c0,0.3-0.1,0.7-0.2,1c-0.8,3.3-5.3,23.7,11.5,32.8
	C480.9-538.6,487.9-533.8,428.3-534.3z"/>
<text transform="matrix(1 0 0 1 -207.203 -101.2646)" style="font-family:'MyriadPro-Regular'; font-size:72px;">Lhao</text>
<path class="st7" d="M-352.7,164.2c-23.7,31.1-43,36.1-53.2,41.7s-16.2,26.8,3.2,30.9c19.4,4.2,27.9,6.7,27.9,6.7s35.7,18.2-50,18.2
	c-86.4,0-50-18.2-50-18.2s8.4-2.5,27.8-6.7c19.4-4.1,13.4-25.4,3.2-30.9c-10.2-5.6-29.4-10.5-53.2-41.7
	c-23.7-31.1,24.6-122.1,24.6-122.1h95C-377.2,42.2-328.9,133.1-352.7,164.2z"/>
<path class="st7" d="M44.3,261.8c-66.8-0.8-42.6-10.7-26.2-11.9s21.7-15.2,21.7-15.2s-0.8-91.8,0-107.3
	c0.8-15.6-11.7-23.3-11.7-23.3C-2,72.1,11.9,0,11.9,0h64.7c0,0,13.9,72.1-16.2,104.1c0,0-12.5,7.8-11.7,23.3
	c0.8,15.6,0,107.3,0,107.3s5.3,13.9,21.7,15.2C86.9,251.1,111.1,260.9,44.3,261.8z"/>
<path class="st7" d="M446,261.8c-39.6,0-30.4-5.9-23.1-9.4c7-3.4,15.4-9.1,15.4-9.1l1.3-28.9c0.9-20.1-4.1-22.3-8.8-29.2
	s-5.6-11.3-10-27.3s-1.9-68.1-1.9-68.1h54.4c0,0,2.5,52.1-1.9,68.1s-5.3,20.4-10,27.3s-9.7,9.1-8.8,29.2l1.3,28.9
	c0,0,8.4,5.7,15.4,9.1C476.4,255.9,485.6,261.8,446,261.8z"/>
<text transform="matrix(1 0 0 1 1047.2493 -973.9207)" style="font-family:'MyriadPro-Regular'; font-size:72px;">Wine</text>
<path class="st7" d="M863.4-534.3c-103.5-0.2-51.2-11.8-48-12.5c0.1,0,0.2,0,0.3-0.1c1.8-0.5,17.6-5.2,22.9-8.2
	c5.5-3.2,14.6-18.7,14.8-25.7c0.2-6.3-4-21.5-5-25.2c-0.2-0.5-0.4-1-0.7-1.5c-7.5-11-1.3-17.9,3.1-24.8c4.5-7,2-23.6-1.9-30
	c-3.8-6.4-13.9-31.9-17.7-51c-3.1-15.9-27.1-81.2-35-102.7c-1.2-3.3,1.2-6.9,4.8-6.9l126.2,0.3c3.6,0,6,3.6,4.8,6.9
	c-8.1,21.4-32.3,86.6-35.5,102.5c-3.9,19.1-14.1,44.6-18,50.9c-3.8,6.4-6.4,22.9-2,30c4.4,6.9,10.5,13.9,3,24.8
	c-0.3,0.5-0.6,0.9-0.7,1.5c-1,3.6-5.3,18.9-5.1,25.2c0.2,7,9.2,22.6,14.7,25.8c5.2,3.1,21.1,7.8,22.8,8.3c0.1,0,0.2,0.1,0.3,0.1
	C914.7-545.8,966.9-534,863.4-534.3z"/>
<path class="st7" d="M1214.9-659.5v101.1c0,0,16.4,7.2,26.1,10.7c8.8,3.2,30.8,14.5-32.3,14.5s-41.1-11.3-32.3-14.5
	c9.7-3.5,26-10.7,26-10.7v-101.1c0,0-3.9-2.4-12.9-8.9c-10.2-7.4-27.4-26.8-33.9-48.7c-6.6-21.9,9.9-105.6,9.9-105.6h86.5
	c0,0,16.4,83.8,9.9,105.6c-6.6,21.9-23.7,41.3-33.9,48.7C1218.8-661.9,1214.9-659.5,1214.9-659.5z"/>
<path class="st7" d="M1619.2-683.1c0,6.3-0.4,117.8-0.4,117.8l25.6,14.7c0,0,44.2,16.3-32.6,16.3s-32.6-16.3-32.6-16.3l25.6-14.7
	c0,0-0.4-111.5-0.4-117.8s-3.1-8-8.5-11.4s-25-14.8-35.1-32.4s12.4-95.9,12.4-95.9h77.3c0,0,22.5,78.4,12.4,95.9
	c-10.1,17.6-29.7,29-35.1,32.4S1619.2-689.3,1619.2-683.1z"/>
<path class="st7" d="M1981.6-642.3c0,4.6,0,69.5,0,69.5s15.3,22.4,24.2,23c8.9,0.6,44.4,15.5-32.5,15.5s-41.4-14.9-32.5-15.5
	s24.2-23,24.2-23s0-65,0-69.5c0-4.6-3.6-7.7-3.6-7.7c-1.6-16.3-19.1-29.2-43.9-55.9c-24.7-26.7,8-99.8,8-99.8h95.7
	c0,0,32.7,73.1,8,99.8c-24.7,26.7-42.3,39.6-43.9,55.9C1985.2-650,1981.6-646.9,1981.6-642.3z"/>
<path class="st24" d="M-959.2,725.6h-118.2c-10.7,0-19.4-8.7-19.4-19.4V588c0-10.7,8.7-19.4,19.4-19.4h118.2
	c10.7,0,19.4,8.7,19.4,19.4v118.2C-939.8,716.8-948.5,725.6-959.2,725.6z"/>
<path class="st4" d="M-1096.8,620v86.2c0,10.7,8.7,19.4,19.4,19.4h118.2c10.7,0,19.4-8.7,19.4-19.4V620H-1096.8z"/>
<text transform="matrix(1 0 0 1 -1042.0732 602.1266)" class="st4" style="font-family:'Cloud-Bold'; font-size:26px;">DAY</text>
<g>
	<path class="st7" d="M1874.8,38.3c0,6.3-0.4,117.8-0.4,117.8l25.6,14.7c0,0,44.2,16.3-32.6,16.3c-65.3,0-24.6-16.3-24.6-16.3
		l25.6-14.7c0,0-0.4-111.5-0.4-117.8s-3.1-8-8.5-11.4s-25-14.8-35.1-32.4c-10.2-17.6,12.3-95.9,12.3-95.9h69.3
		c0,0,22.5,78.4,12.4,95.9c-10.1,17.6-29.7,29-35.1,32.4C1877.9,30.3,1874.8,32,1874.8,38.3z"/>
	
		<linearGradient id="SVGID_5_" gradientUnits="userSpaceOnUse" x1="1909.5552" y1="1724.8568" x2="1909.0939" y2="1716.0914" gradientTransform="matrix(1 0 0 -1 0 1693.8)">
		<stop  offset="0" style="stop-color:#AE4F6F"/>
		<stop  offset="1" style="stop-color:#6C365E"/>
	</linearGradient>
	<path class="st25" d="M1907.7-26c-0.3-1.5,0.2-3,1.3-4.1c0.2-0.2,0.4-0.4,0.7-0.4c0.7-0.1,1.3,0.6,1.4,1.3c0.3,1.4-0.7,3-2.2,3.4
		c-0.5,0.1-1.1,0-1.3-0.4"/>
	
		<linearGradient id="SVGID_6_" gradientUnits="userSpaceOnUse" x1="1871.4519" y1="1722.59" x2="1871.4519" y2="1670.1127" gradientTransform="matrix(1 0 0 -1 0 1693.8)">
		<stop  offset="0" style="stop-color:#AE4F6F"/>
		<stop  offset="1" style="stop-color:#6C365E"/>
	</linearGradient>
	<path class="st26" d="M1913.5-12.6c-0.7,0.1-1.3,0.5-2,0.8s-1.6,0.4-2.3,0.2c-0.1,0-0.2,0-0.3-0.1s-0.1-0.1-0.1-0.2
		c0-0.1,0-0.1,0-0.2c0-1.9,0.2-4.1-2.1-5.3c-0.7-0.3-1.4-0.5-2.1-0.5c-2.4,0-4.4,1.4-6.5,2.5c-3.5,1.9-7.3,3-11.2,3.5h-13.2
		c-4.4-0.5-8.7-1.3-13-2.2c-1.8-0.4-3.7-0.8-5.1-1.9c-1.1-0.9-1.9-2.1-2.9-3.1s-2.5-1.8-3.9-1.3c-0.7,0.2-1.2,0.7-1.9,0.9
		c-1.1,0.3-2.2-0.1-3.2-0.5c-1.6-0.7-3.2-1.3-4.5-2.4c-2-1.6-3.7-4.1-6.6-3.4c-1.2,0.3-2.2,1.1-2.8,2.1c-6.3,9.8,5,20.6,11.6,26.7
		c5.5,5.1,11.6,9.3,18,13.2c0.9,0.5,1.7,1,2.4,1.5c7.6,5,9.3,5.8,11.6,5.8c2,0,6.1-3,10.1-5.8c0.7-0.5,1.5-1,2.4-1.5
		c0.5-0.3,1-0.6,1.5-0.9c5-3.1,9.8-6.5,14.3-10.4c2.9-2.6,5.7-5.3,8.2-8.3c1.3-1.6,2.5-3.2,3.6-4.9
		C1914-9.2,1916.5-12.9,1913.5-12.6z"/>
</g>
<g>
	<path class="st7" d="M1379.1,42.8c4.9,0,8.9,4.1,8.7,9l-4.6,115c0,0-1.1,21.5-15.8,21.5c-20.6,0-34.5,0-34.5,0s-13.9,0-34.5,0
		c-14.7,0-15.8-21.5-15.8-21.5l-4.6-115c-0.2-4.9,3.7-9,8.7-9C1286.7,42.8,1379.1,42.8,1379.1,42.8z"/>
	<path class="st27" d="M1298.9,92.1c-6.7,0-12.1,3.8-11.8,8.5l2.9,51.1c0,0,0.9,12.4,13.3,12.4c17.3,0,28.9,0,28.9,0s11.7,0,28.9,0
		c12.3,0,13.3-12.4,13.3-12.4l2.9-51.1c0.3-4.6-5.1-8.5-11.8-8.5H1298.9z"/>
	<path class="st28" d="M1315.2,112.7l-13.1-8.9c-2.6-1.8-3.3-5.4-1.5-8l8.9-13.1c1.8-2.6,5.4-3.3,8-1.5l13.1,8.9
		c2.6,1.8,3.3,5.4,1.5,8l-8.9,13.1C1321.4,113.8,1317.8,114.5,1315.2,112.7z"/>
	<path class="st28" d="M1357.8,100.2l-7,2.1c-2,0.6-4-0.5-4.6-2.5l-2.1-7c-0.6-2,0.5-4,2.5-4.6l7-2.1c2-0.6,4,0.5,4.6,2.5l2.1,7
		C1360.9,97.5,1359.8,99.6,1357.8,100.2z"/>
</g>
<g>
	<path class="st7" d="M781.3,151.7c3.7,0,6.7,3.1,6.5,6.8l-3.5,86.4c0,0-0.8,16.1-11.9,16.1c-15.5,0-25.9,0-25.9,0s-10.4,0-25.9,0
		c-11,0-11.9-16.1-11.9-16.1l-3.5-86.4c-0.2-3.7,2.8-6.8,6.5-6.8C711.9,151.7,781.3,151.7,781.3,151.7z"/>
	<path class="st27" d="M721.1,188.7c-5,0-9.1,2.9-8.9,6.4l2.2,38.4c0,0,0.7,9.3,10,9.3c13,0,21.7,0,21.7,0s8.8,0,21.7,0
		c9.2,0,10-9.3,10-9.3l2.2-38.4c0.2-3.5-3.8-6.4-8.9-6.4L721.1,188.7L721.1,188.7z"/>
	<path class="st28" d="M733.3,204.2l-9.8-6.7c-2-1.4-2.5-4.1-1.1-6l6.7-9.8c1.4-2,4.1-2.5,6-1.1l9.8,6.7c2,1.4,2.5,4.1,1.1,6
		l-6.7,9.8C738,205,735.3,205.5,733.3,204.2z"/>
	<path class="st28" d="M765.3,194.8l-5.3,1.6c-1.5,0.5-3-0.4-3.5-1.9l-1.6-5.3c-0.5-1.5,0.4-3,1.9-3.5l5.3-1.6
		c1.5-0.5,3,0.4,3.5,1.9l1.6,5.3C767.6,192.8,766.8,194.3,765.3,194.8z"/>
</g>
<g>
	<path class="st7" d="M1742.3,171.6l-20.2-11.6c0,0,0.3-67.4,0.3-87.6l45.4-63h-96.1l45.3,62.8c0.1,20,0.3,87.7,0.3,87.7l-20.2,11.6
		c0,0-32.1,12.9,19.4,12.9C1777.2,184.5,1742.3,171.6,1742.3,171.6z"/>
	
		<linearGradient id="SVGID_7_" gradientUnits="userSpaceOnUse" x1="1719.75" y1="1661.2001" x2="1719.75" y2="1628.2467" gradientTransform="matrix(1 0 0 -1 0 1693.8)">
		<stop  offset="0" style="stop-color:#14AFAB"/>
		<stop  offset="1" style="stop-color:#227893"/>
	</linearGradient>
	<polygon class="st29" points="1743.5,32.6 1719.8,65.6 1696,32.6 	"/>
	<path class="st30" d="M1745.4,20.6c5.3-4.6,5.8-12.7,1.2-18s-12.7-5.8-18-1.2"/>
	<g>
		<polygon class="st31" points="1735.7,9.4 1728.3,9.4 1728.3,10.2 1737.1,10.2 		"/>
		<polygon class="st32" points="1741.3,15.8 1741.3,9.4 1735.7,9.4 1736.4,10.2 		"/>
	</g>
</g>
<path class="st33" d="M-2681.7-758.4c-0.6-0.8-2.8-5.7-5.3-10.7c-1.7-3.4-1.8-7.2-1.7-9.3c0-0.9,0.4-1.6,0.9-2.3
	c0.4-0.5,0.8-1.4,0.8-2.8c0-2.8-55.6-3.9-55.6-3.9s-55.6,1.1-55.6,3.9c0,1.4,0.4,2.3,0.8,2.8c0.5,0.7,0.9,1.5,0.9,2.3
	c0.1,2.1,0,5.9-1.7,9.3c-2.5,5-4.6,9.9-5.3,10.7s0,15.1,0,18.7v151.9c0,1,0.4,1.9,1,2.7c1.1,1.2,3.1,3.1,5.7,4.7
	c2.4,1.4,4.1,2.7,5.1,3.5c0.7,0.6,1.3,1.4,1.4,2.3l0,0c0.1,0.5,0.3,0.9,0.5,1.3l1.1,1.7c0.7,1.1,1.8,1.7,3,1.8
	c7.4,0.6,33.5,2.5,42.9,2.5c9.8,0,35.6-1.9,42.9-2.5c1.2-0.1,2.4-0.8,3-1.8l1.1-1.7c0.3-0.4,0.4-0.9,0.5-1.3l0,0
	c0.2-0.9,0.7-1.8,1.4-2.3c1-0.8,2.7-2,5.1-3.5c2.6-1.6,4.6-3.5,5.7-4.7c0.7-0.7,1-1.7,1-2.7v-151.9
	C-2681.7-743.3-2681-757.6-2681.7-758.4z"/>
<path class="st34" d="M-2786.4-576.7c0,0,50.3,5.5,87.7,0"/>
<rect x="-2795.3" y="-688.8" class="st35" width="105.5" height="26.5"/>
<path class="st34" d="M-2791.8-780.8c0,0,40.7,4.1,98.6,0"/>
<path class="st35" d="M-2774.3-662.2h63.5c-3.5,24-16.4,41.8-31.7,41.8C-2757.9-620.4-2770.7-638.2-2774.3-662.2z"/>
<path class="st35" d="M-2710.8-688.8h-63.5c3.5-24,16.4-41.8,31.7-41.8C-2727.2-730.6-2714.3-712.8-2710.8-688.8z"/>
<path d="M-1446.4,927.6h-23.1v-106c0-6.4,5.2-11.6,11.6-11.6l0,0c6.4,0,11.6,5.2,11.6,11.6L-1446.4,927.6L-1446.4,927.6z"/>
<path d="M-1353.9,939.1L-1353.9,939.1c0,6.4-5.2,11.6-11.6,11.6h-307.1c-6.4,0-11.6-5.2-11.6-11.6l0,0c0-6.4,5.2-11.6,11.6-11.6
	h307.1C-1359.1,927.6-1353.9,932.7-1353.9,939.1z"/>
<path d="M-828.8,1133.7L-828.8,1133.7c0,6.4-5.2,11.6-11.6,11.6h-307.1c-6.4,0-11.6-5.2-11.6-11.6l0,0c0-6.4,5.2-11.6,11.6-11.6
	h307.1C-834,1122.2-828.8,1127.3-828.8,1133.7z"/>
<path d="M-1418,823.6L-1418,823.6c-4.5,4.5-11.8,4.5-16.3,0l-99.2-99.2c-4.5-4.5-4.5-11.8,0-16.3l0,0c4.5-4.5,11.8-4.5,16.3,0
	l99.2,99.2C-1413.4,811.7-1413.4,819-1418,823.6z"/>
<path d="M-1633.8,823.6L-1633.8,823.6c4.5,4.5,11.8,4.5,16.3,0l99.2-99.2c4.5-4.5,4.5-11.8,0-16.3l0,0c-4.5-4.5-11.8-4.5-16.3,0
	l-99.2,99.2C-1638.3,811.7-1638.3,819-1633.8,823.6z"/>
<path d="M-1582.4,927.6h-23.1v-106c0-6.4,5.2-11.6,11.6-11.6l0,0c6.4,0,11.6,5.2,11.6,11.6L-1582.4,927.6L-1582.4,927.6z"/>
<path d="M-1521.7,927.6h-43.1v-52.4c0-11.9,9.7-21.6,21.6-21.6l0,0c11.9,0,21.6,9.7,21.6,21.6L-1521.7,927.6L-1521.7,927.6z"/>
<path d="M-935.7,998.4h-109.4c-4.3,0-7.9,3.5-7.9,7.9l0,0c0,13.9-11.3,25.2-25.2,25.2l0,0c-10.3,0-18.6,8.3-18.6,18.6v33.7h196.6
	c13.8,0,24.9-11.2,24.9-24.9l0,0C-875.2,1025.5-902.3,998.4-935.7,998.4z"/>
<path d="M-897.8,1020.8h-38.5c-8.7,0-15.8-7.1-15.8-15.8v-38.5c0-8.7,7.1-15.8,15.8-15.8h38.5c8.7,0,15.8,7.1,15.8,15.8v38.5
	C-882,1013.7-889.1,1020.8-897.8,1020.8z"/>
<linearGradient id="SVGID_8_" gradientUnits="userSpaceOnUse" x1="864.1" y1="1024.6395" x2="864.1" y2="1097.4879" gradientTransform="matrix(1 0 0 1 0 -1755.8152)">
	<stop  offset="0" style="stop-color:#AE4F6F"/>
	<stop  offset="1" style="stop-color:#6C365E"/>
</linearGradient>
<path class="st36" d="M888.1-729.5h-24h-24c-1.6,0-2.7,1.6-2.1,3.1c1.8,4.3,3.5,11.5,3.9,12.8c2.4,10.1,3.1,20.3,8.1,29.4
	c3.7,6.7,8.1,12.8,12.6,19c0.9,1.2,1.5,1.7,1.5,1.7s0.6-0.5,1.5-1.7c4.5-6.2,8.9-12.3,12.6-19c5-9.1,5.7-19.3,8.1-29.4
	c0.3-1.3,2.1-8.5,3.9-12.8C890.8-727.9,889.7-729.5,888.1-729.5z"/>
<linearGradient id="SVGID_9_" gradientUnits="userSpaceOnUse" x1="1208.708" y1="1028.5464" x2="1208.708" y2="1087.7654" gradientTransform="matrix(1 0 0 1 0 -1755.8152)">
	<stop  offset="0" style="stop-color:#AE4F6F"/>
	<stop  offset="1" style="stop-color:#6C365E"/>
</linearGradient>
<path class="st37" d="M1254.2-722.9c0.3-2.1-1.6-3.9-4-3.9h-41.5h-41.5c-2.4,0-4.2,1.8-4,3.9c1,8.1,6.2,27.8,32.1,48.9
	c7.5,6.1,19.2,6.1,26.7,0C1248-695.1,1253.2-714.8,1254.2-722.9z"/>
<linearGradient id="SVGID_10_" gradientUnits="userSpaceOnUse" x1="1611.8081" y1="1018.4682" x2="1611.8081" y2="1058.6628" gradientTransform="matrix(1 0 0 1 0 -1755.8152)">
	<stop  offset="0" style="stop-color:#AE4F6F"/>
	<stop  offset="1" style="stop-color:#6C365E"/>
</linearGradient>
<path class="st38" d="M1657.3-734.4c0.3-1.4-1.6-2.6-4-2.6h-41.5h-41.5c-2.4,0-4.2,1.2-4,2.6c1,5.5,6.2,18.8,32.1,33.2
	c7.5,4.1,19.2,4.1,26.7,0C1651.1-715.5,1656.3-728.9,1657.3-734.4z"/>
<linearGradient id="SVGID_11_" gradientUnits="userSpaceOnUse" x1="1973.3502" y1="1037.8469" x2="1973.3502" y2="1087.5537" gradientTransform="matrix(1 0 0 1 0 -1755.8152)">
	<stop  offset="0" style="stop-color:#AE4F6F"/>
	<stop  offset="1" style="stop-color:#6C365E"/>
</linearGradient>
<path class="st39" d="M2027.7-717.5h-48.8c-1.9,0-3.7,0-5.6,0s-3.7,0-5.6,0H1919c-0.6,0.8,1,5.2,1.3,6.2c0.9,2.8,3.7,4.5,6.2,6.2
	c6.3,4.3,9.8,10.3,14.8,15.8c5.5,6.1,12,11.4,18.8,16.1c3.7,2.6,8.5,3.8,13.3,3.8s9.6-1.3,13.3-3.8c6.8-4.7,13.3-9.9,18.8-16.1
	c5-5.5,8.5-11.5,14.8-15.8c2.5-1.7,5.3-3.4,6.2-6.2C2026.7-712.3,2028.3-716.7,2027.7-717.5z"/>
<linearGradient id="SVGID_12_" gradientUnits="userSpaceOnUse" x1="2014.8" y1="1038.5151" x2="2014.8" y2="1038.5151" gradientTransform="matrix(1 0 0 1 0 -1755.8152)">
	<stop  offset="0" style="stop-color:#AE4F6F"/>
	<stop  offset="1" style="stop-color:#6C365E"/>
</linearGradient>
<path class="st40" d="M2014.8-717.3"/>
<ellipse class="st13" cx="889.5" cy="-779.7" rx="6.1" ry="6.1"/>
<ellipse transform="matrix(0.1586 -0.9873 0.9873 0.1586 1476.4935 247.2696)" class="st13" cx="883.3" cy="-742.7" rx="20.1" ry="5.8"/>
<ellipse transform="matrix(0.1454 -0.9894 0.9894 0.1454 2482.8799 1342.9862)" class="st13" cx="2018.8" cy="-765.7" rx="7.2" ry="4"/>
<ellipse transform="matrix(8.062460e-02 -0.9967 0.9967 8.062460e-02 2578.3931 1338.7439)" class="st13" cx="2014.9" cy="-728.3" rx="20.1" ry="5.8"/>
<ellipse transform="matrix(1.111431e-03 -1 1 1.111431e-03 2023.437 469.1049)" class="st13" cx="1246.5" cy="-778.3" rx="6.1" ry="3.6"/>
<ellipse transform="matrix(0.9997 -2.536530e-02 2.536530e-02 0.9997 20.1709 41.5462)" class="st13" cx="1647.7" cy="-774.3" rx="3.8" ry="3.8"/>
<path class="st13" d="M1251.2-740.3c0,12.7-5.6,24.7-8.2,24.7s-1.1-12-1.1-24.7s2.1-23,4.7-23C1249.1-763.3,1251.2-753,1251.2-740.3
	z"/>
<path class="st13" d="M1651.6-740.3c0,7.7-3.9,14-6.1,14s-1.8-6.3-1.8-14s1.8-14,3.9-14C1649.9-754.3,1651.6-748.1,1651.6-740.3z"/>
<path class="st27" d="M-473.2,79.2c-10.1,23.8-22.7,61.3-10.1,77.9c19.3,25.3,34.8,29.2,43.1,33.8c15.4,5.9,30.7,0,30.7,0
	c8.2-4,23.9-8.6,43.1-33.8c12.7-16.6,0.1-54.1-10.1-77.9C-376.5,79.2-473.2,79.2-473.2,79.2z"/>
<path class="st41" d="M17.8,23c-1.9,17.5-4.4,53.7,14.1,70.3C45,105,57,93.3,57,93.3C74.1,75.2,73,40.5,71.1,23H17.8z"/>
<path class="st27" d="M423.9,108.3c-0.4,12.8-0.7,37.1,1.8,46.4c3.5,12.8,4.2,16.3,8,21.8c0,0,12.2,14.4,24.5,0
	c4.3-5.1,4.5-9,8-21.8c2.5-9.3,2.2-33.6,1.8-46.4C468,108.3,423.9,108.3,423.9,108.3z"/>
<circle class="st13" cx="-388.6" cy="68" r="5"/>
<ellipse transform="matrix(0.9872 -0.1597 0.1597 0.9872 -21.8235 -59.7239)" class="st13" cx="-382.5" cy="105.9" rx="5" ry="21.5"/>
<ellipse class="st13" cx="64.3" cy="9.4" rx="2.8" ry="4.5"/>
<ellipse class="st13" cx="64.3" cy="42.1" rx="2.8" ry="21.5"/>
<ellipse class="st13" cx="463.3" cy="123.6" rx="2.7" ry="17.3"/>
<circle class="st13" cx="463.3" cy="98.9" r="2.7"/>
</svg>
