<?xml version="1.0" encoding="utf-8"?>
<!-- Generator: Adobe Illustrator 22.0.1, SVG Export Plug-In . SVG Version: 6.00 Build 0)  -->
<svg version="1.1" id="Layer_1" xmlns="http://www.w3.org/2000/svg" xmlns:xlink="http://www.w3.org/1999/xlink" x="0px" y="0px"
	 viewBox="0 0 59.1 172" style="enable-background:new 0 0 59.1 172;" xml:space="preserve">
<style type="text/css">
	.st0{display:none;}
	.st1{display:inline;fill:#FFFFFF;stroke:#000000;stroke-miterlimit:10;}
	.st2{fill:#707B7F;}
	.st3{fill:#CE403F;}
	.st4{fill:#FFFFFF;}
	.st5{fill:#CD915F;}
	.st6{fill:#AA6628;}
	.st7{opacity:0.5;fill:#F9F9FA;enable-background:new    ;}
	.st8{fill:url(#SVGID_1_);}
	.st9{fill:#DDDDDD;}
	.st10{fill:#F7F7F7;}
	.st11{opacity:0.35;fill:#F4F4F5;enable-background:new    ;}
	.st12{fill:url(#SVGID_2_);}
	.st13{opacity:0.6;fill:#F4F4F5;enable-background:new    ;}
	.st14{display:none;fill:#34A6C9;stroke:#1B8EB7;stroke-width:10;stroke-miterlimit:10;}
	.st15{display:none;fill:#F27CA7;stroke:#C94C72;stroke-width:10;stroke-miterlimit:10;}
	.st16{fill:#476269;}
	.st17{fill:#222728;}
	.st18{fill:#DDDDDC;}
	.st19{fill:#F6F7F7;}
	.st20{fill:url(#SVGID_3_);}
	.st21{fill:url(#SVGID_4_);}
	.st22{enable-background:new    ;}
	.st23{fill:#F9F9FA;stroke:#E2E2E2;stroke-width:3;stroke-miterlimit:10;}
	.st24{fill:#D95F56;}
	.st25{fill:url(#SVGID_5_);}
	.st26{fill:url(#SVGID_6_);}
	.st27{opacity:0.84;fill:#E8CD2C;enable-background:new    ;}
	.st28{opacity:0.39;fill:#90D7EB;enable-background:new    ;}
	.st29{opacity:0.84;fill:url(#SVGID_7_);enable-background:new    ;}
	.st30{fill:#D2E8C9;stroke:#6EBF59;stroke-width:2;stroke-miterlimit:10;}
	.st31{fill:none;}
	.st32{fill:#E4F1DD;}
	.st33{fill:#7AC25B;}
	.st34{fill:none;stroke:#E2E2E2;stroke-miterlimit:10;}
	.st35{fill:#157D3E;stroke:#E2E2E2;stroke-width:3;stroke-miterlimit:10;}
	.st36{fill:url(#SVGID_8_);}
	.st37{fill:url(#SVGID_9_);}
	.st38{fill:url(#SVGID_10_);}
	.st39{fill:url(#SVGID_11_);}
	.st40{fill:url(#SVGID_12_);}
	.st41{opacity:0.84;fill:#FFDC31;enable-background:new    ;}
</style>
<g id="Layer_1_1_" class="st0">
	<rect x="-1634.8" y="-1136.7" class="st1" width="136.5" height="482"/>
</g>
<path class="st2" d="M-1371.2,640.8h-127c-11.1,0-20.2-9.1-20.2-20.2V527c0-11.1,9.1-20.2,20.2-20.2h127c11.1,0,20.2,9.1,20.2,20.2
	v93.6C-1351,631.7-1360.1,640.8-1371.2,640.8z"/>
<rect x="-2099.9" y="-1298.1" class="st3" width="658.6" height="188.9"/>
<circle class="st4" cx="-2674.3" cy="-848.7" r="6.2"/>
<g>
	<polygon class="st5" points="-1483.1,-1560.3 -1525.3,-1547.7 -1432.8,-1547.7 	"/>
	<polygon class="st5" points="-1144.7,-1560.3 -1102.6,-1547.7 -1195.1,-1547.7 	"/>
	<rect x="-1483.2" y="-1560.3" class="st5" width="338.4" height="14.9"/>
	<rect x="-1525.3" y="-1547.7" class="st6" width="422.8" height="11.1"/>
</g>
<path class="st7" d="M-2556-616h-148.8c-11.7,0-21.2-9.5-21.2-21.2v-227.6c0-11.7,9.5-21.2,21.2-21.2h148.8
	c11.7,0,21.2,9.5,21.2,21.2v227.7C-2534.8-625.5-2544.3-616-2556-616z"/>
<linearGradient id="SVGID_1_" gradientUnits="userSpaceOnUse" x1="-2631.9001" y1="2457.1001" x2="-2631.9001" y2="2232.8784" gradientTransform="matrix(1 0 0 -1 0 1603.8)">
	<stop  offset="0" style="stop-color:#FFCC4C"/>
	<stop  offset="1" style="stop-color:#FEBF4B"/>
</linearGradient>
<path class="st8" d="M-2572.5-628.2h-118.8c-11.7,0-21.2-9.5-21.2-21.2v-182.7c0-11.7,9.5-21.2,21.2-21.2h118.8
	c11.7,0,21.2,9.5,21.2,21.2v182.7C-2551.3-637.7-2560.8-628.2-2572.5-628.2z"/>
<circle class="st9" cx="-2687.8" cy="-854.9" r="33"/>
<circle class="st9" cx="-2652.1" cy="-864.5" r="23.4"/>
<circle class="st9" cx="-2617.1" cy="-854.6" r="23.4"/>
<circle class="st9" cx="-2567.6" cy="-859.4" r="28.2"/>
<circle class="st10" cx="-2617.1" cy="-863.6" r="23.4"/>
<circle class="st10" cx="-2595.8" cy="-873.6" r="11.7"/>
<path class="st10" d="M-2675.5-873.6c0-1.5,0.1-2.9,0.4-4.3h-42.6c-2,4.2-3.1,9-3.1,14c0,18.2,14.8,33,33,33
	c13.6,0,25.3-8.2,30.3-19.9C-2667.8-853.3-2675.5-862.5-2675.5-873.6z"/>
<path class="st10" d="M-2654.8-863.9c0,4.6-1,9.1-2.7,13.1c1.7,0.4,3.5,0.6,5.4,0.6c12.9,0,23.4-10.5,23.4-23.4
	c0-1.5-0.1-2.9-0.4-4.3h-28.7C-2655.9-873.7-2654.8-868.9-2654.8-863.9z"/>
<path class="st10" d="M-2657.9-877.9h-17.2c-0.3,1.4-0.4,2.8-0.4,4.3c0,11.1,7.7,20.3,18,22.7c1.7-4,2.7-8.4,2.7-13.1
	C-2654.8-868.9-2655.9-873.7-2657.9-877.9z"/>
<path class="st10" d="M-2541-877.9h-53.1c-1.1,3-1.6,6.1-1.6,9.5c0,15.6,12.6,28.2,28.2,28.2c15.6,0,28.2-12.6,28.2-28.2
	C-2539.4-871.8-2540-875-2541-877.9z"/>
<path class="st10" d="M-2536.4-877.1c0,0-0.1-0.1-0.2-0.2C-2536.6-877.2-2536.5-877.1-2536.4-877.1L-2536.4-877.1z"/>
<path class="st10" d="M-2541-877.9h-116.9c-2.4-5-5.9-9.3-10.3-12.6c-3.5,3.3-5.9,7.7-6.8,12.6h-42.6c0.5-1.1,1.1-2.2,1.8-3.3
	c4.2-4.6,12.7-12.3,22.7-12.3h55.4c0,0,6.7,0,16,0h55.4c13.2,0,23.9,13.4,25.3,15.3C-2541.1-878.1-2541.1-878-2541-877.9z"/>
<path class="st10" d="M-2675.1-877.9h17.2c-2.3-5-5.9-9.3-10.3-12.6C-2671.7-887.2-2674.1-882.8-2675.1-877.9z"/>
<path class="st7" d="M-2478-812.1c-2.3-11.7-10.8-20.4-21-20.4h-35.8v22.5h25.3c6,0,10.8,5.9,10.8,13.3v77.4
	c0,7.3-4.8,13.3-10.8,13.3h-25.3v23.4h35.8c10.7,0,19.6-9.6,21.3-22.2c0.2-1.1,0.3-2.2,0.3-3.4v-1l0,0v-96.7l0,0v-1.4
	C-2477.4-809-2477.6-810.6-2478-812.1z"/>
<path class="st11" d="M-2679-658.4L-2679-658.4c-6,0-10.8-4.8-10.8-10.8v-134c0-6,4.8-10.8,10.8-10.8l0,0c6,0,10.8,4.8,10.8,10.8
	v134C-2668.1-663.2-2673-658.4-2679-658.4z"/>
<path class="st11" d="M-2628.7-658.4L-2628.7-658.4c-6,0-10.8-4.8-10.8-10.8v-134c0-6,4.8-10.8,10.8-10.8l0,0
	c6,0,10.8,4.8,10.8,10.8v134C-2617.9-663.2-2622.8-658.4-2628.7-658.4z"/>
<path class="st11" d="M-2579.7-661.7L-2579.7-661.7c-6,0-10.8-4.8-10.8-10.8v-134c0-6,4.8-10.8,10.8-10.8l0,0
	c6,0,10.8,4.8,10.8,10.8v134C-2568.8-666.5-2573.7-661.7-2579.7-661.7z"/>
<g>
	<circle class="st4" cx="1072.3" cy="-76.5" r="4.7"/>
	<path class="st7" d="M1158.2,105.7h-104.4c-11.7,0-21.2-9.5-21.2-21.2v-165c0-11.7,9.5-21.2,21.2-21.2h104.4
		c11.7,0,21.2,9.5,21.2,21.2v165C1179.4,96.2,1169.9,105.7,1158.2,105.7z"/>
	
		<linearGradient id="SVGID_2_" gradientUnits="userSpaceOnUse" x1="1104.9" y1="1680.3" x2="1104.9" y2="1508.1417" gradientTransform="matrix(1 0 0 -1 0 1603.8)">
		<stop  offset="0" style="stop-color:#FFCC4C"/>
		<stop  offset="1" style="stop-color:#FEBF4B"/>
	</linearGradient>
	<path class="st12" d="M1145.6,96.3h-81.4c-11.7,0-21.2-9.5-21.2-21.2V-55.3c0-11.7,9.5-21.2,21.2-21.2h81.4
		c11.7,0,21.2,9.5,21.2,21.2V75.1C1166.8,86.8,1157.3,96.3,1145.6,96.3z"/>
	<circle class="st9" cx="1062" cy="-81.2" r="25.3"/>
	<circle class="st9" cx="1089.4" cy="-88.6" r="17.9"/>
	<circle class="st9" cx="1116.2" cy="-81" r="17.9"/>
	<circle class="st9" cx="1154.3" cy="-84.7" r="21.6"/>
	<circle class="st10" cx="1116.2" cy="-87.9" r="17.9"/>
	<circle class="st10" cx="1132.6" cy="-95.6" r="9"/>
	<path class="st10" d="M1071.4-95.6c0-1.1,0.1-2.2,0.3-3.3H1039c-1.5,3.3-2.4,6.9-2.4,10.7c0,14,11.3,25.3,25.3,25.3
		c10.4,0,19.4-6.3,23.3-15.3C1077.3-80,1071.4-87.1,1071.4-95.6z"/>
	<path class="st10" d="M1087.3-88.2c0,3.6-0.7,7-2.1,10c1.3,0.3,2.7,0.5,4.1,0.5c9.9,0,17.9-8,17.9-17.9c0-1.1-0.1-2.2-0.3-3.3
		h-22.1C1086.5-95.6,1087.3-92,1087.3-88.2z"/>
	<path class="st10" d="M1084.9-98.9h-13.2c-0.2,1.1-0.3,2.2-0.3,3.3c0,8.5,5.9,15.6,13.8,17.5c1.3-3.1,2.1-6.5,2.1-10
		C1087.3-92,1086.5-95.6,1084.9-98.9z"/>
	<path class="st10" d="M1174.7-98.9h-40.8c-0.8,2.3-1.3,4.7-1.3,7.3c0,12,9.7,21.6,21.6,21.6c12,0,21.6-9.7,21.6-21.6
		C1175.9-94.2,1175.5-96.6,1174.7-98.9z"/>
	<path class="st10" d="M1178.2-94.8c0,0-0.1-0.1-0.1-0.2C1178.1-94.9,1178.1-94.8,1178.2-94.8L1178.2-94.8z"/>
	<path class="st10" d="M1174.7-98.9H1085c-1.8-3.8-4.5-7.2-7.9-9.7c-2.7,2.5-4.6,5.9-5.3,9.7h-32.7c0.4-0.9,0.9-1.7,1.4-2.5
		c3.2-3.5,9.8-9.4,17.5-9.4h42.5c0,0,5.1,0,12.3,0h42.5c10,0,18.2,10.2,19.3,11.7C1174.6-99,1174.6-99,1174.7-98.9z"/>
	<path class="st10" d="M1071.7-98.9h13.2c-1.8-3.8-4.5-7.2-7.9-9.7C1074.3-106,1072.4-102.7,1071.7-98.9z"/>
	<path class="st7" d="M1223-44.9c-1.7-9-8.3-15.7-16.1-15.7h-27.5v17.3h19.4c4.6,0,8.3,4.6,8.3,10.2v59.4c0,5.6-3.7,10.2-8.3,10.2
		h-19.4v17.9h27.5c8.2,0,15.1-7.4,16.4-17c0.1-0.8,0.2-1.7,0.2-2.6V34l0,0v-74.2l0,0v-1.1C1223.5-42.5,1223.3-43.7,1223-44.9z"/>
	<path class="st13" d="M1068.7,73.1L1068.7,73.1c-4.6,0-8.3-3.7-8.3-8.3V-38.1c0-4.6,3.7-8.3,8.3-8.3l0,0c4.6,0,8.3,3.7,8.3,8.3
		V64.8C1077.1,69.4,1073.3,73.1,1068.7,73.1z"/>
	<path class="st13" d="M1107.3,73.1L1107.3,73.1c-4.6,0-8.3-3.7-8.3-8.3V-38.1c0-4.6,3.7-8.3,8.3-8.3l0,0c4.6,0,8.3,3.7,8.3,8.3
		V64.8C1115.6,69.4,1111.9,73.1,1107.3,73.1z"/>
	<path class="st13" d="M1145,70.6L1145,70.6c-4.6,0-8.3-3.7-8.3-8.3V-40.6c0-4.6,3.7-8.3,8.3-8.3l0,0c4.6,0,8.3,3.7,8.3,8.3V62.3
		C1153.3,66.9,1149.6,70.6,1145,70.6z"/>
</g>
<path class="st14" d="M-1721-228v-32.9l5.8,5.8c9.5,9.5,25,9.5,34.5,0c9.5-9.5,9.5-25,0-34.5l-45-45l-2.9-2.9
	c-4.5-4.5-10.2-6.8-16.1-7.1c-0.2,0-0.5,0-0.8,0c-0.1,0-0.2,0-0.2,0c-0.1,0-0.1,0-0.2,0s-0.1,0-0.2,0c-6.3-0.1-12.7,2.3-17.5,7.2
	l-47.9,47.9c-9.5,9.5-9.5,25,0,34.5s25,9.5,34.5,0l7.1-7.1l0.6,33.7c-34.6,10-59.9,41.9-59.9,79.8c0,45.9,37.2,83.1,83.1,83.1
	s83.1-37.2,83.1-83.1C-1663-186-1687.4-217.4-1721-228z M-1746.1-113.6c-19.4,0-35.2-15.8-35.2-35.2s15.8-35.2,35.2-35.2
	s35.2,15.8,35.2,35.2S-1726.6-113.6-1746.1-113.6z"/>
<path class="st15" d="M-1435-186.4c32.4-32.4,32.4-85.1,0-117.5s-85.1-32.4-117.5,0s-32.4,85.1,0,117.5
	c10.6,10.6,23.3,17.7,36.8,21.4v25.9h-9.6c-12.1,0-21.9,9.8-21.9,21.9l0,0c0,12.1,9.8,21.9,21.9,21.9h9.6v9.6
	c0,12.1,9.8,21.9,21.9,21.9l0,0c12.1,0,21.9-9.8,21.9-21.9v-9.6h9.6c12.1,0,21.9-9.8,21.9-21.9l0,0c0-12.1-9.8-21.9-21.9-21.9h-9.6
	V-165C-1458.3-168.7-1445.6-175.8-1435-186.4z M-1518.6-270.1c13.8-13.8,36-13.8,49.8,0s13.8,36,0,49.8s-36,13.8-49.8,0
	C-1532.4-234-1532.4-256.3-1518.6-270.1z"/>
<rect x="-1643.5" y="-408.4" class="st16" width="578.1" height="600.5"/>
<path class="st4" d="M-1493.6-230.5l-59.5,59.5c-6.3,6.3-16.4,6.3-22.7,0l0,0c-6.3-6.3-6.3-16.4,0-22.7l59.5-59.5
	c6.3-6.3,16.4-6.3,22.7,0l0,0C-1487.4-246.9-1487.4-236.7-1493.6-230.5z"/>
<path class="st4" d="M-1456.8-171l-59.5-59.5c-6.3-6.3-6.3-16.4,0-22.7l0,0c6.3-6.3,16.4-6.3,22.7,0l59.5,59.5
	c6.3,6.3,6.3,16.4,0,22.7l0,0C-1440.4-164.8-1450.6-164.8-1456.8-171z"/>
<path class="st4" d="M-1485.1-219.8v75.2c0,11.9-9.6,21.5-21.5,21.5l0,0c-11.9,0-21.5-9.6-21.5-21.5v-75.2
	c0-11.9,9.6-21.5,21.5-21.5l0,0C-1494.7-241.3-1485.1-231.7-1485.1-219.8z"/>
<path class="st4" d="M-1505-144.3c-52.3,0-94.6,42.4-94.6,94.6s42.4,94.6,94.6,94.6s94.6-42.4,94.6-94.6S-1452.7-144.3-1505-144.3z
	 M-1505,8.5c-32.1,0-58.2-26-58.2-58.2c0-32.1,26-58.2,58.2-58.2c32.1,0,58.2,26,58.2,58.2S-1472.8,8.5-1505,8.5z"/>
<path class="st4" d="M-1264.3,23.5V-78c0-11.9,9.6-21.5,21.5-21.5l0,0c11.9,0,21.5,9.6,21.5,21.5V23.4c0,11.9-9.6,21.5-21.5,21.5
	l0,0C-1254.6,45-1264.3,35.3-1264.3,23.5z"/>
<path class="st4" d="M-1202.9,2.7h-79.7c-11.9,0-21.5-9.6-21.5-21.5l0,0c0-11.9,9.6-21.5,21.5-21.5h79.7c11.9,0,21.5,9.6,21.5,21.5
	l0,0C-1181.4-7-1191.1,2.7-1202.9,2.7z"/>
<path class="st4" d="M-1244.4-78.3c52.3,0,94.6-42.4,94.6-94.6s-42.4-94.6-94.6-94.6s-94.6,42.4-94.6,94.6S-1296.7-78.3-1244.4-78.3
	z M-1244.4-231.1c32.1,0,58.2,26,58.2,58.2c0,32.1-26,58.2-58.2,58.2c-32.1,0-58.2-26-58.2-58.2
	C-1302.6-205-1276.5-231.1-1244.4-231.1z"/>
<rect x="-2158.1" y="-408.4" class="st17" width="508.9" height="434.6"/>
<path class="st4" d="M-1879.2-231.1l-59.5,59.5c-6.3,6.3-16.4,6.3-22.7,0l0,0c-6.3-6.3-6.3-16.4,0-22.7l59.5-59.5
	c6.3-6.3,16.4-6.3,22.7,0l0,0C-1872.9-247.5-1872.9-237.3-1879.2-231.1z"/>
<path class="st4" d="M-1842.4-171.6l-59.5-59.5c-6.3-6.3-6.3-16.4,0-22.7l0,0c6.3-6.3,16.4-6.3,22.7,0l59.5,59.5
	c6.3,6.3,6.3,16.4,0,22.7l0,0C-1826-165.3-1836.1-165.3-1842.4-171.6z"/>
<path class="st4" d="M-1872.9-222.7v79.8c0,10.6-8.6,19.2-19.2,19.2l0,0c-10.6,0-19.2-8.6-19.2-19.2v-79.8
	c0-10.6,8.6-19.2,19.2-19.2l0,0C-1881.5-241.9-1872.9-233.3-1872.9-222.7z"/>
<path class="st18" d="M-2008.8-1256.1c-18,0-34.3,7.5-45.7,19.5v83.2c11.4,12,27.6,19.5,45.7,19.5c34.4,0,62.4-27.4,62.4-61.1
	S-1974.3-1256.1-2008.8-1256.1z"/>
<path class="st18" d="M-1470.3-1227.2c-8-8.2-19.5-13.4-32.2-13.4c-24.1,0-43.7,18.4-43.7,41.1s19.6,41.1,43.7,41.1
	c12.8,0,24.3-5.2,32.2-13.4V-1227.2z"/>
<ellipse class="st18" cx="-1926.6" cy="-1208.1" rx="28" ry="27.5"/>
<ellipse class="st18" cx="-1851.5" cy="-1200.6" rx="54.2" ry="53.1"/>
<ellipse class="st18" cx="-1772.2" cy="-1205.4" rx="35.9" ry="35.2"/>
<ellipse class="st18" cx="-1707" cy="-1221.3" rx="33.6" ry="32.9"/>
<ellipse class="st18" cx="-1672.8" cy="-1197.9" rx="38.4" ry="37.6"/>
<ellipse class="st18" cx="-1610.1" cy="-1206.5" rx="38" ry="37.3"/>
<ellipse class="st18" cx="-1560.9" cy="-1217.9" rx="23.2" ry="22.7"/>
<path class="st18" d="M-1470.3-1202.5h-583.1c2.2-15.3,1.6-11,3.5-24.2l0,0c0-13.3,12.2-24.2,27.2-24.2h521.7
	c15,0,27.2,10.8,27.2,24.2l0,0C-1472.6-1214.5-1472.7-1214.8-1470.3-1202.5z"/>
<circle class="st19" cx="-1926.6" cy="-1220.3" r="28"/>
<circle class="st19" cx="-1851.5" cy="-1212.7" r="54.2"/>
<circle class="st19" cx="-1772.2" cy="-1217.5" r="35.9"/>
<circle class="st19" cx="-1707" cy="-1233.7" r="33.6"/>
<circle class="st19" cx="-1672.8" cy="-1209.9" r="38.4"/>
<circle class="st19" cx="-1610.1" cy="-1218.6" r="38"/>
<circle class="st19" cx="-1560.9" cy="-1230.3" r="23.2"/>
<rect x="-2054.2" y="-1273.8" class="st19" width="583.9" height="61.1"/>
<path class="st19" d="M-1470.3-1240.5c-8-8.4-19.5-13.7-32.2-13.7c-24.1,0-43.7,18.8-43.7,41.9s19.6,41.9,43.7,41.9
	c12.8,0,24.3-5.3,32.2-13.7V-1240.5z"/>
<path class="st19" d="M-2008.8-1271.1c-18,0-34.3,7.7-45.7,19.9v84.9c11.4,12.2,27.6,19.9,45.7,19.9c34.4,0,62.4-27.9,62.4-62.4
	S-1974.3-1271.1-2008.8-1271.1z"/>
<path class="st7" d="M-2766.7-647.3c1.4,1.9,2.6,3.6,3.7,5.2c6,8.5,2.2,20.3-7.8,23.9c-8.4,3-21.4,5.2-41.4,4.8
	c-20.1,0.4-33.1-1.8-41.5-4.8c-10-3.5-13.8-15.4-7.8-23.9c1.1-1.6,2.3-3.3,3.7-5.2c8.4-11.5,11-58.3,7.8-119.2
	c-2.6-49.2-25.6-180.6-34.4-229.4c-1.7-9.7,5.9-18.6,16-18.6h112.2c10.1,0,17.8,8.9,16,18.6c-8.8,48.8-31.8,180.2-34.4,229.4
	C-2777.7-705.6-2775.1-658.8-2766.7-647.3z"/>
<g>
	
		<linearGradient id="SVGID_3_" gradientUnits="userSpaceOnUse" x1="-2812.25" y1="2571.0408" x2="-2812.25" y2="2268.4775" gradientTransform="matrix(1 0 0 -1 0 1603.8)">
		<stop  offset="0" style="stop-color:#FFCC4C"/>
		<stop  offset="1" style="stop-color:#FEBF4B"/>
	</linearGradient>
	<path class="st20" d="M-2783.1-777.4c2-38,19.8-139.3,26.5-177c1.3-7.5-4.6-14.3-12.4-14.3h-86.5c-7.8,0-13.7,6.8-12.4,14.3
		c6.8,37.6,24.5,139,26.5,177c0.9,16.3,1.2,79.1,1,92c-0.2,15.3,11.4,19.1,26.6,19.9c0.5,0,1,0,1.5,0s1,0,1.5,0
		c15.2-0.8,26.9-4.6,26.6-19.9C-2784.3-698.4-2784-761.1-2783.1-777.4z"/>
</g>
<circle class="st13" cx="-2777.3" cy="-946.7" r="6.1"/>
<ellipse transform="matrix(0.1256 -0.9921 0.9921 0.1256 -1577.0139 -3526.7178)" class="st13" cx="-2789.2" cy="-868.7" rx="53" ry="6.1"/>
<g>
	<path class="st7" d="M-2925.3-628.4c0.8,2.1,0.1,4-1.5,5.5c-3.6,3.2-9.4,4.2-14,5c-11.5,1.9-23.2,2-34.8,1.9
		c-11.6,0.1-23.4,0-34.8-1.9c-4.6-0.8-10.4-1.7-14-5c-1.6-1.5-2.3-3.4-1.5-5.5c0.8-2,2.5-3.5,4.7-3.8c1.3-0.2,2.6-0.3,4-0.5
		c5.2-0.9,10.2-2.7,15-4.9c13.4-6,22-13.8,22-13.8s0.8-103,0.8-121.9s-38.2-28.4-54-46.5c-15.8-18.2,18.5-106.5,18.5-106.5h78.9
		c0,0,36.7,86.7,20.9,104.8s-56.4,29.3-56.4,48.2s0.8,121.9,0.8,121.9s8.6,7.8,22,13.8c4.8,2.1,9.8,3.9,15,4.9
		c1.3,0.2,2.6,0.3,4,0.5C-2927.8-631.9-2926.1-630.4-2925.3-628.4z"/>
	
		<linearGradient id="SVGID_4_" gradientUnits="userSpaceOnUse" x1="-2974.45" y1="2509.0029" x2="-2974.45" y2="2398.7942" gradientTransform="matrix(1 0 0 -1 0 1603.8)">
		<stop  offset="0" style="stop-color:#FFCC4C"/>
		<stop  offset="1" style="stop-color:#FEBF4B"/>
	</linearGradient>
	<path class="st21" d="M-2931.9-818.5l-37.7,21.8c-3,1.7-6.8,1.7-9.8,0l-37.7-21.8c-0.3-0.2-0.6-0.3-0.8-0.4
		c-2.2-1-15.2-8.3-5.3-39.8l9.8-38.6c1.1-4.3,5-7.4,9.5-7.4h58.8c4.5,0,8.4,3,9.5,7.4l9.9,38.6c9.9,31.5-3.1,38.8-5.3,39.8
		C-2931.4-818.8-2931.6-818.7-2931.9-818.5z"/>
	<circle class="st13" cx="-2946.3" cy="-882.5" r="6.1"/>
	<ellipse class="st13" cx="-2946.3" cy="-849.5" rx="6.1" ry="17"/>
</g>
<text transform="matrix(1 0 0 1 -2083.2808 -882.4673)" style="font-family:'MyriadPro-Regular'; font-size:72px;">Beer</text>
<text transform="matrix(1 0 0 1 -623.6335 -1063.7203)" style="font-family:'MyriadPro-Regular'; font-size:72px;">Cocktail</text>
<path class="st23" d="M-807-621.8c-77,0-50.8-18-50.8-18s14.7-4.4,27.8-6.6c13.1-2.2,16.3-27.3,16.3-27.3s0-73.2,0-95
	c0-21.9-5-22.9-5-22.9l-73.6-93.7h170.4l-73.6,93.7c0,0-5,1-5,22.9c0,21.8,0,95,0,95s3.2,25.1,16.3,27.3s27.9,6.6,27.9,6.6
	S-730-621.8-807-621.8z"/>
<path class="st23" d="M-513.5-839.7c-12.3,13.9-52.3,27.8-58,37.6c0,0-0.4,8.6-9.1,9.1c0,0-4.5,3.2-4.5,13.2s-4.3,112,0,116.3
	s36.7,14.1,42.2,15.9s38.8,25-54,25s-59.4-23.2-54-25c5.5-1.8,37.9-11.6,42.2-15.9c4.3-4.3,0-106.3,0-116.3s-4.6-13.2-4.6-13.2
	c-8.6-0.5-9.1-9.1-9.1-9.1c-5.7-9.8-45.8-23.7-58-37.6c-12.3-13.9-9-46.6-9-46.6h184.8C-504.5-886.3-501.2-853.6-513.5-839.7z"/>
<path class="st23" d="M-440.7-623c-37.3-5.2-19.8-13.9-19.8-13.9l25.9-9.8v-107c-12.1-6.8-20.5-22.5-20.5-22.5
	c-14-24.2-5.4-143.7-5.4-143.7h60.6c0,0,8.6,119.5-5.4,143.7c0,0-8.4,15.6-20.5,22.5v107l25.9,9.8c0,0,17.5,8.7-19.8,13.9
	C-426.7-622.1-433.8-622.1-440.7-623z"/>
<path class="st23" d="M-264.2-848.9c6.4,48.4,20.4,121.1,1.3,140.2c-12.4,12.4-18.3,19.6-20.9,23.1c-1.2,1.6-1.6,3.6-1.1,5.5
	c1.2,5.2,3.3,16.3,0.7,21c-0.9,1.7-1.8,3.3-2.5,4.9c-1.8,3.9,0.5,8.5,4.7,9.4l17.8,3.9c0.2,0,0.4,0.1,0.7,0.2
	c4.1,1.3,41,14.1-33.3,18.8c-0.3,0-0.6,0-0.9,0c-74.3-4.7-37.3-17.5-33.3-18.8c0.2-0.1,0.4-0.1,0.7-0.2l17.8-3.9
	c4.2-0.9,6.5-5.5,4.7-9.4c-0.7-1.5-1.5-3.2-2.5-4.9c-2.6-4.8-0.5-15.8,0.7-21c0.4-1.9,0-3.9-1.1-5.5c-2.6-3.5-8.5-10.7-20.9-23.1
	c-19.1-19.1-5.1-91.8,1.3-140.2c3.8-29-3.8-48-10.5-58.5c-2.9-4.5,0.4-10.3,5.7-10.3h76c5.3,0,8.5,5.9,5.7,10.3
	C-260.4-896.9-268-877.9-264.2-848.9z"/>
<path class="st23" d="M-81-892.9L-86-639c-0.1,5.5-3.8,10.2-9.1,11.7c-7.7,2.2-21.6,4.6-45.8,5c-24.2-0.3-38-2.7-45.8-5
	c-5.3-1.5-8.9-6.2-9.1-11.7l-5-253.9c-0.1-7,5.5-12.7,12.4-12.7h94.7C-86.4-905.5-80.8-899.8-81-892.9z"/>
<path class="st23" d="M11.9-624.1c-59.6,0.5-52.6-4.3-34.3-14.3c16.8-9.2,12.4-29.6,11.5-32.8c-0.1-0.3-0.1-0.7-0.2-1l-22.3-295.3
	c-0.3-3.5,2.5-6.6,6.1-6.6H51c3.6,0,6.4,3,6.1,6.6L34.8-672.2c0,0.3-0.1,0.7-0.2,1c-0.8,3.3-5.3,23.7,11.5,32.8
	C64.5-628.4,71.5-623.6,11.9-624.1z"/>
<text transform="matrix(1 0 0 1 -623.6328 -191.0645)" style="font-family:'MyriadPro-Regular'; font-size:72px;">Lhao</text>
<path class="st7" d="M-769.1,74.4c-23.7,31.1-43,36.1-53.2,41.7s-16.2,26.8,3.2,30.9c19.4,4.2,27.9,6.7,27.9,6.7s35.7,18.2-50,18.2
	c-86.4,0-50-18.2-50-18.2s8.4-2.5,27.8-6.7c19.4-4.1,13.4-25.4,3.2-30.9c-10.2-5.6-29.4-10.5-53.2-41.7
	c-23.7-31.1,24.6-122.1,24.6-122.1h95C-793.6-47.6-745.3,43.3-769.1,74.4z"/>
<path class="st7" d="M-372.1,172c-66.8-0.8-42.6-10.7-26.2-11.9s21.7-15.2,21.7-15.2s-0.8-91.8,0-107.3
	c0.8-15.6-11.7-23.3-11.7-23.3c-30.1-32-16.2-104.1-16.2-104.1h64.7c0,0,13.9,72.1-16.2,104.1c0,0-12.5,7.8-11.7,23.3
	c0.8,15.6,0,107.3,0,107.3s5.3,13.9,21.7,15.2C-329.5,161.3-305.3,171.1-372.1,172z"/>
<path class="st7" d="M29.5,172c-39.6,0-30.4-5.9-23.1-9.4c7-3.4,15.4-9.1,15.4-9.1l1.3-28.9c0.9-20.1-4.1-22.3-8.8-29.2
	s-5.6-11.3-10-27.3S2.4,0,2.4,0h54.4c0,0,2.5,52.1-1.9,68.1s-5.3,20.4-10,27.3s-9.7,9.1-8.8,29.2l1.3,28.9c0,0,8.4,5.7,15.4,9.1
	C59.9,166.1,69.1,172,29.5,172z"/>
<text transform="matrix(1 0 0 1 630.8195 -1063.7207)" style="font-family:'MyriadPro-Regular'; font-size:72px;">Wine</text>
<path class="st7" d="M446.9-624.1c-103.5-0.2-51.2-11.8-48-12.5c0.1,0,0.2,0,0.3-0.1c1.8-0.5,17.6-5.2,22.9-8.2
	c5.5-3.2,14.6-18.7,14.8-25.7c0.2-6.3-4-21.5-5-25.2c-0.2-0.5-0.4-1-0.7-1.5c-7.5-11-1.3-17.9,3.1-24.8c4.5-7,2-23.6-1.9-30
	c-3.8-6.4-13.9-31.9-17.7-51c-3.1-15.9-27.1-81.2-35-102.7c-1.2-3.3,1.2-6.9,4.8-6.9l126.2,0.3c3.6,0,6,3.6,4.8,6.9
	c-8.1,21.4-32.3,86.6-35.5,102.5c-3.9,19.1-14.1,44.6-18,50.9c-3.8,6.4-6.4,22.9-2,30c4.4,6.9,10.5,13.9,3,24.8
	c-0.3,0.5-0.6,0.9-0.7,1.5c-1,3.6-5.3,18.9-5.1,25.2c0.2,7,9.2,22.6,14.7,25.8c5.2,3.1,21.1,7.8,22.8,8.3c0.1,0,0.2,0.1,0.3,0.1
	C498.2-635.6,550.4-623.8,446.9-624.1z"/>
<path class="st7" d="M798.5-749.3v101.1c0,0,16.4,7.2,26.1,10.7c8.8,3.2,30.8,14.5-32.3,14.5s-41.1-11.3-32.3-14.5
	c9.7-3.5,26-10.7,26-10.7v-101.1c0,0-3.9-2.4-12.9-8.9c-10.2-7.4-27.4-26.8-33.9-48.7c-6.6-21.9,9.9-105.6,9.9-105.6h86.5
	c0,0,16.4,83.8,9.9,105.6c-6.6,21.9-23.7,41.3-33.9,48.7C802.4-751.7,798.5-749.3,798.5-749.3z"/>
<path class="st7" d="M1202.7-772.9c0,6.3-0.4,117.8-0.4,117.8l25.6,14.7c0,0,44.2,16.3-32.6,16.3s-32.6-16.3-32.6-16.3l25.6-14.7
	c0,0-0.4-111.5-0.4-117.8s-3.1-8-8.5-11.4s-25-14.8-35.1-32.4s12.4-95.9,12.4-95.9h77.3c0,0,22.5,78.4,12.4,95.9
	c-10.1,17.6-29.7,29-35.1,32.4S1202.7-779.1,1202.7-772.9z"/>
<path class="st7" d="M1565.2-732.1c0,4.6,0,69.5,0,69.5s15.3,22.4,24.2,23c8.9,0.6,44.4,15.5-32.5,15.5s-41.4-14.9-32.5-15.5
	s24.2-23,24.2-23s0-65,0-69.5c0-4.6-3.6-7.7-3.6-7.7c-1.6-16.3-19.1-29.2-43.9-55.9c-24.7-26.7,8-99.8,8-99.8h95.7
	c0,0,32.7,73.1,8,99.8s-42.3,39.6-43.9,55.9C1568.8-739.8,1565.2-736.7,1565.2-732.1z"/>
<path class="st24" d="M-1375.6,635.8h-118.2c-10.7,0-19.4-8.7-19.4-19.4V498.2c0-10.7,8.7-19.4,19.4-19.4h118.2
	c10.7,0,19.4,8.7,19.4,19.4v118.2C-1356.2,627-1364.9,635.8-1375.6,635.8z"/>
<path class="st4" d="M-1513.2,530.2v86.2c0,10.7,8.7,19.4,19.4,19.4h118.2c10.7,0,19.4-8.7,19.4-19.4v-86.2H-1513.2z"/>
<text transform="matrix(1 0 0 1 -1458.5029 512.3267)" class="st4" style="font-family:'Cloud-Bold'; font-size:26px;">DAY</text>
<g>
	<path class="st7" d="M1458.4-51.5c0,6.3-0.4,117.8-0.4,117.8l25.6,14.7c0,0,44.2,16.3-32.6,16.3c-65.3,0-24.6-16.3-24.6-16.3
		l25.6-14.7c0,0-0.4-111.5-0.4-117.8s-3.1-8-8.5-11.4s-25-14.8-35.1-32.4c-10.2-17.6,12.3-95.9,12.3-95.9h69.3
		c0,0,22.5,78.4,12.4,95.9c-10.1,17.6-29.7,29-35.1,32.4S1458.4-57.8,1458.4-51.5z"/>
	
		<linearGradient id="SVGID_5_" gradientUnits="userSpaceOnUse" x1="1493.1552" y1="1724.6552" x2="1492.6937" y2="1715.8898" gradientTransform="matrix(1 0 0 -1 0 1603.8)">
		<stop  offset="0" style="stop-color:#AE4F6F"/>
		<stop  offset="1" style="stop-color:#6C365E"/>
	</linearGradient>
	<path class="st25" d="M1491.3-115.8c-0.3-1.5,0.2-3,1.3-4.1c0.2-0.2,0.4-0.4,0.7-0.4c0.7-0.1,1.3,0.6,1.4,1.3
		c0.3,1.4-0.7,3-2.2,3.4c-0.5,0.1-1.1,0-1.3-0.4"/>
	
		<linearGradient id="SVGID_6_" gradientUnits="userSpaceOnUse" x1="1455.0519" y1="1722.3899" x2="1455.0519" y2="1669.9126" gradientTransform="matrix(1 0 0 -1 0 1603.8)">
		<stop  offset="0" style="stop-color:#AE4F6F"/>
		<stop  offset="1" style="stop-color:#6C365E"/>
	</linearGradient>
	<path class="st26" d="M1497.1-102.4c-0.7,0.1-1.3,0.5-2,0.8s-1.6,0.4-2.3,0.2c-0.1,0-0.2,0-0.3-0.1s-0.1-0.1-0.1-0.2s0-0.1,0-0.2
		c0-1.9,0.2-4.1-2.1-5.3c-0.7-0.3-1.4-0.5-2.1-0.5c-2.4,0-4.4,1.4-6.5,2.5c-3.5,1.9-7.3,3-11.2,3.5h-13.2c-4.4-0.5-8.7-1.3-13-2.2
		c-1.8-0.4-3.7-0.8-5.1-1.9c-1.1-0.9-1.9-2.1-2.9-3.1s-2.5-1.8-3.9-1.3c-0.7,0.2-1.2,0.7-1.9,0.9c-1.1,0.3-2.2-0.1-3.2-0.5
		c-1.6-0.7-3.2-1.3-4.5-2.4c-2-1.6-3.7-4.1-6.6-3.4c-1.2,0.3-2.2,1.1-2.8,2.1c-6.3,9.8,5,20.6,11.6,26.7c5.5,5.1,11.6,9.3,18,13.2
		c0.9,0.5,1.7,1,2.4,1.5c7.6,5,9.3,5.8,11.6,5.8c2,0,6.1-3,10.1-5.8c0.7-0.5,1.5-1,2.4-1.5c0.5-0.3,1-0.6,1.5-0.9
		c5-3.1,9.8-6.5,14.3-10.4c2.9-2.6,5.7-5.3,8.2-8.3c1.3-1.6,2.5-3.2,3.6-4.9C1497.6-99,1500.1-102.7,1497.1-102.4z"/>
</g>
<g>
	<path class="st7" d="M962.7-47c4.9,0,8.9,4.1,8.7,9l-4.6,115c0,0-1.1,21.5-15.8,21.5c-20.6,0-34.5,0-34.5,0s-13.9,0-34.5,0
		c-14.7,0-15.8-21.5-15.8-21.5l-4.6-115c-0.2-4.9,3.7-9,8.7-9C870.3-47,962.7-47,962.7-47z"/>
	<path class="st27" d="M882.5,2.3c-6.7,0-12.1,3.8-11.8,8.5l2.9,51.1c0,0,0.9,12.4,13.3,12.4c17.3,0,28.9,0,28.9,0s11.7,0,28.9,0
		c12.3,0,13.3-12.4,13.3-12.4l2.9-51.1c0.3-4.6-5.1-8.5-11.8-8.5C949.1,2.3,882.5,2.3,882.5,2.3z"/>
	<path class="st28" d="M898.8,22.9L885.7,14c-2.6-1.8-3.3-5.4-1.5-8l8.9-13.1c1.8-2.6,5.4-3.3,8-1.5l13.1,8.9c2.6,1.8,3.3,5.4,1.5,8
		l-8.9,13.1C905,24,901.4,24.7,898.8,22.9z"/>
	<path class="st28" d="M941.4,10.4l-7,2.1c-2,0.6-4-0.5-4.6-2.5l-2.1-7c-0.6-2,0.5-4,2.5-4.6l7-2.1c2-0.6,4,0.5,4.6,2.5l2.1,7
		C944.5,7.7,943.4,9.8,941.4,10.4z"/>
</g>
<g>
	<path class="st7" d="M364.9,61.9c3.7,0,6.7,3.1,6.5,6.8L368,155c0,0-0.8,16.1-11.9,16.1c-15.5,0-25.9,0-25.9,0s-10.4,0-25.9,0
		c-11,0-11.9-16.1-11.9-16.1L289,68.6c-0.2-3.7,2.8-6.8,6.5-6.8C295.5,61.9,364.9,61.9,364.9,61.9z"/>
	<path class="st27" d="M304.7,98.9c-5,0-9.1,2.9-8.9,6.4l2.2,38.4c0,0,0.7,9.3,10,9.3c13,0,21.7,0,21.7,0s8.8,0,21.7,0
		c9.2,0,10-9.3,10-9.3l2.2-38.4c0.2-3.5-3.8-6.4-8.9-6.4C354.7,98.9,304.7,98.9,304.7,98.9z"/>
	<path class="st28" d="M316.9,114.4l-9.8-6.7c-2-1.4-2.5-4.1-1.1-6l6.7-9.8c1.4-2,4.1-2.5,6-1.1l9.8,6.7c2,1.4,2.5,4.1,1.1,6
		l-6.7,9.8C321.5,115.2,318.8,115.7,316.9,114.4z"/>
	<path class="st28" d="M348.9,105l-5.3,1.6c-1.5,0.5-3-0.4-3.5-1.9l-1.6-5.3c-0.5-1.5,0.4-3,1.9-3.5l5.3-1.6c1.5-0.5,3,0.4,3.5,1.9
		l1.6,5.3C351.2,103,350.4,104.5,348.9,105z"/>
</g>
<g>
	<path class="st7" d="M1325.9,81.8l-20.2-11.6c0,0,0.3-67.4,0.3-87.6l45.4-63h-96.1l45.3,62.8c0.1,20,0.3,87.7,0.3,87.7l-20.2,11.6
		c0,0-32.1,12.9,19.4,12.9C1360.8,94.7,1325.9,81.8,1325.9,81.8z"/>
	
		<linearGradient id="SVGID_7_" gradientUnits="userSpaceOnUse" x1="1303.35" y1="1661" x2="1303.35" y2="1628.0466" gradientTransform="matrix(1 0 0 -1 0 1603.8)">
		<stop  offset="0" style="stop-color:#14AFAB"/>
		<stop  offset="1" style="stop-color:#227893"/>
	</linearGradient>
	<polygon class="st29" points="1327.1,-57.2 1303.4,-24.2 1279.6,-57.2 	"/>
	<path class="st30" d="M1329-69.2c5.3-4.6,5.8-12.7,1.2-18s-12.7-5.8-18-1.2"/>
	<g>
		<polygon class="st31" points="1319.3,-80.4 1311.9,-80.4 1311.9,-79.6 1320.7,-79.6 		"/>
		<polygon class="st32" points="1324.9,-74 1324.9,-80.4 1319.3,-80.4 1320,-79.6 		"/>
	</g>
</g>
<path class="st33" d="M-3098.1-848.2c-0.6-0.8-2.8-5.7-5.3-10.7c-1.7-3.4-1.8-7.2-1.7-9.3c0-0.9,0.4-1.6,0.9-2.3
	c0.4-0.5,0.8-1.4,0.8-2.8c0-2.8-55.6-3.9-55.6-3.9s-55.6,1.1-55.6,3.9c0,1.4,0.4,2.3,0.8,2.8c0.5,0.7,0.9,1.5,0.9,2.3
	c0.1,2.1,0,5.9-1.7,9.3c-2.5,5-4.6,9.9-5.3,10.7s0,15.1,0,18.7v151.9c0,1,0.4,1.9,1,2.7c1.1,1.2,3.1,3.1,5.7,4.7
	c2.4,1.4,4.1,2.7,5.1,3.5c0.7,0.6,1.3,1.4,1.4,2.3l0,0c0.1,0.5,0.3,0.9,0.5,1.3l1.1,1.7c0.7,1.1,1.8,1.7,3,1.8
	c7.4,0.6,33.5,2.5,42.9,2.5c9.8,0,35.6-1.9,42.9-2.5c1.2-0.1,2.4-0.8,3-1.8l1.1-1.7c0.3-0.4,0.4-0.9,0.5-1.3l0,0
	c0.2-0.9,0.7-1.8,1.4-2.3c1-0.8,2.7-2,5.1-3.5c2.6-1.6,4.6-3.5,5.7-4.7c0.7-0.7,1-1.7,1-2.7v-151.9
	C-3098.1-833.1-3097.4-847.4-3098.1-848.2z"/>
<path class="st34" d="M-3202.8-666.5c0,0,50.3,5.5,87.7,0"/>
<rect x="-3211.7" y="-778.6" class="st35" width="105.5" height="26.5"/>
<path class="st34" d="M-3208.2-870.6c0,0,40.7,4.1,98.6,0"/>
<path class="st35" d="M-3190.7-752h63.5c-3.5,24-16.4,41.8-31.7,41.8C-3174.3-710.2-3187.1-728-3190.7-752z"/>
<path class="st35" d="M-3127.2-778.6h-63.5c3.5-24,16.4-41.8,31.7-41.8C-3143.6-820.4-3130.7-802.6-3127.2-778.6z"/>
<path d="M-1862.8,837.8h-23.1v-106c0-6.4,5.2-11.6,11.6-11.6l0,0c6.4,0,11.6,5.2,11.6,11.6L-1862.8,837.8L-1862.8,837.8z"/>
<path d="M-1770.3,849.3L-1770.3,849.3c0,6.4-5.2,11.6-11.6,11.6H-2089c-6.4,0-11.6-5.2-11.6-11.6l0,0c0-6.4,5.2-11.6,11.6-11.6
	h307.1C-1775.5,837.8-1770.3,842.9-1770.3,849.3z"/>
<path d="M-1245.2,1043.9L-1245.2,1043.9c0,6.4-5.2,11.6-11.6,11.6h-307.1c-6.4,0-11.6-5.2-11.6-11.6l0,0c0-6.4,5.2-11.6,11.6-11.6
	h307.1C-1250.4,1032.4-1245.2,1037.5-1245.2,1043.9z"/>
<path d="M-1834.4,733.8L-1834.4,733.8c-4.5,4.5-11.8,4.5-16.3,0l-99.2-99.2c-4.5-4.5-4.5-11.8,0-16.3l0,0c4.5-4.5,11.8-4.5,16.3,0
	l99.2,99.2C-1829.8,721.9-1829.8,729.2-1834.4,733.8z"/>
<path d="M-2050.2,733.8L-2050.2,733.8c4.5,4.5,11.8,4.5,16.3,0l99.2-99.2c4.5-4.5,4.5-11.8,0-16.3l0,0c-4.5-4.5-11.8-4.5-16.3,0
	l-99.2,99.2C-2054.7,721.9-2054.7,729.2-2050.2,733.8z"/>
<path d="M-1998.8,837.8h-23.1v-106c0-6.4,5.2-11.6,11.6-11.6l0,0c6.4,0,11.6,5.2,11.6,11.6L-1998.8,837.8L-1998.8,837.8z"/>
<path d="M-1938.1,837.8h-43.1v-52.4c0-11.9,9.7-21.6,21.6-21.6l0,0c11.9,0,21.6,9.7,21.6,21.6L-1938.1,837.8L-1938.1,837.8z"/>
<path d="M-1352.1,908.6h-109.4c-4.3,0-7.9,3.5-7.9,7.9l0,0c0,13.9-11.3,25.2-25.2,25.2l0,0c-10.3,0-18.6,8.3-18.6,18.6V994h196.6
	c13.8,0,24.9-11.2,24.9-24.9l0,0C-1291.6,935.7-1318.7,908.6-1352.1,908.6z"/>
<path d="M-1314.2,931h-38.5c-8.7,0-15.8-7.1-15.8-15.8v-38.5c0-8.7,7.1-15.8,15.8-15.8h38.5c8.7,0,15.8,7.1,15.8,15.8v38.5
	C-1298.4,923.9-1305.5,931-1314.2,931z"/>
<linearGradient id="SVGID_8_" gradientUnits="userSpaceOnUse" x1="447.6" y1="1114.4395" x2="447.6" y2="1187.2878" gradientTransform="matrix(1 0 0 1 0 -1935.415)">
	<stop  offset="0" style="stop-color:#AE4F6F"/>
	<stop  offset="1" style="stop-color:#6C365E"/>
</linearGradient>
<path class="st36" d="M471.6-819.3h-24h-24c-1.6,0-2.7,1.6-2.1,3.1c1.8,4.3,3.5,11.5,3.9,12.8c2.4,10.1,3.1,20.3,8.1,29.4
	c3.7,6.7,8.1,12.8,12.6,19c0.9,1.2,1.5,1.7,1.5,1.7s0.6-0.5,1.5-1.7c4.5-6.2,8.9-12.3,12.6-19c5-9.1,5.7-19.3,8.1-29.4
	c0.3-1.3,2.1-8.5,3.9-12.8C474.3-817.7,473.2-819.3,471.6-819.3z"/>
<linearGradient id="SVGID_9_" gradientUnits="userSpaceOnUse" x1="792.308" y1="1118.3463" x2="792.308" y2="1177.5653" gradientTransform="matrix(1 0 0 1 0 -1935.415)">
	<stop  offset="0" style="stop-color:#AE4F6F"/>
	<stop  offset="1" style="stop-color:#6C365E"/>
</linearGradient>
<path class="st37" d="M837.8-812.7c0.3-2.1-1.6-3.9-4-3.9h-41.5h-41.5c-2.4,0-4.2,1.8-4,3.9c1,8.1,6.2,27.8,32.1,48.9
	c7.5,6.1,19.2,6.1,26.7,0C831.6-784.9,836.8-804.6,837.8-812.7z"/>
<linearGradient id="SVGID_10_" gradientUnits="userSpaceOnUse" x1="1195.3081" y1="1108.2681" x2="1195.3081" y2="1148.4626" gradientTransform="matrix(1 0 0 1 0 -1935.415)">
	<stop  offset="0" style="stop-color:#AE4F6F"/>
	<stop  offset="1" style="stop-color:#6C365E"/>
</linearGradient>
<path class="st38" d="M1240.8-824.2c0.3-1.4-1.6-2.6-4-2.6h-41.5h-41.5c-2.4,0-4.2,1.2-4,2.6c1,5.5,6.2,18.8,32.1,33.2
	c7.5,4.1,19.2,4.1,26.7,0C1234.6-805.3,1239.8-818.7,1240.8-824.2z"/>
<linearGradient id="SVGID_11_" gradientUnits="userSpaceOnUse" x1="1556.9503" y1="1127.647" x2="1556.9503" y2="1177.3538" gradientTransform="matrix(1 0 0 1 0 -1935.415)">
	<stop  offset="0" style="stop-color:#AE4F6F"/>
	<stop  offset="1" style="stop-color:#6C365E"/>
</linearGradient>
<path class="st39" d="M1611.3-807.3h-48.8c-1.9,0-3.7,0-5.6,0s-3.7,0-5.6,0h-48.7c-0.6,0.8,1,5.2,1.3,6.2c0.9,2.8,3.7,4.5,6.2,6.2
	c6.3,4.3,9.8,10.3,14.8,15.8c5.5,6.1,12,11.4,18.8,16.1c3.7,2.6,8.5,3.8,13.3,3.8s9.6-1.3,13.3-3.8c6.8-4.7,13.3-9.9,18.8-16.1
	c5-5.5,8.5-11.5,14.8-15.8c2.5-1.7,5.3-3.4,6.2-6.2C1610.3-802.1,1611.9-806.5,1611.3-807.3z"/>
<linearGradient id="SVGID_12_" gradientUnits="userSpaceOnUse" x1="1598.4" y1="1128.3151" x2="1598.4" y2="1128.3151" gradientTransform="matrix(1 0 0 1 0 -1935.415)">
	<stop  offset="0" style="stop-color:#AE4F6F"/>
	<stop  offset="1" style="stop-color:#6C365E"/>
</linearGradient>
<path class="st40" d="M1598.4-807.1"/>
<ellipse transform="matrix(0.1108 -0.9938 0.9938 0.1108 1284.8058 -303.0743)" class="st13" cx="473" cy="-869.5" rx="6.1" ry="6.1"/>
<ellipse transform="matrix(0.1586 -0.9873 0.9873 0.1586 1214.8346 -239.4624)" class="st13" cx="466.9" cy="-832.5" rx="20.1" ry="5.8"/>
<ellipse transform="matrix(0.1454 -0.9894 0.9894 0.1454 2215.7559 854.3046)" class="st13" cx="1602.4" cy="-855.4" rx="7.2" ry="4"/>
<ellipse transform="matrix(8.062460e-02 -0.9967 0.9967 8.062460e-02 2285.0996 841.0719)" class="st13" cx="1598.5" cy="-818.2" rx="20.1" ry="5.8"/>
<ellipse transform="matrix(1.111431e-03 -1 1 1.111431e-03 1697.1992 -36.9545)" class="st13" cx="830.1" cy="-868" rx="6.1" ry="3.6"/>
<ellipse transform="matrix(0.9997 -2.536530e-02 2.536530e-02 0.9997 22.3148 30.955)" class="st13" cx="1231.3" cy="-864.1" rx="3.8" ry="3.8"/>
<path class="st13" d="M834.7-830.1c0,12.7-5.6,24.7-8.2,24.7c-2.6,0-1.1-12-1.1-24.7s2.1-23,4.7-23
	C832.7-853.1,834.7-842.8,834.7-830.1z"/>
<path class="st13" d="M1235.2-830.1c0,7.7-3.9,14-6.1,14s-1.8-6.3-1.8-14s1.8-14,3.9-14C1233.5-844.1,1235.2-837.9,1235.2-830.1z"/>
<path class="st27" d="M-889.6-10.6c-10.1,23.8-22.7,61.3-10.1,77.9c19.3,25.3,34.8,29.2,43.1,33.8c15.4,5.9,30.7,0,30.7,0
	c8.2-4,23.9-8.6,43.1-33.8c12.7-16.6,0.1-54.1-10.1-77.9C-792.9-10.6-889.6-10.6-889.6-10.6z"/>
<path class="st27" d="M-398.7-66.8c-1.9,17.5-4.4,53.7,14.1,70.3c13.1,11.7,25.1,0,25.1,0c17.1-18.1,16-52.8,14.1-70.3H-398.7z"/>
<path class="st41" d="M7.5,18.5C7.1,31.2,6.8,55.6,9.3,64.8c3.5,12.8,4.2,16.3,8,21.8c0,0,12.2,14.4,24.5,0c4.3-5.1,4.5-9,8-21.8
	c2.5-9.3,2.2-33.6,1.8-46.4L7.5,18.5L7.5,18.5z"/>
<circle class="st13" cx="-805.1" cy="-21.8" r="5"/>
<ellipse transform="matrix(0.9872 -0.1597 0.1597 0.9872 -12.8289 -127.3755)" class="st13" cx="-798.9" cy="16.1" rx="5" ry="21.5"/>
<ellipse class="st13" cx="-352.1" cy="-80.4" rx="2.8" ry="4.5"/>
<ellipse class="st13" cx="-352.1" cy="-47.7" rx="2.8" ry="21.5"/>
<ellipse class="st13" cx="46.9" cy="33.8" rx="2.7" ry="17.3"/>
<circle class="st13" cx="46.9" cy="9.1" r="2.7"/>
</svg>
