<?xml version="1.0" encoding="utf-8"?>
<!-- Generator: Adobe Illustrator 22.0.1, SVG Export Plug-In . SVG Version: 6.00 Build 0)  -->
<svg version="1.1" id="Layer_1" xmlns="http://www.w3.org/2000/svg" xmlns:xlink="http://www.w3.org/1999/xlink" x="0px" y="0px"
	 viewBox="0 0 82.5 109.3" style="enable-background:new 0 0 82.5 109.3;" xml:space="preserve">
<style type="text/css">
	.st0{display:none;}
	.st1{display:inline;fill:#FFFFFF;stroke:#000000;stroke-miterlimit:10;}
	.st2{fill:#707B7F;}
	.st3{fill:#CE403F;}
	.st4{fill:#FFFFFF;}
	.st5{fill:#CD915F;}
	.st6{fill:#AA6628;}
	.st7{opacity:0.5;fill:#F9F9FA;enable-background:new    ;}
	.st8{fill:url(#SVGID_1_);}
	.st9{fill:#DDDDDD;}
	.st10{fill:#F7F7F7;}
	.st11{opacity:0.35;fill:#F4F4F5;enable-background:new    ;}
	.st12{fill:url(#SVGID_2_);}
	.st13{opacity:0.6;fill:#F4F4F5;enable-background:new    ;}
	.st14{display:none;fill:#34A6C9;stroke:#1B8EB7;stroke-width:10;stroke-miterlimit:10;}
	.st15{display:none;fill:#F27CA7;stroke:#C94C72;stroke-width:10;stroke-miterlimit:10;}
	.st16{fill:#476269;}
	.st17{fill:#222728;}
	.st18{fill:#DDDDDC;}
	.st19{fill:#F6F7F7;}
	.st20{fill:url(#SVGID_3_);}
	.st21{fill:url(#SVGID_4_);}
	.st22{enable-background:new    ;}
	.st23{fill:#F9F9FA;stroke:#E2E2E2;stroke-width:3;stroke-miterlimit:10;}
	.st24{fill:#D95F56;}
	.st25{fill:url(#SVGID_5_);}
	.st26{fill:url(#SVGID_6_);}
	.st27{opacity:0.84;fill:#E8CD2C;enable-background:new    ;}
	.st28{opacity:0.39;fill:#90D7EB;enable-background:new    ;}
	.st29{opacity:0.84;fill:#FFDC31;enable-background:new    ;}
	.st30{opacity:0.84;fill:url(#SVGID_7_);enable-background:new    ;}
	.st31{fill:#D2E8C9;stroke:#6EBF59;stroke-width:2;stroke-miterlimit:10;}
	.st32{fill:none;}
	.st33{fill:#E4F1DD;}
	.st34{fill:#7AC25B;}
	.st35{fill:none;stroke:#E2E2E2;stroke-miterlimit:10;}
	.st36{fill:#157D3E;stroke:#E2E2E2;stroke-width:3;stroke-miterlimit:10;}
	.st37{fill:url(#SVGID_8_);}
	.st38{fill:url(#SVGID_9_);}
	.st39{fill:url(#SVGID_10_);}
	.st40{fill:url(#SVGID_11_);}
	.st41{fill:url(#SVGID_12_);}
</style>
<g id="Layer_1_1_" class="st0">
	<rect x="-1923.8" y="-1198.6" class="st1" width="136.5" height="482"/>
</g>
<path class="st2" d="M-1660.2,578.9h-127c-11.1,0-20.2-9.1-20.2-20.2v-93.6c0-11.1,9.1-20.2,20.2-20.2h127
	c11.1,0,20.2,9.1,20.2,20.2v93.6C-1640,569.8-1649.1,578.9-1660.2,578.9z"/>
<rect x="-2388.9" y="-1360" class="st3" width="658.6" height="188.9"/>
<circle class="st4" cx="-2963.3" cy="-910.6" r="6.2"/>
<g>
	<polygon class="st5" points="-1772.1,-1622.2 -1814.3,-1609.6 -1721.8,-1609.6 	"/>
	<polygon class="st5" points="-1433.7,-1622.2 -1391.6,-1609.6 -1484.1,-1609.6 	"/>
	<rect x="-1772.2" y="-1622.2" class="st5" width="338.4" height="14.9"/>
	<rect x="-1814.3" y="-1609.6" class="st6" width="422.8" height="11.1"/>
</g>
<path class="st7" d="M-2845-677.9h-148.8c-11.7,0-21.2-9.5-21.2-21.2v-227.6c0-11.7,9.5-21.2,21.2-21.2h148.8
	c11.7,0,21.2,9.5,21.2,21.2V-699C-2823.8-687.4-2833.3-677.9-2845-677.9z"/>
<linearGradient id="SVGID_1_" gradientUnits="userSpaceOnUse" x1="-2920.8999" y1="2457" x2="-2920.8999" y2="2232.7783" gradientTransform="matrix(1 0 0 -1 0 1541.8)">
	<stop  offset="0" style="stop-color:#FFCC4C"/>
	<stop  offset="1" style="stop-color:#FEBF4B"/>
</linearGradient>
<path class="st8" d="M-2861.5-690.1h-118.8c-11.7,0-21.2-9.5-21.2-21.2V-894c0-11.7,9.5-21.2,21.2-21.2h118.8
	c11.7,0,21.2,9.5,21.2,21.2v182.7C-2840.3-699.6-2849.8-690.1-2861.5-690.1z"/>
<circle class="st9" cx="-2976.8" cy="-916.8" r="33"/>
<circle class="st9" cx="-2941.1" cy="-926.4" r="23.4"/>
<circle class="st9" cx="-2906.1" cy="-916.5" r="23.4"/>
<circle class="st9" cx="-2856.6" cy="-921.3" r="28.2"/>
<circle class="st10" cx="-2906.1" cy="-925.5" r="23.4"/>
<circle class="st10" cx="-2884.8" cy="-935.5" r="11.7"/>
<path class="st10" d="M-2964.5-935.5c0-1.5,0.1-2.9,0.4-4.3h-42.6c-2,4.2-3.1,9-3.1,14c0,18.2,14.8,33,33,33
	c13.6,0,25.3-8.2,30.3-19.9C-2956.8-915.2-2964.5-924.4-2964.5-935.5z"/>
<path class="st10" d="M-2943.8-925.8c0,4.6-1,9.1-2.7,13.1c1.7,0.4,3.5,0.6,5.4,0.6c12.9,0,23.4-10.5,23.4-23.4
	c0-1.5-0.1-2.9-0.4-4.3h-28.7C-2944.9-935.6-2943.8-930.8-2943.8-925.8z"/>
<path class="st10" d="M-2946.9-939.8h-17.2c-0.3,1.4-0.4,2.8-0.4,4.3c0,11.1,7.7,20.3,18,22.7c1.7-4,2.7-8.4,2.7-13.1
	C-2943.8-930.8-2944.9-935.6-2946.9-939.8z"/>
<path class="st10" d="M-2830-939.8h-53.1c-1.1,3-1.6,6.1-1.6,9.5c0,15.6,12.6,28.2,28.2,28.2c15.6,0,28.2-12.6,28.2-28.2
	C-2828.4-933.7-2829-936.9-2830-939.8z"/>
<path class="st10" d="M-2825.4-939c0,0-0.1-0.1-0.2-0.2C-2825.6-939.1-2825.5-939-2825.4-939L-2825.4-939z"/>
<path class="st10" d="M-2830-939.8h-116.9c-2.4-5-5.9-9.3-10.3-12.6c-3.5,3.3-5.9,7.7-6.8,12.6h-42.6c0.5-1.1,1.1-2.2,1.8-3.3
	c4.2-4.6,12.7-12.3,22.7-12.3h55.4c0,0,6.7,0,16,0h55.4c13.2,0,23.9,13.4,25.3,15.3C-2830.1-940-2830.1-939.9-2830-939.8z"/>
<path class="st10" d="M-2964.1-939.8h17.2c-2.3-5-5.9-9.3-10.3-12.6C-2960.7-949.1-2963.1-944.7-2964.1-939.8z"/>
<path class="st7" d="M-2767-874c-2.3-11.7-10.8-20.4-21-20.4h-35.8v22.5h25.3c6,0,10.8,5.9,10.8,13.3v77.4c0,7.3-4.8,13.3-10.8,13.3
	h-25.3v23.4h35.8c10.7,0,19.6-9.6,21.3-22.2c0.2-1.1,0.3-2.2,0.3-3.4v-1l0,0v-96.7l0,0v-1.4C-2766.4-870.9-2766.6-872.5-2767-874z"
	/>
<path class="st11" d="M-2968-720.3L-2968-720.3c-6,0-10.8-4.8-10.8-10.8v-134c0-6,4.8-10.8,10.8-10.8l0,0c6,0,10.8,4.8,10.8,10.8
	v134C-2957.1-725.1-2962-720.3-2968-720.3z"/>
<path class="st11" d="M-2917.7-720.3L-2917.7-720.3c-6,0-10.8-4.8-10.8-10.8v-134c0-6,4.8-10.8,10.8-10.8l0,0
	c6,0,10.8,4.8,10.8,10.8v134C-2906.9-725.1-2911.8-720.3-2917.7-720.3z"/>
<path class="st11" d="M-2868.7-723.6L-2868.7-723.6c-6,0-10.8-4.8-10.8-10.8v-134c0-6,4.8-10.8,10.8-10.8l0,0
	c6,0,10.8,4.8,10.8,10.8v134C-2857.8-728.4-2862.7-723.6-2868.7-723.6z"/>
<g>
	<circle class="st4" cx="783.3" cy="-138.4" r="4.7"/>
	<path class="st7" d="M869.2,43.8H764.8c-11.7,0-21.2-9.5-21.2-21.2v-165c0-11.7,9.5-21.2,21.2-21.2h104.4
		c11.7,0,21.2,9.5,21.2,21.2v165C890.4,34.3,880.9,43.8,869.2,43.8z"/>
	
		<linearGradient id="SVGID_2_" gradientUnits="userSpaceOnUse" x1="815.9" y1="1680.2001" x2="815.9" y2="1508.0419" gradientTransform="matrix(1 0 0 -1 0 1541.8)">
		<stop  offset="0" style="stop-color:#FFCC4C"/>
		<stop  offset="1" style="stop-color:#FEBF4B"/>
	</linearGradient>
	<path class="st12" d="M856.6,34.4h-81.4c-11.7,0-21.2-9.5-21.2-21.2v-130.4c0-11.7,9.5-21.2,21.2-21.2h81.4
		c11.7,0,21.2,9.5,21.2,21.2V13.2C877.8,24.9,868.3,34.4,856.6,34.4z"/>
	<circle class="st9" cx="773" cy="-143.1" r="25.3"/>
	<circle class="st9" cx="800.4" cy="-150.5" r="17.9"/>
	<circle class="st9" cx="827.2" cy="-142.9" r="17.9"/>
	<circle class="st9" cx="865.3" cy="-146.6" r="21.6"/>
	<circle class="st10" cx="827.2" cy="-149.8" r="17.9"/>
	<circle class="st10" cx="843.6" cy="-157.5" r="9"/>
	<path class="st10" d="M782.4-157.5c0-1.1,0.1-2.2,0.3-3.3H750c-1.5,3.3-2.4,6.9-2.4,10.7c0,14,11.3,25.3,25.3,25.3
		c10.4,0,19.4-6.3,23.3-15.3C788.3-141.9,782.4-149,782.4-157.5z"/>
	<path class="st10" d="M798.3-150.1c0,3.6-0.7,7-2.1,10c1.3,0.3,2.7,0.5,4.1,0.5c9.9,0,17.9-8,17.9-17.9c0-1.1-0.1-2.2-0.3-3.3
		h-22.1C797.5-157.5,798.3-153.9,798.3-150.1z"/>
	<path class="st10" d="M795.9-160.8h-13.2c-0.2,1.1-0.3,2.2-0.3,3.3c0,8.5,5.9,15.6,13.8,17.5c1.3-3.1,2.1-6.5,2.1-10
		C798.3-153.9,797.5-157.5,795.9-160.8z"/>
	<path class="st10" d="M885.7-160.8h-40.8c-0.8,2.3-1.3,4.7-1.3,7.3c0,12,9.7,21.6,21.6,21.6c12,0,21.6-9.7,21.6-21.6
		C886.9-156.1,886.5-158.5,885.7-160.8z"/>
	<path class="st10" d="M889.2-156.7c0,0-0.1-0.1-0.1-0.2C889.1-156.8,889.1-156.7,889.2-156.7L889.2-156.7z"/>
	<path class="st10" d="M885.7-160.8H796c-1.8-3.8-4.5-7.2-7.9-9.7c-2.7,2.5-4.6,5.9-5.3,9.7h-32.7c0.4-0.9,0.9-1.7,1.4-2.5
		c3.2-3.5,9.8-9.4,17.5-9.4h42.5c0,0,5.1,0,12.3,0h42.5c10,0,18.2,10.2,19.3,11.7C885.6-160.9,885.6-160.9,885.7-160.8z"/>
	<path class="st10" d="M782.7-160.8h13.2c-1.8-3.8-4.5-7.2-7.9-9.7C785.3-167.9,783.4-164.6,782.7-160.8z"/>
	<path class="st7" d="M934-106.8c-1.7-9-8.3-15.7-16.1-15.7h-27.5v17.3h19.4c4.6,0,8.3,4.6,8.3,10.2v59.4c0,5.6-3.7,10.2-8.3,10.2
		h-19.4v17.9h27.5c8.2,0,15.1-7.4,16.4-17c0.1-0.8,0.2-1.7,0.2-2.6v-0.8l0,0v-74.2l0,0v-1.1C934.5-104.4,934.3-105.6,934-106.8z"/>
	<path class="st13" d="M779.7,11.2L779.7,11.2c-4.6,0-8.3-3.7-8.3-8.3V-100c0-4.6,3.7-8.3,8.3-8.3l0,0c4.6,0,8.3,3.7,8.3,8.3V2.9
		C788.1,7.5,784.3,11.2,779.7,11.2z"/>
	<path class="st13" d="M818.3,11.2L818.3,11.2c-4.6,0-8.3-3.7-8.3-8.3V-100c0-4.6,3.7-8.3,8.3-8.3l0,0c4.6,0,8.3,3.7,8.3,8.3V2.9
		C826.6,7.5,822.9,11.2,818.3,11.2z"/>
	<path class="st13" d="M856,8.7L856,8.7c-4.6,0-8.3-3.7-8.3-8.3v-102.9c0-4.6,3.7-8.3,8.3-8.3l0,0c4.6,0,8.3,3.7,8.3,8.3V0.4
		C864.3,5,860.6,8.7,856,8.7z"/>
</g>
<path class="st14" d="M-2010-289.9v-32.9l5.8,5.8c9.5,9.5,25,9.5,34.5,0s9.5-25,0-34.5l-45-45l-2.9-2.9c-4.5-4.5-10.2-6.8-16.1-7.1
	c-0.2,0-0.5,0-0.8,0c-0.1,0-0.2,0-0.2,0c-0.1,0-0.1,0-0.2,0s-0.1,0-0.2,0c-6.3-0.1-12.7,2.3-17.5,7.2l-47.9,47.9
	c-9.5,9.5-9.5,25,0,34.5s25,9.5,34.5,0l7.1-7.1l0.6,33.7c-34.6,10-59.9,41.9-59.9,79.8c0,45.9,37.2,83.1,83.1,83.1
	s83.1-37.2,83.1-83.1C-1952-247.9-1976.4-279.3-2010-289.9z M-2035.1-175.5c-19.4,0-35.2-15.8-35.2-35.2s15.8-35.2,35.2-35.2
	c19.4,0,35.2,15.8,35.2,35.2S-2015.6-175.5-2035.1-175.5z"/>
<path class="st15" d="M-1724-248.3c32.4-32.4,32.4-85.1,0-117.5s-85.1-32.4-117.5,0s-32.4,85.1,0,117.5
	c10.6,10.6,23.3,17.7,36.8,21.4v25.9h-9.6c-12.1,0-21.9,9.8-21.9,21.9l0,0c0,12.1,9.8,21.9,21.9,21.9h9.6v9.6
	c0,12.1,9.8,21.9,21.9,21.9l0,0c12.1,0,21.9-9.8,21.9-21.9v-9.6h9.6c12.1,0,21.9-9.8,21.9-21.9l0,0c0-12.1-9.8-21.9-21.9-21.9h-9.6
	v-25.9C-1747.3-230.6-1734.6-237.7-1724-248.3z M-1807.6-332c13.8-13.8,36-13.8,49.8,0s13.8,36,0,49.8s-36,13.8-49.8,0
	C-1821.4-295.9-1821.4-318.2-1807.6-332z"/>
<rect x="-1932.5" y="-470.3" class="st16" width="578.1" height="600.5"/>
<path class="st4" d="M-1782.6-292.4l-59.5,59.5c-6.3,6.3-16.4,6.3-22.7,0l0,0c-6.3-6.3-6.3-16.4,0-22.7l59.5-59.5
	c6.3-6.3,16.4-6.3,22.7,0l0,0C-1776.4-308.8-1776.4-298.6-1782.6-292.4z"/>
<path class="st4" d="M-1745.8-232.9l-59.5-59.5c-6.3-6.3-6.3-16.4,0-22.7l0,0c6.3-6.3,16.4-6.3,22.7,0l59.5,59.5
	c6.3,6.3,6.3,16.4,0,22.7l0,0C-1729.4-226.7-1739.6-226.7-1745.8-232.9z"/>
<path class="st4" d="M-1774.1-281.7v75.2c0,11.9-9.6,21.5-21.5,21.5l0,0c-11.9,0-21.5-9.6-21.5-21.5v-75.2
	c0-11.9,9.6-21.5,21.5-21.5l0,0C-1783.7-303.2-1774.1-293.6-1774.1-281.7z"/>
<path class="st4" d="M-1794-206.2c-52.3,0-94.6,42.4-94.6,94.6S-1846.2-17-1794-17s94.6-42.4,94.6-94.6S-1741.7-206.2-1794-206.2z
	 M-1794-53.4c-32.1,0-58.2-26-58.2-58.2c0-32.1,26-58.2,58.2-58.2c32.1,0,58.2,26,58.2,58.2S-1761.8-53.4-1794-53.4z"/>
<path class="st4" d="M-1553.3-38.4v-101.5c0-11.9,9.6-21.5,21.5-21.5l0,0c11.9,0,21.5,9.6,21.5,21.5v101.4
	c0,11.9-9.6,21.5-21.5,21.5l0,0C-1543.6-16.9-1553.3-26.6-1553.3-38.4z"/>
<path class="st4" d="M-1491.9-59.2h-79.7c-11.9,0-21.5-9.6-21.5-21.5l0,0c0-11.9,9.6-21.5,21.5-21.5h79.7c11.9,0,21.5,9.6,21.5,21.5
	l0,0C-1470.4-68.9-1480.1-59.2-1491.9-59.2z"/>
<path class="st4" d="M-1533.4-140.2c52.3,0,94.6-42.4,94.6-94.6s-42.4-94.6-94.6-94.6s-94.6,42.4-94.6,94.6
	S-1585.7-140.2-1533.4-140.2z M-1533.4-293c32.1,0,58.2,26,58.2,58.2c0,32.1-26,58.2-58.2,58.2c-32.1,0-58.2-26-58.2-58.2
	C-1591.6-266.9-1565.5-293-1533.4-293z"/>
<rect x="-2447.1" y="-470.3" class="st17" width="508.9" height="434.6"/>
<path class="st4" d="M-2168.2-293l-59.5,59.5c-6.3,6.3-16.4,6.3-22.7,0l0,0c-6.3-6.3-6.3-16.4,0-22.7l59.5-59.5
	c6.3-6.3,16.4-6.3,22.7,0l0,0C-2161.9-309.4-2161.9-299.2-2168.2-293z"/>
<path class="st4" d="M-2131.4-233.5l-59.5-59.5c-6.3-6.3-6.3-16.4,0-22.7l0,0c6.3-6.3,16.4-6.3,22.7,0l59.5,59.5
	c6.3,6.3,6.3,16.4,0,22.7l0,0C-2115-227.2-2125.1-227.2-2131.4-233.5z"/>
<path class="st4" d="M-2161.9-284.6v79.8c0,10.6-8.6,19.2-19.2,19.2l0,0c-10.6,0-19.2-8.6-19.2-19.2v-79.8
	c0-10.6,8.6-19.2,19.2-19.2l0,0C-2170.5-303.8-2161.9-295.2-2161.9-284.6z"/>
<path class="st18" d="M-2297.8-1318c-18,0-34.3,7.5-45.7,19.5v83.2c11.4,12,27.6,19.5,45.7,19.5c34.4,0,62.4-27.4,62.4-61.1
	C-2235.4-1290.6-2263.3-1318-2297.8-1318z"/>
<path class="st18" d="M-1759.3-1289.1c-8-8.2-19.5-13.4-32.2-13.4c-24.1,0-43.7,18.4-43.7,41.1s19.6,41.1,43.7,41.1
	c12.8,0,24.3-5.2,32.2-13.4V-1289.1z"/>
<ellipse class="st18" cx="-2215.6" cy="-1270" rx="28" ry="27.5"/>
<ellipse class="st18" cx="-2140.5" cy="-1262.5" rx="54.2" ry="53.1"/>
<ellipse class="st18" cx="-2061.2" cy="-1267.3" rx="35.9" ry="35.2"/>
<ellipse class="st18" cx="-1996" cy="-1283.2" rx="33.6" ry="32.9"/>
<ellipse class="st18" cx="-1961.8" cy="-1259.8" rx="38.4" ry="37.6"/>
<ellipse class="st18" cx="-1899.1" cy="-1268.4" rx="38" ry="37.3"/>
<ellipse class="st18" cx="-1849.9" cy="-1279.8" rx="23.2" ry="22.7"/>
<path class="st18" d="M-1759.3-1264.4h-583.1c2.2-15.3,1.6-11,3.5-24.2l0,0c0-13.3,12.2-24.2,27.2-24.2h521.7
	c15,0,27.2,10.8,27.2,24.2l0,0C-1761.6-1276.4-1761.7-1276.7-1759.3-1264.4z"/>
<circle class="st19" cx="-2215.6" cy="-1282.2" r="28"/>
<circle class="st19" cx="-2140.5" cy="-1274.6" r="54.2"/>
<ellipse transform="matrix(0.9239 -0.3827 0.3827 0.9239 332.7056 -886.1751)" class="st19" cx="-2061.2" cy="-1279.4" rx="35.9" ry="35.9"/>
<circle class="st19" cx="-1996" cy="-1295.6" r="33.6"/>
<circle class="st19" cx="-1961.8" cy="-1271.8" r="38.4"/>
<circle class="st19" cx="-1899.1" cy="-1280.5" r="38"/>
<circle class="st19" cx="-1849.9" cy="-1292.2" r="23.2"/>
<rect x="-2343.2" y="-1335.7" class="st19" width="583.9" height="61.1"/>
<path class="st19" d="M-1759.3-1302.4c-8-8.4-19.5-13.7-32.2-13.7c-24.1,0-43.7,18.8-43.7,41.9s19.6,41.9,43.7,41.9
	c12.8,0,24.3-5.3,32.2-13.7V-1302.4z"/>
<path class="st19" d="M-2297.8-1333c-18,0-34.3,7.7-45.7,19.9v84.9c11.4,12.2,27.6,19.9,45.7,19.9c34.4,0,62.4-27.9,62.4-62.4
	S-2263.3-1333-2297.8-1333z"/>
<path class="st7" d="M-3055.7-709.2c1.4,1.9,2.6,3.6,3.7,5.2c6,8.5,2.2,20.3-7.8,23.9c-8.4,3-21.4,5.2-41.4,4.8
	c-20.1,0.4-33.1-1.8-41.5-4.8c-10-3.5-13.8-15.4-7.8-23.9c1.1-1.6,2.3-3.3,3.7-5.2c8.4-11.5,11-58.3,7.8-119.2
	c-2.6-49.2-25.6-180.6-34.4-229.4c-1.7-9.7,5.9-18.6,16-18.6h112.2c10.1,0,17.8,8.9,16,18.6c-8.8,48.8-31.8,180.2-34.4,229.4
	C-3066.7-767.5-3064.1-720.7-3055.7-709.2z"/>
<g>
	
		<linearGradient id="SVGID_3_" gradientUnits="userSpaceOnUse" x1="-3101.25" y1="2570.9202" x2="-3101.25" y2="2268.3567" gradientTransform="matrix(1 0 0 -1 0 1541.8)">
		<stop  offset="0" style="stop-color:#FFCC4C"/>
		<stop  offset="1" style="stop-color:#FEBF4B"/>
	</linearGradient>
	<path class="st20" d="M-3072.1-839.3c2-38,19.8-139.3,26.5-177c1.3-7.5-4.6-14.3-12.4-14.3h-86.5c-7.8,0-13.7,6.8-12.4,14.3
		c6.8,37.6,24.5,139,26.5,177c0.9,16.3,1.2,79.1,1,92c-0.2,15.3,11.4,19.1,26.6,19.9c0.5,0,1,0,1.5,0s1,0,1.5,0
		c15.2-0.8,26.9-4.6,26.6-19.9C-3073.3-760.3-3073-823-3072.1-839.3z"/>
</g>
<circle class="st13" cx="-3066.3" cy="-1008.6" r="6.1"/>
<ellipse transform="matrix(0.1256 -0.9921 0.9921 0.1256 -1768.2858 -3867.3608)" class="st13" cx="-3078.1" cy="-930.5" rx="53" ry="6.1"/>
<g>
	<path class="st7" d="M-3214.3-690.3c0.8,2.1,0.1,4-1.5,5.5c-3.6,3.2-9.4,4.2-14,5c-11.5,1.9-23.2,2-34.8,1.9
		c-11.6,0.1-23.4,0-34.8-1.9c-4.6-0.8-10.4-1.7-14-5c-1.6-1.5-2.3-3.4-1.5-5.5c0.8-2,2.5-3.5,4.7-3.8c1.3-0.2,2.6-0.3,4-0.5
		c5.2-0.9,10.2-2.7,15-4.9c13.4-6,22-13.8,22-13.8s0.8-103,0.8-121.9s-38.2-28.4-54-46.5c-15.8-18.2,18.5-106.5,18.5-106.5h78.9
		c0,0,36.7,86.7,20.9,104.8s-56.4,29.3-56.4,48.2s0.8,121.9,0.8,121.9s8.6,7.8,22,13.8c4.8,2.1,9.8,3.9,15,4.9
		c1.3,0.2,2.6,0.3,4,0.5C-3216.8-693.8-3215.1-692.3-3214.3-690.3z"/>
	
		<linearGradient id="SVGID_4_" gradientUnits="userSpaceOnUse" x1="-3263.45" y1="2508.8823" x2="-3263.45" y2="2398.6736" gradientTransform="matrix(1 0 0 -1 0 1541.8)">
		<stop  offset="0" style="stop-color:#FFCC4C"/>
		<stop  offset="1" style="stop-color:#FEBF4B"/>
	</linearGradient>
	<path class="st21" d="M-3220.9-880.4l-37.7,21.8c-3,1.7-6.8,1.7-9.8,0l-37.7-21.8c-0.3-0.2-0.6-0.3-0.8-0.4
		c-2.2-1-15.2-8.3-5.3-39.8l9.8-38.6c1.1-4.3,5-7.4,9.5-7.4h58.8c4.5,0,8.4,3,9.5,7.4l9.9,38.6c9.9,31.5-3.1,38.8-5.3,39.8
		C-3220.4-880.7-3220.6-880.6-3220.9-880.4z"/>
	<circle class="st13" cx="-3235.3" cy="-944.4" r="6.1"/>
	<ellipse class="st13" cx="-3235.3" cy="-911.4" rx="6.1" ry="17"/>
</g>
<text transform="matrix(1 0 0 1 -2372.231 -944.3467)" style="font-family:'MyriadPro-Regular'; font-size:72px;">Beer</text>
<text transform="matrix(1 0 0 1 -912.5838 -1125.5997)" style="font-family:'MyriadPro-Regular'; font-size:72px;">Cocktail</text>
<path class="st23" d="M-1096-683.7c-77,0-50.8-18-50.8-18s14.7-4.4,27.8-6.6c13.1-2.2,16.3-27.3,16.3-27.3s0-73.2,0-95
	c0-21.9-5-22.9-5-22.9l-73.6-93.7h170.4l-73.6,93.7c0,0-5,1-5,22.9c0,21.8,0,95,0,95s3.2,25.1,16.3,27.3c13.1,2.2,27.9,6.6,27.9,6.6
	S-1019-683.7-1096-683.7z"/>
<path class="st23" d="M-802.5-901.6c-12.3,13.9-52.3,27.8-58,37.6c0,0-0.4,8.6-9.1,9.1c0,0-4.5,3.2-4.5,13.2s-4.3,112,0,116.3
	s36.7,14.1,42.2,15.9s38.8,25-54,25s-59.4-23.2-54-25c5.5-1.8,37.9-11.6,42.2-15.9c4.3-4.3,0-106.3,0-116.3s-4.6-13.2-4.6-13.2
	c-8.6-0.5-9.1-9.1-9.1-9.1c-5.7-9.8-45.8-23.7-58-37.6c-12.3-13.9-9-46.6-9-46.6h184.8C-793.5-948.2-790.2-915.5-802.5-901.6z"/>
<path class="st23" d="M-729.7-684.9c-37.3-5.2-19.8-13.9-19.8-13.9l25.9-9.8v-107c-12.1-6.8-20.5-22.5-20.5-22.5
	c-14-24.2-5.4-143.7-5.4-143.7h60.6c0,0,8.6,119.5-5.4,143.7c0,0-8.4,15.6-20.5,22.5v107l25.9,9.8c0,0,17.5,8.7-19.8,13.9
	C-715.7-684-722.8-684-729.7-684.9z"/>
<path class="st23" d="M-553.2-910.8c6.4,48.4,20.4,121.1,1.3,140.2c-12.4,12.4-18.3,19.6-20.9,23.1c-1.2,1.6-1.6,3.6-1.1,5.5
	c1.2,5.2,3.3,16.3,0.7,21c-0.9,1.7-1.8,3.3-2.5,4.9c-1.8,3.9,0.5,8.5,4.7,9.4l17.8,3.9c0.2,0,0.4,0.1,0.7,0.2
	c4.1,1.3,41,14.1-33.3,18.8c-0.3,0-0.6,0-0.9,0c-74.3-4.7-37.3-17.5-33.3-18.8c0.2-0.1,0.4-0.1,0.7-0.2l17.8-3.9
	c4.2-0.9,6.5-5.5,4.7-9.4c-0.7-1.5-1.5-3.2-2.5-4.9c-2.6-4.8-0.5-15.8,0.7-21c0.4-1.9,0-3.9-1.1-5.5c-2.6-3.5-8.5-10.7-20.9-23.1
	c-19.1-19.1-5.1-91.8,1.3-140.2c3.8-29-3.8-48-10.5-58.5c-2.9-4.5,0.4-10.3,5.7-10.3h76c5.3,0,8.5,5.9,5.7,10.3
	C-549.4-958.8-557-939.8-553.2-910.8z"/>
<path class="st23" d="M-370-954.8l-5,253.9c-0.1,5.5-3.8,10.2-9.1,11.7c-7.7,2.2-21.6,4.6-45.8,5c-24.2-0.3-38-2.7-45.8-5
	c-5.3-1.5-8.9-6.2-9.1-11.7l-5-253.9c-0.1-7,5.5-12.7,12.4-12.7h94.7C-375.4-967.4-369.8-961.7-370-954.8z"/>
<path class="st23" d="M-277.1-686c-59.6,0.5-52.6-4.3-34.3-14.3c16.8-9.2,12.4-29.6,11.5-32.8c-0.1-0.3-0.1-0.7-0.2-1l-22.3-295.3
	c-0.3-3.5,2.5-6.6,6.1-6.6h78.3c3.6,0,6.4,3,6.1,6.6l-22.3,295.3c0,0.3-0.1,0.7-0.2,1c-0.8,3.3-5.3,23.7,11.5,32.8
	C-224.5-690.3-217.5-685.5-277.1-686z"/>
<text transform="matrix(1 0 0 1 -912.5831 -252.9439)" style="font-family:'MyriadPro-Regular'; font-size:72px;">Lhao</text>
<path class="st7" d="M-1058.1,12.5c-23.7,31.1-43,36.1-53.2,41.7s-16.2,26.8,3.2,30.9c19.4,4.2,27.9,6.7,27.9,6.7s35.7,18.2-50,18.2
	c-86.4,0-50-18.2-50-18.2s8.4-2.5,27.8-6.7c19.4-4.1,13.4-25.4,3.2-30.9c-10.2-5.6-29.4-10.5-53.2-41.7
	c-23.7-31.1,24.6-122.1,24.6-122.1h95C-1082.6-109.5-1034.3-18.6-1058.1,12.5z"/>
<path class="st7" d="M-661.1,110.1c-66.8-0.8-42.6-10.7-26.2-11.9C-670.9,97-665.6,83-665.6,83s-0.8-91.8,0-107.3
	c0.8-15.6-11.7-23.3-11.7-23.3c-30.1-32-16.2-104.1-16.2-104.1h64.7c0,0,13.9,72.1-16.2,104.1c0,0-12.5,7.8-11.7,23.3
	c0.8,15.6,0,107.3,0,107.3s5.3,13.9,21.7,15.2C-618.5,99.4-594.3,109.2-661.1,110.1z"/>
<path class="st7" d="M-259.4,110.1c-39.6,0-30.4-5.9-23.1-9.4c7-3.4,15.4-9.1,15.4-9.1l1.3-28.9c0.9-20.1-4.1-22.3-8.8-29.2
	s-5.6-11.3-10-27.3s-1.9-68.1-1.9-68.1h54.4c0,0,2.5,52.1-1.9,68.1s-5.3,20.4-10,27.3s-9.7,9.1-8.8,29.2l1.3,28.9
	c0,0,8.4,5.7,15.4,9.1C-229,104.2-219.8,110.1-259.4,110.1z"/>
<text transform="matrix(1 0 0 1 341.8691 -1125.6)" style="font-family:'MyriadPro-Regular'; font-size:72px;">Wine</text>
<path class="st7" d="M158-686c-103.5-0.2-51.2-11.8-48-12.5c0.1,0,0.2,0,0.3-0.1c1.8-0.5,17.6-5.2,22.9-8.2
	c5.5-3.2,14.6-18.7,14.8-25.7c0.2-6.3-4-21.5-5-25.2c-0.2-0.5-0.4-1-0.7-1.5c-7.5-11-1.3-17.9,3.1-24.8c4.5-7,2-23.6-1.9-30
	c-3.8-6.4-13.9-31.9-17.7-51c-3.1-15.9-27.1-81.2-35-102.7c-1.2-3.3,1.2-6.9,4.8-6.9l126.2,0.3c3.6,0,6,3.6,4.8,6.9
	c-8.1,21.4-32.3,86.6-35.5,102.5c-3.9,19.1-14.1,44.6-18,50.9c-3.8,6.4-6.4,22.9-2,30c4.4,6.9,10.5,13.9,3,24.8
	c-0.3,0.5-0.6,0.9-0.7,1.5c-1,3.6-5.3,18.9-5.1,25.2c0.2,7,9.2,22.6,14.7,25.8c5.2,3.1,21.1,7.8,22.8,8.3c0.1,0,0.2,0.1,0.3,0.1
	C209.3-697.5,261.5-685.7,158-686z"/>
<path class="st7" d="M509.5-811.2v101.1c0,0,16.4,7.2,26.1,10.7c8.8,3.2,30.8,14.5-32.3,14.5s-41.1-11.3-32.3-14.5
	c9.7-3.5,26-10.7,26-10.7v-101.1c0,0-3.9-2.4-12.9-8.9c-10.2-7.4-27.4-26.8-33.9-48.7c-6.6-21.9,9.9-105.6,9.9-105.6h86.5
	c0,0,16.4,83.8,9.9,105.6c-6.6,21.9-23.7,41.3-33.9,48.7C513.4-813.6,509.5-811.2,509.5-811.2z"/>
<path class="st7" d="M913.8-834.8c0,6.3-0.4,117.8-0.4,117.8l25.6,14.7c0,0,44.2,16.3-32.6,16.3s-32.6-16.3-32.6-16.3l25.6-14.7
	c0,0-0.4-111.5-0.4-117.8s-3.1-8-8.5-11.4s-25-14.8-35.1-32.4c-10.1-17.6,12.4-95.9,12.4-95.9h77.3c0,0,22.5,78.4,12.4,95.9
	c-10.1,17.6-29.7,29-35.1,32.4C917-842.8,913.8-841,913.8-834.8z"/>
<path class="st7" d="M1276.2-794c0,4.6,0,69.5,0,69.5s15.3,22.4,24.2,23c8.9,0.6,44.4,15.5-32.5,15.5s-41.4-14.9-32.5-15.5
	s24.2-23,24.2-23s0-65,0-69.5c0-4.6-3.6-7.7-3.6-7.7c-1.6-16.3-19.1-29.2-43.9-55.9c-24.7-26.7,8-99.8,8-99.8h95.7
	c0,0,32.7,73.1,8,99.8s-42.3,39.6-43.9,55.9C1279.8-801.7,1276.2-798.6,1276.2-794z"/>
<path class="st24" d="M-1664.6,573.9h-118.2c-10.7,0-19.4-8.7-19.4-19.4V436.3c0-10.7,8.7-19.4,19.4-19.4h118.2
	c10.7,0,19.4,8.7,19.4,19.4v118.2C-1645.2,565.1-1653.9,573.9-1664.6,573.9z"/>
<path class="st4" d="M-1802.2,468.3v86.2c0,10.7,8.7,19.4,19.4,19.4h118.2c10.7,0,19.4-8.7,19.4-19.4v-86.2H-1802.2z"/>
<text transform="matrix(1 0 0 1 -1747.4534 450.4473)" class="st4" style="font-family:'Cloud-Bold'; font-size:26px;">DAY</text>
<g>
	<path class="st7" d="M1169.4-113.4c0,6.3-0.4,117.8-0.4,117.8l25.6,14.7c0,0,44.2,16.3-32.6,16.3c-65.3,0-24.6-16.3-24.6-16.3
		L1163,4.4c0,0-0.4-111.5-0.4-117.8s-3.1-8-8.5-11.4c-5.4-3.4-25-14.8-35.1-32.4c-10.2-17.6,12.3-95.9,12.3-95.9h69.3
		c0,0,22.5,78.4,12.4,95.9c-10.1,17.6-29.7,29-35.1,32.4C1172.5-121.4,1169.4-119.7,1169.4-113.4z"/>
	
		<linearGradient id="SVGID_5_" gradientUnits="userSpaceOnUse" x1="1204.1542" y1="1724.5372" x2="1203.6929" y2="1715.7719" gradientTransform="matrix(1 0 0 -1 0 1541.8)">
		<stop  offset="0" style="stop-color:#AE4F6F"/>
		<stop  offset="1" style="stop-color:#6C365E"/>
	</linearGradient>
	<path class="st25" d="M1202.3-177.7c-0.3-1.5,0.2-3,1.3-4.1c0.2-0.2,0.4-0.4,0.7-0.4c0.7-0.1,1.3,0.6,1.4,1.3
		c0.3,1.4-0.7,3-2.2,3.4c-0.5,0.1-1.1,0-1.3-0.4"/>
	
		<linearGradient id="SVGID_6_" gradientUnits="userSpaceOnUse" x1="1166.0519" y1="1722.2693" x2="1166.0519" y2="1669.792" gradientTransform="matrix(1 0 0 -1 0 1541.8)">
		<stop  offset="0" style="stop-color:#AE4F6F"/>
		<stop  offset="1" style="stop-color:#6C365E"/>
	</linearGradient>
	<path class="st26" d="M1208.1-164.3c-0.7,0.1-1.3,0.5-2,0.8s-1.6,0.4-2.3,0.2c-0.1,0-0.2,0-0.3-0.1s-0.1-0.1-0.1-0.2
		c0-0.1,0-0.1,0-0.2c0-1.9,0.2-4.1-2.1-5.3c-0.7-0.3-1.4-0.5-2.1-0.5c-2.4,0-4.4,1.4-6.5,2.5c-3.5,1.9-7.3,3-11.2,3.5h-13.2
		c-4.4-0.5-8.7-1.3-13-2.2c-1.8-0.4-3.7-0.8-5.1-1.9c-1.1-0.9-1.9-2.1-2.9-3.1s-2.5-1.8-3.9-1.3c-0.7,0.2-1.2,0.7-1.9,0.9
		c-1.1,0.3-2.2-0.1-3.2-0.5c-1.6-0.7-3.2-1.3-4.5-2.4c-2-1.6-3.7-4.1-6.6-3.4c-1.2,0.3-2.2,1.1-2.8,2.1c-6.3,9.8,5,20.6,11.6,26.7
		c5.5,5.1,11.6,9.3,18,13.2c0.9,0.5,1.7,1,2.4,1.5c7.6,5,9.3,5.8,11.6,5.8c2,0,6.1-3,10.1-5.8c0.7-0.5,1.5-1,2.4-1.5
		c0.5-0.3,1-0.6,1.5-0.9c5-3.1,9.8-6.5,14.3-10.4c2.9-2.6,5.7-5.3,8.2-8.3c1.3-1.6,2.5-3.2,3.6-4.9
		C1208.6-160.9,1211.1-164.6,1208.1-164.3z"/>
</g>
<g>
	<path class="st7" d="M673.7-108.9c4.9,0,8.9,4.1,8.7,9l-4.6,115c0,0-1.1,21.5-15.8,21.5c-20.6,0-34.5,0-34.5,0s-13.9,0-34.5,0
		c-14.7,0-15.8-21.5-15.8-21.5l-4.6-115c-0.2-4.9,3.7-9,8.7-9C581.3-108.9,673.7-108.9,673.7-108.9z"/>
	<path class="st27" d="M593.5-59.6c-6.7,0-12.1,3.8-11.8,8.5L584.6,0c0,0,0.9,12.4,13.3,12.4c17.3,0,28.9,0,28.9,0s11.7,0,28.9,0
		C668,12.4,669,0,669,0l2.9-51.1c0.3-4.6-5.1-8.5-11.8-8.5H593.5z"/>
	<path class="st28" d="M609.8-39l-13.1-8.9c-2.6-1.8-3.3-5.4-1.5-8l8.9-13.1c1.8-2.6,5.4-3.3,8-1.5l13.1,8.9c2.6,1.8,3.3,5.4,1.5,8
		l-8.9,13.1C616-37.9,612.4-37.2,609.8-39z"/>
	<path class="st28" d="M652.4-51.5l-7,2.1c-2,0.6-4-0.5-4.6-2.5l-2.1-7c-0.6-2,0.5-4,2.5-4.6l7-2.1c2-0.6,4,0.5,4.6,2.5l2.1,7
		C655.5-54.2,654.4-52.1,652.4-51.5z"/>
</g>
<g>
	<path class="st7" d="M75.9,0c3.7,0,6.7,3.1,6.5,6.8L79,93.1c0,0-0.8,16.1-11.9,16.1c-15.5,0-25.9,0-25.9,0s-10.4,0-25.9,0
		c-11,0-11.9-16.1-11.9-16.1L0,6.8C-0.1,3.1,2.8,0,6.5,0H75.9z"/>
	<path class="st29" d="M15.7,37c-5,0-9.1,2.9-8.9,6.4L9,81.8c0,0,0.7,9.3,10,9.3c13,0,21.7,0,21.7,0s8.8,0,21.7,0
		c9.2,0,10-9.3,10-9.3l2.2-38.4c0.2-3.5-3.8-6.4-8.9-6.4H15.7z"/>
	<path class="st28" d="M27.9,52.5l-9.8-6.7c-2-1.4-2.5-4.1-1.1-6l6.7-9.8c1.4-2,4.1-2.5,6-1.1l9.8,6.7c2,1.4,2.5,4.1,1.1,6L34,51.4
		C32.6,53.3,29.9,53.8,27.9,52.5z"/>
	<path class="st28" d="M59.9,43.1l-5.3,1.6c-1.5,0.5-3-0.4-3.5-1.9l-1.6-5.3c-0.5-1.5,0.4-3,1.9-3.5l5.3-1.6c1.5-0.5,3,0.4,3.5,1.9
		l1.6,5.3C62.3,41.1,61.4,42.7,59.9,43.1z"/>
</g>
<g>
	<path class="st7" d="M1036.9,19.9l-20.2-11.6c0,0,0.3-67.4,0.3-87.6l45.4-63h-96.1l45.3,62.8c0.1,20,0.3,87.7,0.3,87.7l-20.2,11.6
		c0,0-32.1,12.9,19.4,12.9C1071.8,32.8,1036.9,19.9,1036.9,19.9z"/>
	
		<linearGradient id="SVGID_7_" gradientUnits="userSpaceOnUse" x1="1014.35" y1="1660.9" x2="1014.35" y2="1627.9467" gradientTransform="matrix(1 0 0 -1 0 1541.8)">
		<stop  offset="0" style="stop-color:#14AFAB"/>
		<stop  offset="1" style="stop-color:#227893"/>
	</linearGradient>
	<polygon class="st30" points="1038.1,-119.1 1014.4,-86.1 990.6,-119.1 	"/>
	<path class="st31" d="M1040-131.1c5.3-4.6,5.8-12.7,1.2-18s-12.7-5.8-18-1.2"/>
	<g>
		<polygon class="st32" points="1030.3,-142.3 1022.9,-142.3 1022.9,-141.5 1031.7,-141.5 		"/>
		<polygon class="st33" points="1035.9,-135.9 1035.9,-142.3 1030.3,-142.3 1031,-141.5 		"/>
	</g>
</g>
<path class="st34" d="M-3387.1-910.1c-0.6-0.8-2.8-5.7-5.3-10.7c-1.7-3.4-1.8-7.2-1.7-9.3c0-0.9,0.4-1.6,0.9-2.3
	c0.4-0.5,0.8-1.4,0.8-2.8c0-2.8-55.6-3.9-55.6-3.9s-55.6,1.1-55.6,3.9c0,1.4,0.4,2.3,0.8,2.8c0.5,0.7,0.9,1.5,0.9,2.3
	c0.1,2.1,0,5.9-1.7,9.3c-2.5,5-4.6,9.9-5.3,10.7s0,15.1,0,18.7v151.9c0,1,0.4,1.9,1,2.7c1.1,1.2,3.1,3.1,5.7,4.7
	c2.4,1.4,4.1,2.7,5.1,3.5c0.7,0.6,1.3,1.4,1.4,2.3l0,0c0.1,0.5,0.3,0.9,0.5,1.3l1.1,1.7c0.7,1.1,1.8,1.7,3,1.8
	c7.4,0.6,33.5,2.5,42.9,2.5c9.8,0,35.6-1.9,42.9-2.5c1.2-0.1,2.4-0.8,3-1.8l1.1-1.7c0.3-0.4,0.4-0.9,0.5-1.3l0,0
	c0.2-0.9,0.7-1.8,1.4-2.3c1-0.8,2.7-2,5.1-3.5c2.6-1.6,4.6-3.5,5.7-4.7c0.7-0.7,1-1.7,1-2.7v-151.9
	C-3387.1-895-3386.4-909.3-3387.1-910.1z"/>
<path class="st35" d="M-3491.8-728.4c0,0,50.3,5.5,87.7,0"/>
<rect x="-3500.7" y="-840.5" class="st36" width="105.5" height="26.5"/>
<path class="st35" d="M-3497.2-932.5c0,0,40.7,4.1,98.6,0"/>
<path class="st36" d="M-3479.7-813.9h63.5c-3.5,24-16.4,41.8-31.7,41.8C-3463.3-772.1-3476.1-789.9-3479.7-813.9z"/>
<path class="st36" d="M-3416.2-840.5h-63.5c3.5-24,16.4-41.8,31.7-41.8C-3432.6-882.3-3419.7-864.5-3416.2-840.5z"/>
<path d="M-2151.8,775.9h-23.1v-106c0-6.4,5.2-11.6,11.6-11.6l0,0c6.4,0,11.6,5.2,11.6,11.6v106H-2151.8z"/>
<path d="M-2059.3,787.4L-2059.3,787.4c0,6.4-5.2,11.6-11.6,11.6H-2378c-6.4,0-11.6-5.2-11.6-11.6l0,0c0-6.4,5.2-11.6,11.6-11.6
	h307.1C-2064.5,775.9-2059.3,781-2059.3,787.4z"/>
<path d="M-1534.2,982L-1534.2,982c0,6.4-5.2,11.6-11.6,11.6h-307.1c-6.4,0-11.6-5.2-11.6-11.6l0,0c0-6.4,5.2-11.6,11.6-11.6h307.1
	C-1539.4,970.5-1534.2,975.6-1534.2,982z"/>
<path d="M-2123.4,671.9L-2123.4,671.9c-4.5,4.5-11.8,4.5-16.3,0l-99.2-99.2c-4.5-4.5-4.5-11.8,0-16.3l0,0c4.5-4.5,11.8-4.5,16.3,0
	l99.2,99.2C-2118.8,660-2118.8,667.3-2123.4,671.9z"/>
<path d="M-2339.2,671.9L-2339.2,671.9c4.5,4.5,11.8,4.5,16.3,0l99.2-99.2c4.5-4.5,4.5-11.8,0-16.3l0,0c-4.5-4.5-11.8-4.5-16.3,0
	l-99.2,99.2C-2343.7,660-2343.7,667.3-2339.2,671.9z"/>
<path d="M-2287.8,775.9h-23.1v-106c0-6.4,5.2-11.6,11.6-11.6l0,0c6.4,0,11.6,5.2,11.6,11.6v106H-2287.8z"/>
<path d="M-2227.1,775.9h-43.1v-52.4c0-11.9,9.7-21.6,21.6-21.6l0,0c11.9,0,21.6,9.7,21.6,21.6v52.4H-2227.1z"/>
<path d="M-1641.1,846.7h-109.4c-4.3,0-7.9,3.5-7.9,7.9l0,0c0,13.9-11.3,25.2-25.2,25.2l0,0c-10.3,0-18.6,8.3-18.6,18.6v33.7h196.6
	c13.8,0,24.9-11.2,24.9-24.9l0,0C-1580.6,873.8-1607.7,846.7-1641.1,846.7z"/>
<path d="M-1603.2,869.1h-38.5c-8.7,0-15.8-7.1-15.8-15.8v-38.5c0-8.7,7.1-15.8,15.8-15.8h38.5c8.7,0,15.8,7.1,15.8,15.8v38.5
	C-1587.4,862-1594.5,869.1-1603.2,869.1z"/>
<linearGradient id="SVGID_8_" gradientUnits="userSpaceOnUse" x1="158.7" y1="1176.3188" x2="158.7" y2="1249.1672" gradientTransform="matrix(1 0 0 1 0 -2059.1738)">
	<stop  offset="0" style="stop-color:#AE4F6F"/>
	<stop  offset="1" style="stop-color:#6C365E"/>
</linearGradient>
<path class="st37" d="M182.7-881.2h-24h-24c-1.6,0-2.7,1.6-2.1,3.1c1.8,4.3,3.5,11.5,3.9,12.8c2.4,10.1,3.1,20.3,8.1,29.4
	c3.7,6.7,8.1,12.8,12.6,19c0.9,1.2,1.5,1.7,1.5,1.7s0.6-0.5,1.5-1.7c4.5-6.2,8.9-12.3,12.6-19c5-9.1,5.7-19.3,8.1-29.4
	c0.3-1.3,2.1-8.5,3.9-12.8C185.4-879.6,184.3-881.2,182.7-881.2z"/>
<linearGradient id="SVGID_9_" gradientUnits="userSpaceOnUse" x1="503.308" y1="1180.2256" x2="503.308" y2="1239.4446" gradientTransform="matrix(1 0 0 1 0 -2059.1738)">
	<stop  offset="0" style="stop-color:#AE4F6F"/>
	<stop  offset="1" style="stop-color:#6C365E"/>
</linearGradient>
<path class="st38" d="M548.8-874.6c0.3-2.1-1.6-3.9-4-3.9h-41.5h-41.5c-2.4,0-4.2,1.8-4,3.9c1,8.1,6.2,27.8,32.1,48.9
	c7.5,6.1,19.2,6.1,26.7,0C542.6-846.8,547.8-866.5,548.8-874.6z"/>
<linearGradient id="SVGID_10_" gradientUnits="userSpaceOnUse" x1="906.4081" y1="1170.1475" x2="906.4081" y2="1210.342" gradientTransform="matrix(1 0 0 1 0 -2059.1738)">
	<stop  offset="0" style="stop-color:#AE4F6F"/>
	<stop  offset="1" style="stop-color:#6C365E"/>
</linearGradient>
<path class="st39" d="M951.9-886.1c0.3-1.4-1.6-2.6-4-2.6h-41.5h-41.5c-2.4,0-4.2,1.2-4,2.6c1,5.5,6.2,18.8,32.1,33.2
	c7.5,4.1,19.2,4.1,26.7,0C945.7-867.2,950.9-880.6,951.9-886.1z"/>
<linearGradient id="SVGID_11_" gradientUnits="userSpaceOnUse" x1="1267.9503" y1="1189.5261" x2="1267.9503" y2="1239.2329" gradientTransform="matrix(1 0 0 1 0 -2059.1738)">
	<stop  offset="0" style="stop-color:#AE4F6F"/>
	<stop  offset="1" style="stop-color:#6C365E"/>
</linearGradient>
<path class="st40" d="M1322.3-869.2h-48.8c-1.9,0-3.7,0-5.6,0s-3.7,0-5.6,0h-48.7c-0.6,0.8,1,5.2,1.3,6.2c0.9,2.8,3.7,4.5,6.2,6.2
	c6.3,4.3,9.8,10.3,14.8,15.8c5.5,6.1,12,11.4,18.8,16.1c3.7,2.6,8.5,3.8,13.3,3.8s9.6-1.3,13.3-3.8c6.8-4.7,13.3-9.9,18.8-16.1
	c5-5.5,8.5-11.5,14.8-15.8c2.5-1.7,5.3-3.4,6.2-6.2C1321.3-864,1322.9-868.4,1322.3-869.2z"/>
<linearGradient id="SVGID_12_" gradientUnits="userSpaceOnUse" x1="1309.4" y1="1190.1737" x2="1309.4" y2="1190.1737" gradientTransform="matrix(1 0 0 1 0 -2059.1738)">
	<stop  offset="0" style="stop-color:#AE4F6F"/>
	<stop  offset="1" style="stop-color:#6C365E"/>
</linearGradient>
<path class="st41" d="M1309.4-869"/>
<ellipse transform="matrix(0.1108 -0.9938 0.9938 0.1108 1089.3093 -645.2751)" class="st13" cx="184" cy="-931.4" rx="6.1" ry="6.1"/>
<ellipse transform="matrix(0.1586 -0.9873 0.9873 0.1586 1032.7589 -576.8069)" class="st13" cx="177.9" cy="-894.4" rx="20.1" ry="5.8"/>
<ellipse transform="matrix(0.1454 -0.9894 0.9894 0.1454 2030.0741 515.4965)" class="st13" cx="1313.4" cy="-917.4" rx="7.2" ry="4"/>
<ellipse transform="matrix(8.062460e-02 -0.9967 0.9967 8.062460e-02 2081.0686 496.1821)" class="st13" cx="1309.5" cy="-880" rx="20.1" ry="5.8"/>
<ellipse transform="matrix(1.111431e-03 -1 1 1.111431e-03 1470.5787 -387.686)" class="st13" cx="541.2" cy="-930" rx="6.1" ry="3.6"/>
<ellipse class="st13" cx="942.3" cy="-926" rx="3.8" ry="3.8"/>
<path class="st13" d="M545.8-892c0,12.7-5.6,24.7-8.2,24.7s-1.1-12-1.1-24.7s2.1-23,4.7-23C543.7-915,545.8-904.7,545.8-892z"/>
<path class="st13" d="M946.3-892c0,7.7-3.9,14-6.1,14c-2.2,0-1.8-6.3-1.8-14s1.8-14,3.9-14C944.5-906,946.3-899.7,946.3-892z"/>
<path class="st27" d="M-1178.6-72.5c-10.1,23.8-22.7,61.3-10.1,77.9c19.3,25.3,34.8,29.2,43.1,33.8c15.4,5.9,30.7,0,30.7,0
	c8.2-4,23.9-8.6,43.1-33.8c12.7-16.6,0.1-54.1-10.1-77.9H-1178.6z"/>
<path class="st27" d="M-687.6-128.7c-1.9,17.5-4.4,53.7,14.1,70.3c13.1,11.7,25.1,0,25.1,0c17.1-18.1,16-52.8,14.1-70.3H-687.6z"/>
<path class="st27" d="M-281.4-43.4c-0.4,12.8-0.7,37.1,1.8,46.4c3.5,12.8,4.2,16.3,8,21.8c0,0,12.2,14.4,24.5,0
	c4.3-5.1,4.5-9,8-21.8c2.5-9.3,2.2-33.6,1.8-46.4H-281.4z"/>
<circle class="st13" cx="-1094" cy="-83.7" r="5"/>
<ellipse transform="matrix(0.9872 -0.1597 0.1597 0.9872 -6.656 -174.3235)" class="st13" cx="-1087.9" cy="-45.7" rx="5" ry="21.5"/>
<ellipse class="st13" cx="-641.1" cy="-142.2" rx="2.8" ry="4.5"/>
<ellipse class="st13" cx="-641.1" cy="-109.6" rx="2.8" ry="21.5"/>
<ellipse class="st13" cx="-242.1" cy="-28.1" rx="2.7" ry="17.3"/>
<circle class="st13" cx="-242.1" cy="-52.8" r="2.7"/>
</svg>
