<?xml version="1.0" encoding="utf-8"?>
<!-- Generator: Adobe Illustrator 22.0.1, SVG Export Plug-In . SVG Version: 6.00 Build 0)  -->
<svg version="1.1" id="Layer_1" xmlns="http://www.w3.org/2000/svg" xmlns:xlink="http://www.w3.org/1999/xlink" x="0px" y="0px"
	 viewBox="0 0 42.3 75.7" style="enable-background:new 0 0 42.3 75.7;" xml:space="preserve">
<style type="text/css">
	.st0{display:none;}
	.st1{display:inline;fill:#B0B0D1;}
	.st2{display:inline;opacity:0.65;fill:#F9F9FA;enable-background:new    ;}
	.st3{display:inline;fill:#FFFFFF;}
	.st4{display:inline;fill:url(#SVGID_1_);}
	.st5{display:inline;fill:#DDDDDD;}
	.st6{display:inline;fill:#F7F7F7;}
	.st7{display:inline;}
	.st8{opacity:0.6;fill:#F4F4F5;enable-background:new    ;}
	.st9{fill:none;stroke:#FFFFFF;stroke-width:5;stroke-miterlimit:10;}
	.st10{fill:none;stroke:#FFFFFF;stroke-width:5;stroke-linejoin:round;stroke-miterlimit:10;}
	.st11{fill:#FFFFFF;}
	.st12{fill:none;stroke:#FFFFFF;stroke-width:3;stroke-miterlimit:10;}
	.st13{fill:none;stroke:#FFFFFF;stroke-width:5;stroke-linecap:round;stroke-linejoin:round;stroke-miterlimit:10;}
	.st14{fill:#FFFFFF;stroke:#FFFFFF;stroke-width:5;stroke-miterlimit:10;}
</style>
<g id="Layer_1_1_" class="st0">
	<rect x="-62.3" y="-129.9" class="st1" width="398.1" height="398.1"/>
	<path class="st2" d="M274.6,19.9c-2.3-11.7-10.8-20.4-21-20.4h-35.2v-32.3c0-11.7-9.5-21.2-21.2-21.2H48.3
		c-11.7,0-21.2,9.5-21.2,21.2v227.7c0,11.7,9.5,21.2,21.2,21.2h148.8c11.7,0,21.2-9.5,21.2-21.2v-45.5h35.2
		c10.7,0,19.6-9.6,21.3-22.2c0.2-1.1,0.3-2.2,0.3-3.4V24.6C275.1,22.9,274.9,21.3,274.6,19.9z M253.8,112.6
		c0,7.3-4.8,13.3-10.8,13.3h-24.7V22H243c6,0,10.8,5.9,10.8,13.3V112.6z"/>
	<circle class="st3" cx="78.2" cy="-21.3" r="6.2"/>
	
		<linearGradient id="SVGID_1_" gradientUnits="userSpaceOnUse" x1="122.6545" y1="98.3" x2="122.6545" y2="-125.9216" gradientTransform="matrix(1 0 0 -1 0 77)">
		<stop  offset="0" style="stop-color:#FFCC4C"/>
		<stop  offset="1" style="stop-color:#FEBF4B"/>
	</linearGradient>
	<path class="st4" d="M189.7,203.7h-134c-7.5,0-13.6-6.1-13.6-13.6V-7.7c0-7.5,6.1-13.6,13.6-13.6h134c7.5,0,13.6,6.1,13.6,13.6
		v197.9C203.3,197.6,197.2,203.7,189.7,203.7z"/>
	<circle class="st5" cx="64.8" cy="-27.4" r="33"/>
	<circle class="st5" cx="100.5" cy="-37.1" r="23.4"/>
	<circle class="st5" cx="135.4" cy="-27.1" r="23.4"/>
	<circle class="st5" cx="185" cy="-32" r="28.2"/>
	<circle class="st6" cx="135.4" cy="-36.2" r="23.4"/>
	<circle class="st6" cx="156.8" cy="-46.2" r="11.7"/>
	<path class="st6" d="M77.1-46.2c0-1.5,0.1-2.9,0.4-4.3H34.9c-2,4.2-3.1,9-3.1,14c0,18.2,14.8,33,33,33c13.6,0,25.2-8.2,30.3-19.9
		C84.8-25.9,77.1-35.1,77.1-46.2z"/>
	<path class="st6" d="M97.8-36.5c0,4.6-1,9.1-2.7,13.1c1.7,0.4,3.5,0.6,5.4,0.6c12.9,0,23.4-10.5,23.4-23.4c0-1.5-0.1-2.9-0.4-4.3
		H94.7C96.7-46.3,97.8-41.5,97.8-36.5z"/>
	<path class="st6" d="M94.7-50.5H77.5c-0.3,1.4-0.4,2.8-0.4,4.3c0,11.1,7.7,20.3,18,22.7c1.7-4,2.7-8.4,2.7-13.1
		C97.8-41.5,96.7-46.3,94.7-50.5z"/>
	<path class="st6" d="M211.5-50.5h-53.1c-1.1,3-1.6,6.1-1.6,9.5c0,15.6,12.6,28.2,28.2,28.2s28.2-12.6,28.2-28.2
		C213.2-44.4,212.6-47.5,211.5-50.5z"/>
	<path class="st6" d="M216.2-45.1c0,0-0.1-0.1-0.2-0.2C216-45.3,216-45.2,216.2-45.1L216.2-45.1z"/>
	<path class="st6" d="M211.5-50.5H94.7c-2.4-5-5.9-9.3-10.3-12.6c-3.5,3.3-6,7.7-6.9,12.6H34.9c0.5-1.1,1.1-2.2,1.8-3.3
		c4.2-4.6,12.7-12.3,22.7-12.3h55.4c0,0,6.7,0,16,0h55.4c13.2,0,23.9,13.4,25.3,15.3C211.5-50.7,211.5-50.6,211.5-50.5z"/>
	<path class="st6" d="M77.5-50.5h17.2c-2.3-5-5.9-9.3-10.3-12.6C80.9-59.8,78.4-55.4,77.5-50.5z"/>
	<g class="st7">
		<path class="st8" d="M73.1,171.9L73.1,171.9c-6,0-10.8-4.8-10.8-10.8v-134c0-6,4.8-10.8,10.8-10.8l0,0c6,0,10.8,4.8,10.8,10.8v134
			C83.9,167.1,79,171.9,73.1,171.9z"/>
		<path class="st8" d="M123.3,171.9L123.3,171.9c-6,0-10.8-4.8-10.8-10.8v-134c0-6,4.8-10.8,10.8-10.8l0,0c6,0,10.8,4.8,10.8,10.8
			v134C134.1,167.1,129.3,171.9,123.3,171.9z"/>
		<path class="st8" d="M172.4,168.6L172.4,168.6c-6,0-10.8-4.8-10.8-10.8v-134c0-6,4.8-10.8,10.8-10.8l0,0c6,0,10.8,4.8,10.8,10.8
			v134C183.2,163.8,178.3,168.6,172.4,168.6z"/>
	</g>
</g>
<g>
	<path class="st9" d="M188.9,61.3h-57.1c-6.9,0-12.5-5.6-12.5-12.5V12.1c0-18.2,14.8-33,33-33h16.2c18.2,0,33,14.8,33,33v36.6
		C201.4,55.6,195.8,61.3,188.9,61.3z"/>
	<rect x="119.2" y="9.9" class="st10" width="82.2" height="26.1"/>
	<circle class="st9" cx="132" cy="48" r="4.5"/>
	<circle class="st9" cx="191.1" cy="48" r="4.5"/>
	<path class="st9" d="M184.7,67.8h-48.3c-1.1,0-1.9-1.5-1.9-3.2l0,0c0-1.9,0.9-3.2,1.9-3.2h48.3c1.1,0,1.9,1.5,1.9,3.2l0,0
		C186.6,66.4,185.7,67.8,184.7,67.8z"/>
	<path class="st11" d="M172.6,44.3h-22.1c-0.3,0-0.6,0.3-0.6,0.6l0,0c0,0.3,0.3,0.6,0.6,0.6h22.1c0.3,0,0.6-0.3,0.6-0.6l0,0
		C173.2,44.6,172.9,44.3,172.6,44.3z"/>
	<path class="st11" d="M172.6,46.7h-22.1c-0.3,0-0.6,0.3-0.6,0.6l0,0c0,0.3,0.3,0.6,0.6,0.6h22.1c0.3,0,0.6-0.3,0.6-0.6l0,0
		C173.2,46.9,172.9,46.7,172.6,46.7z"/>
	<path class="st11" d="M172.6,49.3h-22.1c-0.3,0-0.6,0.3-0.6,0.6l0,0c0,0.3,0.3,0.6,0.6,0.6h22.1c0.3,0,0.6-0.3,0.6-0.6l0,0
		C173.2,49.6,172.9,49.3,172.6,49.3z"/>
	<path class="st9" d="M140.2,94.4L140.2,94.4c0.3,0.1,0.6,0,0.7-0.3l5.7-15.4c0.1-0.3,0-0.6-0.3-0.7l0,0c-0.3-0.1-0.6,0-0.7,0.3
		l-5.7,15.4C139.7,94,139.9,94.3,140.2,94.4z"/>
	<path class="st12" d="M143.7,86h33.4"/>
	<path class="st12" d="M142,92.7h36.7"/>
	<path class="st12" d="M174.1,79.3h-27.4"/>
	<path class="st9" d="M180.5,94.4L180.5,94.4c-0.3,0.1-0.6,0-0.7-0.3l-5.7-15.4c-0.1-0.3,0-0.6,0.3-0.7l0,0c0.3-0.1,0.6,0,0.7,0.3
		l5.7,15.4C181,94,180.8,94.3,180.5,94.4z"/>
</g>
<g>
	<g>
		<path class="st10" d="M268.3,62.4l14.1-2.1c0.5-0.1,0.1-5.6,0.1-6.3c-0.1-2.7,0.7-5.1,1.3-7.6c1-4.1,0.3-8.4-0.4-12.6
			c-0.3-1.8-1.5-4.1-2.8-5.3c-1.9-1.8-4.6-3.2-7.3-2.8c-2.7,0.4-5.3,1.6-7.1,3.6c-2.6,2.8-2.7,7.1-2.5,10.7
			c0.2,4.7,1.6,9.2,2.6,13.7C267,56.6,267.6,59.5,268.3,62.4z"/>
		<path class="st13" d="M270.3,69.8c0.8,2.9,1.7,5.7,2.7,8.5c0.1,0.3,0.3,0.7,0.5,0.9c2.1,3.4,7,3.8,9.8,0.8
			c3.2-3.3,1.2-7.2,0.5-12.2L270.3,69.8z"/>
	</g>
	<g>
		<path class="st10" d="M319.3,33c1-4.5,2.4-9,2.6-13.7c0.2-3.6,0.1-7.9-2.5-10.7c-1.8-2-4.4-3.2-7.1-3.6c-2.7-0.4-5.4,1-7.3,2.8
			c-1.3,1.2-2.5,3.5-2.8,5.3c-0.7,4.2-1.4,8.5-0.4,12.6c0.6,2.5,1.4,4.9,1.3,7.6c0,0.7-0.4,6.2,0.1,6.3l14.1,2.1
			C318,38.8,318.6,35.9,319.3,33z"/>
		<path class="st13" d="M301.7,47.1c-0.7,5-2.7,8.9,0.5,12.2c2.8,3,7.7,2.6,9.8-0.8c0.2-0.2,0.4-0.6,0.5-0.9c1-2.8,1.9-5.6,2.7-8.5
			L301.7,47.1z"/>
	</g>
</g>
<g>
	<path class="st14" d="M12.3,11.4H2.8c-0.2,0-0.3-0.1-0.3-0.3l0,0c0-0.2,0.1-0.3,0.3-0.3h9.5V11.4z"/>
	<path class="st14" d="M30.1,11.4h9.4c0.2,0,0.3-0.1,0.3-0.3l0,0c0-0.2-0.1-0.3-0.3-0.3h-9.4V11.4z"/>
	<circle class="st9" cx="21.1" cy="11.4" r="8.9"/>
	<circle class="st11" cx="21.1" cy="11.4" r="3.2"/>
	<path class="st9" d="M20.6,52.9H22c1.8,0,3.6,0.4,5.2,1v-6.5c0-3.2-2.6-5.9-5.9-5.9s-5.9,2.6-5.9,5.9v6.5
		C17,53.2,18.8,52.9,20.6,52.9z"/>
	<path class="st9" d="M22,52.9h-1.4c-1.4,0-2.8,0.2-4,0.6v16.1c0,2,1.6,3.6,3.6,3.6h2.3c2,0,3.6-1.6,3.6-3.6V53.5
		C24.8,53.1,23.4,52.9,22,52.9z"/>
	<path class="st9" d="M21.3,29.1L21.3,29.1c-1.1,0-2-0.9-2-2v-5c0-1.1,0.9-2,2-2l0,0c1.1,0,2,0.9,2,2v5
		C23.3,28.2,22.4,29.1,21.3,29.1z"/>
	<path class="st9" d="M26.1,53.5v7.6h6.4c1.9,0,3.5-1.6,3.5-3.5V34.7c0-6.1-4.9-11-11-11h-1.8v-1.5c0-1.1-0.9-2-2-2
		c-1.1,0-2,0.9-2,2v1.5h-1.8c-6.1,0-11,4.9-11,11v22.9c0,1.9,1.6,3.5,3.5,3.5h6.7v-7.6"/>
</g>
<g>
	<path class="st9" d="M-69.5,38.8c0,5-1.7,9.6-4.5,12.9c-2.8,3.3-6.7,5.4-10.9,5.4l-72.8,0.2c-8.5,0-15.5-8.2-15.6-18.2
		c0-5,1.7-9.6,4.5-12.9s6.7-5.4,10.9-5.4h4.6V7.1c0-10,6.9-18.3,15.5-18.3l32.6-0.1c8.5,0,15.5,8.2,15.6,18.2v13.7h4.6
		C-76.5,20.6-69.5,28.8-69.5,38.8z"/>
	<path class="st9" d="M-151.8,40.8h-9.7c-1.1,0-1.9-0.9-1.9-1.9l0,0c0-1.1,0.9-1.9,1.9-1.9h9.7c1.1,0,1.9,0.9,1.9,1.9l0,0
		C-149.9,39.9-150.7,40.8-151.8,40.8z"/>
	<path class="st9" d="M-82.9,40.8h-9.7c-1.1,0-1.9-0.9-1.9-1.9l0,0c0-1.1,0.9-1.9,1.9-1.9h9.7c1.1,0,1.9,0.9,1.9,1.9l0,0
		C-81,39.9-81.9,40.8-82.9,40.8z"/>
	<path class="st9" d="M-161.3,57.2v6.3c0,3.3,2.7,6,6,6h2.1c3.3,0,6-2.7,6-6v-6.3H-161.3z"/>
	<path class="st9" d="M-97.2,57.2v6.3c0,3.3,2.7,6,6,6h2.1c3.3,0,6-2.7,6-6v-6.3H-97.2z"/>
	<path class="st9" d="M-109.4,0.4H-135c-4.3,0-7.7,3.4-7.7,7.7v11.4h41V8.1C-101.8,3.8-105.1,0.4-109.4,0.4z"/>
	<path class="st9" d="M-114.5,48.1h-16.1c-1.1,0-1.9-0.9-1.9-1.9v0c0-1.1,0.9-1.9,1.9-1.9h16.1c1.1,0,1.9,0.9,1.9,1.9v0
		C-112.6,47.3-113.4,48.1-114.5,48.1z"/>
</g>
</svg>
