<?xml version="1.0" encoding="utf-8"?>
<!-- Generator: Adobe Illustrator 22.0.1, SVG Export Plug-In . SVG Version: 6.00 Build 0)  -->
<svg version="1.1" id="Layer_1" xmlns="http://www.w3.org/2000/svg" xmlns:xlink="http://www.w3.org/1999/xlink" x="0px" y="0px"
	 viewBox="0 0 87.3 120.3" style="enable-background:new 0 0 87.3 120.3;" xml:space="preserve">
<style type="text/css">
	.st0{display:none;}
	.st1{display:inline;fill:#B0B0D1;}
	.st2{display:inline;opacity:0.65;fill:#F9F9FA;enable-background:new    ;}
	.st3{display:inline;fill:#FFFFFF;}
	.st4{display:inline;fill:url(#SVGID_1_);}
	.st5{display:inline;fill:#DDDDDD;}
	.st6{display:inline;fill:#F7F7F7;}
	.st7{display:inline;}
	.st8{opacity:0.6;fill:#F4F4F5;enable-background:new    ;}
	.st9{fill:none;stroke:#FFFFFF;stroke-width:5;stroke-miterlimit:10;}
	.st10{fill:none;stroke:#FFFFFF;stroke-width:5;stroke-linejoin:round;stroke-miterlimit:10;}
	.st11{fill:#FFFFFF;}
	.st12{fill:none;stroke:#FFFFFF;stroke-width:3;stroke-miterlimit:10;}
	.st13{fill:none;stroke:#FFFFFF;stroke-width:5;stroke-linecap:round;stroke-linejoin:round;stroke-miterlimit:10;}
	.st14{fill:#FFFFFF;stroke:#FFFFFF;stroke-width:5;stroke-miterlimit:10;}
</style>
<g id="Layer_1_1_" class="st0">
	<rect x="-179" y="-106.5" class="st1" width="398.1" height="398.1"/>
	<path class="st2" d="M157.9,43.3c-2.3-11.7-10.8-20.4-21-20.4h-35.2V-9.4c0-11.7-9.5-21.2-21.2-21.2H-68.4
		c-11.7,0-21.2,9.5-21.2,21.2v227.7c0,11.7,9.5,21.2,21.2,21.2H80.4c11.7,0,21.2-9.5,21.2-21.2v-45.5h35.2
		c10.7,0,19.6-9.6,21.3-22.2c0.2-1.1,0.3-2.2,0.3-3.4V48C158.4,46.3,158.2,44.7,157.9,43.3z M137.1,136c0,7.3-4.8,13.3-10.8,13.3
		h-24.7V45.4h24.7c6,0,10.8,5.9,10.8,13.3V136z"/>
	<circle class="st3" cx="-38.5" cy="2.1" r="6.2"/>
	
		<linearGradient id="SVGID_1_" gradientUnits="userSpaceOnUse" x1="5.952" y1="121.7" x2="5.952" y2="-102.5216" gradientTransform="matrix(1 0 0 -1 0 123.8)">
		<stop  offset="0" style="stop-color:#FFCC4C"/>
		<stop  offset="1" style="stop-color:#FEBF4B"/>
	</linearGradient>
	<path class="st4" d="M73,227.1H-61c-7.5,0-13.6-6.1-13.6-13.6V15.7c0-7.5,6.1-13.6,13.6-13.6H73c7.5,0,13.6,6.1,13.6,13.6v197.9
		C86.6,221,80.5,227.1,73,227.1z"/>
	<circle class="st5" cx="-51.9" cy="-4" r="33"/>
	<circle class="st5" cx="-16.2" cy="-13.7" r="23.4"/>
	<circle class="st5" cx="18.7" cy="-3.7" r="23.4"/>
	<circle class="st5" cx="68.3" cy="-8.6" r="28.2"/>
	<circle class="st6" cx="18.7" cy="-12.8" r="23.4"/>
	<circle class="st6" cx="40.1" cy="-22.8" r="11.7"/>
	<path class="st6" d="M-39.6-22.8c0-1.5,0.1-2.9,0.4-4.3h-42.6c-2,4.2-3.1,9-3.1,14c0,18.2,14.8,33,33,33c13.6,0,25.2-8.2,30.3-19.9
		C-31.9-2.5-39.6-11.7-39.6-22.8z"/>
	<path class="st6" d="M-18.9-13.1c0,4.6-1,9.1-2.7,13.1c1.7,0.4,3.5,0.6,5.4,0.6C-3.3,0.6,7.2-9.9,7.2-22.8c0-1.5-0.1-2.9-0.4-4.3
		H-22C-20-22.9-18.9-18.1-18.9-13.1z"/>
	<path class="st6" d="M-22-27.1h-17.2c-0.3,1.4-0.4,2.8-0.4,4.3c0,11.1,7.7,20.3,18,22.7c1.7-4,2.7-8.4,2.7-13.1
		C-18.9-18.1-20-22.9-22-27.1z"/>
	<path class="st6" d="M94.8-27.1H41.7c-1.1,3-1.6,6.1-1.6,9.5c0,15.6,12.6,28.2,28.2,28.2S96.5-2,96.5-17.6
		C96.5-21,95.9-24.1,94.8-27.1z"/>
	<path class="st6" d="M99.5-21.7c0,0-0.1-0.1-0.2-0.2C99.3-21.9,99.3-21.8,99.5-21.7L99.5-21.7z"/>
	<path class="st6" d="M94.8-27.1H-22c-2.4-5-5.9-9.3-10.3-12.6c-3.5,3.3-6,7.7-6.9,12.6h-42.6c0.5-1.1,1.1-2.2,1.8-3.3
		c4.2-4.6,12.7-12.3,22.7-12.3h55.4c0,0,6.7,0,16,0h55.4c13.2,0,23.9,13.4,25.3,15.3C94.8-27.3,94.8-27.2,94.8-27.1z"/>
	<path class="st6" d="M-39.2-27.1H-22c-2.3-5-5.9-9.3-10.3-12.6C-35.8-36.4-38.3-32-39.2-27.1z"/>
	<g class="st7">
		<path class="st8" d="M-43.6,195.3L-43.6,195.3c-6,0-10.8-4.8-10.8-10.8v-134c0-6,4.8-10.8,10.8-10.8l0,0c6,0,10.8,4.8,10.8,10.8
			v134C-32.8,190.5-37.7,195.3-43.6,195.3z"/>
		<path class="st8" d="M6.6,195.3L6.6,195.3c-6,0-10.8-4.8-10.8-10.8v-134c0-6,4.8-10.8,10.8-10.8l0,0c6,0,10.8,4.8,10.8,10.8v134
			C17.4,190.5,12.6,195.3,6.6,195.3z"/>
		<path class="st8" d="M55.7,192L55.7,192c-6,0-10.8-4.8-10.8-10.8v-134c0-6,4.8-10.8,10.8-10.8l0,0c6,0,10.8,4.8,10.8,10.8v134
			C66.5,187.2,61.6,192,55.7,192z"/>
	</g>
</g>
<g>
	<path class="st9" d="M72.2,84.7H15.1c-6.9,0-12.5-5.6-12.5-12.5V35.5c0-18.2,14.8-33,33-33h16.2c18.2,0,33,14.8,33,33v36.6
		C84.7,79,79.1,84.7,72.2,84.7z"/>
	<rect x="2.5" y="33.3" class="st10" width="82.2" height="26.1"/>
	<circle class="st9" cx="15.3" cy="71.4" r="4.5"/>
	<circle class="st9" cx="74.4" cy="71.4" r="4.5"/>
	<path class="st9" d="M68,91.2H19.7c-1.1,0-1.9-1.5-1.9-3.2l0,0c0-1.9,0.9-3.2,1.9-3.2H68c1.1,0,1.9,1.5,1.9,3.2l0,0
		C69.9,89.8,69,91.2,68,91.2z"/>
	<path class="st11" d="M55.9,67.7H33.8c-0.3,0-0.6,0.3-0.6,0.6l0,0c0,0.3,0.3,0.6,0.6,0.6h22.1c0.3,0,0.6-0.3,0.6-0.6l0,0
		C56.5,68,56.2,67.7,55.9,67.7z"/>
	<path class="st11" d="M55.9,70.1H33.8c-0.3,0-0.6,0.3-0.6,0.6l0,0c0,0.3,0.3,0.6,0.6,0.6h22.1c0.3,0,0.6-0.3,0.6-0.6l0,0
		C56.5,70.3,56.2,70.1,55.9,70.1z"/>
	<path class="st11" d="M55.9,72.7H33.8c-0.3,0-0.6,0.3-0.6,0.6l0,0c0,0.3,0.3,0.6,0.6,0.6h22.1c0.3,0,0.6-0.3,0.6-0.6l0,0
		C56.5,73,56.2,72.7,55.9,72.7z"/>
	<path class="st9" d="M23.5,117.8L23.5,117.8c0.3,0.1,0.6,0,0.7-0.3l5.7-15.4c0.1-0.3,0-0.6-0.3-0.7l0,0c-0.3-0.1-0.6,0-0.7,0.3
		l-5.7,15.4C23,117.4,23.2,117.7,23.5,117.8z"/>
	<path class="st12" d="M27,109.4h33.4"/>
	<path class="st12" d="M25.3,116.1h36.7"/>
	<path class="st12" d="M57.4,102.7H29.9"/>
	<path class="st9" d="M63.8,117.8L63.8,117.8c-0.3,0.1-0.6,0-0.7-0.3l-5.7-15.4c-0.1-0.3,0-0.6,0.3-0.7l0,0c0.3-0.1,0.6,0,0.7,0.3
		l5.7,15.4C64.3,117.4,64.1,117.7,63.8,117.8z"/>
</g>
<g>
	<g>
		<path class="st10" d="M151.6,85.8l14.1-2.1c0.5-0.1,0.1-5.6,0.1-6.3c-0.1-2.7,0.7-5.1,1.3-7.6c1-4.1,0.3-8.4-0.4-12.6
			c-0.3-1.8-1.5-4.1-2.8-5.3c-1.9-1.8-4.6-3.2-7.3-2.8c-2.7,0.4-5.3,1.6-7.1,3.6c-2.6,2.8-2.7,7.1-2.5,10.7
			c0.2,4.7,1.6,9.2,2.6,13.7C150.3,80,150.9,82.9,151.6,85.8z"/>
		<path class="st13" d="M153.6,93.2c0.8,2.9,1.7,5.7,2.7,8.5c0.1,0.3,0.3,0.7,0.5,0.9c2.1,3.4,7,3.8,9.8,0.8
			c3.2-3.3,1.2-7.2,0.5-12.2L153.6,93.2z"/>
	</g>
	<g>
		<path class="st10" d="M202.6,56.4c1-4.5,2.4-9,2.6-13.7c0.2-3.6,0.1-7.9-2.5-10.7c-1.8-2-4.4-3.2-7.1-3.6c-2.7-0.4-5.4,1-7.3,2.8
			c-1.3,1.2-2.5,3.5-2.8,5.3c-0.7,4.2-1.4,8.5-0.4,12.6c0.6,2.5,1.4,4.9,1.3,7.6c0,0.7-0.4,6.2,0.1,6.3l14.1,2.1
			C201.3,62.2,201.9,59.3,202.6,56.4z"/>
		<path class="st13" d="M185,70.5c-0.7,5-2.7,8.9,0.5,12.2c2.8,3,7.7,2.6,9.8-0.8c0.2-0.2,0.4-0.6,0.5-0.9c1-2.8,1.9-5.6,2.7-8.5
			L185,70.5z"/>
	</g>
</g>
<g>
	<path class="st14" d="M-104.4,34.8h-9.5c-0.2,0-0.3-0.1-0.3-0.3l0,0c0-0.2,0.1-0.3,0.3-0.3h9.5V34.8z"/>
	<path class="st14" d="M-86.6,34.8h9.4c0.2,0,0.3-0.1,0.3-0.3l0,0c0-0.2-0.1-0.3-0.3-0.3h-9.4V34.8z"/>
	<circle class="st9" cx="-95.6" cy="34.8" r="8.9"/>
	<circle class="st11" cx="-95.6" cy="34.8" r="3.2"/>
	<path class="st9" d="M-96.1,76.3h1.4c1.8,0,3.6,0.4,5.2,1v-6.5c0-3.2-2.6-5.9-5.9-5.9c-3.3,0-5.9,2.6-5.9,5.9v6.5
		C-99.7,76.6-97.9,76.3-96.1,76.3z"/>
	<path class="st9" d="M-94.7,76.3h-1.4c-1.4,0-2.8,0.2-4,0.6V93c0,2,1.6,3.6,3.6,3.6h2.3c2,0,3.6-1.6,3.6-3.6V76.9
		C-91.9,76.5-93.3,76.3-94.7,76.3z"/>
	<path class="st9" d="M-95.4,52.5L-95.4,52.5c-1.1,0-2-0.9-2-2v-5c0-1.1,0.9-2,2-2l0,0c1.1,0,2,0.9,2,2v5
		C-93.4,51.6-94.3,52.5-95.4,52.5z"/>
	<path class="st9" d="M-90.6,76.9v7.6h6.4c1.9,0,3.5-1.6,3.5-3.5V58.1c0-6.1-4.9-11-11-11h-1.8v-1.5c0-1.1-0.9-2-2-2
		c-1.1,0-2,0.9-2,2v1.5h-1.8c-6.1,0-11,4.9-11,11V81c0,1.9,1.6,3.5,3.5,3.5h6.7v-7.6"/>
</g>
<g>
	<path class="st9" d="M-186.2,62.2c0,5-1.7,9.6-4.5,12.9s-6.7,5.4-10.9,5.4l-72.8,0.2c-8.5,0-15.5-8.2-15.6-18.2
		c0-5,1.7-9.6,4.5-12.9c2.8-3.3,6.7-5.4,10.9-5.4h4.6V30.5c0-10,6.9-18.3,15.5-18.3l32.6-0.1c8.5,0,15.5,8.2,15.6,18.2V44h4.6
		C-193.2,44-186.2,52.2-186.2,62.2z"/>
	<path class="st9" d="M-268.5,64.2h-9.7c-1.1,0-1.9-0.9-1.9-1.9l0,0c0-1.1,0.9-1.9,1.9-1.9h9.7c1.1,0,1.9,0.9,1.9,1.9l0,0
		C-266.6,63.3-267.4,64.2-268.5,64.2z"/>
	<path class="st9" d="M-199.6,64.2h-9.7c-1.1,0-1.9-0.9-1.9-1.9l0,0c0-1.1,0.9-1.9,1.9-1.9h9.7c1.1,0,1.9,0.9,1.9,1.9l0,0
		C-197.7,63.3-198.6,64.2-199.6,64.2z"/>
	<path class="st9" d="M-278,80.6v6.3c0,3.3,2.7,6,6,6h2.1c3.3,0,6-2.7,6-6v-6.3H-278z"/>
	<path class="st9" d="M-213.9,80.6v6.3c0,3.3,2.7,6,6,6h2.1c3.3,0,6-2.7,6-6v-6.3H-213.9z"/>
	<path class="st9" d="M-226.1,23.8h-25.7c-4.3,0-7.7,3.4-7.7,7.7v11.4h41V31.5C-218.5,27.2-221.8,23.8-226.1,23.8z"/>
	<path class="st9" d="M-231.2,71.5h-16.1c-1.1,0-1.9-0.9-1.9-1.9v0c0-1.1,0.9-1.9,1.9-1.9h16.1c1.1,0,1.9,0.9,1.9,1.9v0
		C-229.3,70.7-230.1,71.5-231.2,71.5z"/>
</g>
</svg>
