<?xml version="1.0" encoding="utf-8"?>
<!-- Generator: Adobe Illustrator 22.0.1, SVG Export Plug-In . SVG Version: 6.00 Build 0)  -->
<svg version="1.1" xmlns="http://www.w3.org/2000/svg" xmlns:xlink="http://www.w3.org/1999/xlink" x="0px" y="0px"
	 viewBox="0 0 98.7 101.8" style="enable-background:new 0 0 98.7 101.8;" xml:space="preserve">
<style type="text/css">
	.st0{fill:url(#SVGID_1_);}
	.st1{opacity:0.3;fill:#757576;}
	.st2{fill:#54A5D3;}
	.st3{fill:#392812;}
	.st4{fill:#F1BAA5;}
	.st5{opacity:0.5;fill:#D28B6B;}
	.st6{fill:#8A2727;}
	.st7{fill:#B63030;}
	.st8{fill:#FFFFFF;}
	.st9{fill:#193058;}
	.st10{fill:#EAEAEA;}
	.st11{fill:#C54E3C;}
	.st12{fill:none;stroke:#392812;stroke-linecap:round;stroke-miterlimit:10;}
	.st13{opacity:0.35;fill:none;stroke:#FFFFFF;stroke-linecap:round;stroke-miterlimit:10;}
	.st14{fill:#2278B3;}
	.st15{fill:url(#SVGID_2_);}
	.st16{fill:#C49374;}
	.st17{opacity:0.45;fill:#925F43;}
	.st18{fill:#CE7167;}
	.st19{fill:#AA554C;}
	.st20{opacity:0.61;fill:url(#SVGID_3_);stroke:#D3897F;stroke-linecap:round;stroke-miterlimit:10;}
	.st21{opacity:0.61;fill:none;stroke:#D3897F;stroke-linecap:round;stroke-miterlimit:10;}
	.st22{fill:#D3897F;}
	.st23{fill:#E24345;}
	.st24{opacity:0.7011;fill:url(#SVGID_4_);}
	.st25{opacity:0.7011;fill:url(#SVGID_5_);}
	.st26{fill:none;stroke:#392812;stroke-linecap:round;stroke-linejoin:round;stroke-miterlimit:10;}
	.st27{opacity:0.7011;fill:url(#SVGID_6_);}
	.st28{fill:#CC6B28;}
	.st29{fill:#EE9854;}
	.st30{fill:#7C131C;}
	.st31{fill:#EF4545;}
</style>
<g id="Layer_1">
	<linearGradient id="SVGID_1_" gradientUnits="userSpaceOnUse" x1="178.1577" y1="-123.305" x2="178.1577" y2="-49.7822">
		<stop  offset="0" style="stop-color:#DE9784"/>
		<stop  offset="1" style="stop-color:#C97872;stop-opacity:0.88"/>
		<stop  offset="1" style="stop-color:#C07167"/>
	</linearGradient>
	<path class="st0" d="M206.3-89.5c1.2-1.3,1.9-3,1.9-4.8v-21.3c0-4.3-3.6-7.7-8-7.7h-22.1h-22.1c-4.4,0-8,3.5-8,7.7v21.3
		c0,1.8,0.7,3.5,1.9,4.8c1.1,1.2,2,2.6,2,4.1v12.9c0,1.7-0.6,3.4-1.8,4.7c0,0,0,0-0.1,0.1c-1.2,1.3-2,3-2,4.8v5.4
		c0,4.3,3.6,7.7,8,7.7h22.1h22.1c4.4,0,8-3.5,8-7.7v-5.4c0-1.8-0.8-3.5-2-4.8c0,0,0,0-0.1-0.1c-1.2-1.3-1.8-3-1.8-4.7v-12.9
		C204.3-86.8,205.2-88.3,206.3-89.5z"/>
	<path class="st1" d="M63.6-179.6H17c-1,0-1.8-0.8-1.8-1.8v-1.2c0-1,0.8-1.8,1.8-1.8h46.5c1,0,1.8,0.8,1.8,1.8v1.2
		C65.4-180.4,64.6-179.6,63.6-179.6z"/>
	<path class="st2" d="M40.2-263.7c-8.3,0-15.1,5.2-15.1,11.7h30.2C55.3-258.5,48.5-263.7,40.2-263.7z"/>
	<path class="st3" d="M43.1-290.8v-13.8c0-4.5,3.7-8.2,8.2-8.2h0c4.5,0,8.2,3.7,8.2,8.2v13.8c0,4.5-3.7,8.2-8.2,8.2h0
		C46.8-282.5,43.1-286.2,43.1-290.8z"/>
	<path class="st3" d="M20.8-290.8v-13.8c0-4.5,3.7-8.2,8.2-8.2h0c4.5,0,8.2,3.7,8.2,8.2v13.8c0,4.5-3.7,8.2-8.2,8.2h0
		C24.5-282.5,20.8-286.2,20.8-290.8z"/>
	<path class="st4" d="M40.2-258.3L40.2-258.3c-2,0-3.5-1.6-3.5-3.5v-6.6c0-2,1.6-3.5,3.5-3.5h0c2,0,3.5,1.6,3.5,3.5v6.6
		C43.7-259.9,42.2-258.3,40.2-258.3z"/>
	<path class="st5" d="M40.2-272L40.2-272c-2,0-3.5,1.6-3.5,3.5v2.9c1.1,0.3,2.3,0.4,3.5,0.4h0c1.2,0,2.4-0.2,3.5-0.4v-2.9
		C43.7-270.5,42.2-272,40.2-272z"/>
	<path class="st4" d="M40.2-266.4L40.2-266.4c-8.3,0-15.1-6.8-15.1-15.1v-19.6c0-8.3,6.8-15.1,15.1-15.1h0c8.3,0,15.1,6.8,15.1,15.1
		v19.6C55.3-273.2,48.5-266.4,40.2-266.4z"/>
	<path class="st3" d="M47.6-295.6H32.8c-5,0-9.1-4.1-9.1-9.1v-4.3c0-5,4.1-9.1,9.1-9.1h14.8c5,0,9.1,4.1,9.1,9.1v4.3
		C56.7-299.7,52.6-295.6,47.6-295.6z"/>
	<path class="st3" d="M31.6-287.8L31.6-287.8c-0.5,0-0.9-0.4-0.9-0.9v-2.8c0-0.5,0.4-0.9,0.9-0.9h0c0.5,0,0.9,0.4,0.9,0.9v2.8
		C32.4-288.1,32.1-287.8,31.6-287.8z"/>
	<path class="st3" d="M49.6-287.8L49.6-287.8c-0.5,0-0.9-0.4-0.9-0.9v-2.8c0-0.5,0.4-0.9,0.9-0.9l0,0c0.5,0,0.9,0.4,0.9,0.9v2.8
		C50.4-288.1,50-287.8,49.6-287.8z"/>
	<g>
		<path class="st6" d="M37.1-279c0.8-0.8,1.9-1.2,3.1-1.2s2.3,0.5,3.1,1.2c0.8-0.7,1.3-1.7,1.5-2.8h-9.2
			C35.8-280.7,36.3-279.7,37.1-279z"/>
		<path class="st7" d="M37.1-279c0.8,0.8,1.9,1.2,3.1,1.2s2.3-0.5,3.1-1.2c-0.8-0.8-1.9-1.2-3.1-1.2S37.9-279.7,37.1-279z"/>
		<path class="st8" d="M44.8-282.5h-9.2c0,0.1,0,0.2,0,0.3c0,0.1,0,0.3,0.1,0.4h9.2c0-0.1,0.1-0.3,0.1-0.4
			C44.8-282.3,44.8-282.4,44.8-282.5z"/>
	</g>
	<path class="st9" d="M40.2-219.1L40.2-219.1c5.5,0,10-4.4,11-10.1H29.3C30.2-223.4,34.8-219.1,40.2-219.1z"/>
	<rect x="32.2" y="-228" class="st9" width="4.3" height="40.5"/>
	<rect x="43.9" y="-228" class="st9" width="4.3" height="40.5"/>
	<path class="st4" d="M29.3-225.7L29.3-225.7c-2.3,0-4.1-1.9-4.1-4.1v-22.2h4.1V-225.7z"/>
	<path class="st4" d="M51.2-225.7L51.2-225.7c2.3,0,4.1-1.9,4.1-4.1v-22.2h-4.1V-225.7z"/>
	<rect x="32.2" y="-187.5" class="st10" width="4.3" height="2.9"/>
	<rect x="43.9" y="-187.5" class="st10" width="4.3" height="2.9"/>
	<path class="st11" d="M37.3-183.1c0-1.6-1.3-2.9-2.9-2.9s-2.9,1.3-2.9,2.9v0.4h5.8V-183.1z"/>
	<rect x="31.5" y="-182.8" class="st8" width="5.8" height="0.8"/>
	<path class="st11" d="M48.9-183.1c0-1.6-1.3-2.9-2.9-2.9s-2.9,1.3-2.9,2.9v0.4h5.8V-183.1z"/>
	<rect x="43.1" y="-182.8" class="st8" width="5.8" height="0.8"/>
	<path class="st4" d="M175.2-255.7c-0.2,1.6-1.5,2.8-3.1,2.9c-0.1,0-0.3,0-0.4,0l-4.5-0.7l-3.4,0l-11.6-1.1
		c-1.1-0.1-2.1-0.3-2.9-0.5c-7.2-2.1-5.7-8.9-5.6-9.5c0,0,0,0,0,0l1.6-9.9c0.2-1.6,1.6-2.7,3.1-2.7c0.2,0,0.3,0,0.5,0
		c1.7,0.3,2.9,1.9,2.6,3.6l-1.3,8c0,0.1,0,0.2-0.1,0.4c-0.1,0.3-0.1,0.6-0.1,0.9v0c-0.3,2.5,0.9,3.1,1.6,3.3c0,0,0,0,0.1,0
		c0.3,0.1,0.5,0,0.5,0l20.2,2C174.1-259,175.4-257.5,175.2-255.7z"/>
	<path class="st2" d="M178.1-263.7c-8.3,0-8.1,0.1-14.4,3.7v6.4l25.3,1.5h4.1C193.2-258.5,186.4-263.7,178.1-263.7z"/>
	<path class="st4" d="M189-225.7L189-225.7c2.3,0,4.1-1.9,4.1-4.1v-22.2H189V-225.7z"/>
	<path class="st1" d="M201.4-179.6h-46.5c-1,0-1.8-0.8-1.8-1.8v-1.2c0-1,0.8-1.8,1.8-1.8h46.5c1,0,1.8,0.8,1.8,1.8v1.2
		C203.3-180.4,202.5-179.6,201.4-179.6z"/>
	<path class="st3" d="M181-290.8v-13.8c0-4.5,3.7-8.2,8.2-8.2h0c4.5,0,8.2,3.7,8.2,8.2v13.8c0,4.5-3.7,8.2-8.2,8.2h0
		C184.7-282.5,181-286.2,181-290.8z"/>
	<path class="st3" d="M158.7-290.8v-13.8c0-4.5,3.7-8.2,8.2-8.2h0c4.5,0,8.2,3.7,8.2,8.2v13.8c0,4.5-3.7,8.2-8.2,8.2h0
		C162.4-282.5,158.7-286.2,158.7-290.8z"/>
	<path class="st4" d="M178.1-258.3L178.1-258.3c-2,0-3.5-1.6-3.5-3.5v-6.6c0-2,1.6-3.5,3.5-3.5l0,0c2,0,3.5,1.6,3.5,3.5v6.6
		C181.6-259.9,180-258.3,178.1-258.3z"/>
	<path class="st5" d="M178.1-272L178.1-272c-2,0-3.5,1.6-3.5,3.5v2.9c1.1,0.3,2.3,0.4,3.5,0.4h0c1.2,0,2.4-0.2,3.5-0.4v-2.9
		C181.6-270.5,180-272,178.1-272z"/>
	<path class="st4" d="M178.1-266.4L178.1-266.4c-8.3,0-15.1-6.8-15.1-15.1v-19.6c0-8.3,6.8-15.1,15.1-15.1h0
		c8.3,0,15.1,6.8,15.1,15.1v19.6C193.2-273.2,186.4-266.4,178.1-266.4z"/>
	<path class="st3" d="M185.5-295.6h-14.8c-5,0-9.1-4.1-9.1-9.1v-4.3c0-5,4.1-9.1,9.1-9.1h14.8c5,0,9.1,4.1,9.1,9.1v4.3
		C194.6-299.7,190.5-295.6,185.5-295.6z"/>
	<path class="st3" d="M169.5-287.8L169.5-287.8c-0.5,0-0.9-0.4-0.9-0.9v-2.8c0-0.5,0.4-0.9,0.9-0.9l0,0c0.5,0,0.9,0.4,0.9,0.9v2.8
		C170.3-288.1,169.9-287.8,169.5-287.8z"/>
	<path class="st3" d="M187.4-287.8L187.4-287.8c-0.5,0-0.9-0.4-0.9-0.9v-2.8c0-0.5,0.4-0.9,0.9-0.9l0,0c0.5,0,0.9,0.4,0.9,0.9v2.8
		C188.3-288.1,187.9-287.8,187.4-287.8z"/>
	<path class="st9" d="M178.1-219.1L178.1-219.1c5.5,0,10-4.4,11-10.1h-21.9C168.1-223.4,172.6-219.1,178.1-219.1z"/>
	<rect x="170.1" y="-228" class="st9" width="4.3" height="40.5"/>
	<rect x="181.7" y="-228" class="st9" width="4.3" height="40.5"/>
	<rect x="170.1" y="-187.5" class="st10" width="4.3" height="2.9"/>
	<rect x="181.7" y="-187.5" class="st10" width="4.3" height="2.9"/>
	<path class="st11" d="M175.2-183.1c0-1.6-1.3-2.9-2.9-2.9s-2.9,1.3-2.9,2.9v0.4h5.8V-183.1z"/>
	<rect x="169.4" y="-182.8" class="st8" width="5.8" height="0.8"/>
	<path class="st11" d="M186.8-183.1c0-1.6-1.3-2.9-2.9-2.9s-2.9,1.3-2.9,2.9v0.4h5.8V-183.1z"/>
	<rect x="181" y="-182.8" class="st8" width="5.8" height="0.8"/>
	<path class="st12" d="M174.2-279.9c0.9,1.2,2.3,1.9,3.9,1.9s3-0.8,3.9-1.9"/>
	<path class="st4" d="M146.8-261.8l0.5,0C147.3-261.7,147.1-261.7,146.8-261.8z"/>
	
		<ellipse transform="matrix(7.379080e-02 -0.9973 0.9973 7.379080e-02 404.8148 -83.9452)" class="st4" cx="157.2" cy="-259.9" rx="3.9" ry="4.5"/>
	<path class="st13" d="M158.4-262.2c1.1,0.1,1.9,0.9,1.8,1.8"/>
	<g>
		<path class="st4" d="M284.8-225.7L284.8-225.7c-2.3,0-4.1-1.9-4.1-4.1v-19.8h4.1V-225.7z"/>
		<path class="st4" d="M306.7-225.7L306.7-225.7c2.3,0,4.1-1.9,4.1-4.1v-19.8h-4.1V-225.7z"/>
		<path class="st2" d="M300.4-253.3h-9c-1.8,0-3.3-1.5-3.3-3.3v-1.5c0-1.8,1.5-3.3,3.3-3.3h9c1.8,0,3.3,1.5,3.3,3.3v1.5
			C303.7-254.8,302.2-253.3,300.4-253.3z"/>
		<path class="st1" d="M319.1-179.6h-46.5c-1,0-1.8-0.8-1.8-1.8v-1.2c0-1,0.8-1.8,1.8-1.8h46.5c1,0,1.8,0.8,1.8,1.8v1.2
			C321-180.4,320.1-179.6,319.1-179.6z"/>
		<path class="st2" d="M295.8-260.4c-8.3,0-15.1,4.8-15.1,10.8h30.2C310.9-255.6,304.1-260.4,295.8-260.4z"/>
		<path class="st14" d="M295.8-219.1L295.8-219.1c-6,0-11-4.9-11-11v-17.4c0-6,4.9-11,11-11h0c6,0,11,4.9,11,11v17.4
			C306.7-224,301.8-219.1,295.8-219.1z"/>
		<path class="st3" d="M298.7-284.7v-13.8c0-4.5,3.7-8.2,8.2-8.2h0c4.5,0,8.2,3.7,8.2,8.2v13.8c0,4.5-3.7,8.2-8.2,8.2h0
			C302.4-276.5,298.7-280.2,298.7-284.7z"/>
		<path class="st3" d="M276.4-284.7v-13.8c0-4.5,3.7-8.2,8.2-8.2h0c4.5,0,8.2,3.7,8.2,8.2v13.8c0,4.5-3.7,8.2-8.2,8.2h0
			C280.1-276.5,276.4-280.2,276.4-284.7z"/>
		<path class="st14" d="M298.3-254.1H293c-1.8,0-3.3-1.5-3.3-3.3l0,0c0-1.8,1.5-3.3,3.3-3.3h5.3c1.8,0,3.3,1.5,3.3,3.3l0,0
			C301.6-255.5,300.1-254.1,298.3-254.1z"/>
		<path class="st4" d="M295.8-252.3L295.8-252.3c-2,0-3.5-1.6-3.5-3.5v-6.6c0-2,1.6-3.5,3.5-3.5l0,0c2,0,3.5,1.6,3.5,3.5v6.6
			C299.3-253.9,297.7-252.3,295.8-252.3z"/>
		<path class="st5" d="M295.8-266L295.8-266c-2,0-3.5,1.6-3.5,3.5v2.9c1.1,0.3,2.3,0.4,3.5,0.4h0c1.2,0,2.4-0.2,3.5-0.4v-2.9
			C299.3-264.4,297.7-266,295.8-266z"/>
		<path class="st4" d="M295.8-260.4L295.8-260.4c-8.3,0-15.1-6.8-15.1-15.1v-19.6c0-8.3,6.8-15.1,15.1-15.1h0
			c8.3,0,15.1,6.8,15.1,15.1v19.6C310.9-267.1,304.1-260.4,295.8-260.4z"/>
		<path class="st3" d="M303.2-289.6h-14.8c-5,0-9.1-4.1-9.1-9.1v-4.3c0-5,4.1-9.1,9.1-9.1h14.8c5,0,9.1,4.1,9.1,9.1v4.3
			C312.3-293.7,308.2-289.6,303.2-289.6z"/>
		<path class="st9" d="M295.8-219.1L295.8-219.1c5.5,0,10-4.4,11-10.1h-21.9C285.8-223.4,290.3-219.1,295.8-219.1z"/>
		<rect x="287.8" y="-187.5" class="st10" width="4.3" height="2.9"/>
		<rect x="299.4" y="-187.5" class="st10" width="4.3" height="2.9"/>
		<path class="st11" d="M292.9-183.1c0-1.6-1.3-2.9-2.9-2.9s-2.9,1.3-2.9,2.9v0.4h5.8V-183.1z"/>
		<rect x="287.1" y="-182.8" class="st8" width="5.8" height="0.8"/>
		<path class="st11" d="M304.5-183.1c0-1.6-1.3-2.9-2.9-2.9s-2.9,1.3-2.9,2.9v0.4h5.8V-183.1z"/>
		<rect x="298.7" y="-182.8" class="st8" width="5.8" height="0.8"/>
		<linearGradient id="SVGID_2_" gradientUnits="userSpaceOnUse" x1="296.8342" y1="-276.7325" x2="296.8342" y2="-273.8625">
			<stop  offset="0" style="stop-color:#309FBC"/>
			<stop  offset="1" style="stop-color:#71C493"/>
		</linearGradient>
		<path class="st15" d="M297.7-276.5v2.1c0,0.3-0.2,0.5-0.5,0.5c-0.3,0-0.5-0.2-0.5-0.5v-1.5c0,0.2-0.2,0.4-0.4,0.4
			c-0.2,0-0.4-0.2-0.4-0.4v-0.5c0-0.2,0.2-0.4,0.4-0.4h0.4v0.3H297.7z"/>
		<path class="st12" d="M299.5-275c-0.9-1.2-2.3-1.9-3.9-1.9s-3,0.8-3.9,1.9"/>
		<path class="st9" d="M287.8-222.8h4.3c0,0-3.7,7.6-4,16.5c-0.3,8.9,4,18.8,4,18.8h-4.6c0,0-4.5-12.1-4-18.8
			C283.9-213.1,287.8-222.8,287.8-222.8z"/>
		<path class="st9" d="M303.7-222.8h-4.3c0,0,3.7,7.6,4,16.5c0.3,8.9-4,18.8-4,18.8h4.6c0,0,4.5-12.1,4-18.8
			C307.6-213.1,303.7-222.8,303.7-222.8z"/>
		<path class="st3" d="M286.3-284v1.5c0,0.5,0.4,0.9,0.9,0.9s0.9-0.4,0.9-0.9v-1.9L286.3-284z"/>
		<path class="st3" d="M306-284v1.5c0,0.5-0.4,0.9-0.9,0.9s-0.9-0.4-0.9-0.9v-1.9L306-284z"/>
	</g>
	<path class="st14" d="M189-229.2v-23.3c0-6.2-4.9-11.3-11-11.3h0c-6,0-11,5-11,11.3v23.3H189z"/>
	<path class="st14" d="M51.2-229.2v-23.3c0-6.2-4.9-11.3-11-11.3s-11,5-11,11.3v23.3H51.2z"/>
	<path class="st4" d="M65.4-49.8H20.8c-4.3,0-7.7-3.5-7.7-7.7v-58.1c0-4.3,3.5-7.7,7.7-7.7h44.7c4.3,0,7.7,3.5,7.7,7.7v58.1
		C73.1-53.2,69.7-49.8,65.4-49.8z"/>
	<path class="st16" d="M43.1-65.7c0.4,0,0.7,0.5,0.7,1.2c0-0.1,0-0.2,0-0.3c0-0.9-0.3-1.6-0.7-1.6s-0.7,0.7-0.7,1.6
		c0,0.1,0,0.2,0,0.3C42.4-65.2,42.7-65.7,43.1-65.7z"/>
	<ellipse class="st17" cx="43.1" cy="-63.7" rx="0.5" ry="1.5"/>
	<path class="st4" d="M317.5-49.8h-44.7c-4.3,0-7.7-3.5-7.7-7.7v-58.1c0-4.3,3.5-7.7,7.7-7.7h44.7c4.3,0,7.7,3.5,7.7,7.7v58.1
		C325.2-53.2,321.8-49.8,317.5-49.8z"/>
	<path class="st18" d="M178.2-65.7c0.4,0,0.7,0.5,0.7,1.2c0-0.1,0-0.2,0-0.3c0-0.9-0.3-1.6-0.7-1.6s-0.7,0.7-0.7,1.6
		c0,0.1,0,0.2,0,0.3C177.5-65.2,177.8-65.7,178.2-65.7z"/>
	<ellipse class="st19" cx="178.2" cy="-63.7" rx="0.5" ry="1.5"/>
	<path class="st4" d="M174.2-67.3h-11.7c-1.7,0-3.1-1.4-3.1-3.1v-0.5c0-1.7,1.4-3.1,3.1-3.1h11.7c1.7,0,3.1,1.4,3.1,3.1v0.5
		C177.2-68.6,175.9-67.3,174.2-67.3z"/>
	<path class="st4" d="M193.9-67.3h-11.7c-1.7,0-3.1-1.4-3.1-3.1v-0.5c0-1.7,1.4-3.1,3.1-3.1h11.7c1.7,0,3.1,1.4,3.1,3.1v0.5
		C197-68.6,195.6-67.3,193.9-67.3z"/>
	<path class="st4" d="M174.2-75.3h-11.7c-1.7,0-3.1-1.4-3.1-3.1v-0.5c0-1.7,1.4-3.1,3.1-3.1h11.7c1.7,0,3.1,1.4,3.1,3.1v0.5
		C177.2-76.6,175.9-75.3,174.2-75.3z"/>
	<path class="st4" d="M193.9-75.3h-11.7c-1.7,0-3.1-1.4-3.1-3.1v-0.5c0-1.7,1.4-3.1,3.1-3.1h11.7c1.7,0,3.1,1.4,3.1,3.1v0.5
		C197-76.6,195.6-75.3,193.9-75.3z"/>
	<path class="st4" d="M174.2-83.3h-11.7c-1.7,0-3.1-1.4-3.1-3.1v-0.5c0-1.7,1.4-3.1,3.1-3.1h11.7c1.7,0,3.1,1.4,3.1,3.1v0.5
		C177.2-84.7,175.9-83.3,174.2-83.3z"/>
	<path class="st4" d="M193.9-83.3h-11.7c-1.7,0-3.1-1.4-3.1-3.1v-0.5c0-1.7,1.4-3.1,3.1-3.1h11.7c1.7,0,3.1,1.4,3.1,3.1v0.5
		C197-84.7,195.6-83.3,193.9-83.3z"/>
	<path class="st4" d="M173-98.1h-18.8c-2.4,0-4.4-2-4.4-4.4v-12.1c0-2.4,2-4.4,4.4-4.4H173c2.4,0,4.4,2,4.4,4.4v12.1
		C177.4-100.1,175.4-98.1,173-98.1z"/>
	<path class="st4" d="M202.1-98.1h-18.8c-2.4,0-4.4-2-4.4-4.4v-12.1c0-2.4,2-4.4,4.4-4.4h18.8c2.4,0,4.4,2,4.4,4.4v12.1
		C206.6-100.1,204.6-98.1,202.1-98.1z"/>
	<path class="st4" d="M157.5-51.7h2.4c-1.5-5.3-5.2-9.6-10.1-11.8v4.1C149.8-55.1,153.2-51.7,157.5-51.7z"/>
	<path class="st4" d="M198.9-51.7h-2.4c1.5-5.3,5.2-9.6,10.1-11.8v4.1C206.6-55.1,203.1-51.7,198.9-51.7z"/>
	<linearGradient id="SVGID_3_" gradientUnits="userSpaceOnUse" x1="295.1881" y1="-70.3855" x2="295.1881" y2="-51.5563">
		<stop  offset="0" style="stop-color:#F0B9A5;stop-opacity:0"/>
		<stop  offset="1" style="stop-color:#C77F75;stop-opacity:0.87"/>
		<stop  offset="1" style="stop-color:#C07167;stop-opacity:0.8"/>
	</linearGradient>
	<path class="st20" d="M322.3-70.6c0,10.2-12.1,18.5-27.1,18.5c-14.9,0-27.1-8.3-27.1-18.5"/>
	<path class="st21" d="M286.1-103.3c0.4,3.5-3.3,6.8-8.4,7.4c-5.1,0.6-9.5-1.7-10-5.1"/>
	<path class="st21" d="M304.8-103.3c-0.4,3.5,3.3,6.8,8.4,7.4s9.5-1.7,10-5.1"/>
	<path class="st16" d="M295.2-61.6c0.9,0,1.6,0.2,1.8,0.5c0,0,0-0.1,0-0.1c0-0.4-0.8-0.7-1.8-0.7c-1,0-1.8,0.3-1.8,0.7
		c0,0.1,0,0.1,0,0.1C293.6-61.4,294.3-61.6,295.2-61.6z"/>
	<ellipse class="st17" cx="295.2" cy="-60.8" rx="1.2" ry="0.7"/>
</g>
<g id="Layer_2">
	<circle class="st22" cx="22.9" cy="-103.3" r="1.9"/>
	<circle class="st22" cx="63.8" cy="-103.3" r="1.9"/>
	<circle class="st22" cx="275" cy="-103.3" r="1.9"/>
	<circle class="st22" cx="315.9" cy="-103.3" r="1.9"/>
	<circle class="st22" cx="158" cy="-103.3" r="1.9"/>
	<circle class="st22" cx="198.9" cy="-103.3" r="1.9"/>
	<path class="st23" d="M278.1,0c0.1,0,0.1,0,0.2,0.1c0.4,0.2,0.7,0.6,1,0.9c0.7,1.1,1.3,2.4,1.6,3.7c0.2,1.1,0.3,2.4,1,3.3
		c0.8,1,2.1,1.5,3.1,2.2c3.3,2.4,4,7.1,7.2,9.7c4,3.2,10.7,1.5,14.8-0.5c5-2.5,23.4-2.5,23.6,13.7s-7,37.6-20.1,49
		s-27.9,18.7-40.5,13.4c-2.5-1-5.1-2.1-7.4-3.6c-1-0.6-2-1.9-3.1-2.3c-1-0.4-1.9,0.1-2.9-0.8c-0.8-0.7-1.3-1.6-1.8-2.5
		c-0.6-1.1-1.2-2.2-1.9-3.2c-0.5-0.9-1-1.8-1.8-2.4c-1.5-1.2-4.4-1.1-6.1-0.4c-4.9,2-0.1,4.8,1,7.7c1.3,3.6-1.4,7.5,1.5,10.4
		c0.7,0.7,2.2,0.9,2.6,1.7c0.9,1.8-1.8,1.6-3,1.5c-1.2-0.1-2.4-0.1-3.6-0.2c-1.7-0.1-3.3-0.1-5-0.4c-1.5-0.3-5.3-1-6.3-2.4
		c-0.4-0.7,0-1.4-0.1-2.1c-0.1-1-0.3-1.3-0.8-2.2c-0.9-2-1.7-4.1-1.7-6.3c0-3.1,1.5-4.3,3.1-6.5c1.5-2-0.9-5.5-0.1-8.2
		c0.6-2.2,2.2-4,4.3-5c1-0.5,2.1-0.8,3.2-1.1c2.3-0.6,4.4-0.5,6.5,0.6c1,0.5,1.9,1.5,2.9,1.8c1.3,0.4,2.9,0.4,4.3,0.8
		c1.1,0.3,2.1,0.7,3,1.3c0.6,0.4,1.2,1,1.8,1.4c4.8,3.3,13.9-3,17.8-5.7c8.3-5.7,11-15.3,13.7-24.5c1.6-5.4-0.6-9.3-4.7-13
		c-1.7-1.5-2.8-2-4.8-2.9c-2-0.9-3.9-2.1-4.9-4.1c-1.3-2.5-0.8-5.9-3-7.8c-0.9-0.8-2.1-1.2-2.6-2.3c-0.2-0.5-0.3-1.1-0.3-1.6
		c0-2.9,1.4-6.3,3.3-8.5C274.1,1.7,276.1-0.6,278.1,0z"/>
	
		<linearGradient id="SVGID_4_" gradientUnits="userSpaceOnUse" x1="317.9348" y1="74.1186" x2="293.1883" y2="45.5454" gradientTransform="matrix(0.9667 2.186714e-02 -2.816573e-02 1.0109 2.8708 -4.9487)">
		<stop  offset="0" style="stop-color:#D13333;stop-opacity:0"/>
		<stop  offset="0.3195" style="stop-color:#BB2C2C;stop-opacity:0.3195"/>
		<stop  offset="0.6623" style="stop-color:#AD2728;stop-opacity:0.6623"/>
		<stop  offset="1" style="stop-color:#A92626"/>
	</linearGradient>
	<path class="st24" d="M300.9,28.7c0.3-0.2,0.5-0.5,0.8-0.7c2.9-2.5,6.7-4.1,10.5-4c6.5,0.1,9.7,4.9,11.9,10.4
		c1.5,3.6,1.8,7.6,1.3,11.4c-1.3,11-6.3,21.7-14.1,29.4c-5.4,5.3-10.3,11-17.2,14.4c-9.5,4.6-25.6,5-31-6.1
		c-0.5-1.1-0.9-2.4-0.7-3.6c0.6-3.5,5.5-3.8,8.2-4.9c3.3-1.5,6.4-3.4,9.2-5.7c4.3-3.7,7.8-8.3,10-13.5c2.5-5.8,3.4-12.3,5.6-18.3
		C296.4,34.1,298.3,31.1,300.9,28.7z"/>
	<g>
		<path class="st23" d="M46.1,0.3c0.5,0.4,0.9,1.2,1.4,2c1.1,2,2.3,4,3.5,6c2.3,3.7,4.8,8.5,8.4,11.2c4.5,3.2,10.7,2.5,15.7,0
			S98.5,17,98.7,33.2s-7,37.6-20.1,49S50.7,100.8,38,95.6c-5.6-2.3-10.6-4.5-13.7-10c-0.5-0.9-0.9-1.8-1.5-2.5
			c-2.9-3.5-12.7-5.2-12.4,1.6c0.1,3.4,0.7,6.9,2.3,10c0.7,1.4,1.6,2.8,2.7,3.9c0.7,0.7,2.2,0.9,2.6,1.7c0.9,1.8-1.8,1.6-3,1.5
			c-1.2-0.1-2.4-0.1-3.6-0.2c-1.7-0.1-3.3-0.1-5-0.4c-1.5-0.3-5.3-1-6.3-2.4c-0.4-0.6-0.2-1.4-0.1-2.1c0.2-2.4,0.4-4.9,0.6-7.3
			C1.1,84.5,1.1,78.8,3,74.1c1.4-3.6,4.7-7.3,8.9-7.2c2.4,0.1,4.2,1.8,6,3.2c1.8,1.4,4.2,2.6,6.4,3.4c6.8,2.3,14.8-2.2,20.2-5.9
			c8.3-5.7,11-15.3,13.7-24.5c1.6-5.4-0.6-9.3-4.7-13c-4.6-4.2-8.8-9.1-11.7-14.6c-1-1.9-1.8-3.8-2.3-5.9c-0.7-2.8-0.2-4.5,1.7-6.7
			c0.7-0.8,1.4-1.6,2.2-2.2C44.7-0.2,45.4-0.2,46.1,0.3z"/>
		
			<linearGradient id="SVGID_5_" gradientUnits="userSpaceOnUse" x1="78.19" y1="79.3045" x2="53.4436" y2="50.7313" gradientTransform="matrix(0.9667 2.186714e-02 -2.816573e-02 1.0109 2.8708 -4.9487)">
			<stop  offset="0" style="stop-color:#D13333;stop-opacity:0"/>
			<stop  offset="0.3195" style="stop-color:#BB2C2C;stop-opacity:0.3195"/>
			<stop  offset="0.6623" style="stop-color:#AD2728;stop-opacity:0.6623"/>
			<stop  offset="1" style="stop-color:#A92626"/>
		</linearGradient>
		<path class="st25" d="M68.9,28.7c0.3-0.2,0.5-0.5,0.8-0.7c2.9-2.5,6.7-4.1,10.5-4c6.5,0.1,9.7,4.9,11.9,10.4
			c1.5,3.6,1.8,7.6,1.3,11.4c-1.3,11-6.3,21.7-14.1,29.4c-5.4,5.3-10.3,11-17.2,14.4c-9.5,4.6-25.6,5-31-6.1
			c-0.5-1.1-0.9-2.4-0.7-3.6c0.6-3.5,5.5-3.8,8.2-4.9c3.3-1.5,6.4-3.4,9.2-5.7c4.3-3.7,7.8-8.3,10-13.5c2.5-5.8,3.4-12.3,5.6-18.3
			C64.5,34.1,66.4,31.1,68.9,28.7z"/>
		<path class="st3" d="M71.2,38.1L71.2,38.1c-1,0-1.7-0.8-1.7-1.7v-1.8c0-1,0.8-1.7,1.7-1.7l0,0c1,0,1.7,0.8,1.7,1.7v1.8
			C73,37.3,72.2,38.1,71.2,38.1z"/>
		<path class="st3" d="M87,38.1L87,38.1c-1,0-1.7-0.8-1.7-1.7v-1.8c0-1,0.8-1.7,1.7-1.7l0,0c1,0,1.7,0.8,1.7,1.7v1.8
			C88.7,37.3,87.9,38.1,87,38.1z"/>
		<path class="st26" d="M82,37.4c0,1.4-1.1,2.5-2.5,2.5S77,38.8,77,37.4"/>
	</g>
	<path class="st23" d="M160.8,0.3c0.5,0.4,0.9,1.2,1.4,2c1.1,2,2.3,4,3.5,6c2.3,3.7,4.8,8.5,8.4,11.2c4.5,3.2,10.7,2.5,15.7,0
		c5-2.5,23.4-2.5,23.6,13.7s-7,37.6-20.1,49c-13.2,11.4-27.9,18.7-40.5,13.4c-5.6-2.3-10.6-4.5-13.7-10c-0.5-0.9-0.9-1.8-1.5-2.5
		c-2.9-3.5-12.7-5.2-12.4,1.6c0.1,3.4,0.7,6.9,2.3,10c0.7,1.4,1.6,2.8,2.7,3.9c0.7,0.7,2.2,0.9,2.6,1.7c0.9,1.8-1.8,1.6-3,1.5
		c-1.2-0.1-2.4-0.1-3.6-0.2c-1.7-0.1-3.3-0.1-5-0.4c-1.5-0.3-5.3-1-6.3-2.4c-0.4-0.6-0.2-1.4-0.1-2.1c0.2-2.4,0.4-4.9,0.6-7.3
		c0.4-4.9,0.5-10.7,2.3-15.3c1.4-3.6,4.7-7.3,8.9-7.2c2.4,0.1,4.2,1.8,6,3.2c1.8,1.4,4.2,2.6,6.4,3.4c6.8,2.3,14.8-2.2,20.2-5.9
		c8.3-5.7,11-15.3,13.7-24.5c1.6-5.4-0.6-9.3-4.7-13c-4.6-4.2-8.8-9.1-11.7-14.6c-1-1.9-1.8-3.8-2.3-5.9c-0.7-2.8-0.2-4.5,1.7-6.7
		c0.7-0.8,1.4-1.6,2.2-2.2C159.4-0.2,160.2-0.2,160.8,0.3z"/>
	
		<linearGradient id="SVGID_6_" gradientUnits="userSpaceOnUse" x1="196.8372" y1="76.738" x2="172.0907" y2="48.1648" gradientTransform="matrix(0.9667 2.186714e-02 -2.816573e-02 1.0109 2.8708 -4.9487)">
		<stop  offset="0" style="stop-color:#D13333;stop-opacity:0"/>
		<stop  offset="0.3195" style="stop-color:#BB2C2C;stop-opacity:0.3195"/>
		<stop  offset="0.6623" style="stop-color:#AD2728;stop-opacity:0.6623"/>
		<stop  offset="1" style="stop-color:#A92626"/>
	</linearGradient>
	<path class="st27" d="M183.7,28.7c0.3-0.2,0.5-0.5,0.8-0.7c2.9-2.5,6.7-4.1,10.5-4c6.5,0.1,9.7,4.9,11.9,10.4
		c1.5,3.6,1.8,7.6,1.3,11.4c-1.3,11-6.3,21.7-14.1,29.4c-5.4,5.3-10.3,11-17.2,14.4c-9.5,4.6-25.6,5-31-6.1
		c-0.5-1.1-0.9-2.4-0.7-3.6c0.6-3.5,5.5-3.8,8.2-4.9c3.3-1.5,6.4-3.4,9.2-5.7c4.3-3.7,7.8-8.3,10-13.5c2.5-5.8,3.4-12.3,5.6-18.3
		C179.3,34.1,181.2,31.1,183.7,28.7z"/>
	<path class="st3" d="M186,38.1L186,38.1c-1,0-1.7-0.8-1.7-1.7v-1.8c0-1,0.8-1.7,1.7-1.7l0,0c1,0,1.7,0.8,1.7,1.7v1.8
		C187.7,37.3,187,38.1,186,38.1z"/>
	<path class="st3" d="M201.8,38.1L201.8,38.1c-1,0-1.7-0.8-1.7-1.7v-1.8c0-1,0.8-1.7,1.7-1.7l0,0c1,0,1.7,0.8,1.7,1.7v1.8
		C203.5,37.3,202.7,38.1,201.8,38.1z"/>
	<path class="st3" d="M300.5,35.4v1c0,1,0.8,1.7,1.7,1.7s1.7-0.8,1.7-1.7v-1.7L300.5,35.4z"/>
	<path class="st3" d="M319.7,35.4v1c0,1-0.8,1.7-1.7,1.7s-1.7-0.8-1.7-1.7v-1.7L319.7,35.4z"/>
	<line class="st26" x1="307.3" y1="39.2" x2="313.5" y2="39.2"/>
	<line class="st28" x1="319.3" y1="74.1" x2="319.3" y2="74.1"/>
	<path class="st29" d="M311.3,73.5c-1-0.9-1.1-2.4-0.2-3.4c0.9-1,2.4-1.1,3.4-0.2l3.9,3.4c0.2-0.3,0.4-0.6,0.6-0.9l-5.3-4.6
		c-1.5-1.3-3.6-1.1-4.9,0.4c-1.3,1.5-1.1,3.6,0.4,4.9l5.6,4.9c0.2-0.3,0.5-0.6,0.7-0.8L311.3,73.5z"/>
	<path class="st28" d="M311,70.1c-0.9,1-0.8,2.5,0.2,3.4l4.2,3.6c1-1.2,2-2.5,2.9-3.8l-3.9-3.4C313.4,69,311.9,69.1,311,70.1z"/>
	<path class="st29" d="M280.2,77.4c1.6-1,2.1-3.2,1.1-4.8l-3.7-5.8c-0.3,0.2-0.6,0.4-0.9,0.7l2.6,4.1c0.7,1.1,0.4,2.6-0.7,3.3
		c-1.1,0.7-2.6,0.4-3.3-0.7l-2.5-4c-0.3,0.2-0.6,0.4-0.9,0.6l3.6,5.6C276.4,77.9,278.5,78.4,280.2,77.4z"/>
	<path class="st28" d="M272.7,70.1l2.5,4c0.7,1.1,2.2,1.4,3.3,0.7c1.1-0.7,1.4-2.2,0.7-3.3l-2.6-4.1c-0.1,0.1-0.2,0.1-0.3,0.2
		C275.4,68.3,274.2,69.2,272.7,70.1z"/>
	<path class="st30" d="M196.8,37.7h-6v0.8c0,0.8,0.3,1.5,0.8,2c0.7-0.3,1.4-0.5,2.2-0.5s1.5,0.2,2.2,0.5c0.5-0.5,0.8-1.2,0.8-2V37.7
		z"/>
	<path class="st31" d="M191.6,40.6c0.5,0.6,1.3,1,2.2,1c0.9,0,1.6-0.4,2.2-1c-0.7-0.3-1.4-0.5-2.2-0.5S192.3,40.3,191.6,40.6z"/>
</g>
</svg>
