<?xml version="1.0" encoding="utf-8"?>
<!-- Generator: Adobe Illustrator 22.0.1, SVG Export Plug-In . SVG Version: 6.00 Build 0)  -->
<svg version="1.1" id="Layer_1" xmlns="http://www.w3.org/2000/svg" xmlns:xlink="http://www.w3.org/1999/xlink" x="0px" y="0px"
	 viewBox="0 0 98.7 101.9" style="enable-background:new 0 0 98.7 101.9;" xml:space="preserve">
<style type="text/css">
	.st0{fill:url(#SVGID_1_);}
	.st1{opacity:0.3;fill:#757576;enable-background:new    ;}
	.st2{fill:#54A5D3;}
	.st3{fill:#392812;}
	.st4{fill:#F1BAA5;}
	.st5{opacity:0.5;fill:#D28B6B;enable-background:new    ;}
	.st6{fill:#8A2727;}
	.st7{fill:#B63030;}
	.st8{fill:#FFFFFF;}
	.st9{fill:#193058;}
	.st10{fill:#EAEAEA;}
	.st11{fill:#C54E3C;}
	.st12{fill:none;stroke:#392812;stroke-linecap:round;stroke-miterlimit:10;}
	.st13{opacity:0.35;fill:none;stroke:#FFFFFF;stroke-linecap:round;stroke-miterlimit:10;enable-background:new    ;}
	.st14{fill:#2278B3;}
	.st15{fill:url(#SVGID_2_);}
	.st16{fill:#C49374;}
	.st17{opacity:0.45;fill:#925F43;enable-background:new    ;}
	.st18{fill:#CE7167;}
	.st19{fill:#AA554C;}
	.st20{opacity:0.61;fill:url(#SVGID_3_);stroke:#D3897F;stroke-linecap:round;stroke-miterlimit:10;enable-background:new    ;}
	.st21{opacity:0.61;fill:none;stroke:#D3897F;stroke-linecap:round;stroke-miterlimit:10;enable-background:new    ;}
	.st22{fill:#D3897F;}
	.st23{fill:#E24345;}
	.st24{opacity:0.7011;fill:url(#SVGID_4_);enable-background:new    ;}
	.st25{fill:none;stroke:#392812;stroke-linecap:round;stroke-linejoin:round;stroke-miterlimit:10;}
	.st26{opacity:0.7011;fill:url(#SVGID_5_);enable-background:new    ;}
	.st27{fill:none;}
	.st28{fill:#EE9854;}
	.st29{fill:#CC6B28;}
	.st30{opacity:0.7011;fill:url(#SVGID_6_);enable-background:new    ;}
	.st31{fill:#F24055;}
	.st32{fill:#7C131C;}
</style>
<g id="Layer_1_1_">
	
		<linearGradient id="SVGID_1_" gradientUnits="userSpaceOnUse" x1="63.4393" y1="227.1359" x2="63.4393" y2="153.6359" gradientTransform="matrix(1 0 0 -1 0 103.8717)">
		<stop  offset="0" style="stop-color:#DE9784"/>
		<stop  offset="1" style="stop-color:#C97872;stop-opacity:0.88"/>
		<stop  offset="1" style="stop-color:#C07167"/>
	</linearGradient>
	<path class="st0" d="M91.6-89.5c1.2-1.3,1.9-3,1.9-4.8v-21.3c0-4.3-3.6-7.7-8-7.7H63.4H41.3c-4.4,0-8,3.5-8,7.7v21.3
		c0,1.8,0.7,3.5,1.9,4.8c1.1,1.2,2,2.6,2,4.1v12.9c0,1.7-0.6,3.4-1.8,4.7c0,0,0,0-0.1,0.1c-1.2,1.3-2,3-2,4.8v5.4
		c0,4.3,3.6,7.7,8,7.7h22.1h22.1c4.4,0,8-3.5,8-7.7v-5.4c0-1.8-0.8-3.5-2-4.8c0,0,0,0-0.1-0.1c-1.2-1.3-1.8-3-1.8-4.7v-12.9
		C89.6-86.9,90.4-88.3,91.6-89.5z"/>
	<path class="st1" d="M-51.2-179.6h-46.5c-1,0-1.8-0.8-1.8-1.8v-1.2c0-1,0.8-1.8,1.8-1.8h46.5c1,0,1.8,0.8,1.8,1.8v1.2
		C-49.3-180.4-50.2-179.6-51.2-179.6z"/>
	<path class="st2" d="M-74.5-263.8c-8.3,0-15.1,5.2-15.1,11.7h30.2C-59.4-258.5-66.2-263.8-74.5-263.8z"/>
	<path class="st3" d="M-71.6-290.8v-13.8c0-4.5,3.7-8.2,8.2-8.2l0,0c4.5,0,8.2,3.7,8.2,8.2v13.8c0,4.5-3.7,8.2-8.2,8.2l0,0
		C-67.9-282.6-71.6-286.2-71.6-290.8z"/>
	<path class="st3" d="M-93.9-290.8v-13.8c0-4.5,3.7-8.2,8.2-8.2l0,0c4.5,0,8.2,3.7,8.2,8.2v13.8c0,4.5-3.7,8.2-8.2,8.2l0,0
		C-90.2-282.6-93.9-286.2-93.9-290.8z"/>
	<path class="st4" d="M-74.5-258.3L-74.5-258.3c-2,0-3.5-1.6-3.5-3.5v-6.6c0-2,1.6-3.5,3.5-3.5l0,0c2,0,3.5,1.6,3.5,3.5v6.6
		C-71-259.9-72.6-258.3-74.5-258.3z"/>
	<path class="st5" d="M-74.5-272L-74.5-272c-2,0-3.5,1.6-3.5,3.5v2.9c1.1,0.3,2.3,0.4,3.5,0.4l0,0c1.2,0,2.4-0.2,3.5-0.4v-2.9
		C-71-270.5-72.6-272-74.5-272z"/>
	<path class="st4" d="M-74.5-266.5L-74.5-266.5c-8.3,0-15.1-6.8-15.1-15.1v-19.5c0-8.3,6.8-15.1,15.1-15.1l0,0
		c8.3,0,15.1,6.8,15.1,15.1v19.6C-59.4-273.2-66.2-266.5-74.5-266.5z"/>
	<path class="st3" d="M-67.1-295.6h-14.8c-5,0-9.1-4.1-9.1-9.1v-4.3c0-5,4.1-9.1,9.1-9.1h14.8c5,0,9.1,4.1,9.1,9.1v4.3
		C-58-299.7-62.1-295.6-67.1-295.6z"/>
	<path class="st3" d="M-83.1-287.8L-83.1-287.8c-0.5,0-0.9-0.4-0.9-0.9v-2.8c0-0.5,0.4-0.9,0.9-0.9l0,0c0.5,0,0.9,0.4,0.9,0.9v2.8
		C-82.3-288.2-82.7-287.8-83.1-287.8z"/>
	<path class="st3" d="M-65.2-287.8L-65.2-287.8c-0.5,0-0.9-0.4-0.9-0.9v-2.8c0-0.5,0.4-0.9,0.9-0.9l0,0c0.5,0,0.9,0.4,0.9,0.9v2.8
		C-64.3-288.2-64.7-287.8-65.2-287.8z"/>
	<g>
		<path class="st6" d="M-77.6-279c0.8-0.8,1.9-1.2,3.1-1.2s2.3,0.5,3.1,1.2c0.8-0.7,1.3-1.7,1.5-2.8h-9.2
			C-79-280.7-78.4-279.7-77.6-279z"/>
		<path class="st7" d="M-77.6-279c0.8,0.8,1.9,1.2,3.1,1.2s2.3-0.5,3.1-1.2c-0.8-0.8-1.9-1.2-3.1-1.2S-76.8-279.7-77.6-279z"/>
		<path class="st8" d="M-69.9-282.6h-9.2c0,0.1,0,0.2,0,0.3c0,0.1,0,0.3,0.1,0.4h9.2c0-0.1,0.1-0.3,0.1-0.4
			C-69.9-282.3-69.9-282.4-69.9-282.6z"/>
	</g>
	<path class="st9" d="M-74.5-219.1L-74.5-219.1c5.5,0,10-4.4,11-10.1h-21.9C-84.5-223.4-80-219.1-74.5-219.1z"/>
	<rect x="-82.5" y="-228" class="st9" width="4.3" height="40.5"/>
	<rect x="-70.9" y="-228" class="st9" width="4.3" height="40.5"/>
	<path class="st4" d="M-85.5-225.7L-85.5-225.7c-2.3,0-4.1-1.9-4.1-4.1v-22.3h4.1V-225.7z"/>
	<path class="st4" d="M-63.6-225.7L-63.6-225.7c2.3,0,4.1-1.9,4.1-4.1v-22.3h-4.1V-225.7z"/>
	<rect x="-82.5" y="-187.5" class="st10" width="4.3" height="2.9"/>
	<rect x="-70.9" y="-187.5" class="st10" width="4.3" height="2.9"/>
	<path class="st11" d="M-77.4-183.2c0-1.6-1.3-2.9-2.9-2.9s-2.9,1.3-2.9,2.9v0.4h5.8L-77.4-183.2L-77.4-183.2z"/>
	<rect x="-83.2" y="-182.8" class="st8" width="5.8" height="0.8"/>
	<path class="st11" d="M-65.8-183.2c0-1.6-1.3-2.9-2.9-2.9s-2.9,1.3-2.9,2.9v0.4h5.8L-65.8-183.2L-65.8-183.2z"/>
	<rect x="-71.6" y="-182.8" class="st8" width="5.8" height="0.8"/>
	<path class="st4" d="M60.4-255.7c-0.2,1.6-1.5,2.8-3.1,2.9c-0.1,0-0.3,0-0.4,0l-4.5-0.7H49l-11.6-1.1c-1.1-0.1-2.1-0.3-2.9-0.5
		c-7.2-2.1-5.7-8.9-5.6-9.5l0,0l1.6-9.9c0.2-1.6,1.6-2.7,3.1-2.7c0.2,0,0.3,0,0.5,0c1.7,0.3,2.9,1.9,2.6,3.6l-1.3,8
		c0,0.1,0,0.2-0.1,0.4c-0.1,0.3-0.1,0.6-0.1,0.9l0,0c-0.3,2.5,0.9,3.1,1.6,3.3c0,0,0,0,0.1,0c0.3,0.1,0.5,0,0.5,0l20.2,2
		C59.3-259,60.6-257.5,60.4-255.7z"/>
	<path class="st2" d="M63.4-263.8c-8.3,0-8.1,0.1-14.4,3.7v6.4l25.3,1.5h4.1C78.4-258.5,71.7-263.8,63.4-263.8z"/>
	<path class="st4" d="M74.3-225.7L74.3-225.7c2.3,0,4.1-1.9,4.1-4.1v-22.3h-4.1V-225.7z"/>
	<path class="st1" d="M86.7-179.6H40.2c-1,0-1.8-0.8-1.8-1.8v-1.2c0-1,0.8-1.8,1.8-1.8h46.5c1,0,1.8,0.8,1.8,1.8v1.2
		C88.5-180.4,87.7-179.6,86.7-179.6z"/>
	<path class="st3" d="M66.3-290.8v-13.8c0-4.5,3.7-8.2,8.2-8.2l0,0c4.5,0,8.2,3.7,8.2,8.2v13.8c0,4.5-3.7,8.2-8.2,8.2l0,0
		C69.9-282.6,66.3-286.2,66.3-290.8z"/>
	<path class="st3" d="M44-290.8v-13.8c0-4.5,3.7-8.2,8.2-8.2l0,0c4.5,0,8.2,3.7,8.2,8.2v13.8c0,4.5-3.7,8.2-8.2,8.2l0,0
		C47.7-282.6,44-286.2,44-290.8z"/>
	<path class="st4" d="M63.4-258.3L63.4-258.3c-2,0-3.5-1.6-3.5-3.5v-6.6c0-2,1.6-3.5,3.5-3.5l0,0c2,0,3.5,1.6,3.5,3.5v6.6
		C66.9-259.9,65.3-258.3,63.4-258.3z"/>
	<path class="st5" d="M63.4-272L63.4-272c-2,0-3.5,1.6-3.5,3.5v2.9c1.1,0.3,2.3,0.4,3.5,0.4l0,0c1.2,0,2.4-0.2,3.5-0.4v-2.9
		C66.9-270.5,65.3-272,63.4-272z"/>
	<path class="st4" d="M63.4-266.5L63.4-266.5c-8.3,0-15.1-6.8-15.1-15.1v-19.5c0-8.3,6.8-15.1,15.1-15.1l0,0
		c8.3,0,15.1,6.8,15.1,15.1v19.6C78.4-273.2,71.7-266.5,63.4-266.5z"/>
	<path class="st3" d="M70.8-295.6H56c-5,0-9.1-4.1-9.1-9.1v-4.3c0-5,4.1-9.1,9.1-9.1h14.8c5,0,9.1,4.1,9.1,9.1v4.3
		C79.9-299.7,75.8-295.6,70.8-295.6z"/>
	<path class="st3" d="M54.7-287.8L54.7-287.8c-0.5,0-0.9-0.4-0.9-0.9v-2.8c0-0.5,0.4-0.9,0.9-0.9l0,0c0.5,0,0.9,0.4,0.9,0.9v2.8
		C55.6-288.2,55.2-287.8,54.7-287.8z"/>
	<path class="st3" d="M72.7-287.8L72.7-287.8c-0.5,0-0.9-0.4-0.9-0.9v-2.8c0-0.5,0.4-0.9,0.9-0.9l0,0c0.5,0,0.9,0.4,0.9,0.9v2.8
		C73.6-288.2,73.2-287.8,72.7-287.8z"/>
	<path class="st9" d="M63.4-219.1L63.4-219.1c5.5,0,10-4.4,11-10.1H52.5C53.4-223.4,57.9-219.1,63.4-219.1z"/>
	<rect x="55.4" y="-228" class="st9" width="4.3" height="40.5"/>
	<rect x="67" y="-228" class="st9" width="4.3" height="40.5"/>
	<rect x="55.4" y="-187.5" class="st10" width="4.3" height="2.9"/>
	<rect x="67" y="-187.5" class="st10" width="4.3" height="2.9"/>
	<path class="st11" d="M60.5-183.2c0-1.6-1.3-2.9-2.9-2.9s-2.9,1.3-2.9,2.9v0.4h5.8C60.5-182.8,60.5-183.2,60.5-183.2z"/>
	<rect x="54.6" y="-182.8" class="st8" width="5.8" height="0.8"/>
	<path class="st11" d="M72.1-183.2c0-1.6-1.3-2.9-2.9-2.9c-1.6,0-2.9,1.3-2.9,2.9v0.4h5.8C72.1-182.8,72.1-183.2,72.1-183.2z"/>
	<rect x="66.3" y="-182.8" class="st8" width="5.8" height="0.8"/>
	<path class="st12" d="M59.5-280c0.9,1.2,2.3,1.9,3.9,1.9s3-0.8,3.9-1.9"/>
	<path class="st4" d="M32.1-261.8h0.5C32.6-261.7,32.4-261.7,32.1-261.8z"/>
	
		<ellipse transform="matrix(7.378887e-02 -0.9973 0.9973 7.378887e-02 298.5955 -198.3076)" class="st4" cx="42.5" cy="-259.9" rx="3.9" ry="4.5"/>
	<path class="st13" d="M43.6-262.2c1.1,0.1,1.9,0.9,1.8,1.8"/>
	<g>
		<path class="st4" d="M170.1-225.7L170.1-225.7c-2.3,0-4.1-1.9-4.1-4.1v-19.8h4.1V-225.7z"/>
		<path class="st4" d="M192-225.7L192-225.7c2.3,0,4.1-1.9,4.1-4.1v-19.8H192V-225.7z"/>
		<path class="st2" d="M185.7-253.3h-9c-1.8,0-3.3-1.5-3.3-3.3v-1.5c0-1.8,1.5-3.3,3.3-3.3h9c1.8,0,3.3,1.5,3.3,3.3v1.5
			C189-254.8,187.5-253.3,185.7-253.3z"/>
		<path class="st1" d="M204.4-179.6h-46.5c-1,0-1.8-0.8-1.8-1.8v-1.2c0-1,0.8-1.8,1.8-1.8h46.5c1,0,1.8,0.8,1.8,1.8v1.2
			C206.2-180.4,205.4-179.6,204.4-179.6z"/>
		<path class="st2" d="M181-260.4c-8.3,0-15.1,4.8-15.1,10.8h30.2C196.1-255.6,189.4-260.4,181-260.4z"/>
		<path class="st14" d="M181-219.1L181-219.1c-6,0-11-4.9-11-11v-17.4c0-6,4.9-11,11-11l0,0c6,0,11,4.9,11,11v17.4
			C192-224,187.1-219.1,181-219.1z"/>
		<path class="st3" d="M184-284.7v-13.8c0-4.5,3.7-8.2,8.2-8.2l0,0c4.5,0,8.2,3.7,8.2,8.2v13.8c0,4.5-3.7,8.2-8.2,8.2l0,0
			C187.6-276.5,184-280.2,184-284.7z"/>
		<path class="st3" d="M161.7-284.7v-13.8c0-4.5,3.7-8.2,8.2-8.2l0,0c4.5,0,8.2,3.7,8.2,8.2v13.8c0,4.5-3.7,8.2-8.2,8.2l0,0
			C165.4-276.5,161.7-280.2,161.7-284.7z"/>
		<path class="st14" d="M183.6-254.1h-5.3c-1.8,0-3.3-1.5-3.3-3.3l0,0c0-1.8,1.5-3.3,3.3-3.3h5.3c1.8,0,3.3,1.5,3.3,3.3l0,0
			C186.9-255.6,185.4-254.1,183.6-254.1z"/>
		<path class="st4" d="M181.1-252.3L181.1-252.3c-2,0-3.5-1.6-3.5-3.5v-6.6c0-2,1.6-3.5,3.5-3.5l0,0c2,0,3.5,1.6,3.5,3.5v6.6
			C184.6-253.9,183-252.3,181.1-252.3z"/>
		<path class="st5" d="M181.1-266L181.1-266c-2,0-3.5,1.6-3.5,3.5v2.9c1.1,0.3,2.3,0.4,3.5,0.4l0,0c1.2,0,2.4-0.2,3.5-0.4v-2.9
			C184.6-264.4,183-266,181.1-266z"/>
		<path class="st4" d="M181.1-260.4L181.1-260.4c-8.3,0-15.1-6.8-15.1-15.1v-19.6c0-8.3,6.8-15.1,15.1-15.1l0,0
			c8.3,0,15.1,6.8,15.1,15.1v19.6C196.1-267.2,189.4-260.4,181.1-260.4z"/>
		<path class="st3" d="M188.5-289.6h-14.9c-5,0-9.1-4.1-9.1-9.1v-4.3c0-5,4.1-9.1,9.1-9.1h14.8c5,0,9.1,4.1,9.1,9.1v4.3
			C197.6-293.7,193.5-289.6,188.5-289.6z"/>
		<path class="st9" d="M181-219.1L181-219.1c5.5,0,10-4.4,11-10.1h-21.9C171.1-223.4,175.6-219.1,181-219.1z"/>
		<rect x="173.1" y="-187.5" class="st10" width="4.3" height="2.9"/>
		<rect x="184.7" y="-187.5" class="st10" width="4.3" height="2.9"/>
		<path class="st11" d="M178.2-183.2c0-1.6-1.3-2.9-2.9-2.9s-2.9,1.3-2.9,2.9v0.4h5.8C178.2-182.8,178.2-183.2,178.2-183.2z"/>
		<rect x="172.3" y="-182.8" class="st8" width="5.8" height="0.8"/>
		<path class="st11" d="M189.8-183.2c0-1.6-1.3-2.9-2.9-2.9c-1.6,0-2.9,1.3-2.9,2.9v0.4h5.8V-183.2z"/>
		<rect x="183.9" y="-182.8" class="st8" width="5.8" height="0.8"/>
		
			<linearGradient id="SVGID_2_" gradientUnits="userSpaceOnUse" x1="182.1393" y1="380.5826" x2="182.1393" y2="377.7126" gradientTransform="matrix(1 0 0 -1 0 103.8717)">
			<stop  offset="0" style="stop-color:#309FBC"/>
			<stop  offset="1" style="stop-color:#71C493"/>
		</linearGradient>
		<path class="st15" d="M183-276.5v2.1c0,0.3-0.2,0.5-0.5,0.5s-0.5-0.2-0.5-0.5v-1.5c0,0.2-0.2,0.4-0.4,0.4c-0.2,0-0.4-0.2-0.4-0.4
			v-0.5c0-0.2,0.2-0.4,0.4-0.4h0.4v0.3H183z"/>
		<path class="st12" d="M184.8-275.1c-0.9-1.2-2.3-1.9-3.9-1.9c-1.6,0-3,0.8-3.9,1.9"/>
		<path class="st9" d="M173.1-222.8h4.3c0,0-3.7,7.6-4,16.5c-0.3,8.9,4,18.8,4,18.8h-4.6c0,0-4.5-12.1-4-18.8
			C169.2-213.2,173.1-222.8,173.1-222.8z"/>
		<path class="st9" d="M188.9-222.8h-4.3c0,0,3.7,7.6,4,16.5s-4,18.8-4,18.8h4.6c0,0,4.5-12.1,4-18.8
			C192.8-213.2,188.9-222.8,188.9-222.8z"/>
		<path class="st3" d="M171.6-284v1.5c0,0.5,0.4,0.9,0.9,0.9s0.9-0.4,0.9-0.9v-1.9L171.6-284z"/>
		<path class="st3" d="M191.3-284v1.5c0,0.5-0.4,0.9-0.9,0.9s-0.9-0.4-0.9-0.9v-1.9L191.3-284z"/>
	</g>
	<path class="st14" d="M74.3-229.2v-23.3c0-6.2-4.9-11.3-11-11.3l0,0c-6,0-11,5-11,11.3v23.3H74.3z"/>
	<path class="st14" d="M-63.6-229.2v-23.3c0-6.2-4.9-11.3-11-11.3s-11,5-11,11.3v23.3H-63.6z"/>
	<path class="st4" d="M-49.3-49.8H-94c-4.3,0-7.7-3.5-7.7-7.7v-58.1c0-4.3,3.5-7.7,7.7-7.7h44.7c4.3,0,7.7,3.5,7.7,7.7v58.1
		C-41.6-53.2-45-49.8-49.3-49.8z"/>
	<path class="st16" d="M-71.6-65.7c0.4,0,0.7,0.5,0.7,1.2c0-0.1,0-0.2,0-0.3c0-0.9-0.3-1.6-0.7-1.6s-0.7,0.7-0.7,1.6
		c0,0.1,0,0.2,0,0.3C-72.3-65.2-72-65.7-71.6-65.7z"/>
	<ellipse class="st17" cx="-71.6" cy="-63.8" rx="0.5" ry="1.5"/>
	<path class="st4" d="M202.8-49.8h-44.7c-4.3,0-7.7-3.5-7.7-7.7v-58.1c0-4.3,3.5-7.7,7.7-7.7h44.7c4.3,0,7.7,3.5,7.7,7.7v58.1
		C210.5-53.2,207-49.8,202.8-49.8z"/>
	<path class="st18" d="M63.4-65.7c0.4,0,0.7,0.5,0.7,1.2c0-0.1,0-0.2,0-0.3c0-0.9-0.3-1.6-0.7-1.6s-0.7,0.7-0.7,1.6
		c0,0.1,0,0.2,0,0.3C62.8-65.2,63.1-65.7,63.4-65.7z"/>
	<ellipse class="st19" cx="63.4" cy="-63.8" rx="0.5" ry="1.5"/>
	<path class="st4" d="M59.4-67.3H47.7c-1.7,0-3.1-1.4-3.1-3.1v-0.5c0-1.7,1.4-3.1,3.1-3.1h11.7c1.7,0,3.1,1.4,3.1,3.1v0.5
		C62.5-68.6,61.1-67.3,59.4-67.3z"/>
	<path class="st4" d="M79.2-67.3H67.5c-1.7,0-3.1-1.4-3.1-3.1v-0.5c0-1.7,1.4-3.1,3.1-3.1h11.7c1.7,0,3.1,1.4,3.1,3.1v0.5
		C82.2-68.6,80.9-67.3,79.2-67.3z"/>
	<path class="st4" d="M59.4-75.3H47.7c-1.7,0-3.1-1.4-3.1-3.1v-0.5c0-1.7,1.4-3.1,3.1-3.1h11.7c1.7,0,3.1,1.4,3.1,3.1v0.5
		C62.5-76.7,61.1-75.3,59.4-75.3z"/>
	<path class="st4" d="M79.2-75.3H67.5c-1.7,0-3.1-1.4-3.1-3.1v-0.5c0-1.7,1.4-3.1,3.1-3.1h11.7c1.7,0,3.1,1.4,3.1,3.1v0.5
		C82.2-76.7,80.9-75.3,79.2-75.3z"/>
	<path class="st4" d="M59.4-83.3H47.7c-1.7,0-3.1-1.4-3.1-3.1v-0.5c0-1.7,1.4-3.1,3.1-3.1h11.7c1.7,0,3.1,1.4,3.1,3.1v0.5
		C62.5-84.7,61.1-83.3,59.4-83.3z"/>
	<path class="st4" d="M79.2-83.3H67.5c-1.7,0-3.1-1.4-3.1-3.1v-0.5c0-1.7,1.4-3.1,3.1-3.1h11.7c1.7,0,3.1,1.4,3.1,3.1v0.5
		C82.2-84.7,80.9-83.3,79.2-83.3z"/>
	<path class="st4" d="M58.2-98.1H39.4c-2.4,0-4.4-2-4.4-4.4v-12.1c0-2.4,2-4.4,4.4-4.4h18.8c2.4,0,4.4,2,4.4,4.4v12.1
		C62.7-100.1,60.7-98.1,58.2-98.1z"/>
	<path class="st4" d="M87.4-98.1H68.6c-2.4,0-4.4-2-4.4-4.4v-12.1c0-2.4,2-4.4,4.4-4.4h18.8c2.4,0,4.4,2,4.4,4.4v12.1
		C91.8-100.1,89.9-98.1,87.4-98.1z"/>
	<path class="st4" d="M42.8-51.7h2.4C43.7-57,40-61.3,35.1-63.5v4.1C35-55.1,38.5-51.7,42.8-51.7z"/>
	<path class="st4" d="M84.1-51.7h-2.4c1.5-5.3,5.2-9.6,10.1-11.8v4.1C91.8-55.1,88.4-51.7,84.1-51.7z"/>
	
		<linearGradient id="SVGID_3_" gradientUnits="userSpaceOnUse" x1="180.4893" y1="174.2356" x2="180.4893" y2="155.4064" gradientTransform="matrix(1 0 0 -1 0 103.8717)">
		<stop  offset="0" style="stop-color:#F0B9A5;stop-opacity:0"/>
		<stop  offset="1" style="stop-color:#C77F75;stop-opacity:0.87"/>
		<stop  offset="1" style="stop-color:#C07167;stop-opacity:0.8"/>
	</linearGradient>
	<path class="st20" d="M207.5-70.6c0,10.2-12.1,18.5-27,18.5c-14.9,0-27.1-8.3-27.1-18.5"/>
	<path class="st21" d="M171.4-103.3c0.4,3.5-3.3,6.8-8.4,7.4s-9.5-1.7-10-5.1"/>
	<path class="st21" d="M190.1-103.3c-0.4,3.5,3.3,6.8,8.4,7.4c5.1,0.6,9.5-1.7,10-5.1"/>
	<path class="st16" d="M180.5-61.7c0.9,0,1.6,0.2,1.8,0.5v-0.1c0-0.4-0.8-0.7-1.8-0.7s-1.8,0.3-1.8,0.7c0,0.1,0,0.1,0,0.1
		C178.8-61.4,179.6-61.7,180.5-61.7z"/>
	<ellipse class="st17" cx="180.5" cy="-60.8" rx="1.2" ry="0.7"/>
</g>
<circle class="st22" cx="-91.8" cy="-103.3" r="1.9"/>
<circle class="st22" cx="-50.9" cy="-103.3" r="1.9"/>
<circle class="st22" cx="160.3" cy="-103.3" r="1.9"/>
<circle class="st22" cx="201.2" cy="-103.3" r="1.9"/>
<circle class="st22" cx="43.3" cy="-103.3" r="1.9"/>
<circle class="st22" cx="84.2" cy="-103.3" r="1.9"/>
<g>
	<path class="st23" d="M-68.7,0.3c0.5,0.4,0.9,1.2,1.4,2c1.1,2,2.3,4,3.5,6c2.3,3.7,4.8,8.5,8.4,11.2c4.5,3.2,10.7,2.5,15.7,0
		s23.4-2.5,23.6,13.7c0.2,16.2-7,37.6-20.1,49c-13.2,11.4-27.9,18.7-40.5,13.4c-5.6-2.3-10.6-4.5-13.7-10c-0.5-0.9-0.9-1.8-1.5-2.5
		c-2.9-3.5-12.7-5.2-12.4,1.6c0.1,3.4,0.7,6.9,2.3,10c0.7,1.4,1.6,2.8,2.7,3.9c0.7,0.7,2.2,0.9,2.6,1.7c0.9,1.8-1.8,1.6-3,1.5
		s-2.4-0.1-3.6-0.2c-1.7-0.1-3.3-0.1-5-0.4c-1.5-0.3-5.3-1-6.3-2.4c-0.4-0.6-0.2-1.4-0.1-2.1c0.2-2.4,0.4-4.9,0.6-7.3
		c0.4-4.9,0.5-10.7,2.3-15.3c1.4-3.6,4.7-7.3,8.9-7.2c2.4,0.1,4.2,1.8,6,3.2c1.8,1.4,4.2,2.6,6.4,3.4c6.8,2.3,14.8-2.2,20.2-5.9
		c8.3-5.7,11-15.3,13.7-24.5c1.6-5.4-0.6-9.3-4.7-13c-4.6-4.2-8.8-9.1-11.7-14.6c-1-1.9-1.8-3.8-2.3-5.9c-0.7-2.8-0.2-4.5,1.7-6.7
		c0.7-0.8,1.4-1.6,2.2-2.2C-70.1-0.2-69.3-0.2-68.7,0.3z"/>
	
		<linearGradient id="SVGID_4_" gradientUnits="userSpaceOnUse" x1="-27.2196" y1="29.5628" x2="-51.9661" y2="58.136" gradientTransform="matrix(0.9667 2.186714e-02 2.816573e-02 -1.0109 -12.9714 107.4126)">
		<stop  offset="0" style="stop-color:#D13333;stop-opacity:0"/>
		<stop  offset="0.3195" style="stop-color:#BB2C2C;stop-opacity:0.3195"/>
		<stop  offset="0.6623" style="stop-color:#AD2728;stop-opacity:0.6623"/>
		<stop  offset="1" style="stop-color:#A92626"/>
	</linearGradient>
	<path class="st24" d="M-45.8,28.7c0.3-0.2,0.5-0.5,0.8-0.7c2.9-2.5,6.7-4.1,10.5-4c6.5,0.1,9.7,4.9,11.9,10.4
		c1.5,3.6,1.8,7.6,1.3,11.4c-1.3,11-6.3,21.7-14.1,29.4c-5.4,5.3-10.3,11-17.2,14.4c-9.5,4.6-25.6,5-31-6.1
		c-0.5-1.1-0.9-2.4-0.7-3.6c0.6-3.5,5.5-3.8,8.2-4.9c3.3-1.5,6.4-3.4,9.2-5.7c4.3-3.7,7.8-8.3,10-13.5c2.5-5.8,3.4-12.3,5.6-18.3
		C-50.2,34.1-48.3,31.1-45.8,28.7z"/>
	<path class="st3" d="M-43.5,38.1L-43.5,38.1c-1,0-1.7-0.8-1.7-1.7v-1.8c0-1,0.8-1.7,1.7-1.7l0,0c1,0,1.7,0.8,1.7,1.7v1.8
		C-41.8,37.3-42.5,38.1-43.5,38.1z"/>
	<path class="st3" d="M-27.7,38.1L-27.7,38.1c-1,0-1.7-0.8-1.7-1.7v-1.8c0-1,0.8-1.7,1.7-1.7l0,0c1,0,1.7,0.8,1.7,1.7v1.8
		C-26,37.3-26.8,38.1-27.7,38.1z"/>
	<path class="st25" d="M-32.8,37.4c0,1.4-1.1,2.5-2.5,2.5s-2.5-1.1-2.5-2.5"/>
</g>
<g>
	<path class="st23" d="M163.3,0c0.1,0,0.1,0,0.2,0.1c0.4,0.2,0.7,0.6,1,0.9c0.7,1.1,1.3,2.4,1.6,3.7c0.2,1.1,0.3,2.4,1,3.3
		c0.8,1,2.1,1.5,3.1,2.2c3.3,2.4,4,7.1,7.2,9.7c4,3.2,10.7,1.5,14.8-0.5c5-2.5,23.4-2.5,23.6,13.7s-7,37.6-20.1,49
		c-13.1,11.4-27.9,18.7-40.5,13.4c-2.5-1-5.1-2.1-7.4-3.6c-1-0.6-2-1.9-3.1-2.3c-1-0.4-1.9,0.1-2.9-0.8c-0.8-0.7-1.3-1.6-1.8-2.5
		c-0.6-1.1-1.2-2.2-1.9-3.2c-0.5-0.9-1-1.8-1.8-2.4c-1.5-1.2-4.4-1.1-6.1-0.4c-4.9,2-0.1,4.8,1,7.7c1.3,3.6-1.4,7.5,1.5,10.4
		c0.7,0.7,2.2,0.9,2.6,1.7c0.9,1.8-1.8,1.6-3,1.5s-2.4-0.1-3.6-0.2c-1.7-0.1-3.3-0.1-5-0.4c-1.5-0.3-5.3-1-6.3-2.4
		c-0.4-0.7,0-1.4-0.1-2.1c-0.1-1-0.3-1.3-0.8-2.2c-0.9-2-1.7-4.1-1.7-6.3c0-3.1,1.5-4.3,3.1-6.5c1.5-2-0.9-5.5-0.1-8.2
		c0.6-2.2,2.2-4,4.3-5c1-0.5,2.1-0.8,3.2-1.1c2.3-0.6,4.4-0.5,6.5,0.6c1,0.5,1.9,1.5,2.9,1.8c1.3,0.4,2.9,0.4,4.3,0.8
		c1.1,0.3,2.1,0.7,3,1.3c0.6,0.4,1.2,1,1.8,1.4c4.8,3.3,13.9-3,17.8-5.7c8.3-5.7,11-15.3,13.7-24.5c1.6-5.4-0.6-9.3-4.7-13
		c-1.7-1.5-2.8-2-4.8-2.9s-3.9-2.1-4.9-4.1c-1.3-2.5-0.8-5.9-3-7.8c-0.9-0.8-2.1-1.2-2.6-2.3c-0.2-0.5-0.3-1.1-0.3-1.6
		c0-2.9,1.4-6.3,3.3-8.5C159.3,1.7,161.3-0.6,163.3,0z"/>
	
		<linearGradient id="SVGID_5_" gradientUnits="userSpaceOnUse" x1="212.5208" y1="34.7449" x2="187.7744" y2="63.3181" gradientTransform="matrix(0.9667 2.186714e-02 2.816573e-02 -1.0109 -12.9714 107.4126)">
		<stop  offset="0" style="stop-color:#D13333;stop-opacity:0"/>
		<stop  offset="0.3195" style="stop-color:#BB2C2C;stop-opacity:0.3195"/>
		<stop  offset="0.6623" style="stop-color:#AD2728;stop-opacity:0.6623"/>
		<stop  offset="1" style="stop-color:#A92626"/>
	</linearGradient>
	<path class="st26" d="M186.1,28.7c0.3-0.2,0.5-0.5,0.8-0.7c2.9-2.5,6.7-4.1,10.5-4c6.5,0.1,9.7,4.9,11.9,10.4
		c1.5,3.6,1.8,7.6,1.3,11.4c-1.3,11-6.3,21.7-14.1,29.4c-5.4,5.3-10.3,11-17.2,14.4c-9.5,4.6-25.6,5-31-6.1
		c-0.5-1.1-0.9-2.4-0.7-3.6c0.6-3.5,5.5-3.8,8.2-4.9c3.3-1.5,6.4-3.4,9.2-5.7c4.3-3.7,7.8-8.3,10-13.5c2.5-5.8,3.4-12.3,5.6-18.3
		C181.7,34.1,183.6,31.1,186.1,28.7z"/>
	<path class="st3" d="M185.7,35.4v1c0,1,0.8,1.7,1.7,1.7s1.7-0.8,1.7-1.7v-1.7L185.7,35.4z"/>
	<path class="st3" d="M205,35.4v1c0,1-0.8,1.7-1.7,1.7s-1.7-0.8-1.7-1.7v-1.7L205,35.4z"/>
	<line class="st25" x1="192.6" y1="39.2" x2="198.7" y2="39.2"/>
	<line class="st27" x1="204.5" y1="74.1" x2="204.5" y2="74.1"/>
	<path class="st28" d="M196.5,73.5c-1-0.9-1.1-2.4-0.2-3.4c0.9-1,2.4-1.1,3.4-0.2l3.9,3.4c0.2-0.3,0.4-0.6,0.6-0.9l-5.3-4.6
		c-1.5-1.3-3.6-1.1-4.9,0.4s-1.1,3.6,0.4,4.9L200,78c0.2-0.3,0.5-0.6,0.7-0.8L196.5,73.5z"/>
	<path class="st29" d="M196.3,70.1c-0.9,1-0.8,2.5,0.2,3.4l4.2,3.6c1-1.2,2-2.5,2.9-3.8l-4-3.4C198.7,69,197.1,69.1,196.3,70.1z"/>
	<path class="st28" d="M165.4,77.4c1.6-1,2.1-3.2,1.1-4.8l-3.7-5.8c-0.3,0.2-0.6,0.4-0.9,0.7l2.6,4.1c0.7,1.1,0.4,2.6-0.7,3.3
		c-1.1,0.7-2.6,0.4-3.3-0.7l-2.5-4c-0.3,0.2-0.6,0.4-0.9,0.6l3.6,5.6C161.6,77.9,163.8,78.4,165.4,77.4z"/>
	<path class="st29" d="M158,70.1l2.5,4c0.7,1.1,2.2,1.4,3.3,0.7c1.1-0.7,1.4-2.2,0.7-3.3l-2.6-4.1c-0.1,0.1-0.2,0.1-0.3,0.2
		C160.7,68.3,159.4,69.2,158,70.1z"/>
</g>
<g>
	<path class="st23" d="M46.1,0.3c0.5,0.4,0.9,1.2,1.4,2c1.1,2,2.3,4,3.5,6c2.3,3.7,4.8,8.5,8.4,11.2c4.5,3.2,10.7,2.5,15.7,0
		S98.5,17,98.7,33.2c0.2,16.2-7,37.6-20.1,49s-27.9,18.7-40.5,13.4c-5.6-2.3-10.6-4.5-13.7-10c-0.5-0.9-0.9-1.8-1.5-2.5
		c-2.9-3.5-12.7-5.2-12.4,1.6c0.1,3.4,0.7,6.9,2.3,10c0.7,1.4,1.6,2.8,2.7,3.9c0.7,0.7,2.2,0.9,2.6,1.7c0.9,1.8-1.8,1.6-3,1.5
		s-2.4-0.1-3.6-0.2c-1.7-0.1-3.3-0.1-5-0.4c-1.5-0.3-5.3-1-6.3-2.4c-0.4-0.6-0.2-1.4-0.1-2.1c0.2-2.4,0.4-4.9,0.6-7.3
		C1.1,84.5,1.2,78.7,3,74.1c1.4-3.6,4.7-7.3,8.9-7.2c2.4,0.1,4.2,1.8,6,3.2c1.8,1.4,4.2,2.6,6.4,3.4c6.8,2.3,14.8-2.2,20.2-5.9
		c8.3-5.7,11-15.3,13.7-24.5c1.6-5.4-0.6-9.3-4.7-13c-4.6-4.2-8.8-9.1-11.7-14.6c-1-1.9-1.8-3.8-2.3-5.9c-0.7-2.7-0.3-4.4,1.6-6.7
		c0.7-0.8,1.4-1.6,2.2-2.2C44.7-0.2,45.5-0.2,46.1,0.3z"/>
	
		<linearGradient id="SVGID_6_" gradientUnits="userSpaceOnUse" x1="91.4466" y1="32.1457" x2="66.7001" y2="60.7189" gradientTransform="matrix(0.9667 2.186714e-02 2.816573e-02 -1.0109 -12.9714 107.4126)">
		<stop  offset="0" style="stop-color:#D13333;stop-opacity:0"/>
		<stop  offset="0.3195" style="stop-color:#BB2C2C;stop-opacity:0.3195"/>
		<stop  offset="0.6623" style="stop-color:#AD2728;stop-opacity:0.6623"/>
		<stop  offset="1" style="stop-color:#A92626"/>
	</linearGradient>
	<path class="st30" d="M69,28.7c0.3-0.2,0.5-0.5,0.8-0.7c2.9-2.5,6.7-4.1,10.5-4c6.5,0.1,9.7,4.9,11.9,10.4C93.7,38,94,42,93.5,45.8
		c-1.3,11-6.3,21.7-14.1,29.4c-5.4,5.3-10.3,11-17.2,14.4c-9.5,4.6-25.6,5-31-6.1c-0.5-1.1-0.9-2.4-0.7-3.6c0.6-3.5,5.5-3.8,8.2-4.9
		c3.3-1.5,6.4-3.4,9.2-5.7c4.3-3.7,7.8-8.3,10-13.5c2.5-5.8,3.4-12.3,5.6-18.3C64.6,34.1,66.4,31.1,69,28.7z"/>
	<path class="st3" d="M71.3,38.1L71.3,38.1c-1,0-1.7-0.8-1.7-1.7v-1.8c0-1,0.8-1.7,1.7-1.7l0,0c1,0,1.7,0.8,1.7,1.7v1.8
		C73,37.3,72.2,38.1,71.3,38.1z"/>
	<path class="st3" d="M87,38.1L87,38.1c-1,0-1.7-0.8-1.7-1.7v-1.8c0-1,0.8-1.7,1.7-1.7l0,0c1,0,1.7,0.8,1.7,1.7v1.8
		C88.8,37.3,88,38.1,87,38.1z"/>
	<path class="st31" d="M82.4,40.6c-0.8-0.8-2-1.2-3.2-1.2c-1.2,0-2.3,0.5-3.2,1.2c0.8,0.8,2,1.2,3.2,1.2
		C80.4,41.8,81.5,41.3,82.4,40.6z"/>
	<path class="st32" d="M74.5,37.2c0,1.3,0.6,2.5,1.5,3.4c0.8-0.8,2-1.2,3.2-1.2c1.2,0,2.3,0.5,3.2,1.2c0.9-0.8,1.5-2,1.5-3.4H74.5z"
		/>
</g>
</svg>
