<?xml version="1.0" encoding="utf-8"?>
<!-- Generator: Adobe Illustrator 22.0.1, SVG Export Plug-In . SVG Version: 6.00 Build 0)  -->
<svg version="1.1" xmlns="http://www.w3.org/2000/svg" xmlns:xlink="http://www.w3.org/1999/xlink" x="0px" y="0px"
	 viewBox="0 0 101.1 101.9" style="enable-background:new 0 0 101.1 101.9;" xml:space="preserve">
<style type="text/css">
	.st0{fill:url(#SVGID_1_);}
	.st1{opacity:0.3;fill:#757576;}
	.st2{fill:#54A5D3;}
	.st3{fill:#392812;}
	.st4{fill:#F1BAA5;}
	.st5{opacity:0.5;fill:#D28B6B;}
	.st6{fill:#8A2727;}
	.st7{fill:#B63030;}
	.st8{fill:#FFFFFF;}
	.st9{fill:#193058;}
	.st10{fill:#EAEAEA;}
	.st11{fill:#C54E3C;}
	.st12{fill:none;stroke:#392812;stroke-linecap:round;stroke-miterlimit:10;}
	.st13{opacity:0.35;fill:none;stroke:#FFFFFF;stroke-linecap:round;stroke-miterlimit:10;}
	.st14{fill:#2278B3;}
	.st15{fill:url(#SVGID_2_);}
	.st16{fill:#C49374;}
	.st17{opacity:0.45;fill:#925F43;}
	.st18{fill:#CE7167;}
	.st19{fill:#AA554C;}
	.st20{opacity:0.61;fill:url(#SVGID_3_);stroke:#D3897F;stroke-linecap:round;stroke-miterlimit:10;}
	.st21{opacity:0.61;fill:none;stroke:#D3897F;stroke-linecap:round;stroke-miterlimit:10;}
	.st22{fill:#D3897F;}
	.st23{fill:#E24345;}
	.st24{opacity:0.7011;fill:url(#SVGID_4_);}
	.st25{fill:none;stroke:#392812;stroke-linecap:round;stroke-linejoin:round;stroke-miterlimit:10;}
	.st26{opacity:0.7011;fill:url(#SVGID_5_);}
	.st27{fill:#CC6B28;}
	.st28{fill:#EE9854;}
	.st29{opacity:0.7011;fill:url(#SVGID_6_);}
	.st30{fill:#7C131C;}
	.st31{fill:#EF4545;}
</style>
<g id="Layer_1">
	<linearGradient id="SVGID_1_" gradientUnits="userSpaceOnUse" x1="-51.3784" y1="-123.2192" x2="-51.3784" y2="-49.6964">
		<stop  offset="0" style="stop-color:#DE9784"/>
		<stop  offset="1" style="stop-color:#C97872;stop-opacity:0.88"/>
		<stop  offset="1" style="stop-color:#C07167"/>
	</linearGradient>
	<path class="st0" d="M-23.2-89.4c1.2-1.3,1.9-3,1.9-4.8v-21.3c0-4.3-3.6-7.7-8-7.7h-22.1h-22.1c-4.4,0-8,3.5-8,7.7v21.3
		c0,1.8,0.7,3.5,1.9,4.8c1.1,1.2,2,2.6,2,4.1v12.9c0,1.7-0.6,3.4-1.8,4.7c0,0,0,0-0.1,0.1c-1.2,1.3-2,3-2,4.8v5.4
		c0,4.3,3.6,7.7,8,7.7h22.1h22.1c4.4,0,8-3.5,8-7.7v-5.4c0-1.8-0.8-3.5-2-4.8c0,0,0,0-0.1-0.1c-1.2-1.3-1.8-3-1.8-4.7v-12.9
		C-25.2-86.8-24.4-88.2-23.2-89.4z"/>
	<path class="st1" d="M-166-179.5h-46.5c-1,0-1.8-0.8-1.8-1.8v-1.2c0-1,0.8-1.8,1.8-1.8h46.5c1,0,1.8,0.8,1.8,1.8v1.2
		C-164.1-180.3-165-179.5-166-179.5z"/>
	<path class="st2" d="M-189.3-263.7c-8.3,0-15.1,5.2-15.1,11.7h30.2C-174.2-258.4-181-263.7-189.3-263.7z"/>
	<path class="st3" d="M-186.4-290.7v-13.8c0-4.5,3.7-8.2,8.2-8.2h0c4.5,0,8.2,3.7,8.2,8.2v13.8c0,4.5-3.7,8.2-8.2,8.2h0
		C-182.7-282.5-186.4-286.1-186.4-290.7z"/>
	<path class="st3" d="M-208.7-290.7v-13.8c0-4.5,3.7-8.2,8.2-8.2h0c4.5,0,8.2,3.7,8.2,8.2v13.8c0,4.5-3.7,8.2-8.2,8.2h0
		C-205-282.5-208.7-286.1-208.7-290.7z"/>
	<path class="st4" d="M-189.3-258.2L-189.3-258.2c-2,0-3.5-1.6-3.5-3.5v-6.6c0-2,1.6-3.5,3.5-3.5l0,0c2,0,3.5,1.6,3.5,3.5v6.6
		C-185.8-259.8-187.4-258.2-189.3-258.2z"/>
	<path class="st5" d="M-189.3-271.9L-189.3-271.9c-2,0-3.5,1.6-3.5,3.5v2.9c1.1,0.3,2.3,0.4,3.5,0.4h0c1.2,0,2.4-0.2,3.5-0.4v-2.9
		C-185.8-270.4-187.4-271.9-189.3-271.9z"/>
	<path class="st4" d="M-189.3-266.4L-189.3-266.4c-8.3,0-15.1-6.8-15.1-15.1V-301c0-8.3,6.8-15.1,15.1-15.1h0
		c8.3,0,15.1,6.8,15.1,15.1v19.6C-174.2-273.1-181-266.4-189.3-266.4z"/>
	<path class="st3" d="M-181.9-295.5h-14.8c-5,0-9.1-4.1-9.1-9.1v-4.3c0-5,4.1-9.1,9.1-9.1h14.8c5,0,9.1,4.1,9.1,9.1v4.3
		C-172.8-299.6-176.9-295.5-181.9-295.5z"/>
	<path class="st3" d="M-197.9-287.7L-197.9-287.7c-0.5,0-0.9-0.4-0.9-0.9v-2.8c0-0.5,0.4-0.9,0.9-0.9l0,0c0.5,0,0.9,0.4,0.9,0.9v2.8
		C-197.1-288.1-197.5-287.7-197.9-287.7z"/>
	<path class="st3" d="M-180-287.7L-180-287.7c-0.5,0-0.9-0.4-0.9-0.9v-2.8c0-0.5,0.4-0.9,0.9-0.9h0c0.5,0,0.9,0.4,0.9,0.9v2.8
		C-179.1-288.1-179.5-287.7-180-287.7z"/>
	<g>
		<path class="st6" d="M-192.4-278.9c0.8-0.8,1.9-1.2,3.1-1.2s2.3,0.5,3.1,1.2c0.8-0.7,1.3-1.7,1.5-2.8h-9.2
			C-193.8-280.6-193.2-279.6-192.4-278.9z"/>
		<path class="st7" d="M-192.4-278.9c0.8,0.8,1.9,1.2,3.1,1.2s2.3-0.5,3.1-1.2c-0.8-0.8-1.9-1.2-3.1-1.2S-191.6-279.6-192.4-278.9z"
			/>
		<path class="st8" d="M-184.7-282.5h-9.2c0,0.1,0,0.2,0,0.3c0,0.1,0,0.3,0.1,0.4h9.2c0-0.1,0.1-0.3,0.1-0.4
			C-184.7-282.2-184.7-282.3-184.7-282.5z"/>
	</g>
	<path class="st9" d="M-189.3-219L-189.3-219c5.5,0,10-4.4,11-10.1h-21.9C-199.3-223.3-194.8-219-189.3-219z"/>
	<rect x="-197.3" y="-227.9" class="st9" width="4.3" height="40.5"/>
	<rect x="-185.7" y="-227.9" class="st9" width="4.3" height="40.5"/>
	<path class="st4" d="M-200.3-225.6L-200.3-225.6c-2.3,0-4.1-1.9-4.1-4.1V-252h4.1V-225.6z"/>
	<path class="st4" d="M-178.4-225.6L-178.4-225.6c2.3,0,4.1-1.9,4.1-4.1V-252h-4.1V-225.6z"/>
	<rect x="-197.3" y="-187.4" class="st10" width="4.3" height="2.9"/>
	<rect x="-185.7" y="-187.4" class="st10" width="4.3" height="2.9"/>
	<path class="st11" d="M-192.2-183.1c0-1.6-1.3-2.9-2.9-2.9s-2.9,1.3-2.9,2.9v0.4h5.8V-183.1z"/>
	<rect x="-198" y="-182.7" class="st8" width="5.8" height="0.8"/>
	<path class="st11" d="M-180.6-183.1c0-1.6-1.3-2.9-2.9-2.9s-2.9,1.3-2.9,2.9v0.4h5.8V-183.1z"/>
	<rect x="-186.4" y="-182.7" class="st8" width="5.8" height="0.8"/>
	<path class="st4" d="M-54.4-255.6c-0.2,1.6-1.5,2.8-3.1,2.9c-0.1,0-0.3,0-0.4,0l-4.5-0.7l-3.4,0l-11.6-1.1
		c-1.1-0.1-2.1-0.3-2.9-0.5c-7.2-2.1-5.7-8.9-5.6-9.5c0,0,0,0,0,0l1.6-9.9c0.2-1.6,1.6-2.7,3.1-2.7c0.2,0,0.3,0,0.5,0
		c1.7,0.3,2.9,1.9,2.6,3.6l-1.3,8c0,0.1,0,0.2-0.1,0.4c-0.1,0.3-0.1,0.6-0.1,0.9v0c-0.3,2.5,0.9,3.1,1.6,3.3c0,0,0,0,0.1,0
		c0.3,0.1,0.5,0,0.5,0l20.2,2C-55.5-258.9-54.2-257.4-54.4-255.6z"/>
	<path class="st2" d="M-51.4-263.7c-8.3,0-8.1,0.1-14.4,3.7v6.4l25.3,1.5h4.1C-36.4-258.4-43.1-263.7-51.4-263.7z"/>
	<path class="st4" d="M-40.5-225.6L-40.5-225.6c2.3,0,4.1-1.9,4.1-4.1V-252h-4.1V-225.6z"/>
	<path class="st1" d="M-28.1-179.5h-46.5c-1,0-1.8-0.8-1.8-1.8v-1.2c0-1,0.8-1.8,1.8-1.8h46.5c1,0,1.8,0.8,1.8,1.8v1.2
		C-26.3-180.3-27.1-179.5-28.1-179.5z"/>
	<path class="st3" d="M-48.5-290.7v-13.8c0-4.5,3.7-8.2,8.2-8.2h0c4.5,0,8.2,3.7,8.2,8.2v13.8c0,4.5-3.7,8.2-8.2,8.2h0
		C-44.9-282.5-48.5-286.1-48.5-290.7z"/>
	<path class="st3" d="M-70.8-290.7v-13.8c0-4.5,3.7-8.2,8.2-8.2h0c4.5,0,8.2,3.7,8.2,8.2v13.8c0,4.5-3.7,8.2-8.2,8.2h0
		C-67.1-282.5-70.8-286.1-70.8-290.7z"/>
	<path class="st4" d="M-51.4-258.2L-51.4-258.2c-2,0-3.5-1.6-3.5-3.5v-6.6c0-2,1.6-3.5,3.5-3.5h0c2,0,3.5,1.6,3.5,3.5v6.6
		C-47.9-259.8-49.5-258.2-51.4-258.2z"/>
	<path class="st5" d="M-51.4-271.9L-51.4-271.9c-2,0-3.5,1.6-3.5,3.5v2.9c1.1,0.3,2.3,0.4,3.5,0.4h0c1.2,0,2.4-0.2,3.5-0.4v-2.9
		C-47.9-270.4-49.5-271.9-51.4-271.9z"/>
	<path class="st4" d="M-51.4-266.4L-51.4-266.4c-8.3,0-15.1-6.8-15.1-15.1V-301c0-8.3,6.8-15.1,15.1-15.1h0
		c8.3,0,15.1,6.8,15.1,15.1v19.6C-36.4-273.1-43.1-266.4-51.4-266.4z"/>
	<path class="st3" d="M-44-295.5h-14.8c-5,0-9.1-4.1-9.1-9.1v-4.3c0-5,4.1-9.1,9.1-9.1H-44c5,0,9.1,4.1,9.1,9.1v4.3
		C-34.9-299.6-39-295.5-44-295.5z"/>
	<path class="st3" d="M-60.1-287.7L-60.1-287.7c-0.5,0-0.9-0.4-0.9-0.9v-2.8c0-0.5,0.4-0.9,0.9-0.9l0,0c0.5,0,0.9,0.4,0.9,0.9v2.8
		C-59.2-288.1-59.6-287.7-60.1-287.7z"/>
	<path class="st3" d="M-42.1-287.7L-42.1-287.7c-0.5,0-0.9-0.4-0.9-0.9v-2.8c0-0.5,0.4-0.9,0.9-0.9h0c0.5,0,0.9,0.4,0.9,0.9v2.8
		C-41.2-288.1-41.6-287.7-42.1-287.7z"/>
	<path class="st9" d="M-51.4-219L-51.4-219c5.5,0,10-4.4,11-10.1h-21.9C-61.4-223.3-56.9-219-51.4-219z"/>
	<rect x="-59.4" y="-227.9" class="st9" width="4.3" height="40.5"/>
	<rect x="-47.8" y="-227.9" class="st9" width="4.3" height="40.5"/>
	<rect x="-59.4" y="-187.4" class="st10" width="4.3" height="2.9"/>
	<rect x="-47.8" y="-187.4" class="st10" width="4.3" height="2.9"/>
	<path class="st11" d="M-54.3-183.1c0-1.6-1.3-2.9-2.9-2.9s-2.9,1.3-2.9,2.9v0.4h5.8V-183.1z"/>
	<rect x="-60.2" y="-182.7" class="st8" width="5.8" height="0.8"/>
	<path class="st11" d="M-42.7-183.1c0-1.6-1.3-2.9-2.9-2.9s-2.9,1.3-2.9,2.9v0.4h5.8V-183.1z"/>
	<rect x="-48.5" y="-182.7" class="st8" width="5.8" height="0.8"/>
	<path class="st12" d="M-55.3-279.9c0.9,1.2,2.3,1.9,3.9,1.9s3-0.8,3.9-1.9"/>
	<path class="st4" d="M-82.7-261.7l0.5,0C-82.2-261.6-82.4-261.6-82.7-261.7z"/>
	
		<ellipse transform="matrix(7.379080e-02 -0.9973 0.9973 7.379080e-02 192.1308 -312.7761)" class="st4" cx="-72.3" cy="-259.8" rx="3.9" ry="4.5"/>
	<path class="st13" d="M-71.2-262.1c1.1,0.1,1.9,0.9,1.8,1.8"/>
	<g>
		<path class="st4" d="M55.3-225.6L55.3-225.6c-2.3,0-4.1-1.9-4.1-4.1v-19.8h4.1V-225.6z"/>
		<path class="st4" d="M77.2-225.6L77.2-225.6c2.3,0,4.1-1.9,4.1-4.1v-19.8h-4.1V-225.6z"/>
		<path class="st2" d="M70.9-253.2h-9c-1.8,0-3.3-1.5-3.3-3.3v-1.5c0-1.8,1.5-3.3,3.3-3.3h9c1.8,0,3.3,1.5,3.3,3.3v1.5
			C74.2-254.7,72.7-253.2,70.9-253.2z"/>
		<path class="st1" d="M89.6-179.5H43.1c-1,0-1.8-0.8-1.8-1.8v-1.2c0-1,0.8-1.8,1.8-1.8h46.5c1,0,1.8,0.8,1.8,1.8v1.2
			C91.4-180.3,90.6-179.5,89.6-179.5z"/>
		<path class="st2" d="M66.2-260.3c-8.3,0-15.1,4.8-15.1,10.8h30.2C81.3-255.5,74.6-260.3,66.2-260.3z"/>
		<path class="st14" d="M66.2-219L66.2-219c-6,0-11-4.9-11-11v-17.4c0-6,4.9-11,11-11h0c6,0,11,4.9,11,11v17.4
			C77.2-223.9,72.3-219,66.2-219z"/>
		<path class="st3" d="M69.2-284.6v-13.8c0-4.5,3.7-8.2,8.2-8.2h0c4.5,0,8.2,3.7,8.2,8.2v13.8c0,4.5-3.7,8.2-8.2,8.2h0
			C72.8-276.4,69.2-280.1,69.2-284.6z"/>
		<path class="st3" d="M46.9-284.6v-13.8c0-4.5,3.7-8.2,8.2-8.2h0c4.5,0,8.2,3.7,8.2,8.2v13.8c0,4.5-3.7,8.2-8.2,8.2h0
			C50.6-276.4,46.9-280.1,46.9-284.6z"/>
		<path class="st14" d="M68.8-254h-5.3c-1.8,0-3.3-1.5-3.3-3.3v0c0-1.8,1.5-3.3,3.3-3.3h5.3c1.8,0,3.3,1.5,3.3,3.3v0
			C72.1-255.5,70.6-254,68.8-254z"/>
		<path class="st4" d="M66.3-252.2L66.3-252.2c-2,0-3.5-1.6-3.5-3.5v-6.6c0-2,1.6-3.5,3.5-3.5h0c2,0,3.5,1.6,3.5,3.5v6.6
			C69.8-253.8,68.2-252.2,66.3-252.2z"/>
		<path class="st5" d="M66.3-265.9L66.3-265.9c-2,0-3.5,1.6-3.5,3.5v2.9c1.1,0.3,2.3,0.4,3.5,0.4h0c1.2,0,2.4-0.2,3.5-0.4v-2.9
			C69.8-264.3,68.2-265.9,66.3-265.9z"/>
		<path class="st4" d="M66.3-260.3L66.3-260.3c-8.3,0-15.1-6.8-15.1-15.1V-295c0-8.3,6.8-15.1,15.1-15.1h0c8.3,0,15.1,6.8,15.1,15.1
			v19.6C81.3-267.1,74.6-260.3,66.3-260.3z"/>
		<path class="st3" d="M73.7-289.5H58.8c-5,0-9.1-4.1-9.1-9.1v-4.3c0-5,4.1-9.1,9.1-9.1h14.8c5,0,9.1,4.1,9.1,9.1v4.3
			C82.8-293.6,78.7-289.5,73.7-289.5z"/>
		<path class="st9" d="M66.2-219L66.2-219c5.5,0,10-4.4,11-10.1H55.3C56.3-223.3,60.8-219,66.2-219z"/>
		<rect x="58.3" y="-187.4" class="st10" width="4.3" height="2.9"/>
		<rect x="69.9" y="-187.4" class="st10" width="4.3" height="2.9"/>
		<path class="st11" d="M63.4-183.1c0-1.6-1.3-2.9-2.9-2.9s-2.9,1.3-2.9,2.9v0.4h5.8V-183.1z"/>
		<rect x="57.5" y="-182.7" class="st8" width="5.8" height="0.8"/>
		<path class="st11" d="M75-183.1c0-1.6-1.3-2.9-2.9-2.9s-2.9,1.3-2.9,2.9v0.4H75V-183.1z"/>
		<rect x="69.1" y="-182.7" class="st8" width="5.8" height="0.8"/>
		<linearGradient id="SVGID_2_" gradientUnits="userSpaceOnUse" x1="67.2981" y1="-276.6467" x2="67.2981" y2="-273.7767">
			<stop  offset="0" style="stop-color:#309FBC"/>
			<stop  offset="1" style="stop-color:#71C493"/>
		</linearGradient>
		<path class="st15" d="M68.2-276.4v2.1c0,0.3-0.2,0.5-0.5,0.5c-0.3,0-0.5-0.2-0.5-0.5v-1.5c0,0.2-0.2,0.4-0.4,0.4
			c-0.2,0-0.4-0.2-0.4-0.4v-0.5c0-0.2,0.2-0.4,0.4-0.4h0.4v0.3H68.2z"/>
		<path class="st12" d="M70-275c-0.9-1.2-2.3-1.9-3.9-1.9s-3,0.8-3.9,1.9"/>
		<path class="st9" d="M58.3-222.7h4.3c0,0-3.7,7.6-4,16.5s4,18.8,4,18.8H58c0,0-4.5-12.1-4-18.8C54.4-213.1,58.3-222.7,58.3-222.7z
			"/>
		<path class="st9" d="M74.1-222.7h-4.3c0,0,3.7,7.6,4,16.5c0.3,8.9-4,18.8-4,18.8h4.6c0,0,4.5-12.1,4-18.8
			C78-213.1,74.1-222.7,74.1-222.7z"/>
		<path class="st3" d="M56.8-283.9v1.5c0,0.5,0.4,0.9,0.9,0.9s0.9-0.4,0.9-0.9v-1.9L56.8-283.9z"/>
		<path class="st3" d="M76.5-283.9v1.5c0,0.5-0.4,0.9-0.9,0.9s-0.9-0.4-0.9-0.9v-1.9L76.5-283.9z"/>
	</g>
	<path class="st14" d="M-40.5-229.1v-23.3c0-6.2-4.9-11.3-11-11.3h0c-6,0-11,5-11,11.3v23.3H-40.5z"/>
	<path class="st14" d="M-178.4-229.1v-23.3c0-6.2-4.9-11.3-11-11.3s-11,5-11,11.3v23.3H-178.4z"/>
	<path class="st4" d="M-164.1-49.7h-44.7c-4.3,0-7.7-3.5-7.7-7.7v-58.1c0-4.3,3.5-7.7,7.7-7.7h44.7c4.3,0,7.7,3.5,7.7,7.7v58.1
		C-156.4-53.1-159.8-49.7-164.1-49.7z"/>
	<path class="st16" d="M-186.4-65.6c0.4,0,0.7,0.5,0.7,1.2c0-0.1,0-0.2,0-0.3c0-0.9-0.3-1.6-0.7-1.6s-0.7,0.7-0.7,1.6
		c0,0.1,0,0.2,0,0.3C-187.1-65.1-186.8-65.6-186.4-65.6z"/>
	<ellipse class="st17" cx="-186.4" cy="-63.7" rx="0.5" ry="1.5"/>
	<path class="st4" d="M88-49.7H43.3c-4.3,0-7.7-3.5-7.7-7.7v-58.1c0-4.3,3.5-7.7,7.7-7.7H88c4.3,0,7.7,3.5,7.7,7.7v58.1
		C95.7-53.1,92.2-49.7,88-49.7z"/>
	<path class="st18" d="M-51.4-65.6c0.4,0,0.7,0.5,0.7,1.2c0-0.1,0-0.2,0-0.3c0-0.9-0.3-1.6-0.7-1.6s-0.7,0.7-0.7,1.6
		c0,0.1,0,0.2,0,0.3C-52-65.1-51.7-65.6-51.4-65.6z"/>
	<ellipse class="st19" cx="-51.4" cy="-63.7" rx="0.5" ry="1.5"/>
	<path class="st4" d="M-55.4-67.2h-11.7c-1.7,0-3.1-1.4-3.1-3.1v-0.5c0-1.7,1.4-3.1,3.1-3.1h11.7c1.7,0,3.1,1.4,3.1,3.1v0.5
		C-52.3-68.5-53.7-67.2-55.4-67.2z"/>
	<path class="st4" d="M-35.6-67.2h-11.7c-1.7,0-3.1-1.4-3.1-3.1v-0.5c0-1.7,1.4-3.1,3.1-3.1h11.7c1.7,0,3.1,1.4,3.1,3.1v0.5
		C-32.6-68.5-33.9-67.2-35.6-67.2z"/>
	<path class="st4" d="M-55.4-75.2h-11.7c-1.7,0-3.1-1.4-3.1-3.1v-0.5c0-1.7,1.4-3.1,3.1-3.1h11.7c1.7,0,3.1,1.4,3.1,3.1v0.5
		C-52.3-76.6-53.7-75.2-55.4-75.2z"/>
	<path class="st4" d="M-35.6-75.2h-11.7c-1.7,0-3.1-1.4-3.1-3.1v-0.5c0-1.7,1.4-3.1,3.1-3.1h11.7c1.7,0,3.1,1.4,3.1,3.1v0.5
		C-32.6-76.6-33.9-75.2-35.6-75.2z"/>
	<path class="st4" d="M-55.4-83.2h-11.7c-1.7,0-3.1-1.4-3.1-3.1v-0.5c0-1.7,1.4-3.1,3.1-3.1h11.7c1.7,0,3.1,1.4,3.1,3.1v0.5
		C-52.3-84.6-53.7-83.2-55.4-83.2z"/>
	<path class="st4" d="M-35.6-83.2h-11.7c-1.7,0-3.1-1.4-3.1-3.1v-0.5c0-1.7,1.4-3.1,3.1-3.1h11.7c1.7,0,3.1,1.4,3.1,3.1v0.5
		C-32.6-84.6-33.9-83.2-35.6-83.2z"/>
	<path class="st4" d="M-56.6-98h-18.8c-2.4,0-4.4-2-4.4-4.4v-12.1c0-2.4,2-4.4,4.4-4.4h18.8c2.4,0,4.4,2,4.4,4.4v12.1
		C-52.1-100-54.1-98-56.6-98z"/>
	<path class="st4" d="M-27.4-98h-18.8c-2.4,0-4.4-2-4.4-4.4v-12.1c0-2.4,2-4.4,4.4-4.4h18.8c2.4,0,4.4,2,4.4,4.4v12.1
		C-23-100-24.9-98-27.4-98z"/>
	<path class="st4" d="M-72-51.6h2.4c-1.5-5.3-5.2-9.6-10.1-11.8v4.1C-79.8-55-76.3-51.6-72-51.6z"/>
	<path class="st4" d="M-30.7-51.6h-2.4c1.5-5.3,5.2-9.6,10.1-11.8v4.1C-23-55-26.4-51.6-30.7-51.6z"/>
	<linearGradient id="SVGID_3_" gradientUnits="userSpaceOnUse" x1="65.652" y1="-70.2997" x2="65.652" y2="-51.4705">
		<stop  offset="0" style="stop-color:#F0B9A5;stop-opacity:0"/>
		<stop  offset="1" style="stop-color:#C77F75;stop-opacity:0.87"/>
		<stop  offset="1" style="stop-color:#C07167;stop-opacity:0.8"/>
	</linearGradient>
	<path class="st20" d="M92.7-70.5C92.7-60.3,80.6-52,65.7-52s-27.1-8.3-27.1-18.5"/>
	<path class="st21" d="M56.6-103.2c0.4,3.5-3.3,6.8-8.4,7.4s-9.5-1.7-10-5.1"/>
	<path class="st21" d="M75.3-103.2c-0.4,3.5,3.3,6.8,8.4,7.4c5.1,0.6,9.5-1.7,10-5.1"/>
	<path class="st16" d="M65.7-61.6c0.9,0,1.6,0.2,1.8,0.5c0,0,0-0.1,0-0.1c0-0.4-0.8-0.7-1.8-0.7c-1,0-1.8,0.3-1.8,0.7
		c0,0.1,0,0.1,0,0.1C64-61.3,64.8-61.6,65.7-61.6z"/>
	<ellipse class="st17" cx="65.7" cy="-60.7" rx="1.2" ry="0.7"/>
</g>
<g id="Layer_2">
	<circle class="st22" cx="-206.6" cy="-103.2" r="1.9"/>
	<circle class="st22" cx="-165.7" cy="-103.2" r="1.9"/>
	<circle class="st22" cx="45.5" cy="-103.2" r="1.9"/>
	<circle class="st22" cx="86.4" cy="-103.2" r="1.9"/>
	<circle class="st22" cx="-71.5" cy="-103.2" r="1.9"/>
	<circle class="st22" cx="-30.6" cy="-103.2" r="1.9"/>
	<g>
		<path class="st23" d="M-183.5,0.4c0.5,0.4,0.9,1.2,1.4,2c1.1,2,2.3,4,3.5,6c2.3,3.7,4.8,8.5,8.4,11.2c4.5,3.2,10.7,2.5,15.7,0
			s23.4-2.5,23.6,13.7s-7,37.6-20.1,49c-13.2,11.4-27.9,18.7-40.5,13.4c-5.6-2.3-10.6-4.5-13.7-10c-0.5-0.9-0.9-1.8-1.5-2.5
			c-2.9-3.5-12.7-5.2-12.4,1.6c0.1,3.4,0.7,6.9,2.3,10c0.7,1.4,1.6,2.8,2.7,3.9c0.7,0.7,2.2,0.9,2.6,1.7c0.9,1.8-1.8,1.6-3,1.5
			c-1.2-0.1-2.4-0.1-3.6-0.2c-1.7-0.1-3.3-0.1-5-0.4c-1.5-0.3-5.3-1-6.3-2.4c-0.4-0.6-0.2-1.4-0.1-2.1c0.2-2.4,0.4-4.9,0.6-7.3
			c0.4-4.9,0.5-10.7,2.3-15.3c1.4-3.6,4.7-7.3,8.9-7.2c2.4,0.1,4.2,1.8,6,3.2c1.8,1.4,4.2,2.6,6.4,3.4c6.8,2.3,14.8-2.2,20.2-5.9
			c8.3-5.7,11-15.3,13.7-24.5c1.6-5.4-0.6-9.3-4.7-13c-4.6-4.2-8.8-9.1-11.7-14.6c-1-1.9-1.8-3.8-2.3-5.9c-0.7-2.8-0.2-4.5,1.7-6.7
			c0.7-0.8,1.4-1.6,2.2-2.2C-184.9-0.1-184.1-0.1-183.5,0.4z"/>
		
			<linearGradient id="SVGID_4_" gradientUnits="userSpaceOnUse" x1="-151.3461" y1="79.3903" x2="-176.0926" y2="50.8171" gradientTransform="matrix(0.9667 2.186714e-02 -2.816573e-02 1.0109 -4.7712 6.967156e-02)">
			<stop  offset="0" style="stop-color:#D13333;stop-opacity:0"/>
			<stop  offset="0.3195" style="stop-color:#BB2C2C;stop-opacity:0.3195"/>
			<stop  offset="0.6623" style="stop-color:#AD2728;stop-opacity:0.6623"/>
			<stop  offset="1" style="stop-color:#A92626"/>
		</linearGradient>
		<path class="st24" d="M-160.6,28.8c0.3-0.2,0.5-0.5,0.8-0.7c2.9-2.5,6.7-4.1,10.5-4c6.5,0.1,9.7,4.9,11.9,10.4
			c1.5,3.6,1.8,7.6,1.3,11.4c-1.3,11-6.3,21.7-14.1,29.4c-5.4,5.3-10.3,11-17.2,14.4c-9.5,4.6-25.6,5-31-6.1
			c-0.5-1.1-0.9-2.4-0.7-3.6c0.6-3.5,5.5-3.8,8.2-4.9c3.3-1.5,6.4-3.4,9.2-5.7c4.3-3.7,7.8-8.3,10-13.5c2.5-5.8,3.4-12.3,5.6-18.3
			C-165,34.2-163.1,31.2-160.6,28.8z"/>
		<path class="st3" d="M-158.3,38.2L-158.3,38.2c-1,0-1.7-0.8-1.7-1.7v-1.8c0-1,0.8-1.7,1.7-1.7l0,0c1,0,1.7,0.8,1.7,1.7v1.8
			C-156.6,37.4-157.3,38.2-158.3,38.2z"/>
		<path class="st3" d="M-142.5,38.2L-142.5,38.2c-1,0-1.7-0.8-1.7-1.7v-1.8c0-1,0.8-1.7,1.7-1.7h0c1,0,1.7,0.8,1.7,1.7v1.8
			C-140.8,37.4-141.6,38.2-142.5,38.2z"/>
		<path class="st25" d="M-147.6,37.5c0,1.4-1.1,2.5-2.5,2.5c-1.4,0-2.5-1.1-2.5-2.5"/>
	</g>
	<g>
		<path class="st23" d="M48.5,0.1c0.1,0,0.1,0,0.2,0.1c0.4,0.2,0.7,0.6,1,0.9c0.7,1.1,1.3,2.4,1.6,3.7c0.2,1.1,0.3,2.4,1,3.3
			c0.8,1,2.1,1.5,3.1,2.2c3.3,2.4,4,7.1,7.2,9.7c4,3.2,10.7,1.5,14.8-0.5c5-2.5,23.4-2.5,23.6,13.7s-7,37.6-20.1,49
			s-27.9,18.7-40.5,13.4c-2.5-1-5.1-2.1-7.4-3.6c-1-0.6-2-1.9-3.1-2.3c-1-0.4-1.9,0.1-2.9-0.8c-0.8-0.7-1.3-1.6-1.8-2.5
			c-0.6-1.1-1.2-2.2-1.9-3.2c-0.5-0.9-1-1.8-1.8-2.4c-1.5-1.2-4.4-1.1-6.1-0.4c-4.9,2-0.1,4.8,1,7.7c1.3,3.6-1.4,7.5,1.5,10.4
			c0.7,0.7,2.2,0.9,2.6,1.7c0.9,1.8-1.8,1.6-3,1.5c-1.2-0.1-2.4-0.1-3.6-0.2c-1.7-0.1-3.3-0.1-5-0.4c-1.5-0.3-5.3-1-6.3-2.4
			c-0.4-0.7,0-1.4-0.1-2.1c-0.1-1-0.3-1.3-0.8-2.2c-0.9-2-1.7-4.1-1.7-6.3c0-3.1,1.5-4.3,3.1-6.5c1.5-2-0.9-5.5-0.1-8.2
			c0.6-2.2,2.2-4,4.3-5c1-0.5,2.1-0.8,3.2-1.1c2.3-0.6,4.4-0.5,6.5,0.6c1,0.5,1.9,1.5,2.9,1.8c1.3,0.4,2.9,0.4,4.3,0.8
			c1.1,0.3,2.1,0.7,3,1.3c0.6,0.4,1.2,1,1.8,1.4c4.8,3.3,13.9-3,17.8-5.7c8.3-5.7,11-15.3,13.7-24.5c1.6-5.4-0.6-9.3-4.7-13
			c-1.7-1.5-2.8-2-4.8-2.9c-2-0.9-3.9-2.1-4.9-4.1c-1.3-2.5-0.8-5.9-3-7.8c-0.9-0.8-2.1-1.2-2.6-2.3c-0.2-0.5-0.3-1.1-0.3-1.6
			c0-2.9,1.4-6.3,3.3-8.5C44.5,1.8,46.5-0.5,48.5,0.1z"/>
		
			<linearGradient id="SVGID_5_" gradientUnits="userSpaceOnUse" x1="88.3986" y1="74.2044" x2="63.6522" y2="45.6312" gradientTransform="matrix(0.9667 2.186714e-02 -2.816573e-02 1.0109 -4.7712 6.967156e-02)">
			<stop  offset="0" style="stop-color:#D13333;stop-opacity:0"/>
			<stop  offset="0.3195" style="stop-color:#BB2C2C;stop-opacity:0.3195"/>
			<stop  offset="0.6623" style="stop-color:#AD2728;stop-opacity:0.6623"/>
			<stop  offset="1" style="stop-color:#A92626"/>
		</linearGradient>
		<path class="st26" d="M71.3,28.8c0.3-0.2,0.5-0.5,0.8-0.7c2.9-2.5,6.7-4.1,10.5-4c6.5,0.1,9.7,4.9,11.9,10.4
			c1.5,3.6,1.8,7.6,1.3,11.4c-1.3,11-6.3,21.7-14.1,29.4c-5.4,5.3-10.3,11-17.2,14.4c-9.5,4.6-25.6,5-31-6.1
			c-0.5-1.1-0.9-2.4-0.7-3.6c0.6-3.5,5.5-3.8,8.2-4.9c3.3-1.5,6.4-3.4,9.2-5.7c4.3-3.7,7.8-8.3,10-13.5c2.5-5.8,3.4-12.3,5.6-18.3
			C66.9,34.2,68.8,31.2,71.3,28.8z"/>
		<path class="st3" d="M70.9,35.5v1c0,1,0.8,1.7,1.7,1.7s1.7-0.8,1.7-1.7v-1.7L70.9,35.5z"/>
		<path class="st3" d="M90.2,35.5v1c0,1-0.8,1.7-1.7,1.7s-1.7-0.8-1.7-1.7v-1.7L90.2,35.5z"/>
		<line class="st25" x1="77.8" y1="39.3" x2="83.9" y2="39.3"/>
		<line class="st27" x1="89.7" y1="74.2" x2="89.7" y2="74.2"/>
		<path class="st28" d="M81.7,73.6c-1-0.9-1.1-2.4-0.2-3.4c0.9-1,2.4-1.1,3.4-0.2l3.9,3.4c0.2-0.3,0.4-0.6,0.6-0.9l-5.3-4.6
			c-1.5-1.3-3.6-1.1-4.9,0.4c-1.3,1.5-1.1,3.6,0.4,4.9l5.6,4.9c0.2-0.3,0.5-0.6,0.7-0.8L81.7,73.6z"/>
		<path class="st27" d="M81.5,70.2c-0.9,1-0.8,2.5,0.2,3.4l4.2,3.6c1-1.2,2-2.5,2.9-3.8L84.8,70C83.9,69.1,82.3,69.2,81.5,70.2z"/>
		<path class="st28" d="M50.6,77.5c1.6-1,2.1-3.2,1.1-4.8L48,66.9c-0.3,0.2-0.6,0.4-0.9,0.7l2.6,4.1c0.7,1.1,0.4,2.6-0.7,3.3
			c-1.1,0.7-2.6,0.4-3.3-0.7l-2.5-4c-0.3,0.2-0.6,0.4-0.9,0.6l3.6,5.6C46.8,78,49,78.5,50.6,77.5z"/>
		<path class="st27" d="M43.2,70.2l2.5,4c0.7,1.1,2.2,1.4,3.3,0.7c1.1-0.7,1.4-2.2,0.7-3.3l-2.6-4.1c-0.1,0.1-0.2,0.1-0.3,0.2
			C45.9,68.4,44.6,69.3,43.2,70.2z"/>
	</g>
	<g>
		<path class="st23" d="M-68.7,0.4c0.5,0.4,0.9,1.2,1.4,2c1.1,2,2.3,4,3.5,6c2.3,3.7,4.8,8.5,8.4,11.2c4.5,3.2,10.7,2.5,15.7,0
			s23.4-2.5,23.6,13.7c0.2,16.2-7,37.6-20.1,49s-27.9,18.7-40.5,13.4c-5.6-2.3-10.6-4.5-13.7-10c-0.5-0.9-0.9-1.8-1.5-2.5
			c-2.9-3.5-12.7-5.2-12.4,1.6c0.1,3.4,0.7,6.9,2.3,10c0.7,1.4,1.6,2.8,2.7,3.9c0.7,0.7,2.2,0.9,2.6,1.7c0.9,1.8-1.8,1.6-3,1.5
			c-1.2-0.1-2.4-0.1-3.6-0.2c-1.7-0.1-3.3-0.1-5-0.4c-1.5-0.3-5.3-1-6.3-2.4c-0.4-0.6-0.2-1.4-0.1-2.1c0.2-2.4,0.4-4.9,0.6-7.3
			c0.4-4.9,0.5-10.7,2.3-15.3c1.4-3.6,4.7-7.3,8.9-7.2c2.4,0.1,4.2,1.8,6,3.2c1.8,1.4,4.2,2.6,6.4,3.4c6.8,2.3,14.8-2.2,20.2-5.9
			c8.3-5.7,11-15.3,13.7-24.5c1.6-5.4-0.6-9.3-4.7-13c-4.6-4.2-8.8-9.1-11.7-14.6c-1-1.9-1.8-3.8-2.3-5.9C-76,7-75.6,5.3-73.7,3
			c0.7-0.8,1.4-1.6,2.2-2.2C-70.1-0.1-69.3-0.1-68.7,0.4z"/>
		
			<linearGradient id="SVGID_6_" gradientUnits="userSpaceOnUse" x1="-32.6989" y1="76.8238" x2="-57.4454" y2="48.2506" gradientTransform="matrix(0.9667 2.186714e-02 -2.816573e-02 1.0109 -4.7712 6.967156e-02)">
			<stop  offset="0" style="stop-color:#D13333;stop-opacity:0"/>
			<stop  offset="0.3195" style="stop-color:#BB2C2C;stop-opacity:0.3195"/>
			<stop  offset="0.6623" style="stop-color:#AD2728;stop-opacity:0.6623"/>
			<stop  offset="1" style="stop-color:#A92626"/>
		</linearGradient>
		<path class="st29" d="M-45.8,28.8c0.3-0.2,0.5-0.5,0.8-0.7c2.9-2.5,6.7-4.1,10.5-4c6.5,0.1,9.7,4.9,11.9,10.4
			c1.5,3.6,1.8,7.6,1.3,11.4c-1.3,11-6.3,21.7-14.1,29.4c-5.4,5.3-10.3,11-17.2,14.4c-9.5,4.6-25.6,5-31-6.1
			c-0.5-1.1-0.9-2.4-0.7-3.6c0.6-3.5,5.5-3.8,8.2-4.9c3.3-1.5,6.4-3.4,9.2-5.7c4.3-3.7,7.8-8.3,10-13.5c2.5-5.8,3.4-12.3,5.6-18.3
			C-50.2,34.2-48.4,31.2-45.8,28.8z"/>
		<path class="st3" d="M-43.5,38.2L-43.5,38.2c-1,0-1.7-0.8-1.7-1.7v-1.8c0-1,0.8-1.7,1.7-1.7h0c1,0,1.7,0.8,1.7,1.7v1.8
			C-41.8,37.4-42.6,38.2-43.5,38.2z"/>
		<path class="st3" d="M-27.8,38.2L-27.8,38.2c-1,0-1.7-0.8-1.7-1.7v-1.8c0-1,0.8-1.7,1.7-1.7h0c1,0,1.7,0.8,1.7,1.7v1.8
			C-26,37.4-26.8,38.2-27.8,38.2z"/>
		<path class="st30" d="M-32.7,37.8h-6v0.8c0,0.8,0.3,1.5,0.8,2c0.7-0.3,1.4-0.5,2.2-0.5c0.8,0,1.5,0.2,2.2,0.5
			c0.5-0.5,0.8-1.2,0.8-2V37.8z"/>
		<path class="st31" d="M-37.9,40.7c0.5,0.6,1.3,1,2.2,1c0.9,0,1.6-0.4,2.2-1c-0.7-0.3-1.4-0.5-2.2-0.5
			C-36.5,40.1-37.3,40.3-37.9,40.7z"/>
	</g>
</g>
</svg>
