<?xml version="1.0" encoding="utf-8"?>
<!-- Generator: Adobe Illustrator 22.0.1, SVG Export Plug-In . SVG Version: 6.00 Build 0)  -->
<svg version="1.1" xmlns="http://www.w3.org/2000/svg" xmlns:xlink="http://www.w3.org/1999/xlink" x="0px" y="0px"
	 viewBox="0 0 173.3 168.6" style="enable-background:new 0 0 173.3 168.6;" xml:space="preserve">
<style type="text/css">
	.st0{fill:url(#SVGID_1_);}
	.st1{fill:#673F1B;}
	.st2{opacity:0.41;fill:#723817;}
	.st3{fill:url(#SVGID_2_);}
	.st4{fill:#F8D2AC;stroke:#502F14;stroke-miterlimit:10;}
	.st5{fill:#F27755;}
	.st6{fill:#CD4E48;}
	.st7{fill:#CC5336;}
	.st8{fill:url(#SVGID_3_);}
	.st9{fill:none;stroke:#CD4E48;stroke-width:2;stroke-linecap:round;stroke-miterlimit:10;}
	.st10{fill:#F0EFEF;}
	.st11{fill:#392914;}
	.st12{fill:#E2E2E2;}
	.st13{fill:#EFAD9E;}
	.st14{fill:#C74C38;}
	.st15{fill:#582811;}
	.st16{fill:#FFFFFF;}
	.st17{opacity:0.327;fill:#8750A0;}
	.st18{fill:#D68B7F;}
	.st19{fill:none;stroke:#392914;stroke-width:2;stroke-linecap:round;stroke-miterlimit:10;}
	.st20{fill:none;stroke:#502F14;stroke-miterlimit:10;}
	.st21{fill:#0F1013;}
	.st22{opacity:0.19;}
	.st23{fill:#FBF9FC;}
	.st24{fill:#54A5D3;}
	.st25{fill:#392812;}
	.st26{fill:#F1BAA5;}
	.st27{fill:#2278B3;}
	.st28{opacity:0.5;fill:#D28B6B;}
	.st29{fill:#8A2727;}
	.st30{fill:#B63030;}
	.st31{fill:none;stroke:#000000;stroke-linecap:round;stroke-miterlimit:10;}
</style>
<g id="Layer_1">
	<linearGradient id="SVGID_1_" gradientUnits="userSpaceOnUse" x1="893.258" y1="-375.1577" x2="893.258" y2="-74.9871">
		<stop  offset="0" style="stop-color:#D4975D"/>
		<stop  offset="1" style="stop-color:#BA8351"/>
	</linearGradient>
	<path class="st0" d="M985-369.4l2.1-5.7h-35.3l-2.3,14.1l-2.3-14.1h-7.5l-0.8,7.7l-1.2-7.7H836.1v11.6l-1.4-11.6h-39.3v280.3
		l16.1,0.4c-6.5,2.6,3.4,22,3.4,22H991v-292.7l-1.5-7.9L985-369.4z"/>
	<text transform="matrix(1 0 0 1 828.11 -325.1857)" class="st1" style="font-family:'PlantagenetCherokee'; font-size:29.6602px;">WANTED</text>
	<path class="st2" d="M806-82.7l3.1-8.1h4.8c0,0-5.3,5.1,1.1,18.5"/>
	<linearGradient id="SVGID_2_" gradientUnits="userSpaceOnUse" x1="813.1279" y1="-92.1161" x2="804.5829" y2="-82.9348">
		<stop  offset="0" style="stop-color:#C18955"/>
		<stop  offset="0.1095" style="stop-color:#C88E58"/>
		<stop  offset="0.2937" style="stop-color:#D0945C"/>
		<stop  offset="0.4943" style="stop-color:#D4975D"/>
		<stop  offset="0.7902" style="stop-color:#C28955"/>
		<stop  offset="1" style="stop-color:#BA8351"/>
	</linearGradient>
	<path class="st3" d="M811.6-94.4l-16.1-0.4L815-72.4C815-72.4,805-91.8,811.6-94.4z"/>
	<g>
		<path class="st4" d="M619.9-157.6H456.7c-2.5,0-4.6-2-4.6-4.6v-158.4c0-2.5,2-4.6,4.6-4.6h163.2c2.5,0,4.6,2,4.6,4.6v158.4
			C624.4-159.6,622.4-157.6,619.9-157.6z"/>
		<path class="st5" d="M538.3-196.1L538.3-196.1c-20.1,0-36.4-16.3-36.4-36.4v-24.6c0-20.1,16.3-36.4,36.4-36.4h0
			c20.1,0,36.4,16.3,36.4,36.4v24.6C574.7-212.4,558.4-196.1,538.3-196.1z"/>
		<path class="st6" d="M538.3-230.6L538.3-230.6c-2.6,0-4.6-2.1-4.6-4.6v-20h9.3v20C542.9-232.7,540.8-230.6,538.3-230.6z"/>
		
			<rect x="536" y="-285" transform="matrix(-8.556943e-10 1 -1 -8.556943e-10 283.0281 -793.5399)" class="st6" width="4.6" height="59.5"/>
		<g>
			<path class="st5" d="M501.8-239c-4.1,0-7.5-3.4-7.5-7.5c0-4.1,3.4-7.5,7.5-7.5"/>
			<path class="st7" d="M501.8-241.8c-2.6,0-4.7-2.1-4.7-4.7s2.1-4.7,4.7-4.7"/>
		</g>
		<g>
			<path class="st5" d="M574.7-254c4.1,0,7.5,3.4,7.5,7.5c0,4.1-3.4,7.5-7.5,7.5"/>
			<path class="st7" d="M574.7-251.2c2.6,0,4.7,2.1,4.7,4.7s-2.1,4.7-4.7,4.7"/>
		</g>
		<linearGradient id="SVGID_3_" gradientUnits="userSpaceOnUse" x1="547.6737" y1="-209.2754" x2="547.6737" y2="-220.0453">
			<stop  offset="0" style="stop-color:#FFD83B"/>
			<stop  offset="0.1765" style="stop-color:#FCCC3C"/>
			<stop  offset="0.499" style="stop-color:#F9B83C"/>
			<stop  offset="0.7838" style="stop-color:#F7AC3C"/>
			<stop  offset="0.9988" style="stop-color:#F7A73C"/>
		</linearGradient>
		<path class="st8" d="M551.8-219v7.6c0,1.1-0.9,2.1-2.1,2.1c-0.6,0-1.1-0.2-1.5-0.6s-0.6-0.9-0.6-1.5v-3.5c-0.2,1-1,1.7-2.1,1.7
			c-0.6,0-1.1-0.2-1.5-0.6c-0.4-0.4-0.6-0.9-0.6-1.5v-4.8h4.2v1.1H551.8z"/>
		<line class="st9" x1="521.1" y1="-219.6" x2="555.5" y2="-219.6"/>
		<g>
			<g>
				<path class="st10" d="M520.3-244.3c4.7,0,8.6-3.8,8.6-8.6h-17.2C511.7-248.2,515.6-244.3,520.3-244.3z"/>
			</g>
			<path class="st11" d="M520.6-247.6c3,0,5.4-2.4,5.4-5.4h-10.7C515.2-250,517.6-247.6,520.6-247.6z"/>
		</g>
		<g>
			<g>
				<path class="st10" d="M556.2-244.3c4.7,0,8.6-3.8,8.6-8.6h-17.2C547.6-248.2,551.5-244.3,556.2-244.3z"/>
			</g>
			<path class="st11" d="M556.5-247.6c3,0,5.4-2.4,5.4-5.4h-10.7C551.1-250,553.5-247.6,556.5-247.6z"/>
		</g>
		<g>
			<path d="M489.6-172.2v14.6H587v-14.6c0-1.8-0.2-3.6-0.6-5.4h-96.1C489.8-175.9,489.6-174.1,489.6-172.2z"/>
			<path d="M563.1-196.1h-49.6c-5.9,0-11.3,2.1-15.4,5.7h80.5C574.4-193.9,569-196.1,563.1-196.1z"/>
			<path d="M494.6-186.8c-1.3,1.7-2.4,3.6-3.3,5.7h93.9c-0.8-2-1.9-4-3.3-5.7H494.6z"/>
		</g>
		<path class="st12" d="M490.2-177.6h96.1c-0.3-1.2-0.7-2.4-1.1-3.6h-93.9C490.9-180,490.5-178.8,490.2-177.6z"/>
		<path class="st12" d="M578.5-190.4H498c-1.3,1.1-2.4,2.3-3.4,3.6H582C580.9-188.1,579.8-189.3,578.5-190.4z"/>
		<rect x="489.6" y="-164.1" class="st12" width="97.3" height="3.6"/>
		<rect x="489.6" y="-172.4" class="st12" width="97.3" height="3.6"/>
		<path class="st12" d="M518.7-196.1v0.9c0,9.3,8,16.7,17.9,16.7h5c9.9,0,17.9-7.5,17.9-16.7v-0.9H518.7z"/>
		<path class="st5" d="M539.1-181.2L539.1-181.2c-9.9,0-17.9-8-17.9-17.9v-1.6c0-4.7,3.8-8.6,8.6-8.6h18.7c4.7,0,8.6,3.8,8.6,8.6
			v1.6C557.1-189.2,549-181.2,539.1-181.2z"/>
	</g>
	<path class="st4" d="M533.2,186.9H370.1c-2.5,0-4.6-2-4.6-4.6V23.9c0-2.5,2-4.6,4.6-4.6h163.2c2.5,0,4.6,2,4.6,4.6v158.4
		C537.8,184.9,535.7,186.9,533.2,186.9z"/>
	<g>
		<polygon class="st13" points="432.4,186.8 422.2,187.3 425.7,158.2 437.1,159.5 		"/>
		<path class="st14" d="M437.3,166.6l-13.4-1.6l1.2-10.2c0.4-3.3,3.4-5.7,6.8-5.3l4.5,0.5c1.6,0.2,2.7,1.6,2.5,3.2L437.3,166.6z"/>
	</g>
	<g>
		<polygon class="st13" points="477.8,186.5 488,186.9 484.5,157.8 473.2,159.2 		"/>
		<path class="st14" d="M473,166.2l13.4-1.6l-1.2-10.2c-0.4-3.3-3.4-5.7-6.8-5.3l-4.5,0.5c-1.6,0.2-2.7,1.6-2.5,3.2L473,166.2z"/>
	</g>
	<path class="st15" d="M464.4,119.5h-17.7c-14.1,0-25.5-11.4-25.5-25.5V76.4c0-14.1,11.4-25.5,25.5-25.5h17.7
		c14.1,0,25.5,11.4,25.5,25.5v17.7C489.9,108.1,478.5,119.5,464.4,119.5z"/>
	<path class="st14" d="M477.4,186.5H433v-25.9c0-5.7,4.6-10.3,10.3-10.3h23.7c5.7,0,10.3,4.6,10.3,10.3V186.5z"/>
	<path class="st13" d="M455.2,162.2L455.2,162.2c-4.8,0-8.7-3.9-8.7-8.7v-15.3h17.4v15.3C463.9,158.3,460,162.2,455.2,162.2z"/>
	<path class="st13" d="M455.6,145.9L455.6,145.9c-16.4,0-29.6-13.3-29.6-29.6V86.9c0-16.4,13.3-29.6,29.6-29.6h0
		c16.4,0,29.6,13.3,29.6,29.6v29.4C485.2,132.7,471.9,145.9,455.6,145.9z"/>
	<circle class="st16" cx="439.5" cy="96.6" r="10.1"/>
	<path class="st17" d="M442.4,108.2c-1.3,0.2-2.5,0.1-3.6-0.1c1.2,1,2.9,1.6,4.7,1.5c3.2-0.3,5.7-2.7,5.4-5.4c0,0,0,0,0,0
		C448,106.1,445.5,107.7,442.4,108.2z"/>
	<path class="st17" d="M470.5,108.2c1.3,0.2,2.5,0.1,3.6-0.1c-1.2,1-2.9,1.6-4.7,1.5c-3.2-0.3-5.7-2.7-5.4-5.4c0,0,0,0,0,0
		C464.9,106.1,467.4,107.7,470.5,108.2z"/>
	<path class="st18" d="M439.5,86.5c-5.6,0-10.1,4.5-10.1,10.1h20.2C449.6,91,445.1,86.5,439.5,86.5z"/>
	<circle class="st11" cx="439.5" cy="99.2" r="1.7"/>
	<circle class="st16" cx="472.5" cy="96.6" r="10.1"/>
	<path class="st18" d="M472.5,86.5c-5.6,0-10.1,4.5-10.1,10.1h20.2C482.6,91,478.1,86.5,472.5,86.5z"/>
	<circle class="st11" cx="472.5" cy="99.2" r="1.7"/>
	<ellipse class="st15" cx="455.6" cy="68.3" rx="21.8" ry="13.4"/>
	<path class="st19" d="M449,121.5c0,0,5.7-5.7,12.5,0"/>
	<path class="st15" d="M441.2,85.2h-6.7c-1.2,0-2.2-1-2.2-2.2v0c0-1.2,1-2.2,2.2-2.2h6.7c1.2,0,2.2,1,2.2,2.2v0
		C443.3,84.3,442.4,85.2,441.2,85.2z"/>
	<path class="st15" d="M477.5,85.6h-6.7c-1.2,0-2.2-1-2.2-2.2v0c0-1.2,1-2.2,2.2-2.2h6.7c1.2,0,2.2,1,2.2,2.2v0
		C479.7,84.6,478.7,85.6,477.5,85.6z"/>
	<path class="st20" d="M533.2,186.9H370.1c-2.5,0-4.6-2-4.6-4.6V23.9c0-2.5,2-4.6,4.6-4.6h163.2c2.5,0,4.6,2,4.6,4.6v158.4
		C537.8,184.9,535.7,186.9,533.2,186.9z"/>
	<path class="st4" d="M-82.2,168.1h-163.2c-2.5,0-4.6-2-4.6-4.6V5.1c0-2.5,2-4.6,4.6-4.6h163.2c2.5,0,4.6,2,4.6,4.6v158.4
		C-77.6,166-79.7,168.1-82.2,168.1z"/>
	<path class="st20" d="M-82.2,168.1h-163.2c-2.5,0-4.6-2-4.6-4.6V5.1c0-2.5,2-4.6,4.6-4.6h163.2c2.5,0,4.6,2,4.6,4.6v158.4
		C-77.6,166-79.7,168.1-82.2,168.1z"/>
</g>
<g id="Layer_2">
	<path class="st21" d="M-137.2,168.3h-52.7v-34.4V129c0-7.4,6-13.4,13.4-13.4h25.9c7.4,0,13.4,6,13.4,13.4V168.3z"/>
	<rect x="-172.7" y="115.6" class="st16" width="18.4" height="52.7"/>
	<path d="M-162.8,126.2l2.8-2.8c0.6-0.6,0.2-1.7-0.7-1.7h-5.6c-0.9,0-1.3,1.1-0.7,1.7l2.8,2.8C-163.8,126.6-163.2,126.6-162.8,126.2
		z"/>
	<path class="st22" d="M-169.3,115.2l4.3,6.3l-6.1,3.8c-0.6,0.5-1.5,0-1.6-0.9l1.1-8.2L-169.3,115.2z"/>
	<path class="st22" d="M-158,116l-4,5.5l6.1,3.8c0.6,0.5,1.5,0,1.6-0.9l-1.3-7.4L-158,116z"/>
	<path class="st23" d="M-169.3,114.7l4.3,6.8l-6.1,3.2c-0.6,0.4-1.5,0-1.6-0.7l1.1-8.4L-169.3,114.7z"/>
	<path class="st23" d="M-157.7,114.7l-4.3,6.8l6.1,3.2c0.6,0.4,1.5,0,1.6-0.7l-1.1-8.4L-157.7,114.7z"/>
	<path class="st4" d="M168.2,168.1H5.1c-2.5,0-4.6-2-4.6-4.6V5.1c0-2.5,2-4.6,4.6-4.6h163.2c2.5,0,4.6,2,4.6,4.6v158.4
		C172.8,166,170.8,168.1,168.2,168.1z"/>
	<path class="st24" d="M86.7,129c-15.3,0-27.7,9.6-27.7,21.4h55.3C114.3,138.5,101.9,129,86.7,129z"/>
	<path class="st25" d="M51.1,82.5V51c0-6.6,5.4-12,12-12h6.2c6.6,0,12,5.4,12,12v31.5c0,6.6-5.4,12-12,12h-6.2
		C56.5,94.5,51.1,89.1,51.1,82.5z"/>
	<path class="st25" d="M93.1,82.5V51c0-6.6,5.4-12,12-12h6.2c6.6,0,12,5.4,12,12v31.5c0,6.6-5.4,12-12,12h-6.2
		C98.5,94.5,93.1,89.1,93.1,82.5z"/>
	<rect x="106.7" y="150.3" class="st26" width="7.6" height="18.1"/>
	<rect x="59" y="150.3" class="st26" width="7.6" height="18.1"/>
	<path class="st27" d="M106.7,168.5v-18.8c0-11.4-9-20.7-20.1-20.7s-20.1,9.3-20.1,20.7v18.8H106.7z"/>
	<path class="st26" d="M86.7,138.9L86.7,138.9c-3.6,0-6.5-2.9-6.5-6.5v-12.2c0-3.6,2.9-6.5,6.5-6.5h0c3.6,0,6.5,2.9,6.5,6.5v12.2
		C93.1,136,90.2,138.9,86.7,138.9z"/>
	<path class="st28" d="M86.7,113.8L86.7,113.8c-3.6,0-6.5,2.9-6.5,6.5v5.4c2.1,0.5,4.2,0.8,6.5,0.8h0c2.2,0,4.4-0.3,6.5-0.8v-5.4
		C93.1,116.7,90.2,113.8,86.7,113.8z"/>
	<path class="st26" d="M86.7,124L86.7,124C71.4,124,59,111.7,59,96.4V60.5c0-15.3,12.4-27.7,27.7-27.7h0c15.3,0,27.7,12.4,27.7,27.7
		v35.9C114.3,111.7,101.9,124,86.7,124z"/>
	<path class="st25" d="M98.8,70.5H74.5c-10,0-18.1-8.1-18.1-18.1v-5c0-10,8.1-18.1,18.1-18.1h24.3c10,0,18.1,8.1,18.1,18.1v5
		C116.9,62.4,108.8,70.5,98.8,70.5z"/>
	<path class="st25" d="M70.9,85L70.9,85c-0.9,0-1.6-0.7-1.6-1.6v-5.1c0-0.9,0.7-1.6,1.6-1.6h0c0.9,0,1.6,0.7,1.6,1.6v5.1
		C72.4,84.3,71.7,85,70.9,85z"/>
	<path class="st25" d="M103.8,85L103.8,85c-0.9,0-1.6-0.7-1.6-1.6v-5.1c0-0.9,0.7-1.6,1.6-1.6h0c0.9,0,1.6,0.7,1.6,1.6v5.1
		C105.4,84.3,104.7,85,103.8,85z"/>
	<g>
		<path class="st29" d="M81,101.1c1.5-1.4,3.5-2.2,5.7-2.2s4.2,0.9,5.7,2.2c1.5-1.3,2.4-3.2,2.7-5.2H78.3
			C78.5,97.9,79.5,99.7,81,101.1z"/>
		<path class="st30" d="M81,101.1c1.5,1.4,3.5,2.2,5.7,2.2s4.2-0.9,5.7-2.2c-1.5-1.4-3.5-2.2-5.7-2.2S82.5,99.7,81,101.1z"/>
		<path class="st16" d="M95.1,94.5H78.2c0,0.2-0.1,0.4-0.1,0.6c0,0.3,0.1,0.5,0.1,0.7h16.8c0-0.2,0.1-0.5,0.1-0.7
			C95.2,94.9,95.1,94.7,95.1,94.5z"/>
	</g>
	<path class="st25" d="M-195.6,74.7V58.9c0-6.6,5.4-12,12-12h2.8c6.6,0,12,5.4,12,12v15.8c0,6.6-5.4,12-12,12h-2.8
		C-190.2,86.7-195.6,81.3-195.6,74.7z"/>
	<path class="st25" d="M-158.3,74.9V59.1c0-6.6,5.4-12,12-12h2.8c6.6,0,12,5.4,12,12v15.8c0,6.6-5.4,12-12,12h-2.8
		C-152.9,86.9-158.3,81.5-158.3,74.9z"/>
	<path class="st26" d="M-163.5,121.7L-163.5,121.7c-3.2,0-5.8-2.6-5.8-5.8v-10.8c0-3.2,2.6-5.8,5.8-5.8h0c3.2,0,5.8,2.6,5.8,5.8
		v10.8C-157.8,119.1-160.4,121.7-163.5,121.7z"/>
	<path class="st28" d="M-163.5,99.4L-163.5,99.4c-3.2,0-5.8,2.6-5.8,5.8v4.8c1.8,0.4,3.8,0.7,5.8,0.7h0c2,0,3.9-0.3,5.8-0.7v-4.8
		C-157.8,102-160.4,99.4-163.5,99.4z"/>
	<path class="st26" d="M-163.5,108.8L-163.5,108.8c-13.6,0-24.6-11-24.6-24.6V59.4c0-13.6,11-24.6,24.6-24.6h0
		c13.6,0,24.6,11,24.6,24.6v24.8C-139,97.8-150,108.8-163.5,108.8z"/>
	<path class="st20" d="M168.2,168.1H5.1c-2.5,0-4.6-2-4.6-4.6V5.1c0-2.5,2-4.6,4.6-4.6h163.2c2.5,0,4.6,2,4.6,4.6v158.4
		C172.8,166,170.8,168.1,168.2,168.1z"/>
	<path class="st25" d="M-148.1,59.8h-35c-4.2,0-7.6-3.4-7.6-7.6v0c0-13,10.6-23.6,23.6-23.6h37c2,0,3.6,1.6,3.6,3.6v6.1
		C-126.6,50.2-136.2,59.8-148.1,59.8z"/>
	<path d="M-165.3,127.7l-2.1,29.6c0,0.4,0.1,0.8,0.4,1.1l2.6,2.6c0.5,0.5,1.4,0.5,1.9,0l2.6-2.6c0.3-0.3,0.4-0.7,0.4-1.1l-2.6-29.6
		c-0.1-0.7-0.6-1.2-1.4-1.2h-0.5C-164.7,126.5-165.3,127-165.3,127.7z"/>
	<path class="st31" d="M-170.6,92.3h10.8c0,0,3.1,0,3.4-1.5"/>
	<path class="st25" d="M-177.9,78.8L-177.9,78.8c-1,0-1.8-0.8-1.8-1.8v-4.1c0-1,0.8-1.8,1.8-1.8l0,0c1,0,1.8,0.8,1.8,1.8v4.1
		C-176.1,77.9-176.9,78.8-177.9,78.8z"/>
	<path class="st25" d="M-147.6,78.8L-147.6,78.8c-1,0-1.8-0.8-1.8-1.8v-4.1c0-1,0.8-1.8,1.8-1.8h0c1,0,1.8,0.8,1.8,1.8v4.1
		C-145.8,77.9-146.6,78.8-147.6,78.8z"/>
</g>
</svg>
