<?xml version="1.0" encoding="utf-8"?>
<!-- Generator: Adobe Illustrator 22.0.1, SVG Export Plug-In . SVG Version: 6.00 Build 0)  -->
<svg version="1.1" xmlns="http://www.w3.org/2000/svg" xmlns:xlink="http://www.w3.org/1999/xlink" x="0px" y="0px"
	 viewBox="0 0 173.3 168.6" style="enable-background:new 0 0 173.3 168.6;" xml:space="preserve">
<style type="text/css">
	.st0{fill:url(#SVGID_1_);}
	.st1{fill:#67401A;}
	.st2{opacity:0.41;fill:#723817;}
	.st3{fill:url(#SVGID_2_);}
	.st4{fill:#F8D2AC;stroke:#502F14;stroke-miterlimit:10;}
	.st5{fill:#F27755;}
	.st6{fill:#CD4E48;}
	.st7{fill:#CC5336;}
	.st8{fill:url(#SVGID_3_);}
	.st9{fill:none;stroke:#CD4E48;stroke-width:2;stroke-linecap:round;stroke-miterlimit:10;}
	.st10{fill:#F0EFEF;}
	.st11{fill:#392914;}
	.st12{fill:#E2E2E2;}
	.st13{display:none;fill:#D3D3D3;}
	.st14{fill:#EFAD9E;}
	.st15{fill:#E8E8E8;}
	.st16{fill:#582811;}
	.st17{fill:url(#SVGID_4_);}
	.st18{fill:#FFFFFF;}
	.st19{opacity:0.327;fill:#8750A0;}
	.st20{fill:#D68B7F;}
	.st21{fill:none;stroke:#392914;stroke-width:2;stroke-linecap:round;stroke-miterlimit:10;}
	.st22{fill:none;stroke:#502F14;stroke-miterlimit:10;}
	.st23{fill:#D3D3D3;}
	.st24{fill:#077243;}
	.st25{fill:url(#SVGID_5_);}
	.st26{fill:none;}
	.st27{fill:url(#SVGID_6_);}
	.st28{fill:#54A5D3;}
	.st29{fill:#392812;}
	.st30{fill:#F1BAA5;}
	.st31{fill:#2278B3;}
	.st32{opacity:0.5;fill:#D28B6B;}
	.st33{fill:#8A2727;}
	.st34{fill:#B63030;}
	.st35{fill:#0F1013;}
	.st36{opacity:0.19;}
	.st37{fill:#FBF9FC;}
	.st38{fill:#ED947B;}
	.st39{opacity:0.5;fill:#D4725B;}
	.st40{fill:none;stroke:#000000;stroke-linecap:round;stroke-miterlimit:10;}
</style>
<g id="Layer_1">
	<linearGradient id="SVGID_1_" gradientUnits="userSpaceOnUse" x1="1143.6699" y1="-375.1577" x2="1143.6699" y2="-74.9871">
		<stop  offset="0" style="stop-color:#D4975D"/>
		<stop  offset="1" style="stop-color:#BA8351"/>
	</linearGradient>
	<path class="st0" d="M1235.4-369.4l2.1-5.7h-35.3l-2.3,14.1l-2.3-14.1h-7.5l-0.8,7.7l-1.2-7.7h-101.6v11.6l-1.4-11.6h-39.3v280.3
		l16.1,0.4c-6.5,2.6,3.4,22,3.4,22h176.1v-292.7l-1.5-7.9L1235.4-369.4z"/>
	
		<text transform="matrix(1 0 0 1 1078.5219 -325.1857)" class="st1" style="font-family:'PlantagenetCherokee'; font-size:29.6602px;">WANTED</text>
	<path class="st2" d="M1056.4-82.7l3.1-8.1h4.8c0,0-5.3,5.1,1.1,18.5"/>
	<linearGradient id="SVGID_2_" gradientUnits="userSpaceOnUse" x1="1063.5398" y1="-92.1161" x2="1054.9949" y2="-82.9348">
		<stop  offset="0" style="stop-color:#C18955"/>
		<stop  offset="0.1095" style="stop-color:#C88E58"/>
		<stop  offset="0.2937" style="stop-color:#D0945C"/>
		<stop  offset="0.4943" style="stop-color:#D4975D"/>
		<stop  offset="0.7902" style="stop-color:#C28955"/>
		<stop  offset="1" style="stop-color:#BA8351"/>
	</linearGradient>
	<path class="st3" d="M1062-94.4l-16.1-0.4l19.5,22.4C1065.4-72.4,1055.5-91.8,1062-94.4z"/>
	<path class="st4" d="M870.3,168.4H707.1c-2.5,0-4.6-2-4.6-4.6V5.4c0-2.5,2-4.6,4.6-4.6h163.2c2.5,0,4.6,2,4.6,4.6v158.4
		C874.8,166.3,872.8,168.4,870.3,168.4z"/>
	<path class="st5" d="M788.7,129.9L788.7,129.9c-20.1,0-36.4-16.3-36.4-36.4V68.9c0-20.1,16.3-36.4,36.4-36.4h0
		c20.1,0,36.4,16.3,36.4,36.4v24.6C825.1,113.6,808.8,129.9,788.7,129.9z"/>
	<path class="st6" d="M788.7,95.3L788.7,95.3c-2.6,0-4.6-2.1-4.6-4.6v-20h9.3v20C793.3,93.3,791.3,95.3,788.7,95.3z"/>
	
		<rect x="786.4" y="41" transform="matrix(-8.556943e-10 1 -1 -8.556943e-10 859.423 -717.9688)" class="st6" width="4.6" height="59.5"/>
	<g>
		<path class="st5" d="M752.3,87c-4.1,0-7.5-3.4-7.5-7.5c0-4.1,3.4-7.5,7.5-7.5"/>
		<path class="st7" d="M752.3,84.2c-2.6,0-4.7-2.1-4.7-4.7c0-2.6,2.1-4.7,4.7-4.7"/>
	</g>
	<g>
		<path class="st5" d="M825.1-254c4.1,0,7.5,3.4,7.5,7.5c0,4.1-3.4,7.5-7.5,7.5"/>
		<path class="st7" d="M825.1-251.2c2.6,0,4.7,2.1,4.7,4.7s-2.1,4.7-4.7,4.7"/>
	</g>
	<linearGradient id="SVGID_3_" gradientUnits="userSpaceOnUse" x1="798.0856" y1="116.7076" x2="798.0856" y2="105.9376">
		<stop  offset="0" style="stop-color:#FFD83B"/>
		<stop  offset="0.1765" style="stop-color:#FCCC3C"/>
		<stop  offset="0.499" style="stop-color:#F9B83C"/>
		<stop  offset="0.7838" style="stop-color:#F7AC3C"/>
		<stop  offset="0.9988" style="stop-color:#F7A73C"/>
	</linearGradient>
	<path class="st8" d="M802.2,107v7.6c0,1.1-0.9,2.1-2.1,2.1c-0.6,0-1.1-0.2-1.5-0.6s-0.6-0.9-0.6-1.5v-3.5c-0.2,1-1,1.7-2.1,1.7
		c-0.6,0-1.1-0.2-1.5-0.6c-0.4-0.4-0.6-0.9-0.6-1.5v-4.8h4.2v1.1H802.2z"/>
	<line class="st9" x1="771.5" y1="106.4" x2="805.9" y2="106.4"/>
	<g>
		<g>
			<path class="st10" d="M770.8,81.6c4.7,0,8.6-3.8,8.6-8.6h-17.2C762.2,77.8,766,81.6,770.8,81.6z"/>
		</g>
		<path class="st11" d="M771,78.4c3,0,5.4-2.4,5.4-5.4h-10.7C765.6,76,768,78.4,771,78.4z"/>
	</g>
	<g>
		<g>
			<path class="st10" d="M806.6,81.6c4.7,0,8.6-3.8,8.6-8.6H798C798,77.8,801.9,81.6,806.6,81.6z"/>
		</g>
		<path class="st11" d="M806.9,78.4c3,0,5.4-2.4,5.4-5.4h-10.7C801.5,76,803.9,78.4,806.9,78.4z"/>
	</g>
	<g>
		<path d="M740,153.8v14.6h97.3v-14.6c0-1.8-0.2-3.6-0.6-5.4h-96.1C740.2,150.1,740,151.9,740,153.8z"/>
		<path d="M813.5,129.9h-49.6c-5.9,0-11.3,2.1-15.4,5.7h80.5C824.8,132,819.4,129.9,813.5,129.9z"/>
		<path d="M745,139.2c-1.3,1.7-2.4,3.6-3.3,5.7h93.9c-0.8-2-1.9-4-3.3-5.7H745z"/>
	</g>
	<path class="st12" d="M740.6,148.4h96.1c-0.3-1.2-0.7-2.4-1.1-3.6h-93.9C741.3,146,740.9,147.2,740.6,148.4z"/>
	<path class="st12" d="M828.9,135.6h-80.5c-1.3,1.1-2.4,2.3-3.4,3.6h87.3C831.3,137.8,830.2,136.7,828.9,135.6z"/>
	<rect x="740" y="161.9" class="st12" width="97.3" height="3.6"/>
	<rect x="740" y="153.6" class="st12" width="97.3" height="3.6"/>
	<path class="st12" d="M769.1,129.9v0.9c0,9.3,8,16.7,17.9,16.7h5c9.9,0,17.9-7.5,17.9-16.7v-0.9H769.1z"/>
	<path class="st5" d="M789.5,144.8L789.5,144.8c-9.9,0-17.9-8-17.9-17.9v-1.6c0-4.7,3.8-8.6,8.6-8.6h18.7c4.7,0,8.6,3.8,8.6,8.6v1.6
		C807.5,136.8,799.4,144.8,789.5,144.8z"/>
	<g id="ik0zPN_1_">
		
			<image style="overflow:visible;" width="1774" height="2364" id="ik0zPN_2_" xlink:href="D79B3A7E4E4F7112.jpg"  transform="matrix(6.449118e-02 0 0 6.449118e-02 244.3469 -353.0349)">
		</image>
	</g>
	<path class="st13" d="M588.2-182l-5.2-8.4l-2.5-1.2v-4.4c0,0-4.3-0.9-4.6-2.1c-0.3-1.2,0.4,7.9,2.6,9.7c2.2,1.8,5.1,4.7,5.1,4.7
		L588.2-182z"/>
	<g>
		<path class="st4" d="M667.3-78.9H504.1c-2.5,0-4.6-2-4.6-4.6v-158.4c0-2.5,2-4.6,4.6-4.6h163.2c2.5,0,4.6,2,4.6,4.6v158.4
			C671.9-81,669.8-78.9,667.3-78.9z"/>
		<polygon class="st14" points="566.5,-79 556.3,-78.5 559.8,-107.6 571.1,-106.3 		"/>
		<path class="st15" d="M569.5-83.6L556-85.3l3.1-25.8c0.4-3.3,3.4-5.7,6.8-5.3l4.5,0.5c1.6,0.2,2.7,1.6,2.5,3.2L569.5-83.6z"/>
		<polygon class="st14" points="611.9,-79.3 622.1,-78.9 618.6,-108 607.3,-106.7 		"/>
		<path class="st15" d="M609-83.6l13.4-1.6l-3.2-26.2c-0.4-3.3-3.4-5.7-6.8-5.3l-4.5,0.5c-1.6,0.2-2.7,1.6-2.5,3.2L609-83.6z"/>
		<path class="st16" d="M598.5-146.3h-17.7c-14.1,0-25.5-11.4-25.5-25.5v-17.7c0-14.1,11.4-25.5,25.5-25.5h17.7
			c14.1,0,25.5,11.4,25.5,25.5v17.7C624-157.7,612.6-146.3,598.5-146.3z"/>
		<g>
			<linearGradient id="SVGID_4_" gradientUnits="userSpaceOnUse" x1="589.2869" y1="-100.4783" x2="589.2869" y2="-71.5256">
				<stop  offset="1.362180e-03" style="stop-color:#E8E8E8"/>
				<stop  offset="0.3374" style="stop-color:#DFDFDF"/>
				<stop  offset="0.7146" style="stop-color:#D9DADB"/>
				<stop  offset="1" style="stop-color:#D8D9DA"/>
			</linearGradient>
			<path class="st17" d="M611.5-79.3h-44.4v-25.9c0-5.7,4.6-10.3,10.3-10.3h23.7c5.7,0,10.3,4.6,10.3,10.3V-79.3z"/>
		</g>
		<path class="st14" d="M589.3-103.6L589.3-103.6c-4.8,0-8.7-3.9-8.7-8.7v-15.3H598v15.3C598-107.5,594.1-103.6,589.3-103.6z"/>
		<path class="st14" d="M589.7-119.9L589.7-119.9c-16.4,0-29.6-13.3-29.6-29.6v-29.4c0-16.4,13.3-29.6,29.6-29.6h0
			c16.4,0,29.6,13.3,29.6,29.6v29.4C619.3-133.1,606-119.9,589.7-119.9z"/>
		<circle class="st18" cx="573.6" cy="-169.2" r="10.1"/>
		<path class="st19" d="M576.5-157.6c-1.3,0.2-2.5,0.1-3.6-0.1c1.2,1,2.9,1.6,4.7,1.5c3.2-0.3,5.7-2.7,5.4-5.4c0,0,0,0,0,0
			C582.1-159.7,579.6-158.1,576.5-157.6z"/>
		<path class="st19" d="M604.6-157.6c1.3,0.2,2.5,0.1,3.6-0.1c-1.2,1-2.9,1.6-4.7,1.5c-3.2-0.3-5.7-2.7-5.4-5.4c0,0,0,0,0,0
			C599-159.7,601.5-158.1,604.6-157.6z"/>
		<path class="st20" d="M573.6-179.3c-5.6,0-10.1,4.5-10.1,10.1h20.2C583.7-174.8,579.2-179.3,573.6-179.3z"/>
		<ellipse class="st11" cx="573.6" cy="-166.7" rx="3" ry="1.7"/>
		<circle class="st18" cx="606.6" cy="-169.2" r="10.1"/>
		<path class="st20" d="M606.6-179.3c-5.6,0-10.1,4.5-10.1,10.1h20.2C616.7-174.8,612.2-179.3,606.6-179.3z"/>
		<ellipse class="st16" cx="589.7" cy="-197.5" rx="21.8" ry="13.4"/>
		<path class="st21" d="M583.1-144.3c0,0,5.7-5.7,12.5,0"/>
		<path class="st16" d="M575.3-180.6h-6.7c-1.2,0-2.2-1-2.2-2.2v0c0-1.2,1-2.2,2.2-2.2h6.7c1.2,0,2.2,1,2.2,2.2v0
			C577.4-181.6,576.5-180.6,575.3-180.6z"/>
		<path class="st16" d="M611.6-180.2h-6.7c-1.2,0-2.2-1-2.2-2.2l0,0c0-1.2,1-2.2,2.2-2.2h6.7c1.2,0,2.2,1,2.2,2.2l0,0
			C613.8-181.2,612.8-180.2,611.6-180.2z"/>
		<path class="st22" d="M667.3-78.9H504.1c-2.5,0-4.6-2-4.6-4.6v-158.4c0-2.5,2-4.6,4.6-4.6h163.2c2.5,0,4.6,2,4.6,4.6v158.4
			C671.9-81,669.8-78.9,667.3-78.9z"/>
		<path class="st15" d="M588.2-102.7l-5.2-8.4l-2.5-1.2v-3.7c0,0-4.3-1.7-4.7-2.9c0,0,0.5,8,2.7,9.8c2.2,1.8,5.1,4.7,5.1,4.7
			L588.2-102.7z"/>
		<polygon class="st23" points="594.6,-104.1 602.8,-106.7 596.6,-106.7 		"/>
		<path class="st23" d="M576.5-117.1c1.3,1.8,4.1,4.8,4.1,4.8v-3.7c0,0-4.3-1.7-4.7-2.9l0,0.2C576-118.2,576.2-117.6,576.5-117.1z"
			/>
		<path class="st15" d="M598-115.6c0,0-0.4,9.5-5.1,11.2l-4.7,1.7h4.9l3.4-3.2l6.2-0.8l-3.2-10.4H598V-115.6z"/>
		<polygon class="st23" points="579.8,-110.3 582.2,-109.7 587,-103.6 		"/>
		<path class="st24" d="M593.1-79.4c0.2-2.4-0.1-13.2-1.7-15.7l-2.1,0.1c-0.3,1.4-1.9,12.3-1.5,15.6H593.1z"/>
		<linearGradient id="SVGID_5_" gradientUnits="userSpaceOnUse" x1="586.348" y1="-113.898" x2="586.348" y2="-92.349">
			<stop  offset="0" style="stop-color:#087243"/>
			<stop  offset="0.3174" style="stop-color:#0F7043"/>
			<stop  offset="1" style="stop-color:#146E42"/>
		</linearGradient>
		<path class="st25" d="M598-117c0-0.1-0.1-0.2-0.2-0.2c-0.3,0-0.2,1.3-0.2,1.6c0,0.8-0.1,1.5-0.2,2.3c-0.2,0.9-0.3,1.7-0.5,2.6
			c-0.4,2-1,4-1.6,6c-0.6,1.7-1.3,3.5-2.4,5c-0.7,1-1.8,2.1-3.2,2c-0.6,0-1.2-0.2-1.8-0.5c-1.6-0.7-2.9-1.9-4.1-3.2
			c-1.4-1.5-2.6-3.2-3.8-4.9c-1-1.6-2-3.4-2.7-5.2c-0.3-0.7-0.6-1.5-0.8-2.2c-0.1-0.3-0.2-0.6-0.2-1c0-0.2,0-0.8-0.2-0.9
			c0,0-0.1,0-0.1,0c-0.3,0-0.7,0.1-1,0.2c-0.5,0.2-0.2,0.7-0.1,1c0.4,1.1,0.8,2.3,1.3,3.4c0.7,1.7,1.5,3.3,2.5,4.9
			c1.1,1.9,2.4,3.6,3.8,5.2c1.5,1.7,3.3,3.3,5.3,4.4c0.5,0.3,1.1,0.5,1.8,0.6c0.1,0,0.3,0,0.4,0c0.7,0,1.4-0.1,2-0.3
			c0.9-0.3,1.6-0.9,2.3-1.6c0.9-1,1.6-2.3,2.1-3.5c0.8-2,1.1-4.1,1.4-6.2c0.2-1.4,0.2-2.8,0.3-4.2c0.1-1.7,0.2-3.3,0.2-5
			C598.1-116.7,598.1-116.8,598-117z"/>
		<path class="st24" d="M588.4-88.8c-0.3,2.3-0.1,1.1-0.1,1.1"/>
		<path class="st24" d="M592.2-92.6c0,0-3.4,0.3-3.8,3.2l-0.3,2.5"/>
		<g>
			<path class="st26" d="M591.8-83.3c-0.7-1.5-2.1-11.2-2.1-11.7l-0.3,0c-0.3,1.4-1.9,12.3-1.5,15.6h5.3c0-0.4,0.1-1.1,0.1-1.9
				C592.6-81.9,592-82.7,591.8-83.3z"/>
			<path class="st26" d="M592.5-91.2c-0.3-1.7-0.6-3.2-1.1-3.9L590-95h0.6C590.6-95,591.7-93,592.5-91.2z"/>
			<linearGradient id="SVGID_6_" gradientUnits="userSpaceOnUse" x1="593.5731" y1="-81.5446" x2="591.1795" y2="-90.6769">
				<stop  offset="0" style="stop-color:#087243"/>
				<stop  offset="4.933041e-02" style="stop-color:#0E7143"/>
				<stop  offset="0.4223" style="stop-color:#216640"/>
				<stop  offset="0.7515" style="stop-color:#28603E"/>
				<stop  offset="1" style="stop-color:#2A5D3E"/>
			</linearGradient>
			<path class="st27" d="M590-94.7c-0.6,0.9-0.5,2.1-0.3,3.1c0.2,0.8,0.6,1.6,0.8,2.4c0.2,0.8,0.3,1.6,0.4,2.3
				c0.2,1.1,0.3,2.4,0.8,3.5c0.3,0.6,0.8,2.5,1.4,3.1c0-2.6-0.2-7.9-0.7-11.1c-0.8-1.8-1.9-3.8-1.9-3.8H590l-0.4,0
				c0,0.3,0.5,3.6,1,6.6"/>
		</g>
		<path class="st24" d="M590.2-95c0.4,2.7,0.8,5.5,1.3,8.2c0.2,0.9,0.3,1.7,0.5,2.6c0.2,0.7,0.4,1.3,0.6,2c0.2,0.6,0.4,1.3,0.7,1.8
			c0.2,0.3,0.4,0.5,0.5,0.8c0.1,0.1,0.1,0.3,0.1,0.4c0,0,0,0.1,0.1,0.1c0,0,0.1,0,0.1,0c0.3,0,0.9,0,1.2-0.2c0.1-0.1-0.1-1-0.1-1.1
			c-0.1-0.3-0.1-0.7-0.2-1c-0.2-0.9-0.4-1.8-0.6-2.6c-0.4-1.8-0.8-3.6-1.3-5.4c-0.1-0.4-0.2-0.8-0.4-1.2c-0.8-1.8-1.5-3.1-1.5-3.1
			S590.2-95,590.2-95z"/>
		<path class="st24" d="M587.5-97.8l5.1-0.6c0.6-0.1,1,0.4,0.7,0.9l-2.2,3.5c-0.2,0.4-0.9,0.5-1.2,0.1l-2.9-2.9
			C586.6-97.2,586.9-97.8,587.5-97.8z"/>
		<ellipse class="st11" cx="606.6" cy="-166.7" rx="3" ry="1.7"/>
	</g>
</g>
<g id="Layer_2">
	<path class="st4" d="M418.6,168.1H255.5c-2.5,0-4.6-2-4.6-4.6V5.1c0-2.5,2-4.6,4.6-4.6h163.2c2.5,0,4.6,2,4.6,4.6v158.4
		C423.2,166,421.2,168.1,418.6,168.1z"/>
	<path class="st28" d="M337.1,129c-15.3,0-27.7,9.6-27.7,21.4h55.3C364.7,138.5,352.3,129,337.1,129z"/>
	<path class="st29" d="M301.6,82.5V51c0-6.6,5.4-12,12-12h6.2c6.6,0,12,5.4,12,12v31.5c0,6.6-5.4,12-12,12h-6.2
		C306.9,94.5,301.6,89.1,301.6,82.5z"/>
	<path class="st29" d="M343.6,82.5V51c0-6.6,5.4-12,12-12h6.2c6.6,0,12,5.4,12,12v31.5c0,6.6-5.4,12-12,12h-6.2
		C348.9,94.5,343.6,89.1,343.6,82.5z"/>
	<rect x="357.2" y="150.3" class="st30" width="7.6" height="18.1"/>
	<rect x="309.4" y="150.3" class="st30" width="7.6" height="18.1"/>
	<path class="st31" d="M357.2,168.5v-18.8c0-11.4-9-20.7-20.1-20.7s-20.1,9.3-20.1,20.7v18.8H357.2z"/>
	<path class="st30" d="M337.1,138.9L337.1,138.9c-3.6,0-6.5-2.9-6.5-6.5v-12.2c0-3.6,2.9-6.5,6.5-6.5h0c3.6,0,6.5,2.9,6.5,6.5v12.2
		C343.6,136,340.7,138.9,337.1,138.9z"/>
	<path class="st32" d="M337.1,113.8L337.1,113.8c-3.6,0-6.5,2.9-6.5,6.5v5.4c2.1,0.5,4.2,0.8,6.5,0.8h0c2.2,0,4.4-0.3,6.5-0.8v-5.4
		C343.6,116.7,340.7,113.8,337.1,113.8z"/>
	<path class="st30" d="M337.1,124L337.1,124c-15.3,0-27.7-12.4-27.7-27.7V60.5c0-15.3,12.4-27.7,27.7-27.7h0
		c15.3,0,27.7,12.4,27.7,27.7v35.9C364.7,111.7,352.3,124,337.1,124z"/>
	<path class="st29" d="M349.2,70.5h-24.3c-10,0-18.1-8.1-18.1-18.1v-5c0-10,8.1-18.1,18.1-18.1h24.3c10,0,18.1,8.1,18.1,18.1v5
		C367.4,62.4,359.2,70.5,349.2,70.5z"/>
	<path class="st29" d="M321.3,85L321.3,85c-0.9,0-1.6-0.7-1.6-1.6v-5.1c0-0.9,0.7-1.6,1.6-1.6h0c0.9,0,1.6,0.7,1.6,1.6v5.1
		C322.8,84.3,322.1,85,321.3,85z"/>
	<path class="st29" d="M354.2,85L354.2,85c-0.9,0-1.6-0.7-1.6-1.6v-5.1c0-0.9,0.7-1.6,1.6-1.6h0c0.9,0,1.6,0.7,1.6,1.6v5.1
		C355.8,84.3,355.1,85,354.2,85z"/>
	<g>
		<path class="st33" d="M331.4,101.1c1.5-1.4,3.5-2.2,5.7-2.2c2.2,0,4.2,0.9,5.7,2.2c1.5-1.3,2.4-3.2,2.7-5.2h-16.8
			C328.9,97.9,329.9,99.7,331.4,101.1z"/>
		<path class="st34" d="M331.4,101.1c1.5,1.4,3.5,2.2,5.7,2.2c2.2,0,4.2-0.9,5.7-2.2c-1.5-1.4-3.5-2.2-5.7-2.2
			C334.9,98.8,332.9,99.7,331.4,101.1z"/>
		<path class="st18" d="M345.5,94.5h-16.8c0,0.2-0.1,0.4-0.1,0.6c0,0.3,0.1,0.5,0.1,0.7h16.8c0-0.2,0.1-0.5,0.1-0.7
			C345.6,94.9,345.5,94.7,345.5,94.5z"/>
	</g>
	<path class="st22" d="M418.6,168.1H255.5c-2.5,0-4.6-2-4.6-4.6V5.1c0-2.5,2-4.6,4.6-4.6h163.2c2.5,0,4.6,2,4.6,4.6v158.4
		C423.2,166,421.2,168.1,418.6,168.1z"/>
	<g>
		<path class="st4" d="M168.2,168.1H5.1c-2.5,0-4.6-2-4.6-4.6V5.1c0-2.5,2-4.6,4.6-4.6h163.2c2.5,0,4.6,2,4.6,4.6v158.4
			C172.8,166,170.8,168.1,168.2,168.1z"/>
		<path class="st22" d="M168.2,168.1H5.1c-2.5,0-4.6-2-4.6-4.6V5.1c0-2.5,2-4.6,4.6-4.6h163.2c2.5,0,4.6,2,4.6,4.6v158.4
			C172.8,166,170.8,168.1,168.2,168.1z"/>
		<path class="st35" d="M113.3,168.3H60.5v-34.4V129c0-7.4,6-13.4,13.4-13.4h25.9c7.4,0,13.4,6,13.4,13.4V168.3z"/>
		<rect x="77.7" y="115.6" class="st18" width="18.4" height="52.7"/>
		<path d="M87.6,126.2l2.8-2.8c0.6-0.6,0.2-1.7-0.7-1.7h-5.6c-0.9,0-1.3,1.1-0.7,1.7l2.8,2.8C86.6,126.6,87.2,126.6,87.6,126.2z"/>
		<path class="st36" d="M81.1,115.2l4.3,6.3l-6.1,3.8c-0.6,0.5-1.5,0-1.6-0.9l1.1-8.2L81.1,115.2z"/>
		<path class="st36" d="M92.5,116l-4,5.5l6.1,3.8c0.6,0.5,1.5,0,1.6-0.9l-1.3-7.4L92.5,116z"/>
		<path class="st37" d="M81.1,114.7l4.3,6.8l-6.1,3.2c-0.6,0.4-1.5,0-1.6-0.7l1.1-8.4L81.1,114.7z"/>
		<path class="st37" d="M92.7,114.7l-4.3,6.8l6.1,3.2c0.6,0.4,1.5,0,1.6-0.7l-1.1-8.4L92.7,114.7z"/>
		<path class="st29" d="M54.8,74.7V58.9c0-6.6,5.4-12,12-12h2.8c6.6,0,12,5.4,12,12v15.8c0,6.6-5.4,12-12,12h-2.8
			C60.2,86.7,54.8,81.3,54.8,74.7z"/>
		<path class="st29" d="M92.1,74.9V59.1c0-6.6,5.4-12,12-12h2.8c6.6,0,12,5.4,12,12v15.8c0,6.6-5.4,12-12,12h-2.8
			C97.5,86.9,92.1,81.5,92.1,74.9z"/>
		<path class="st38" d="M86.9,121.7L86.9,121.7c-3.2,0-5.8-2.6-5.8-5.8v-10.8c0-3.2,2.6-5.8,5.8-5.8h0c3.2,0,5.8,2.6,5.8,5.8v10.8
			C92.6,119.1,90.1,121.7,86.9,121.7z"/>
		<path class="st39" d="M86.9,99.4L86.9,99.4c-3.2,0-5.8,2.6-5.8,5.8v4.8c1.8,0.4,3.8,0.7,5.8,0.7h0c2,0,3.9-0.3,5.8-0.7v-4.8
			C92.6,102,90.1,99.4,86.9,99.4z"/>
		<path class="st38" d="M86.9,108.8L86.9,108.8c-13.6,0-24.6-11-24.6-24.6V59.4c0-13.6,11-24.6,24.6-24.6h0
			c13.6,0,24.6,11,24.6,24.6v24.8C111.4,97.8,100.4,108.8,86.9,108.8z"/>
		<path class="st29" d="M102.3,59.8h-35c-4.2,0-7.6-3.4-7.6-7.6v0c0-13,10.6-23.6,23.6-23.6h37c2,0,3.6,1.6,3.6,3.6v6.1
			C123.8,50.2,114.2,59.8,102.3,59.8z"/>
		<path d="M85.1,127.7L83,157.4c0,0.4,0.1,0.8,0.4,1.1L86,161c0.5,0.5,1.4,0.5,1.9,0l2.6-2.6c0.3-0.3,0.4-0.7,0.4-1.1l-2.6-29.6
			c-0.1-0.7-0.6-1.2-1.4-1.2h-0.5C85.7,126.5,85.1,127,85.1,127.7z"/>
		<path class="st40" d="M79.8,92.3h10.8c0,0,3.1,0,3.4-1.5"/>
		<path class="st29" d="M66.7,67"/>
		<g>
			<path class="st29" d="M73.6,82.7c6,0,10.9-4.9,10.9-10.9H62.8C62.8,77.8,67.6,82.7,73.6,82.7z"/>
			<path class="st29" d="M101.2,82.7c6,0,10.9-4.9,10.9-10.9H90.3C90.3,77.8,95.2,82.7,101.2,82.7z"/>
			<rect x="61.4" y="71.8" class="st29" width="51.8" height="1.1"/>
		</g>
	</g>
</g>
</svg>
