<?xml version="1.0" encoding="utf-8"?>
<!-- Generator: Adobe Illustrator 22.0.1, SVG Export Plug-In . SVG Version: 6.00 Build 0)  -->
<svg version="1.1" xmlns="http://www.w3.org/2000/svg" xmlns:xlink="http://www.w3.org/1999/xlink" x="0px" y="0px"
	 viewBox="0 0 173.3 168.6" style="enable-background:new 0 0 173.3 168.6;" xml:space="preserve">
<style type="text/css">
	.st0{fill:url(#SVGID_1_);}
	.st1{fill:#673F1B;}
	.st2{opacity:0.41;fill:#723817;}
	.st3{fill:url(#SVGID_2_);}
	.st4{fill:#F8D2AC;stroke:#502F14;stroke-miterlimit:10;}
	.st5{fill:#F27755;}
	.st6{fill:#CD4E48;}
	.st7{fill:#CC5336;}
	.st8{fill:url(#SVGID_3_);}
	.st9{fill:none;stroke:#CD4E48;stroke-width:2;stroke-linecap:round;stroke-miterlimit:10;}
	.st10{fill:#F0EFEF;}
	.st11{fill:#392914;}
	.st12{fill:#E2E2E2;}
	.st13{fill:#EFAD9E;}
	.st14{fill:#C74C38;}
	.st15{fill:#582811;}
	.st16{fill:#FFFFFF;}
	.st17{opacity:0.327;fill:#8750A0;}
	.st18{fill:#D68B7F;}
	.st19{fill:none;stroke:#392914;stroke-width:2;stroke-linecap:round;stroke-miterlimit:10;}
	.st20{fill:none;stroke:#502F14;stroke-miterlimit:10;}
	.st21{fill:#0F1013;}
	.st22{opacity:0.19;}
	.st23{fill:#FBF9FC;}
	.st24{fill:#54A5D3;}
	.st25{fill:#392812;}
	.st26{fill:#F1BAA5;}
	.st27{fill:#2278B3;}
	.st28{opacity:0.5;fill:#D28B6B;}
	.st29{fill:#8A2727;}
	.st30{fill:#B63030;}
	.st31{fill:none;stroke:#000000;stroke-linecap:round;stroke-miterlimit:10;}
</style>
<g id="Layer_1">
	<linearGradient id="SVGID_1_" gradientUnits="userSpaceOnUse" x1="1143.6699" y1="-375.1577" x2="1143.6699" y2="-74.9871">
		<stop  offset="0" style="stop-color:#D4975D"/>
		<stop  offset="1" style="stop-color:#BA8351"/>
	</linearGradient>
	<path class="st0" d="M1235.4-369.4l2.1-5.7h-35.3l-2.3,14.1l-2.3-14.1h-7.5l-0.8,7.7l-1.2-7.7h-101.6v11.6l-1.4-11.6h-39.3v280.3
		l16.1,0.4c-6.5,2.6,3.4,22,3.4,22h176.1v-292.7l-1.5-7.9L1235.4-369.4z"/>
	
		<text transform="matrix(1 0 0 1 1078.5219 -325.1857)" class="st1" style="font-family:'PlantagenetCherokee'; font-size:29.6602px;">WANTED</text>
	<path class="st2" d="M1056.4-82.7l3.1-8.1h4.8c0,0-5.3,5.1,1.1,18.5"/>
	<linearGradient id="SVGID_2_" gradientUnits="userSpaceOnUse" x1="1063.5398" y1="-92.1161" x2="1054.9949" y2="-82.9348">
		<stop  offset="0" style="stop-color:#C18955"/>
		<stop  offset="0.1095" style="stop-color:#C88E58"/>
		<stop  offset="0.2937" style="stop-color:#D0945C"/>
		<stop  offset="0.4943" style="stop-color:#D4975D"/>
		<stop  offset="0.7902" style="stop-color:#C28955"/>
		<stop  offset="1" style="stop-color:#BA8351"/>
	</linearGradient>
	<path class="st3" d="M1062-94.4l-16.1-0.4l19.5,22.4C1065.4-72.4,1055.5-91.8,1062-94.4z"/>
	<g>
		<path class="st4" d="M870.3-157.6H707.1c-2.5,0-4.6-2-4.6-4.6v-158.4c0-2.5,2-4.6,4.6-4.6h163.2c2.5,0,4.6,2,4.6,4.6v158.4
			C874.8-159.6,872.8-157.6,870.3-157.6z"/>
		<path class="st5" d="M788.7-196.1L788.7-196.1c-20.1,0-36.4-16.3-36.4-36.4v-24.6c0-20.1,16.3-36.4,36.4-36.4h0
			c20.1,0,36.4,16.3,36.4,36.4v24.6C825.1-212.4,808.8-196.1,788.7-196.1z"/>
		<path class="st6" d="M788.7-230.6L788.7-230.6c-2.6,0-4.6-2.1-4.6-4.6v-20h9.3v20C793.3-232.7,791.3-230.6,788.7-230.6z"/>
		
			<rect x="786.4" y="-285" transform="matrix(-8.556943e-10 1 -1 -8.556943e-10 533.44 -1043.9518)" class="st6" width="4.6" height="59.5"/>
		<g>
			<path class="st5" d="M752.3-239c-4.1,0-7.5-3.4-7.5-7.5c0-4.1,3.4-7.5,7.5-7.5"/>
			<path class="st7" d="M752.3-241.8c-2.6,0-4.7-2.1-4.7-4.7s2.1-4.7,4.7-4.7"/>
		</g>
		<g>
			<path class="st5" d="M825.1-254c4.1,0,7.5,3.4,7.5,7.5c0,4.1-3.4,7.5-7.5,7.5"/>
			<path class="st7" d="M825.1-251.2c2.6,0,4.7,2.1,4.7,4.7s-2.1,4.7-4.7,4.7"/>
		</g>
		<linearGradient id="SVGID_3_" gradientUnits="userSpaceOnUse" x1="798.0856" y1="-209.2754" x2="798.0856" y2="-220.0453">
			<stop  offset="0" style="stop-color:#FFD83B"/>
			<stop  offset="0.1765" style="stop-color:#FCCC3C"/>
			<stop  offset="0.499" style="stop-color:#F9B83C"/>
			<stop  offset="0.7838" style="stop-color:#F7AC3C"/>
			<stop  offset="0.9988" style="stop-color:#F7A73C"/>
		</linearGradient>
		<path class="st8" d="M802.2-219v7.6c0,1.1-0.9,2.1-2.1,2.1c-0.6,0-1.1-0.2-1.5-0.6s-0.6-0.9-0.6-1.5v-3.5c-0.2,1-1,1.7-2.1,1.7
			c-0.6,0-1.1-0.2-1.5-0.6c-0.4-0.4-0.6-0.9-0.6-1.5v-4.8h4.2v1.1H802.2z"/>
		<line class="st9" x1="771.5" y1="-219.6" x2="805.9" y2="-219.6"/>
		<g>
			<g>
				<path class="st10" d="M770.8-244.3c4.7,0,8.6-3.8,8.6-8.6h-17.2C762.2-248.2,766-244.3,770.8-244.3z"/>
			</g>
			<path class="st11" d="M771-247.6c3,0,5.4-2.4,5.4-5.4h-10.7C765.6-250,768-247.6,771-247.6z"/>
		</g>
		<g>
			<g>
				<path class="st10" d="M806.6-244.3c4.7,0,8.6-3.8,8.6-8.6H798C798-248.2,801.9-244.3,806.6-244.3z"/>
			</g>
			<path class="st11" d="M806.9-247.6c3,0,5.4-2.4,5.4-5.4h-10.7C801.5-250,803.9-247.6,806.9-247.6z"/>
		</g>
		<g>
			<path d="M740-172.2v14.6h97.3v-14.6c0-1.8-0.2-3.6-0.6-5.4h-96.1C740.2-175.9,740-174.1,740-172.2z"/>
			<path d="M813.5-196.1h-49.6c-5.9,0-11.3,2.1-15.4,5.7h80.5C824.8-193.9,819.4-196.1,813.5-196.1z"/>
			<path d="M745-186.8c-1.3,1.7-2.4,3.6-3.3,5.7h93.9c-0.8-2-1.9-4-3.3-5.7H745z"/>
		</g>
		<path class="st12" d="M740.6-177.6h96.1c-0.3-1.2-0.7-2.4-1.1-3.6h-93.9C741.3-180,740.9-178.8,740.6-177.6z"/>
		<path class="st12" d="M828.9-190.4h-80.5c-1.3,1.1-2.4,2.3-3.4,3.6h87.3C831.3-188.1,830.2-189.3,828.9-190.4z"/>
		<rect x="740" y="-164.1" class="st12" width="97.3" height="3.6"/>
		<rect x="740" y="-172.4" class="st12" width="97.3" height="3.6"/>
		<path class="st12" d="M769.1-196.1v0.9c0,9.3,8,16.7,17.9,16.7h5c9.9,0,17.9-7.5,17.9-16.7v-0.9H769.1z"/>
		<path class="st5" d="M789.5-181.2L789.5-181.2c-9.9,0-17.9-8-17.9-17.9v-1.6c0-4.7,3.8-8.6,8.6-8.6h18.7c4.7,0,8.6,3.8,8.6,8.6
			v1.6C807.5-189.2,799.4-181.2,789.5-181.2z"/>
	</g>
	<path class="st4" d="M783.6,186.9H620.5c-2.5,0-4.6-2-4.6-4.6V23.9c0-2.5,2-4.6,4.6-4.6h163.2c2.5,0,4.6,2,4.6,4.6v158.4
		C788.2,184.9,786.1,186.9,783.6,186.9z"/>
	<g>
		<polygon class="st13" points="682.8,186.8 672.6,187.3 676.1,158.2 687.5,159.5 		"/>
		<path class="st14" d="M687.7,166.6l-13.4-1.6l1.2-10.2c0.4-3.3,3.4-5.7,6.8-5.3l4.5,0.5c1.6,0.2,2.7,1.6,2.5,3.2L687.7,166.6z"/>
	</g>
	<g>
		<polygon class="st13" points="728.2,186.5 738.4,186.9 734.9,157.8 723.6,159.2 		"/>
		<path class="st14" d="M723.4,166.2l13.4-1.6l-1.2-10.2c-0.4-3.3-3.4-5.7-6.8-5.3l-4.5,0.5c-1.6,0.2-2.7,1.6-2.5,3.2L723.4,166.2z"
			/>
	</g>
	<path class="st15" d="M714.8,119.5h-17.7c-14.1,0-25.5-11.4-25.5-25.5V76.4c0-14.1,11.4-25.5,25.5-25.5h17.7
		c14.1,0,25.5,11.4,25.5,25.5v17.7C740.3,108.1,728.9,119.5,714.8,119.5z"/>
	<path class="st14" d="M727.8,186.5h-44.4v-25.9c0-5.7,4.6-10.3,10.3-10.3h23.7c5.7,0,10.3,4.6,10.3,10.3V186.5z"/>
	<path class="st13" d="M705.6,162.2L705.6,162.2c-4.8,0-8.7-3.9-8.7-8.7v-15.3h17.4v15.3C714.3,158.3,710.4,162.2,705.6,162.2z"/>
	<path class="st13" d="M706,145.9L706,145.9c-16.4,0-29.6-13.3-29.6-29.6V86.9c0-16.4,13.3-29.6,29.6-29.6h0
		c16.4,0,29.6,13.3,29.6,29.6v29.4C735.6,132.7,722.3,145.9,706,145.9z"/>
	<circle class="st16" cx="689.9" cy="96.6" r="10.1"/>
	<path class="st17" d="M692.8,108.2c-1.3,0.2-2.5,0.1-3.6-0.1c1.2,1,2.9,1.6,4.7,1.5c3.2-0.3,5.7-2.7,5.4-5.4c0,0,0,0,0,0
		C698.4,106.1,695.9,107.7,692.8,108.2z"/>
	<path class="st17" d="M720.9,108.2c1.3,0.2,2.5,0.1,3.6-0.1c-1.2,1-2.9,1.6-4.7,1.5c-3.2-0.3-5.7-2.7-5.4-5.4c0,0,0,0,0,0
		C715.3,106.1,717.8,107.7,720.9,108.2z"/>
	<path class="st18" d="M689.9,86.5c-5.6,0-10.1,4.5-10.1,10.1H700C700,91,695.5,86.5,689.9,86.5z"/>
	<circle class="st11" cx="689.9" cy="99.2" r="1.7"/>
	<circle class="st16" cx="722.9" cy="96.6" r="10.1"/>
	<path class="st18" d="M722.9,86.5c-5.6,0-10.1,4.5-10.1,10.1H733C733,91,728.5,86.5,722.9,86.5z"/>
	<circle class="st11" cx="722.9" cy="99.2" r="1.7"/>
	<ellipse class="st15" cx="706" cy="68.3" rx="21.8" ry="13.4"/>
	<path class="st19" d="M699.4,121.5c0,0,5.7-5.7,12.5,0"/>
	<path class="st15" d="M691.6,85.2h-6.7c-1.2,0-2.2-1-2.2-2.2v0c0-1.2,1-2.2,2.2-2.2h6.7c1.2,0,2.2,1,2.2,2.2v0
		C693.7,84.3,692.8,85.2,691.6,85.2z"/>
	<path class="st15" d="M727.9,85.6h-6.7c-1.2,0-2.2-1-2.2-2.2v0c0-1.2,1-2.2,2.2-2.2h6.7c1.2,0,2.2,1,2.2,2.2v0
		C730.1,84.6,729.1,85.6,727.9,85.6z"/>
	<path class="st20" d="M783.6,186.9H620.5c-2.5,0-4.6-2-4.6-4.6V23.9c0-2.5,2-4.6,4.6-4.6h163.2c2.5,0,4.6,2,4.6,4.6v158.4
		C788.2,184.9,786.1,186.9,783.6,186.9z"/>
	<path class="st4" d="M168.2,168.1H5.1c-2.5,0-4.6-2-4.6-4.6V5.1c0-2.5,2-4.6,4.6-4.6h163.2c2.5,0,4.6,2,4.6,4.6v158.4
		C172.8,166,170.8,168.1,168.2,168.1z"/>
	<path class="st20" d="M168.2,168.1H5.1c-2.5,0-4.6-2-4.6-4.6V5.1c0-2.5,2-4.6,4.6-4.6h163.2c2.5,0,4.6,2,4.6,4.6v158.4
		C172.8,166,170.8,168.1,168.2,168.1z"/>
</g>
<g id="Layer_2">
	<path class="st21" d="M113.3,168.3H60.5v-34.4V129c0-7.4,6-13.4,13.4-13.4h25.9c7.4,0,13.4,6,13.4,13.4V168.3z"/>
	<rect x="77.7" y="115.6" class="st16" width="18.4" height="52.7"/>
	<path d="M87.6,126.2l2.8-2.8c0.6-0.6,0.2-1.7-0.7-1.7h-5.6c-0.9,0-1.3,1.1-0.7,1.7l2.8,2.8C86.6,126.6,87.2,126.6,87.6,126.2z"/>
	<path class="st22" d="M81.1,115.2l4.3,6.3l-6.1,3.8c-0.6,0.5-1.5,0-1.6-0.9l1.1-8.2L81.1,115.2z"/>
	<path class="st22" d="M92.5,116l-4,5.5l6.1,3.8c0.6,0.5,1.5,0,1.6-0.9l-1.3-7.4L92.5,116z"/>
	<path class="st23" d="M81.1,114.7l4.3,6.8l-6.1,3.2c-0.6,0.4-1.5,0-1.6-0.7l1.1-8.4L81.1,114.7z"/>
	<path class="st23" d="M92.7,114.7l-4.3,6.8l6.1,3.2c0.6,0.4,1.5,0,1.6-0.7l-1.1-8.4L92.7,114.7z"/>
	<path class="st4" d="M418.6,168.1H255.5c-2.5,0-4.6-2-4.6-4.6V5.1c0-2.5,2-4.6,4.6-4.6h163.2c2.5,0,4.6,2,4.6,4.6v158.4
		C423.2,166,421.2,168.1,418.6,168.1z"/>
	<path class="st24" d="M337.1,129c-15.3,0-27.7,9.6-27.7,21.4h55.3C364.7,138.5,352.3,129,337.1,129z"/>
	<path class="st25" d="M301.6,82.5V51c0-6.6,5.4-12,12-12h6.2c6.6,0,12,5.4,12,12v31.5c0,6.6-5.4,12-12,12h-6.2
		C306.9,94.5,301.6,89.1,301.6,82.5z"/>
	<path class="st25" d="M343.6,82.5V51c0-6.6,5.4-12,12-12h6.2c6.6,0,12,5.4,12,12v31.5c0,6.6-5.4,12-12,12h-6.2
		C348.9,94.5,343.6,89.1,343.6,82.5z"/>
	<rect x="357.2" y="150.3" class="st26" width="7.6" height="18.1"/>
	<rect x="309.4" y="150.3" class="st26" width="7.6" height="18.1"/>
	<path class="st27" d="M357.2,168.5v-18.8c0-11.4-9-20.7-20.1-20.7s-20.1,9.3-20.1,20.7v18.8H357.2z"/>
	<path class="st26" d="M337.1,138.9L337.1,138.9c-3.6,0-6.5-2.9-6.5-6.5v-12.2c0-3.6,2.9-6.5,6.5-6.5h0c3.6,0,6.5,2.9,6.5,6.5v12.2
		C343.6,136,340.7,138.9,337.1,138.9z"/>
	<path class="st28" d="M337.1,113.8L337.1,113.8c-3.6,0-6.5,2.9-6.5,6.5v5.4c2.1,0.5,4.2,0.8,6.5,0.8h0c2.2,0,4.4-0.3,6.5-0.8v-5.4
		C343.6,116.7,340.7,113.8,337.1,113.8z"/>
	<path class="st26" d="M337.1,124L337.1,124c-15.3,0-27.7-12.4-27.7-27.7V60.5c0-15.3,12.4-27.7,27.7-27.7h0
		c15.3,0,27.7,12.4,27.7,27.7v35.9C364.7,111.7,352.3,124,337.1,124z"/>
	<path class="st25" d="M349.2,70.5h-24.3c-10,0-18.1-8.1-18.1-18.1v-5c0-10,8.1-18.1,18.1-18.1h24.3c10,0,18.1,8.1,18.1,18.1v5
		C367.4,62.4,359.2,70.5,349.2,70.5z"/>
	<path class="st25" d="M321.3,85L321.3,85c-0.9,0-1.6-0.7-1.6-1.6v-5.1c0-0.9,0.7-1.6,1.6-1.6h0c0.9,0,1.6,0.7,1.6,1.6v5.1
		C322.8,84.3,322.1,85,321.3,85z"/>
	<path class="st25" d="M354.2,85L354.2,85c-0.9,0-1.6-0.7-1.6-1.6v-5.1c0-0.9,0.7-1.6,1.6-1.6h0c0.9,0,1.6,0.7,1.6,1.6v5.1
		C355.8,84.3,355.1,85,354.2,85z"/>
	<g>
		<path class="st29" d="M331.4,101.1c1.5-1.4,3.5-2.2,5.7-2.2c2.2,0,4.2,0.9,5.7,2.2c1.5-1.3,2.4-3.2,2.7-5.2h-16.8
			C328.9,97.9,329.9,99.7,331.4,101.1z"/>
		<path class="st30" d="M331.4,101.1c1.5,1.4,3.5,2.2,5.7,2.2c2.2,0,4.2-0.9,5.7-2.2c-1.5-1.4-3.5-2.2-5.7-2.2
			C334.9,98.8,332.9,99.7,331.4,101.1z"/>
		<path class="st16" d="M345.5,94.5h-16.8c0,0.2-0.1,0.4-0.1,0.6c0,0.3,0.1,0.5,0.1,0.7h16.8c0-0.2,0.1-0.5,0.1-0.7
			C345.6,94.9,345.5,94.7,345.5,94.5z"/>
	</g>
	<path class="st25" d="M54.8,74.7V58.9c0-6.6,5.4-12,12-12h2.8c6.6,0,12,5.4,12,12v15.8c0,6.6-5.4,12-12,12h-2.8
		C60.2,86.7,54.8,81.3,54.8,74.7z"/>
	<path class="st25" d="M92.1,74.9V59.1c0-6.6,5.4-12,12-12h2.8c6.6,0,12,5.4,12,12v15.8c0,6.6-5.4,12-12,12h-2.8
		C97.5,86.9,92.1,81.5,92.1,74.9z"/>
	<path class="st26" d="M86.9,121.7L86.9,121.7c-3.2,0-5.8-2.6-5.8-5.8v-10.8c0-3.2,2.6-5.8,5.8-5.8h0c3.2,0,5.8,2.6,5.8,5.8v10.8
		C92.6,119.1,90.1,121.7,86.9,121.7z"/>
	<path class="st28" d="M86.9,99.4L86.9,99.4c-3.2,0-5.8,2.6-5.8,5.8v4.8c1.8,0.4,3.8,0.7,5.8,0.7h0c2,0,3.9-0.3,5.8-0.7v-4.8
		C92.6,102,90.1,99.4,86.9,99.4z"/>
	<path class="st26" d="M86.9,108.8L86.9,108.8c-13.6,0-24.6-11-24.6-24.6V59.4c0-13.6,11-24.6,24.6-24.6h0c13.6,0,24.6,11,24.6,24.6
		v24.8C111.4,97.8,100.4,108.8,86.9,108.8z"/>
	<path class="st20" d="M418.6,168.1H255.5c-2.5,0-4.6-2-4.6-4.6V5.1c0-2.5,2-4.6,4.6-4.6h163.2c2.5,0,4.6,2,4.6,4.6v158.4
		C423.2,166,421.2,168.1,418.6,168.1z"/>
	<path class="st25" d="M102.3,59.8h-35c-4.2,0-7.6-3.4-7.6-7.6v0c0-13,10.6-23.6,23.6-23.6h37c2,0,3.6,1.6,3.6,3.6v6.1
		C123.8,50.2,114.2,59.8,102.3,59.8z"/>
	<path d="M85.1,127.7L83,157.4c0,0.4,0.1,0.8,0.4,1.1L86,161c0.5,0.5,1.4,0.5,1.9,0l2.6-2.6c0.3-0.3,0.4-0.7,0.4-1.1l-2.6-29.6
		c-0.1-0.7-0.6-1.2-1.4-1.2h-0.5C85.7,126.5,85.1,127,85.1,127.7z"/>
	<path class="st31" d="M79.8,92.3h10.8c0,0,3.1,0,3.4-1.5"/>
	<path class="st25" d="M72.5,78.8L72.5,78.8c-1,0-1.8-0.8-1.8-1.8v-4.1c0-1,0.8-1.8,1.8-1.8l0,0c1,0,1.8,0.8,1.8,1.8v4.1
		C74.3,77.9,73.5,78.8,72.5,78.8z"/>
	<path class="st25" d="M102.8,78.8L102.8,78.8c-1,0-1.8-0.8-1.8-1.8v-4.1c0-1,0.8-1.8,1.8-1.8h0c1,0,1.8,0.8,1.8,1.8v4.1
		C104.6,77.9,103.8,78.8,102.8,78.8z"/>
</g>
</svg>
