<?xml version="1.0" encoding="utf-8"?>
<!-- Generator: Adobe Illustrator 22.0.1, SVG Export Plug-In . SVG Version: 6.00 Build 0)  -->
<svg version="1.1" xmlns="http://www.w3.org/2000/svg" xmlns:xlink="http://www.w3.org/1999/xlink" x="0px" y="0px"
	 viewBox="0 0 173.3 168.6" style="enable-background:new 0 0 173.3 168.6;" xml:space="preserve">
<style type="text/css">
	.st0{fill:url(#SVGID_1_);}
	.st1{fill:#673F1B;}
	.st2{opacity:0.41;fill:#723817;}
	.st3{fill:url(#SVGID_2_);}
	.st4{fill:#F8D2AC;stroke:#502F14;stroke-miterlimit:10;}
	.st5{fill:#F27755;}
	.st6{fill:#CD4E48;}
	.st7{fill:#CC5336;}
	.st8{fill:url(#SVGID_3_);}
	.st9{fill:none;stroke:#CD4E48;stroke-width:2;stroke-linecap:round;stroke-miterlimit:10;}
	.st10{fill:#F0EFEF;}
	.st11{fill:#392914;}
	.st12{fill:#E2E2E2;}
	.st13{fill:#EFAD9E;}
	.st14{fill:#C74C38;}
	.st15{fill:#582811;}
	.st16{fill:#FFFFFF;}
	.st17{opacity:0.327;fill:#8750A0;}
	.st18{fill:#D68B7F;}
	.st19{fill:none;stroke:#392914;stroke-width:2;stroke-linecap:round;stroke-miterlimit:10;}
	.st20{fill:none;stroke:#502F14;stroke-miterlimit:10;}
	.st21{fill:#0F1013;}
	.st22{opacity:0.19;}
	.st23{fill:#FBF9FC;}
	.st24{fill:#54A5D3;}
	.st25{fill:#392812;}
	.st26{fill:#F1BAA5;}
	.st27{fill:#2278B3;}
	.st28{opacity:0.5;fill:#D28B6B;}
	.st29{fill:#8A2727;}
	.st30{fill:#B63030;}
	.st31{fill:none;stroke:#000000;stroke-linecap:round;stroke-miterlimit:10;}
</style>
<g id="Layer_1">
	<linearGradient id="SVGID_1_" gradientUnits="userSpaceOnUse" x1="528.2742" y1="-393.9749" x2="528.2742" y2="-93.8043">
		<stop  offset="0" style="stop-color:#D4975D"/>
		<stop  offset="1" style="stop-color:#BA8351"/>
	</linearGradient>
	<path class="st0" d="M620-388.3l2.1-5.7h-35.3l-2.3,14.1l-2.3-14.1h-7.5l-0.8,7.7l-1.2-7.7H471.1v11.6l-1.4-11.6h-39.3v280.3
		l16.1,0.4c-6.5,2.6,3.4,22,3.4,22h176.1v-292.7l-1.5-7.9L620-388.3z"/>
	
		<text transform="matrix(1 0 0 1 463.1261 -344.0029)" class="st1" style="font-family:'PlantagenetCherokee'; font-size:29.6602px;">WANTED</text>
	<path class="st2" d="M441-101.6l3.1-8.1h4.8c0,0-5.3,5.1,1.1,18.5"/>
	<linearGradient id="SVGID_2_" gradientUnits="userSpaceOnUse" x1="448.144" y1="-110.9333" x2="439.5991" y2="-101.7521">
		<stop  offset="0" style="stop-color:#C18955"/>
		<stop  offset="0.1095" style="stop-color:#C88E58"/>
		<stop  offset="0.2937" style="stop-color:#D0945C"/>
		<stop  offset="0.4943" style="stop-color:#D4975D"/>
		<stop  offset="0.7902" style="stop-color:#C28955"/>
		<stop  offset="1" style="stop-color:#BA8351"/>
	</linearGradient>
	<path class="st3" d="M446.6-113.2l-16.1-0.4L450-91.2C450-91.2,440.1-110.6,446.6-113.2z"/>
	<g>
		<path class="st4" d="M254.9-176.4H91.7c-2.5,0-4.6-2-4.6-4.6v-158.4c0-2.5,2-4.6,4.6-4.6h163.2c2.5,0,4.6,2,4.6,4.6V-181
			C259.5-178.5,257.4-176.4,254.9-176.4z"/>
		<path class="st5" d="M173.3-214.9L173.3-214.9c-20.1,0-36.4-16.3-36.4-36.4v-24.6c0-20.1,16.3-36.4,36.4-36.4h0
			c20.1,0,36.4,16.3,36.4,36.4v24.6C209.7-231.2,193.4-214.9,173.3-214.9z"/>
		<path class="st6" d="M173.3-249.5L173.3-249.5c-2.6,0-4.6-2.1-4.6-4.6v-20h9.3v20C177.9-251.5,175.9-249.5,173.3-249.5z"/>
		
			<rect x="171" y="-303.8" transform="matrix(-8.556943e-10 1 -1 -8.556943e-10 -100.773 -447.3732)" class="st6" width="4.6" height="59.5"/>
		<g>
			<path class="st5" d="M136.9-257.8c-4.1,0-7.5-3.4-7.5-7.5s3.4-7.5,7.5-7.5"/>
			<path class="st7" d="M136.9-260.6c-2.6,0-4.7-2.1-4.7-4.7c0-2.6,2.1-4.7,4.7-4.7"/>
		</g>
		<g>
			<path class="st5" d="M209.7-272.8c4.1,0,7.5,3.4,7.5,7.5s-3.4,7.5-7.5,7.5"/>
			<path class="st7" d="M209.7-270c2.6,0,4.7,2.1,4.7,4.7c0,2.6-2.1,4.7-4.7,4.7"/>
		</g>
		<linearGradient id="SVGID_3_" gradientUnits="userSpaceOnUse" x1="182.6899" y1="-228.0926" x2="182.6899" y2="-238.8625">
			<stop  offset="0" style="stop-color:#FFD83B"/>
			<stop  offset="0.1765" style="stop-color:#FCCC3C"/>
			<stop  offset="0.499" style="stop-color:#F9B83C"/>
			<stop  offset="0.7838" style="stop-color:#F7AC3C"/>
			<stop  offset="0.9988" style="stop-color:#F7A73C"/>
		</linearGradient>
		<path class="st8" d="M186.8-237.8v7.6c0,1.1-0.9,2.1-2.1,2.1c-0.6,0-1.1-0.2-1.5-0.6s-0.6-0.9-0.6-1.5v-3.5c-0.2,1-1,1.7-2.1,1.7
			c-0.6,0-1.1-0.2-1.5-0.6c-0.4-0.4-0.6-0.9-0.6-1.5v-4.8h4.2v1.1H186.8z"/>
		<line class="st9" x1="156.1" y1="-238.4" x2="190.5" y2="-238.4"/>
		<g>
			<g>
				<path class="st10" d="M155.4-263.2c4.7,0,8.6-3.8,8.6-8.6h-17.2C146.8-267,150.6-263.2,155.4-263.2z"/>
			</g>
			<path class="st11" d="M155.6-266.4c3,0,5.4-2.4,5.4-5.4h-10.7C150.2-268.8,152.6-266.4,155.6-266.4z"/>
		</g>
		<g>
			<g>
				<path class="st10" d="M191.2-263.2c4.7,0,8.6-3.8,8.6-8.6h-17.2C182.6-267,186.5-263.2,191.2-263.2z"/>
			</g>
			<path class="st11" d="M191.5-266.4c3,0,5.4-2.4,5.4-5.4h-10.7C186.1-268.8,188.5-266.4,191.5-266.4z"/>
		</g>
		<g>
			<path d="M124.6-191v14.6H222V-191c0-1.8-0.2-3.6-0.6-5.4h-96.1C124.8-194.7,124.6-192.9,124.6-191z"/>
			<path d="M198.1-214.9h-49.6c-5.9,0-11.3,2.1-15.4,5.7h80.5C209.4-212.8,204-214.9,198.1-214.9z"/>
			<path d="M129.6-205.6c-1.3,1.7-2.4,3.6-3.3,5.7h93.9c-0.8-2-1.9-4-3.3-5.7H129.6z"/>
		</g>
		<path class="st12" d="M125.2-196.4h96.1c-0.3-1.2-0.7-2.4-1.1-3.6h-93.9C125.9-198.8,125.5-197.6,125.2-196.4z"/>
		<path class="st12" d="M213.5-209.2h-80.5c-1.3,1.1-2.4,2.3-3.4,3.6H217C216-207,214.8-208.1,213.5-209.2z"/>
		<rect x="124.6" y="-182.9" class="st12" width="97.3" height="3.6"/>
		<rect x="124.6" y="-191.2" class="st12" width="97.3" height="3.6"/>
		<path class="st12" d="M153.7-214.9v0.9c0,9.3,8,16.7,17.9,16.7h5c9.9,0,17.9-7.5,17.9-16.7v-0.9H153.7z"/>
		<path class="st5" d="M174.2-200L174.2-200c-9.9,0-17.9-8-17.9-17.9v-1.6c0-4.7,3.8-8.6,8.6-8.6h18.7c4.7,0,8.6,3.8,8.6,8.6v1.6
			C192.1-208,184.1-200,174.2-200z"/>
	</g>
	<path class="st4" d="M168.2,168.1H5.1c-2.5,0-4.6-2-4.6-4.6V5.1c0-2.5,2-4.6,4.6-4.6h163.2c2.5,0,4.6,2,4.6,4.6v158.4
		C172.8,166,170.8,168.1,168.2,168.1z"/>
	<g>
		<polygon class="st13" points="67.4,168 57.2,168.5 60.7,139.4 72.1,140.7 		"/>
		<path class="st14" d="M72.3,147.8l-13.4-1.6l1.2-10.2c0.4-3.3,3.4-5.7,6.8-5.3l4.5,0.5c1.6,0.2,2.7,1.6,2.5,3.2L72.3,147.8z"/>
	</g>
	<g>
		<polygon class="st13" points="112.8,167.7 123,168.1 119.5,139 108.2,140.3 		"/>
		<path class="st14" d="M108,147.4l13.4-1.6l-1.2-10.2c-0.4-3.3-3.4-5.7-6.8-5.3l-4.5,0.5c-1.6,0.2-2.7,1.6-2.5,3.2L108,147.4z"/>
	</g>
	<path class="st15" d="M99.4,100.7H81.8c-14.1,0-25.5-11.4-25.5-25.5V57.6c0-14.1,11.4-25.5,25.5-25.5h17.7
		c14.1,0,25.5,11.4,25.5,25.5v17.7C124.9,89.3,113.5,100.7,99.4,100.7z"/>
	<path class="st14" d="M112.4,167.7H68v-25.9c0-5.7,4.6-10.3,10.3-10.3h23.7c5.7,0,10.3,4.6,10.3,10.3V167.7z"/>
	<path class="st13" d="M90.2,143.4L90.2,143.4c-4.8,0-8.7-3.9-8.7-8.7v-15.3h17.4v15.3C98.9,139.5,95,143.4,90.2,143.4z"/>
	<path class="st13" d="M90.6,127.1L90.6,127.1c-16.4,0-29.6-13.3-29.6-29.6V68.1c0-16.4,13.3-29.6,29.6-29.6h0
		c16.4,0,29.6,13.3,29.6,29.6v29.4C120.2,113.9,107,127.1,90.6,127.1z"/>
	<circle class="st16" cx="74.5" cy="77.8" r="10.1"/>
	<path class="st17" d="M77.4,89.4c-1.3,0.2-2.5,0.1-3.6-0.1c1.2,1,2.9,1.6,4.7,1.5c3.2-0.3,5.7-2.7,5.4-5.4c0,0,0,0,0,0
		C83,87.3,80.5,88.9,77.4,89.4z"/>
	<path class="st17" d="M105.5,89.4c1.3,0.2,2.5,0.1,3.6-0.1c-1.2,1-2.9,1.6-4.7,1.5c-3.2-0.3-5.7-2.7-5.4-5.4c0,0,0,0,0,0
		C99.9,87.3,102.4,88.9,105.5,89.4z"/>
	<path class="st18" d="M74.5,67.7c-5.6,0-10.1,4.5-10.1,10.1h20.2C84.6,72.2,80.1,67.7,74.5,67.7z"/>
	<circle class="st11" cx="74.5" cy="80.3" r="1.7"/>
	<circle class="st16" cx="107.6" cy="77.8" r="10.1"/>
	<path class="st18" d="M107.6,67.7c-5.6,0-10.1,4.5-10.1,10.1h20.2C117.6,72.2,113.1,67.7,107.6,67.7z"/>
	<circle class="st11" cx="107.6" cy="80.3" r="1.7"/>
	<ellipse class="st15" cx="90.6" cy="49.5" rx="21.8" ry="13.4"/>
	<path class="st19" d="M84,102.7c0,0,5.7-5.7,12.5,0"/>
	<path class="st15" d="M76.2,66.4h-6.7c-1.2,0-2.2-1-2.2-2.2v0c0-1.2,1-2.2,2.2-2.2h6.7c1.2,0,2.2,1,2.2,2.2v0
		C78.4,65.4,77.4,66.4,76.2,66.4z"/>
	<path class="st15" d="M112.5,66.8h-6.7c-1.2,0-2.2-1-2.2-2.2l0,0c0-1.2,1-2.2,2.2-2.2h6.7c1.2,0,2.2,1,2.2,2.2l0,0
		C114.7,65.8,113.7,66.8,112.5,66.8z"/>
	<path class="st20" d="M168.2,168.1H5.1c-2.5,0-4.6-2-4.6-4.6V5.1c0-2.5,2-4.6,4.6-4.6h163.2c2.5,0,4.6,2,4.6,4.6v158.4
		C172.8,166,170.8,168.1,168.2,168.1z"/>
	<path class="st4" d="M-447.2,149.3h-163.2c-2.5,0-4.6-2-4.6-4.6V-13.7c0-2.5,2-4.6,4.6-4.6h163.2c2.5,0,4.6,2,4.6,4.6v158.4
		C-442.6,147.2-444.6,149.3-447.2,149.3z"/>
	<path class="st20" d="M-447.2,149.3h-163.2c-2.5,0-4.6-2-4.6-4.6V-13.7c0-2.5,2-4.6,4.6-4.6h163.2c2.5,0,4.6,2,4.6,4.6v158.4
		C-442.6,147.2-444.6,149.3-447.2,149.3z"/>
</g>
<g id="Layer_2">
	<path class="st21" d="M-502.1,149.5h-52.7v-34.4v-4.9c0-7.4,6-13.4,13.4-13.4h25.9c7.4,0,13.4,6,13.4,13.4V149.5z"/>
	<rect x="-537.7" y="96.8" class="st16" width="18.4" height="52.7"/>
	<path d="M-527.8,107.4l2.8-2.8c0.6-0.6,0.2-1.7-0.7-1.7h-5.6c-0.9,0-1.3,1.1-0.7,1.7l2.8,2.8C-528.8,107.7-528.2,107.7-527.8,107.4
		z"/>
	<path class="st22" d="M-534.3,96.4l4.3,6.3l-6.1,3.8c-0.6,0.5-1.5,0-1.6-0.9l1.1-8.2L-534.3,96.4z"/>
	<path class="st22" d="M-522.9,97.2l-4,5.5l6.1,3.8c0.6,0.5,1.5,0,1.6-0.9l-1.3-7.4L-522.9,97.2z"/>
	<path class="st23" d="M-534.3,95.9l4.3,6.8l-6.1,3.2c-0.6,0.4-1.5,0-1.6-0.7l1.1-8.4L-534.3,95.9z"/>
	<path class="st23" d="M-522.7,95.9l-4.3,6.8l6.1,3.2c0.6,0.4,1.5,0,1.6-0.7l-1.1-8.4L-522.7,95.9z"/>
	<path class="st4" d="M-196.8,149.3h-163.2c-2.5,0-4.6-2-4.6-4.6V-13.7c0-2.5,2-4.6,4.6-4.6h163.2c2.5,0,4.6,2,4.6,4.6v158.4
		C-192.2,147.2-194.2,149.3-196.8,149.3z"/>
	<path class="st24" d="M-278.3,110.2c-15.3,0-27.7,9.6-27.7,21.4h55.3C-250.7,119.7-263,110.2-278.3,110.2z"/>
	<path class="st25" d="M-313.8,63.7V32.2c0-6.6,5.4-12,12-12h6.2c6.6,0,12,5.4,12,12v31.5c0,6.6-5.4,12-12,12h-6.2
		C-308.5,75.7-313.8,70.3-313.8,63.7z"/>
	<path class="st25" d="M-271.8,63.7V32.2c0-6.6,5.4-12,12-12h6.2c6.6,0,12,5.4,12,12v31.5c0,6.6-5.4,12-12,12h-6.2
		C-266.5,75.7-271.8,70.3-271.8,63.7z"/>
	<rect x="-258.2" y="131.5" class="st26" width="7.6" height="18.1"/>
	<rect x="-306" y="131.5" class="st26" width="7.6" height="18.1"/>
	<path class="st27" d="M-258.2,149.7v-18.8c0-11.4-9-20.7-20.1-20.7s-20.1,9.3-20.1,20.7v18.8H-258.2z"/>
	<path class="st26" d="M-278.3,120.1L-278.3,120.1c-3.6,0-6.5-2.9-6.5-6.5v-12.2c0-3.6,2.9-6.5,6.5-6.5l0,0c3.6,0,6.5,2.9,6.5,6.5
		v12.2C-271.8,117.2-274.7,120.1-278.3,120.1z"/>
	<path class="st28" d="M-278.3,95L-278.3,95c-3.6,0-6.5,2.9-6.5,6.5v5.4c2.1,0.5,4.2,0.8,6.5,0.8h0c2.2,0,4.4-0.3,6.5-0.8v-5.4
		C-271.8,97.9-274.7,95-278.3,95z"/>
	<path class="st26" d="M-278.3,105.2L-278.3,105.2c-15.3,0-27.7-12.4-27.7-27.7V41.7c0-15.3,12.4-27.7,27.7-27.7h0
		c15.3,0,27.7,12.4,27.7,27.7v35.9C-250.7,92.8-263,105.2-278.3,105.2z"/>
	<path class="st25" d="M-266.2,51.7h-24.3c-10,0-18.1-8.1-18.1-18.1v-5c0-10,8.1-18.1,18.1-18.1h24.3c10,0,18.1,8.1,18.1,18.1v5
		C-248,43.6-256.2,51.7-266.2,51.7z"/>
	<path class="st25" d="M-294.1,66.1L-294.1,66.1c-0.9,0-1.6-0.7-1.6-1.6v-5.1c0-0.9,0.7-1.6,1.6-1.6l0,0c0.9,0,1.6,0.7,1.6,1.6v5.1
		C-292.6,65.4-293.3,66.1-294.1,66.1z"/>
	<path class="st25" d="M-261.2,66.1L-261.2,66.1c-0.9,0-1.6-0.7-1.6-1.6v-5.1c0-0.9,0.7-1.6,1.6-1.6l0,0c0.9,0,1.6,0.7,1.6,1.6v5.1
		C-259.6,65.4-260.3,66.1-261.2,66.1z"/>
	<g>
		<path class="st29" d="M-284,82.2c1.5-1.4,3.5-2.2,5.7-2.2s4.2,0.9,5.7,2.2c1.5-1.3,2.4-3.2,2.7-5.2h-16.8
			C-286.5,79.1-285.5,80.9-284,82.2z"/>
		<path class="st30" d="M-284,82.2c1.5,1.4,3.5,2.2,5.7,2.2s4.2-0.9,5.7-2.2c-1.5-1.4-3.5-2.2-5.7-2.2S-282.5,80.9-284,82.2z"/>
		<path class="st16" d="M-269.9,75.7h-16.8c0,0.2-0.1,0.4-0.1,0.6c0,0.3,0.1,0.5,0.1,0.7h16.8c0-0.2,0.1-0.5,0.1-0.7
			C-269.8,76.1-269.9,75.9-269.9,75.7z"/>
	</g>
	<path class="st25" d="M-560.6,55.8V40c0-6.6,5.4-12,12-12h2.8c6.6,0,12,5.4,12,12v15.8c0,6.6-5.4,12-12,12h-2.8
		C-555.2,67.8-560.6,62.5-560.6,55.8z"/>
	<path class="st25" d="M-523.3,56.1V40.3c0-6.6,5.4-12,12-12h2.8c6.6,0,12,5.4,12,12v15.8c0,6.6-5.4,12-12,12h-2.8
		C-517.9,68.1-523.3,62.7-523.3,56.1z"/>
	<path class="st26" d="M-528.5,102.9L-528.5,102.9c-3.2,0-5.8-2.6-5.8-5.8V86.3c0-3.2,2.6-5.8,5.8-5.8l0,0c3.2,0,5.8,2.6,5.8,5.8
		v10.8C-522.8,100.3-525.3,102.9-528.5,102.9z"/>
	<path class="st28" d="M-528.5,80.6L-528.5,80.6c-3.2,0-5.8,2.6-5.8,5.8v4.8c1.8,0.4,3.8,0.7,5.8,0.7h0c2,0,3.9-0.3,5.8-0.7v-4.8
		C-522.8,83.2-525.3,80.6-528.5,80.6z"/>
	<path class="st26" d="M-528.5,90L-528.5,90c-13.6,0-24.6-11-24.6-24.6V40.6c0-13.6,11-24.6,24.6-24.6h0C-515,16-504,27-504,40.6
		v24.8C-504,79-515,90-528.5,90z"/>
	<path class="st20" d="M-196.8,149.3h-163.2c-2.5,0-4.6-2-4.6-4.6V-13.7c0-2.5,2-4.6,4.6-4.6h163.2c2.5,0,4.6,2,4.6,4.6v158.4
		C-192.2,147.2-194.2,149.3-196.8,149.3z"/>
	<path class="st25" d="M-513.1,41h-35c-4.2,0-7.6-3.4-7.6-7.6v0c0-13,10.6-23.6,23.6-23.6h37c2,0,3.6,1.6,3.6,3.6v6.1
		C-491.6,31.4-501.2,41-513.1,41z"/>
	<path d="M-530.3,108.9l-2.1,29.6c0,0.4,0.1,0.8,0.4,1.1l2.6,2.6c0.5,0.5,1.4,0.5,1.9,0l2.6-2.6c0.3-0.3,0.4-0.7,0.4-1.1l-2.6-29.6
		c-0.1-0.7-0.6-1.2-1.4-1.2h-0.5C-529.7,107.7-530.3,108.2-530.3,108.9z"/>
	<path class="st31" d="M-535.6,73.4h10.8c0,0,3.1,0,3.4-1.5"/>
	<path class="st25" d="M-542.9,59.9L-542.9,59.9c-1,0-1.8-0.8-1.8-1.8V54c0-1,0.8-1.8,1.8-1.8l0,0c1,0,1.8,0.8,1.8,1.8v4.1
		C-541.1,59.1-541.9,59.9-542.9,59.9z"/>
	<path class="st25" d="M-512.6,59.9L-512.6,59.9c-1,0-1.8-0.8-1.8-1.8V54c0-1,0.8-1.8,1.8-1.8l0,0c1,0,1.8,0.8,1.8,1.8v4.1
		C-510.8,59.1-511.6,59.9-512.6,59.9z"/>
</g>
</svg>
