<?xml version="1.0" encoding="utf-8"?>
<!-- Generator: Adobe Illustrator 22.0.1, SVG Export Plug-In . SVG Version: 6.00 Build 0)  -->
<svg version="1.1" xmlns="http://www.w3.org/2000/svg" xmlns:xlink="http://www.w3.org/1999/xlink" x="0px" y="0px"
	 viewBox="0 0 173.3 168.6" style="enable-background:new 0 0 173.3 168.6;" xml:space="preserve">
<style type="text/css">
	.st0{fill:url(#SVGID_1_);}
	.st1{fill:#67401A;}
	.st2{opacity:0.41;fill:#723817;}
	.st3{fill:url(#SVGID_2_);}
	.st4{fill:#F8D2AC;stroke:#502F14;stroke-miterlimit:10;}
	.st5{fill:#F27755;}
	.st6{fill:#CD4E48;}
	.st7{fill:#CC5336;}
	.st8{fill:url(#SVGID_3_);}
	.st9{fill:none;stroke:#CD4E48;stroke-width:2;stroke-linecap:round;stroke-miterlimit:10;}
	.st10{fill:#F0EFEF;}
	.st11{fill:#392914;}
	.st12{fill:#E2E2E2;}
	.st13{display:none;fill:#D3D3D3;}
	.st14{fill:#EFAD9E;}
	.st15{fill:#E8E8E8;}
	.st16{fill:#582811;}
	.st17{fill:url(#SVGID_4_);}
	.st18{fill:#FFFFFF;}
	.st19{opacity:0.327;fill:#8750A0;}
	.st20{fill:#D68B7F;}
	.st21{fill:none;stroke:#392914;stroke-width:2;stroke-linecap:round;stroke-miterlimit:10;}
	.st22{fill:none;stroke:#502F14;stroke-miterlimit:10;}
	.st23{fill:#D3D3D3;}
	.st24{fill:#077243;}
	.st25{fill:url(#SVGID_5_);}
	.st26{fill:none;}
	.st27{fill:url(#SVGID_6_);}
	.st28{fill:#54A5D3;}
	.st29{fill:#392812;}
	.st30{fill:#F1BAA5;}
	.st31{fill:#2278B3;}
	.st32{opacity:0.5;fill:#D28B6B;}
	.st33{fill:#8A2727;}
	.st34{fill:#B63030;}
	.st35{fill:#0F1013;}
	.st36{opacity:0.19;}
	.st37{fill:#FBF9FC;}
	.st38{fill:#ED947B;}
	.st39{opacity:0.5;fill:#D4725B;}
	.st40{fill:none;stroke:#000000;stroke-linecap:round;stroke-miterlimit:10;}
	.st41{fill:#FFFFFF;stroke:#AD772B;stroke-linecap:round;stroke-miterlimit:10;}
	.st42{fill:#FFFFFF;stroke:#AD772B;stroke-width:0.75;stroke-linecap:round;stroke-miterlimit:10;}
	.st43{fill:#FFFFFF;stroke:#AD772B;stroke-width:0.5;stroke-linecap:round;stroke-miterlimit:10;}
	.st44{fill:none;stroke:#AD772B;stroke-width:0.5;stroke-linecap:round;stroke-miterlimit:10;}
</style>
<g id="Layer_1">
	<linearGradient id="SVGID_1_" gradientUnits="userSpaceOnUse" x1="644.6008" y1="-128.1553" x2="644.6008" y2="172.0153">
		<stop  offset="0" style="stop-color:#D4975D"/>
		<stop  offset="1" style="stop-color:#BA8351"/>
	</linearGradient>
	<path class="st0" d="M736.3-122.4l2.1-5.7h-35.3l-2.3,14.1l-2.3-14.1h-7.5l-0.8,7.7l-1.2-7.7H587.5v11.6l-1.4-11.6h-39.3v280.3
		l16.1,0.4c-6.5,2.6,3.4,22,3.4,22h176.1v-292.7l-1.5-7.9L736.3-122.4z"/>
	
		<text transform="matrix(1 0 0 1 579.4528 -78.1833)" class="st1" style="font-family:'PlantagenetCherokee'; font-size:29.6602px;">WANTED</text>
	<path class="st2" d="M557.3,164.3l3.1-8.1h4.8c0,0-5.3,5.1,1.1,18.5"/>
	<linearGradient id="SVGID_2_" gradientUnits="userSpaceOnUse" x1="564.4708" y1="154.8862" x2="555.9258" y2="164.0675">
		<stop  offset="0" style="stop-color:#C18955"/>
		<stop  offset="0.1095" style="stop-color:#C88E58"/>
		<stop  offset="0.2937" style="stop-color:#D0945C"/>
		<stop  offset="0.4943" style="stop-color:#D4975D"/>
		<stop  offset="0.7902" style="stop-color:#C28955"/>
		<stop  offset="1" style="stop-color:#BA8351"/>
	</linearGradient>
	<path class="st3" d="M562.9,152.6l-16.1-0.4l19.5,22.4C566.3,174.6,556.4,155.2,562.9,152.6z"/>
	<path class="st4" d="M371.2,415.4H208c-2.5,0-4.6-2-4.6-4.6V252.4c0-2.5,2-4.6,4.6-4.6h163.2c2.5,0,4.6,2,4.6,4.6v158.4
		C375.8,413.3,373.7,415.4,371.2,415.4z"/>
	<path class="st5" d="M289.6,376.9L289.6,376.9c-20.1,0-36.4-16.3-36.4-36.4v-24.6c0-20.1,16.3-36.4,36.4-36.4h0
		c20.1,0,36.4,16.3,36.4,36.4v24.6C326.1,360.6,309.8,376.9,289.6,376.9z"/>
	<path class="st6" d="M289.6,342.3L289.6,342.3c-2.6,0-4.6-2.1-4.6-4.6v-20h9.3v20C294.3,340.3,292.2,342.3,289.6,342.3z"/>
	
		<rect x="287.3" y="288" transform="matrix(-8.556943e-10 1 -1 -8.556943e-10 607.3563 28.1026)" class="st6" width="4.6" height="59.5"/>
	<g>
		<path class="st5" d="M253.2,334c-4.1,0-7.5-3.4-7.5-7.5c0-4.1,3.4-7.5,7.5-7.5"/>
		<path class="st7" d="M253.2,331.2c-2.6,0-4.7-2.1-4.7-4.7c0-2.6,2.1-4.7,4.7-4.7"/>
	</g>
	<g>
		<path class="st5" d="M326.1,317.9c4.1,0,7.5,3.4,7.5,7.5s-3.4,7.5-7.5,7.5"/>
		<path class="st7" d="M326.1,320.7c2.6,0,4.7,2.1,4.7,4.7s-2.1,4.7-4.7,4.7"/>
	</g>
	<linearGradient id="SVGID_3_" gradientUnits="userSpaceOnUse" x1="299.0166" y1="363.71" x2="299.0166" y2="352.94">
		<stop  offset="0" style="stop-color:#FFD83B"/>
		<stop  offset="0.1765" style="stop-color:#FCCC3C"/>
		<stop  offset="0.499" style="stop-color:#F9B83C"/>
		<stop  offset="0.7838" style="stop-color:#F7AC3C"/>
		<stop  offset="0.9988" style="stop-color:#F7A73C"/>
	</linearGradient>
	<path class="st8" d="M303.2,354v7.6c0,1.1-0.9,2.1-2.1,2.1c-0.6,0-1.1-0.2-1.5-0.6s-0.6-0.9-0.6-1.5v-3.5c-0.2,1-1,1.7-2.1,1.7
		c-0.6,0-1.1-0.2-1.5-0.6c-0.4-0.4-0.6-0.9-0.6-1.5v-4.8h4.2v1.1H303.2z"/>
	<line class="st9" x1="272.4" y1="353.4" x2="306.8" y2="353.4"/>
	<g>
		<g>
			<path class="st10" d="M271.7,328.6c4.7,0,8.6-3.8,8.6-8.6h-17.2C263.1,324.8,266.9,328.6,271.7,328.6z"/>
		</g>
		<path class="st11" d="M271.9,325.4c3,0,5.4-2.4,5.4-5.4h-10.7C266.5,323,269,325.4,271.9,325.4z"/>
	</g>
	<g>
		<g>
			<path class="st10" d="M307.6,328.6c4.7,0,8.6-3.8,8.6-8.6H299C299,324.8,302.8,328.6,307.6,328.6z"/>
		</g>
		<path class="st11" d="M307.8,325.4c3,0,5.4-2.4,5.4-5.4h-10.7C302.4,323,304.8,325.4,307.8,325.4z"/>
	</g>
	<g>
		<path d="M241,400.8v14.6h97.3v-14.6c0-1.8-0.2-3.6-0.6-5.4h-96.1C241.2,397.1,241,398.9,241,400.8z"/>
		<path d="M314.4,376.9h-49.6c-5.9,0-11.3,2.1-15.4,5.7h80.5C325.7,379,320.3,376.9,314.4,376.9z"/>
		<path d="M246,386.2c-1.3,1.7-2.4,3.6-3.3,5.7h93.9c-0.8-2-1.9-4-3.3-5.7H246z"/>
	</g>
	<path class="st12" d="M241.6,395.4h96.1c-0.3-1.2-0.7-2.4-1.1-3.6h-93.9C242.2,393,241.8,394.2,241.6,395.4z"/>
	<path class="st12" d="M329.9,382.6h-80.5c-1.3,1.1-2.4,2.3-3.4,3.6h87.3C332.3,384.9,331.1,383.7,329.9,382.6z"/>
	<rect x="241" y="408.9" class="st12" width="97.3" height="3.6"/>
	<rect x="241" y="400.6" class="st12" width="97.3" height="3.6"/>
	<path class="st12" d="M270,376.9v0.9c0,9.3,8,16.7,17.9,16.7h5c9.9,0,17.9-7.5,17.9-16.7v-0.9H270z"/>
	<path class="st5" d="M290.5,391.8L290.5,391.8c-9.9,0-17.9-8-17.9-17.9v-1.6c0-4.7,3.8-8.6,8.6-8.6h18.7c4.7,0,8.6,3.8,8.6,8.6v1.6
		C308.4,383.8,300.4,391.8,290.5,391.8z"/>
	<g id="ik0zPN_1_">
		
			<image style="overflow:visible;" width="1774" height="2364" id="ik0zPN_2_" xlink:href="8238EE671A2C6245.jpg"  transform="matrix(6.449118e-02 0 0 6.449118e-02 -254.7222 -106.0325)">
		</image>
	</g>
	<path class="st13" d="M89.1,65L84,56.7l-2.5-1.2V51c0,0-4.3-0.9-4.6-2.1s0.4,7.9,2.6,9.7c2.2,1.8,5.1,4.7,5.1,4.7L89.1,65z"/>
	<path class="st4" d="M168.2,168.1H5.1c-2.5,0-4.6-2-4.6-4.6V5.1c0-2.5,2-4.6,4.6-4.6h163.2c2.5,0,4.6,2,4.6,4.6v158.4
		C172.8,166,170.8,168.1,168.2,168.1z"/>
	<polygon class="st14" points="67.4,168 57.2,168.5 60.7,139.4 72.1,140.7 	"/>
	<path class="st15" d="M70.4,163.4L57,161.7l3.1-25.8c0.4-3.3,3.4-5.7,6.8-5.3l4.5,0.5c1.6,0.2,2.7,1.6,2.5,3.2L70.4,163.4z"/>
	<polygon class="st14" points="112.8,167.7 123,168.1 119.5,139 108.2,140.3 	"/>
	<path class="st15" d="M109.9,163.4l13.4-1.6l-3.2-26.2c-0.4-3.3-3.4-5.7-6.8-5.3l-4.5,0.5c-1.6,0.2-2.7,1.6-2.5,3.2L109.9,163.4z"
		/>
	<path class="st16" d="M99.4,100.7H81.8c-14.1,0-25.5-11.4-25.5-25.5V57.6c0-14.1,11.4-25.5,25.5-25.5h17.7
		c14.1,0,25.5,11.4,25.5,25.5v17.7C124.9,89.3,113.5,100.7,99.4,100.7z"/>
	<g>
		<linearGradient id="SVGID_4_" gradientUnits="userSpaceOnUse" x1="90.2179" y1="146.5241" x2="90.2179" y2="175.4767">
			<stop  offset="1.362180e-03" style="stop-color:#E8E8E8"/>
			<stop  offset="0.3374" style="stop-color:#DFDFDF"/>
			<stop  offset="0.7146" style="stop-color:#D9DADB"/>
			<stop  offset="1" style="stop-color:#D8D9DA"/>
		</linearGradient>
		<path class="st17" d="M112.4,167.7H68v-25.9c0-5.7,4.6-10.3,10.3-10.3h23.7c5.7,0,10.3,4.6,10.3,10.3V167.7z"/>
	</g>
	<path class="st14" d="M90.2,143.4L90.2,143.4c-4.8,0-8.7-3.9-8.7-8.7v-15.3h17.4v15.3C98.9,139.5,95,143.4,90.2,143.4z"/>
	<path class="st14" d="M90.6,127.1L90.6,127.1c-16.4,0-29.6-13.3-29.6-29.6V68.1c0-16.4,13.3-29.6,29.6-29.6h0
		c16.4,0,29.6,13.3,29.6,29.6v29.4C120.2,113.9,107,127.1,90.6,127.1z"/>
	<circle class="st18" cx="74.5" cy="77.8" r="10.1"/>
	<path class="st19" d="M77.4,89.4c-1.3,0.2-2.5,0.1-3.6-0.1c1.2,1,2.9,1.6,4.7,1.5c3.2-0.3,5.7-2.7,5.4-5.4c0,0,0,0,0,0
		C83,87.3,80.5,88.9,77.4,89.4z"/>
	<path class="st19" d="M105.5,89.4c1.3,0.2,2.5,0.1,3.6-0.1c-1.2,1-2.9,1.6-4.7,1.5c-3.2-0.3-5.7-2.7-5.4-5.4c0,0,0,0,0,0
		C99.9,87.3,102.4,88.9,105.5,89.4z"/>
	<path class="st20" d="M74.5,67.7c-5.6,0-10.1,4.5-10.1,10.1h20.2C84.6,72.2,80.1,67.7,74.5,67.7z"/>
	<ellipse class="st11" cx="74.5" cy="80.3" rx="3" ry="1.7"/>
	<circle class="st18" cx="107.6" cy="77.8" r="10.1"/>
	<path class="st20" d="M107.6,67.7c-5.6,0-10.1,4.5-10.1,10.1h20.2C117.6,72.2,113.1,67.7,107.6,67.7z"/>
	<ellipse class="st16" cx="90.6" cy="49.5" rx="21.8" ry="13.4"/>
	<path class="st21" d="M84,102.7c0,0,5.7-5.7,12.5,0"/>
	<path class="st16" d="M76.2,66.4h-6.7c-1.2,0-2.2-1-2.2-2.2v0c0-1.2,1-2.2,2.2-2.2h6.7c1.2,0,2.2,1,2.2,2.2v0
		C78.4,65.4,77.4,66.4,76.2,66.4z"/>
	<path class="st16" d="M112.5,66.8h-6.7c-1.2,0-2.2-1-2.2-2.2l0,0c0-1.2,1-2.2,2.2-2.2h6.7c1.2,0,2.2,1,2.2,2.2l0,0
		C114.7,65.8,113.7,66.8,112.5,66.8z"/>
	<path class="st22" d="M168.2,168.1H5.1c-2.5,0-4.6-2-4.6-4.6V5.1c0-2.5,2-4.6,4.6-4.6h163.2c2.5,0,4.6,2,4.6,4.6v158.4
		C172.8,166,170.8,168.1,168.2,168.1z"/>
	<path class="st15" d="M89.1,144.3l-5.2-8.4l-2.5-1.2V131c0,0-4.3-1.7-4.7-2.9c0,0,0.5,8,2.7,9.8s5.1,4.7,5.1,4.7L89.1,144.3z"/>
	<polygon class="st23" points="95.6,142.9 103.7,140.3 97.5,140.3 	"/>
	<path class="st23" d="M77.5,129.9c1.3,1.8,4.1,4.8,4.1,4.8V131c0,0-4.3-1.7-4.7-2.9l0,0.2C76.9,128.8,77.1,129.4,77.5,129.9z"/>
	<path class="st15" d="M98.9,131.4c0,0-0.4,9.5-5.1,11.2l-4.7,1.7H94l3.4-3.2l6.2-0.8l-3.2-10.4h-1.5V131.4z"/>
	<polygon class="st23" points="80.8,136.7 83.2,137.3 87.9,143.4 	"/>
	<path class="st24" d="M94.1,167.6c0.2-2.4-0.1-13.2-1.7-15.7l-2.1,0.1c-0.3,1.4-1.9,12.3-1.5,15.6H94.1z"/>
	<linearGradient id="SVGID_5_" gradientUnits="userSpaceOnUse" x1="87.2789" y1="133.1044" x2="87.2789" y2="154.6533">
		<stop  offset="0" style="stop-color:#087243"/>
		<stop  offset="0.3174" style="stop-color:#0F7043"/>
		<stop  offset="1" style="stop-color:#146E42"/>
	</linearGradient>
	<path class="st25" d="M99,130c0-0.1-0.1-0.2-0.2-0.2c-0.3,0-0.2,1.3-0.2,1.6c0,0.8-0.1,1.5-0.2,2.3c-0.2,0.9-0.3,1.7-0.5,2.6
		c-0.4,2-1,4-1.6,6c-0.6,1.7-1.3,3.5-2.4,5c-0.7,1-1.8,2.1-3.2,2c-0.6,0-1.2-0.2-1.8-0.5c-1.6-0.7-2.9-1.9-4.1-3.2
		c-1.4-1.5-2.6-3.2-3.8-4.9c-1-1.6-2-3.4-2.7-5.2c-0.3-0.7-0.6-1.5-0.8-2.2c-0.1-0.3-0.2-0.6-0.2-1c0-0.2,0-0.8-0.2-0.9
		c0,0-0.1,0-0.1,0c-0.3,0-0.7,0.1-1,0.2c-0.5,0.2-0.2,0.7-0.1,1c0.4,1.1,0.8,2.3,1.3,3.4c0.7,1.7,1.5,3.3,2.5,4.9
		c1.1,1.9,2.4,3.6,3.8,5.2c1.5,1.7,3.3,3.3,5.3,4.4c0.5,0.3,1.1,0.5,1.8,0.6c0.1,0,0.3,0,0.4,0c0.7,0,1.4-0.1,2-0.3
		c0.9-0.3,1.6-0.9,2.3-1.6c0.9-1,1.6-2.3,2.1-3.5c0.8-2,1.1-4.1,1.4-6.2c0.2-1.4,0.2-2.8,0.3-4.2c0.1-1.7,0.2-3.3,0.2-5
		C99,130.3,99,130.2,99,130z"/>
	<path class="st24" d="M89.3,158.2c-0.3,2.3-0.1,1.1-0.1,1.1"/>
	<path class="st24" d="M93.2,154.4c0,0-3.4,0.3-3.8,3.2l-0.3,2.5"/>
	<g>
		<path class="st26" d="M92.7,163.7c-0.7-1.5-2.1-11.2-2.1-11.7l-0.3,0c-0.3,1.4-1.9,12.3-1.5,15.6h5.3c0-0.4,0.1-1.1,0.1-1.9
			C93.5,165.1,93,164.3,92.7,163.7z"/>
		<path class="st26" d="M93.4,155.8c-0.3-1.7-0.6-3.2-1.1-3.9L91,152h0.6C91.5,152,92.6,154,93.4,155.8z"/>
		<linearGradient id="SVGID_6_" gradientUnits="userSpaceOnUse" x1="94.504" y1="165.4577" x2="92.1105" y2="156.3254">
			<stop  offset="0" style="stop-color:#087243"/>
			<stop  offset="4.933041e-02" style="stop-color:#0E7143"/>
			<stop  offset="0.4223" style="stop-color:#216640"/>
			<stop  offset="0.7515" style="stop-color:#28603E"/>
			<stop  offset="1" style="stop-color:#2A5D3E"/>
		</linearGradient>
		<path class="st27" d="M90.9,152.3c-0.6,0.9-0.5,2.1-0.3,3.1c0.2,0.8,0.6,1.6,0.8,2.4c0.2,0.8,0.3,1.6,0.4,2.3
			c0.2,1.1,0.3,2.4,0.8,3.5c0.3,0.6,0.8,2.5,1.4,3.1c0-2.6-0.2-7.9-0.7-11.1c-0.8-1.8-1.9-3.8-1.9-3.8H91l-0.4,0
			c0,0.3,0.5,3.6,1,6.6"/>
	</g>
	<path class="st24" d="M91.1,152c0.4,2.7,0.8,5.5,1.3,8.2c0.2,0.9,0.3,1.7,0.5,2.6c0.2,0.7,0.4,1.3,0.6,2c0.2,0.6,0.4,1.3,0.7,1.8
		c0.2,0.3,0.4,0.5,0.5,0.8c0.1,0.1,0.1,0.3,0.1,0.4c0,0,0,0.1,0.1,0.1c0,0,0.1,0,0.1,0c0.3,0,0.9,0,1.2-0.2c0.1-0.1-0.1-1-0.1-1.1
		c-0.1-0.3-0.1-0.7-0.2-1c-0.2-0.9-0.4-1.8-0.6-2.6c-0.4-1.8-0.8-3.6-1.3-5.4c-0.1-0.4-0.2-0.8-0.4-1.2c-0.8-1.8-1.5-3.1-1.5-3.1
		L91.1,152z"/>
	<path class="st24" d="M88.4,149.2l5.1-0.6c0.6-0.1,1,0.4,0.7,0.9l-2.2,3.5c-0.2,0.4-0.9,0.5-1.2,0.1l-2.9-2.9
		C87.6,149.8,87.8,149.2,88.4,149.2z"/>
	<ellipse class="st11" cx="107.6" cy="80.3" rx="3" ry="1.7"/>
</g>
<g id="Layer_2">
	<path class="st4" d="M-80.4,415.1h-163.2c-2.5,0-4.6-2-4.6-4.6V252.1c0-2.5,2-4.6,4.6-4.6h163.2c2.5,0,4.6,2,4.6,4.6v158.4
		C-75.9,413-77.9,415.1-80.4,415.1z"/>
	<path class="st28" d="M-162,376c-15.3,0-27.7,9.6-27.7,21.4h55.3C-134.3,385.5-146.7,376-162,376z"/>
	<path class="st29" d="M-197.5,329.5V298c0-6.6,5.4-12,12-12h6.2c6.6,0,12,5.4,12,12v31.5c0,6.6-5.4,12-12,12h-6.2
		C-192.1,341.5-197.5,336.2-197.5,329.5z"/>
	<path class="st29" d="M-155.5,329.5V298c0-6.6,5.4-12,12-12h6.2c6.6,0,12,5.4,12,12v31.5c0,6.6-5.4,12-12,12h-6.2
		C-150.1,341.5-155.5,336.2-155.5,329.5z"/>
	<rect x="-141.9" y="397.3" class="st30" width="7.6" height="18.1"/>
	<rect x="-189.6" y="397.3" class="st30" width="7.6" height="18.1"/>
	<path class="st31" d="M-141.9,415.5v-18.8c0-11.4-9-20.7-20.1-20.7s-20.1,9.3-20.1,20.7v18.8H-141.9z"/>
	<path class="st30" d="M-162,385.9L-162,385.9c-3.6,0-6.5-2.9-6.5-6.5v-12.2c0-3.6,2.9-6.5,6.5-6.5l0,0c3.6,0,6.5,2.9,6.5,6.5v12.2
		C-155.5,383-158.4,385.9-162,385.9z"/>
	<path class="st32" d="M-162,360.8L-162,360.8c-3.6,0-6.5,2.9-6.5,6.5v5.4c2.1,0.5,4.2,0.8,6.5,0.8h0c2.2,0,4.4-0.3,6.5-0.8v-5.4
		C-155.5,363.7-158.4,360.8-162,360.8z"/>
	<path class="st30" d="M-162,371L-162,371c-15.3,0-27.7-12.4-27.7-27.7v-35.9c0-15.3,12.4-27.7,27.7-27.7h0
		c15.3,0,27.7,12.4,27.7,27.7v35.9C-134.3,358.7-146.7,371-162,371z"/>
	<path class="st29" d="M-149.8,317.5h-24.3c-10,0-18.1-8.1-18.1-18.1v-5c0-10,8.1-18.1,18.1-18.1h24.3c10,0,18.1,8.1,18.1,18.1v5
		C-131.7,309.4-139.8,317.5-149.8,317.5z"/>
	<path class="st29" d="M-177.8,332L-177.8,332c-0.9,0-1.6-0.7-1.6-1.6v-5.1c0-0.9,0.7-1.6,1.6-1.6l0,0c0.9,0,1.6,0.7,1.6,1.6v5.1
		C-176.2,331.3-176.9,332-177.8,332z"/>
	<path class="st29" d="M-144.9,332L-144.9,332c-0.9,0-1.6-0.7-1.6-1.6v-5.1c0-0.9,0.7-1.6,1.6-1.6l0,0c0.9,0,1.6,0.7,1.6,1.6v5.1
		C-143.3,331.3-144,332-144.9,332z"/>
	<g>
		<path class="st33" d="M-167.7,348.1c1.5-1.4,3.5-2.2,5.7-2.2c2.2,0,4.2,0.9,5.7,2.2c1.5-1.3,2.4-3.2,2.7-5.2h-16.8
			C-170.1,344.9-169.2,346.7-167.7,348.1z"/>
		<path class="st34" d="M-167.7,348.1c1.5,1.4,3.5,2.2,5.7,2.2c2.2,0,4.2-0.9,5.7-2.2c-1.5-1.4-3.5-2.2-5.7-2.2
			C-164.2,345.8-166.2,346.7-167.7,348.1z"/>
		<path class="st18" d="M-153.6,341.5h-16.8c0,0.2-0.1,0.4-0.1,0.6c0,0.3,0.1,0.5,0.1,0.7h16.8c0-0.2,0.1-0.5,0.1-0.7
			C-153.5,341.9-153.5,341.7-153.6,341.5z"/>
	</g>
	<path class="st22" d="M-80.4,415.1h-163.2c-2.5,0-4.6-2-4.6-4.6V252.1c0-2.5,2-4.6,4.6-4.6h163.2c2.5,0,4.6,2,4.6,4.6v158.4
		C-75.9,413-77.9,415.1-80.4,415.1z"/>
	<g>
		<path class="st4" d="M-330.8,415.1H-494c-2.5,0-4.6-2-4.6-4.6V252.1c0-2.5,2-4.6,4.6-4.6h163.2c2.5,0,4.6,2,4.6,4.6v158.4
			C-326.3,413-328.3,415.1-330.8,415.1z"/>
		<path class="st22" d="M-330.8,415.1H-494c-2.5,0-4.6-2-4.6-4.6V252.1c0-2.5,2-4.6,4.6-4.6h163.2c2.5,0,4.6,2,4.6,4.6v158.4
			C-326.3,413-328.3,415.1-330.8,415.1z"/>
		<path class="st35" d="M-385.8,415.3h-52.7v-34.4V376c0-7.4,6-13.4,13.4-13.4h25.9c7.4,0,13.4,6,13.4,13.4V415.3z"/>
		<rect x="-421.4" y="362.6" class="st18" width="18.4" height="52.7"/>
		<path d="M-411.5,373.2l2.8-2.8c0.6-0.6,0.2-1.7-0.7-1.7h-5.6c-0.9,0-1.3,1.1-0.7,1.7l2.8,2.8
			C-412.5,373.6-411.9,373.6-411.5,373.2z"/>
		<path class="st36" d="M-417.9,362.2l4.3,6.3l-6.1,3.8c-0.6,0.5-1.5,0-1.6-0.9l1.1-8.2L-417.9,362.2z"/>
		<path class="st36" d="M-406.6,363l-4,5.5l6.1,3.8c0.6,0.5,1.5,0,1.6-0.9l-1.3-7.4L-406.6,363z"/>
		<path class="st37" d="M-417.9,361.7l4.3,6.8l-6.1,3.2c-0.6,0.4-1.5,0-1.6-0.7l1.1-8.4L-417.9,361.7z"/>
		<path class="st37" d="M-406.4,361.7l-4.3,6.8l6.1,3.2c0.6,0.4,1.5,0,1.6-0.7l-1.1-8.4L-406.4,361.7z"/>
		<path class="st29" d="M-444.3,321.7v-15.8c0-6.6,5.4-12,12-12h2.8c6.6,0,12,5.4,12,12v15.8c0,6.6-5.4,12-12,12h-2.8
			C-438.9,333.7-444.3,328.3-444.3,321.7z"/>
		<path class="st29" d="M-406.9,321.9v-15.8c0-6.6,5.4-12,12-12h2.8c6.6,0,12,5.4,12,12v15.8c0,6.6-5.4,12-12,12h-2.8
			C-401.6,333.9-406.9,328.5-406.9,321.9z"/>
		<path class="st38" d="M-412.2,368.7L-412.2,368.7c-3.2,0-5.8-2.6-5.8-5.8v-10.8c0-3.2,2.6-5.8,5.8-5.8l0,0c3.2,0,5.8,2.6,5.8,5.8
			v10.8C-406.4,366.1-409,368.7-412.2,368.7z"/>
		<path class="st39" d="M-412.2,346.4L-412.2,346.4c-3.2,0-5.8,2.6-5.8,5.8v4.8c1.8,0.4,3.8,0.7,5.8,0.7h0c2,0,3.9-0.3,5.8-0.7v-4.8
			C-406.4,349-409,346.4-412.2,346.4z"/>
		<path class="st38" d="M-412.2,355.8L-412.2,355.8c-13.6,0-24.6-11-24.6-24.6v-24.8c0-13.6,11-24.6,24.6-24.6h0
			c13.6,0,24.6,11,24.6,24.6v24.8C-387.6,344.8-398.6,355.8-412.2,355.8z"/>
		<path class="st29" d="M-396.8,306.8h-35c-4.2,0-7.6-3.4-7.6-7.6v0c0-13,10.6-23.6,23.6-23.6h37c2,0,3.6,1.6,3.6,3.6v6.1
			C-375.2,297.2-384.9,306.8-396.8,306.8z"/>
		<path d="M-414,374.7l-2.1,29.6c0,0.4,0.1,0.8,0.4,1.1l2.6,2.6c0.5,0.5,1.4,0.5,1.9,0l2.6-2.6c0.3-0.3,0.4-0.7,0.4-1.1l-2.6-29.6
			c-0.1-0.7-0.6-1.2-1.4-1.2h-0.5C-413.4,373.5-413.9,374-414,374.7z"/>
		<path class="st40" d="M-419.2,339.3h10.8c0,0,3.1,0,3.4-1.5"/>
		<path class="st29" d="M-432.3,314"/>
		<g>
			<path class="st29" d="M-425.4,329.7c6,0,10.9-4.9,10.9-10.9h-21.7C-436.3,324.8-431.4,329.7-425.4,329.7z"/>
			<path class="st29" d="M-397.9,329.7c6,0,10.9-4.9,10.9-10.9h-21.7C-408.8,324.8-403.9,329.7-397.9,329.7z"/>
			<rect x="-437.6" y="318.8" class="st29" width="51.8" height="1.1"/>
		</g>
	</g>
	<g>
		<line class="st41" x1="135.7" y1="64.3" x2="139.1" y2="64.3"/>
		<line class="st41" x1="128.6" y1="64.3" x2="132" y2="64.3"/>
		<line class="st41" x1="133.8" y1="66.1" x2="133.8" y2="69.5"/>
		<line class="st41" x1="133.8" y1="59" x2="133.8" y2="62.4"/>
		<line class="st41" x1="135.1" y1="65.6" x2="137.5" y2="68"/>
		<line class="st41" x1="130.1" y1="60.6" x2="132.5" y2="62.9"/>
		<line class="st41" x1="135.1" y1="62.9" x2="137.5" y2="60.6"/>
		<line class="st41" x1="130.1" y1="68" x2="132.5" y2="65.6"/>
	</g>
	<g>
		<line class="st42" x1="75.7" y1="19.9" x2="79" y2="19.9"/>
		<line class="st42" x1="68.6" y1="19.9" x2="72" y2="19.9"/>
		<line class="st42" x1="73.8" y1="21.7" x2="73.8" y2="25.1"/>
		<line class="st42" x1="73.8" y1="14.6" x2="73.8" y2="18"/>
		<line class="st42" x1="75.1" y1="21.2" x2="77.5" y2="23.6"/>
		<line class="st42" x1="70.1" y1="16.2" x2="72.5" y2="18.6"/>
		<line class="st42" x1="75.1" y1="18.6" x2="77.5" y2="16.2"/>
		<line class="st42" x1="70.1" y1="23.6" x2="72.5" y2="21.2"/>
	</g>
	<g>
		<line class="st43" x1="132.8" y1="39.6" x2="134.9" y2="39.6"/>
		<line class="st43" x1="128.3" y1="39.6" x2="130.4" y2="39.6"/>
		<line class="st43" x1="131.6" y1="40.8" x2="131.6" y2="42.9"/>
		<line class="st43" x1="131.6" y1="36.4" x2="131.6" y2="38.5"/>
		<line class="st43" x1="132.4" y1="40.5" x2="133.9" y2="41.9"/>
		<line class="st43" x1="129.3" y1="37.3" x2="130.8" y2="38.8"/>
		<line class="st43" x1="132.4" y1="38.8" x2="133.9" y2="37.3"/>
		<line class="st43" x1="129.3" y1="41.9" x2="130.8" y2="40.5"/>
	</g>
	<g>
		<line class="st43" x1="43.2" y1="54.6" x2="45.4" y2="55.5"/>
		<line class="st43" x1="38.6" y1="52.7" x2="40.8" y2="53.6"/>
		<line class="st43" x1="41.5" y1="55.3" x2="40.5" y2="57.5"/>
		<line class="st43" x1="43.4" y1="50.7" x2="42.5" y2="52.9"/>
		<line class="st43" x1="42.5" y1="55.3" x2="43.4" y2="57.5"/>
		<line class="st43" x1="40.6" y1="50.7" x2="41.5" y2="52.9"/>
		<line class="st43" x1="43.2" y1="53.6" x2="45.4" y2="52.7"/>
		<line class="st43" x1="38.6" y1="55.5" x2="40.8" y2="54.6"/>
	</g>
	<circle class="st44" cx="48.3" cy="69.5" r="1.8"/>
	<circle class="st44" cx="82.6" cy="25.1" r="1.8"/>
	<circle class="st44" cx="48.3" cy="48.7" r="0.9"/>
	<circle class="st44" cx="124" cy="31.2" r="0.9"/>
	<circle class="st44" cx="145.6" cy="56.7" r="0.9"/>
</g>
</svg>
