<?xml version="1.0" encoding="utf-8"?>
<!-- Generator: Adobe Illustrator 22.0.1, SVG Export Plug-In . SVG Version: 6.00 Build 0)  -->
<svg version="1.1" xmlns="http://www.w3.org/2000/svg" xmlns:xlink="http://www.w3.org/1999/xlink" x="0px" y="0px"
	 viewBox="0 0 173.3 168.6" style="enable-background:new 0 0 173.3 168.6;" xml:space="preserve">
<style type="text/css">
	.st0{fill:url(#SVGID_1_);}
	.st1{fill:#673F1B;}
	.st2{opacity:0.41;fill:#723817;}
	.st3{fill:url(#SVGID_2_);}
	.st4{fill:#F8D2AC;stroke:#502F14;stroke-miterlimit:10;}
	.st5{fill:#F27755;}
	.st6{fill:#CD4E48;}
	.st7{fill:#CC5336;}
	.st8{fill:url(#SVGID_3_);}
	.st9{fill:none;stroke:#CD4E48;stroke-width:2;stroke-linecap:round;stroke-miterlimit:10;}
	.st10{fill:#F0EFEF;}
	.st11{fill:#392914;}
	.st12{fill:#E2E2E2;}
	.st13{fill:#EFAD9E;}
	.st14{fill:#C74C38;}
	.st15{fill:#582811;}
	.st16{fill:#FFFFFF;}
	.st17{opacity:0.327;fill:#8750A0;}
	.st18{fill:#D68B7F;}
	.st19{fill:none;stroke:#392914;stroke-width:2;stroke-linecap:round;stroke-miterlimit:10;}
	.st20{fill:none;stroke:#502F14;stroke-miterlimit:10;}
	.st21{fill:#0F1013;}
	.st22{opacity:0.19;}
	.st23{fill:#FBF9FC;}
	.st24{fill:#54A5D3;}
	.st25{fill:#392812;}
	.st26{fill:#F1BAA5;}
	.st27{fill:#2278B3;}
	.st28{opacity:0.5;fill:#D28B6B;}
	.st29{fill:#8A2727;}
	.st30{fill:#B63030;}
	.st31{fill:none;stroke:#000000;stroke-linecap:round;stroke-miterlimit:10;}
</style>
<g id="Layer_1">
	<linearGradient id="SVGID_1_" gradientUnits="userSpaceOnUse" x1="441.6241" y1="-49.472" x2="441.6241" y2="250.6986">
		<stop  offset="0" style="stop-color:#D4975D"/>
		<stop  offset="1" style="stop-color:#BA8351"/>
	</linearGradient>
	<path class="st0" d="M533.3-43.8l2.1-5.7h-35.3l-2.3,14.1l-2.3-14.1h-7.5l-0.8,7.7l-1.2-7.7H384.5v11.6l-1.4-11.6h-39.3v280.3
		l16.1,0.4c-6.5,2.6,3.4,22,3.4,22h176.1V-39.4l-1.5-7.9L533.3-43.8z"/>
	<text transform="matrix(1 0 0 1 376.4761 0.5)" class="st1" style="font-family:'PlantagenetCherokee'; font-size:29.6602px;">WANTED</text>
	<path class="st2" d="M354.3,242.9l3.1-8.1h4.8c0,0-5.3,5.1,1.1,18.5"/>
	<linearGradient id="SVGID_2_" gradientUnits="userSpaceOnUse" x1="361.494" y1="233.5695" x2="352.949" y2="242.7508">
		<stop  offset="0" style="stop-color:#C18955"/>
		<stop  offset="0.1095" style="stop-color:#C88E58"/>
		<stop  offset="0.2937" style="stop-color:#D0945C"/>
		<stop  offset="0.4943" style="stop-color:#D4975D"/>
		<stop  offset="0.7902" style="stop-color:#C28955"/>
		<stop  offset="1" style="stop-color:#BA8351"/>
	</linearGradient>
	<path class="st3" d="M359.9,231.3l-16.1-0.4l19.5,22.4C363.3,253.3,353.4,233.9,359.9,231.3z"/>
	<g>
		<path class="st4" d="M168.2,168.1H5.1c-2.5,0-4.6-2-4.6-4.6V5.1c0-2.5,2-4.6,4.6-4.6h163.2c2.5,0,4.6,2,4.6,4.6v158.4
			C172.8,166,170.8,168.1,168.2,168.1z"/>
		<path class="st5" d="M86.7,129.6L86.7,129.6c-20.1,0-36.4-16.3-36.4-36.4V68.6c0-20.1,16.3-36.4,36.4-36.4h0
			c20.1,0,36.4,16.3,36.4,36.4v24.6C123.1,113.3,106.8,129.6,86.7,129.6z"/>
		<path class="st6" d="M86.7,95L86.7,95C84.1,95,82,93,82,90.4v-20h9.3v20C91.3,93,89.2,95,86.7,95z"/>
		
			<rect x="84.3" y="40.7" transform="matrix(-8.556943e-10 1 -1 -8.556943e-10 157.0798 -16.2203)" class="st6" width="4.6" height="59.5"/>
		<g>
			<path class="st5" d="M50.2,86.7c-4.1,0-7.5-3.4-7.5-7.5c0-4.1,3.4-7.5,7.5-7.5"/>
			<path class="st7" d="M50.2,83.9c-2.6,0-4.7-2.1-4.7-4.7c0-2.6,2.1-4.7,4.7-4.7"/>
		</g>
		<g>
			<path class="st5" d="M123.1,71.7c4.1,0,7.5,3.4,7.5,7.5c0,4.1-3.4,7.5-7.5,7.5"/>
			<path class="st7" d="M123.1,74.5c2.6,0,4.7,2.1,4.7,4.7c0,2.6-2.1,4.7-4.7,4.7"/>
		</g>
		<linearGradient id="SVGID_3_" gradientUnits="userSpaceOnUse" x1="96.0398" y1="116.4103" x2="96.0398" y2="105.6404">
			<stop  offset="0" style="stop-color:#FFD83B"/>
			<stop  offset="0.1765" style="stop-color:#FCCC3C"/>
			<stop  offset="0.499" style="stop-color:#F9B83C"/>
			<stop  offset="0.7838" style="stop-color:#F7AC3C"/>
			<stop  offset="0.9988" style="stop-color:#F7A73C"/>
		</linearGradient>
		<path class="st8" d="M100.2,106.7v7.6c0,1.1-0.9,2.1-2.1,2.1c-0.6,0-1.1-0.2-1.5-0.6s-0.6-0.9-0.6-1.5v-3.5c-0.2,1-1,1.7-2.1,1.7
			c-0.6,0-1.1-0.2-1.5-0.6c-0.4-0.4-0.6-0.9-0.6-1.5v-4.8h4.2v1.1H100.2z"/>
		<line class="st9" x1="69.4" y1="106.1" x2="103.9" y2="106.1"/>
		<g>
			<g>
				<path class="st10" d="M68.7,81.3c4.7,0,8.6-3.8,8.6-8.6H60.1C60.1,77.5,64,81.3,68.7,81.3z"/>
			</g>
			<path class="st11" d="M68.9,78.1c3,0,5.4-2.4,5.4-5.4H63.6C63.6,75.7,66,78.1,68.9,78.1z"/>
		</g>
		<g>
			<g>
				<path class="st10" d="M104.6,81.3c4.7,0,8.6-3.8,8.6-8.6H96C96,77.5,99.8,81.3,104.6,81.3z"/>
			</g>
			<path class="st11" d="M104.8,78.1c3,0,5.4-2.4,5.4-5.4H99.5C99.5,75.7,101.9,78.1,104.8,78.1z"/>
		</g>
		<g>
			<path d="M38,153.5v14.6h97.3v-14.6c0-1.8-0.2-3.6-0.6-5.4H38.6C38.2,149.8,38,151.6,38,153.5z"/>
			<path d="M111.5,129.6H61.8c-5.9,0-11.3,2.1-15.4,5.7h80.5C122.7,131.7,117.3,129.6,111.5,129.6z"/>
			<path d="M43,138.9c-1.3,1.7-2.4,3.6-3.3,5.7h93.9c-0.8-2-1.9-4-3.3-5.7H43z"/>
		</g>
		<path class="st12" d="M38.6,148.1h96.1c-0.3-1.2-0.7-2.4-1.1-3.6H39.7C39.2,145.7,38.9,146.9,38.6,148.1z"/>
		<path class="st12" d="M126.9,135.3H46.4c-1.3,1.1-2.4,2.3-3.4,3.6h87.3C129.3,137.6,128.2,136.4,126.9,135.3z"/>
		<rect x="38" y="161.6" class="st12" width="97.3" height="3.6"/>
		<rect x="38" y="153.3" class="st12" width="97.3" height="3.6"/>
		<path class="st12" d="M67.1,129.6v0.9c0,9.3,8,16.7,17.9,16.7h5c9.9,0,17.9-7.5,17.9-16.7v-0.9H67.1z"/>
		<path class="st5" d="M87.5,144.5L87.5,144.5c-9.9,0-17.9-8-17.9-17.9V125c0-4.7,3.8-8.6,8.6-8.6h18.7c4.7,0,8.6,3.8,8.6,8.6v1.6
			C105.4,136.5,97.4,144.5,87.5,144.5z"/>
	</g>
	<path class="st4" d="M-57.3,493.8h-163.2c-2.5,0-4.6-2-4.6-4.6V330.8c0-2.5,2-4.6,4.6-4.6h163.2c2.5,0,4.6,2,4.6,4.6v158.4
		C-52.7,491.7-54.8,493.8-57.3,493.8z"/>
	<g>
		<polygon class="st13" points="-158.1,493.7 -168.3,494.2 -164.8,465 -153.4,466.4 		"/>
		<path class="st14" d="M-153.2,473.4l-13.4-1.6l1.2-10.2c0.4-3.3,3.4-5.7,6.8-5.3l4.5,0.5c1.6,0.2,2.7,1.6,2.5,3.2L-153.2,473.4z"
			/>
	</g>
	<g>
		<polygon class="st13" points="-112.7,493.3 -102.5,493.8 -106,464.7 -117.3,466 		"/>
		<path class="st14" d="M-117.5,473.1l13.4-1.6l-1.2-10.2c-0.4-3.3-3.4-5.7-6.8-5.3l-4.5,0.5c-1.6,0.2-2.7,1.6-2.5,3.2L-117.5,473.1
			z"/>
	</g>
	<path class="st15" d="M-126.1,426.4h-17.7c-14.1,0-25.5-11.4-25.5-25.5v-17.7c0-14.1,11.4-25.5,25.5-25.5h17.7
		c14.1,0,25.5,11.4,25.5,25.5v17.7C-100.6,415-112,426.4-126.1,426.4z"/>
	<path class="st14" d="M-113.1,493.3h-44.4v-25.9c0-5.7,4.6-10.3,10.3-10.3h23.7c5.7,0,10.3,4.6,10.3,10.3V493.3z"/>
	<path class="st13" d="M-135.3,469.1L-135.3,469.1c-4.8,0-8.7-3.9-8.7-8.7v-15.3h17.4v15.3C-126.6,465.2-130.5,469.1-135.3,469.1z"
		/>
	<path class="st13" d="M-134.9,452.8L-134.9,452.8c-16.4,0-29.6-13.3-29.6-29.6v-29.4c0-16.4,13.3-29.6,29.6-29.6h0
		c16.4,0,29.6,13.3,29.6,29.6v29.4C-105.3,439.6-118.5,452.8-134.9,452.8z"/>
	<circle class="st16" cx="-151" cy="403.5" r="10.1"/>
	<path class="st17" d="M-148.1,415c-1.3,0.2-2.5,0.1-3.6-0.1c1.2,1,2.9,1.6,4.7,1.5c3.2-0.3,5.7-2.7,5.4-5.4c0,0,0,0,0,0
		C-142.5,413-145,414.6-148.1,415z"/>
	<path class="st17" d="M-120,415c1.3,0.2,2.5,0.1,3.6-0.1c-1.2,1-2.9,1.6-4.7,1.5c-3.2-0.3-5.7-2.7-5.4-5.4c0,0,0,0,0,0
		C-125.6,413-123.1,414.6-120,415z"/>
	<path class="st18" d="M-151,393.4c-5.6,0-10.1,4.5-10.1,10.1h20.2C-140.9,397.9-145.4,393.4-151,393.4z"/>
	<circle class="st11" cx="-151" cy="406" r="1.7"/>
	<circle class="st16" cx="-117.9" cy="403.5" r="10.1"/>
	<path class="st18" d="M-117.9,393.4c-5.6,0-10.1,4.5-10.1,10.1h20.2C-107.9,397.9-112.4,393.4-117.9,393.4z"/>
	<circle class="st11" cx="-117.9" cy="406" r="1.7"/>
	<ellipse class="st15" cx="-134.9" cy="375.2" rx="21.8" ry="13.4"/>
	<path class="st19" d="M-141.5,428.3c0,0,5.7-5.7,12.5,0"/>
	<path class="st15" d="M-149.3,392.1h-6.7c-1.2,0-2.2-1-2.2-2.2l0,0c0-1.2,1-2.2,2.2-2.2h6.7c1.2,0,2.2,1,2.2,2.2l0,0
		C-147.2,391.1-148.1,392.1-149.3,392.1z"/>
	<path class="st15" d="M-113,392.5h-6.7c-1.2,0-2.2-1-2.2-2.2l0,0c0-1.2,1-2.2,2.2-2.2h6.7c1.2,0,2.2,1,2.2,2.2l0,0
		C-110.8,391.5-111.8,392.5-113,392.5z"/>
	<path class="st20" d="M-57.3,493.8h-163.2c-2.5,0-4.6-2-4.6-4.6V330.8c0-2.5,2-4.6,4.6-4.6h163.2c2.5,0,4.6,2,4.6,4.6v158.4
		C-52.7,491.7-54.8,493.8-57.3,493.8z"/>
	<path class="st4" d="M-533.8,493.8H-697c-2.5,0-4.6-2-4.6-4.6V330.8c0-2.5,2-4.6,4.6-4.6h163.2c2.5,0,4.6,2,4.6,4.6v158.4
		C-529.2,491.7-531.3,493.8-533.8,493.8z"/>
	<path class="st20" d="M-533.8,493.8H-697c-2.5,0-4.6-2-4.6-4.6V330.8c0-2.5,2-4.6,4.6-4.6h163.2c2.5,0,4.6,2,4.6,4.6v158.4
		C-529.2,491.7-531.3,493.8-533.8,493.8z"/>
</g>
<g id="Layer_2">
	<path class="st21" d="M-588.8,494h-52.7v-34.4v-4.9c0-7.4,6-13.4,13.4-13.4h25.9c7.4,0,13.4,6,13.4,13.4V494z"/>
	<rect x="-624.3" y="441.3" class="st16" width="18.4" height="52.7"/>
	<path d="M-614.5,451.9l2.8-2.8c0.6-0.6,0.2-1.7-0.7-1.7h-5.6c-0.9,0-1.3,1.1-0.7,1.7l2.8,2.8C-615.5,452.3-614.9,452.3-614.5,451.9
		z"/>
	<path class="st22" d="M-620.9,440.9l4.3,6.3l-6.1,3.8c-0.6,0.5-1.5,0-1.6-0.9l1.1-8.2L-620.9,440.9z"/>
	<path class="st22" d="M-609.6,441.7l-4,5.5l6.1,3.8c0.6,0.5,1.5,0,1.6-0.9l-1.3-7.4L-609.6,441.7z"/>
	<path class="st23" d="M-620.9,440.4l4.3,6.8l-6.1,3.2c-0.6,0.4-1.5,0-1.6-0.7l1.1-8.4L-620.9,440.4z"/>
	<path class="st23" d="M-609.3,440.4l-4.3,6.8l6.1,3.2c0.6,0.4,1.5,0,1.6-0.7l-1.1-8.4L-609.3,440.4z"/>
	<path class="st4" d="M-283.4,493.8h-163.2c-2.5,0-4.6-2-4.6-4.6V330.8c0-2.5,2-4.6,4.6-4.6h163.2c2.5,0,4.6,2,4.6,4.6v158.4
		C-278.8,491.7-280.9,493.8-283.4,493.8z"/>
	<path class="st24" d="M-365,454.7c-15.3,0-27.7,9.6-27.7,21.4h55.3C-337.3,464.2-349.7,454.7-365,454.7z"/>
	<path class="st25" d="M-400.5,408.2v-31.5c0-6.6,5.4-12,12-12h6.2c6.6,0,12,5.4,12,12v31.5c0,6.6-5.4,12-12,12h-6.2
		C-395.1,420.2-400.5,414.8-400.5,408.2z"/>
	<path class="st25" d="M-358.5,408.2v-31.5c0-6.6,5.4-12,12-12h6.2c6.6,0,12,5.4,12,12v31.5c0,6.6-5.4,12-12,12h-6.2
		C-353.1,420.2-358.5,414.8-358.5,408.2z"/>
	<rect x="-344.9" y="476" class="st26" width="7.6" height="18.1"/>
	<rect x="-392.6" y="476" class="st26" width="7.6" height="18.1"/>
	<path class="st27" d="M-344.9,494.2v-18.8c0-11.4-9-20.7-20.1-20.7s-20.1,9.3-20.1,20.7v18.8H-344.9z"/>
	<path class="st26" d="M-365,464.6L-365,464.6c-3.6,0-6.5-2.9-6.5-6.5V446c0-3.6,2.9-6.5,6.5-6.5h0c3.6,0,6.5,2.9,6.5,6.5v12.2
		C-358.5,461.7-361.4,464.6-365,464.6z"/>
	<path class="st28" d="M-365,439.5L-365,439.5c-3.6,0-6.5,2.9-6.5,6.5v5.4c2.1,0.5,4.2,0.8,6.5,0.8h0c2.2,0,4.4-0.3,6.5-0.8V446
		C-358.5,442.4-361.4,439.5-365,439.5z"/>
	<path class="st26" d="M-365,449.7L-365,449.7c-15.3,0-27.7-12.4-27.7-27.7v-35.9c0-15.3,12.4-27.7,27.7-27.7h0
		c15.3,0,27.7,12.4,27.7,27.7v35.9C-337.3,437.3-349.7,449.7-365,449.7z"/>
	<path class="st25" d="M-352.8,396.2h-24.3c-10,0-18.1-8.1-18.1-18.1v-5c0-10,8.1-18.1,18.1-18.1h24.3c10,0,18.1,8.1,18.1,18.1v5
		C-334.7,388.1-342.8,396.2-352.8,396.2z"/>
	<path class="st25" d="M-380.8,410.6L-380.8,410.6c-0.9,0-1.6-0.7-1.6-1.6v-5.1c0-0.9,0.7-1.6,1.6-1.6h0c0.9,0,1.6,0.7,1.6,1.6v5.1
		C-379.2,409.9-379.9,410.6-380.8,410.6z"/>
	<path class="st25" d="M-347.8,410.6L-347.8,410.6c-0.9,0-1.6-0.7-1.6-1.6v-5.1c0-0.9,0.7-1.6,1.6-1.6h0c0.9,0,1.6,0.7,1.6,1.6v5.1
		C-346.3,409.9-347,410.6-347.8,410.6z"/>
	<g>
		<path class="st29" d="M-370.7,426.8c1.5-1.4,3.5-2.2,5.7-2.2c2.2,0,4.2,0.9,5.7,2.2c1.5-1.3,2.4-3.2,2.7-5.2h-16.8
			C-373.1,423.6-372.1,425.4-370.7,426.8z"/>
		<path class="st30" d="M-370.7,426.8c1.5,1.4,3.5,2.2,5.7,2.2c2.2,0,4.2-0.9,5.7-2.2c-1.5-1.4-3.5-2.2-5.7-2.2
			C-367.2,424.5-369.2,425.4-370.7,426.8z"/>
		<path class="st16" d="M-356.5,420.2h-16.8c0,0.2-0.1,0.4-0.1,0.6c0,0.3,0.1,0.5,0.1,0.7h16.8c0-0.2,0.1-0.5,0.1-0.7
			C-356.5,420.6-356.5,420.4-356.5,420.2z"/>
	</g>
	<path class="st25" d="M-647.2,400.3v-15.8c0-6.6,5.4-12,12-12h2.8c6.6,0,12,5.4,12,12v15.8c0,6.6-5.4,12-12,12h-2.8
		C-641.8,412.4-647.2,407-647.2,400.3z"/>
	<path class="st25" d="M-609.9,400.6v-15.8c0-6.6,5.4-12,12-12h2.8c6.6,0,12,5.4,12,12v15.8c0,6.6-5.4,12-12,12h-2.8
		C-604.5,412.6-609.9,407.2-609.9,400.6z"/>
	<path class="st26" d="M-615.2,447.4L-615.2,447.4c-3.2,0-5.8-2.6-5.8-5.8v-10.8c0-3.2,2.6-5.8,5.8-5.8l0,0c3.2,0,5.8,2.6,5.8,5.8
		v10.8C-609.4,444.8-612,447.4-615.2,447.4z"/>
	<path class="st28" d="M-615.2,425.1L-615.2,425.1c-3.2,0-5.8,2.6-5.8,5.8v4.8c1.8,0.4,3.8,0.7,5.8,0.7h0c2,0,3.9-0.3,5.8-0.7v-4.8
		C-609.4,427.7-612,425.1-615.2,425.1z"/>
	<path class="st26" d="M-615.2,434.5L-615.2,434.5c-13.6,0-24.6-11-24.6-24.6v-24.8c0-13.6,11-24.6,24.6-24.6h0
		c13.6,0,24.6,11,24.6,24.6v24.8C-590.6,423.5-601.6,434.5-615.2,434.5z"/>
	<path class="st20" d="M-283.4,493.8h-163.2c-2.5,0-4.6-2-4.6-4.6V330.8c0-2.5,2-4.6,4.6-4.6h163.2c2.5,0,4.6,2,4.6,4.6v158.4
		C-278.8,491.7-280.9,493.8-283.4,493.8z"/>
	<path class="st25" d="M-599.7,385.5h-35c-4.2,0-7.6-3.4-7.6-7.6v0c0-13,10.6-23.6,23.6-23.6h37c2,0,3.6,1.6,3.6,3.6v6.1
		C-578.2,375.9-587.9,385.5-599.7,385.5z"/>
	<path d="M-617,453.4l-2.1,29.6c0,0.4,0.1,0.8,0.4,1.1l2.6,2.6c0.5,0.5,1.4,0.5,1.9,0l2.6-2.6c0.3-0.3,0.4-0.7,0.4-1.1l-2.6-29.6
		c-0.1-0.7-0.6-1.2-1.4-1.2h-0.5C-616.3,452.2-616.9,452.7-617,453.4z"/>
	<path class="st31" d="M-622.2,417.9h10.8c0,0,3.1,0,3.4-1.5"/>
	<path class="st25" d="M-629.6,404.4L-629.6,404.4c-1,0-1.8-0.8-1.8-1.8v-4.1c0-1,0.8-1.8,1.8-1.8l0,0c1,0,1.8,0.8,1.8,1.8v4.1
		C-627.7,403.6-628.6,404.4-629.6,404.4z"/>
	<path class="st25" d="M-599.3,404.4L-599.3,404.4c-1,0-1.8-0.8-1.8-1.8v-4.1c0-1,0.8-1.8,1.8-1.8l0,0c1,0,1.8,0.8,1.8,1.8v4.1
		C-597.4,403.6-598.3,404.4-599.3,404.4z"/>
</g>
</svg>
