<?xml version="1.0" encoding="utf-8"?>
<!-- Generator: Adobe Illustrator 22.0.1, SVG Export Plug-In . SVG Version: 6.00 Build 0)  -->
<svg version="1.1" id="Layer_1" xmlns="http://www.w3.org/2000/svg" xmlns:xlink="http://www.w3.org/1999/xlink" x="0px" y="0px"
	 viewBox="0 0 375.9 141.1" style="enable-background:new 0 0 375.9 141.1;" xml:space="preserve">
<style type="text/css">
	.st0{display:none;}
	.st1{display:inline;fill:#FFFFFF;stroke:#000000;stroke-miterlimit:10;}
	.st2{fill:#707B7F;}
	.st3{fill:#FFFFFF;}
	.st4{fill:#CD915F;}
	.st5{fill:#AA6628;}
	.st6{opacity:0.5;fill:#F9F9FA;enable-background:new    ;}
	.st7{fill:url(#SVGID_1_);}
	.st8{fill:#DDDDDD;}
	.st9{fill:#F7F7F7;}
	.st10{opacity:0.35;fill:#F4F4F5;enable-background:new    ;}
	.st11{fill:url(#SVGID_2_);}
	.st12{opacity:0.6;fill:#F4F4F5;enable-background:new    ;}
	.st13{display:none;fill:#34A6C9;stroke:#1B8EB7;stroke-width:10;stroke-miterlimit:10;}
	.st14{display:none;fill:#F27CA7;stroke:#C94C72;stroke-width:10;stroke-miterlimit:10;}
	.st15{fill:#476269;}
	.st16{fill:#222728;}
	.st17{fill:#DDDDDC;}
	.st18{fill:#F6F7F7;}
	.st19{fill:url(#SVGID_3_);}
	.st20{fill:url(#SVGID_4_);}
	.st21{enable-background:new    ;}
	.st22{opacity:0.5;enable-background:new    ;}
	.st23{fill:#F9F9FA;}
	.st24{fill:#D95F56;}
	.st25{fill:url(#SVGID_5_);}
	.st26{fill:url(#SVGID_6_);}
	.st27{opacity:0.84;fill:#E8CD2C;enable-background:new    ;}
	.st28{opacity:0.39;fill:#90D7EB;enable-background:new    ;}
	.st29{opacity:0.84;fill:url(#SVGID_7_);enable-background:new    ;}
	.st30{fill:#D2E8C9;stroke:#6EBF59;stroke-width:2;stroke-miterlimit:10;}
	.st31{fill:none;}
	.st32{fill:#E4F1DD;}
	.st33{fill:#7AC25B;}
	.st34{fill:none;stroke:#E2E2E2;stroke-miterlimit:10;}
	.st35{fill:#157D3E;stroke:#E2E2E2;stroke-width:3;stroke-miterlimit:10;}
	.st36{fill:none;stroke:#FFFFFF;stroke-width:10;stroke-miterlimit:10;}
</style>
<g id="Layer_1_1_" class="st0">
	<rect x="-16.5" y="-2023.7" class="st1" width="136.5" height="482"/>
</g>
<path class="st2" d="M247.1-246.3h-127c-11.1,0-20.2-9.1-20.2-20.2v-93.6c0-11.1,9.1-20.2,20.2-20.2h127c11.1,0,20.2,9.1,20.2,20.2
	v93.6C267.3-255.4,258.2-246.3,247.1-246.3z"/>
<circle class="st3" cx="-1056" cy="-1735.8" r="6.2"/>
<g>
	<polygon class="st4" points="135.2,-2447.4 93,-2434.8 185.5,-2434.8 	"/>
	<polygon class="st4" points="473.6,-2447.4 515.7,-2434.8 423.2,-2434.8 	"/>
	<rect x="135.1" y="-2447.4" class="st4" width="338.4" height="14.9"/>
	<rect x="93" y="-2434.8" class="st5" width="422.8" height="11.1"/>
</g>
<path class="st6" d="M-937.7-1503h-148.8c-11.7,0-21.2-9.5-21.2-21.2v-227.7c0-11.7,9.5-21.2,21.2-21.2h148.8
	c11.7,0,21.2,9.5,21.2,21.2v227.7C-916.5-1512.5-926-1503-937.7-1503z"/>
<linearGradient id="SVGID_1_" gradientUnits="userSpaceOnUse" x1="-1013.6" y1="5560.1997" x2="-1013.6" y2="5335.978" gradientTransform="matrix(1 0 0 -1 0 3819.7998)">
	<stop  offset="0" style="stop-color:#FFCC4C"/>
	<stop  offset="1" style="stop-color:#FEBF4B"/>
</linearGradient>
<path class="st7" d="M-954.2-1515.3H-1073c-11.7,0-21.2-9.5-21.2-21.2v-182.7c0-11.7,9.5-21.2,21.2-21.2h118.8
	c11.7,0,21.2,9.5,21.2,21.2v182.7C-933-1524.8-942.5-1515.3-954.2-1515.3z"/>
<circle class="st8" cx="-1069.5" cy="-1741.9" r="33"/>
<ellipse class="st8" cx="-1033.8" cy="-1751.6" rx="23.4" ry="23.4"/>
<ellipse class="st8" cx="-998.8" cy="-1741.6" rx="23.4" ry="23.4"/>
<circle class="st8" cx="-949.3" cy="-1746.4" r="28.2"/>
<ellipse class="st9" cx="-998.8" cy="-1750.7" rx="23.4" ry="23.4"/>
<circle class="st9" cx="-977.5" cy="-1760.7" r="11.7"/>
<path class="st9" d="M-1057.2-1760.7c0-1.5,0.1-2.9,0.4-4.3h-42.6c-2,4.2-3.1,9-3.1,14c0,18.2,14.8,33,33,33
	c13.6,0,25.3-8.2,30.3-19.9C-1049.5-1740.3-1057.2-1749.6-1057.2-1760.7z"/>
<path class="st9" d="M-1036.5-1751c0,4.6-1,9.1-2.7,13.1c1.7,0.4,3.5,0.6,5.4,0.6c12.9,0,23.4-10.5,23.4-23.4c0-1.5-0.1-2.9-0.4-4.3
	h-28.7C-1037.6-1760.7-1036.5-1756-1036.5-1751z"/>
<path class="st9" d="M-1039.6-1765h-17.2c-0.3,1.4-0.4,2.8-0.4,4.3c0,11.1,7.7,20.3,18,22.7c1.7-4,2.7-8.4,2.7-13.1
	C-1036.5-1756-1037.6-1760.7-1039.6-1765z"/>
<path class="st9" d="M-922.7-1765h-53.1c-1.1,3-1.6,6.1-1.6,9.5c0,15.6,12.6,28.2,28.2,28.2c15.6,0,28.2-12.6,28.2-28.2
	C-921.1-1758.8-921.7-1762-922.7-1765z"/>
<path class="st9" d="M-918.1-1764.1c0,0-0.1-0.1-0.2-0.2C-918.3-1764.3-918.2-1764.2-918.1-1764.1L-918.1-1764.1z"/>
<path class="st9" d="M-922.7-1765h-116.9c-2.4-5-5.9-9.3-10.3-12.6c-3.5,3.3-5.9,7.7-6.8,12.6h-42.6c0.5-1.1,1.1-2.2,1.8-3.3
	c4.2-4.6,12.7-12.3,22.7-12.3h55.4c0,0,6.7,0,16,0h55.4c13.2,0,23.9,13.4,25.3,15.3C-922.8-1765.1-922.8-1765.1-922.7-1765z"/>
<path class="st9" d="M-1056.8-1765h17.2c-2.3-5-5.9-9.3-10.3-12.6C-1053.4-1774.3-1055.8-1769.9-1056.8-1765z"/>
<path class="st6" d="M-859.7-1699.2c-2.3-11.7-10.8-20.4-21-20.4h-35.8v22.5h25.3c6,0,10.8,5.9,10.8,13.3v77.4
	c0,7.3-4.8,13.3-10.8,13.3h-25.3v23.4h35.8c10.7,0,19.6-9.6,21.3-22.2c0.2-1.1,0.3-2.2,0.3-3.4v-1l0,0v-96.7l0,0v-1.4
	C-859.1-1696.1-859.3-1697.7-859.7-1699.2z"/>
<path class="st10" d="M-1060.7-1545.5L-1060.7-1545.5c-6,0-10.8-4.8-10.8-10.8v-134c0-6,4.8-10.8,10.8-10.8l0,0
	c6,0,10.8,4.8,10.8,10.8v134C-1049.8-1550.3-1054.7-1545.5-1060.7-1545.5z"/>
<path class="st10" d="M-1010.4-1545.5L-1010.4-1545.5c-6,0-10.8-4.8-10.8-10.8v-134c0-6,4.8-10.8,10.8-10.8l0,0
	c6,0,10.8,4.8,10.8,10.8v134C-999.6-1550.3-1004.5-1545.5-1010.4-1545.5z"/>
<path class="st10" d="M-961.4-1548.7L-961.4-1548.7c-6,0-10.8-4.8-10.8-10.8v-134c0-6,4.8-10.8,10.8-10.8l0,0
	c6,0,10.8,4.8,10.8,10.8v134C-950.6-1553.6-955.4-1548.7-961.4-1548.7z"/>
<g>
	<circle class="st3" cx="2690.6" cy="-963.6" r="4.7"/>
	<path class="st6" d="M2776.5-781.4h-104.4c-11.7,0-21.2-9.5-21.2-21.2v-165c0-11.7,9.5-21.2,21.2-21.2h104.4
		c11.7,0,21.2,9.5,21.2,21.2v165C2797.7-790.8,2788.2-781.4,2776.5-781.4z"/>
	
		<linearGradient id="SVGID_2_" gradientUnits="userSpaceOnUse" x1="2723.2" y1="4783.3999" x2="2723.2" y2="4611.2412" gradientTransform="matrix(1 0 0 -1 0 3819.7998)">
		<stop  offset="0" style="stop-color:#FFCC4C"/>
		<stop  offset="1" style="stop-color:#FEBF4B"/>
	</linearGradient>
	<path class="st11" d="M2763.9-790.8h-81.4c-11.7,0-21.2-9.5-21.2-21.2v-130.4c0-11.7,9.5-21.2,21.2-21.2h81.4
		c11.7,0,21.2,9.5,21.2,21.2V-812C2785.1-800.3,2775.6-790.8,2763.9-790.8z"/>
	<circle class="st8" cx="2680.3" cy="-968.3" r="25.3"/>
	<circle class="st8" cx="2707.7" cy="-975.7" r="17.9"/>
	<circle class="st8" cx="2734.5" cy="-968" r="17.9"/>
	<circle class="st8" cx="2772.6" cy="-971.7" r="21.6"/>
	<circle class="st9" cx="2734.5" cy="-975" r="17.9"/>
	<circle class="st9" cx="2750.9" cy="-982.6" r="9"/>
	<path class="st9" d="M2689.7-982.6c0-1.1,0.1-2.2,0.3-3.3h-32.7c-1.5,3.3-2.4,6.9-2.4,10.7c0,14,11.3,25.3,25.3,25.3
		c10.4,0,19.4-6.3,23.3-15.3C2695.6-967,2689.7-974.2,2689.7-982.6z"/>
	<path class="st9" d="M2705.6-975.2c0,3.6-0.7,7-2.1,10c1.3,0.3,2.7,0.5,4.1,0.5c9.9,0,17.9-8,17.9-17.9c0-1.1-0.1-2.2-0.3-3.3
		h-22.1C2704.8-982.7,2705.6-979.1,2705.6-975.2z"/>
	<path class="st9" d="M2703.2-986H2690c-0.2,1.1-0.3,2.2-0.3,3.3c0,8.5,5.9,15.6,13.8,17.5c1.3-3.1,2.1-6.5,2.1-10
		C2705.6-979.1,2704.8-982.7,2703.2-986z"/>
	<path class="st9" d="M2793-986h-40.8c-0.8,2.3-1.3,4.7-1.3,7.3c0,12,9.7,21.6,21.6,21.6s21.6-9.7,21.6-21.6
		C2794.2-981.3,2793.8-983.7,2793-986z"/>
	<path class="st9" d="M2796.5-981.8c0,0-0.1-0.1-0.1-0.2C2796.4-982,2796.4-981.9,2796.5-981.8L2796.5-981.8z"/>
	<path class="st9" d="M2793-986h-89.7c-1.8-3.8-4.5-7.2-7.9-9.7c-2.7,2.5-4.6,5.9-5.3,9.7h-32.7c0.4-0.9,0.9-1.7,1.4-2.5
		c3.2-3.5,9.8-9.4,17.5-9.4h42.5c0,0,5.1,0,12.3,0h42.5C2783.8-997.9,2791.9-987.6,2793-986C2792.9-986.1,2792.9-986,2793-986z"/>
	<path class="st9" d="M2690-986h13.2c-1.8-3.8-4.5-7.2-7.9-9.7C2692.6-993.1,2690.7-989.7,2690-986z"/>
	<path class="st6" d="M2841.3-931.9c-1.7-9-8.3-15.7-16.1-15.7h-27.5v17.3h19.4c4.6,0,8.3,4.6,8.3,10.2v59.4
		c0,5.6-3.7,10.2-8.3,10.2h-19.4v17.9h27.5c8.2,0,15.1-7.4,16.4-17c0.1-0.8,0.2-1.7,0.2-2.6v-0.8l0,0v-74.2l0,0v-1.1
		C2841.8-929.6,2841.6-930.8,2841.3-931.9z"/>
	<path class="st12" d="M2687-813.9L2687-813.9c-4.6,0-8.3-3.7-8.3-8.3v-102.9c0-4.6,3.7-8.3,8.3-8.3l0,0c4.6,0,8.3,3.7,8.3,8.3
		v102.9C2695.3-817.6,2691.6-813.9,2687-813.9z"/>
	<path class="st12" d="M2725.6-813.9L2725.6-813.9c-4.6,0-8.3-3.7-8.3-8.3v-102.9c0-4.6,3.7-8.3,8.3-8.3l0,0c4.6,0,8.3,3.7,8.3,8.3
		v102.9C2733.9-817.6,2730.2-813.9,2725.6-813.9z"/>
	<path class="st12" d="M2763.3-816.4L2763.3-816.4c-4.6,0-8.3-3.7-8.3-8.3v-102.9c0-4.6,3.7-8.3,8.3-8.3l0,0c4.6,0,8.3,3.7,8.3,8.3
		v102.9C2771.6-820.2,2767.9-816.4,2763.3-816.4z"/>
</g>
<path class="st13" d="M-102.7-1115.1v-32.9l5.8,5.8c9.5,9.5,25,9.5,34.5,0s9.5-25,0-34.5l-45-45l-2.9-2.9
	c-4.5-4.5-10.2-6.8-16.1-7.1c-0.2,0-0.5,0-0.8,0c-0.1,0-0.2,0-0.2,0c-0.1,0-0.1,0-0.2,0s-0.1,0-0.2,0c-6.3-0.1-12.7,2.3-17.5,7.2
	l-47.9,47.9c-9.5,9.5-9.5,25,0,34.5s25,9.5,34.5,0l7.1-7.1l0.6,33.7c-34.6,10-59.9,41.9-59.9,79.8c0,45.9,37.2,83.1,83.1,83.1
	s83.1-37.2,83.1-83.1C-44.7-1073-69.1-1104.5-102.7-1115.1z M-127.8-1000.7c-19.4,0-35.2-15.8-35.2-35.2s15.8-35.2,35.2-35.2
	s35.2,15.8,35.2,35.2S-108.3-1000.7-127.8-1000.7z"/>
<path class="st14" d="M183.3-1073.5c32.4-32.4,32.4-85.1,0-117.5s-85.1-32.4-117.5,0s-32.4,85.1,0,117.5
	c10.6,10.6,23.3,17.7,36.8,21.4v25.9H93c-12.1,0-21.9,9.8-21.9,21.9l0,0c0,12.1,9.8,21.9,21.9,21.9h9.6v9.6
	c0,12.1,9.8,21.9,21.9,21.9l0,0c12.1,0,21.9-9.8,21.9-21.9v-9.6h9.6c12.1,0,21.9-9.8,21.9-21.9l0,0c0-12.1-9.8-21.9-21.9-21.9h-9.5
	v-25.9C160-1055.8,172.7-1062.9,183.3-1073.5z M99.7-1157.1c13.8-13.8,36-13.8,49.8,0s13.8,36,0,49.8s-36,13.8-49.8,0
	S85.9-1143.4,99.7-1157.1z"/>
<rect x="-25.2" y="-1295.4" class="st15" width="578.1" height="600.5"/>
<path class="st3" d="M124.7-1117.6l-59.5,59.5c-6.3,6.3-16.4,6.3-22.7,0l0,0c-6.3-6.3-6.3-16.4,0-22.7l59.5-59.5
	c6.3-6.3,16.4-6.3,22.7,0l0,0C130.9-1134,130.9-1123.8,124.7-1117.6z"/>
<path class="st3" d="M161.5-1058.1l-59.5-59.5c-6.3-6.3-6.3-16.4,0-22.7l0,0c6.3-6.3,16.4-6.3,22.7,0l59.5,59.5
	c6.3,6.3,6.3,16.4,0,22.7l0,0C177.9-1051.8,167.7-1051.8,161.5-1058.1z"/>
<path class="st3" d="M133.2-1106.9v75.2c0,11.9-9.6,21.5-21.5,21.5l0,0c-11.9,0-21.5-9.6-21.5-21.5v-75.2c0-11.9,9.6-21.5,21.5-21.5
	l0,0C123.6-1128.4,133.2-1118.8,133.2-1106.9z"/>
<path class="st3" d="M113.3-1031.3c-52.3,0-94.6,42.4-94.6,94.6s42.4,94.6,94.6,94.6s94.6-42.4,94.6-94.6S165.6-1031.3,113.3-1031.3
	z M113.3-878.5c-32.1,0-58.2-26-58.2-58.2c0-32.1,26-58.2,58.2-58.2c32.1,0,58.2,26,58.2,58.2C171.5-904.6,145.5-878.5,113.3-878.5z
	"/>
<path class="st3" d="M354-863.6V-965c0-11.9,9.6-21.5,21.5-21.5l0,0c11.9,0,21.5,9.6,21.5,21.5v101.4c0,11.9-9.6,21.5-21.5,21.5l0,0
	C363.7-842.1,354-851.7,354-863.6z"/>
<path class="st3" d="M415.4-884.4h-79.7c-11.9,0-21.5-9.6-21.5-21.5l0,0c0-11.9,9.6-21.5,21.5-21.5h79.7c11.9,0,21.5,9.6,21.5,21.5
	l0,0C436.9-894,427.2-884.4,415.4-884.4z"/>
<path class="st3" d="M373.9-965.4c52.3,0,94.6-42.4,94.6-94.6c0-52.3-42.4-94.6-94.6-94.6s-94.6,42.4-94.6,94.6
	C279.3-1007.7,321.6-965.4,373.9-965.4z M373.9-1118.1c32.1,0,58.2,26,58.2,58.2c0,32.1-26,58.2-58.2,58.2
	c-32.1,0-58.2-26-58.2-58.2C315.7-1092.1,341.8-1118.1,373.9-1118.1z"/>
<rect x="-539.8" y="-1295.4" class="st16" width="508.9" height="434.6"/>
<path class="st3" d="M-260.9-1118.1l-59.5,59.5c-6.3,6.3-16.4,6.3-22.7,0l0,0c-6.3-6.3-6.3-16.4,0-22.7l59.5-59.5
	c6.3-6.3,16.4-6.3,22.7,0l0,0C-254.6-1134.5-254.6-1124.4-260.9-1118.1z"/>
<path class="st3" d="M-224.1-1058.7l-59.5-59.5c-6.3-6.3-6.3-16.4,0-22.7l0,0c6.3-6.3,16.4-6.3,22.7,0l59.5,59.5
	c6.3,6.3,6.3,16.4,0,22.7l0,0C-207.7-1052.4-217.8-1052.4-224.1-1058.7z"/>
<path class="st3" d="M-254.7-1109.8v79.8c0,10.6-8.6,19.2-19.2,19.2l0,0c-10.6,0-19.2-8.6-19.2-19.2v-79.8
	c0-10.6,8.6-19.2,19.2-19.2l0,0C-263.2-1129-254.7-1120.4-254.7-1109.8z"/>
<g>
	<path class="st17" d="M-390.5-2143.2c-18,0-34.3,7.5-45.7,19.5v83.2c11.4,12,27.6,19.5,45.7,19.5c34.4,0,62.4-27.4,62.4-61.1
		S-356-2143.2-390.5-2143.2z"/>
	<path class="st17" d="M148-2114.3c-8-8.2-19.5-13.4-32.2-13.4c-24.1,0-43.7,18.4-43.7,41.1s19.6,41.1,43.7,41.1
		c12.8,0,24.3-5.2,32.2-13.4V-2114.3z"/>
	<ellipse class="st17" cx="-308.3" cy="-2095.2" rx="28" ry="27.5"/>
	<ellipse class="st17" cx="-233.2" cy="-2087.7" rx="54.2" ry="53.1"/>
	<ellipse class="st17" cx="-153.9" cy="-2092.5" rx="35.9" ry="35.2"/>
	<ellipse class="st17" cx="-88.7" cy="-2108.3" rx="33.6" ry="32.9"/>
	<ellipse class="st17" cx="-54.5" cy="-2085" rx="38.4" ry="37.6"/>
	<ellipse class="st17" cx="8.2" cy="-2093.5" rx="38" ry="37.3"/>
	<ellipse class="st17" cx="57.4" cy="-2105" rx="23.2" ry="22.7"/>
	<path class="st17" d="M148-2089.6h-583.1c2.2-15.3,1.6-11,3.5-24.2l0,0c0-13.3,12.2-24.2,27.2-24.2h521.7c15,0,27.2,10.8,27.2,24.2
		l0,0C145.7-2101.6,145.6-2101.9,148-2089.6z"/>
	<circle class="st18" cx="-308.3" cy="-2107.3" r="28"/>
	<ellipse class="st18" cx="-233.2" cy="-2099.7" rx="54.2" ry="54.2"/>
	
		<ellipse transform="matrix(9.802495e-03 -1 1 9.802495e-03 1952.1075 -2237.8623)" class="st18" cx="-153.9" cy="-2104.6" rx="35.9" ry="35.9"/>
	<circle class="st18" cx="-88.7" cy="-2120.8" r="33.6"/>
	<circle class="st18" cx="-54.5" cy="-2097" r="38.4"/>
	<circle class="st18" cx="8.2" cy="-2105.7" r="38"/>
	
		<ellipse transform="matrix(0.2513 -0.9679 0.9679 0.2513 2092.4045 -1529.5527)" class="st18" cx="57.5" cy="-2117.3" rx="23.2" ry="23.2"/>
	<rect x="-435.9" y="-2160.8" class="st18" width="583.9" height="61.1"/>
	<path class="st18" d="M148-2127.6c-8-8.4-19.5-13.7-32.2-13.7c-24.1,0-43.7,18.8-43.7,41.9c0,23.1,19.6,41.9,43.7,41.9
		c12.8,0,24.3-5.3,32.2-13.7V-2127.6z"/>
	<path class="st18" d="M-390.5-2158.2c-18,0-34.3,7.7-45.7,19.9v84.9c11.4,12.2,27.6,19.9,45.7,19.9c34.4,0,62.4-27.9,62.4-62.4
		S-356-2158.2-390.5-2158.2z"/>
</g>
<path class="st6" d="M-1148.4-1534.4c1.4,1.9,2.6,3.6,3.7,5.2c6,8.5,2.2,20.3-7.8,23.9c-8.4,3-21.4,5.2-41.4,4.8
	c-20.1,0.4-33.1-1.8-41.5-4.8c-10-3.5-13.8-15.4-7.8-23.9c1.1-1.6,2.3-3.3,3.7-5.2c8.4-11.5,11-58.3,7.8-119.2
	c-2.6-49.2-25.6-180.6-34.4-229.4c-1.7-9.7,5.9-18.6,16-18.6h112.2c10.1,0,17.8,8.9,16,18.6c-8.8,48.8-31.8,180.2-34.4,229.4
	C-1159.4-1592.7-1156.8-1545.9-1148.4-1534.4z"/>
<g>
	
		<linearGradient id="SVGID_3_" gradientUnits="userSpaceOnUse" x1="-1193.9501" y1="5674.0928" x2="-1193.9501" y2="5371.5293" gradientTransform="matrix(1 0 0 -1 0 3819.7998)">
		<stop  offset="0" style="stop-color:#FFCC4C"/>
		<stop  offset="1" style="stop-color:#FEBF4B"/>
	</linearGradient>
	<path class="st19" d="M-1164.8-1664.5c2-38,19.8-139.3,26.5-177c1.3-7.5-4.6-14.3-12.4-14.3h-86.5c-7.8,0-13.7,6.8-12.4,14.3
		c6.8,37.6,24.5,139,26.5,177c0.9,16.3,1.2,79.1,1,92c-0.2,15.3,11.4,19.1,26.6,19.9c0.5,0,1,0,1.5,0s1,0,1.5,0
		c15.2-0.8,26.9-4.6,26.6-19.9C-1166-1585.4-1165.7-1648.2-1164.8-1664.5z"/>
</g>
<circle class="st12" cx="-1159" cy="-1833.7" r="6.1"/>
<ellipse transform="matrix(0.1256 -0.9921 0.9921 0.1256 718.4423 -2696.5925)" class="st12" cx="-1170.5" cy="-1755.9" rx="53" ry="6.1"/>
<g>
	<path class="st6" d="M-1307-1515.4c0.8,2.1,0.1,4-1.5,5.5c-3.6,3.2-9.4,4.2-14,5c-11.5,1.9-23.2,2-34.8,1.9
		c-11.6,0.1-23.4,0-34.8-1.9c-4.6-0.8-10.4-1.7-14-5c-1.6-1.5-2.3-3.4-1.5-5.5c0.8-2,2.5-3.5,4.7-3.8c1.3-0.2,2.6-0.3,4-0.5
		c5.2-0.9,10.2-2.7,15-4.9c13.4-6,22-13.8,22-13.8s0.8-103,0.8-121.9s-38.2-28.4-54-46.5c-15.8-18.2,18.5-106.5,18.5-106.5h78.9
		c0,0,36.7,86.7,20.9,104.8c-15.8,18.1-56.4,29.3-56.4,48.2c0,18.9,0.8,121.9,0.8,121.9s8.5,7.8,22,13.8c4.8,2.1,9.8,3.9,15,4.9
		c1.3,0.2,2.6,0.3,4,0.5C-1309.5-1519-1307.8-1517.5-1307-1515.4z"/>
	
		<linearGradient id="SVGID_4_" gradientUnits="userSpaceOnUse" x1="-1356.1499" y1="5612.0547" x2="-1356.1499" y2="5501.8457" gradientTransform="matrix(1 0 0 -1 0 3819.7998)">
		<stop  offset="0" style="stop-color:#FFCC4C"/>
		<stop  offset="1" style="stop-color:#FEBF4B"/>
	</linearGradient>
	<path class="st20" d="M-1313.6-1705.6l-37.7,21.8c-3,1.7-6.8,1.7-9.8,0l-37.7-21.8c-0.3-0.2-0.6-0.3-0.8-0.4
		c-2.2-1-15.2-8.3-5.3-39.8l9.8-38.6c1.1-4.3,5-7.4,9.5-7.4h58.8c4.5,0,8.4,3,9.5,7.4l9.9,38.6c9.9,31.5-3.1,38.8-5.3,39.8
		C-1313.1-1705.9-1313.3-1705.8-1313.6-1705.6z"/>
	<circle class="st12" cx="-1328" cy="-1769.5" r="6.1"/>
	<ellipse class="st12" cx="-1328" cy="-1736.5" rx="6.1" ry="17"/>
</g>
<text transform="matrix(1 0 0 1 -464.9493 -1769.5193)" style="font-family:'MyriadPro-Regular'; font-size:72px;">Beer</text>
<text transform="matrix(1 0 0 1 994.6979 -1950.7722)" style="font-family:'MyriadPro-Regular'; font-size:72px;">Cocktail</text>
<path class="st6" d="M811.3-1508.9c-77,0-50.8-18-50.8-18s14.7-4.4,27.8-6.6s16.3-27.3,16.3-27.3s0-73.2,0-95c0-21.9-5-22.9-5-22.9
	l-73.6-93.7h170.5l-73.6,93.7c0,0-5,1-5,22.9c0,21.8,0,95,0,95s3.2,25.1,16.3,27.3c13.1,2.2,27.9,6.6,27.9,6.6
	S888.3-1508.9,811.3-1508.9z"/>
<path class="st6" d="M1104.8-1726.8c-12.3,13.9-52.3,27.8-58,37.6c0,0-0.4,8.6-9.1,9.1c0,0-4.5,3.2-4.5,13.2s-4.3,112,0,116.3
	s36.7,14.1,42.2,15.9s38.8,25-54,25s-59.4-23.2-54-25c5.5-1.8,37.9-11.6,42.2-15.9s0-106.3,0-116.3s-4.6-13.2-4.6-13.2
	c-8.6-0.5-9.1-9.1-9.1-9.1c-5.7-9.8-45.8-23.7-58-37.6c-12.3-13.9-9-46.6-9-46.6h184.8C1113.8-1773.4,1117.1-1740.7,1104.8-1726.8z"
	/>
<path class="st6" d="M1177.6-1510.1c-37.3-5.2-19.8-13.9-19.8-13.9l25.9-9.8v-107c-12.1-6.8-20.5-22.5-20.5-22.5
	c-14-24.2-5.4-143.7-5.4-143.7h60.6c0,0,8.6,119.5-5.4,143.7c0,0-8.4,15.6-20.5,22.5v107l25.9,9.8c0,0,17.5,8.7-19.8,13.9
	C1191.6-1509.1,1184.5-1509.1,1177.6-1510.1z"/>
<path class="st6" d="M1354.1-1735.9c6.4,48.4,20.4,121.1,1.3,140.2c-12.4,12.4-18.3,19.6-20.9,23.1c-1.2,1.6-1.6,3.6-1.1,5.5
	c1.2,5.2,3.3,16.3,0.7,21c-0.9,1.7-1.8,3.3-2.5,4.9c-1.8,3.9,0.5,8.5,4.7,9.4l17.8,3.9c0.2,0,0.4,0.1,0.7,0.2
	c4.1,1.3,41,14.1-33.3,18.8c-0.3,0-0.6,0-0.9,0c-74.3-4.7-37.3-17.5-33.3-18.8c0.2-0.1,0.4-0.1,0.7-0.2l17.8-3.9
	c4.2-0.9,6.5-5.5,4.7-9.4c-0.7-1.5-1.5-3.2-2.5-4.9c-2.6-4.8-0.5-15.8,0.7-21c0.4-1.9,0-3.9-1.1-5.5c-2.6-3.5-8.5-10.7-20.9-23.1
	c-19.1-19.1-5.1-91.8,1.3-140.2c3.8-29-3.8-48-10.5-58.5c-2.9-4.5,0.4-10.3,5.7-10.3h76c5.3,0,8.5,5.8,5.7,10.3
	C1357.9-1783.9,1350.3-1765,1354.1-1735.9z"/>
<path class="st6" d="M1522.6-1778.5v251.8c0,7.3-5.6,13.4-12.8,14l-24.3,2.2c-11.8,1-23.6,1-35.4,0l-24.3-2.2
	c-7.3-0.6-12.8-6.7-12.8-14v-251.8c0-7.8,6.3-14.1,14.1-14.1h81.5C1516.3-1792.6,1522.6-1786.3,1522.6-1778.5z"/>
<path class="st6" d="M1667.3-1779.9l-5,253.9c-0.1,5.5-3.8,10.2-9.1,11.7c-7.7,2.2-21.6,4.6-45.8,5c-24.2-0.3-38-2.7-45.8-5
	c-5.3-1.5-8.9-6.2-9.1-11.7l-5-253.9c-0.1-7,5.5-12.7,12.4-12.7h94.7C1661.9-1792.6,1667.5-1786.9,1667.3-1779.9z"/>
<path class="st6" d="M1760.2-1511.2c-59.6,0.5-52.6-4.3-34.3-14.3c16.8-9.2,12.4-29.6,11.5-32.8c-0.1-0.3-0.1-0.7-0.2-1l-22.3-295.3
	c-0.3-3.5,2.5-6.6,6.1-6.6h78.3c3.6,0,6.4,3,6.1,6.6l-22.3,295.3c0,0.3-0.1,0.7-0.2,1c-0.8,3.3-5.3,23.7,11.5,32.8
	C1812.8-1515.5,1819.8-1510.6,1760.2-1511.2z"/>
<text transform="matrix(1 0 0 1 994.6987 -1078.1163)" class="st6" style="font-family:'MyriadPro-Regular'; font-size:72px;">Lhao</text>
<path class="st6" d="M1000.7-805.4c-23.7,31.1-43,36.1-53.2,41.7s-16.2,26.8,3.2,30.9c19.4,4.2,27.9,6.7,27.9,6.7s35.7,18.2-50,18.2
	c-86.4,0-50-18.2-50-18.2s8.4-2.5,27.8-6.7c19.4-4.1,13.4-25.4,3.2-30.9c-10.2-5.6-29.4-10.5-53.2-41.7
	C832.7-836.5,881-927.5,881-927.5h95C976.2-927.4,1024.5-836.5,1000.7-805.4z"/>
<path class="st6" d="M1080.5-707.8c-66.8-0.8-42.6-10.7-26.2-11.9s21.7-15.2,21.7-15.2s-0.8-91.8,0-107.3
	c0.8-15.6-11.7-23.3-11.7-23.3c-30.1-32-16.2-104.1-16.2-104.1h64.7c0,0,13.9,72.1-16.2,104.1c0,0-12.5,7.8-11.7,23.3
	c0.8,15.6,0,107.3,0,107.3s5.3,13.9,21.7,15.2C1123.1-718.5,1147.3-708.6,1080.5-707.8z"/>
<path class="st6" d="M1190.4-707.8c-39.6,0-30.4-5.9-23.1-9.4c7-3.4,15.4-9.1,15.4-9.1l1.3-28.9c0.9-20.1-4.1-22.3-8.8-29.2
	c-4.7-6.9-5.6-11.3-10-27.3s-1.9-68.1-1.9-68.1h54.4c0,0,2.5,52.1-1.9,68.1s-5.3,20.4-10,27.3s-9.7,9.1-8.8,29.2l1.3,28.9
	c0,0,8.4,5.7,15.4,9.1C1220.8-713.7,1230-707.8,1190.4-707.8z"/>
<path class="st6" d="M1328.2-828.9c4.1,0,7.4,3.4,7.2,7.5l-3.8,95.7c0,0-0.9,17.9-13.2,17.9c-17.1,0-28.7,0-28.7,0s-11.6,0-28.7,0
	c-12.3,0-13.2-17.9-13.2-17.9l-3.8-95.7c-0.2-4.1,3.1-7.5,7.2-7.5H1328.2z"/>
<text transform="matrix(1 0 0 1 2249.1509 -1950.7722)" style="font-family:'MyriadPro-Regular'; font-size:72px;">Wine</text>
<path class="st6" d="M2196.5-1511.1c-103.5-0.2-51.2-11.8-48-12.5c0.1,0,0.2,0,0.3-0.1c1.8-0.5,17.6-5.2,22.9-8.2
	c5.5-3.2,14.6-18.7,14.8-25.7c0.2-6.3-4-21.5-5-25.2c-0.1-0.5-0.4-1-0.7-1.5c-7.5-11-1.3-17.9,3.1-24.8c4.5-7,2-23.6-1.9-30
	c-3.8-6.4-13.9-31.9-17.7-51c-3.1-15.9-27.1-81.2-35-102.7c-1.2-3.3,1.2-6.9,4.8-6.9l126.2,0.3c3.6,0,6,3.6,4.8,6.9
	c-8.1,21.4-32.3,86.6-35.5,102.5c-3.9,19.1-14.1,44.6-18,50.9c-3.8,6.4-6.4,22.9-2,30c4.4,6.9,10.5,13.9,3,24.8
	c-0.3,0.5-0.6,0.9-0.7,1.5c-1,3.6-5.3,18.9-5.1,25.2c0.2,7,9.2,22.6,14.7,25.8c5.2,3.1,21.1,7.8,22.8,8.3c0.1,0,0.2,0.1,0.3,0.1
	C2247.8-1522.7,2300-1510.9,2196.5-1511.1z"/>
<path class="st6" d="M2345.2-1636.4v101.1c0,0,16.4,7.2,26.1,10.7c8.8,3.2,30.8,14.5-32.3,14.5s-41.1-11.3-32.3-14.5
	c9.7-3.5,26-10.7,26-10.7v-101.1c0,0-3.9-2.4-12.9-8.9c-10.2-7.4-27.4-26.8-33.9-48.7c-6.6-21.9,9.9-105.6,9.9-105.6h86.5
	c0,0,16.4,83.8,9.9,105.6c-6.6,21.9-23.7,41.3-33.9,48.7C2349.1-1638.7,2345.2-1636.4,2345.2-1636.4z"/>
<path class="st6" d="M2490.3-1659.9c0,6.3-0.4,117.8-0.4,117.8l25.6,14.7c0,0,44.2,16.3-32.6,16.3s-32.6-16.3-32.6-16.3l25.6-14.7
	c0,0-0.4-111.5-0.4-117.8s-3.1-8-8.5-11.4s-25-14.8-35.1-32.4s12.4-95.9,12.4-95.9h77.3c0,0,22.5,78.4,12.4,95.9
	c-10.1,17.6-29.7,29-35.1,32.4C2493.5-1667.9,2490.3-1666.2,2490.3-1659.9z"/>
<path class="st6" d="M2631-1619.2c0,4.6,0,69.5,0,69.5s15.3,22.4,24.2,23s44.4,15.5-32.5,15.5s-41.4-14.9-32.5-15.5s24.2-23,24.2-23
	s0-65,0-69.5c0-4.6-3.6-7.7-3.6-7.7c-1.6-16.3-19.1-29.2-43.9-55.9c-24.7-26.7,8-99.8,8-99.8h95.6c0,0,32.7,73.1,8,99.8
	c-24.7,26.7-42.3,39.6-43.9,55.9C2634.6-1626.9,2631-1623.8,2631-1619.2z"/>
<path class="st24" d="M242.7-251.3H124.5c-10.7,0-19.4-8.7-19.4-19.4v-118.2c0-10.7,8.7-19.4,19.4-19.4h118.2
	c10.7,0,19.4,8.7,19.4,19.4v118.2C262.1-260,253.4-251.3,242.7-251.3z"/>
<path class="st3" d="M105.1-356.9v86.2c0,10.7,8.7,19.4,19.4,19.4h118.2c10.7,0,19.4-8.7,19.4-19.4v-86.2L105.1-356.9L105.1-356.9z"
	/>
<text transform="matrix(1 0 0 1 159.8286 -374.7251)" class="st3" style="font-family:'Cloud-Bold'; font-size:26px;">DAY</text>
<g>
	<path class="st6" d="M3076.7-938.6c0,6.3-0.4,117.8-0.4,117.8l25.6,14.7c0,0,44.2,16.3-32.6,16.3c-65.3,0-24.6-16.3-24.6-16.3
		l25.6-14.7c0,0-0.4-111.5-0.4-117.8s-3.1-8-8.5-11.4s-25-14.8-35.1-32.4s12.4-95.9,12.4-95.9h69.3c0,0,22.5,78.4,12.4,95.9
		c-10.1,17.6-29.7,29-35.1,32.4C3079.9-946.6,3076.7-944.8,3076.7-938.6z"/>
	
		<linearGradient id="SVGID_5_" gradientUnits="userSpaceOnUse" x1="3111.4526" y1="4827.709" x2="3110.9912" y2="4818.9434" gradientTransform="matrix(1 0 0 -1 0 3819.7998)">
		<stop  offset="0" style="stop-color:#AE4F6F"/>
		<stop  offset="1" style="stop-color:#6C365E"/>
	</linearGradient>
	<path class="st25" d="M3109.6-1002.9c-0.3-1.5,0.2-3,1.3-4.1c0.2-0.2,0.4-0.4,0.7-0.4c0.7-0.1,1.3,0.6,1.4,1.3
		c0.3,1.4-0.7,3-2.2,3.4c-0.5,0.1-1.1,0-1.3-0.4"/>
	
		<linearGradient id="SVGID_6_" gradientUnits="userSpaceOnUse" x1="3073.3518" y1="4825.4414" x2="3073.3518" y2="4772.9639" gradientTransform="matrix(1 0 0 -1 0 3819.7998)">
		<stop  offset="0" style="stop-color:#AE4F6F"/>
		<stop  offset="1" style="stop-color:#6C365E"/>
	</linearGradient>
	<path class="st26" d="M3115.4-989.4c-0.7,0.1-1.3,0.5-2,0.8s-1.6,0.4-2.3,0.2c-0.1,0-0.2,0-0.3-0.1s-0.1-0.1-0.1-0.2s0-0.1,0-0.2
		c0-1.9,0.2-4.1-2.1-5.3c-0.7-0.3-1.4-0.5-2.1-0.5c-2.4,0-4.4,1.4-6.5,2.5c-3.5,1.9-7.3,3-11.2,3.5h-13.2c-4.4-0.5-8.7-1.3-13-2.2
		c-1.8-0.4-3.7-0.8-5.1-1.9c-1.1-0.9-1.9-2.1-2.9-3.1s-2.5-1.8-3.9-1.3c-0.7,0.2-1.2,0.7-1.9,0.9c-1.1,0.3-2.2-0.1-3.2-0.5
		c-1.6-0.7-3.2-1.3-4.5-2.4c-2-1.6-3.7-4.1-6.6-3.4c-1.2,0.3-2.2,1.1-2.8,2.1c-6.3,9.8,5,20.6,11.6,26.7c5.5,5.1,11.6,9.3,18,13.2
		c0.9,0.5,1.7,1,2.4,1.5c7.6,5,9.3,5.8,11.6,5.8c2,0,6.1-3,10.1-5.8c0.7-0.5,1.5-1,2.4-1.5c0.5-0.3,1-0.6,1.5-0.9
		c5-3.1,9.8-6.5,14.3-10.4c2.9-2.6,5.7-5.3,8.2-8.3c1.3-1.6,2.5-3.2,3.6-4.9C3115.9-986.1,3118.4-989.8,3115.4-989.4z"/>
</g>
<g>
	<path class="st6" d="M2581-934c4.9,0,8.9,4.1,8.7,9l-4.6,115c0,0-1.1,21.5-15.8,21.5c-20.6,0-34.5,0-34.5,0s-13.9,0-34.5,0
		c-14.7,0-15.8-21.5-15.8-21.5l-4.6-115c-0.2-4.9,3.7-9,8.7-9H2581z"/>
	<path class="st27" d="M2500.8-884.8c-6.7,0-12.1,3.8-11.8,8.5l2.9,51.1c0,0,0.9,12.4,13.3,12.4c17.3,0,28.9,0,28.9,0s11.7,0,28.9,0
		c12.3,0,13.3-12.4,13.3-12.4l2.9-51.1c0.3-4.6-5.1-8.5-11.8-8.5H2500.8z"/>
	<path class="st28" d="M2517.1-864.1L2504-873c-2.6-1.8-3.3-5.4-1.5-8l8.9-13.1c1.8-2.6,5.4-3.3,8-1.5l13.1,8.9
		c2.6,1.8,3.3,5.4,1.5,8l-8.9,13.1C2523.3-863,2519.7-862.4,2517.1-864.1z"/>
	<path class="st28" d="M2559.7-876.7l-7,2.1c-2,0.6-4-0.5-4.6-2.5l-2.1-7c-0.6-2,0.5-4,2.5-4.6l7-2.1c2-0.6,4,0.5,4.6,2.5l2.1,7
		C2562.8-879.4,2561.7-877.3,2559.7-876.7z"/>
</g>
<g>
	<path class="st6" d="M2944.2-805.3l-20.2-11.6c0,0,0.3-67.4,0.3-87.6l45.4-63h-96.1l45.3,62.8c0.1,20,0.3,87.7,0.3,87.7l-20.2,11.6
		c0,0-32.1,12.9,19.4,12.9C2979.1-792.4,2944.2-805.3,2944.2-805.3z"/>
	
		<linearGradient id="SVGID_7_" gradientUnits="userSpaceOnUse" x1="2921.6499" y1="4764.0391" x2="2921.6499" y2="4731.0859" gradientTransform="matrix(1 0 0 -1 0 3819.7998)">
		<stop  offset="0" style="stop-color:#14AFAB"/>
		<stop  offset="1" style="stop-color:#227893"/>
	</linearGradient>
	<polygon class="st29" points="2945.4,-944.2 2921.7,-911.3 2897.9,-944.2 	"/>
	<path class="st30" d="M2947.3-956.3c5.3-4.6,5.8-12.7,1.2-18s-12.7-5.8-18-1.2"/>
	<g>
		<polygon class="st31" points="2937.6,-967.5 2930.2,-967.5 2930.2,-966.7 2939,-966.7 		"/>
		<polygon class="st32" points="2943.2,-961.1 2943.2,-967.5 2937.6,-967.5 2938.3,-966.7 		"/>
	</g>
</g>
<path class="st33" d="M-1479.8-1735.3c-0.6-0.8-2.8-5.7-5.3-10.7c-1.7-3.4-1.8-7.2-1.7-9.3c0-0.9,0.4-1.6,0.9-2.3
	c0.4-0.5,0.8-1.4,0.8-2.8c0-2.8-55.6-3.9-55.6-3.9s-55.6,1.1-55.6,3.9c0,1.4,0.4,2.3,0.8,2.8c0.5,0.7,0.9,1.5,0.9,2.3
	c0.1,2.1,0,5.9-1.7,9.3c-2.5,5-4.6,9.9-5.3,10.7c-0.7,0.8,0,15.1,0,18.7v151.9c0,1,0.4,1.9,1,2.7c1.1,1.2,3.1,3.1,5.7,4.7
	c2.4,1.4,4.1,2.7,5.1,3.5c0.7,0.6,1.3,1.4,1.4,2.3l0,0c0.1,0.5,0.3,0.9,0.5,1.3l1.1,1.7c0.7,1.1,1.8,1.7,3,1.8
	c7.4,0.6,33.5,2.5,42.9,2.5c9.8,0,35.6-1.9,42.9-2.5c1.2-0.1,2.4-0.8,3-1.8l1.1-1.7c0.3-0.4,0.4-0.9,0.5-1.3l0,0
	c0.2-0.9,0.7-1.8,1.4-2.3c1-0.8,2.7-2,5.1-3.5c2.6-1.6,4.6-3.5,5.7-4.7c0.7-0.7,1-1.7,1-2.7v-151.9
	C-1479.8-1720.2-1479.1-1734.4-1479.8-1735.3z"/>
<path class="st34" d="M-1584.5-1553.5c0,0,50.3,5.5,87.7,0"/>
<rect x="-1593.4" y="-1665.6" class="st35" width="105.5" height="26.5"/>
<path class="st34" d="M-1589.9-1757.6c0,0,40.7,4.1,98.6,0"/>
<path class="st35" d="M-1572.4-1639.1h63.5c-3.5,24-16.4,41.8-31.7,41.8C-1556-1597.3-1568.8-1615.1-1572.4-1639.1z"/>
<path class="st35" d="M-1508.9-1665.6h-63.5c3.5-24,16.4-41.8,31.7-41.8C-1525.3-1707.4-1512.4-1689.6-1508.9-1665.6z"/>
<path d="M-268.8,136.7h-23.1v-106c0-6.4,5.2-11.6,11.6-11.6l0,0c6.4,0,11.6,5.2,11.6,11.6v106H-268.8z"/>
<path d="M-176.3,148.3L-176.3,148.3c0,6.4-5.2,11.6-11.6,11.6h-307c-6.4,0-11.6-5.2-11.6-11.6l0,0c0-6.4,5.2-11.6,11.6-11.6h307.1
	C-181.5,136.7-176.3,141.9-176.3,148.3z"/>
<path d="M-240.3,32.7L-240.3,32.7c-4.5,4.5-11.8,4.5-16.3,0l-99.2-99.2c-4.5-4.5-4.5-11.8,0-16.3l0,0c4.5-4.5,11.8-4.5,16.3,0
	l99.2,99.2C-235.8,20.9-235.8,28.2-240.3,32.7z"/>
<path d="M-456.2,32.7L-456.2,32.7c4.5,4.5,11.8,4.5,16.3,0l99.2-99.2c4.5-4.5,4.5-11.8,0-16.3l0,0c-4.5-4.5-11.8-4.5-16.3,0
	l-99.2,99.2C-460.7,20.9-460.7,28.2-456.2,32.7z"/>
<path d="M-404.8,136.7h-23.1v-106c0-6.4,5.2-11.6,11.6-11.6l0,0c6.4,0,11.6,5.2,11.6,11.6L-404.8,136.7L-404.8,136.7z"/>
<path d="M-344.1,136.7h-43.1V84.3c0-11.9,9.7-21.6,21.6-21.6l0,0c11.9,0,21.6,9.7,21.6,21.6v52.4L-344.1,136.7L-344.1,136.7z"/>
<path class="st3" d="M24.4,105.1h-5.5c-1.9,0-3.4-1.5-3.4-3.4l0,0c0-1.9,1.5-3.4,3.4-3.4h5.5c1.9,0,3.4,1.5,3.4,3.4l0,0
	C27.7,103.6,26.2,105.1,24.4,105.1z"/>
<g>
	<path class="st36" d="M338.6,50.2l-10.8-0.6c-6.8-0.4-12-10-13.9-15.5c-2.7-7.7-5-16.3-11.5-21.9C297,7.6,290.1,5,283.1,5h-81.2
		c-16.4,0-29.7,13.3-29.7,29.7c-1.9,23.2-21.6,16.2-21.6,29v32.8c0,12.7,10.3,23.1,23.1,23.1h174.1c12.7,0,22.2-4,22.2-16.7
		l0.9-18.8C370.9,71.3,372.3,50.2,338.6,50.2z"/>
	<circle class="st3" cx="199.5" cy="118.6" r="22.5"/>
	<circle class="st3" cx="322.3" cy="118.6" r="22.5"/>
	<path class="st3" d="M105.8,105.1H34c-1.9,0-3.4-1.5-3.4-3.4l0,0c0-1.9,1.5-3.4,3.4-3.4h71.8c1.9,0,3.4,1.5,3.4,3.4l0,0
		C109.2,103.6,107.6,105.1,105.8,105.1z"/>
	<path class="st3" d="M127.5,80.4H48.6c-1.9,0-3.4-1.5-3.4-3.4l0,0c0-1.9,1.5-3.4,3.4-3.4h78.9c1.9,0,3.4,1.5,3.4,3.4l0,0
		C130.9,78.9,129.4,80.4,127.5,80.4z"/>
	<path class="st3" d="M35.3,56.4H3.4C1.5,56.4,0,54.9,0,53l0,0c0-1.9,1.5-3.4,3.4-3.4h31.9c1.9,0,3.4,1.5,3.4,3.4l0,0
		C38.6,54.9,37.1,56.4,35.3,56.4z"/>
	<path class="st3" d="M103.6,56.4h-55c-1.9,0-3.4-1.5-3.4-3.4l0,0c0-1.9,1.5-3.4,3.4-3.4h55c1.9,0,3.4,1.5,3.4,3.4l0,0
		C107,54.9,105.5,56.4,103.6,56.4z"/>
</g>
</svg>
