<?xml version="1.0" encoding="utf-8"?>
<!-- Generator: Adobe Illustrator 22.0.1, SVG Export Plug-In . SVG Version: 6.00 Build 0)  -->
<svg version="1.1" id="Layer_1" xmlns="http://www.w3.org/2000/svg" xmlns:xlink="http://www.w3.org/1999/xlink" x="0px" y="0px"
	 viewBox="0 0 179.2 157.4" style="enable-background:new 0 0 179.2 157.4;" xml:space="preserve">
<style type="text/css">
	.st0{fill:#55A5D3;}
	.st1{fill:#2479B4;}
	.st2{fill:#392915;}
	.st3{fill:#F0BAA5;}
	.st4{opacity:0.5;fill:#D28B6B;enable-background:new    ;}
	.st5{fill:#6B3815;}
	.st6{fill:#FFFFFF;}
	.st7{opacity:0.5;fill:#F8FAFB;enable-background:new    ;}
	.st8{fill:url(#SVGID_1_);}
	.st9{fill:#DDDDDD;}
	.st10{fill:#F7F8F8;}
	.st11{opacity:0.35;fill:#F4F4F5;enable-background:new    ;}
	.st12{fill:none;stroke:#392915;stroke-linecap:round;stroke-miterlimit:10;}
	.st13{fill:url(#SVGID_2_);}
	.st14{fill:url(#SVGID_3_);}
	.st15{fill:#8B2828;}
	.st16{fill:#B73231;}
	.st17{fill:none;stroke:#AE832D;stroke-width:0.5;stroke-linecap:round;stroke-miterlimit:10;}
	.st18{fill:none;stroke:#AE832D;stroke-linecap:round;stroke-miterlimit:10;}
</style>
<g>
	<path class="st0" d="M88.7,103.6c-15.8,0-28.8,9.9-28.8,22.3h57.5C117.5,113.5,104.5,103.6,88.7,103.6z"/>
	<path class="st1" d="M109.7,124.9c0-11.8-9.3-21.5-21-21.5c-11.6,0-21,9.5-21,21.5v6h41.9V124.9z"/>
	<path class="st2" d="M94.2,52.2V25.7c0-8.6,7-15.6,15.6-15.6l0,0c8.6,0,15.6,7,15.6,15.6V52c0,8.6-7,15.6-15.6,15.6l0,0
		C101.3,67.8,94.2,60.8,94.2,52.2z"/>
	<path class="st2" d="M51.8,52.2V25.7c0-8.6,7-15.6,15.6-15.6l0,0c8.6,0,15.6,7,15.6,15.6V52c0,8.6-7,15.6-15.6,15.6l0,0
		C58.8,67.8,51.8,60.8,51.8,52.2z"/>
	<path class="st3" d="M88.7,113.9L88.7,113.9c-3.8,0-6.7-3-6.7-6.7V94.7c0-3.8,3-6.7,6.7-6.7l0,0c3.8,0,6.7,3,6.7,6.7v12.6
		C95.4,110.9,92.5,113.9,88.7,113.9z"/>
	<path class="st4" d="M88.7,87.8L88.7,87.8c-3.8,0-6.7,3-6.7,6.7v5.5c2.1,0.6,4.4,0.8,6.7,0.8l0,0c2.3,0,4.6-0.4,6.7-0.8v-5.5
		C95.4,90.9,92.5,87.8,88.7,87.8z"/>
	<path class="st3" d="M88.7,98.5L88.7,98.5c-15.8,0-28.8-13-28.8-28.8V32.4c0-15.8,13-28.8,28.8-28.8l0,0c15.8,0,28.8,13,28.8,28.8
		v37.3C117.5,85.5,104.5,98.5,88.7,98.5z"/>
	<path class="st2" d="M102.8,42.9H74.6c-9.5,0-17.3-7.8-17.3-17.3v-8.2C57.3,7.8,65.1,0,74.6,0h28.2c9.5,0,17.3,7.8,17.3,17.3v8.2
		C120.2,35,112.3,42.9,102.8,42.9z"/>
	<path class="st2" d="M72.3,60.9L72.3,60.9c-1,0-1.7-0.5-1.7-1.1v-3.4c0-0.6,0.8-1.1,1.7-1.1l0,0c1,0,1.7,0.5,1.7,1.1v3.4
		C73.9,60.4,73.3,60.9,72.3,60.9z"/>
	<path class="st2" d="M106.4,60.9L106.4,60.9c-1,0-1.7-0.5-1.7-1.1v-3.4c0-0.6,0.8-1.1,1.7-1.1l0,0c1,0,1.7,0.5,1.7,1.1v3.4
		C108.2,60.4,107.4,60.9,106.4,60.9z"/>
	<path class="st5" d="M174.9,157.4H4.3c-2.4,0-4.3-1.9-4.3-4.3v0c0-2.4,1.9-4.3,4.3-4.3h170.6c2.4,0,4.3,1.9,4.3,4.3v0
		C179.2,155.5,177.3,157.4,174.9,157.4z"/>
	<rect x="109.7" y="125.7" class="st3" width="7.8" height="23"/>
	<rect x="67.8" y="130.9" class="st1" width="41.9" height="17.8"/>
	<circle class="st6" cx="101.5" cy="133" r="0.6"/>
	<path class="st7" d="M88.4,152.8v-21.3c0-1.1,0.9-2,2-2h13.9c1.1,0,2,0.9,2,2v21.3c0,1.1-0.9,2-2,2H90.4
		C89.3,154.7,88.4,153.9,88.4,152.8z"/>
	
		<linearGradient id="SVGID_1_" gradientUnits="userSpaceOnUse" x1="29.6902" y1="374.5295" x2="29.6902" y2="395.5244" gradientTransform="matrix(-1 0 0 1 126.9173 -242)">
		<stop  offset="0" style="stop-color:#FFCC4C"/>
		<stop  offset="1" style="stop-color:#FEBF4D"/>
	</linearGradient>
	<path class="st8" d="M89.7,151.6v-17.1c0-1.1,0.9-2,2-2h11.1c1.1,0,2,0.9,2,2v17.1c0,1.1-0.9,2-2,2H91.7
		C90.6,153.6,89.7,152.7,89.7,151.6z"/>
	<circle class="st9" cx="102.7" cy="132.4" r="3.1"/>
	<circle class="st9" cx="99.4" cy="131.5" r="2.2"/>
	<circle class="st9" cx="96.1" cy="132.4" r="2.2"/>
	<circle class="st9" cx="91.4" cy="132" r="2.6"/>
	<circle class="st10" cx="96.1" cy="131.6" r="2.2"/>
	<circle class="st10" cx="94.1" cy="130.6" r="1.1"/>
	<path class="st10" d="M99.9,132.8c0.5,1.1,1.6,1.9,2.8,1.9c1.7,0,3.1-1.4,3.1-3.1c0-0.5-0.1-0.9-0.3-1.3h-4c0,0.1,0,0.3,0,0.4
		C101.6,131.7,100.8,132.5,99.9,132.8z"/>
	<path class="st10" d="M99.9,130.2h-2.7c0,0.1,0,0.3,0,0.4c0,1.2,1,2.2,2.2,2.2c0.2,0,0.3,0,0.5-0.1c-0.2-0.4-0.3-0.8-0.3-1.2
		C99.6,131.1,99.7,130.6,99.9,130.2z"/>
	<path class="st10" d="M99.6,131.5c0,0.4,0.1,0.9,0.3,1.2c1-0.2,1.7-1.1,1.7-2.1c0-0.1,0-0.3,0-0.4h-1.6
		C99.7,130.6,99.6,131.1,99.6,131.5z"/>
	<path class="st10" d="M88.8,131.1c0,1.5,1.2,2.6,2.6,2.6c1.5,0,2.6-1.2,2.6-2.6c0-0.3,0-0.6-0.1-0.9h-5
		C88.9,130.5,88.8,130.8,88.8,131.1z"/>
	<path class="st10" d="M88.5,130.3C88.5,130.3,88.5,130.3,88.5,130.3C88.5,130.3,88.5,130.3,88.5,130.3L88.5,130.3z"/>
	<path class="st10" d="M89,130.2c0.1-0.2,1.1-1.4,2.4-1.4h5.2c0.9,0,1.5,0,1.5,0h5.2c0.9,0,1.7,0.7,2.1,1.2c0.1,0.1,0.1,0.2,0.2,0.3
		h-4c-0.1-0.5-0.3-0.9-0.6-1.2c-0.4,0.3-0.7,0.7-1,1.2L89,130.2C89,130.2,89,130.2,89,130.2z"/>
	<path class="st10" d="M100.9,129c-0.4,0.3-0.7,0.7-1,1.2h1.6C101.4,129.8,101.2,129.4,100.9,129z"/>
	<path class="st7" d="M83,136.8v0.1l0,0v9.1l0,0v0.1c0,0.1,0,0.2,0,0.3c0.2,1.2,1,2.1,2,2.1h3.4v-2.2H86c-0.6,0-1-0.6-1-1.2v-7.2
		c0-0.7,0.4-1.2,1-1.2h2.4v-2.1H85c-1,0-1.8,0.8-2,1.9C83,136.5,83,136.7,83,136.8z"/>
	<path class="st11" d="M100.9,149.5v-12.5c0-0.6,0.4-1,1-1l0,0c0.6,0,1,0.4,1,1v12.5c0,0.6-0.4,1-1,1l0,0
		C101.3,150.5,100.9,150,100.9,149.5z"/>
	<path class="st11" d="M96.2,149.5v-12.5c0-0.6,0.4-1,1-1l0,0c0.6,0,1,0.4,1,1v12.5c0,0.6-0.4,1-1,1l0,0
		C96.6,150.5,96.2,150,96.2,149.5z"/>
	<path class="st11" d="M91.6,149.5v-12.5c0-0.6,0.4-1,1-1l0,0c0.6,0,1,0.4,1,1v12.5c0,0.6-0.4,1-1,1l0,0
		C92,150.5,91.6,150,91.6,149.5z"/>
	<path class="st3" d="M60,145.2l23.1,2.5c2.7,0.3,5.3-0.8,6.9-2.8c1.4-1.7,0.3-4.2-1.8-4.5l-27.3-3L60,145.2z"/>
	<rect x="60" y="125.9" class="st3" width="7.8" height="19.2"/>
	<path class="st12" d="M94.8,70"/>
	<path class="st2" d="M74.9,47.2L67,48.9c-0.5,0.1-1-0.2-1.1-0.7l0,0c-0.1-0.5,0.2-1,0.7-1.1l7.9-1.7c0.5-0.1,1,0.2,1.1,0.7l0,0
		C75.7,46.6,75.4,47.1,74.9,47.2z"/>
	<path class="st2" d="M102.3,47.2l7.9,1.7c0.5,0.1,1-0.2,1.1-0.7l0,0c0.1-0.5-0.2-1-0.7-1.1l-7.9-1.7c-0.5-0.1-1,0.2-1.1,0.7l0,0
		C101.5,46.6,101.8,47.1,102.3,47.2z"/>
	<path class="st12" d="M84.8,70c0.9,1.2,2.3,1.9,3.9,1.9s3-0.8,3.9-1.9"/>
</g>
<path class="st0" d="M-137.8,103.6c-15.8,0-28.8,9.9-28.8,22.3h57.5C-109,113.5-122,103.6-137.8,103.6z"/>
<path class="st1" d="M-116.8,124.9c0-11.8-9.3-21.5-21-21.5c-11.6,0-21,9.5-21,21.5v6h41.9V124.9z"/>
<path class="st2" d="M-132.3,52.2V25.7c0-8.6,7-15.6,15.6-15.6l0,0c8.6,0,15.6,7,15.6,15.6V52c0,8.6-7,15.6-15.6,15.6l0,0
	C-125.2,67.8-132.3,60.8-132.3,52.2z"/>
<path class="st2" d="M-174.7,52.2V25.7c0-8.6,7-15.6,15.6-15.6l0,0c8.6,0,15.6,7,15.6,15.6V52c0,8.6-7,15.6-15.6,15.6l0,0
	C-167.7,67.8-174.7,60.8-174.7,52.2z"/>
<path class="st3" d="M-137.8,113.9L-137.8,113.9c-3.8,0-6.7-3-6.7-6.7V94.7c0-3.8,3-6.7,6.7-6.7l0,0c3.8,0,6.7,3,6.7,6.7v12.6
	C-131.1,110.9-134,113.9-137.8,113.9z"/>
<path class="st4" d="M-137.8,87.8L-137.8,87.8c-3.8,0-6.7,3-6.7,6.7v5.5c2.1,0.6,4.4,0.8,6.7,0.8l0,0c2.3,0,4.6-0.4,6.7-0.8v-5.5
	C-131.1,90.9-134,87.8-137.8,87.8z"/>
<path class="st3" d="M-137.8,98.5L-137.8,98.5c-15.8,0-28.8-13-28.8-28.8V32.4c0-15.8,13-28.8,28.8-28.8l0,0
	c15.8,0,28.8,13,28.8,28.8v37.3C-109,85.5-122,98.5-137.8,98.5z"/>
<path class="st2" d="M-123.7,42.9h-28.2c-9.5,0-17.3-7.8-17.3-17.3v-8.2c0-9.5,7.8-17.3,17.3-17.3h28.2c9.5,0,17.3,7.8,17.3,17.3
	v8.2C-106.4,35-114.2,42.9-123.7,42.9z"/>
<path class="st2" d="M-154.2,60.9L-154.2,60.9c-1,0-1.7-0.6-1.7-1.4v-4.4c0-0.8,0.8-1.4,1.7-1.4l0,0c1,0,1.7,0.6,1.7,1.4v4.4
	C-152.6,60.3-153.2,60.9-154.2,60.9z"/>
<path class="st2" d="M-120.1,60.9L-120.1,60.9c-1,0-1.7-0.6-1.7-1.4v-4.4c0-0.8,0.8-1.4,1.7-1.4l0,0c1,0,1.7,0.6,1.7,1.4v4.4
	C-118.4,60.3-119.1,60.9-120.1,60.9z"/>
<path class="st5" d="M-51.6,157.4h-170.6c-2.4,0-4.3-1.9-4.3-4.3v0c0-2.4,1.9-4.3,4.3-4.3h170.6c2.4,0,4.3,1.9,4.3,4.3v0
	C-47.3,155.5-49.2,157.4-51.6,157.4z"/>
<rect x="-116.8" y="125.7" class="st3" width="7.8" height="23"/>
<rect x="-158.7" y="130.9" class="st1" width="41.9" height="17.8"/>
<path class="st7" d="M-137.4,152.8v-21.3c0-1.1,0.9-2,2-2h13.9c1.1,0,2,0.9,2,2v21.3c0,1.1-0.9,2-2,2h-13.9
	C-136.5,154.7-137.4,153.9-137.4,152.8z"/>
<linearGradient id="SVGID_2_" gradientUnits="userSpaceOnUse" x1="255.2111" y1="393.0444" x2="255.2111" y2="395.5883" gradientTransform="matrix(-1 0 0 1 126.9173 -242)">
	<stop  offset="0" style="stop-color:#FFCC4C"/>
	<stop  offset="1" style="stop-color:#FEBF4D"/>
</linearGradient>
<path class="st13" d="M-120.7,151v2.3c0,0.1-0.9,0.3-2,0.3h-11.1c-1.1,0-2-0.1-2-0.3V151"/>
<path class="st10" d="M-137.2,130.3C-137.2,130.3-137.2,130.3-137.2,130.3C-137.2,130.3-137.2,130.3-137.2,130.3L-137.2,130.3z"/>
<path class="st7" d="M-142.8,136.8v0.1l0,0v9.1l0,0v0.1c0,0.1,0,0.2,0,0.3c0.2,1.2,1,2.1,2,2.1h3.4v-2.2h-2.4c-0.6,0-1-0.6-1-1.2
	v-7.2c0-0.7,0.4-1.2,1-1.2h2.4v-2.1h-3.4c-1,0-1.8,0.8-2,1.9C-142.7,136.5-142.8,136.7-142.8,136.8z"/>
<path class="st11" d="M-124.9,149.5v-12.5c0-0.6,0.4-1,1-1l0,0c0.6,0,1,0.4,1,1v12.5c0,0.6-0.4,1-1,1l0,0
	C-124.4,150.5-124.9,150-124.9,149.5z"/>
<path class="st11" d="M-129.6,149.5v-12.5c0-0.6,0.4-1,1-1l0,0c0.6,0,1,0.4,1,1v12.5c0,0.6-0.4,1-1,1l0,0
	C-129.1,150.5-129.6,150-129.6,149.5z"/>
<path class="st11" d="M-134.2,149.5v-12.5c0-0.6,0.4-1,1-1l0,0c0.6,0,1,0.4,1,1v12.5c0,0.6-0.4,1-1,1l0,0
	C-133.7,150.5-134.2,150-134.2,149.5z"/>
<rect x="-166.5" y="125.9" class="st3" width="7.8" height="19.2"/>
<path class="st12" d="M-131.7,70"/>
<path class="st12" d="M-141.7,70c0.9,1.2,2.3,1.9,3.9,1.9s3-0.8,3.9-1.9"/>
<path class="st3" d="M-166.5,145.2l22.4,6.2c2.6,0.7,5.3,0,7.3-1.7c1.6-1.4,1-4.1-1.1-4.7l-26.5-7.3L-166.5,145.2z"/>
<path class="st0" d="M-379.2,103.6c-15.8,0-28.8,9.9-28.8,22.3h57.5C-350.5,113.5-363.4,103.6-379.2,103.6z"/>
<path class="st1" d="M-358.3,124.9c0-11.8-9.3-21.5-21-21.5c-11.6,0-21,9.5-21,21.5v6h41.9V124.9z"/>
<path class="st2" d="M-373.7,52.2V25.7c0-8.6,7-15.6,15.6-15.6l0,0c8.6,0,15.6,7,15.6,15.6V52c0,8.6-7,15.6-15.6,15.6l0,0
	C-366.7,67.8-373.7,60.8-373.7,52.2z"/>
<path class="st2" d="M-416.2,52.2V25.7c0-8.6,7-15.6,15.6-15.6l0,0c8.6,0,15.6,7,15.6,15.6V52c0,8.6-7,15.6-15.6,15.6l0,0
	C-409.1,67.8-416.2,60.8-416.2,52.2z"/>
<path class="st3" d="M-379.2,113.9L-379.2,113.9c-3.8,0-6.7-3-6.7-6.7V94.7c0-3.8,3-6.7,6.7-6.7l0,0c3.8,0,6.7,3,6.7,6.7v12.6
	C-372.6,110.9-375.4,113.9-379.2,113.9z"/>
<path class="st4" d="M-379.2,87.8L-379.2,87.8c-3.8,0-6.7,3-6.7,6.7v5.5c2.1,0.6,4.4,0.8,6.7,0.8l0,0c2.3,0,4.6-0.4,6.7-0.8v-5.5
	C-372.6,90.9-375.4,87.8-379.2,87.8z"/>
<path class="st3" d="M-379.2,98.5L-379.2,98.5c-15.8,0-28.8-13-28.8-28.8V32.4c0-15.8,13-28.8,28.8-28.8l0,0
	c15.8,0,28.8,13,28.8,28.8v37.3C-350.5,85.5-363.4,98.5-379.2,98.5z"/>
<path class="st2" d="M-365.2,42.9h-28.2c-9.5,0-17.3-7.8-17.3-17.3v-8.2c0-9.5,7.8-17.3,17.3-17.3h28.2c9.5,0,17.3,7.8,17.3,17.3
	v8.2C-347.8,35-355.6,42.9-365.2,42.9z"/>
<path class="st5" d="M-293.1,157.4h-170.6c-2.4,0-4.3-1.9-4.3-4.3v0c0-2.4,1.9-4.3,4.3-4.3h170.6c2.4,0,4.3,1.9,4.3,4.3v0
	C-288.7,155.5-290.7,157.4-293.1,157.4z"/>
<rect x="-358.3" y="125.7" class="st3" width="7.8" height="23"/>
<rect x="-400.2" y="130.9" class="st1" width="41.9" height="17.8"/>
<path class="st10" d="M-378.7,130.3C-378.7,130.3-378.7,130.3-378.7,130.3C-378.7,130.3-378.7,130.3-378.7,130.3L-378.7,130.3z"/>
<path class="st7" d="M-378.8,152.8v-21.3c0-1.1,0.9-2,2-2h13.9c1.1,0,2,0.9,2,2v21.3c0,1.1-0.9,2-2,2h-13.9
	C-378,154.7-378.8,153.9-378.8,152.8z"/>
<path class="st7" d="M-384.2,136.8v0.1l0,0v9.1l0,0v0.1c0,0.1,0,0.2,0,0.3c0.2,1.2,1,2.1,2,2.1h3.4v-2.2h-2.4c-0.6,0-1-0.6-1-1.2
	v-7.2c0-0.7,0.4-1.2,1-1.2h2.4v-2.1h-3.4c-1,0-1.8,0.8-2,1.9C-384.2,136.5-384.2,136.7-384.2,136.8z"/>
<linearGradient id="SVGID_3_" gradientUnits="userSpaceOnUse" x1="496.8052" y1="374.5295" x2="496.8052" y2="395.5244" gradientTransform="matrix(-1 0 0 1 126.9173 -242)">
	<stop  offset="0" style="stop-color:#FFCC4C"/>
	<stop  offset="1" style="stop-color:#FEBF4D"/>
</linearGradient>
<path class="st14" d="M-377.4,151.6v-17.1c0-1.1,0.9-2,2-2h11.1c1.1,0,2,0.9,2,2v17.1c0,1.1-0.9,2-2,2h-11.1
	C-376.5,153.6-377.4,152.7-377.4,151.6z"/>
<path class="st11" d="M-366.4,149.5v-12.5c0-0.6,0.4-1,1-1l0,0c0.6,0,1,0.4,1,1v12.5c0,0.6-0.4,1-1,1l0,0
	C-365.9,150.5-366.4,150-366.4,149.5z"/>
<path class="st11" d="M-371.1,149.5v-12.5c0-0.6,0.4-1,1-1l0,0c0.6,0,1,0.4,1,1v12.5c0,0.6-0.4,1-1,1l0,0
	C-370.6,150.5-371.1,150-371.1,149.5z"/>
<path class="st11" d="M-375.7,149.5v-12.5c0-0.6,0.4-1,1-1l0,0c0.6,0,1,0.4,1,1v12.5c0,0.6-0.4,1-1,1l0,0
	C-375.2,150.5-375.7,150-375.7,149.5z"/>
<g>
	<path class="st7" d="M-444.7,152.8v-21.3c0-1.1,0.9-2,2-2h13.9c1.1,0,2,0.9,2,2v21.3c0,1.1-0.9,2-2,2h-13.9
		C-443.8,154.7-444.7,153.9-444.7,152.8z"/>
	<path class="st7" d="M-450.1,136.8v0.1l0,0v9.1l0,0v0.1c0,0.1,0,0.2,0,0.3c0.2,1.2,1,2.1,2,2.1h3.4v-2.2h-2.4c-0.6,0-1-0.6-1-1.2
		v-7.2c0-0.7,0.4-1.2,1-1.2h2.4v-2.1h-3.4c-1,0-1.8,0.8-2,1.9C-450.1,136.5-450.1,136.7-450.1,136.8z"/>
	<path class="st11" d="M-432.2,149.5v-12.5c0-0.6,0.4-1,1-1l0,0c0.6,0,1,0.4,1,1v12.5c0,0.6-0.4,1-1,1l0,0
		C-431.8,150.5-432.2,150-432.2,149.5z"/>
	<path class="st11" d="M-436.9,149.5v-12.5c0-0.6,0.4-1,1-1l0,0c0.6,0,1,0.4,1,1v12.5c0,0.6-0.4,1-1,1l0,0
		C-436.5,150.5-436.9,150-436.9,149.5z"/>
	<path class="st11" d="M-441.5,149.5v-12.5c0-0.6,0.4-1,1-1l0,0c0.6,0,1,0.4,1,1v12.5c0,0.6-0.4,1-1,1l0,0
		C-441.1,150.5-441.5,150-441.5,149.5z"/>
</g>
<g>
	<path class="st7" d="M-338.3,152.8v-21.3c0-1.1,0.9-2,2-2h13.9c1.1,0,2,0.9,2,2v21.3c0,1.1-0.9,2-2,2h-13.9
		C-337.4,154.7-338.3,153.9-338.3,152.8z"/>
	<path class="st7" d="M-343.7,136.8v0.1l0,0v9.1l0,0v0.1c0,0.1,0,0.2,0,0.3c0.2,1.2,1,2.1,2,2.1h3.4v-2.2h-2.4c-0.6,0-1-0.6-1-1.2
		v-7.2c0-0.7,0.4-1.2,1-1.2h2.4v-2.1h-3.4c-1,0-1.8,0.8-2,1.9C-343.6,136.5-343.7,136.7-343.7,136.8z"/>
	<path class="st11" d="M-325.8,149.5v-12.5c0-0.6,0.4-1,1-1l0,0c0.6,0,1,0.4,1,1v12.5c0,0.6-0.4,1-1,1l0,0
		C-325.4,150.5-325.8,150-325.8,149.5z"/>
	<path class="st11" d="M-330.5,149.5v-12.5c0-0.6,0.4-1,1-1l0,0c0.6,0,1,0.4,1,1v12.5c0,0.6-0.4,1-1,1l0,0
		C-330.1,150.5-330.5,150-330.5,149.5z"/>
	<path class="st11" d="M-335.1,149.5v-12.5c0-0.6,0.4-1,1-1l0,0c0.6,0,1,0.4,1,1v12.5c0,0.6-0.4,1-1,1l0,0
		C-334.6,150.5-335.1,150-335.1,149.5z"/>
</g>
<g>
	<path class="st7" d="M-299.8,152.5h-13.3c-1,0-1.9-0.8-1.9-1.9v-20.3c0-1,0.8-1.9,1.9-1.9h13.3c1,0,1.9,0.8,1.9,1.9v20.3
		C-297.9,151.6-298.7,152.5-299.8,152.5z"/>
	<path class="st7" d="M-292.8,135c-0.2-1-1-1.8-1.9-1.8h-3.2v2h2.3c0.5,0,1,0.5,1,1.2v6.9c0,0.7-0.4,1.2-1,1.2h-2.3v2.1h3.2
		c1,0,1.7-0.9,1.9-2c0-0.1,0-0.2,0-0.3v-0.1l0,0v-8.6l0,0v-0.1C-292.8,135.3-292.8,135.1-292.8,135z"/>
	<path class="st11" d="M-310.8,148.4L-310.8,148.4c-0.5,0-1-0.4-1-1v-12c0-0.5,0.4-1,1-1l0,0c0.5,0,1,0.4,1,1v12
		C-309.8,148-310.2,148.4-310.8,148.4z"/>
	<path class="st11" d="M-306.3,148.4L-306.3,148.4c-0.5,0-1-0.4-1-1v-12c0-0.5,0.4-1,1-1l0,0c0.5,0,1,0.4,1,1v12
		C-305.3,148-305.7,148.4-306.3,148.4z"/>
	<path class="st11" d="M-301.9,148.4L-301.9,148.4c-0.5,0-1-0.4-1-1v-12c0-0.5,0.4-1,1-1l0,0c0.5,0,1,0.4,1,1v12
		C-300.9,148-301.4,148.4-301.9,148.4z"/>
</g>
<rect x="-408" y="125.9" class="st3" width="7.8" height="19.2"/>
<path class="st12" d="M-373.1,70"/>
<path class="st3" d="M-408,145.2l22.4,6.2c2.6,0.7,5.3,0,7.3-1.7c1.6-1.4,1-4.1-1.1-4.7l-26.5-7.3L-408,145.2z"/>
<path class="st2" d="M-397.9,56.4v2.8c0,0.9,0.8,1.7,1.7,1.7s1.7-0.8,1.7-1.7v-3.6L-397.9,56.4z"/>
<path class="st2" d="M-360.5,56.4v2.8c0,0.9-0.8,1.7-1.7,1.7s-1.7-0.8-1.7-1.7v-3.6L-360.5,56.4z"/>
<g>
	<path class="st15" d="M-383.4,75.8c1-1,2.5-1.6,4-1.6c1.6,0,3,0.6,4,1.6c1-0.9,1.7-2.2,1.9-3.6h-11.9
		C-385.1,73.6-384.4,74.9-383.4,75.8z"/>
	<path class="st16" d="M-383.4,75.8c1,1,2.5,1.6,4,1.6c1.6,0,3-0.6,4-1.6c-1-1-2.5-1.6-4-1.6C-380.9,74.3-382.4,74.9-383.4,75.8z"/>
	<path class="st6" d="M-373.4,71.3h-11.9c0,0.1,0,0.3,0,0.4c0,0.1,0,0.4,0.1,0.5h11.9c0-0.1,0.1-0.4,0.1-0.5
		C-373.4,71.6-373.4,71.4-373.4,71.3z"/>
</g>
<g>
	<line class="st17" x1="-433.2" y1="15.5" x2="-433.2" y2="17.7"/>
	<line class="st17" x1="-429.1" y1="19.5" x2="-431.4" y2="19.5"/>
	<line class="st17" x1="-433.2" y1="23.6" x2="-433.2" y2="21.3"/>
	<line class="st17" x1="-437.2" y1="19.6" x2="-434.9" y2="19.6"/>
	<line class="st17" x1="-430.3" y1="16.7" x2="-431.9" y2="18.3"/>
	<line class="st17" x1="-430.3" y1="22.4" x2="-431.9" y2="20.8"/>
	<line class="st17" x1="-436" y1="22.4" x2="-434.4" y2="20.9"/>
	<line class="st17" x1="-436" y1="16.8" x2="-434.5" y2="18.3"/>
</g>
<g>
	<line class="st17" x1="-339.9" y1="-1.2" x2="-339.9" y2="0.2"/>
	<line class="st17" x1="-337.2" y1="1.4" x2="-338.7" y2="1.4"/>
	<line class="st17" x1="-339.9" y1="4.1" x2="-339.9" y2="2.6"/>
	<line class="st17" x1="-342.5" y1="1.4" x2="-341" y2="1.4"/>
	<line class="st17" x1="-338" y1="-0.4" x2="-339" y2="0.6"/>
	<line class="st17" x1="-338" y1="3.3" x2="-339" y2="2.2"/>
	<line class="st17" x1="-341.7" y1="3.3" x2="-340.7" y2="2.3"/>
	<line class="st17" x1="-341.7" y1="-0.4" x2="-340.7" y2="0.6"/>
</g>
<circle class="st18" cx="-425.8" cy="31.8" r="1.3"/>
<circle class="st18" cx="-421.1" cy="3.1" r="2.2"/>
<circle class="st18" cx="-335.3" cy="13.6" r="1.9"/>
</svg>
