<?xml version="1.0" encoding="utf-8"?>
<!-- Generator: Adobe Illustrator 22.0.1, SVG Export Plug-In . SVG Version: 6.00 Build 0)  -->
<svg version="1.1" id="Layer_1" xmlns="http://www.w3.org/2000/svg" xmlns:xlink="http://www.w3.org/1999/xlink" x="0px" y="0px"
	 viewBox="0 0 179.2 157.4" style="enable-background:new 0 0 179.2 157.4;" xml:space="preserve">
<style type="text/css">
	.st0{fill:#55A5D3;}
	.st1{fill:#2479B4;}
	.st2{fill:#392915;}
	.st3{fill:#F0BAA5;}
	.st4{opacity:0.5;fill:#D28B6B;enable-background:new    ;}
	.st5{fill:#6B3815;}
	.st6{fill:#FFFFFF;}
	.st7{opacity:0.5;fill:#F8FAFB;enable-background:new    ;}
	.st8{fill:url(#SVGID_1_);}
	.st9{fill:#DDDDDD;}
	.st10{fill:#F7F8F8;}
	.st11{opacity:0.35;fill:#F4F4F5;enable-background:new    ;}
	.st12{fill:none;stroke:#392915;stroke-linecap:round;stroke-miterlimit:10;}
	.st13{fill:url(#SVGID_2_);}
	.st14{fill:url(#SVGID_3_);}
	.st15{fill:#8B2828;}
	.st16{fill:#B73231;}
	.st17{fill:none;stroke:#AE832D;stroke-width:0.5;stroke-linecap:round;stroke-miterlimit:10;}
	.st18{fill:none;stroke:#AE832D;stroke-linecap:round;stroke-miterlimit:10;}
</style>
<g>
	<path class="st0" d="M315.2,103.6c-15.8,0-28.8,9.9-28.8,22.3H344C344,113.5,331,103.6,315.2,103.6z"/>
	<path class="st1" d="M336.2,124.9c0-11.8-9.3-21.5-21-21.5c-11.6,0-21,9.5-21,21.5v6h41.9V124.9z"/>
	<path class="st2" d="M320.8,52.2V25.7c0-8.6,7-15.6,15.6-15.6l0,0c8.6,0,15.6,7,15.6,15.6V52c0,8.6-7,15.6-15.6,15.6l0,0
		C327.8,67.8,320.8,60.8,320.8,52.2z"/>
	<path class="st2" d="M278.3,52.2V25.7c0-8.6,7-15.6,15.6-15.6l0,0c8.6,0,15.6,7,15.6,15.6V52c0,8.6-7,15.6-15.6,15.6l0,0
		C285.3,67.8,278.3,60.8,278.3,52.2z"/>
	<path class="st3" d="M315.2,113.9L315.2,113.9c-3.8,0-6.7-3-6.7-6.7V94.7c0-3.8,3-6.7,6.7-6.7l0,0c3.8,0,6.7,3,6.7,6.7v12.6
		C321.9,110.9,319,113.9,315.2,113.9z"/>
	<path class="st4" d="M315.2,87.8L315.2,87.8c-3.8,0-6.7,3-6.7,6.7v5.5c2.1,0.6,4.4,0.8,6.7,0.8l0,0c2.3,0,4.6-0.4,6.7-0.8v-5.5
		C321.9,90.9,319,87.8,315.2,87.8z"/>
	<path class="st3" d="M315.2,98.5L315.2,98.5c-15.8,0-28.8-13-28.8-28.8V32.4c0-15.8,13-28.8,28.8-28.8l0,0
		c15.8,0,28.8,13,28.8,28.8v37.3C344,85.5,331,98.5,315.2,98.5z"/>
	<path class="st2" d="M329.3,42.9h-28.2c-9.5,0-17.3-7.8-17.3-17.3v-8.2c0-9.5,7.8-17.3,17.3-17.3h28.2c9.5,0,17.3,7.8,17.3,17.3
		v8.2C346.7,35,338.9,42.9,329.3,42.9z"/>
	<path class="st2" d="M298.9,60.9L298.9,60.9c-1,0-1.7-0.5-1.7-1.1v-3.4c0-0.6,0.8-1.1,1.7-1.1l0,0c1,0,1.7,0.5,1.7,1.1v3.4
		C300.4,60.4,299.8,60.9,298.9,60.9z"/>
	<path class="st2" d="M332.9,60.9L332.9,60.9c-1,0-1.7-0.5-1.7-1.1v-3.4c0-0.6,0.8-1.1,1.7-1.1l0,0c1,0,1.7,0.5,1.7,1.1v3.4
		C334.7,60.4,333.9,60.9,332.9,60.9z"/>
	<path class="st5" d="M401.4,157.4H230.8c-2.4,0-4.3-1.9-4.3-4.3v0c0-2.4,1.9-4.3,4.3-4.3h170.6c2.4,0,4.3,1.9,4.3,4.3v0
		C405.7,155.5,403.8,157.4,401.4,157.4z"/>
	<rect x="336.2" y="125.7" class="st3" width="7.8" height="23"/>
	<rect x="294.3" y="130.9" class="st1" width="41.9" height="17.8"/>
	<circle class="st6" cx="328" cy="133" r="0.6"/>
	<path class="st7" d="M314.9,152.8v-21.3c0-1.1,0.9-2,2-2h13.9c1.1,0,2,0.9,2,2v21.3c0,1.1-0.9,2-2,2h-13.9
		C315.8,154.7,314.9,153.9,314.9,152.8z"/>
	
		<linearGradient id="SVGID_1_" gradientUnits="userSpaceOnUse" x1="256.199" y1="374.5295" x2="256.199" y2="395.5244" gradientTransform="matrix(-1 0 0 1 579.935 -242)">
		<stop  offset="0" style="stop-color:#FFCC4C"/>
		<stop  offset="1" style="stop-color:#FEBF4D"/>
	</linearGradient>
	<path class="st8" d="M316.2,151.6v-17.1c0-1.1,0.9-2,2-2h11.1c1.1,0,2,0.9,2,2v17.1c0,1.1-0.9,2-2,2h-11.1
		C317.1,153.6,316.2,152.7,316.2,151.6z"/>
	<circle class="st9" cx="329.2" cy="132.4" r="3.1"/>
	<circle class="st9" cx="325.9" cy="131.5" r="2.2"/>
	<circle class="st9" cx="322.6" cy="132.4" r="2.2"/>
	<circle class="st9" cx="318" cy="132" r="2.6"/>
	<circle class="st10" cx="322.6" cy="131.6" r="2.2"/>
	<circle class="st10" cx="320.6" cy="130.6" r="1.1"/>
	<path class="st10" d="M326.4,132.8c0.5,1.1,1.6,1.9,2.8,1.9c1.7,0,3.1-1.4,3.1-3.1c0-0.5-0.1-0.9-0.3-1.3h-4c0,0.1,0,0.3,0,0.4
		C328.1,131.7,327.3,132.5,326.4,132.8z"/>
	<path class="st10" d="M326.4,130.2h-2.7c0,0.1,0,0.3,0,0.4c0,1.2,1,2.2,2.2,2.2c0.2,0,0.3,0,0.5-0.1c-0.2-0.4-0.3-0.8-0.3-1.2
		C326.1,131.1,326.2,130.6,326.4,130.2z"/>
	<path class="st10" d="M326.1,131.5c0,0.4,0.1,0.9,0.3,1.2c1-0.2,1.7-1.1,1.7-2.1c0-0.1,0-0.3,0-0.4h-1.6
		C326.2,130.6,326.1,131.1,326.1,131.5z"/>
	<path class="st10" d="M315.3,131.1c0,1.5,1.2,2.6,2.6,2.6c1.5,0,2.6-1.2,2.6-2.6c0-0.3,0-0.6-0.1-0.9h-5
		C315.4,130.5,315.3,130.8,315.3,131.1z"/>
	<path class="st10" d="M315,130.3C315.1,130.3,315.1,130.3,315,130.3C315,130.3,315,130.3,315,130.3L315,130.3z"/>
	<path class="st10" d="M315.5,130.2c0.1-0.2,1.1-1.4,2.4-1.4h5.2c0.9,0,1.5,0,1.5,0h5.2c0.9,0,1.7,0.7,2.1,1.2
		c0.1,0.1,0.1,0.2,0.2,0.3h-4c-0.1-0.5-0.3-0.9-0.6-1.2c-0.4,0.3-0.7,0.7-1,1.2L315.5,130.2C315.5,130.2,315.5,130.2,315.5,130.2z"
		/>
	<path class="st10" d="M327.4,129c-0.4,0.3-0.7,0.7-1,1.2h1.6C327.9,129.8,327.7,129.4,327.4,129z"/>
	<path class="st7" d="M309.5,136.8v0.1l0,0v9.1l0,0v0.1c0,0.1,0,0.2,0,0.3c0.2,1.2,1,2.1,2,2.1h3.4v-2.2h-2.4c-0.6,0-1-0.6-1-1.2
		v-7.2c0-0.7,0.4-1.2,1-1.2h2.4v-2.1h-3.4c-1,0-1.8,0.8-2,1.9C309.5,136.5,309.5,136.7,309.5,136.8z"/>
	<path class="st11" d="M327.4,149.5v-12.5c0-0.6,0.4-1,1-1l0,0c0.6,0,1,0.4,1,1v12.5c0,0.6-0.4,1-1,1l0,0
		C327.8,150.5,327.4,150,327.4,149.5z"/>
	<path class="st11" d="M322.7,149.5v-12.5c0-0.6,0.4-1,1-1l0,0c0.6,0,1,0.4,1,1v12.5c0,0.6-0.4,1-1,1l0,0
		C323.1,150.5,322.7,150,322.7,149.5z"/>
	<path class="st11" d="M318.1,149.5v-12.5c0-0.6,0.4-1,1-1l0,0c0.6,0,1,0.4,1,1v12.5c0,0.6-0.4,1-1,1l0,0
		C318.5,150.5,318.1,150,318.1,149.5z"/>
	<path class="st3" d="M286.5,145.2l23.1,2.5c2.7,0.3,5.3-0.8,6.9-2.8c1.4-1.7,0.3-4.2-1.8-4.5l-27.3-3L286.5,145.2z"/>
	<rect x="286.5" y="125.9" class="st3" width="7.8" height="19.2"/>
	<path class="st12" d="M321.3,70"/>
	<path class="st2" d="M301.4,47.2l-7.9,1.7c-0.5,0.1-1-0.2-1.1-0.7l0,0c-0.1-0.5,0.2-1,0.7-1.1l7.9-1.7c0.5-0.1,1,0.2,1.1,0.7l0,0
		C302.2,46.6,301.9,47.1,301.4,47.2z"/>
	<path class="st2" d="M328.8,47.2l7.9,1.7c0.5,0.1,1-0.2,1.1-0.7l0,0c0.1-0.5-0.2-1-0.7-1.1l-7.9-1.7c-0.5-0.1-1,0.2-1.1,0.7l0,0
		C328,46.6,328.3,47.1,328.8,47.2z"/>
	<path class="st12" d="M311.3,70c0.9,1.2,2.3,1.9,3.9,1.9c1.6,0,3-0.8,3.9-1.9"/>
</g>
<g>
	<path class="st0" d="M88.7,103.6c-15.8,0-28.8,9.9-28.8,22.3h57.5C117.5,113.5,104.5,103.6,88.7,103.6z"/>
	<path class="st1" d="M109.7,124.9c0-11.8-9.3-21.5-21-21.5c-11.6,0-21,9.5-21,21.5v6h41.9V124.9z"/>
	<path class="st2" d="M94.2,52.2V25.7c0-8.6,7-15.6,15.6-15.6l0,0c8.6,0,15.6,7,15.6,15.6V52c0,8.6-7,15.6-15.6,15.6l0,0
		C101.3,67.8,94.2,60.8,94.2,52.2z"/>
	<path class="st2" d="M51.8,52.2V25.7c0-8.6,7-15.6,15.6-15.6l0,0c8.6,0,15.6,7,15.6,15.6V52c0,8.6-7,15.6-15.6,15.6l0,0
		C58.8,67.8,51.8,60.8,51.8,52.2z"/>
	<path class="st3" d="M88.7,113.9L88.7,113.9c-3.8,0-6.7-3-6.7-6.7V94.7c0-3.8,3-6.7,6.7-6.7l0,0c3.8,0,6.7,3,6.7,6.7v12.6
		C95.4,110.9,92.5,113.9,88.7,113.9z"/>
	<path class="st4" d="M88.7,87.8L88.7,87.8c-3.8,0-6.7,3-6.7,6.7v5.5c2.1,0.6,4.4,0.8,6.7,0.8l0,0c2.3,0,4.6-0.4,6.7-0.8v-5.5
		C95.4,90.9,92.5,87.8,88.7,87.8z"/>
	<path class="st3" d="M88.7,98.5L88.7,98.5c-15.8,0-28.8-13-28.8-28.8V32.4c0-15.8,13-28.8,28.8-28.8l0,0c15.8,0,28.8,13,28.8,28.8
		v37.3C117.5,85.5,104.5,98.5,88.7,98.5z"/>
	<path class="st2" d="M102.8,42.9H74.6c-9.5,0-17.3-7.8-17.3-17.3v-8.2C57.3,7.8,65.1,0,74.6,0h28.2c9.5,0,17.3,7.8,17.3,17.3v8.2
		C120.2,35,112.3,42.9,102.8,42.9z"/>
	<path class="st2" d="M72.3,60.9L72.3,60.9c-1,0-1.7-0.6-1.7-1.4v-4.4c0-0.8,0.8-1.4,1.7-1.4l0,0c1,0,1.7,0.6,1.7,1.4v4.4
		C73.9,60.3,73.3,60.9,72.3,60.9z"/>
	<path class="st2" d="M106.4,60.9L106.4,60.9c-1,0-1.7-0.6-1.7-1.4v-4.4c0-0.8,0.8-1.4,1.7-1.4l0,0c1,0,1.7,0.6,1.7,1.4v4.4
		C108.2,60.3,107.4,60.9,106.4,60.9z"/>
	<path class="st5" d="M174.9,157.4H4.3c-2.4,0-4.3-1.9-4.3-4.3v0c0-2.4,1.9-4.3,4.3-4.3h170.6c2.4,0,4.3,1.9,4.3,4.3v0
		C179.2,155.5,177.3,157.4,174.9,157.4z"/>
	<rect x="109.7" y="125.7" class="st3" width="7.8" height="23"/>
	<rect x="67.8" y="130.9" class="st1" width="41.9" height="17.8"/>
	<path class="st7" d="M89.1,152.8v-21.3c0-1.1,0.9-2,2-2h13.9c1.1,0,2,0.9,2,2v21.3c0,1.1-0.9,2-2,2H91.1
		C90,154.7,89.1,153.9,89.1,152.8z"/>
	
		<linearGradient id="SVGID_2_" gradientUnits="userSpaceOnUse" x1="481.72" y1="393.0444" x2="481.72" y2="395.5883" gradientTransform="matrix(-1 0 0 1 579.935 -242)">
		<stop  offset="0" style="stop-color:#FFCC4C"/>
		<stop  offset="1" style="stop-color:#FEBF4D"/>
	</linearGradient>
	<path class="st13" d="M105.8,151v2.3c0,0.1-0.9,0.3-2,0.3H92.7c-1.1,0-2-0.1-2-0.3V151"/>
	<path class="st10" d="M89.3,130.3C89.3,130.3,89.3,130.3,89.3,130.3C89.3,130.3,89.3,130.3,89.3,130.3L89.3,130.3z"/>
	<path class="st7" d="M83.7,136.8v0.1l0,0v9.1l0,0v0.1c0,0.1,0,0.2,0,0.3c0.2,1.2,1,2.1,2,2.1h3.4v-2.2h-2.4c-0.6,0-1-0.6-1-1.2
		v-7.2c0-0.7,0.4-1.2,1-1.2h2.4v-2.1h-3.4c-1,0-1.8,0.8-2,1.9C83.8,136.5,83.7,136.7,83.7,136.8z"/>
	<path class="st11" d="M101.6,149.5v-12.5c0-0.6,0.4-1,1-1l0,0c0.6,0,1,0.4,1,1v12.5c0,0.6-0.4,1-1,1l0,0
		C102.1,150.5,101.6,150,101.6,149.5z"/>
	<path class="st11" d="M96.9,149.5v-12.5c0-0.6,0.4-1,1-1l0,0c0.6,0,1,0.4,1,1v12.5c0,0.6-0.4,1-1,1l0,0
		C97.4,150.5,96.9,150,96.9,149.5z"/>
	<path class="st11" d="M92.3,149.5v-12.5c0-0.6,0.4-1,1-1l0,0c0.6,0,1,0.4,1,1v12.5c0,0.6-0.4,1-1,1l0,0
		C92.8,150.5,92.3,150,92.3,149.5z"/>
	<rect x="60" y="125.9" class="st3" width="7.8" height="19.2"/>
	<path class="st12" d="M94.8,70"/>
	<path class="st12" d="M84.8,70c0.9,1.2,2.3,1.9,3.9,1.9s3-0.8,3.9-1.9"/>
	<path class="st3" d="M60,145.2l22.4,6.2c2.6,0.7,5.3,0,7.3-1.7c1.6-1.4,1-4.1-1.1-4.7l-26.5-7.3L60,145.2z"/>
</g>
<path class="st0" d="M-152.7,103.6c-15.8,0-28.8,9.9-28.8,22.3h57.5C-124,113.5-136.9,103.6-152.7,103.6z"/>
<path class="st1" d="M-131.8,124.9c0-11.8-9.3-21.5-21-21.5c-11.6,0-21,9.5-21,21.5v6h41.9V124.9z"/>
<path class="st2" d="M-147.2,52.2V25.7c0-8.6,7-15.6,15.6-15.6l0,0c8.6,0,15.6,7,15.6,15.6V52c0,8.6-7,15.6-15.6,15.6l0,0
	C-140.2,67.8-147.2,60.8-147.2,52.2z"/>
<path class="st2" d="M-189.7,52.2V25.7c0-8.6,7-15.6,15.6-15.6l0,0c8.6,0,15.6,7,15.6,15.6V52c0,8.6-7,15.6-15.6,15.6l0,0
	C-182.6,67.8-189.7,60.8-189.7,52.2z"/>
<path class="st3" d="M-152.7,113.9L-152.7,113.9c-3.8,0-6.7-3-6.7-6.7V94.7c0-3.8,3-6.7,6.7-6.7l0,0c3.8,0,6.7,3,6.7,6.7v12.6
	C-146.1,110.9-148.9,113.9-152.7,113.9z"/>
<path class="st4" d="M-152.7,87.8L-152.7,87.8c-3.8,0-6.7,3-6.7,6.7v5.5c2.1,0.6,4.4,0.8,6.7,0.8l0,0c2.3,0,4.6-0.4,6.7-0.8v-5.5
	C-146.1,90.9-148.9,87.8-152.7,87.8z"/>
<path class="st3" d="M-152.7,98.5L-152.7,98.5c-15.8,0-28.8-13-28.8-28.8V32.4c0-15.8,13-28.8,28.8-28.8l0,0
	c15.8,0,28.8,13,28.8,28.8v37.3C-124,85.5-136.9,98.5-152.7,98.5z"/>
<path class="st2" d="M-138.6,42.9h-28.2c-9.5,0-17.3-7.8-17.3-17.3v-8.2c0-9.5,7.8-17.3,17.3-17.3h28.2c9.5,0,17.3,7.8,17.3,17.3
	v8.2C-121.3,35-129.1,42.9-138.6,42.9z"/>
<path class="st5" d="M-66.5,157.4h-170.6c-2.4,0-4.3-1.9-4.3-4.3v0c0-2.4,1.9-4.3,4.3-4.3h170.6c2.4,0,4.3,1.9,4.3,4.3v0
	C-62.2,155.5-64.2,157.4-66.5,157.4z"/>
<rect x="-131.8" y="125.7" class="st3" width="7.8" height="23"/>
<rect x="-173.7" y="130.9" class="st1" width="41.9" height="17.8"/>
<path class="st10" d="M-152.2,130.3C-152.2,130.3-152.2,130.3-152.2,130.3C-152.2,130.3-152.2,130.3-152.2,130.3L-152.2,130.3z"/>
<path class="st7" d="M-152.3,152.8v-21.3c0-1.1,0.9-2,2-2h13.9c1.1,0,2,0.9,2,2v21.3c0,1.1-0.9,2-2,2h-13.9
	C-151.5,154.7-152.3,153.9-152.3,152.8z"/>
<path class="st7" d="M-157.7,136.8v0.1l0,0v9.1l0,0v0.1c0,0.1,0,0.2,0,0.3c0.2,1.2,1,2.1,2,2.1h3.4v-2.2h-2.4c-0.6,0-1-0.6-1-1.2
	v-7.2c0-0.7,0.4-1.2,1-1.2h2.4v-2.1h-3.4c-1,0-1.8,0.8-2,1.9C-157.7,136.5-157.7,136.7-157.7,136.8z"/>
<linearGradient id="SVGID_3_" gradientUnits="userSpaceOnUse" x1="723.314" y1="374.5295" x2="723.314" y2="395.5244" gradientTransform="matrix(-1 0 0 1 579.935 -242)">
	<stop  offset="0" style="stop-color:#FFCC4C"/>
	<stop  offset="1" style="stop-color:#FEBF4D"/>
</linearGradient>
<path class="st14" d="M-150.9,151.6v-17.1c0-1.1,0.9-2,2-2h11.1c1.1,0,2,0.9,2,2v17.1c0,1.1-0.9,2-2,2h-11.1
	C-150,153.6-150.9,152.7-150.9,151.6z"/>
<path class="st11" d="M-139.8,149.5v-12.5c0-0.6,0.4-1,1-1l0,0c0.6,0,1,0.4,1,1v12.5c0,0.6-0.4,1-1,1l0,0
	C-139.4,150.5-139.8,150-139.8,149.5z"/>
<path class="st11" d="M-144.5,149.5v-12.5c0-0.6,0.4-1,1-1l0,0c0.6,0,1,0.4,1,1v12.5c0,0.6-0.4,1-1,1l0,0
	C-144.1,150.5-144.5,150-144.5,149.5z"/>
<path class="st11" d="M-149.1,149.5v-12.5c0-0.6,0.4-1,1-1l0,0c0.6,0,1,0.4,1,1v12.5c0,0.6-0.4,1-1,1l0,0
	C-148.7,150.5-149.1,150-149.1,149.5z"/>
<g>
	<path class="st7" d="M-218.2,152.8v-21.3c0-1.1,0.9-2,2-2h13.9c1.1,0,2,0.9,2,2v21.3c0,1.1-0.9,2-2,2h-13.9
		C-217.3,154.7-218.2,153.9-218.2,152.8z"/>
	<path class="st7" d="M-223.6,136.8v0.1l0,0v9.1l0,0v0.1c0,0.1,0,0.2,0,0.3c0.2,1.2,1,2.1,2,2.1h3.4v-2.2h-2.4c-0.6,0-1-0.6-1-1.2
		v-7.2c0-0.7,0.4-1.2,1-1.2h2.4v-2.1h-3.4c-1,0-1.8,0.8-2,1.9C-223.5,136.5-223.6,136.7-223.6,136.8z"/>
	<path class="st11" d="M-205.7,149.5v-12.5c0-0.6,0.4-1,1-1l0,0c0.6,0,1,0.4,1,1v12.5c0,0.6-0.4,1-1,1l0,0
		C-205.3,150.5-205.7,150-205.7,149.5z"/>
	<path class="st11" d="M-210.4,149.5v-12.5c0-0.6,0.4-1,1-1l0,0c0.6,0,1,0.4,1,1v12.5c0,0.6-0.4,1-1,1l0,0
		C-210,150.5-210.4,150-210.4,149.5z"/>
	<path class="st11" d="M-215,149.5v-12.5c0-0.6,0.4-1,1-1l0,0c0.6,0,1,0.4,1,1v12.5c0,0.6-0.4,1-1,1l0,0
		C-214.5,150.5-215,150-215,149.5z"/>
</g>
<g>
	<path class="st7" d="M-111.8,152.8v-21.3c0-1.1,0.9-2,2-2h13.9c1.1,0,2,0.9,2,2v21.3c0,1.1-0.9,2-2,2h-13.9
		C-110.9,154.7-111.8,153.9-111.8,152.8z"/>
	<path class="st7" d="M-117.2,136.8v0.1l0,0v9.1l0,0v0.1c0,0.1,0,0.2,0,0.3c0.2,1.2,1,2.1,2,2.1h3.4v-2.2h-2.4c-0.6,0-1-0.6-1-1.2
		v-7.2c0-0.7,0.4-1.2,1-1.2h2.4v-2.1h-3.4c-1,0-1.8,0.8-2,1.9C-117.1,136.5-117.2,136.7-117.2,136.8z"/>
	<path class="st11" d="M-99.3,149.5v-12.5c0-0.6,0.4-1,1-1l0,0c0.6,0,1,0.4,1,1v12.5c0,0.6-0.4,1-1,1l0,0
		C-98.8,150.5-99.3,150-99.3,149.5z"/>
	<path class="st11" d="M-104,149.5v-12.5c0-0.6,0.4-1,1-1l0,0c0.6,0,1,0.4,1,1v12.5c0,0.6-0.4,1-1,1l0,0
		C-103.5,150.5-104,150-104,149.5z"/>
	<path class="st11" d="M-108.6,149.5v-12.5c0-0.6,0.4-1,1-1l0,0c0.6,0,1,0.4,1,1v12.5c0,0.6-0.4,1-1,1l0,0
		C-108.1,150.5-108.6,150-108.6,149.5z"/>
</g>
<g>
	<path class="st7" d="M-73.3,152.5h-13.3c-1,0-1.9-0.8-1.9-1.9v-20.3c0-1,0.8-1.9,1.9-1.9h13.3c1,0,1.9,0.8,1.9,1.9v20.3
		C-71.4,151.6-72.2,152.5-73.3,152.5z"/>
	<path class="st7" d="M-66.3,135c-0.2-1-1-1.8-1.9-1.8h-3.2v2h2.3c0.5,0,1,0.5,1,1.2v6.9c0,0.7-0.4,1.2-1,1.2h-2.3v2.1h3.2
		c1,0,1.7-0.9,1.9-2c0-0.1,0-0.2,0-0.3v-0.1l0,0v-8.6l0,0v-0.1C-66.2,135.3-66.3,135.1-66.3,135z"/>
	<path class="st11" d="M-84.2,148.4L-84.2,148.4c-0.5,0-1-0.4-1-1v-12c0-0.5,0.4-1,1-1l0,0c0.5,0,1,0.4,1,1v12
		C-83.3,148-83.7,148.4-84.2,148.4z"/>
	<path class="st11" d="M-79.8,148.4L-79.8,148.4c-0.5,0-1-0.4-1-1v-12c0-0.5,0.4-1,1-1l0,0c0.5,0,1,0.4,1,1v12
		C-78.8,148-79.2,148.4-79.8,148.4z"/>
	<path class="st11" d="M-75.4,148.4L-75.4,148.4c-0.5,0-1-0.4-1-1v-12c0-0.5,0.4-1,1-1l0,0c0.5,0,1,0.4,1,1v12
		C-74.4,148-74.8,148.4-75.4,148.4z"/>
</g>
<rect x="-181.5" y="125.9" class="st3" width="7.8" height="19.2"/>
<path class="st12" d="M-146.6,70"/>
<path class="st3" d="M-181.5,145.2l22.4,6.2c2.6,0.7,5.3,0,7.3-1.7c1.6-1.4,1-4.1-1.1-4.7l-26.5-7.3L-181.5,145.2z"/>
<path class="st2" d="M-171.4,56.4v2.8c0,0.9,0.8,1.7,1.7,1.7s1.7-0.8,1.7-1.7v-3.6L-171.4,56.4z"/>
<path class="st2" d="M-134,56.4v2.8c0,0.9-0.8,1.7-1.7,1.7s-1.7-0.8-1.7-1.7v-3.6L-134,56.4z"/>
<g>
	<path class="st15" d="M-156.9,75.8c1-1,2.5-1.6,4-1.6c1.6,0,3,0.6,4,1.6c1-0.9,1.7-2.2,1.9-3.6h-11.9
		C-158.6,73.6-157.9,74.9-156.9,75.8z"/>
	<path class="st16" d="M-156.9,75.8c1,1,2.5,1.6,4,1.6c1.6,0,3-0.6,4-1.6c-1-1-2.5-1.6-4-1.6C-154.4,74.3-155.9,74.9-156.9,75.8z"/>
	<path class="st6" d="M-146.9,71.3h-11.9c0,0.1,0,0.3,0,0.4c0,0.1,0,0.4,0.1,0.5h11.9c0-0.1,0.1-0.4,0.1-0.5
		C-146.9,71.6-146.9,71.4-146.9,71.3z"/>
</g>
<g>
	<line class="st17" x1="-206.7" y1="15.5" x2="-206.7" y2="17.7"/>
	<line class="st17" x1="-202.6" y1="19.5" x2="-204.9" y2="19.5"/>
	<line class="st17" x1="-206.7" y1="23.6" x2="-206.7" y2="21.3"/>
	<line class="st17" x1="-210.7" y1="19.6" x2="-208.4" y2="19.6"/>
	<line class="st17" x1="-203.8" y1="16.7" x2="-205.4" y2="18.3"/>
	<line class="st17" x1="-203.8" y1="22.4" x2="-205.4" y2="20.8"/>
	<line class="st17" x1="-209.5" y1="22.4" x2="-207.9" y2="20.9"/>
	<line class="st17" x1="-209.5" y1="16.8" x2="-207.9" y2="18.3"/>
</g>
<g>
	<line class="st17" x1="-113.3" y1="-1.2" x2="-113.3" y2="0.2"/>
	<line class="st17" x1="-110.7" y1="1.4" x2="-112.2" y2="1.4"/>
	<line class="st17" x1="-113.3" y1="4.1" x2="-113.3" y2="2.6"/>
	<line class="st17" x1="-116" y1="1.4" x2="-114.5" y2="1.4"/>
	<line class="st17" x1="-111.5" y1="-0.4" x2="-112.5" y2="0.6"/>
	<line class="st17" x1="-111.5" y1="3.3" x2="-112.5" y2="2.2"/>
	<line class="st17" x1="-115.2" y1="3.3" x2="-114.2" y2="2.3"/>
	<line class="st17" x1="-115.2" y1="-0.4" x2="-114.2" y2="0.6"/>
</g>
<circle class="st18" cx="-199.3" cy="31.8" r="1.3"/>
<circle class="st18" cx="-194.5" cy="3.1" r="2.2"/>
<circle class="st18" cx="-108.8" cy="13.6" r="1.9"/>
</svg>
