<?xml version="1.0" encoding="utf-8"?>
<!-- Generator: Adobe Illustrator 22.0.1, SVG Export Plug-In . SVG Version: 6.00 Build 0)  -->
<svg version="1.1" id="Layer_1" xmlns="http://www.w3.org/2000/svg" xmlns:xlink="http://www.w3.org/1999/xlink" x="0px" y="0px"
	 viewBox="0 0 179.2 158.6" style="enable-background:new 0 0 179.2 158.6;" xml:space="preserve">
<style type="text/css">
	.st0{fill:#55A5D3;}
	.st1{fill:#2479B4;}
	.st2{fill:#392915;}
	.st3{fill:#F0BAA5;}
	.st4{opacity:0.5;fill:#D28B6B;enable-background:new    ;}
	.st5{fill:#6B3815;}
	.st6{fill:#FFFFFF;}
	.st7{opacity:0.5;fill:#F8FAFB;enable-background:new    ;}
	.st8{fill:url(#SVGID_1_);}
	.st9{fill:#DDDDDD;}
	.st10{fill:#F7F8F8;}
	.st11{opacity:0.35;fill:#F4F4F5;enable-background:new    ;}
	.st12{fill:none;stroke:#392915;stroke-linecap:round;stroke-miterlimit:10;}
	.st13{fill:url(#SVGID_2_);}
	.st14{fill:#ED947B;}
	.st15{opacity:0.5;fill:#D3725A;enable-background:new    ;}
	.st16{fill:#EDA991;}
	.st17{fill:url(#SVGID_3_);}
	.st18{fill:#8B2828;}
	.st19{fill:#B73231;}
	.st20{fill:none;stroke:#AE832D;stroke-width:0.5;stroke-linecap:round;stroke-miterlimit:10;}
	.st21{fill:none;stroke:#AE832D;stroke-linecap:round;stroke-miterlimit:10;}
	.st22{fill:#E87769;}
</style>
<g>
	<path class="st0" d="M556.7,104.9c-15.8,0-28.8,9.9-28.8,22.3h57.5C585.5,114.8,572.5,104.9,556.7,104.9z"/>
	<path class="st1" d="M577.6,126.2c0-11.8-9.3-21.5-21-21.5c-11.6,0-21,9.5-21,21.5v6h41.9V126.2z"/>
	<path class="st2" d="M562.2,53.4V27c0-8.6,7-15.6,15.6-15.6l0,0c8.6,0,15.6,7,15.6,15.6v26.3c0,8.6-7,15.6-15.6,15.6l0,0
		C569.3,69,562.2,62,562.2,53.4z"/>
	<path class="st2" d="M519.7,53.4V27c0-8.6,7-15.6,15.6-15.6l0,0c8.6,0,15.6,7,15.6,15.6v26.3c0,8.6-7,15.6-15.6,15.6l0,0
		C526.8,69,519.7,62,519.7,53.4z"/>
	<path class="st3" d="M556.7,115.1L556.7,115.1c-3.8,0-6.7-3-6.7-6.7V95.9c0-3.8,3-6.7,6.7-6.7l0,0c3.8,0,6.7,3,6.7,6.7v12.6
		C563.4,112.1,560.5,115.1,556.7,115.1z"/>
	<path class="st4" d="M556.7,89L556.7,89c-3.8,0-6.7,3-6.7,6.7v5.5c2.1,0.6,4.4,0.8,6.7,0.8l0,0c2.3,0,4.6-0.4,6.7-0.8v-5.5
		C563.4,92.1,560.5,89,556.7,89z"/>
	<path class="st3" d="M556.7,99.7L556.7,99.7c-15.8,0-28.8-13-28.8-28.8V33.6c0-15.8,13-28.8,28.8-28.8l0,0
		c15.8,0,28.8,13,28.8,28.8V71C585.5,86.8,572.5,99.7,556.7,99.7z"/>
	<path class="st2" d="M570.8,44.1h-28.2c-9.5,0-17.3-7.8-17.3-17.3v-8.2c0-9.5,7.8-17.3,17.3-17.3h28.2c9.5,0,17.3,7.8,17.3,17.3
		v8.2C588.1,36.3,580.3,44.1,570.8,44.1z"/>
	<path class="st2" d="M540.3,62.1L540.3,62.1c-1,0-1.7-0.5-1.7-1.1v-3.4c0-0.6,0.8-1.1,1.7-1.1l0,0c1,0,1.7,0.5,1.7,1.1V61
		C541.8,61.7,541.3,62.1,540.3,62.1z"/>
	<path class="st2" d="M574.4,62.1L574.4,62.1c-1,0-1.7-0.5-1.7-1.1v-3.4c0-0.6,0.8-1.1,1.7-1.1l0,0c1,0,1.7,0.5,1.7,1.1V61
		C576.1,61.7,575.4,62.1,574.4,62.1z"/>
	<path class="st5" d="M642.9,158.6H472.3c-2.4,0-4.3-1.9-4.3-4.3v0c0-2.4,1.9-4.3,4.3-4.3h170.6c2.4,0,4.3,1.9,4.3,4.3v0
		C647.2,156.7,645.3,158.6,642.9,158.6z"/>
	<rect x="577.6" y="126.9" class="st3" width="7.8" height="23"/>
	<rect x="535.7" y="132.2" class="st1" width="41.9" height="17.8"/>
	<circle class="st6" cx="569.4" cy="134.2" r="0.6"/>
	<path class="st7" d="M556.4,154v-21.3c0-1.1,0.9-2,2-2h13.9c1.1,0,2,0.9,2,2V154c0,1.1-0.9,2-2,2h-13.9
		C557.2,156,556.4,155.1,556.4,154z"/>
	
		<linearGradient id="SVGID_1_" gradientUnits="userSpaceOnUse" x1="497.6619" y1="375.7693" x2="497.6619" y2="396.7641" gradientTransform="matrix(-1 0 0 1 1062.8608 -242)">
		<stop  offset="0" style="stop-color:#FFCC4C"/>
		<stop  offset="1" style="stop-color:#FEBF4D"/>
	</linearGradient>
	<path class="st8" d="M557.7,152.9v-17.1c0-1.1,0.9-2,2-2h11.1c1.1,0,2,0.9,2,2v17.1c0,1.1-0.9,2-2,2h-11.1
		C558.5,154.8,557.7,153.9,557.7,152.9z"/>
	<circle class="st9" cx="570.7" cy="133.6" r="3.1"/>
	<circle class="st9" cx="567.3" cy="132.7" r="2.2"/>
	<circle class="st9" cx="564.1" cy="133.6" r="2.2"/>
	<circle class="st9" cx="559.4" cy="133.2" r="2.6"/>
	<circle class="st10" cx="564.1" cy="132.8" r="2.2"/>
	<circle class="st10" cx="562.1" cy="131.9" r="1.1"/>
	<path class="st10" d="M567.8,134c0.5,1.1,1.6,1.9,2.8,1.9c1.7,0,3.1-1.4,3.1-3.1c0-0.5-0.1-0.9-0.3-1.3h-4c0,0.1,0,0.3,0,0.4
		C569.5,132.9,568.8,133.8,567.8,134z"/>
	<path class="st10" d="M567.9,131.5h-2.7c0,0.1,0,0.3,0,0.4c0,1.2,1,2.2,2.2,2.2c0.2,0,0.3,0,0.5-0.1c-0.2-0.4-0.3-0.8-0.3-1.2
		C567.6,132.3,567.7,131.9,567.9,131.5z"/>
	<path class="st10" d="M567.6,132.8c0,0.4,0.1,0.9,0.3,1.2c1-0.2,1.7-1.1,1.7-2.1c0-0.1,0-0.3,0-0.4h-1.6
		C567.7,131.9,567.6,132.3,567.6,132.8z"/>
	<path class="st10" d="M556.8,132.3c0,1.5,1.2,2.6,2.6,2.6s2.6-1.2,2.6-2.6c0-0.3,0-0.6-0.1-0.9h-5
		C556.8,131.7,556.8,132,556.8,132.3z"/>
	<path class="st10" d="M556.5,131.5C556.5,131.5,556.5,131.5,556.5,131.5C556.5,131.5,556.5,131.5,556.5,131.5L556.5,131.5z"/>
	<path class="st10" d="M556.9,131.4c0.1-0.2,1.1-1.4,2.4-1.4h5.2c0.9,0,1.5,0,1.5,0h5.2c0.9,0,1.7,0.7,2.1,1.2
		c0.1,0.1,0.1,0.2,0.2,0.3h-4c-0.1-0.5-0.3-0.9-0.6-1.2c-0.4,0.3-0.7,0.7-1,1.2L556.9,131.4C556.9,131.5,556.9,131.4,556.9,131.4z"
		/>
	<path class="st10" d="M568.8,130.3c-0.4,0.3-0.7,0.7-1,1.2h1.6C569.4,131,569.2,130.6,568.8,130.3z"/>
	<path class="st7" d="M551,138.1v0.1l0,0v9.1l0,0v0.1c0,0.1,0,0.2,0,0.3c0.2,1.2,1,2.1,2,2.1h3.4v-2.2H554c-0.6,0-1-0.6-1-1.2v-7.2
		c0-0.7,0.4-1.2,1-1.2h2.4v-2.1H553c-1,0-1.8,0.8-2,1.9C551,137.8,551,137.9,551,138.1z"/>
	<path class="st11" d="M568.8,150.7v-12.5c0-0.6,0.4-1,1-1l0,0c0.6,0,1,0.4,1,1v12.5c0,0.6-0.4,1-1,1l0,0
		C569.3,151.7,568.8,151.3,568.8,150.7z"/>
	<path class="st11" d="M564.1,150.7v-12.5c0-0.6,0.4-1,1-1l0,0c0.6,0,1,0.4,1,1v12.5c0,0.6-0.4,1-1,1l0,0
		C564.6,151.7,564.1,151.3,564.1,150.7z"/>
	<path class="st11" d="M559.5,150.7v-12.5c0-0.6,0.4-1,1-1l0,0c0.6,0,1,0.4,1,1v12.5c0,0.6-0.4,1-1,1l0,0
		C560,151.7,559.5,151.3,559.5,150.7z"/>
	<path class="st3" d="M527.9,146.4l23.1,2.5c2.7,0.3,5.3-0.8,6.9-2.8c1.4-1.7,0.3-4.2-1.8-4.5l-27.3-3L527.9,146.4z"/>
	<rect x="527.9" y="127.1" class="st3" width="7.8" height="19.2"/>
	<path class="st12" d="M562.8,71.2"/>
	<path class="st2" d="M542.8,48.4l-7.9,1.7c-0.5,0.1-1-0.2-1.1-0.7v0c-0.1-0.5,0.2-1,0.7-1.1l7.9-1.7c0.5-0.1,1,0.2,1.1,0.7v0
		C543.6,47.8,543.3,48.3,542.8,48.4z"/>
	<path class="st2" d="M570.3,48.4l7.9,1.7c0.5,0.1,1-0.2,1.1-0.7v0c0.1-0.5-0.2-1-0.7-1.1l-7.9-1.7c-0.5-0.1-1,0.2-1.1,0.7v0
		C569.5,47.8,569.8,48.3,570.3,48.4z"/>
	<path class="st12" d="M552.8,71.2c0.9,1.2,2.3,1.9,3.9,1.9c1.6,0,3-0.8,3.9-1.9"/>
</g>
<g>
	<path class="st0" d="M330.2,104.9c-15.8,0-28.8,9.9-28.8,22.3h57.5C358.9,114.8,346,104.9,330.2,104.9z"/>
	<path class="st1" d="M351.1,126.2c0-11.8-9.3-21.5-21-21.5c-11.6,0-21,9.5-21,21.5v6h41.9V126.2z"/>
	<path class="st2" d="M335.7,53.4V27c0-8.6,7-15.6,15.6-15.6l0,0c8.6,0,15.6,7,15.6,15.6v26.3c0,8.6-7,15.6-15.6,15.6l0,0
		C342.8,69,335.7,62,335.7,53.4z"/>
	<path class="st2" d="M293.2,53.4V27c0-8.6,7-15.6,15.6-15.6l0,0c8.6,0,15.6,7,15.6,15.6v26.3c0,8.6-7,15.6-15.6,15.6l0,0
		C300.3,69,293.2,62,293.2,53.4z"/>
	<path class="st3" d="M330.2,115.1L330.2,115.1c-3.8,0-6.7-3-6.7-6.7V95.9c0-3.8,3-6.7,6.7-6.7l0,0c3.8,0,6.7,3,6.7,6.7v12.6
		C336.9,112.1,334,115.1,330.2,115.1z"/>
	<path class="st4" d="M330.2,89L330.2,89c-3.8,0-6.7,3-6.7,6.7v5.5c2.1,0.6,4.4,0.8,6.7,0.8l0,0c2.3,0,4.6-0.4,6.7-0.8v-5.5
		C336.9,92.1,334,89,330.2,89z"/>
	<path class="st3" d="M330.2,99.7L330.2,99.7c-15.8,0-28.8-13-28.8-28.8V33.6c0-15.8,13-28.8,28.8-28.8l0,0
		c15.8,0,28.8,13,28.8,28.8V71C358.9,86.8,346,99.7,330.2,99.7z"/>
	<path class="st2" d="M344.3,44.1h-28.2c-9.5,0-17.3-7.8-17.3-17.3v-8.2c0-9.5,7.8-17.3,17.3-17.3h28.2c9.5,0,17.3,7.8,17.3,17.3
		v8.2C361.6,36.3,353.8,44.1,344.3,44.1z"/>
	<path class="st2" d="M313.8,62.1L313.8,62.1c-1,0-1.7-0.6-1.7-1.4v-4.4c0-0.8,0.8-1.4,1.7-1.4l0,0c1,0,1.7,0.6,1.7,1.4v4.4
		C315.3,61.5,314.8,62.1,313.8,62.1z"/>
	<path class="st2" d="M347.9,62.1L347.9,62.1c-1,0-1.7-0.6-1.7-1.4v-4.4c0-0.8,0.8-1.4,1.7-1.4l0,0c1,0,1.7,0.6,1.7,1.4v4.4
		C349.6,61.5,348.9,62.1,347.9,62.1z"/>
	<path class="st5" d="M416.4,158.6H245.8c-2.4,0-4.3-1.9-4.3-4.3v0c0-2.4,1.9-4.3,4.3-4.3h170.6c2.4,0,4.3,1.9,4.3,4.3v0
		C420.7,156.7,418.8,158.6,416.4,158.6z"/>
	<rect x="351.1" y="126.9" class="st3" width="7.8" height="23"/>
	<rect x="309.2" y="132.2" class="st1" width="41.9" height="17.8"/>
	<path class="st7" d="M330.6,154v-21.3c0-1.1,0.9-2,2-2h13.9c1.1,0,2,0.9,2,2V154c0,1.1-0.9,2-2,2h-13.9
		C331.5,156,330.6,155.1,330.6,154z"/>
	
		<linearGradient id="SVGID_2_" gradientUnits="userSpaceOnUse" x1="723.1829" y1="394.2841" x2="723.1829" y2="396.828" gradientTransform="matrix(-1 0 0 1 1062.8608 -242)">
		<stop  offset="0" style="stop-color:#FFCC4C"/>
		<stop  offset="1" style="stop-color:#FEBF4D"/>
	</linearGradient>
	<path class="st13" d="M347.2,152.3v2.3c0,0.1-0.9,0.3-2,0.3h-11.1c-1.1,0-2-0.1-2-0.3v-2.3"/>
	<path class="st10" d="M330.7,131.5C330.8,131.5,330.8,131.5,330.7,131.5C330.7,131.5,330.7,131.5,330.7,131.5L330.7,131.5z"/>
	<path class="st7" d="M325.2,138.1v0.1l0,0v9.1l0,0v0.1c0,0.1,0,0.2,0,0.3c0.2,1.2,1,2.1,2,2.1h3.4v-2.2h-2.4c-0.6,0-1-0.6-1-1.2
		v-7.2c0-0.7,0.4-1.2,1-1.2h2.4v-2.1h-3.4c-1,0-1.8,0.8-2,1.9C325.2,137.8,325.2,137.9,325.2,138.1z"/>
	<path class="st11" d="M343.1,150.7v-12.5c0-0.6,0.4-1,1-1l0,0c0.6,0,1,0.4,1,1v12.5c0,0.6-0.4,1-1,1l0,0
		C343.5,151.7,343.1,151.3,343.1,150.7z"/>
	<path class="st11" d="M338.4,150.7v-12.5c0-0.6,0.4-1,1-1l0,0c0.6,0,1,0.4,1,1v12.5c0,0.6-0.4,1-1,1l0,0
		C338.8,151.7,338.4,151.3,338.4,150.7z"/>
	<path class="st11" d="M333.8,150.7v-12.5c0-0.6,0.4-1,1-1l0,0c0.6,0,1,0.4,1,1v12.5c0,0.6-0.4,1-1,1l0,0
		C334.2,151.7,333.8,151.3,333.8,150.7z"/>
	<rect x="301.4" y="127.1" class="st3" width="7.8" height="19.2"/>
	<path class="st12" d="M336.3,71.2"/>
	<path class="st12" d="M326.3,71.2c0.9,1.2,2.3,1.9,3.9,1.9c1.6,0,3-0.8,3.9-1.9"/>
	<path class="st3" d="M301.4,146.4l22.4,6.2c2.6,0.7,5.3,0,7.3-1.7c1.6-1.4,1-4.1-1.1-4.7l-26.5-7.3L301.4,146.4z"/>
</g>
<path class="st0" d="M88.7,104.9c-15.8,0-28.8,9.9-28.8,22.3h57.5C117.5,114.8,104.5,104.9,88.7,104.9z"/>
<path class="st1" d="M109.7,126.2c0-11.8-9.3-21.5-21-21.5c-11.6,0-21,9.5-21,21.5v6h41.9V126.2z"/>
<path class="st2" d="M94.2,53.4V27c0-8.6,7-15.6,15.6-15.6l0,0c8.6,0,15.6,7,15.6,15.6v26.3c0,8.6-7,15.6-15.6,15.6l0,0
	C101.3,69,94.2,62,94.2,53.4z"/>
<path class="st2" d="M51.8,53.4V27c0-8.6,7-15.6,15.6-15.6l0,0C76,11.3,83,18.4,83,27v26.3c0,8.6-7,15.6-15.6,15.6l0,0
	C58.8,69,51.8,62,51.8,53.4z"/>
<path class="st14" d="M88.7,115.1L88.7,115.1c-3.8,0-6.7-3-6.7-6.7V95.9c0-3.8,3-6.7,6.7-6.7l0,0c3.8,0,6.7,3,6.7,6.7v12.6
	C95.4,112.1,92.5,115.1,88.7,115.1z"/>
<path class="st15" d="M88.7,89L88.7,89c-3.8,0-6.7,3-6.7,6.7v5.5c2.1,0.6,4.4,0.8,6.7,0.8l0,0c2.3,0,4.6-0.4,6.7-0.8v-5.5
	C95.4,92.1,92.5,89,88.7,89z"/>
<path class="st14" d="M88.7,99.7L88.7,99.7C72.9,99.7,60,86.8,60,71V33.6c0-15.8,13-28.8,28.8-28.8l0,0c15.8,0,28.8,13,28.8,28.8V71
	C117.5,86.8,104.5,99.7,88.7,99.7z"/>
<path class="st2" d="M102.8,44.1H74.6c-9.5,0-17.3-7.8-17.3-17.3v-8.2c0-9.5,7.8-17.3,17.3-17.3h28.2c9.5,0,17.3,7.8,17.3,17.3v8.2
	C120.2,36.3,112.3,44.1,102.8,44.1z"/>
<path class="st5" d="M174.9,158.6H4.3c-2.4,0-4.3-1.9-4.3-4.3v0c0-2.4,1.9-4.3,4.3-4.3h170.6c2.4,0,4.3,1.9,4.3,4.3v0
	C179.2,156.7,177.3,158.6,174.9,158.6z"/>
<rect x="109.7" y="126.9" class="st16" width="7.8" height="23"/>
<rect x="67.8" y="132.2" class="st1" width="41.9" height="17.8"/>
<path class="st10" d="M89.3,131.5C89.3,131.5,89.3,131.5,89.3,131.5C89.3,131.5,89.3,131.5,89.3,131.5L89.3,131.5z"/>
<path class="st7" d="M89.1,154v-21.3c0-1.1,0.9-2,2-2h13.9c1.1,0,2,0.9,2,2V154c0,1.1-0.9,2-2,2H91.1C90,156,89.1,155.1,89.1,154z"
	/>
<path class="st7" d="M83.7,138.1v0.1l0,0v9.1l0,0v0.1c0,0.1,0,0.2,0,0.3c0.2,1.2,1,2.1,2,2.1h3.4v-2.2h-2.4c-0.6,0-1-0.6-1-1.2v-7.2
	c0-0.7,0.4-1.2,1-1.2h2.4v-2.1h-3.4c-1,0-1.8,0.8-2,1.9C83.8,137.8,83.7,137.9,83.7,138.1z"/>
<linearGradient id="SVGID_3_" gradientUnits="userSpaceOnUse" x1="964.7769" y1="375.7693" x2="964.7769" y2="396.7641" gradientTransform="matrix(-1 0 0 1 1062.8608 -242)">
	<stop  offset="0" style="stop-color:#FFCC4C"/>
	<stop  offset="1" style="stop-color:#FEBF4D"/>
</linearGradient>
<path class="st17" d="M90.5,152.9v-17.1c0-1.1,0.9-2,2-2h11.1c1.1,0,2,0.9,2,2v17.1c0,1.1-0.9,2-2,2H92.5
	C91.4,154.8,90.5,153.9,90.5,152.9z"/>
<path class="st11" d="M101.6,150.7v-12.5c0-0.6,0.4-1,1-1l0,0c0.6,0,1,0.4,1,1v12.5c0,0.6-0.4,1-1,1l0,0
	C102.1,151.7,101.6,151.3,101.6,150.7z"/>
<path class="st11" d="M96.9,150.7v-12.5c0-0.6,0.4-1,1-1l0,0c0.6,0,1,0.4,1,1v12.5c0,0.6-0.4,1-1,1l0,0
	C97.4,151.7,96.9,151.3,96.9,150.7z"/>
<path class="st11" d="M92.3,150.7v-12.5c0-0.6,0.4-1,1-1l0,0c0.6,0,1,0.4,1,1v12.5c0,0.6-0.4,1-1,1l0,0
	C92.8,151.7,92.3,151.3,92.3,150.7z"/>
<g>
	<path class="st7" d="M23.3,154v-21.3c0-1.1,0.9-2,2-2h13.9c1.1,0,2,0.9,2,2V154c0,1.1-0.9,2-2,2H25.3C24.2,156,23.3,155.1,23.3,154
		z"/>
	<path class="st7" d="M17.9,138.1v0.1l0,0v9.1l0,0v0.1c0,0.1,0,0.2,0,0.3c0.2,1.2,1,2.1,2,2.1h3.4v-2.2h-2.4c-0.6,0-1-0.6-1-1.2
		v-7.2c0-0.7,0.4-1.2,1-1.2h2.4v-2.1h-3.4c-1,0-1.8,0.8-2,1.9C17.9,137.8,17.9,137.9,17.9,138.1z"/>
	<path class="st11" d="M35.8,150.7v-12.5c0-0.6,0.4-1,1-1l0,0c0.6,0,1,0.4,1,1v12.5c0,0.6-0.4,1-1,1l0,0
		C36.2,151.7,35.8,151.3,35.8,150.7z"/>
	<path class="st11" d="M31.1,150.7v-12.5c0-0.6,0.4-1,1-1l0,0c0.6,0,1,0.4,1,1v12.5c0,0.6-0.4,1-1,1l0,0
		C31.5,151.7,31.1,151.3,31.1,150.7z"/>
	<path class="st11" d="M26.5,150.7v-12.5c0-0.6,0.4-1,1-1l0,0c0.6,0,1,0.4,1,1v12.5c0,0.6-0.4,1-1,1l0,0
		C26.9,151.7,26.5,151.3,26.5,150.7z"/>
</g>
<g>
	<path class="st7" d="M129.7,154v-21.3c0-1.1,0.9-2,2-2h13.9c1.1,0,2,0.9,2,2V154c0,1.1-0.9,2-2,2h-13.9
		C130.6,156,129.7,155.1,129.7,154z"/>
	<path class="st7" d="M124.3,138.1v0.1l0,0v9.1l0,0v0.1c0,0.1,0,0.2,0,0.3c0.2,1.2,1,2.1,2,2.1h3.4v-2.2h-2.4c-0.6,0-1-0.6-1-1.2
		v-7.2c0-0.7,0.4-1.2,1-1.2h2.4v-2.1h-3.4c-1,0-1.8,0.8-2,1.9C124.3,137.8,124.3,137.9,124.3,138.1z"/>
	<path class="st11" d="M142.2,150.7v-12.5c0-0.6,0.4-1,1-1l0,0c0.6,0,1,0.4,1,1v12.5c0,0.6-0.4,1-1,1l0,0
		C142.6,151.7,142.2,151.3,142.2,150.7z"/>
	<path class="st11" d="M137.5,150.7v-12.5c0-0.6,0.4-1,1-1l0,0c0.6,0,1,0.4,1,1v12.5c0,0.6-0.4,1-1,1l0,0
		C137.9,151.7,137.5,151.3,137.5,150.7z"/>
	<path class="st11" d="M132.9,150.7v-12.5c0-0.6,0.4-1,1-1l0,0c0.6,0,1,0.4,1,1v12.5c0,0.6-0.4,1-1,1l0,0
		C133.3,151.7,132.9,151.3,132.9,150.7z"/>
</g>
<g>
	<path class="st7" d="M168.2,153.7h-13.3c-1,0-1.9-0.8-1.9-1.9v-20.3c0-1,0.8-1.9,1.9-1.9h13.3c1,0,1.9,0.8,1.9,1.9v20.3
		C170.1,152.9,169.2,153.7,168.2,153.7z"/>
	<path class="st7" d="M175.2,136.2c-0.2-1-1-1.8-1.9-1.8h-3.2v2h2.3c0.5,0,1,0.5,1,1.2v6.9c0,0.7-0.4,1.2-1,1.2h-2.3v2.1h3.2
		c1,0,1.7-0.9,1.9-2c0-0.1,0-0.2,0-0.3v-0.1l0,0v-8.6l0,0v-0.1C175.2,136.5,175.2,136.4,175.2,136.2z"/>
	<path class="st11" d="M157.2,149.7L157.2,149.7c-0.5,0-1-0.4-1-1v-12c0-0.5,0.4-1,1-1l0,0c0.5,0,1,0.4,1,1v12
		C158.2,149.2,157.8,149.7,157.2,149.7z"/>
	<path class="st11" d="M161.7,149.7L161.7,149.7c-0.5,0-1-0.4-1-1v-12c0-0.5,0.4-1,1-1l0,0c0.5,0,1,0.4,1,1v12
		C162.7,149.2,162.2,149.7,161.7,149.7z"/>
	<path class="st11" d="M166.1,149.7L166.1,149.7c-0.5,0-1-0.4-1-1v-12c0-0.5,0.4-1,1-1l0,0c0.5,0,1,0.4,1,1v12
		C167,149.2,166.6,149.7,166.1,149.7z"/>
</g>
<rect x="60" y="127.1" class="st16" width="7.8" height="19.2"/>
<path class="st12" d="M94.8,71.2"/>
<path class="st16" d="M60,146.4l22.4,6.2c2.6,0.7,5.3,0,7.3-1.7c1.6-1.4,1-4.1-1.1-4.7l-26.5-7.3L60,146.4z"/>
<path class="st2" d="M70,57.6v2.8c0,0.9,0.8,1.7,1.7,1.7s1.7-0.8,1.7-1.7v-3.6L70,57.6z"/>
<path class="st2" d="M107.4,57.6v2.8c0,0.9-0.8,1.7-1.7,1.7s-1.7-0.8-1.7-1.7v-3.6L107.4,57.6z"/>
<g>
	<path class="st18" d="M84.6,77.1c1-1,2.5-1.6,4-1.6c1.6,0,3,0.6,4,1.6c1-0.9,1.7-2.2,1.9-3.6H82.6C82.9,74.9,83.5,76.2,84.6,77.1z"
		/>
	<path class="st19" d="M84.6,77.1c1,1,2.5,1.6,4,1.6c1.6,0,3-0.6,4-1.6c-1-1-2.5-1.6-4-1.6C87,75.5,85.6,76.2,84.6,77.1z"/>
	<path class="st6" d="M94.6,72.5H82.6c0,0.1,0,0.3,0,0.4c0,0.1,0,0.4,0.1,0.5h11.9c0-0.1,0.1-0.4,0.1-0.5
		C94.6,72.8,94.6,72.7,94.6,72.5z"/>
</g>
<g>
	<line class="st20" x1="34.8" y1="16.7" x2="34.8" y2="19"/>
	<line class="st20" x1="38.8" y1="20.7" x2="36.6" y2="20.7"/>
	<line class="st20" x1="34.8" y1="24.8" x2="34.8" y2="22.6"/>
	<line class="st20" x1="30.8" y1="20.8" x2="33" y2="20.8"/>
	<line class="st20" x1="37.7" y1="17.9" x2="36.1" y2="19.5"/>
	<line class="st20" x1="37.7" y1="23.6" x2="36.1" y2="22"/>
	<line class="st20" x1="31.9" y1="23.7" x2="33.5" y2="22.1"/>
	<line class="st20" x1="31.9" y1="18" x2="33.5" y2="19.6"/>
</g>
<g>
	<line class="st20" x1="128.1" y1="0" x2="128.1" y2="1.5"/>
	<line class="st20" x1="130.7" y1="2.6" x2="129.3" y2="2.6"/>
	<line class="st20" x1="128.1" y1="5.3" x2="128.1" y2="3.8"/>
	<line class="st20" x1="125.5" y1="2.7" x2="126.9" y2="2.7"/>
	<line class="st20" x1="130" y1="0.8" x2="129" y2="1.8"/>
	<line class="st20" x1="130" y1="4.5" x2="129" y2="3.5"/>
	<line class="st20" x1="126.2" y1="4.6" x2="127.3" y2="3.5"/>
	<line class="st20" x1="126.2" y1="0.8" x2="127.3" y2="1.9"/>
</g>
<circle class="st21" cx="42.2" cy="33.1" r="1.3"/>
<circle class="st21" cx="46.9" cy="4.3" r="2.2"/>
<circle class="st21" cx="132.6" cy="14.8" r="1.9"/>
<g>
	<line class="st22" x1="69.3" y1="66.4" x2="65.8" y2="71.3"/>
	<g>
		<path class="st22" d="M68.2,65.7c-1.1,1.7-2.3,3.3-3.4,5C63.8,72,66,73.3,66.9,72c1.1-1.7,2.3-3.3,3.4-5
			C71.3,65.7,69.1,64.4,68.2,65.7L68.2,65.7z"/>
	</g>
</g>
<g>
	<line class="st22" x1="75.3" y1="66.4" x2="71.9" y2="71.3"/>
	<g>
		<path class="st22" d="M74.2,65.7c-1.1,1.7-2.3,3.3-3.4,5C69.9,72,72,73.3,73,72c1.1-1.7,2.3-3.3,3.4-5
			C77.3,65.7,75.1,64.4,74.2,65.7L74.2,65.7z"/>
	</g>
</g>
<g>
	<line class="st22" x1="105.2" y1="66.4" x2="101.8" y2="71.3"/>
	<g>
		<path class="st22" d="M104.2,65.7c-1.1,1.7-2.3,3.3-3.4,5c-0.9,1.3,1.3,2.6,2.2,1.3c1.1-1.7,2.3-3.3,3.4-5
			C107.2,65.7,105.1,64.4,104.2,65.7L104.2,65.7z"/>
	</g>
</g>
<g>
	<line class="st22" x1="111.3" y1="66.4" x2="107.9" y2="71.3"/>
	<g>
		<path class="st22" d="M110.2,65.7c-1.1,1.7-2.3,3.3-3.4,5c-0.9,1.3,1.3,2.6,2.2,1.3c1.1-1.7,2.3-3.3,3.4-5
			C113.3,65.7,111.1,64.4,110.2,65.7L110.2,65.7z"/>
	</g>
</g>
</svg>
