<?xml version="1.0" encoding="utf-8"?>
<!-- Generator: Adobe Illustrator 22.0.1, SVG Export Plug-In . SVG Version: 6.00 Build 0)  -->
<svg version="1.1" id="Layer_1" xmlns="http://www.w3.org/2000/svg" xmlns:xlink="http://www.w3.org/1999/xlink" x="0px" y="0px"
	 viewBox="0 0 136.4 288.6" style="enable-background:new 0 0 136.4 288.6;" xml:space="preserve">
<style type="text/css">
	.st0{display:none;}
	.st1{display:inline;fill:#FFFFFF;stroke:#000000;stroke-miterlimit:10;}
	.st2{fill:#707B7F;}
	.st3{fill:#CE403F;}
	.st4{fill:#FFFFFF;}
	.st5{fill:#CD915F;}
	.st6{fill:#AA6628;}
	.st7{opacity:0.5;fill:#F9F9FA;enable-background:new    ;}
	.st8{fill:url(#SVGID_1_);}
	.st9{fill:#DDDDDD;}
	.st10{fill:#F7F7F7;}
	.st11{opacity:0.35;fill:#F4F4F5;enable-background:new    ;}
	.st12{fill:url(#SVGID_2_);}
	.st13{opacity:0.6;fill:#F4F4F5;enable-background:new    ;}
	.st14{display:none;fill:#34A6C9;stroke:#1B8EB7;stroke-width:10;stroke-miterlimit:10;}
	.st15{display:none;fill:#F27CA7;stroke:#C94C72;stroke-width:10;stroke-miterlimit:10;}
	.st16{fill:#476269;}
	.st17{fill:#222728;}
	.st18{fill:#DDDDDC;}
	.st19{fill:#F6F7F7;}
	.st20{fill:url(#SVGID_3_);}
	.st21{fill:url(#SVGID_4_);}
	.st22{enable-background:new    ;}
	.st23{fill:#F9F9FA;stroke:#E2E2E2;stroke-width:3;stroke-miterlimit:10;}
	.st24{fill:#D95F56;}
	.st25{fill:url(#SVGID_5_);}
	.st26{fill:url(#SVGID_6_);}
	.st27{opacity:0.84;fill:#E8CD2C;enable-background:new    ;}
	.st28{opacity:0.39;fill:#90D7EB;enable-background:new    ;}
	.st29{opacity:0.84;fill:url(#SVGID_7_);enable-background:new    ;}
	.st30{fill:#D2E8C9;stroke:#6EBF59;stroke-width:2;stroke-miterlimit:10;}
	.st31{fill:none;}
	.st32{fill:#E4F1DD;}
	.st33{fill:#7AC25B;}
	.st34{fill:none;stroke:#E2E2E2;stroke-miterlimit:10;}
	.st35{fill:#157D3E;stroke:#E2E2E2;stroke-width:3;stroke-miterlimit:10;}
	.st36{fill:url(#SVGID_8_);}
	.st37{fill:url(#SVGID_9_);}
	.st38{fill:url(#SVGID_10_);}
	.st39{fill:url(#SVGID_11_);}
	.st40{fill:url(#SVGID_12_);}
</style>
<g id="Layer_1_1_" class="st0">
	<rect x="-2014.3" y="-224" class="st1" width="136.5" height="482"/>
</g>
<path class="st2" d="M-1750.7,1553.5h-127c-11.1,0-20.2-9.1-20.2-20.2v-93.6c0-11.1,9.1-20.2,20.2-20.2h127
	c11.1,0,20.2,9.1,20.2,20.2v93.6C-1730.5,1544.4-1739.6,1553.5-1750.7,1553.5z"/>
<rect x="-2479.4" y="-385.4" class="st3" width="658.6" height="188.9"/>
<circle class="st4" cx="-3053.8" cy="64" r="6.2"/>
<g>
	<polygon class="st5" points="-1862.6,-647.6 -1904.8,-635 -1812.3,-635 	"/>
	<polygon class="st5" points="-1524.2,-647.6 -1482.1,-635 -1574.6,-635 	"/>
	<rect x="-1862.7" y="-647.6" class="st5" width="338.4" height="14.9"/>
	<rect x="-1904.8" y="-635" class="st6" width="422.8" height="11.1"/>
</g>
<path class="st7" d="M-2935.5,296.7h-148.8c-11.7,0-21.2-9.5-21.2-21.2V47.9c0-11.7,9.5-21.2,21.2-21.2h148.8
	c11.7,0,21.2,9.5,21.2,21.2v227.7C-2914.3,287.2-2923.8,296.7-2935.5,296.7z"/>
<linearGradient id="SVGID_1_" gradientUnits="userSpaceOnUse" x1="-3011.3879" y1="3431.6001" x2="-3011.3879" y2="3207.3784" gradientTransform="matrix(1 0 0 -1 0 3491)">
	<stop  offset="0" style="stop-color:#FFCC4C"/>
	<stop  offset="1" style="stop-color:#FEBF4B"/>
</linearGradient>
<path class="st8" d="M-2952,284.5h-118.8c-11.7,0-21.2-9.5-21.2-21.2V80.6c0-11.7,9.5-21.2,21.2-21.2h118.8
	c11.7,0,21.2,9.5,21.2,21.2v182.7C-2930.8,275-2940.3,284.5-2952,284.5z"/>
<circle class="st9" cx="-3067.3" cy="57.8" r="33"/>
<circle class="st9" cx="-3031.6" cy="48.2" r="23.4"/>
<circle class="st9" cx="-2996.6" cy="58.1" r="23.4"/>
<circle class="st9" cx="-2947.1" cy="53.3" r="28.2"/>
<circle class="st10" cx="-2996.6" cy="49.1" r="23.4"/>
<circle class="st10" cx="-2975.3" cy="39.1" r="11.7"/>
<path class="st10" d="M-3055,39.1c0-1.5,0.1-2.9,0.4-4.3h-42.6c-2,4.2-3.1,9-3.1,14c0,18.2,14.8,33,33,33c13.6,0,25.3-8.2,30.3-19.9
	C-3047.3,59.4-3055,50.2-3055,39.1z"/>
<path class="st10" d="M-3034.3,48.8c0,4.6-1,9.1-2.7,13.1c1.7,0.4,3.5,0.6,5.4,0.6c12.9,0,23.4-10.5,23.4-23.4
	c0-1.5-0.1-2.9-0.4-4.3h-28.7C-3035.4,39-3034.3,43.8-3034.3,48.8z"/>
<path class="st10" d="M-3037.4,34.8h-17.2c-0.3,1.4-0.4,2.8-0.4,4.3c0,11.1,7.7,20.3,18,22.7c1.7-4,2.7-8.4,2.7-13.1
	C-3034.3,43.8-3035.4,39-3037.4,34.8z"/>
<path class="st10" d="M-2920.5,34.8h-53.1c-1.1,3-1.6,6.1-1.6,9.5c0,15.6,12.6,28.2,28.2,28.2c15.6,0,28.2-12.6,28.2-28.2
	C-2918.9,40.9-2919.5,37.7-2920.5,34.8z"/>
<path class="st10" d="M-2915.9,35.6c0,0-0.1-0.1-0.2-0.2C-2916.1,35.5-2916,35.6-2915.9,35.6L-2915.9,35.6z"/>
<path class="st10" d="M-2920.5,34.8h-116.9c-2.4-5-5.9-9.3-10.3-12.6c-3.5,3.3-5.9,7.7-6.8,12.6h-42.6c0.5-1.1,1.1-2.2,1.8-3.3
	c4.2-4.6,12.7-12.3,22.7-12.3h55.4c0,0,6.7,0,16,0h55.4c13.2,0,23.9,13.4,25.3,15.3C-2920.6,34.6-2920.6,34.7-2920.5,34.8z"/>
<path class="st10" d="M-3054.6,34.8h17.2c-2.3-5-5.9-9.3-10.3-12.6C-3051.2,25.5-3053.6,29.9-3054.6,34.8z"/>
<path class="st7" d="M-2857.5,100.6c-2.3-11.7-10.8-20.4-21-20.4h-35.8v22.5h25.3c6,0,10.8,5.9,10.8,13.3v77.4
	c0,7.3-4.8,13.3-10.8,13.3h-25.3v23.4h35.8c10.7,0,19.6-9.6,21.3-22.2c0.2-1.1,0.3-2.2,0.3-3.4v-1l0,0v-96.7l0,0v-1.4
	C-2856.9,103.7-2857.1,102.1-2857.5,100.6z"/>
<path class="st11" d="M-3058.5,254.3L-3058.5,254.3c-6,0-10.8-4.8-10.8-10.8v-134c0-6,4.8-10.8,10.8-10.8l0,0
	c6,0,10.8,4.8,10.8,10.8v134C-3047.6,249.5-3052.5,254.3-3058.5,254.3z"/>
<path class="st11" d="M-3008.2,254.3L-3008.2,254.3c-6,0-10.8-4.8-10.8-10.8v-134c0-6,4.8-10.8,10.8-10.8l0,0
	c6,0,10.8,4.8,10.8,10.8v134C-2997.4,249.5-3002.3,254.3-3008.2,254.3z"/>
<path class="st11" d="M-2959.2,251L-2959.2,251c-6,0-10.8-4.8-10.8-10.8v-134c0-6,4.8-10.8,10.8-10.8l0,0c6,0,10.8,4.8,10.8,10.8
	v134C-2948.3,246.2-2953.2,251-2959.2,251z"/>
<g>
	<circle class="st4" cx="692.8" cy="836.2" r="4.7"/>
	<path class="st7" d="M778.7,1018.4H674.3c-11.7,0-21.2-9.5-21.2-21.2v-165c0-11.7,9.5-21.2,21.2-21.2h104.4
		c11.7,0,21.2,9.5,21.2,21.2v165C799.9,1008.9,790.4,1018.4,778.7,1018.4z"/>
	
		<linearGradient id="SVGID_2_" gradientUnits="userSpaceOnUse" x1="725.4121" y1="2654.8" x2="725.4121" y2="2482.6418" gradientTransform="matrix(1 0 0 -1 0 3491)">
		<stop  offset="0" style="stop-color:#FFCC4C"/>
		<stop  offset="1" style="stop-color:#FEBF4B"/>
	</linearGradient>
	<path class="st12" d="M766.1,1009h-81.4c-11.7,0-21.2-9.5-21.2-21.2V857.4c0-11.7,9.5-21.2,21.2-21.2h81.4
		c11.7,0,21.2,9.5,21.2,21.2v130.4C787.3,999.5,777.8,1009,766.1,1009z"/>
	<circle class="st9" cx="682.5" cy="831.5" r="25.3"/>
	<circle class="st9" cx="709.9" cy="824.1" r="17.9"/>
	<circle class="st9" cx="736.7" cy="831.7" r="17.9"/>
	<circle class="st9" cx="774.8" cy="828" r="21.6"/>
	<circle class="st10" cx="736.7" cy="824.8" r="17.9"/>
	<circle class="st10" cx="753.1" cy="817.1" r="9"/>
	<path class="st10" d="M691.9,817.1c0-1.1,0.1-2.2,0.3-3.3h-32.7c-1.5,3.3-2.4,6.9-2.4,10.7c0,14,11.3,25.3,25.3,25.3
		c10.4,0,19.4-6.3,23.3-15.3C697.8,832.7,691.9,825.6,691.9,817.1z"/>
	<path class="st10" d="M707.8,824.5c0,3.6-0.7,7-2.1,10c1.3,0.3,2.7,0.5,4.1,0.5c9.9,0,17.9-8,17.9-17.9c0-1.1-0.1-2.2-0.3-3.3
		h-22.1C707,817.1,707.8,820.7,707.8,824.5z"/>
	<path class="st10" d="M705.4,813.8h-13.2c-0.2,1.1-0.3,2.2-0.3,3.3c0,8.5,5.9,15.6,13.8,17.5c1.3-3.1,2.1-6.5,2.1-10
		C707.8,820.7,707,817.1,705.4,813.8z"/>
	<path class="st10" d="M795.2,813.8h-40.8c-0.8,2.3-1.3,4.7-1.3,7.3c0,12,9.7,21.6,21.6,21.6c12,0,21.6-9.7,21.6-21.6
		C796.4,818.5,796,816.1,795.2,813.8z"/>
	<path class="st10" d="M798.7,817.9c0,0-0.1-0.1-0.1-0.2C798.6,817.8,798.6,817.9,798.7,817.9L798.7,817.9z"/>
	<path class="st10" d="M795.2,813.8h-89.7c-1.8-3.8-4.5-7.2-7.9-9.7c-2.7,2.5-4.6,5.9-5.3,9.7h-32.7c0.4-0.9,0.9-1.7,1.4-2.5
		c3.2-3.5,9.8-9.4,17.5-9.4H721c0,0,5.1,0,12.3,0h42.5c10,0,18.2,10.2,19.3,11.7C795.1,813.7,795.1,813.7,795.2,813.8z"/>
	<path class="st10" d="M692.2,813.8h13.2c-1.8-3.8-4.5-7.2-7.9-9.7C694.8,806.7,692.9,810,692.2,813.8z"/>
	<path class="st7" d="M843.5,867.8c-1.7-9-8.3-15.7-16.1-15.7h-27.5v17.3h19.4c4.6,0,8.3,4.6,8.3,10.2V939c0,5.6-3.7,10.2-8.3,10.2
		h-19.4v17.9h27.5c8.2,0,15.1-7.4,16.4-17c0.1-0.8,0.2-1.7,0.2-2.6v-0.8l0,0v-74.2l0,0v-1.1C844,870.2,843.8,869,843.5,867.8z"/>
	<path class="st13" d="M689.2,985.8L689.2,985.8c-4.6,0-8.3-3.7-8.3-8.3V874.6c0-4.6,3.7-8.3,8.3-8.3l0,0c4.6,0,8.3,3.7,8.3,8.3
		v102.9C697.6,982.1,693.8,985.8,689.2,985.8z"/>
	<path class="st13" d="M727.8,985.8L727.8,985.8c-4.6,0-8.3-3.7-8.3-8.3V874.6c0-4.6,3.7-8.3,8.3-8.3l0,0c4.6,0,8.3,3.7,8.3,8.3
		v102.9C736.1,982.1,732.4,985.8,727.8,985.8z"/>
	<path class="st13" d="M765.5,983.3L765.5,983.3c-4.6,0-8.3-3.7-8.3-8.3V872.1c0-4.6,3.7-8.3,8.3-8.3l0,0c4.6,0,8.3,3.7,8.3,8.3V975
		C773.8,979.6,770.1,983.3,765.5,983.3z"/>
</g>
<path class="st14" d="M-2100.5,684.7v-32.9l5.8,5.8c9.5,9.5,25,9.5,34.5,0s9.5-25,0-34.5l-45-45l-2.9-2.9
	c-4.5-4.5-10.2-6.8-16.1-7.1c-0.2,0-0.5,0-0.8,0c-0.1,0-0.2,0-0.2,0c-0.1,0-0.1,0-0.2,0c-0.1,0-0.1,0-0.2,0
	c-6.3-0.1-12.7,2.3-17.5,7.2l-47.9,47.9c-9.5,9.5-9.5,25,0,34.5s25,9.5,34.5,0l7.1-7.1l0.6,33.7c-34.6,10-59.9,41.9-59.9,79.8
	c0,45.9,37.2,83.1,83.1,83.1c45.9,0,83.1-37.2,83.1-83.1C-2042.5,726.7-2066.9,695.3-2100.5,684.7z M-2125.6,799.1
	c-19.4,0-35.2-15.8-35.2-35.2c0-19.4,15.8-35.2,35.2-35.2s35.2,15.8,35.2,35.2C-2090.4,783.3-2106.1,799.1-2125.6,799.1z"/>
<path class="st15" d="M-1814.5,726.3c32.4-32.4,32.4-85.1,0-117.5s-85.1-32.4-117.5,0s-32.4,85.1,0,117.5
	c10.6,10.6,23.3,17.7,36.8,21.4v25.9h-9.6c-12.1,0-21.9,9.8-21.9,21.9l0,0c0,12.1,9.8,21.9,21.9,21.9h9.6v9.6
	c0,12.1,9.8,21.9,21.9,21.9l0,0c12.1,0,21.9-9.8,21.9-21.9v-9.6h9.6c12.1,0,21.9-9.8,21.9-21.9l0,0c0-12.1-9.8-21.9-21.9-21.9h-9.6
	v-25.9C-1837.8,744-1825.1,736.9-1814.5,726.3z M-1898.1,642.6c13.8-13.8,36-13.8,49.8,0s13.8,36,0,49.8s-36,13.8-49.8,0
	C-1911.9,678.7-1911.9,656.4-1898.1,642.6z"/>
<rect x="-2023" y="504.3" class="st16" width="578.1" height="600.5"/>
<path class="st4" d="M-1873.1,682.2l-59.5,59.5c-6.3,6.3-16.4,6.3-22.7,0l0,0c-6.3-6.3-6.3-16.4,0-22.7l59.5-59.5
	c6.3-6.3,16.4-6.3,22.7,0l0,0C-1866.9,665.8-1866.9,676-1873.1,682.2z"/>
<path class="st4" d="M-1836.3,741.7l-59.5-59.5c-6.3-6.3-6.3-16.4,0-22.7l0,0c6.3-6.3,16.4-6.3,22.7,0l59.5,59.5
	c6.3,6.3,6.3,16.4,0,22.7l0,0C-1819.9,747.9-1830.1,747.9-1836.3,741.7z"/>
<path class="st4" d="M-1864.6,692.9v75.2c0,11.9-9.6,21.5-21.5,21.5l0,0c-11.9,0-21.5-9.6-21.5-21.5v-75.2
	c0-11.9,9.6-21.5,21.5-21.5l0,0C-1874.2,671.4-1864.6,681-1864.6,692.9z"/>
<path class="st4" d="M-1884.5,768.4c-52.3,0-94.6,42.4-94.6,94.6c0,52.2,42.4,94.6,94.6,94.6s94.6-42.4,94.6-94.6
	C-1789.9,810.8-1832.2,768.4-1884.5,768.4z M-1884.5,921.2c-32.1,0-58.2-26-58.2-58.2c0-32.1,26-58.2,58.2-58.2
	c32.1,0,58.2,26,58.2,58.2C-1826.3,895.2-1852.3,921.2-1884.5,921.2z"/>
<path class="st4" d="M-1643.8,936.2V834.7c0-11.9,9.6-21.5,21.5-21.5l0,0c11.9,0,21.5,9.6,21.5,21.5v101.4
	c0,11.9-9.6,21.5-21.5,21.5l0,0C-1634.1,957.7-1643.8,948-1643.8,936.2z"/>
<path class="st4" d="M-1582.4,915.4h-79.7c-11.9,0-21.5-9.6-21.5-21.5l0,0c0-11.9,9.6-21.5,21.5-21.5h79.7
	c11.9,0,21.5,9.6,21.5,21.5l0,0C-1560.9,905.7-1570.6,915.4-1582.4,915.4z"/>
<path class="st4" d="M-1623.9,834.4c52.3,0,94.6-42.4,94.6-94.6s-42.4-94.6-94.6-94.6s-94.6,42.4-94.6,94.6
	S-1676.2,834.4-1623.9,834.4z M-1623.9,681.6c32.1,0,58.2,26,58.2,58.2c0,32.1-26,58.2-58.2,58.2c-32.1,0-58.2-26-58.2-58.2
	C-1682.1,707.7-1656,681.6-1623.9,681.6z"/>
<rect x="-2537.6" y="504.3" class="st17" width="508.9" height="434.6"/>
<path class="st4" d="M-2258.7,681.6l-59.5,59.5c-6.3,6.3-16.4,6.3-22.7,0l0,0c-6.3-6.3-6.3-16.4,0-22.7l59.5-59.5
	c6.3-6.3,16.4-6.3,22.7,0l0,0C-2252.4,665.2-2252.4,675.4-2258.7,681.6z"/>
<path class="st4" d="M-2221.9,741.1l-59.5-59.5c-6.3-6.3-6.3-16.4,0-22.7l0,0c6.3-6.3,16.4-6.3,22.7,0l59.5,59.5
	c6.3,6.3,6.3,16.4,0,22.7l0,0C-2205.5,747.4-2215.6,747.4-2221.9,741.1z"/>
<path class="st4" d="M-2252.4,690v79.8c0,10.6-8.6,19.2-19.2,19.2l0,0c-10.6,0-19.2-8.6-19.2-19.2V690c0-10.6,8.6-19.2,19.2-19.2
	l0,0C-2261,670.8-2252.4,679.4-2252.4,690z"/>
<path class="st18" d="M-2388.3-343.4c-18,0-34.3,7.5-45.7,19.5v83.2c11.4,12,27.6,19.5,45.7,19.5c34.4,0,62.4-27.4,62.4-61.1
	C-2325.9-316-2353.8-343.4-2388.3-343.4z"/>
<path class="st18" d="M-1849.8-314.5c-8-8.2-19.5-13.4-32.2-13.4c-24.1,0-43.7,18.4-43.7,41.1s19.6,41.1,43.7,41.1
	c12.8,0,24.3-5.2,32.2-13.4V-314.5z"/>
<ellipse class="st18" cx="-2306.1" cy="-295.4" rx="28" ry="27.5"/>
<ellipse class="st18" cx="-2231" cy="-287.9" rx="54.2" ry="53.1"/>
<ellipse class="st18" cx="-2151.7" cy="-292.7" rx="35.9" ry="35.2"/>
<ellipse class="st18" cx="-2086.5" cy="-308.6" rx="33.6" ry="32.9"/>
<ellipse class="st18" cx="-2052.3" cy="-285.2" rx="38.4" ry="37.6"/>
<ellipse class="st18" cx="-1989.6" cy="-293.8" rx="38" ry="37.3"/>
<ellipse class="st18" cx="-1940.4" cy="-305.2" rx="23.2" ry="22.7"/>
<path class="st18" d="M-1849.8-289.8h-583.1c2.2-15.3,1.6-11,3.5-24.2l0,0c0-13.3,12.2-24.2,27.2-24.2h521.7
	c15,0,27.2,10.8,27.2,24.2l0,0C-1852.1-301.8-1852.2-302.1-1849.8-289.8z"/>
<circle class="st19" cx="-2306.1" cy="-307.6" r="28"/>
<circle class="st19" cx="-2231" cy="-300" r="54.2"/>
<ellipse transform="matrix(0.9239 -0.3827 0.3827 0.9239 -47.1455 -846.6163)" class="st19" cx="-2151.7" cy="-304.8" rx="35.9" ry="35.9"/>
<circle class="st19" cx="-2086.5" cy="-321" r="33.6"/>
<circle class="st19" cx="-2052.3" cy="-297.2" r="38.4"/>
<circle class="st19" cx="-1989.6" cy="-305.9" r="38"/>
<circle class="st19" cx="-1940.4" cy="-317.6" r="23.2"/>
<rect x="-2433.7" y="-361.1" class="st19" width="583.9" height="61.1"/>
<path class="st19" d="M-1849.8-327.8c-8-8.4-19.5-13.7-32.2-13.7c-24.1,0-43.7,18.8-43.7,41.9s19.6,41.9,43.7,41.9
	c12.8,0,24.3-5.3,32.2-13.7V-327.8z"/>
<path class="st19" d="M-2388.3-358.4c-18,0-34.3,7.7-45.7,19.9v84.9c11.4,12.2,27.6,19.9,45.7,19.9c34.4,0,62.4-27.9,62.4-62.4
	S-2353.8-358.4-2388.3-358.4z"/>
<path class="st7" d="M-3146.2,265.4c1.4,1.9,2.6,3.6,3.7,5.2c6,8.5,2.2,20.3-7.8,23.9c-8.4,3-21.4,5.2-41.4,4.8
	c-20.1,0.4-33.1-1.8-41.5-4.8c-10-3.5-13.8-15.4-7.8-23.9c1.1-1.6,2.3-3.3,3.7-5.2c8.4-11.5,11-58.3,7.8-119.2
	c-2.6-49.2-25.6-180.6-34.4-229.4c-1.7-9.7,5.9-18.6,16-18.6h112.2c10.1,0,17.8,8.9,16,18.6c-8.8,48.8-31.8,180.2-34.4,229.4
	C-3157.2,207.1-3154.6,253.9-3146.2,265.4z"/>
<g>
	
		<linearGradient id="SVGID_3_" gradientUnits="userSpaceOnUse" x1="-3191.7378" y1="3545.5203" x2="-3191.7378" y2="3242.9568" gradientTransform="matrix(1 0 0 -1 0 3491)">
		<stop  offset="0" style="stop-color:#FFCC4C"/>
		<stop  offset="1" style="stop-color:#FEBF4B"/>
	</linearGradient>
	<path class="st20" d="M-3162.6,135.3c2-38,19.8-139.3,26.5-177c1.3-7.5-4.6-14.3-12.4-14.3h-86.5c-7.8,0-13.7,6.8-12.4,14.3
		c6.8,37.6,24.5,139,26.5,177c0.9,16.3,1.2,79.1,1,92c-0.2,15.3,11.4,19.1,26.6,19.9c0.5,0,1,0,1.5,0s1,0,1.5,0
		c15.2-0.8,26.9-4.6,26.6-19.9C-3163.8,214.3-3163.5,151.6-3162.6,135.3z"/>
</g>
<circle class="st13" cx="-3156.8" cy="-34" r="6.1"/>
<ellipse transform="matrix(0.1256 -0.9921 0.9921 0.1256 -2814.291 -3104.9397)" class="st13" cx="-3168.5" cy="44.1" rx="53" ry="6.1"/>
<g>
	<path class="st7" d="M-3304.8,284.3c0.8,2.1,0.1,4-1.5,5.5c-3.6,3.2-9.4,4.2-14,5c-11.5,1.9-23.2,2-34.8,1.9
		c-11.6,0.1-23.4,0-34.8-1.9c-4.6-0.8-10.4-1.7-14-5c-1.6-1.5-2.3-3.4-1.5-5.5c0.8-2,2.5-3.5,4.7-3.8c1.3-0.2,2.6-0.3,4-0.5
		c5.2-0.9,10.2-2.7,15-4.9c13.4-6,22-13.8,22-13.8s0.8-103,0.8-121.9s-38.2-28.4-54-46.5c-15.8-18.2,18.5-106.5,18.5-106.5h78.9
		c0,0,36.7,86.7,20.9,104.8s-56.4,29.3-56.4,48.2s0.8,121.9,0.8,121.9s8.6,7.8,22,13.8c4.8,2.1,9.8,3.9,15,4.9
		c1.3,0.2,2.6,0.3,4,0.5C-3307.3,280.8-3305.6,282.3-3304.8,284.3z"/>
	
		<linearGradient id="SVGID_4_" gradientUnits="userSpaceOnUse" x1="-3353.9377" y1="3483.4824" x2="-3353.9377" y2="3373.2737" gradientTransform="matrix(1 0 0 -1 0 3491)">
		<stop  offset="0" style="stop-color:#FFCC4C"/>
		<stop  offset="1" style="stop-color:#FEBF4B"/>
	</linearGradient>
	<path class="st21" d="M-3311.4,94.2l-37.7,21.8c-3,1.7-6.8,1.7-9.8,0l-37.7-21.8c-0.3-0.2-0.6-0.3-0.8-0.4
		c-2.2-1-15.2-8.3-5.3-39.8l9.8-38.6c1.1-4.3,5-7.4,9.5-7.4h58.8c4.5,0,8.4,3,9.5,7.4l9.9,38.6c9.9,31.5-3.1,38.8-5.3,39.8
		C-3310.9,93.9-3311.1,94-3311.4,94.2z"/>
	<circle class="st13" cx="-3325.8" cy="30.2" r="6.1"/>
	<ellipse class="st13" cx="-3325.8" cy="63.2" rx="6.1" ry="17"/>
</g>
<text transform="matrix(1 0 0 1 -2462.7188 30.2534)" style="font-family:'MyriadPro-Regular'; font-size:72px;">Beer</text>
<text transform="matrix(1 0 0 1 -1003.0717 -150.9997)" style="font-family:'MyriadPro-Regular'; font-size:72px;">Cocktail</text>
<path class="st23" d="M-1186.5,290.9c-77,0-50.8-18-50.8-18s14.7-4.4,27.8-6.6c13.1-2.2,16.3-27.3,16.3-27.3s0-73.2,0-95
	c0-21.9-5-22.9-5-22.9l-73.6-93.7h170.4l-73.6,93.7c0,0-5,1-5,22.9c0,21.8,0,95,0,95s3.2,25.1,16.3,27.3c13.1,2.2,27.9,6.6,27.9,6.6
	S-1109.5,290.9-1186.5,290.9z"/>
<path class="st23" d="M-893,73c-12.3,13.9-52.3,27.8-58,37.6c0,0-0.4,8.6-9.1,9.1c0,0-4.5,3.2-4.5,13.2s-4.3,112,0,116.3
	s36.7,14.1,42.2,15.9s38.8,25-54,25s-59.4-23.2-54-25c5.5-1.8,37.9-11.6,42.2-15.9c4.3-4.3,0-106.3,0-116.3s-4.6-13.2-4.6-13.2
	c-8.6-0.5-9.1-9.1-9.1-9.1c-5.7-9.8-45.8-23.7-58-37.6c-12.3-13.9-9-46.6-9-46.6h184.8C-884,26.4-880.7,59.1-893,73z"/>
<path class="st23" d="M-820.2,289.7c-37.3-5.2-19.8-13.9-19.8-13.9l25.9-9.8V159c-12.1-6.8-20.5-22.5-20.5-22.5
	c-14-24.2-5.4-143.7-5.4-143.7h60.6c0,0,8.6,119.5-5.4,143.7c0,0-8.4,15.6-20.5,22.5v107l25.9,9.8c0,0,17.5,8.7-19.8,13.9
	C-806.2,290.6-813.3,290.6-820.2,289.7z"/>
<path class="st23" d="M-643.7,63.8c6.4,48.4,20.4,121.1,1.3,140.2c-12.4,12.4-18.3,19.6-20.9,23.1c-1.2,1.6-1.6,3.6-1.1,5.5
	c1.2,5.2,3.3,16.3,0.7,21c-0.9,1.7-1.8,3.3-2.5,4.9c-1.8,3.9,0.5,8.5,4.7,9.4l17.8,3.9c0.2,0,0.4,0.1,0.7,0.2
	c4.1,1.3,41,14.1-33.3,18.8c-0.3,0-0.6,0-0.9,0c-74.3-4.7-37.3-17.5-33.3-18.8c0.2-0.1,0.4-0.1,0.7-0.2l17.8-3.9
	c4.2-0.9,6.5-5.5,4.7-9.4c-0.7-1.5-1.5-3.2-2.5-4.9c-2.6-4.8-0.5-15.8,0.7-21c0.4-1.9,0-3.9-1.1-5.5c-2.6-3.5-8.5-10.7-20.9-23.1
	c-19.1-19.1-5.1-91.8,1.3-140.2c3.8-29-3.8-48-10.5-58.5c-2.9-4.5,0.4-10.3,5.7-10.3h76c5.3,0,8.5,5.9,5.7,10.3
	C-639.9,15.8-647.5,34.8-643.7,63.8z"/>
<path class="st23" d="M-460.5,19.8l-5,253.9c-0.1,5.5-3.8,10.2-9.1,11.7c-7.7,2.2-21.6,4.6-45.8,5c-24.2-0.3-38-2.7-45.8-5
	c-5.3-1.5-8.9-6.2-9.1-11.7l-5-253.9c-0.1-7,5.5-12.7,12.4-12.7h94.7C-465.9,7.2-460.3,12.9-460.5,19.8z"/>
<path class="st23" d="M-367.6,288.6c-59.6,0.5-52.6-4.3-34.3-14.3c16.8-9.2,12.4-29.6,11.5-32.8c-0.1-0.3-0.1-0.7-0.2-1l-22.3-295.3
	c-0.3-3.5,2.5-6.6,6.1-6.6h78.3c3.6,0,6.4,3,6.1,6.6l-22.3,295.3c0,0.3-0.1,0.7-0.2,1c-0.8,3.3-5.3,23.7,11.5,32.8
	C-315,284.3-308,289.1-367.6,288.6z"/>
<text transform="matrix(1 0 0 1 -1003.071 721.6561)" style="font-family:'MyriadPro-Regular'; font-size:72px;">Lhao</text>
<path class="st7" d="M-1148.6,987.1c-23.7,31.1-43,36.1-53.2,41.7c-10.2,5.6-16.2,26.8,3.2,30.9c19.4,4.2,27.9,6.7,27.9,6.7
	s35.7,18.2-50,18.2c-86.4,0-50-18.2-50-18.2s8.4-2.5,27.8-6.7c19.4-4.1,13.4-25.4,3.2-30.9c-10.2-5.6-29.4-10.5-53.2-41.7
	c-23.7-31.1,24.6-122.1,24.6-122.1h95C-1173.1,865.1-1124.8,956-1148.6,987.1z"/>
<path class="st7" d="M-751.6,1084.7c-66.8-0.8-42.6-10.7-26.2-11.9s21.7-15.2,21.7-15.2s-0.8-91.8,0-107.3
	c0.8-15.6-11.7-23.3-11.7-23.3c-30.1-32-16.2-104.1-16.2-104.1h64.7c0,0,13.9,72.1-16.2,104.1c0,0-12.5,7.8-11.7,23.3
	c0.8,15.6,0,107.3,0,107.3s5.3,13.9,21.7,15.2C-709,1074-684.8,1083.8-751.6,1084.7z"/>
<path class="st7" d="M-349.9,1084.7c-39.6,0-30.4-5.9-23.1-9.4c7-3.4,15.4-9.1,15.4-9.1l1.3-28.9c0.9-20.1-4.1-22.3-8.8-29.2
	s-5.6-11.3-10-27.3s-1.9-68.1-1.9-68.1h54.4c0,0,2.5,52.1-1.9,68.1s-5.3,20.4-10,27.3c-4.7,6.9-9.7,9.1-8.8,29.2l1.3,28.9
	c0,0,8.4,5.7,15.4,9.1C-319.5,1078.8-310.3,1084.7-349.9,1084.7z"/>
<text transform="matrix(1 0 0 1 251.3813 -150.9999)" style="font-family:'MyriadPro-Regular'; font-size:72px;">Wine</text>
<path class="st7" d="M67.5,288.6c-103.5-0.2-51.2-11.8-48-12.5c0.1,0,0.2,0,0.3-0.1c1.8-0.5,17.6-5.2,22.9-8.2
	c5.5-3.2,14.6-18.7,14.8-25.7c0.2-6.3-4-21.5-5-25.2c-0.2-0.5-0.4-1-0.7-1.5c-7.5-11-1.3-17.9,3.1-24.8c4.5-7,2-23.6-1.9-30
	c-3.8-6.4-13.9-31.9-17.7-51C32.2,93.7,8.2,28.4,0.3,6.9C-0.9,3.6,1.5,0,5.1,0l126.2,0.3c3.6,0,6,3.6,4.8,6.9
	c-8.1,21.4-32.3,86.6-35.5,102.5c-3.9,19.1-14.1,44.6-18,50.9c-3.8,6.4-6.4,22.9-2,30c4.4,6.9,10.5,13.9,3,24.8
	c-0.3,0.5-0.6,0.9-0.7,1.5c-1,3.6-5.3,18.9-5.1,25.2c0.2,7,9.2,22.6,14.7,25.8c5.2,3.1,21.1,7.8,22.8,8.3c0.1,0,0.2,0.1,0.3,0.1
	C118.8,277.1,171,288.9,67.5,288.6z"/>
<path class="st7" d="M419,163.4v101.1c0,0,16.4,7.2,26.1,10.7c8.8,3.2,30.8,14.5-32.3,14.5s-41.1-11.3-32.3-14.5
	c9.7-3.5,26-10.7,26-10.7V163.4c0,0-3.9-2.4-12.9-8.9c-10.2-7.4-27.4-26.8-33.9-48.7c-6.6-21.9,9.9-105.6,9.9-105.6h86.5
	c0,0,16.4,83.8,9.9,105.6c-6.6,21.9-23.7,41.3-33.9,48.7C422.9,161,419,163.4,419,163.4z"/>
<path class="st7" d="M823.3,139.8c0,6.3-0.4,117.8-0.4,117.8l25.6,14.7c0,0,44.2,16.3-32.6,16.3s-32.6-16.3-32.6-16.3l25.6-14.7
	c0,0-0.4-111.5-0.4-117.8s-3.1-8-8.5-11.4s-25-14.8-35.1-32.4c-10.1-17.6,12.4-95.9,12.4-95.9h77.3c0,0,22.5,78.4,12.4,95.9
	c-10.1,17.6-29.7,29-35.1,32.4C826.5,131.8,823.3,133.6,823.3,139.8z"/>
<path class="st7" d="M1185.7,180.6c0,4.6,0,69.5,0,69.5s15.3,22.4,24.2,23c8.9,0.6,44.4,15.5-32.5,15.5s-41.4-14.9-32.5-15.5
	s24.2-23,24.2-23s0-65,0-69.5c0-4.6-3.6-7.7-3.6-7.7c-1.6-16.3-19.1-29.2-43.9-55.9c-24.7-26.7,8-99.8,8-99.8h95.7
	c0,0,32.7,73.1,8,99.8s-42.3,39.6-43.9,55.9C1189.3,172.9,1185.7,176,1185.7,180.6z"/>
<path class="st24" d="M-1755.1,1548.5h-118.2c-10.7,0-19.4-8.7-19.4-19.4v-118.2c0-10.7,8.7-19.4,19.4-19.4h118.2
	c10.7,0,19.4,8.7,19.4,19.4v118.2C-1735.7,1539.7-1744.4,1548.5-1755.1,1548.5z"/>
<path class="st4" d="M-1892.7,1442.9v86.2c0,10.7,8.7,19.4,19.4,19.4h118.2c10.7,0,19.4-8.7,19.4-19.4v-86.2H-1892.7z"/>
<text transform="matrix(1 0 0 1 -1837.9413 1425.0474)" class="st4" style="font-family:'Cloud-Bold'; font-size:26px;">DAY</text>
<g>
	<path class="st7" d="M1078.9,861.2c0,6.3-0.4,117.8-0.4,117.8l25.6,14.7c0,0,44.2,16.3-32.6,16.3c-65.3,0-24.6-16.3-24.6-16.3
		l25.6-14.7c0,0-0.4-111.5-0.4-117.8c0-6.3-3.1-8-8.5-11.4c-5.4-3.4-25-14.8-35.1-32.4c-10.2-17.6,12.3-95.9,12.3-95.9h69.3
		c0,0,22.5,78.4,12.4,95.9c-10.1,17.6-29.7,29-35.1,32.4C1082,853.2,1078.9,854.9,1078.9,861.2z"/>
	
		<linearGradient id="SVGID_5_" gradientUnits="userSpaceOnUse" x1="1113.6664" y1="2699.1372" x2="1113.2051" y2="2690.3718" gradientTransform="matrix(1 0 0 -1 0 3491)">
		<stop  offset="0" style="stop-color:#AE4F6F"/>
		<stop  offset="1" style="stop-color:#6C365E"/>
	</linearGradient>
	<path class="st25" d="M1111.8,796.9c-0.3-1.5,0.2-3,1.3-4.1c0.2-0.2,0.4-0.4,0.7-0.4c0.7-0.1,1.3,0.6,1.4,1.3
		c0.3,1.4-0.7,3-2.2,3.4c-0.5,0.1-1.1,0-1.3-0.4"/>
	
		<linearGradient id="SVGID_6_" gradientUnits="userSpaceOnUse" x1="1075.5641" y1="2696.8694" x2="1075.5641" y2="2644.3921" gradientTransform="matrix(1 0 0 -1 0 3491)">
		<stop  offset="0" style="stop-color:#AE4F6F"/>
		<stop  offset="1" style="stop-color:#6C365E"/>
	</linearGradient>
	<path class="st26" d="M1117.6,810.3c-0.7,0.1-1.3,0.5-2,0.8s-1.6,0.4-2.3,0.2c-0.1,0-0.2,0-0.3-0.1c-0.1-0.1-0.1-0.1-0.1-0.2
		c0-0.1,0-0.1,0-0.2c0-1.9,0.2-4.1-2.1-5.3c-0.7-0.3-1.4-0.5-2.1-0.5c-2.4,0-4.4,1.4-6.5,2.5c-3.5,1.9-7.3,3-11.2,3.5h-13.2
		c-4.4-0.5-8.7-1.3-13-2.2c-1.8-0.4-3.7-0.8-5.1-1.9c-1.1-0.9-1.9-2.1-2.9-3.1s-2.5-1.8-3.9-1.3c-0.7,0.2-1.2,0.7-1.9,0.9
		c-1.1,0.3-2.2-0.1-3.2-0.5c-1.6-0.7-3.2-1.3-4.5-2.4c-2-1.6-3.7-4.1-6.6-3.4c-1.2,0.3-2.2,1.1-2.8,2.1c-6.3,9.8,5,20.6,11.6,26.7
		c5.5,5.1,11.6,9.3,18,13.2c0.9,0.5,1.7,1,2.4,1.5c7.6,5,9.3,5.8,11.6,5.8c2,0,6.1-3,10.1-5.8c0.7-0.5,1.5-1,2.4-1.5
		c0.5-0.3,1-0.6,1.5-0.9c5-3.1,9.8-6.5,14.3-10.4c2.9-2.6,5.7-5.3,8.2-8.3c1.3-1.6,2.5-3.2,3.6-4.9
		C1118.1,813.7,1120.6,810,1117.6,810.3z"/>
</g>
<g>
	<path class="st7" d="M583.2,865.7c4.9,0,8.9,4.1,8.7,9l-4.6,115c0,0-1.1,21.5-15.8,21.5c-20.6,0-34.5,0-34.5,0s-13.9,0-34.5,0
		c-14.7,0-15.8-21.5-15.8-21.5l-4.6-115c-0.2-4.9,3.7-9,8.7-9C490.8,865.7,583.2,865.7,583.2,865.7z"/>
	<path class="st27" d="M503,915c-6.7,0-12.1,3.8-11.8,8.5l2.9,51.1c0,0,0.9,12.4,13.3,12.4c17.3,0,28.9,0,28.9,0s11.7,0,28.9,0
		c12.3,0,13.3-12.4,13.3-12.4l2.9-51.1c0.3-4.6-5.1-8.5-11.8-8.5H503z"/>
	<path class="st28" d="M519.3,935.6l-13.1-8.9c-2.6-1.8-3.3-5.4-1.5-8l8.9-13.1c1.8-2.6,5.4-3.3,8-1.5l13.1,8.9
		c2.6,1.8,3.3,5.4,1.5,8l-8.9,13.1C525.5,936.7,521.9,937.4,519.3,935.6z"/>
	<path class="st28" d="M561.9,923.1l-7,2.1c-2,0.6-4-0.5-4.6-2.5l-2.1-7c-0.6-2,0.5-4,2.5-4.6l7-2.1c2-0.6,4,0.5,4.6,2.5l2.1,7
		C565,920.4,563.9,922.5,561.9,923.1z"/>
</g>
<g>
	<path class="st7" d="M-14.6,974.6c3.7,0,6.7,3.1,6.5,6.8l-3.4,86.3c0,0-0.8,16.1-11.9,16.1c-15.5,0-25.9,0-25.9,0s-10.4,0-25.9,0
		c-11,0-11.9-16.1-11.9-16.1l-3.4-86.3c-0.1-3.7,2.8-6.8,6.5-6.8H-14.6z"/>
	<path class="st27" d="M-74.8,1011.6c-5,0-9.1,2.9-8.9,6.4l2.2,38.4c0,0,0.7,9.3,10,9.3c13,0,21.7,0,21.7,0s8.8,0,21.7,0
		c9.2,0,10-9.3,10-9.3l2.2-38.4c0.2-3.5-3.8-6.4-8.9-6.4H-74.8z"/>
	<path class="st28" d="M-62.6,1027.1l-9.8-6.7c-2-1.4-2.5-4.1-1.1-6l6.7-9.8c1.4-2,4.1-2.5,6-1.1l9.8,6.7c2,1.4,2.5,4.1,1.1,6
		l-6.6,9.8C-57.9,1027.9-60.6,1028.4-62.6,1027.1z"/>
	<path class="st28" d="M-30.6,1017.7l-5.3,1.6c-1.5,0.5-3-0.4-3.5-1.9l-1.6-5.3c-0.5-1.5,0.4-3,1.9-3.5l5.3-1.6
		c1.5-0.5,3,0.4,3.5,1.9l1.6,5.3C-28.2,1015.7-29.1,1017.3-30.6,1017.7z"/>
</g>
<g>
	<path class="st7" d="M946.4,994.5l-20.2-11.6c0,0,0.3-67.4,0.3-87.6l45.4-63h-96.1l45.3,62.8c0.1,20,0.3,87.7,0.3,87.7l-20.2,11.6
		c0,0-32.1,12.9,19.4,12.9C981.3,1007.4,946.4,994.5,946.4,994.5z"/>
	
		<linearGradient id="SVGID_7_" gradientUnits="userSpaceOnUse" x1="923.8621" y1="2635.5" x2="923.8621" y2="2602.5466" gradientTransform="matrix(1 0 0 -1 0 3491)">
		<stop  offset="0" style="stop-color:#14AFAB"/>
		<stop  offset="1" style="stop-color:#227893"/>
	</linearGradient>
	<polygon class="st29" points="947.6,855.5 923.9,888.5 900.1,855.5 	"/>
	<path class="st30" d="M949.5,843.5c5.3-4.6,5.8-12.7,1.2-18c-4.6-5.3-12.7-5.8-18-1.2"/>
	<g>
		<polygon class="st31" points="939.8,832.3 932.4,832.3 932.4,833.1 941.2,833.1 		"/>
		<polygon class="st32" points="945.4,838.7 945.4,832.3 939.8,832.3 940.5,833.1 		"/>
	</g>
</g>
<path class="st33" d="M-3477.6,64.5c-0.6-0.8-2.8-5.7-5.3-10.7c-1.7-3.4-1.8-7.2-1.7-9.3c0-0.9,0.4-1.6,0.9-2.3
	c0.4-0.5,0.8-1.4,0.8-2.8c0-2.8-55.6-3.9-55.6-3.9s-55.6,1.1-55.6,3.9c0,1.4,0.4,2.3,0.8,2.8c0.5,0.7,0.9,1.5,0.9,2.3
	c0.1,2.1,0,5.9-1.7,9.3c-2.5,5-4.6,9.9-5.3,10.7s0,15.1,0,18.7v151.9c0,1,0.4,1.9,1,2.7c1.1,1.2,3.1,3.1,5.7,4.7
	c2.4,1.4,4.1,2.7,5.1,3.5c0.7,0.6,1.3,1.4,1.4,2.3l0,0c0.1,0.5,0.3,0.9,0.5,1.3l1.1,1.7c0.7,1.1,1.8,1.7,3,1.8
	c7.4,0.6,33.5,2.5,42.9,2.5c9.8,0,35.6-1.9,42.9-2.5c1.2-0.1,2.4-0.8,3-1.8l1.1-1.7c0.3-0.4,0.4-0.9,0.5-1.3l0,0
	c0.2-0.9,0.7-1.8,1.4-2.3c1-0.8,2.7-2,5.1-3.5c2.6-1.6,4.6-3.5,5.7-4.7c0.7-0.7,1-1.7,1-2.7V83.2
	C-3477.6,79.6-3476.9,65.3-3477.6,64.5z"/>
<path class="st34" d="M-3582.3,246.2c0,0,50.3,5.5,87.7,0"/>
<rect x="-3591.2" y="134.1" class="st35" width="105.5" height="26.5"/>
<path class="st34" d="M-3587.7,42.1c0,0,40.7,4.1,98.6,0"/>
<path class="st35" d="M-3570.2,160.7h63.5c-3.5,24-16.4,41.8-31.7,41.8C-3553.8,202.5-3566.6,184.7-3570.2,160.7z"/>
<path class="st35" d="M-3506.7,134.1h-63.5c3.5-24,16.4-41.8,31.7-41.8C-3523.1,92.3-3510.2,110.1-3506.7,134.1z"/>
<path d="M-2242.3,1750.5h-23.1v-106c0-6.4,5.2-11.6,11.6-11.6l0,0c6.4,0,11.6,5.2,11.6,11.6v106H-2242.3z"/>
<path d="M-2149.8,1762L-2149.8,1762c0,6.4-5.2,11.6-11.6,11.6h-307.1c-6.4,0-11.6-5.2-11.6-11.6l0,0c0-6.4,5.2-11.6,11.6-11.6h307.1
	C-2155,1750.5-2149.8,1755.6-2149.8,1762z"/>
<path d="M-1624.7,1956.6L-1624.7,1956.6c0,6.4-5.2,11.6-11.6,11.6h-307.1c-6.4,0-11.6-5.2-11.6-11.6l0,0c0-6.4,5.2-11.6,11.6-11.6
	h307.1C-1629.9,1945.1-1624.7,1950.2-1624.7,1956.6z"/>
<path d="M-2213.9,1646.5L-2213.9,1646.5c-4.5,4.5-11.8,4.5-16.3,0l-99.2-99.2c-4.5-4.5-4.5-11.8,0-16.3l0,0c4.5-4.5,11.8-4.5,16.3,0
	l99.2,99.2C-2209.3,1634.6-2209.3,1641.9-2213.9,1646.5z"/>
<path d="M-2429.7,1646.5L-2429.7,1646.5c4.5,4.5,11.8,4.5,16.3,0l99.2-99.2c4.5-4.5,4.5-11.8,0-16.3l0,0c-4.5-4.5-11.8-4.5-16.3,0
	l-99.2,99.2C-2434.2,1634.6-2434.2,1641.9-2429.7,1646.5z"/>
<path d="M-2378.3,1750.5h-23.1v-106c0-6.4,5.2-11.6,11.6-11.6l0,0c6.4,0,11.6,5.2,11.6,11.6v106H-2378.3z"/>
<path d="M-2317.6,1750.5h-43.1v-52.4c0-11.9,9.7-21.6,21.6-21.6l0,0c11.9,0,21.6,9.7,21.6,21.6v52.4H-2317.6z"/>
<path d="M-1731.6,1821.3H-1841c-4.3,0-7.9,3.5-7.9,7.9l0,0c0,13.9-11.3,25.2-25.2,25.2l0,0c-10.3,0-18.6,8.3-18.6,18.6v33.7h196.6
	c13.8,0,24.9-11.2,24.9-24.9l0,0C-1671.1,1848.4-1698.2,1821.3-1731.6,1821.3z"/>
<path d="M-1693.7,1843.7h-38.5c-8.7,0-15.8-7.1-15.8-15.8v-38.5c0-8.7,7.1-15.8,15.8-15.8h38.5c8.7,0,15.8,7.1,15.8,15.8v38.5
	C-1677.9,1836.6-1685,1843.7-1693.7,1843.7z"/>
<linearGradient id="SVGID_8_" gradientUnits="userSpaceOnUse" x1="68.2121" y1="2470.9189" x2="68.2121" y2="2543.7671" gradientTransform="matrix(1 0 0 1 0 -2379.1738)">
	<stop  offset="0" style="stop-color:#AE4F6F"/>
	<stop  offset="1" style="stop-color:#6C365E"/>
</linearGradient>
<path class="st36" d="M92.2,93.4h-24h-24c-1.6,0-2.7,1.6-2.1,3.1c1.8,4.3,3.5,11.5,3.9,12.8c2.4,10.1,3.1,20.3,8.1,29.4
	c3.7,6.7,8.1,12.8,12.6,19c0.9,1.2,1.5,1.7,1.5,1.7s0.6-0.5,1.5-1.7c4.5-6.2,8.9-12.3,12.6-19c5-9.1,5.7-19.3,8.1-29.4
	c0.3-1.3,2.1-8.5,3.9-12.8C94.9,95,93.8,93.4,92.2,93.4z"/>
<linearGradient id="SVGID_9_" gradientUnits="userSpaceOnUse" x1="412.8202" y1="2474.8257" x2="412.8202" y2="2534.0447" gradientTransform="matrix(1 0 0 1 0 -2379.1738)">
	<stop  offset="0" style="stop-color:#AE4F6F"/>
	<stop  offset="1" style="stop-color:#6C365E"/>
</linearGradient>
<path class="st37" d="M458.3,100c0.3-2.1-1.6-3.9-4-3.9h-41.5h-41.5c-2.4,0-4.2,1.8-4,3.9c1,8.1,6.2,27.8,32.1,48.9
	c7.5,6.1,19.2,6.1,26.7,0C452.1,127.8,457.3,108.1,458.3,100z"/>
<linearGradient id="SVGID_10_" gradientUnits="userSpaceOnUse" x1="815.9202" y1="2464.7476" x2="815.9202" y2="2504.9419" gradientTransform="matrix(1 0 0 1 0 -2379.1738)">
	<stop  offset="0" style="stop-color:#AE4F6F"/>
	<stop  offset="1" style="stop-color:#6C365E"/>
</linearGradient>
<path class="st38" d="M861.4,88.5c0.3-1.4-1.6-2.6-4-2.6h-41.5h-41.5c-2.4,0-4.2,1.2-4,2.6c1,5.5,6.2,18.8,32.1,33.2
	c7.5,4.1,19.2,4.1,26.7,0C855.2,107.4,860.4,94,861.4,88.5z"/>
<linearGradient id="SVGID_11_" gradientUnits="userSpaceOnUse" x1="1177.4624" y1="2484.1262" x2="1177.4624" y2="2533.833" gradientTransform="matrix(1 0 0 1 0 -2379.1738)">
	<stop  offset="0" style="stop-color:#AE4F6F"/>
	<stop  offset="1" style="stop-color:#6C365E"/>
</linearGradient>
<path class="st39" d="M1231.8,105.4H1183c-1.9,0-3.7,0-5.6,0s-3.7,0-5.6,0h-48.7c-0.6,0.8,1,5.2,1.3,6.2c0.9,2.8,3.7,4.5,6.2,6.2
	c6.3,4.3,9.8,10.3,14.8,15.8c5.5,6.1,12,11.4,18.8,16.1c3.7,2.6,8.5,3.8,13.3,3.8s9.6-1.3,13.3-3.8c6.8-4.7,13.3-9.9,18.8-16.1
	c5-5.5,8.5-11.5,14.8-15.8c2.5-1.7,5.3-3.4,6.2-6.2C1230.8,110.6,1232.4,106.2,1231.8,105.4z"/>
<linearGradient id="SVGID_12_" gradientUnits="userSpaceOnUse" x1="1218.9121" y1="2484.7737" x2="1218.9121" y2="2484.7737" gradientTransform="matrix(1 0 0 1 0 -2379.1738)">
	<stop  offset="0" style="stop-color:#AE4F6F"/>
	<stop  offset="1" style="stop-color:#6C365E"/>
</linearGradient>
<path class="st40" d="M1218.9,105.6"/>
<ellipse transform="matrix(0.1108 -0.9938 0.9938 0.1108 40.2493 131.4039)" class="st13" cx="93.6" cy="43.2" rx="6.1" ry="6.1"/>
<ellipse transform="matrix(0.1586 -0.9873 0.9873 0.1586 -5.6404 153.8725)" class="st13" cx="87.5" cy="80.2" rx="20.1" ry="5.8"/>
<ellipse transform="matrix(0.1454 -0.9894 0.9894 0.1454 988.4993 1258.8672)" class="st13" cx="1222.9" cy="57.2" rx="7.2" ry="4"/>
<ellipse transform="matrix(8.062460e-02 -0.9967 0.9967 8.062460e-02 1026.4491 1302.0122)" class="st13" cx="1219" cy="94.6" rx="20.1" ry="5.8"/>
<ellipse transform="matrix(1.111431e-03 -1 1 1.111431e-03 405.5919 495.343)" class="st13" cx="450.7" cy="44.7" rx="6.1" ry="3.6"/>
<ellipse class="st13" cx="851.8" cy="48.6" rx="3.8" ry="3.8"/>
<path class="st13" d="M455.3,82.6c0,12.7-5.6,24.7-8.2,24.7s-1.1-12-1.1-24.7s2.1-23,4.7-23C453.2,59.6,455.3,69.9,455.3,82.6z"/>
<path class="st13" d="M855.8,82.6c0,7.7-3.9,14-6.1,14c-2.2,0-1.8-6.3-1.8-14s1.8-14,3.9-14C854,68.6,855.8,74.9,855.8,82.6z"/>
<path class="st27" d="M-1269.1,902.1c-10.1,23.8-22.7,61.3-10.1,77.9c19.3,25.3,34.8,29.2,43.1,33.8c15.4,5.9,30.7,0,30.7,0
	c8.2-4,23.9-8.6,43.1-33.8c12.7-16.6,0.1-54.1-10.1-77.9H-1269.1z"/>
<path class="st27" d="M-778.1,845.9c-1.9,17.5-4.4,53.7,14.1,70.3c13.1,11.7,25.1,0,25.1,0c17.1-18.1,16-52.8,14.1-70.3H-778.1z"/>
<path class="st27" d="M-371.9,931.2c-0.4,12.8-0.7,37.1,1.8,46.4c3.5,12.8,4.2,16.3,8,21.8c0,0,12.2,14.4,24.5,0
	c4.3-5.1,4.5-9,8-21.8c2.5-9.3,2.2-33.6,1.8-46.4H-371.9z"/>
<circle class="st13" cx="-1184.5" cy="890.9" r="5"/>
<ellipse transform="matrix(0.9872 -0.1597 0.1597 0.9872 -163.4556 -176.2664)" class="st13" cx="-1178.4" cy="928.9" rx="5" ry="21.5"/>
<ellipse class="st13" cx="-731.6" cy="832.4" rx="2.8" ry="4.5"/>
<ellipse class="st13" cx="-731.6" cy="865" rx="2.8" ry="21.5"/>
<ellipse class="st13" cx="-332.6" cy="946.5" rx="2.7" ry="17.3"/>
<circle class="st13" cx="-332.6" cy="921.8" r="2.7"/>
</svg>
