<?xml version="1.0" encoding="utf-8"?>
<!-- Generator: Adobe Illustrator 22.0.1, SVG Export Plug-In . SVG Version: 6.00 Build 0)  -->
<svg version="1.1" id="Layer_1" xmlns="http://www.w3.org/2000/svg" xmlns:xlink="http://www.w3.org/1999/xlink" x="0px" y="0px"
	 viewBox="0 0 109.4 289.5" style="enable-background:new 0 0 109.4 289.5;" xml:space="preserve">
<style type="text/css">
	.st0{display:none;}
	.st1{display:inline;fill:#FFFFFF;stroke:#000000;stroke-miterlimit:10;}
	.st2{fill:#707B7F;}
	.st3{fill:#CE403F;}
	.st4{fill:#FFFFFF;}
	.st5{fill:#CD915F;}
	.st6{fill:#AA6628;}
	.st7{opacity:0.5;fill:#F9F9FA;enable-background:new    ;}
	.st8{fill:url(#SVGID_1_);}
	.st9{fill:#DDDDDD;}
	.st10{fill:#F7F7F7;}
	.st11{opacity:0.35;fill:#F4F4F5;enable-background:new    ;}
	.st12{fill:url(#SVGID_2_);}
	.st13{opacity:0.6;fill:#F4F4F5;enable-background:new    ;}
	.st14{display:none;fill:#34A6C9;stroke:#1B8EB7;stroke-width:10;stroke-miterlimit:10;}
	.st15{display:none;fill:#F27CA7;stroke:#C94C72;stroke-width:10;stroke-miterlimit:10;}
	.st16{fill:#476269;}
	.st17{fill:#222728;}
	.st18{fill:#DDDDDC;}
	.st19{fill:#F6F7F7;}
	.st20{fill:url(#SVGID_3_);}
	.st21{fill:url(#SVGID_4_);}
	.st22{enable-background:new    ;}
	.st23{fill:#F9F9FA;stroke:#E2E2E2;stroke-width:3;stroke-miterlimit:10;}
	.st24{fill:none;stroke:#E2E2E2;stroke-width:3;stroke-miterlimit:10;}
	.st25{fill:#D95F56;}
	.st26{fill:url(#SVGID_5_);}
	.st27{fill:url(#SVGID_6_);}
	.st28{opacity:0.84;fill:#E8CD2C;enable-background:new    ;}
	.st29{opacity:0.39;fill:#90D7EB;enable-background:new    ;}
	.st30{opacity:0.84;fill:url(#SVGID_7_);enable-background:new    ;}
	.st31{fill:#D2E8C9;stroke:#6EBF59;stroke-width:2;stroke-miterlimit:10;}
	.st32{fill:none;}
	.st33{fill:#E4F1DD;}
	.st34{fill:#7AC25B;}
	.st35{fill:none;stroke:#E2E2E2;stroke-miterlimit:10;}
	.st36{fill:#157D3E;stroke:#E2E2E2;stroke-width:3;stroke-miterlimit:10;}
	.st37{fill:url(#SVGID_8_);}
	.st38{fill:url(#SVGID_9_);}
	.st39{fill:url(#SVGID_10_);}
	.st40{fill:url(#SVGID_11_);}
	.st41{fill:url(#SVGID_12_);}
</style>
<g id="Layer_1_1_" class="st0">
	<rect x="-2372.4" y="-224.2" class="st1" width="136.5" height="482"/>
</g>
<path class="st2" d="M-2108.8,1553.3h-127c-11.1,0-20.2-9.1-20.2-20.2v-93.6c0-11.1,9.1-20.2,20.2-20.2h127
	c11.1,0,20.2,9.1,20.2,20.2v93.6C-2088.6,1544.2-2097.7,1553.3-2108.8,1553.3z"/>
<rect x="-2837.5" y="-385.6" class="st3" width="658.6" height="188.9"/>
<circle class="st4" cx="-3411.9" cy="63.8" r="6.2"/>
<g>
	<polygon class="st5" points="-2220.7,-647.8 -2262.9,-635.2 -2170.4,-635.2 	"/>
	<polygon class="st5" points="-1882.3,-647.8 -1840.2,-635.2 -1932.7,-635.2 	"/>
	<rect x="-2220.8" y="-647.8" class="st5" width="338.4" height="14.9"/>
	<rect x="-2262.9" y="-635.2" class="st6" width="422.8" height="11.1"/>
</g>
<path class="st7" d="M-3293.6,296.5h-148.8c-11.7,0-21.2-9.5-21.2-21.2V47.7c0-11.7,9.5-21.2,21.2-21.2h148.8
	c11.7,0,21.2,9.5,21.2,21.2v227.7C-3272.4,287-3281.9,296.5-3293.6,296.5z"/>
<linearGradient id="SVGID_1_" gradientUnits="userSpaceOnUse" x1="-3369.5417" y1="-1370.6001" x2="-3369.5417" y2="-1146.3784" gradientTransform="matrix(1 0 0 1 0 1429.8)">
	<stop  offset="0" style="stop-color:#FFCC4C"/>
	<stop  offset="1" style="stop-color:#FEBF4B"/>
</linearGradient>
<path class="st8" d="M-3310.1,284.3h-118.8c-11.7,0-21.2-9.5-21.2-21.2V80.4c0-11.7,9.5-21.2,21.2-21.2h118.8
	c11.7,0,21.2,9.5,21.2,21.2v182.7C-3288.9,274.8-3298.4,284.3-3310.1,284.3z"/>
<circle class="st9" cx="-3425.4" cy="57.6" r="33"/>
<circle class="st9" cx="-3389.7" cy="48" r="23.4"/>
<circle class="st9" cx="-3354.7" cy="57.9" r="23.4"/>
<circle class="st9" cx="-3305.2" cy="53.1" r="28.2"/>
<circle class="st10" cx="-3354.7" cy="48.9" r="23.4"/>
<circle class="st10" cx="-3333.4" cy="38.9" r="11.7"/>
<path class="st10" d="M-3413.1,38.9c0-1.5,0.1-2.9,0.4-4.3h-42.6c-2,4.2-3.1,9-3.1,14c0,18.2,14.8,33,33,33
	c13.6,0,25.3-8.2,30.3-19.9C-3405.4,59.2-3413.1,50-3413.1,38.9z"/>
<path class="st10" d="M-3392.4,48.6c0,4.6-1,9.1-2.7,13.1c1.7,0.4,3.5,0.6,5.4,0.6c12.9,0,23.4-10.5,23.4-23.4
	c0-1.5-0.1-2.9-0.4-4.3h-28.7C-3393.5,38.8-3392.4,43.6-3392.4,48.6z"/>
<path class="st10" d="M-3395.5,34.6h-17.2c-0.3,1.4-0.4,2.8-0.4,4.3c0,11.1,7.7,20.3,18,22.7c1.7-4,2.7-8.4,2.7-13.1
	C-3392.4,43.6-3393.5,38.8-3395.5,34.6z"/>
<path class="st10" d="M-3278.6,34.6h-53.1c-1.1,3-1.6,6.1-1.6,9.5c0,15.6,12.6,28.2,28.2,28.2c15.6,0,28.2-12.6,28.2-28.2
	C-3277,40.7-3277.6,37.5-3278.6,34.6z"/>
<path class="st10" d="M-3274,35.4c0,0-0.1-0.1-0.2-0.2C-3274.2,35.3-3274.1,35.4-3274,35.4L-3274,35.4z"/>
<path class="st10" d="M-3278.6,34.6h-116.9c-2.4-5-5.9-9.3-10.3-12.6c-3.5,3.3-5.9,7.7-6.8,12.6h-42.6c0.5-1.1,1.1-2.2,1.8-3.3
	c4.2-4.6,12.7-12.3,22.7-12.3h55.4c0,0,6.7,0,16,0h55.4c13.2,0,23.9,13.4,25.3,15.3C-3278.7,34.4-3278.7,34.5-3278.6,34.6z"/>
<path class="st10" d="M-3412.7,34.6h17.2c-2.3-5-5.9-9.3-10.3-12.6C-3409.3,25.3-3411.7,29.7-3412.7,34.6z"/>
<path class="st7" d="M-3215.6,100.4c-2.3-11.7-10.8-20.4-21-20.4h-35.8v22.5h25.3c6,0,10.8,5.9,10.8,13.3v77.4
	c0,7.3-4.8,13.3-10.8,13.3h-25.3v23.4h35.8c10.7,0,19.6-9.6,21.3-22.2c0.2-1.1,0.3-2.2,0.3-3.4v-1l0,0v-96.7l0,0v-1.4
	C-3215,103.5-3215.2,101.9-3215.6,100.4z"/>
<path class="st11" d="M-3416.6,254.1L-3416.6,254.1c-6,0-10.8-4.8-10.8-10.8v-134c0-6,4.8-10.8,10.8-10.8l0,0
	c6,0,10.8,4.8,10.8,10.8v134C-3405.7,249.3-3410.6,254.1-3416.6,254.1z"/>
<path class="st11" d="M-3366.3,254.1L-3366.3,254.1c-6,0-10.8-4.8-10.8-10.8v-134c0-6,4.8-10.8,10.8-10.8l0,0
	c6,0,10.8,4.8,10.8,10.8v134C-3355.5,249.3-3360.4,254.1-3366.3,254.1z"/>
<path class="st11" d="M-3317.3,250.8L-3317.3,250.8c-6,0-10.8-4.8-10.8-10.8V106c0-6,4.8-10.8,10.8-10.8l0,0c6,0,10.8,4.8,10.8,10.8
	v134C-3306.4,246-3311.3,250.8-3317.3,250.8z"/>
<g>
	<circle class="st4" cx="334.7" cy="836" r="4.7"/>
	<path class="st7" d="M420.6,1018.2H316.2c-11.7,0-21.2-9.5-21.2-21.2V832c0-11.7,9.5-21.2,21.2-21.2h104.4
		c11.7,0,21.2,9.5,21.2,21.2v165C441.8,1008.7,432.3,1018.2,420.6,1018.2z"/>
	
		<linearGradient id="SVGID_2_" gradientUnits="userSpaceOnUse" x1="367.2584" y1="-593.8" x2="367.2584" y2="-421.6418" gradientTransform="matrix(1 0 0 1 0 1429.8)">
		<stop  offset="0" style="stop-color:#FFCC4C"/>
		<stop  offset="1" style="stop-color:#FEBF4B"/>
	</linearGradient>
	<path class="st12" d="M408,1008.8h-81.4c-11.7,0-21.2-9.5-21.2-21.2V857.2c0-11.7,9.5-21.2,21.2-21.2H408
		c11.7,0,21.2,9.5,21.2,21.2v130.4C429.2,999.3,419.7,1008.8,408,1008.8z"/>
	<circle class="st9" cx="324.4" cy="831.3" r="25.3"/>
	<circle class="st9" cx="351.8" cy="823.9" r="17.9"/>
	<circle class="st9" cx="378.6" cy="831.5" r="17.9"/>
	<circle class="st9" cx="416.7" cy="827.8" r="21.6"/>
	<circle class="st10" cx="378.6" cy="824.6" r="17.9"/>
	<circle class="st10" cx="395" cy="816.9" r="9"/>
	<path class="st10" d="M333.8,816.9c0-1.1,0.1-2.2,0.3-3.3h-32.7c-1.5,3.3-2.4,6.9-2.4,10.7c0,14,11.3,25.3,25.3,25.3
		c10.4,0,19.4-6.3,23.3-15.3C339.7,832.5,333.8,825.4,333.8,816.9z"/>
	<path class="st10" d="M349.7,824.3c0,3.6-0.7,7-2.1,10c1.3,0.3,2.7,0.5,4.1,0.5c9.9,0,17.9-8,17.9-17.9c0-1.1-0.1-2.2-0.3-3.3
		h-22.1C348.9,816.9,349.7,820.5,349.7,824.3z"/>
	<path class="st10" d="M347.3,813.6h-13.2c-0.2,1.1-0.3,2.2-0.3,3.3c0,8.5,5.9,15.6,13.8,17.5c1.3-3.1,2.1-6.5,2.1-10
		C349.7,820.5,348.9,816.9,347.3,813.6z"/>
	<path class="st10" d="M437.1,813.6h-40.8c-0.8,2.3-1.3,4.7-1.3,7.3c0,12,9.7,21.6,21.6,21.6c12,0,21.6-9.7,21.6-21.6
		C438.3,818.3,437.9,815.9,437.1,813.6z"/>
	<path class="st10" d="M440.6,817.7c0,0-0.1-0.1-0.1-0.2C440.5,817.6,440.5,817.7,440.6,817.7L440.6,817.7z"/>
	<path class="st10" d="M437.1,813.6h-89.7c-1.8-3.8-4.5-7.2-7.9-9.7c-2.7,2.5-4.6,5.9-5.3,9.7h-32.7c0.4-0.9,0.9-1.7,1.4-2.5
		c3.2-3.5,9.8-9.4,17.5-9.4h42.5c0,0,5.1,0,12.3,0h42.5c10,0,18.2,10.2,19.3,11.7C437,813.5,437,813.5,437.1,813.6z"/>
	<path class="st10" d="M334.1,813.6h13.2c-1.8-3.8-4.5-7.2-7.9-9.7C336.7,806.5,334.8,809.8,334.1,813.6z"/>
	<path class="st7" d="M485.4,867.6c-1.7-9-8.3-15.7-16.1-15.7h-27.5v17.3h19.4c4.6,0,8.3,4.6,8.3,10.2v59.4c0,5.6-3.7,10.2-8.3,10.2
		h-19.4v17.9h27.5c8.2,0,15.1-7.4,16.4-17c0.1-0.8,0.2-1.7,0.2-2.6v-0.8l0,0v-74.2l0,0v-1.1C485.9,870,485.7,868.8,485.4,867.6z"/>
	<path class="st13" d="M331.1,985.6L331.1,985.6c-4.6,0-8.3-3.7-8.3-8.3V874.4c0-4.6,3.7-8.3,8.3-8.3l0,0c4.6,0,8.3,3.7,8.3,8.3
		v102.9C339.5,981.9,335.7,985.6,331.1,985.6z"/>
	<path class="st13" d="M369.7,985.6L369.7,985.6c-4.6,0-8.3-3.7-8.3-8.3V874.4c0-4.6,3.7-8.3,8.3-8.3l0,0c4.6,0,8.3,3.7,8.3,8.3
		v102.9C378,981.9,374.3,985.6,369.7,985.6z"/>
	<path class="st13" d="M407.4,983.1L407.4,983.1c-4.6,0-8.3-3.7-8.3-8.3V871.9c0-4.6,3.7-8.3,8.3-8.3l0,0c4.6,0,8.3,3.7,8.3,8.3
		v102.9C415.7,979.4,412,983.1,407.4,983.1z"/>
</g>
<path class="st14" d="M-2458.6,684.5v-32.9l5.8,5.8c9.5,9.5,25,9.5,34.5,0s9.5-25,0-34.5l-45-45l-2.9-2.9
	c-4.5-4.5-10.2-6.8-16.1-7.1c-0.2,0-0.5,0-0.8,0c-0.1,0-0.2,0-0.2,0c-0.1,0-0.1,0-0.2,0c-0.1,0-0.1,0-0.2,0
	c-6.3-0.1-12.7,2.3-17.5,7.2l-47.9,47.9c-9.5,9.5-9.5,25,0,34.5s25,9.5,34.5,0l7.1-7.1l0.6,33.7c-34.6,10-59.9,41.9-59.9,79.8
	c0,45.9,37.2,83.1,83.1,83.1c45.9,0,83.1-37.2,83.1-83.1C-2400.6,726.5-2425,695.1-2458.6,684.5z M-2483.7,798.9
	c-19.4,0-35.2-15.8-35.2-35.2s15.8-35.2,35.2-35.2s35.2,15.8,35.2,35.2S-2464.2,798.9-2483.7,798.9z"/>
<path class="st15" d="M-2172.6,726.1c32.4-32.4,32.4-85.1,0-117.5c-32.4-32.4-85.1-32.4-117.5,0s-32.4,85.1,0,117.5
	c10.6,10.6,23.3,17.7,36.8,21.4v25.9h-9.6c-12.1,0-21.9,9.8-21.9,21.9l0,0c0,12.1,9.8,21.9,21.9,21.9h9.6v9.6
	c0,12.1,9.8,21.9,21.9,21.9l0,0c12.1,0,21.9-9.8,21.9-21.9v-9.6h9.6c12.1,0,21.9-9.8,21.9-21.9l0,0c0-12.1-9.8-21.9-21.9-21.9h-9.6
	v-25.9C-2195.9,743.8-2183.2,736.7-2172.6,726.1z M-2256.2,642.4c13.8-13.8,36-13.8,49.8,0s13.8,36,0,49.8s-36,13.8-49.8,0
	C-2270,678.5-2270,656.2-2256.2,642.4z"/>
<rect x="-2381.1" y="504.1" class="st16" width="578.1" height="600.5"/>
<path class="st4" d="M-2231.2,682l-59.5,59.5c-6.3,6.3-16.4,6.3-22.7,0l0,0c-6.3-6.3-6.3-16.4,0-22.7l59.5-59.5
	c6.3-6.3,16.4-6.3,22.7,0l0,0C-2225,665.6-2225,675.8-2231.2,682z"/>
<path class="st4" d="M-2194.4,741.5l-59.5-59.5c-6.3-6.3-6.3-16.4,0-22.7l0,0c6.3-6.3,16.4-6.3,22.7,0l59.5,59.5
	c6.3,6.3,6.3,16.4,0,22.7l0,0C-2178,747.7-2188.2,747.7-2194.4,741.5z"/>
<path class="st4" d="M-2222.7,692.7v75.2c0,11.9-9.6,21.5-21.5,21.5l0,0c-11.9,0-21.5-9.6-21.5-21.5v-75.2
	c0-11.9,9.6-21.5,21.5-21.5l0,0C-2232.3,671.2-2222.7,680.8-2222.7,692.7z"/>
<path class="st4" d="M-2242.6,768.2c-52.3,0-94.6,42.4-94.6,94.6c0,52.2,42.4,94.6,94.6,94.6s94.6-42.4,94.6-94.6
	C-2148,810.6-2190.3,768.2-2242.6,768.2z M-2242.6,921c-32.1,0-58.2-26-58.2-58.2c0-32.1,26-58.2,58.2-58.2
	c32.1,0,58.2,26,58.2,58.2S-2210.4,921-2242.6,921z"/>
<path class="st4" d="M-2001.9,936V834.5c0-11.9,9.6-21.5,21.5-21.5l0,0c11.9,0,21.5,9.6,21.5,21.5v101.4c0,11.9-9.6,21.5-21.5,21.5
	l0,0C-1992.2,957.5-2001.9,947.8-2001.9,936z"/>
<path class="st4" d="M-1940.5,915.2h-79.7c-11.9,0-21.5-9.6-21.5-21.5l0,0c0-11.9,9.6-21.5,21.5-21.5h79.7
	c11.9,0,21.5,9.6,21.5,21.5l0,0C-1919,905.5-1928.7,915.2-1940.5,915.2z"/>
<path class="st4" d="M-1982,834.2c52.3,0,94.6-42.4,94.6-94.6c0-52.2-42.4-94.6-94.6-94.6s-94.6,42.4-94.6,94.6
	S-2034.3,834.2-1982,834.2z M-1982,681.4c32.1,0,58.2,26,58.2,58.2c0,32.1-26,58.2-58.2,58.2c-32.1,0-58.2-26-58.2-58.2
	C-2040.2,707.5-2014.1,681.4-1982,681.4z"/>
<rect x="-2895.7" y="504.1" class="st17" width="508.9" height="434.6"/>
<path class="st4" d="M-2616.8,681.4l-59.5,59.5c-6.3,6.3-16.4,6.3-22.7,0l0,0c-6.3-6.3-6.3-16.4,0-22.7l59.5-59.5
	c6.3-6.3,16.4-6.3,22.7,0l0,0C-2610.5,665-2610.5,675.2-2616.8,681.4z"/>
<path class="st4" d="M-2580,740.9l-59.5-59.5c-6.3-6.3-6.3-16.4,0-22.7l0,0c6.3-6.3,16.4-6.3,22.7,0l59.5,59.5
	c6.3,6.3,6.3,16.4,0,22.7l0,0C-2563.6,747.2-2573.7,747.2-2580,740.9z"/>
<path class="st4" d="M-2610.5,689.8v79.8c0,10.6-8.6,19.2-19.2,19.2l0,0c-10.6,0-19.2-8.6-19.2-19.2v-79.8
	c0-10.6,8.6-19.2,19.2-19.2l0,0C-2619.1,670.6-2610.5,679.2-2610.5,689.8z"/>
<path class="st18" d="M-2746.4-343.6c-18,0-34.3,7.5-45.7,19.5v83.2c11.4,12,27.6,19.5,45.7,19.5c34.4,0,62.4-27.4,62.4-61.1
	S-2711.9-343.6-2746.4-343.6z"/>
<path class="st18" d="M-2207.9-314.7c-8-8.2-19.5-13.4-32.2-13.4c-24.1,0-43.7,18.4-43.7,41.1s19.6,41.1,43.7,41.1
	c12.8,0,24.3-5.2,32.2-13.4V-314.7z"/>
<ellipse class="st18" cx="-2664.2" cy="-295.6" rx="28" ry="27.5"/>
<ellipse class="st18" cx="-2589.1" cy="-288.1" rx="54.2" ry="53.1"/>
<ellipse class="st18" cx="-2509.8" cy="-292.9" rx="35.9" ry="35.2"/>
<ellipse class="st18" cx="-2444.6" cy="-308.8" rx="33.6" ry="32.9"/>
<ellipse class="st18" cx="-2410.4" cy="-285.4" rx="38.4" ry="37.6"/>
<ellipse class="st18" cx="-2347.7" cy="-294" rx="38" ry="37.3"/>
<ellipse class="st18" cx="-2298.5" cy="-305.4" rx="23.2" ry="22.7"/>
<path class="st18" d="M-2207.9-290H-2791c2.2-15.3,1.6-11,3.5-24.2l0,0c0-13.3,12.2-24.2,27.2-24.2h521.7c15,0,27.2,10.8,27.2,24.2
	l0,0C-2210.2-302-2210.3-302.3-2207.9-290z"/>
<circle class="st19" cx="-2664.2" cy="-307.8" r="28"/>
<circle class="st19" cx="-2589.1" cy="-300.2" r="54.2"/>
<circle class="st19" cx="-2509.8" cy="-305" r="35.9"/>
<circle class="st19" cx="-2444.6" cy="-321.2" r="33.6"/>
<circle class="st19" cx="-2410.4" cy="-297.4" r="38.4"/>
<circle class="st19" cx="-2347.7" cy="-306.1" r="38"/>
<circle class="st19" cx="-2298.5" cy="-317.8" r="23.2"/>
<rect x="-2791.8" y="-361.3" class="st19" width="583.9" height="61.1"/>
<path class="st19" d="M-2207.9-328c-8-8.4-19.5-13.7-32.2-13.7c-24.1,0-43.7,18.8-43.7,41.9s19.6,41.9,43.7,41.9
	c12.8,0,24.3-5.3,32.2-13.7V-328z"/>
<path class="st19" d="M-2746.4-358.6c-18,0-34.3,7.7-45.7,19.9v84.9c11.4,12.2,27.6,19.9,45.7,19.9c34.4,0,62.4-27.9,62.4-62.4
	S-2711.9-358.6-2746.4-358.6z"/>
<path class="st7" d="M-3504.3,265.2c1.4,1.9,2.6,3.6,3.7,5.2c6,8.5,2.2,20.3-7.8,23.9c-8.4,3-21.4,5.2-41.4,4.8
	c-20.1,0.4-33.1-1.8-41.5-4.8c-10-3.5-13.8-15.4-7.8-23.9c1.1-1.6,2.3-3.3,3.7-5.2c8.4-11.5,11-58.3,7.8-119.2
	c-2.6-49.2-25.6-180.6-34.4-229.4c-1.7-9.7,5.9-18.6,16-18.6h112.2c10.1,0,17.8,8.9,16,18.6c-8.8,48.8-31.8,180.2-34.4,229.4
	C-3515.3,206.9-3512.7,253.7-3504.3,265.2z"/>
<g>
	
		<linearGradient id="SVGID_3_" gradientUnits="userSpaceOnUse" x1="-3549.8916" y1="-1484.5332" x2="-3549.8916" y2="-1181.9698" gradientTransform="matrix(1 0 0 1 0 1429.8)">
		<stop  offset="0" style="stop-color:#FFCC4C"/>
		<stop  offset="1" style="stop-color:#FEBF4B"/>
	</linearGradient>
	<path class="st20" d="M-3520.7,135.1c2-38,19.8-139.3,26.5-177c1.3-7.5-4.6-14.3-12.4-14.3h-86.5c-7.8,0-13.7,6.8-12.4,14.3
		c6.8,37.6,24.5,139,26.5,177c0.9,16.3,1.2,79.1,1,92c-0.2,15.3,11.4,19.1,26.6,19.9c0.5,0,1,0,1.5,0s1,0,1.5,0
		c15.2-0.8,26.9-4.6,26.6-19.9C-3521.9,214.1-3521.6,151.4-3520.7,135.1z"/>
</g>
<circle class="st13" cx="-3514.9" cy="-34.2" r="6.1"/>
<ellipse transform="matrix(0.1256 -0.9921 0.9921 0.1256 -3127.1724 -3460.5344)" class="st13" cx="-3526.7" cy="43.7" rx="53" ry="6.1"/>
<g>
	<path class="st7" d="M-3662.9,284.1c0.8,2.1,0.1,4-1.5,5.5c-3.6,3.2-9.4,4.2-14,5c-11.5,1.9-23.2,2-34.8,1.9
		c-11.6,0.1-23.4,0-34.8-1.9c-4.6-0.8-10.4-1.7-14-5c-1.6-1.5-2.3-3.4-1.5-5.5c0.8-2,2.5-3.5,4.7-3.8c1.3-0.2,2.6-0.3,4-0.5
		c5.2-0.9,10.2-2.7,15-4.9c13.4-6,22-13.8,22-13.8s0.8-103,0.8-121.9s-38.2-28.4-54-46.5c-15.8-18.2,18.5-106.5,18.5-106.5h78.9
		c0,0,36.7,86.7,20.9,104.8s-56.4,29.3-56.4,48.2s0.8,121.9,0.8,121.9s8.6,7.8,22,13.8c4.8,2.1,9.8,3.9,15,4.9
		c1.3,0.2,2.6,0.3,4,0.5C-3665.4,280.6-3663.7,282.1-3662.9,284.1z"/>
	
		<linearGradient id="SVGID_4_" gradientUnits="userSpaceOnUse" x1="-3712.0918" y1="-1422.4954" x2="-3712.0918" y2="-1312.2866" gradientTransform="matrix(1 0 0 1 0 1429.8)">
		<stop  offset="0" style="stop-color:#FFCC4C"/>
		<stop  offset="1" style="stop-color:#FEBF4B"/>
	</linearGradient>
	<path class="st21" d="M-3669.5,94l-37.7,21.8c-3,1.7-6.8,1.7-9.8,0l-37.7-21.8c-0.3-0.2-0.6-0.3-0.8-0.4c-2.2-1-15.2-8.3-5.3-39.8
		l9.8-38.6c1.1-4.3,5-7.4,9.5-7.4h58.8c4.5,0,8.4,3,9.5,7.4l9.9,38.6c9.9,31.5-3.1,38.8-5.3,39.8C-3669,93.7-3669.2,93.8-3669.5,94z
		"/>
	<circle class="st13" cx="-3683.9" cy="30" r="6.1"/>
	<ellipse class="st13" cx="-3683.9" cy="63" rx="6.1" ry="17"/>
</g>
<text transform="matrix(1 0 0 1 -2820.8767 30.0402)" style="font-family:'MyriadPro-Regular'; font-size:72px;">Beer</text>
<text transform="matrix(1 0 0 1 -1361.2295 -151.2128)" style="font-family:'MyriadPro-Regular'; font-size:72px;">Cocktail</text>
<path class="st23" d="M-1544.6,290.7c-77,0-50.8-18-50.8-18s14.7-4.4,27.8-6.6c13.1-2.2,16.3-27.3,16.3-27.3s0-73.2,0-95
	c0-21.9-5-22.9-5-22.9l-73.6-93.7h170.4l-73.6,93.7c0,0-5,1-5,22.9c0,21.8,0,95,0,95s3.2,25.1,16.3,27.3c13.1,2.2,27.9,6.6,27.9,6.6
	S-1467.6,290.7-1544.6,290.7z"/>
<path class="st23" d="M-1251.1,72.8c-12.3,13.9-52.3,27.8-58,37.6c0,0-0.4,8.6-9.1,9.1c0,0-4.5,3.2-4.5,13.2s-4.3,112,0,116.3
	c4.3,4.3,36.7,14.1,42.2,15.9c5.5,1.8,38.8,25-54,25s-59.4-23.2-54-25c5.5-1.8,37.9-11.6,42.2-15.9c4.3-4.3,0-106.3,0-116.3
	s-4.6-13.2-4.6-13.2c-8.6-0.5-9.1-9.1-9.1-9.1c-5.7-9.8-45.8-23.7-58-37.6c-12.3-13.9-9-46.6-9-46.6h184.8
	C-1242.1,26.2-1238.8,58.9-1251.1,72.8z"/>
<path class="st23" d="M-1178.3,289.5c-37.3-5.2-19.8-13.9-19.8-13.9l25.9-9.8v-107c-12.1-6.8-20.5-22.5-20.5-22.5
	c-14-24.2-5.4-143.7-5.4-143.7h60.6c0,0,8.6,119.5-5.4,143.7c0,0-8.4,15.6-20.5,22.5v107l25.9,9.8c0,0,17.5,8.7-19.8,13.9
	C-1164.3,290.4-1171.4,290.4-1178.3,289.5z"/>
<path class="st23" d="M-1001.8,63.6c6.4,48.4,20.4,121.1,1.3,140.2c-12.4,12.4-18.3,19.6-20.9,23.1c-1.2,1.6-1.6,3.6-1.1,5.5
	c1.2,5.2,3.3,16.3,0.7,21c-0.9,1.7-1.8,3.3-2.5,4.9c-1.8,3.9,0.5,8.5,4.7,9.4l17.8,3.9c0.2,0,0.4,0.1,0.7,0.2
	c4.1,1.3,41,14.1-33.3,18.8c-0.3,0-0.6,0-0.9,0c-74.3-4.7-37.3-17.5-33.3-18.8c0.2-0.1,0.4-0.1,0.7-0.2l17.8-3.9
	c4.2-0.9,6.5-5.5,4.7-9.4c-0.7-1.5-1.5-3.2-2.5-4.9c-2.6-4.8-0.5-15.8,0.7-21c0.4-1.9,0-3.9-1.1-5.5c-2.6-3.5-8.5-10.7-20.9-23.1
	c-19.1-19.1-5.1-91.8,1.3-140.2c3.8-29-3.8-48-10.5-58.5c-2.9-4.5,0.4-10.3,5.7-10.3h76c5.3,0,8.5,5.9,5.7,10.3
	C-998,15.6-1005.6,34.6-1001.8,63.6z"/>
<path class="st23" d="M-818.6,19.6l-5,253.9c-0.1,5.5-3.8,10.2-9.1,11.7c-7.7,2.2-21.6,4.6-45.8,5c-24.2-0.3-38-2.7-45.8-5
	c-5.3-1.5-8.9-6.2-9.1-11.7l-5-253.9c-0.1-7,5.5-12.7,12.4-12.7h94.7C-824,7-818.4,12.7-818.6,19.6z"/>
<path class="st23" d="M-725.7,288.4c-59.6,0.5-52.6-4.3-34.3-14.3c16.8-9.2,12.4-29.6,11.5-32.8c-0.1-0.3-0.1-0.7-0.2-1L-771-55
	c-0.3-3.5,2.5-6.6,6.1-6.6h78.3c3.6,0,6.4,3,6.1,6.6l-22.3,295.3c0,0.3-0.1,0.7-0.2,1c-0.8,3.3-5.3,23.7,11.5,32.8
	C-673.1,284.1-666.1,288.9-725.7,288.4z"/>
<text transform="matrix(1 0 0 1 -1361.2288 721.443)" style="font-family:'MyriadPro-Regular'; font-size:72px;">Lhao</text>
<path class="st23" d="M-1355.2,994.2c-23.7,31.1-43,36.1-53.2,41.7s-16.2,26.8,3.2,30.9c19.4,4.2,27.9,6.7,27.9,6.7
	s35.7,18.2-50,18.2c-86.4,0-50-18.2-50-18.2s8.4-2.5,27.8-6.7c19.4-4.1,13.4-25.4,3.2-30.9c-10.2-5.6-29.4-10.5-53.2-41.7
	c-23.7-31.1,24.6-122.1,24.6-122.1h95C-1379.7,872.2-1331.4,963.1-1355.2,994.2z"/>
<path class="st24" d="M-1275.4,1091.8c-66.8-0.8-42.6-10.7-26.2-11.9c16.4-1.2,21.7-15.2,21.7-15.2s-0.8-91.8,0-107.3
	c0.8-15.6-11.7-23.3-11.7-23.3c-30.1-32-16.2-104.1-16.2-104.1h64.7c0,0,13.9,72.1-16.2,104.1c0,0-12.5,7.8-11.7,23.3
	c0.8,15.6,0,107.3,0,107.3s5.3,13.9,21.7,15.2C-1232.8,1081.1-1208.6,1090.9-1275.4,1091.8z"/>
<path class="st23" d="M-1165.5,1091.8c-39.6,0-30.4-5.9-23.1-9.4c7-3.4,15.4-9.1,15.4-9.1l1.3-28.9c0.9-20.1-4.1-22.3-8.8-29.2
	c-4.7-6.9-5.6-11.3-10-27.3s-1.9-68.1-1.9-68.1h54.4c0,0,2.5,52.1-1.9,68.1s-5.3,20.4-10,27.3c-4.7,6.9-9.7,9.1-8.8,29.2l1.3,28.9
	c0,0,8.4,5.7,15.4,9.1C-1135.1,1085.9-1125.9,1091.8-1165.5,1091.8z"/>
<path class="st23" d="M-1027.7,970.7c4.1,0,7.4,3.4,7.2,7.5l-3.8,95.7c0,0-0.9,17.9-13.2,17.9c-17.1,0-28.7,0-28.7,0s-11.6,0-28.7,0
	c-12.3,0-13.2-17.9-13.2-17.9l-3.8-95.7c-0.2-4.1,3.1-7.5,7.2-7.5L-1027.7,970.7L-1027.7,970.7z"/>
<ellipse class="st13" cx="-1097.2" cy="1031.2" rx="2.7" ry="39.4"/>
<ellipse class="st13" cx="-1087.1" cy="1031.2" rx="2.7" ry="39.4"/>
<ellipse class="st13" cx="-1070.1" cy="1031.2" rx="2.7" ry="39.4"/>
<ellipse class="st13" cx="-1059.8" cy="1031.2" rx="2.7" ry="39.4"/>
<ellipse class="st13" cx="-1042.5" cy="1031.2" rx="2.7" ry="39.4"/>
<ellipse class="st13" cx="-1034.4" cy="1031.2" rx="2.7" ry="39.4"/>
<path class="st13" d="M-1091,1077.9c-0.7,0-1.3,4.6-1.7,12.3h3.5C-1089.8,1082.5-1090.4,1077.9-1091,1077.9z"/>
<path class="st13" d="M-1064.8,1076.2c-0.7,0-1.4,5.3-1.8,13.9h3.7C-1063.5,1081.5-1064.1,1076.2-1064.8,1076.2z"/>
<path class="st13" d="M-1038.7,1077.9c-0.7,0-1.3,4.6-1.7,12.3h3.5C-1037.4,1082.5-1038,1077.9-1038.7,1077.9z"/>
<text transform="matrix(1 0 0 1 -106.7766 -151.2131)" style="font-family:'MyriadPro-Regular'; font-size:72px;">Wine</text>
<path class="st7" d="M-290.6,288.4c-103.5-0.2-51.2-11.8-48-12.5c0.1,0,0.2,0,0.3-0.1c1.8-0.5,17.6-5.2,22.9-8.2
	c5.5-3.2,14.6-18.7,14.8-25.7c0.2-6.3-4-21.5-5-25.2c-0.2-0.5-0.4-1-0.7-1.5c-7.5-11-1.3-17.9,3.1-24.8c4.5-7,2-23.6-1.9-30
	c-3.8-6.4-13.9-31.9-17.7-51c-3.1-15.9-27.1-81.2-35-102.7c-1.2-3.3,1.2-6.9,4.8-6.9l126.2,0.3c3.6,0,6,3.6,4.8,6.9
	c-8.1,21.4-32.3,86.6-35.5,102.5c-3.9,19.1-14.1,44.6-18,50.9c-3.8,6.4-6.4,22.9-2,30c4.4,6.9,10.5,13.9,3,24.8
	c-0.3,0.5-0.6,0.9-0.7,1.5c-1,3.6-5.3,18.9-5.1,25.2c0.2,7,9.2,22.6,14.7,25.8c5.2,3.1,21.1,7.8,22.8,8.3c0.1,0,0.2,0.1,0.3,0.1
	C-239.3,276.9-187.1,288.7-290.6,288.4z"/>
<path class="st7" d="M60.9,163.2v101.1c0,0,16.4,7.2,26.1,10.7c8.8,3.2,30.8,14.5-32.3,14.5S13.6,278.2,22.4,275
	c9.7-3.5,26-10.7,26-10.7V163.2c0,0-3.9-2.4-12.9-8.9c-10.2-7.4-27.4-26.8-33.9-48.7C-5,83.7,11.5,0,11.5,0H98
	c0,0,16.4,83.8,9.9,105.6c-6.6,21.9-23.7,41.3-33.9,48.7C64.8,160.8,60.9,163.2,60.9,163.2z"/>
<path class="st7" d="M465.1,139.6c0,6.3-0.4,117.8-0.4,117.8l25.6,14.7c0,0,44.2,16.3-32.6,16.3s-32.6-16.3-32.6-16.3l25.6-14.7
	c0,0-0.4-111.5-0.4-117.8c0-6.3-3.1-8-8.5-11.4c-5.4-3.4-25-14.8-35.1-32.4s12.4-95.9,12.4-95.9h77.3c0,0,22.5,78.4,12.4,95.9
	c-10.1,17.6-29.7,29-35.1,32.4C468.3,131.6,465.1,133.4,465.1,139.6z"/>
<path class="st7" d="M713,180.4c0,4.6,0,69.5,0,69.5s15.3,22.4,24.2,23s44.4,15.5-32.5,15.5s-41.4-14.9-32.5-15.5s24.2-23,24.2-23
	s0-65,0-69.5c0-4.6-3.6-7.7-3.6-7.7c-1.6-16.3-19.1-29.2-43.9-55.9c-24.7-26.7,8-99.8,8-99.8h95.7c0,0,32.7,73.1,8,99.8
	s-42.3,39.6-43.9,55.9C716.6,172.7,713,175.8,713,180.4z"/>
<path class="st25" d="M-2113.2,1548.3h-118.2c-10.7,0-19.4-8.7-19.4-19.4v-118.2c0-10.7,8.7-19.4,19.4-19.4h118.2
	c10.7,0,19.4,8.7,19.4,19.4v118.2C-2093.8,1539.5-2102.5,1548.3-2113.2,1548.3z"/>
<path class="st4" d="M-2250.8,1442.7v86.2c0,10.7,8.7,19.4,19.4,19.4h118.2c10.7,0,19.4-8.7,19.4-19.4v-86.2H-2250.8z"/>
<text transform="matrix(1 0 0 1 -2196.0991 1424.8342)" class="st4" style="font-family:'Cloud-Bold'; font-size:26px;">DAY</text>
<g>
	<path class="st7" d="M720.8,861c0,6.3-0.4,117.8-0.4,117.8l25.6,14.7c0,0,44.2,16.3-32.6,16.3c-65.3,0-24.6-16.3-24.6-16.3
		l25.6-14.7c0,0-0.4-111.5-0.4-117.8s-3.1-8-8.5-11.4s-25-14.8-35.1-32.4c-10.2-17.6,12.3-95.9,12.3-95.9H752
		c0,0,22.5,78.4,12.4,95.9c-10.1,17.6-29.7,29-35.1,32.4C723.9,853,720.8,854.7,720.8,861z"/>
	
		<linearGradient id="SVGID_5_" gradientUnits="userSpaceOnUse" x1="755.5132" y1="-638.1501" x2="755.0518" y2="-629.3847" gradientTransform="matrix(1 0 0 1 0 1429.8)">
		<stop  offset="0" style="stop-color:#AE4F6F"/>
		<stop  offset="1" style="stop-color:#6C365E"/>
	</linearGradient>
	<path class="st26" d="M753.7,796.7c-0.3-1.5,0.2-3,1.3-4.1c0.2-0.2,0.4-0.4,0.7-0.4c0.7-0.1,1.3,0.6,1.4,1.3c0.3,1.4-0.7,3-2.2,3.4
		c-0.5,0.1-1.1,0-1.3-0.4"/>
	
		<linearGradient id="SVGID_6_" gradientUnits="userSpaceOnUse" x1="717.4103" y1="-635.8824" x2="717.4103" y2="-583.4051" gradientTransform="matrix(1 0 0 1 0 1429.8)">
		<stop  offset="0" style="stop-color:#AE4F6F"/>
		<stop  offset="1" style="stop-color:#6C365E"/>
	</linearGradient>
	<path class="st27" d="M759.5,810.1c-0.7,0.1-1.3,0.5-2,0.8s-1.6,0.4-2.3,0.2c-0.1,0-0.2,0-0.3-0.1s-0.1-0.1-0.1-0.2
		c0-0.1,0-0.1,0-0.2c0-1.9,0.2-4.1-2.1-5.3c-0.7-0.3-1.4-0.5-2.1-0.5c-2.4,0-4.4,1.4-6.5,2.5c-3.5,1.9-7.3,3-11.2,3.5h-13.2
		c-4.4-0.5-8.7-1.3-13-2.2c-1.8-0.4-3.7-0.8-5.1-1.9c-1.1-0.9-1.9-2.1-2.9-3.1s-2.5-1.8-3.9-1.3c-0.7,0.2-1.2,0.7-1.9,0.9
		c-1.1,0.3-2.2-0.1-3.2-0.5c-1.6-0.7-3.2-1.3-4.5-2.4c-2-1.6-3.7-4.1-6.6-3.4c-1.2,0.3-2.2,1.1-2.8,2.1c-6.3,9.8,5,20.6,11.6,26.7
		c5.5,5.1,11.6,9.3,18,13.2c0.9,0.5,1.7,1,2.4,1.5c7.6,5,9.3,5.8,11.6,5.8c2,0,6.1-3,10.1-5.8c0.7-0.5,1.5-1,2.4-1.5
		c0.5-0.3,1-0.6,1.5-0.9c5-3.1,9.8-6.5,14.3-10.4c2.9-2.6,5.7-5.3,8.2-8.3c1.3-1.6,2.5-3.2,3.6-4.9
		C760,813.5,762.5,809.8,759.5,810.1z"/>
</g>
<g>
	<path class="st7" d="M225.1,865.5c4.9,0,8.9,4.1,8.7,9l-4.6,115c0,0-1.1,21.5-15.8,21.5c-20.6,0-34.5,0-34.5,0s-13.9,0-34.5,0
		c-14.7,0-15.8-21.5-15.8-21.5l-4.6-115c-0.2-4.9,3.7-9,8.7-9C132.7,865.5,225.1,865.5,225.1,865.5z"/>
	<path class="st28" d="M144.9,914.8c-6.7,0-12.1,3.8-11.8,8.5l2.9,51.1c0,0,0.9,12.4,13.3,12.4c17.3,0,28.9,0,28.9,0s11.7,0,28.9,0
		c12.3,0,13.3-12.4,13.3-12.4l2.9-51.1c0.3-4.6-5.1-8.5-11.8-8.5H144.9z"/>
	<path class="st29" d="M161.2,935.4l-13.1-8.9c-2.6-1.8-3.3-5.4-1.5-8l8.9-13.1c1.8-2.6,5.4-3.3,8-1.5l13.1,8.9
		c2.6,1.8,3.3,5.4,1.5,8l-8.9,13.1C167.4,936.5,163.8,937.2,161.2,935.4z"/>
	<path class="st29" d="M203.8,922.9l-7,2.1c-2,0.6-4-0.5-4.6-2.5l-2.1-7c-0.6-2,0.5-4,2.5-4.6l7-2.1c2-0.6,4,0.5,4.6,2.5l2.1,7
		C206.9,920.2,205.8,922.3,203.8,922.9z"/>
</g>
<g>
	<path class="st7" d="M588.3,994.3l-20.2-11.6c0,0,0.3-67.4,0.3-87.6l45.4-63h-96.1l45.3,62.8c0.1,20,0.3,87.7,0.3,87.7l-20.2,11.6
		c0,0-32.1,12.9,19.4,12.9C623.2,1007.2,588.3,994.3,588.3,994.3z"/>
	
		<linearGradient id="SVGID_7_" gradientUnits="userSpaceOnUse" x1="565.7084" y1="-574.5001" x2="565.7084" y2="-541.5467" gradientTransform="matrix(1 0 0 1 0 1429.8)">
		<stop  offset="0" style="stop-color:#14AFAB"/>
		<stop  offset="1" style="stop-color:#227893"/>
	</linearGradient>
	<polygon class="st30" points="589.5,855.3 565.8,888.3 542,855.3 	"/>
	<path class="st31" d="M591.4,843.3c5.3-4.6,5.8-12.7,1.2-18s-12.7-5.8-18-1.2"/>
	<g>
		<polygon class="st32" points="581.7,832.1 574.3,832.1 574.3,832.9 583.1,832.9 		"/>
		<polygon class="st33" points="587.3,838.5 587.3,832.1 581.7,832.1 582.4,832.9 		"/>
	</g>
</g>
<path class="st34" d="M-3835.7,64.3c-0.6-0.8-2.8-5.7-5.3-10.7c-1.7-3.4-1.8-7.2-1.7-9.3c0-0.9,0.4-1.6,0.9-2.3
	c0.4-0.5,0.8-1.4,0.8-2.8c0-2.8-55.6-3.9-55.6-3.9s-55.6,1.1-55.6,3.9c0,1.4,0.4,2.3,0.8,2.8c0.5,0.7,0.9,1.5,0.9,2.3
	c0.1,2.1,0,5.9-1.7,9.3c-2.5,5-4.6,9.9-5.3,10.7s0,15.1,0,18.7v151.9c0,1,0.4,1.9,1,2.7c1.1,1.2,3.1,3.1,5.7,4.7
	c2.4,1.4,4.1,2.7,5.1,3.5c0.7,0.6,1.3,1.4,1.4,2.3l0,0c0.1,0.5,0.3,0.9,0.5,1.3l1.1,1.7c0.7,1.1,1.8,1.7,3,1.8
	c7.4,0.6,33.5,2.5,42.9,2.5c9.8,0,35.6-1.9,42.9-2.5c1.2-0.1,2.4-0.8,3-1.8l1.1-1.7c0.3-0.4,0.4-0.9,0.5-1.3l0,0
	c0.2-0.9,0.7-1.8,1.4-2.3c1-0.8,2.7-2,5.1-3.5c2.6-1.6,4.6-3.5,5.7-4.7c0.7-0.7,1-1.7,1-2.7V83C-3835.7,79.4-3835,65.1-3835.7,64.3z
	"/>
<path class="st35" d="M-3940.4,246c0,0,50.3,5.5,87.7,0"/>
<rect x="-3949.3" y="133.9" class="st36" width="105.5" height="26.5"/>
<path class="st35" d="M-3945.8,41.9c0,0,40.7,4.1,98.6,0"/>
<path class="st36" d="M-3928.3,160.5h63.5c-3.5,24-16.4,41.8-31.7,41.8C-3911.9,202.3-3924.7,184.5-3928.3,160.5z"/>
<path class="st36" d="M-3864.8,133.9h-63.5c3.5-24,16.4-41.8,31.7-41.8C-3881.2,92.1-3868.3,109.9-3864.8,133.9z"/>
<path d="M-2600.4,1750.3h-23.1v-106c0-6.4,5.2-11.6,11.6-11.6l0,0c6.4,0,11.6,5.2,11.6,11.6v106H-2600.4z"/>
<path d="M-2507.9,1761.8L-2507.9,1761.8c0,6.4-5.2,11.6-11.6,11.6h-307.1c-6.4,0-11.6-5.2-11.6-11.6l0,0c0-6.4,5.2-11.6,11.6-11.6
	h307.1C-2513.1,1750.3-2507.9,1755.4-2507.9,1761.8z"/>
<path d="M-1982.8,1956.4L-1982.8,1956.4c0,6.4-5.2,11.6-11.6,11.6h-307.1c-6.4,0-11.6-5.2-11.6-11.6l0,0c0-6.4,5.2-11.6,11.6-11.6
	h307.1C-1988,1944.9-1982.8,1950-1982.8,1956.4z"/>
<path d="M-2572,1646.3L-2572,1646.3c-4.5,4.5-11.8,4.5-16.3,0l-99.2-99.2c-4.5-4.5-4.5-11.8,0-16.3l0,0c4.5-4.5,11.8-4.5,16.3,0
	l99.2,99.2C-2567.4,1634.4-2567.4,1641.7-2572,1646.3z"/>
<path d="M-2787.8,1646.3L-2787.8,1646.3c4.5,4.5,11.8,4.5,16.3,0l99.2-99.2c4.5-4.5,4.5-11.8,0-16.3l0,0c-4.5-4.5-11.8-4.5-16.3,0
	l-99.2,99.2C-2792.3,1634.4-2792.3,1641.7-2787.8,1646.3z"/>
<path d="M-2736.4,1750.3h-23.1v-106c0-6.4,5.2-11.6,11.6-11.6l0,0c6.4,0,11.6,5.2,11.6,11.6v106H-2736.4z"/>
<path d="M-2675.7,1750.3h-43.1v-52.4c0-11.9,9.7-21.6,21.6-21.6l0,0c11.9,0,21.6,9.7,21.6,21.6v52.4H-2675.7z"/>
<path d="M-2089.7,1821.1h-109.4c-4.3,0-7.9,3.5-7.9,7.9l0,0c0,13.9-11.3,25.2-25.2,25.2l0,0c-10.3,0-18.6,8.3-18.6,18.6v33.7h196.6
	c13.8,0,24.9-11.2,24.9-24.9l0,0C-2029.2,1848.2-2056.3,1821.1-2089.7,1821.1z"/>
<path d="M-2051.8,1843.5h-38.5c-8.7,0-15.8-7.1-15.8-15.8v-38.5c0-8.7,7.1-15.8,15.8-15.8h38.5c8.7,0,15.8,7.1,15.8,15.8v38.5
	C-2036,1836.4-2043.1,1843.5-2051.8,1843.5z"/>
<linearGradient id="SVGID_8_" gradientUnits="userSpaceOnUse" x1="-289.9484" y1="198.0681" x2="-289.9484" y2="125.2197" gradientTransform="matrix(1 0 0 -1 0 289.6)">
	<stop  offset="0" style="stop-color:#AE4F6F"/>
	<stop  offset="1" style="stop-color:#6C365E"/>
</linearGradient>
<path class="st37" d="M-265.9,93.2h-24h-24c-1.6,0-2.7,1.6-2.1,3.1c1.8,4.3,3.5,11.5,3.9,12.8c2.4,10.1,3.1,20.3,8.1,29.4
	c3.7,6.7,8.1,12.8,12.6,19c0.9,1.2,1.5,1.7,1.5,1.7s0.6-0.5,1.5-1.7c4.5-6.2,8.9-12.3,12.6-19c5-9.1,5.7-19.3,8.1-29.4
	c0.3-1.3,2.1-8.5,3.9-12.8C-263.2,94.8-264.3,93.2-265.9,93.2z"/>
<linearGradient id="SVGID_9_" gradientUnits="userSpaceOnUse" x1="54.6664" y1="194.1613" x2="54.6664" y2="134.9422" gradientTransform="matrix(1 0 0 -1 0 289.6)">
	<stop  offset="0" style="stop-color:#AE4F6F"/>
	<stop  offset="1" style="stop-color:#6C365E"/>
</linearGradient>
<path class="st38" d="M100.2,99.8c0.3-2.1-1.6-3.9-4-3.9H54.7H13.2c-2.4,0-4.2,1.8-4,3.9c1,8.1,6.2,27.8,32.1,48.9
	c7.5,6.1,19.2,6.1,26.7,0C94,127.6,99.2,107.9,100.2,99.8z"/>
<linearGradient id="SVGID_10_" gradientUnits="userSpaceOnUse" x1="457.7497" y1="204.2394" x2="457.7497" y2="164.0448" gradientTransform="matrix(1 0 0 -1 0 289.6)">
	<stop  offset="0" style="stop-color:#AE4F6F"/>
	<stop  offset="1" style="stop-color:#6C365E"/>
</linearGradient>
<path class="st39" d="M503.2,88.3c0.3-1.4-1.6-2.6-4-2.6h-41.5h-41.5c-2.4,0-4.2,1.2-4,2.6c1,5.5,6.2,18.8,32.1,33.2
	c7.5,4.1,19.2,4.1,26.7,0C497,107.2,502.2,93.8,503.2,88.3z"/>
<linearGradient id="SVGID_11_" gradientUnits="userSpaceOnUse" x1="704.7024" y1="184.8606" x2="704.7024" y2="135.1538" gradientTransform="matrix(1 0 0 -1 0 289.6)">
	<stop  offset="0" style="stop-color:#AE4F6F"/>
	<stop  offset="1" style="stop-color:#6C365E"/>
</linearGradient>
<path class="st40" d="M759.1,105.2h-48.8c-1.9,0-3.7,0-5.6,0c-1.9,0-3.7,0-5.6,0h-48.7c-0.6,0.8,1,5.2,1.3,6.2
	c0.9,2.8,3.7,4.5,6.2,6.2c6.3,4.3,9.8,10.3,14.8,15.8c5.5,6.1,12,11.4,18.8,16.1c3.7,2.6,8.5,3.8,13.3,3.8s9.6-1.3,13.3-3.8
	c6.8-4.7,13.3-9.9,18.8-16.1c5-5.5,8.5-11.5,14.8-15.8c2.5-1.7,5.3-3.4,6.2-6.2C758.1,110.4,759.7,106,759.1,105.2z"/>
<linearGradient id="SVGID_12_" gradientUnits="userSpaceOnUse" x1="746.1522" y1="184.2" x2="746.1522" y2="184.2" gradientTransform="matrix(1 0 0 -1 0 289.6)">
	<stop  offset="0" style="stop-color:#AE4F6F"/>
	<stop  offset="1" style="stop-color:#6C365E"/>
</linearGradient>
<path class="st41" d="M746.2,105.4"/>
<ellipse transform="matrix(0.1108 -0.9938 0.9938 0.1108 -278.0601 -224.7546)" class="st13" cx="-264.6" cy="43" rx="6.1" ry="6.1"/>
<ellipse transform="matrix(0.1586 -0.9873 0.9873 0.1586 -306.752 -200.0053)" class="st13" cx="-270.7" cy="80" rx="20.1" ry="5.8"/>
<ellipse transform="matrix(0.1454 -0.9894 0.9894 0.1454 584.6129 790.9766)" class="st13" cx="750.2" cy="57.1" rx="7.2" ry="4"/>
<ellipse transform="matrix(8.062100e-02 -0.9967 0.9967 8.062100e-02 592.0349 830.392)" class="st13" cx="746.2" cy="94.3" rx="20.1" ry="5.8"/>
<ellipse transform="matrix(1.111432e-03 -1 1 1.111432e-03 47.996 136.942)" class="st13" cx="92.5" cy="44.4" rx="6.1" ry="3.6"/>
<ellipse transform="matrix(0.9997 -2.536585e-02 2.536585e-02 0.9997 -1.0688 12.5386)" class="st13" cx="493.7" cy="48.4" rx="3.8" ry="3.8"/>
<path class="st13" d="M97.2,82.4C97.2,95,91.5,107,89,107s-1.1-12-1.1-24.7s2.1-23,4.7-23S97.2,69.7,97.2,82.4z"/>
<path class="st13" d="M497.6,82.4c0,7.7-3.9,14-6.1,14s-1.8-6.3-1.8-14s1.8-14,3.9-14C495.9,68.4,497.6,74.6,497.6,82.4z"/>
</svg>
