<?xml version="1.0" encoding="utf-8"?>
<!-- Generator: Adobe Illustrator 22.0.1, SVG Export Plug-In . SVG Version: 6.00 Build 0)  -->
<svg version="1.1" id="Layer_1" xmlns="http://www.w3.org/2000/svg" xmlns:xlink="http://www.w3.org/1999/xlink" x="0px" y="0px"
	 viewBox="0 0 107.3 288.5" style="enable-background:new 0 0 107.3 288.5;" xml:space="preserve">
<style type="text/css">
	.st0{display:none;}
	.st1{display:inline;fill:#FFFFFF;stroke:#000000;stroke-miterlimit:10;}
	.st2{fill:#707B7F;}
	.st3{fill:#CE403F;}
	.st4{fill:#FFFFFF;}
	.st5{fill:#CD915F;}
	.st6{fill:#AA6628;}
	.st7{opacity:0.5;fill:#F9F9FA;enable-background:new    ;}
	.st8{fill:url(#SVGID_1_);}
	.st9{fill:#DDDDDD;}
	.st10{fill:#F7F7F7;}
	.st11{opacity:0.35;fill:#F4F4F5;enable-background:new    ;}
	.st12{fill:url(#SVGID_2_);}
	.st13{opacity:0.6;fill:#F4F4F5;enable-background:new    ;}
	.st14{display:none;fill:#34A6C9;stroke:#1B8EB7;stroke-width:10;stroke-miterlimit:10;}
	.st15{display:none;fill:#F27CA7;stroke:#C94C72;stroke-width:10;stroke-miterlimit:10;}
	.st16{fill:#476269;}
	.st17{fill:#222728;}
	.st18{fill:#DDDDDC;}
	.st19{fill:#F6F7F7;}
	.st20{fill:url(#SVGID_3_);}
	.st21{fill:url(#SVGID_4_);}
	.st22{enable-background:new    ;}
	.st23{fill:#F9F9FA;stroke:#E2E2E2;stroke-width:3;stroke-miterlimit:10;}
	.st24{fill:none;stroke:#E2E2E2;stroke-width:3;stroke-miterlimit:10;}
	.st25{fill:#D95F56;}
	.st26{fill:url(#SVGID_5_);}
	.st27{fill:url(#SVGID_6_);}
	.st28{opacity:0.84;fill:#E8CD2C;enable-background:new    ;}
	.st29{opacity:0.39;fill:#90D7EB;enable-background:new    ;}
	.st30{opacity:0.84;fill:url(#SVGID_7_);enable-background:new    ;}
	.st31{fill:#D2E8C9;stroke:#6EBF59;stroke-width:2;stroke-miterlimit:10;}
	.st32{fill:none;}
	.st33{fill:#E4F1DD;}
	.st34{fill:#7AC25B;}
	.st35{fill:none;stroke:#E2E2E2;stroke-miterlimit:10;}
	.st36{fill:#157D3E;stroke:#E2E2E2;stroke-width:3;stroke-miterlimit:10;}
	.st37{fill:url(#SVGID_8_);}
	.st38{fill:url(#SVGID_9_);}
	.st39{fill:url(#SVGID_10_);}
	.st40{fill:url(#SVGID_11_);}
	.st41{fill:url(#SVGID_12_);}
</style>
<g id="Layer_1_1_" class="st0">
	<rect x="-2776.6" y="-224.1" class="st1" width="136.5" height="482"/>
</g>
<path class="st2" d="M-2513,1553.4h-127c-11.1,0-20.2-9.1-20.2-20.2v-93.6c0-11.1,9.1-20.2,20.2-20.2h127c11.1,0,20.2,9.1,20.2,20.2
	v93.6C-2492.8,1544.3-2501.9,1553.4-2513,1553.4z"/>
<rect x="-3241.7" y="-385.5" class="st3" width="658.6" height="188.9"/>
<circle class="st4" cx="-3816.1" cy="63.9" r="6.2"/>
<g>
	<polygon class="st5" points="-2624.9,-647.7 -2667.1,-635.1 -2574.6,-635.1 	"/>
	<polygon class="st5" points="-2286.5,-647.7 -2244.4,-635.1 -2336.9,-635.1 	"/>
	<rect x="-2625" y="-647.7" class="st5" width="338.4" height="14.9"/>
	<rect x="-2667.1" y="-635.1" class="st6" width="422.8" height="11.1"/>
</g>
<path class="st7" d="M-3697.8,296.6h-148.8c-11.7,0-21.2-9.5-21.2-21.2V47.8c0-11.7,9.5-21.2,21.2-21.2h148.8
	c11.7,0,21.2,9.5,21.2,21.2v227.7C-3676.6,287.1-3686.1,296.6-3697.8,296.6z"/>
<linearGradient id="SVGID_1_" gradientUnits="userSpaceOnUse" x1="-3773.676" y1="-1370.5" x2="-3773.676" y2="-1146.2783" gradientTransform="matrix(1 0 0 1 0 1429.8)">
	<stop  offset="0" style="stop-color:#FFCC4C"/>
	<stop  offset="1" style="stop-color:#FEBF4B"/>
</linearGradient>
<path class="st8" d="M-3714.3,284.4h-118.8c-11.7,0-21.2-9.5-21.2-21.2V80.5c0-11.7,9.5-21.2,21.2-21.2h118.8
	c11.7,0,21.2,9.5,21.2,21.2v182.7C-3693.1,274.9-3702.6,284.4-3714.3,284.4z"/>
<circle class="st9" cx="-3829.6" cy="57.7" r="33"/>
<circle class="st9" cx="-3793.9" cy="48.1" r="23.4"/>
<circle class="st9" cx="-3758.9" cy="58" r="23.4"/>
<circle class="st9" cx="-3709.4" cy="53.2" r="28.2"/>
<circle class="st10" cx="-3758.9" cy="49" r="23.4"/>
<circle class="st10" cx="-3737.6" cy="39" r="11.7"/>
<path class="st10" d="M-3817.3,39c0-1.5,0.1-2.9,0.4-4.3h-42.6c-2,4.2-3.1,9-3.1,14c0,18.2,14.8,33,33,33c13.6,0,25.3-8.2,30.3-19.9
	C-3809.6,59.3-3817.3,50.1-3817.3,39z"/>
<path class="st10" d="M-3796.6,48.7c0,4.6-1,9.1-2.7,13.1c1.7,0.4,3.5,0.6,5.4,0.6c12.9,0,23.4-10.5,23.4-23.4
	c0-1.5-0.1-2.9-0.4-4.3h-28.7C-3797.7,38.9-3796.6,43.7-3796.6,48.7z"/>
<path class="st10" d="M-3799.7,34.7h-17.2c-0.3,1.4-0.4,2.8-0.4,4.3c0,11.1,7.7,20.3,18,22.7c1.7-4,2.7-8.4,2.7-13.1
	C-3796.6,43.7-3797.7,38.9-3799.7,34.7z"/>
<path class="st10" d="M-3682.8,34.7h-53.1c-1.1,3-1.6,6.1-1.6,9.5c0,15.6,12.6,28.2,28.2,28.2c15.6,0,28.2-12.6,28.2-28.2
	C-3681.2,40.8-3681.8,37.6-3682.8,34.7z"/>
<path class="st10" d="M-3678.2,35.5c0,0-0.1-0.1-0.2-0.2C-3678.4,35.4-3678.3,35.5-3678.2,35.5L-3678.2,35.5z"/>
<path class="st10" d="M-3682.8,34.7h-116.9c-2.4-5-5.9-9.3-10.3-12.6c-3.5,3.3-5.9,7.7-6.8,12.6h-42.6c0.5-1.1,1.1-2.2,1.8-3.3
	c4.2-4.6,12.7-12.3,22.7-12.3h55.4c0,0,6.7,0,16,0h55.4c13.2,0,23.9,13.4,25.3,15.3C-3682.9,34.5-3682.9,34.6-3682.8,34.7z"/>
<path class="st10" d="M-3816.9,34.7h17.2c-2.3-5-5.9-9.3-10.3-12.6C-3813.5,25.4-3815.9,29.8-3816.9,34.7z"/>
<path class="st7" d="M-3619.8,100.5c-2.3-11.7-10.8-20.4-21-20.4h-35.8v22.5h25.3c6,0,10.8,5.9,10.8,13.3v77.4
	c0,7.3-4.8,13.3-10.8,13.3h-25.3V230h35.8c10.7,0,19.6-9.6,21.3-22.2c0.2-1.1,0.3-2.2,0.3-3.4v-1l0,0v-96.7l0,0v-1.4
	C-3619.2,103.6-3619.4,102-3619.8,100.5z"/>
<path class="st11" d="M-3820.8,254.2L-3820.8,254.2c-6,0-10.8-4.8-10.8-10.8v-134c0-6,4.8-10.8,10.8-10.8l0,0
	c6,0,10.8,4.8,10.8,10.8v134C-3809.9,249.4-3814.8,254.2-3820.8,254.2z"/>
<path class="st11" d="M-3770.5,254.2L-3770.5,254.2c-6,0-10.8-4.8-10.8-10.8v-134c0-6,4.8-10.8,10.8-10.8l0,0
	c6,0,10.8,4.8,10.8,10.8v134C-3759.7,249.4-3764.6,254.2-3770.5,254.2z"/>
<path class="st11" d="M-3721.5,250.9L-3721.5,250.9c-6,0-10.8-4.8-10.8-10.8v-134c0-6,4.8-10.8,10.8-10.8l0,0
	c6,0,10.8,4.8,10.8,10.8v134C-3710.6,246.1-3715.5,250.9-3721.5,250.9z"/>
<g>
	<circle class="st4" cx="-69.5" cy="836.1" r="4.7"/>
	<path class="st7" d="M16.4,1018.3H-88c-11.7,0-21.2-9.5-21.2-21.2v-165c0-11.7,9.5-21.2,21.2-21.2H16.4c11.7,0,21.2,9.5,21.2,21.2
		v165C37.6,1008.8,28.1,1018.3,16.4,1018.3z"/>
	
		<linearGradient id="SVGID_2_" gradientUnits="userSpaceOnUse" x1="-36.8759" y1="-593.7001" x2="-36.8759" y2="-421.5418" gradientTransform="matrix(1 0 0 1 0 1429.8)">
		<stop  offset="0" style="stop-color:#FFCC4C"/>
		<stop  offset="1" style="stop-color:#FEBF4B"/>
	</linearGradient>
	<path class="st12" d="M3.8,1008.9h-81.4c-11.7,0-21.2-9.5-21.2-21.2V857.3c0-11.7,9.5-21.2,21.2-21.2H3.8
		c11.7,0,21.2,9.5,21.2,21.2v130.4C25,999.4,15.5,1008.9,3.8,1008.9z"/>
	<circle class="st9" cx="-79.8" cy="831.4" r="25.3"/>
	<circle class="st9" cx="-52.4" cy="824" r="17.9"/>
	<circle class="st9" cx="-25.6" cy="831.6" r="17.9"/>
	<circle class="st9" cx="12.5" cy="827.9" r="21.6"/>
	<circle class="st10" cx="-25.6" cy="824.7" r="17.9"/>
	<circle class="st10" cx="-9.2" cy="817" r="9"/>
	<path class="st10" d="M-70.4,817c0-1.1,0.1-2.2,0.3-3.3h-32.7c-1.5,3.3-2.4,6.9-2.4,10.7c0,14,11.3,25.3,25.3,25.3
		c10.4,0,19.4-6.3,23.3-15.3C-64.5,832.6-70.4,825.5-70.4,817z"/>
	<path class="st10" d="M-54.5,824.4c0,3.6-0.7,7-2.1,10c1.3,0.3,2.7,0.5,4.1,0.5c9.9,0,17.9-8,17.9-17.9c0-1.1-0.1-2.2-0.3-3.3H-57
		C-55.3,817-54.5,820.6-54.5,824.4z"/>
	<path class="st10" d="M-56.9,813.7h-13.2c-0.2,1.1-0.3,2.2-0.3,3.3c0,8.5,5.9,15.6,13.8,17.5c1.3-3.1,2.1-6.5,2.1-10
		C-54.5,820.6-55.3,817-56.9,813.7z"/>
	<path class="st10" d="M32.9,813.7H-7.9c-0.8,2.3-1.3,4.7-1.3,7.3c0,12,9.7,21.6,21.6,21.6c12,0,21.6-9.7,21.6-21.6
		C34.1,818.4,33.7,816,32.9,813.7z"/>
	<path class="st10" d="M36.4,817.8c0,0-0.1-0.1-0.1-0.2C36.3,817.7,36.3,817.8,36.4,817.8L36.4,817.8z"/>
	<path class="st10" d="M32.9,813.7h-89.7c-1.8-3.8-4.5-7.2-7.9-9.7c-2.7,2.5-4.6,5.9-5.3,9.7h-32.7c0.4-0.9,0.9-1.7,1.4-2.5
		c3.2-3.5,9.8-9.4,17.5-9.4h42.5c0,0,5.1,0,12.3,0h42.5c10,0,18.2,10.2,19.3,11.7C32.8,813.6,32.8,813.6,32.9,813.7z"/>
	<path class="st10" d="M-70.1,813.7h13.2c-1.8-3.8-4.5-7.2-7.9-9.7C-67.5,806.6-69.4,809.9-70.1,813.7z"/>
	<path class="st7" d="M81.2,867.7c-1.7-9-8.3-15.7-16.1-15.7H37.6v17.3H57c4.6,0,8.3,4.6,8.3,10.2v59.4c0,5.6-3.7,10.2-8.3,10.2
		H37.6V967h27.5c8.2,0,15.1-7.4,16.4-17c0.1-0.8,0.2-1.7,0.2-2.6v-0.8l0,0v-74.2l0,0v-1.1C81.7,870.1,81.5,868.9,81.2,867.7z"/>
	<path class="st13" d="M-73.1,985.7L-73.1,985.7c-4.6,0-8.3-3.7-8.3-8.3V874.5c0-4.6,3.7-8.3,8.3-8.3l0,0c4.6,0,8.3,3.7,8.3,8.3
		v102.9C-64.7,982-68.5,985.7-73.1,985.7z"/>
	<path class="st13" d="M-34.5,985.7L-34.5,985.7c-4.6,0-8.3-3.7-8.3-8.3V874.5c0-4.6,3.7-8.3,8.3-8.3l0,0c4.6,0,8.3,3.7,8.3,8.3
		v102.9C-26.2,982-29.9,985.7-34.5,985.7z"/>
	<path class="st13" d="M3.2,983.2L3.2,983.2c-4.6,0-8.3-3.7-8.3-8.3V872c0-4.6,3.7-8.3,8.3-8.3l0,0c4.6,0,8.3,3.7,8.3,8.3v102.9
		C11.5,979.5,7.8,983.2,3.2,983.2z"/>
</g>
<path class="st14" d="M-2862.8,684.6v-32.9l5.8,5.8c9.5,9.5,25,9.5,34.5,0s9.5-25,0-34.5l-45-45l-2.9-2.9
	c-4.5-4.5-10.2-6.8-16.1-7.1c-0.2,0-0.5,0-0.8,0c-0.1,0-0.2,0-0.2,0c-0.1,0-0.1,0-0.2,0c-0.1,0-0.1,0-0.2,0
	c-6.3-0.1-12.7,2.3-17.5,7.2l-47.9,47.9c-9.5,9.5-9.5,25,0,34.5s25,9.5,34.5,0l7.1-7.1l0.6,33.7c-34.6,10-59.9,41.9-59.9,79.8
	c0,45.9,37.2,83.1,83.1,83.1c45.9,0,83.1-37.2,83.1-83.1C-2804.8,726.6-2829.2,695.2-2862.8,684.6z M-2887.9,799
	c-19.4,0-35.2-15.8-35.2-35.2s15.8-35.2,35.2-35.2s35.2,15.8,35.2,35.2S-2868.4,799-2887.9,799z"/>
<path class="st15" d="M-2576.8,726.2c32.4-32.4,32.4-85.1,0-117.5c-32.4-32.4-85.1-32.4-117.5,0s-32.4,85.1,0,117.5
	c10.6,10.6,23.3,17.7,36.8,21.4v25.9h-9.6c-12.1,0-21.9,9.8-21.9,21.9l0,0c0,12.1,9.8,21.9,21.9,21.9h9.6v9.6
	c0,12.1,9.8,21.9,21.9,21.9l0,0c12.1,0,21.9-9.8,21.9-21.9v-9.6h9.6c12.1,0,21.9-9.8,21.9-21.9l0,0c0-12.1-9.8-21.9-21.9-21.9h-9.6
	v-25.9C-2600.1,743.9-2587.4,736.8-2576.8,726.2z M-2660.4,642.5c13.8-13.8,36-13.8,49.8,0c13.8,13.8,13.8,36,0,49.8
	c-13.8,13.8-36,13.8-49.8,0C-2674.2,678.6-2674.2,656.3-2660.4,642.5z"/>
<rect x="-2785.3" y="504.2" class="st16" width="578.1" height="600.5"/>
<path class="st4" d="M-2635.4,682.1l-59.5,59.5c-6.3,6.3-16.4,6.3-22.7,0l0,0c-6.3-6.3-6.3-16.4,0-22.7l59.5-59.5
	c6.3-6.3,16.4-6.3,22.7,0l0,0C-2629.2,665.7-2629.2,675.9-2635.4,682.1z"/>
<path class="st4" d="M-2598.6,741.6l-59.5-59.5c-6.3-6.3-6.3-16.4,0-22.7l0,0c6.3-6.3,16.4-6.3,22.7,0l59.5,59.5
	c6.3,6.3,6.3,16.4,0,22.7l0,0C-2582.2,747.8-2592.4,747.8-2598.6,741.6z"/>
<path class="st4" d="M-2626.9,692.8V768c0,11.9-9.6,21.5-21.5,21.5l0,0c-11.9,0-21.5-9.6-21.5-21.5v-75.2c0-11.9,9.6-21.5,21.5-21.5
	l0,0C-2636.5,671.3-2626.9,680.9-2626.9,692.8z"/>
<path class="st4" d="M-2646.8,768.3c-52.3,0-94.6,42.4-94.6,94.6s42.4,94.6,94.6,94.6s94.6-42.4,94.6-94.6
	C-2552.2,810.7-2594.5,768.3-2646.8,768.3z M-2646.8,921.1c-32.1,0-58.2-26-58.2-58.2c0-32.1,26-58.2,58.2-58.2
	c32.1,0,58.2,26,58.2,58.2C-2588.6,895.1-2614.6,921.1-2646.8,921.1z"/>
<path class="st4" d="M-2406.1,936.1V834.6c0-11.9,9.6-21.5,21.5-21.5l0,0c11.9,0,21.5,9.6,21.5,21.5V936c0,11.9-9.6,21.5-21.5,21.5
	l0,0C-2396.4,957.6-2406.1,947.9-2406.1,936.1z"/>
<path class="st4" d="M-2344.7,915.3h-79.7c-11.9,0-21.5-9.6-21.5-21.5l0,0c0-11.9,9.6-21.5,21.5-21.5h79.7
	c11.9,0,21.5,9.6,21.5,21.5l0,0C-2323.2,905.6-2332.9,915.3-2344.7,915.3z"/>
<path class="st4" d="M-2386.2,834.3c52.3,0,94.6-42.4,94.6-94.6c0-52.2-42.4-94.6-94.6-94.6s-94.6,42.4-94.6,94.6
	S-2438.5,834.3-2386.2,834.3z M-2386.2,681.5c32.1,0,58.2,26,58.2,58.2c0,32.1-26,58.2-58.2,58.2c-32.1,0-58.2-26-58.2-58.2
	C-2444.4,707.6-2418.3,681.5-2386.2,681.5z"/>
<rect x="-3299.9" y="504.2" class="st17" width="508.9" height="434.6"/>
<path class="st4" d="M-3021,681.5l-59.5,59.5c-6.3,6.3-16.4,6.3-22.7,0l0,0c-6.3-6.3-6.3-16.4,0-22.7l59.5-59.5
	c6.3-6.3,16.4-6.3,22.7,0l0,0C-3014.7,665.1-3014.7,675.3-3021,681.5z"/>
<path class="st4" d="M-2984.2,741l-59.5-59.5c-6.3-6.3-6.3-16.4,0-22.7l0,0c6.3-6.3,16.4-6.3,22.7,0l59.5,59.5
	c6.3,6.3,6.3,16.4,0,22.7l0,0C-2967.8,747.3-2977.9,747.3-2984.2,741z"/>
<path class="st4" d="M-3014.7,689.9v79.8c0,10.6-8.6,19.2-19.2,19.2l0,0c-10.6,0-19.2-8.6-19.2-19.2v-79.8
	c0-10.6,8.6-19.2,19.2-19.2l0,0C-3023.3,670.7-3014.7,679.3-3014.7,689.9z"/>
<path class="st18" d="M-3150.6-343.5c-18,0-34.3,7.5-45.7,19.5v83.2c11.4,12,27.6,19.5,45.7,19.5c34.4,0,62.4-27.4,62.4-61.1
	S-3116.1-343.5-3150.6-343.5z"/>
<path class="st18" d="M-2612.1-314.6c-8-8.2-19.5-13.4-32.2-13.4c-24.1,0-43.7,18.4-43.7,41.1s19.6,41.1,43.7,41.1
	c12.8,0,24.3-5.2,32.2-13.4V-314.6z"/>
<ellipse class="st18" cx="-3068.4" cy="-295.5" rx="28" ry="27.5"/>
<ellipse class="st18" cx="-2993.3" cy="-288" rx="54.2" ry="53.1"/>
<ellipse class="st18" cx="-2914" cy="-292.8" rx="35.9" ry="35.2"/>
<ellipse class="st18" cx="-2848.8" cy="-308.7" rx="33.6" ry="32.9"/>
<ellipse class="st18" cx="-2814.6" cy="-285.3" rx="38.4" ry="37.6"/>
<ellipse class="st18" cx="-2751.9" cy="-293.9" rx="38" ry="37.3"/>
<ellipse class="st18" cx="-2702.7" cy="-305.3" rx="23.2" ry="22.7"/>
<path class="st18" d="M-2612.1-289.9h-583.1c2.2-15.3,1.6-11,3.5-24.2l0,0c0-13.3,12.2-24.2,27.2-24.2h521.7
	c15,0,27.2,10.8,27.2,24.2l0,0C-2614.4-301.9-2614.5-302.2-2612.1-289.9z"/>
<circle class="st19" cx="-3068.4" cy="-307.7" r="28"/>
<circle class="st19" cx="-2993.3" cy="-300.1" r="54.2"/>
<circle class="st19" cx="-2914" cy="-304.9" r="35.9"/>
<circle class="st19" cx="-2848.8" cy="-321.1" r="33.6"/>
<circle class="st19" cx="-2814.6" cy="-297.3" r="38.4"/>
<circle class="st19" cx="-2751.9" cy="-306" r="38"/>
<circle class="st19" cx="-2702.7" cy="-317.7" r="23.2"/>
<rect x="-3196" y="-361.2" class="st19" width="583.9" height="61.1"/>
<path class="st19" d="M-2612.1-327.9c-8-8.4-19.5-13.7-32.2-13.7c-24.1,0-43.7,18.8-43.7,41.9s19.6,41.9,43.7,41.9
	c12.8,0,24.3-5.3,32.2-13.7V-327.9z"/>
<path class="st19" d="M-3150.6-358.5c-18,0-34.3,7.7-45.7,19.9v84.9c11.4,12.2,27.6,19.9,45.7,19.9c34.4,0,62.4-27.9,62.4-62.4
	S-3116.1-358.5-3150.6-358.5z"/>
<path class="st7" d="M-3908.5,265.3c1.4,1.9,2.6,3.6,3.7,5.2c6,8.5,2.2,20.3-7.8,23.9c-8.4,3-21.4,5.2-41.4,4.8
	c-20.1,0.4-33.1-1.8-41.5-4.8c-10-3.5-13.8-15.4-7.8-23.9c1.1-1.6,2.3-3.3,3.7-5.2c8.4-11.5,11-58.3,7.8-119.2
	c-2.6-49.2-25.6-180.6-34.4-229.4c-1.7-9.7,5.9-18.6,16-18.6h112.2c10.1,0,17.8,8.9,16,18.6c-8.8,48.8-31.8,180.2-34.4,229.4
	C-3919.5,207-3916.9,253.8-3908.5,265.3z"/>
<g>
	
		<linearGradient id="SVGID_3_" gradientUnits="userSpaceOnUse" x1="-3954.0259" y1="-1484.4332" x2="-3954.0259" y2="-1181.8699" gradientTransform="matrix(1 0 0 1 0 1429.8)">
		<stop  offset="0" style="stop-color:#FFCC4C"/>
		<stop  offset="1" style="stop-color:#FEBF4B"/>
	</linearGradient>
	<path class="st20" d="M-3924.9,135.2c2-38,19.8-139.3,26.5-177c1.3-7.5-4.6-14.3-12.4-14.3h-86.5c-7.8,0-13.7,6.8-12.4,14.3
		c6.8,37.6,24.5,139,26.5,177c0.9,16.3,1.2,79.1,1,92c-0.2,15.3,11.4,19.1,26.6,19.9c0.5,0,1,0,1.5,0s1,0,1.5,0
		c15.2-0.8,26.9-4.6,26.6-19.9C-3926.1,214.2-3925.8,151.5-3924.9,135.2z"/>
</g>
<circle class="st13" cx="-3919.1" cy="-34.1" r="6.1"/>
<ellipse transform="matrix(0.1256 -0.9921 0.9921 0.1256 -3480.6475 -3861.3809)" class="st13" cx="-3930.9" cy="43.8" rx="53" ry="6.1"/>
<g>
	<path class="st7" d="M-4067.1,284.2c0.8,2.1,0.1,4-1.5,5.5c-3.6,3.2-9.4,4.2-14,5c-11.5,1.9-23.2,2-34.8,1.9
		c-11.6,0.1-23.4,0-34.8-1.9c-4.6-0.8-10.4-1.7-14-5c-1.6-1.5-2.3-3.4-1.5-5.5c0.8-2,2.5-3.5,4.7-3.8c1.3-0.2,2.6-0.3,4-0.5
		c5.2-0.9,10.2-2.7,15-4.9c13.4-6,22-13.8,22-13.8s0.8-103,0.8-121.9s-38.2-28.4-54-46.5c-15.8-18.2,18.5-106.5,18.5-106.5h78.9
		c0,0,36.7,86.7,20.9,104.8s-56.4,29.3-56.4,48.2s0.8,121.9,0.8,121.9s8.6,7.8,22,13.8c4.8,2.1,9.8,3.9,15,4.9
		c1.3,0.2,2.6,0.3,4,0.5C-4069.6,280.7-4067.9,282.2-4067.1,284.2z"/>
	
		<linearGradient id="SVGID_4_" gradientUnits="userSpaceOnUse" x1="-4116.2261" y1="-1422.3954" x2="-4116.2261" y2="-1312.1866" gradientTransform="matrix(1 0 0 1 0 1429.8)">
		<stop  offset="0" style="stop-color:#FFCC4C"/>
		<stop  offset="1" style="stop-color:#FEBF4B"/>
	</linearGradient>
	<path class="st21" d="M-4073.7,94.1l-37.7,21.8c-3,1.7-6.8,1.7-9.8,0l-37.7-21.8c-0.3-0.2-0.6-0.3-0.8-0.4
		c-2.2-1-15.2-8.3-5.3-39.8l9.8-38.6c1.1-4.3,5-7.4,9.5-7.4h58.8c4.5,0,8.4,3,9.5,7.4l9.9,38.6c9.9,31.5-3.1,38.8-5.3,39.8
		C-4073.2,93.8-4073.4,93.9-4073.7,94.1z"/>
	<circle class="st13" cx="-4088.1" cy="30.1" r="6.1"/>
	<ellipse class="st13" cx="-4088.1" cy="63.1" rx="6.1" ry="17"/>
</g>
<text transform="matrix(1 0 0 1 -3225.011 30.1402)" style="font-family:'MyriadPro-Regular'; font-size:72px;">Beer</text>
<text transform="matrix(1 0 0 1 -1765.3638 -151.1128)" style="font-family:'MyriadPro-Regular'; font-size:72px;">Cocktail</text>
<path class="st23" d="M-1948.8,290.8c-77,0-50.8-18-50.8-18s14.7-4.4,27.8-6.6c13.1-2.2,16.3-27.3,16.3-27.3s0-73.2,0-95
	c0-21.9-5-22.9-5-22.9l-73.6-93.7h170.4l-73.6,93.7c0,0-5,1-5,22.9c0,21.8,0,95,0,95s3.2,25.1,16.3,27.3c13.1,2.2,27.9,6.6,27.9,6.6
	S-1871.8,290.8-1948.8,290.8z"/>
<path class="st23" d="M-1655.3,72.9c-12.3,13.9-52.3,27.8-58,37.6c0,0-0.4,8.6-9.1,9.1c0,0-4.5,3.2-4.5,13.2s-4.3,112,0,116.3
	s36.7,14.1,42.2,15.9c5.5,1.8,38.8,25-54,25s-59.4-23.2-54-25c5.5-1.8,37.9-11.6,42.2-15.9c4.3-4.3,0-106.3,0-116.3
	s-4.6-13.2-4.6-13.2c-8.6-0.5-9.1-9.1-9.1-9.1c-5.7-9.8-45.8-23.7-58-37.6c-12.3-13.9-9-46.6-9-46.6h184.8
	C-1646.3,26.3-1643,59-1655.3,72.9z"/>
<path class="st23" d="M-1582.5,289.6c-37.3-5.2-19.8-13.9-19.8-13.9l25.9-9.8v-107c-12.1-6.8-20.5-22.5-20.5-22.5
	c-14-24.2-5.4-143.7-5.4-143.7h60.6c0,0,8.6,119.5-5.4,143.7c0,0-8.4,15.6-20.5,22.5v107l25.9,9.8c0,0,17.5,8.7-19.8,13.9
	C-1568.5,290.5-1575.6,290.5-1582.5,289.6z"/>
<path class="st23" d="M-1406,63.7c6.4,48.4,20.4,121.1,1.3,140.2c-12.4,12.4-18.3,19.6-20.9,23.1c-1.2,1.6-1.6,3.6-1.1,5.5
	c1.2,5.2,3.3,16.3,0.7,21c-0.9,1.7-1.8,3.3-2.5,4.9c-1.8,3.9,0.5,8.5,4.7,9.4l17.8,3.9c0.2,0,0.4,0.1,0.7,0.2
	c4.1,1.3,41,14.1-33.3,18.8c-0.3,0-0.6,0-0.9,0c-74.3-4.7-37.3-17.5-33.3-18.8c0.2-0.1,0.4-0.1,0.7-0.2l17.8-3.9
	c4.2-0.9,6.5-5.5,4.7-9.4c-0.7-1.5-1.5-3.2-2.5-4.9c-2.6-4.8-0.5-15.8,0.7-21c0.4-1.9,0-3.9-1.1-5.5c-2.6-3.5-8.5-10.7-20.9-23.1
	c-19.1-19.1-5.1-91.8,1.3-140.2c3.8-29-3.8-48-10.5-58.5c-2.9-4.5,0.4-10.3,5.7-10.3h76c5.3,0,8.5,5.9,5.7,10.3
	C-1402.2,15.7-1409.8,34.7-1406,63.7z"/>
<path class="st23" d="M-1222.8,19.7l-5,253.9c-0.1,5.5-3.8,10.2-9.1,11.7c-7.7,2.2-21.6,4.6-45.8,5c-24.2-0.3-38-2.7-45.8-5
	c-5.3-1.5-8.9-6.2-9.1-11.7l-5-253.9c-0.1-7,5.5-12.7,12.4-12.7h94.7C-1228.2,7.1-1222.6,12.8-1222.8,19.7z"/>
<path class="st23" d="M-1129.9,288.5c-59.6,0.5-52.6-4.3-34.3-14.3c16.8-9.2,12.4-29.6,11.5-32.8c-0.1-0.3-0.1-0.7-0.2-1
	l-22.3-295.3c-0.3-3.5,2.5-6.6,6.1-6.6h78.3c3.6,0,6.4,3,6.1,6.6l-22.3,295.3c0,0.3-0.1,0.7-0.2,1c-0.8,3.3-5.3,23.7,11.5,32.8
	C-1077.3,284.2-1070.3,289-1129.9,288.5z"/>
<text transform="matrix(1 0 0 1 -1765.363 721.543)" style="font-family:'MyriadPro-Regular'; font-size:72px;">Lhao</text>
<path class="st23" d="M-1759.4,994.3c-23.7,31.1-43,36.1-53.2,41.7s-16.2,26.8,3.2,30.9c19.4,4.2,27.9,6.7,27.9,6.7
	s35.7,18.2-50,18.2c-86.4,0-50-18.2-50-18.2s8.4-2.5,27.8-6.7c19.4-4.1,13.4-25.4,3.2-30.9c-10.2-5.6-29.4-10.5-53.2-41.7
	c-23.7-31.1,24.6-122.1,24.6-122.1h95C-1783.9,872.3-1735.6,963.2-1759.4,994.3z"/>
<path class="st24" d="M-1679.6,1091.9c-66.8-0.8-42.6-10.7-26.2-11.9c16.4-1.2,21.7-15.2,21.7-15.2s-0.8-91.8,0-107.3
	c0.8-15.6-11.7-23.3-11.7-23.3c-30.1-32-16.2-104.1-16.2-104.1h64.7c0,0,13.9,72.1-16.2,104.1c0,0-12.5,7.8-11.7,23.3
	c0.8,15.6,0,107.3,0,107.3s5.3,13.9,21.7,15.2C-1637,1081.2-1612.8,1091-1679.6,1091.9z"/>
<path class="st23" d="M-1569.7,1091.9c-39.6,0-30.4-5.9-23.1-9.4c7-3.4,15.4-9.1,15.4-9.1l1.3-28.9c0.9-20.1-4.1-22.3-8.8-29.2
	c-4.7-6.9-5.6-11.3-10-27.3s-1.9-68.1-1.9-68.1h54.4c0,0,2.5,52.1-1.9,68.1s-5.3,20.4-10,27.3c-4.7,6.9-9.7,9.1-8.8,29.2l1.3,28.9
	c0,0,8.4,5.7,15.4,9.1C-1539.3,1086-1530.1,1091.9-1569.7,1091.9z"/>
<path class="st23" d="M-1431.9,970.8c4.1,0,7.4,3.4,7.2,7.5l-3.8,95.7c0,0-0.9,17.9-13.2,17.9c-17.1,0-28.7,0-28.7,0s-11.6,0-28.7,0
	c-12.3,0-13.2-17.9-13.2-17.9l-3.8-95.7c-0.2-4.1,3.1-7.5,7.2-7.5L-1431.9,970.8L-1431.9,970.8z"/>
<ellipse class="st13" cx="-1501.4" cy="1031.3" rx="2.7" ry="39.4"/>
<ellipse class="st13" cx="-1491.3" cy="1031.3" rx="2.7" ry="39.4"/>
<ellipse class="st13" cx="-1474.3" cy="1031.3" rx="2.7" ry="39.4"/>
<ellipse class="st13" cx="-1464" cy="1031.3" rx="2.7" ry="39.4"/>
<ellipse class="st13" cx="-1446.7" cy="1031.3" rx="2.7" ry="39.4"/>
<ellipse class="st13" cx="-1438.6" cy="1031.3" rx="2.7" ry="39.4"/>
<path class="st13" d="M-1495.2,1078c-0.7,0-1.3,4.6-1.7,12.3h3.5C-1494,1082.6-1494.6,1078-1495.2,1078z"/>
<path class="st13" d="M-1469,1076.3c-0.7,0-1.4,5.3-1.8,13.9h3.7C-1467.7,1081.6-1468.3,1076.3-1469,1076.3z"/>
<path class="st13" d="M-1442.9,1078c-0.7,0-1.3,4.6-1.7,12.3h3.5C-1441.6,1082.6-1442.2,1078-1442.9,1078z"/>
<text transform="matrix(1 0 0 1 -510.9108 -151.1131)" style="font-family:'MyriadPro-Regular'; font-size:72px;">Wine</text>
<path class="st7" d="M-694.8,288.5c-103.5-0.2-51.2-11.8-48-12.5c0.1,0,0.2,0,0.3-0.1c1.8-0.5,17.6-5.2,22.9-8.2
	c5.5-3.2,14.6-18.7,14.8-25.7c0.2-6.3-4-21.5-5-25.2c-0.2-0.5-0.4-1-0.7-1.5c-7.5-11-1.3-17.9,3.1-24.8c4.5-7,2-23.6-1.9-30
	c-3.8-6.4-13.9-31.9-17.7-51c-3.1-15.9-27.1-81.2-35-102.7c-1.2-3.3,1.2-6.9,4.8-6.9L-631,0.2c3.6,0,6,3.6,4.8,6.9
	c-8.1,21.4-32.3,86.6-35.5,102.5c-3.9,19.1-14.1,44.6-18,50.9c-3.8,6.4-6.4,22.9-2,30c4.4,6.9,10.5,13.9,3,24.8
	c-0.3,0.5-0.6,0.9-0.7,1.5c-1,3.6-5.3,18.9-5.1,25.2c0.2,7,9.2,22.6,14.7,25.8c5.2,3.1,21.1,7.8,22.8,8.3c0.1,0,0.2,0.1,0.3,0.1
	C-643.5,277-591.3,288.8-694.8,288.5z"/>
<path class="st7" d="M-343.3,163.3v101.1c0,0,16.4,7.2,26.1,10.7c8.8,3.2,30.8,14.5-32.3,14.5s-41.1-11.3-32.3-14.5
	c9.7-3.5,26-10.7,26-10.7V163.3c0,0-3.9-2.4-12.9-8.9c-10.2-7.4-27.4-26.8-33.9-48.7c-6.6-21.9,9.9-105.6,9.9-105.6h86.5
	c0,0,16.4,83.8,9.9,105.6c-6.6,21.9-23.7,41.3-33.9,48.7C-339.4,160.9-343.3,163.3-343.3,163.3z"/>
<path class="st7" d="M61,139.7c0,6.3-0.4,117.8-0.4,117.8l25.6,14.7c0,0,44.2,16.3-32.6,16.3S21,272.2,21,272.2l25.6-14.7
	c0,0-0.4-111.5-0.4-117.8s-3.1-8-8.5-11.4s-25-14.8-35.1-32.4S15,0,15,0h77.3c0,0,22.5,78.4,12.4,95.9c-10.1,17.6-29.7,29-35.1,32.4
	C64.2,131.7,61,133.5,61,139.7z"/>
<path class="st7" d="M423.5,180.5c0,4.6,0,69.5,0,69.5s15.3,22.4,24.2,23s44.4,15.5-32.5,15.5s-41.4-14.9-32.5-15.5s24.2-23,24.2-23
	s0-65,0-69.5c0-4.6-3.6-7.7-3.6-7.7c-1.6-16.3-19.1-29.2-43.9-55.9c-24.7-26.7,8-99.8,8-99.8h95.7c0,0,32.7,73.1,8,99.8
	s-42.3,39.6-43.9,55.9C427.1,172.8,423.5,175.9,423.5,180.5z"/>
<path class="st25" d="M-2517.4,1548.4h-118.2c-10.7,0-19.4-8.7-19.4-19.4v-118.2c0-10.7,8.7-19.4,19.4-19.4h118.2
	c10.7,0,19.4,8.7,19.4,19.4V1529C-2498,1539.6-2506.7,1548.4-2517.4,1548.4z"/>
<path class="st4" d="M-2655,1442.8v86.2c0,10.7,8.7,19.4,19.4,19.4h118.2c10.7,0,19.4-8.7,19.4-19.4v-86.2H-2655z"/>
<text transform="matrix(1 0 0 1 -2600.2334 1424.9342)" class="st4" style="font-family:'Cloud-Bold'; font-size:26px;">DAY</text>
<g>
	<path class="st7" d="M316.6,861.1c0,6.3-0.4,117.8-0.4,117.8l25.6,14.7c0,0,44.2,16.3-32.6,16.3c-65.3,0-24.6-16.3-24.6-16.3
		l25.6-14.7c0,0-0.4-111.5-0.4-117.8c0-6.3-3.1-8-8.5-11.4s-25-14.8-35.1-32.4c-10.2-17.6,12.3-95.9,12.3-95.9h69.3
		c0,0,22.5,78.4,12.4,95.9c-10.1,17.6-29.7,29-35.1,32.4C319.7,853.1,316.6,854.8,316.6,861.1z"/>
	
		<linearGradient id="SVGID_5_" gradientUnits="userSpaceOnUse" x1="351.3789" y1="-638.0501" x2="350.9175" y2="-629.2847" gradientTransform="matrix(1 0 0 1 0 1429.8)">
		<stop  offset="0" style="stop-color:#AE4F6F"/>
		<stop  offset="1" style="stop-color:#6C365E"/>
	</linearGradient>
	<path class="st26" d="M349.5,796.8c-0.3-1.5,0.2-3,1.3-4.1c0.2-0.2,0.4-0.4,0.7-0.4c0.7-0.1,1.3,0.6,1.4,1.3c0.3,1.4-0.7,3-2.2,3.4
		c-0.5,0.1-1.1,0-1.3-0.4"/>
	
		<linearGradient id="SVGID_6_" gradientUnits="userSpaceOnUse" x1="313.276" y1="-635.7824" x2="313.276" y2="-583.3051" gradientTransform="matrix(1 0 0 1 0 1429.8)">
		<stop  offset="0" style="stop-color:#AE4F6F"/>
		<stop  offset="1" style="stop-color:#6C365E"/>
	</linearGradient>
	<path class="st27" d="M355.3,810.2c-0.7,0.1-1.3,0.5-2,0.8c-0.7,0.3-1.6,0.4-2.3,0.2c-0.1,0-0.2,0-0.3-0.1s-0.1-0.1-0.1-0.2
		s0-0.1,0-0.2c0-1.9,0.2-4.1-2.1-5.3c-0.7-0.3-1.4-0.5-2.1-0.5c-2.4,0-4.4,1.4-6.5,2.5c-3.5,1.9-7.3,3-11.2,3.5h-13.2
		c-4.4-0.5-8.7-1.3-13-2.2c-1.8-0.4-3.7-0.8-5.1-1.9c-1.1-0.9-1.9-2.1-2.9-3.1s-2.5-1.8-3.9-1.3c-0.7,0.2-1.2,0.7-1.9,0.9
		c-1.1,0.3-2.2-0.1-3.2-0.5c-1.6-0.7-3.2-1.3-4.5-2.4c-2-1.6-3.7-4.1-6.6-3.4c-1.2,0.3-2.2,1.1-2.8,2.1c-6.3,9.8,5,20.6,11.6,26.7
		c5.5,5.1,11.6,9.3,18,13.2c0.9,0.5,1.7,1,2.4,1.5c7.6,5,9.3,5.8,11.6,5.8c2,0,6.1-3,10.1-5.8c0.7-0.5,1.5-1,2.4-1.5
		c0.5-0.3,1-0.6,1.5-0.9c5-3.1,9.8-6.5,14.3-10.4c2.9-2.6,5.7-5.3,8.2-8.3c1.3-1.6,2.5-3.2,3.6-4.9
		C355.8,813.6,358.3,809.9,355.3,810.2z"/>
</g>
<g>
	<path class="st7" d="M-179.1,865.6c4.9,0,8.9,4.1,8.7,9l-4.6,115c0,0-1.1,21.5-15.8,21.5c-20.6,0-34.5,0-34.5,0s-13.9,0-34.5,0
		c-14.7,0-15.8-21.5-15.8-21.5l-4.6-115c-0.2-4.9,3.7-9,8.7-9C-271.5,865.6-179.1,865.6-179.1,865.6z"/>
	<path class="st28" d="M-259.3,914.9c-6.7,0-12.1,3.8-11.8,8.5l2.9,51.1c0,0,0.9,12.4,13.3,12.4c17.3,0,28.9,0,28.9,0s11.7,0,28.9,0
		c12.3,0,13.3-12.4,13.3-12.4l2.9-51.1c0.3-4.6-5.1-8.5-11.8-8.5H-259.3z"/>
	<path class="st29" d="M-243,935.5l-13.1-8.9c-2.6-1.8-3.3-5.4-1.5-8l8.9-13.1c1.8-2.6,5.4-3.3,8-1.5l13.1,8.9
		c2.6,1.8,3.3,5.4,1.5,8L-235,934C-236.8,936.6-240.4,937.3-243,935.5z"/>
	<path class="st29" d="M-200.4,923l-7,2.1c-2,0.6-4-0.5-4.6-2.5l-2.1-7c-0.6-2,0.5-4,2.5-4.6l7-2.1c2-0.6,4,0.5,4.6,2.5l2.1,7
		C-197.3,920.3-198.4,922.4-200.4,923z"/>
</g>
<g>
	<path class="st7" d="M184.1,994.4l-20.2-11.6c0,0,0.3-67.4,0.3-87.6l45.4-63h-96.1l45.3,62.8c0.1,20,0.3,87.7,0.3,87.7l-20.2,11.6
		c0,0-32.1,12.9,19.4,12.9C219,1007.3,184.1,994.4,184.1,994.4z"/>
	
		<linearGradient id="SVGID_7_" gradientUnits="userSpaceOnUse" x1="161.5741" y1="-574.4001" x2="161.5741" y2="-541.4467" gradientTransform="matrix(1 0 0 1 0 1429.8)">
		<stop  offset="0" style="stop-color:#14AFAB"/>
		<stop  offset="1" style="stop-color:#227893"/>
	</linearGradient>
	<polygon class="st30" points="185.3,855.4 161.6,888.4 137.8,855.4 	"/>
	<path class="st31" d="M187.2,843.4c5.3-4.6,5.8-12.7,1.2-18c-4.6-5.3-12.7-5.8-18-1.2"/>
	<g>
		<polygon class="st32" points="177.5,832.2 170.1,832.2 170.1,833 178.9,833 		"/>
		<polygon class="st33" points="183.1,838.6 183.1,832.2 177.5,832.2 178.2,833 		"/>
	</g>
</g>
<path class="st34" d="M-4239.9,64.4c-0.6-0.8-2.8-5.7-5.3-10.7c-1.7-3.4-1.8-7.2-1.7-9.3c0-0.9,0.4-1.6,0.9-2.3
	c0.4-0.5,0.8-1.4,0.8-2.8c0-2.8-55.6-3.9-55.6-3.9s-55.6,1.1-55.6,3.9c0,1.4,0.4,2.3,0.8,2.8c0.5,0.7,0.9,1.5,0.9,2.3
	c0.1,2.1,0,5.9-1.7,9.3c-2.5,5-4.6,9.9-5.3,10.7c-0.7,0.8,0,15.1,0,18.7V235c0,1,0.4,1.9,1,2.7c1.1,1.2,3.1,3.1,5.7,4.7
	c2.4,1.4,4.1,2.7,5.1,3.5c0.7,0.6,1.3,1.4,1.4,2.3l0,0c0.1,0.5,0.3,0.9,0.5,1.3l1.1,1.7c0.7,1.1,1.8,1.7,3,1.8
	c7.4,0.6,33.5,2.5,42.9,2.5c9.8,0,35.6-1.9,42.9-2.5c1.2-0.1,2.4-0.8,3-1.8l1.1-1.7c0.3-0.4,0.4-0.9,0.5-1.3l0,0
	c0.2-0.9,0.7-1.8,1.4-2.3c1-0.8,2.7-2,5.1-3.5c2.6-1.6,4.6-3.5,5.7-4.7c0.7-0.7,1-1.7,1-2.7V83.1
	C-4239.9,79.5-4239.2,65.2-4239.9,64.4z"/>
<path class="st35" d="M-4344.6,246.1c0,0,50.3,5.5,87.7,0"/>
<rect x="-4353.5" y="134" class="st36" width="105.5" height="26.5"/>
<path class="st35" d="M-4350,42c0,0,40.7,4.1,98.6,0"/>
<path class="st36" d="M-4332.5,160.6h63.5c-3.5,24-16.4,41.8-31.7,41.8C-4316.1,202.4-4328.9,184.6-4332.5,160.6z"/>
<path class="st36" d="M-4269,134h-63.5c3.5-24,16.4-41.8,31.7-41.8C-4285.4,92.2-4272.5,110-4269,134z"/>
<path d="M-3004.6,1750.4h-23.1v-106c0-6.4,5.2-11.6,11.6-11.6l0,0c6.4,0,11.6,5.2,11.6,11.6v106H-3004.6z"/>
<path d="M-2912.1,1761.9L-2912.1,1761.9c0,6.4-5.2,11.6-11.6,11.6h-307.1c-6.4,0-11.6-5.2-11.6-11.6l0,0c0-6.4,5.2-11.6,11.6-11.6
	h307.1C-2917.3,1750.4-2912.1,1755.5-2912.1,1761.9z"/>
<path d="M-2387,1956.5L-2387,1956.5c0,6.4-5.2,11.6-11.6,11.6h-307.1c-6.4,0-11.6-5.2-11.6-11.6l0,0c0-6.4,5.2-11.6,11.6-11.6h307.1
	C-2392.2,1945-2387,1950.1-2387,1956.5z"/>
<path d="M-2976.2,1646.4L-2976.2,1646.4c-4.5,4.5-11.8,4.5-16.3,0l-99.2-99.2c-4.5-4.5-4.5-11.8,0-16.3l0,0c4.5-4.5,11.8-4.5,16.3,0
	l99.2,99.2C-2971.6,1634.5-2971.6,1641.8-2976.2,1646.4z"/>
<path d="M-3192,1646.4L-3192,1646.4c4.5,4.5,11.8,4.5,16.3,0l99.2-99.2c4.5-4.5,4.5-11.8,0-16.3l0,0c-4.5-4.5-11.8-4.5-16.3,0
	l-99.2,99.2C-3196.5,1634.5-3196.5,1641.8-3192,1646.4z"/>
<path d="M-3140.6,1750.4h-23.1v-106c0-6.4,5.2-11.6,11.6-11.6l0,0c6.4,0,11.6,5.2,11.6,11.6v106H-3140.6z"/>
<path d="M-3079.9,1750.4h-43.1V1698c0-11.9,9.7-21.6,21.6-21.6l0,0c11.9,0,21.6,9.7,21.6,21.6v52.4H-3079.9z"/>
<path d="M-2493.9,1821.2h-109.4c-4.3,0-7.9,3.5-7.9,7.9l0,0c0,13.9-11.3,25.2-25.2,25.2l0,0c-10.3,0-18.6,8.3-18.6,18.6v33.7h196.6
	c13.8,0,24.9-11.2,24.9-24.9l0,0C-2433.4,1848.3-2460.5,1821.2-2493.9,1821.2z"/>
<path d="M-2456,1843.6h-38.5c-8.7,0-15.8-7.1-15.8-15.8v-38.5c0-8.7,7.1-15.8,15.8-15.8h38.5c8.7,0,15.8,7.1,15.8,15.8v38.5
	C-2440.2,1836.5-2447.3,1843.6-2456,1843.6z"/>
<linearGradient id="SVGID_8_" gradientUnits="userSpaceOnUse" x1="-694.0826" y1="198.1681" x2="-694.0826" y2="125.3197" gradientTransform="matrix(1 0 0 -1 0 289.8)">
	<stop  offset="0" style="stop-color:#AE4F6F"/>
	<stop  offset="1" style="stop-color:#6C365E"/>
</linearGradient>
<path class="st37" d="M-670.1,93.3h-24h-24c-1.6,0-2.7,1.6-2.1,3.1c1.8,4.3,3.5,11.5,3.9,12.8c2.4,10.1,3.1,20.3,8.1,29.4
	c3.7,6.7,8.1,12.8,12.6,19c0.9,1.2,1.5,1.7,1.5,1.7s0.6-0.5,1.5-1.7c4.5-6.2,8.9-12.3,12.6-19c5-9.1,5.7-19.3,8.1-29.4
	c0.3-1.3,2.1-8.5,3.9-12.8C-667.4,94.9-668.5,93.3-670.1,93.3z"/>
<linearGradient id="SVGID_9_" gradientUnits="userSpaceOnUse" x1="-349.4679" y1="194.2613" x2="-349.4679" y2="135.0422" gradientTransform="matrix(1 0 0 -1 0 289.8)">
	<stop  offset="0" style="stop-color:#AE4F6F"/>
	<stop  offset="1" style="stop-color:#6C365E"/>
</linearGradient>
<path class="st38" d="M-304,99.9c0.3-2.1-1.6-3.9-4-3.9h-41.5H-391c-2.4,0-4.2,1.8-4,3.9c1,8.1,6.2,27.8,32.1,48.9
	c7.5,6.1,19.2,6.1,26.7,0C-310.2,127.7-305,108-304,99.9z"/>
<linearGradient id="SVGID_10_" gradientUnits="userSpaceOnUse" x1="53.6154" y1="204.3394" x2="53.6154" y2="164.1448" gradientTransform="matrix(1 0 0 -1 0 289.8)">
	<stop  offset="0" style="stop-color:#AE4F6F"/>
	<stop  offset="1" style="stop-color:#6C365E"/>
</linearGradient>
<path class="st39" d="M99.1,88.4c0.3-1.4-1.6-2.6-4-2.6H53.6H12.1c-2.4,0-4.2,1.2-4,2.6c1,5.5,6.2,18.8,32.1,33.2
	c7.5,4.1,19.2,4.1,26.7,0C92.9,107.3,98.1,93.9,99.1,88.4z"/>
<linearGradient id="SVGID_11_" gradientUnits="userSpaceOnUse" x1="415.22" y1="184.9606" x2="415.22" y2="135.2538" gradientTransform="matrix(1 0 0 -1 0 289.8)">
	<stop  offset="0" style="stop-color:#AE4F6F"/>
	<stop  offset="1" style="stop-color:#6C365E"/>
</linearGradient>
<path class="st40" d="M469.6,105.3h-48.8c-1.9,0-3.7,0-5.6,0c-1.9,0-3.7,0-5.6,0h-48.7c-0.6,0.8,1,5.2,1.3,6.2
	c0.9,2.8,3.7,4.5,6.2,6.2c6.3,4.3,9.8,10.3,14.8,15.8c5.5,6.1,12,11.4,18.8,16.1c3.7,2.6,8.5,3.8,13.3,3.8s9.6-1.3,13.3-3.8
	c6.8-4.7,13.3-9.9,18.8-16.1c5-5.5,8.5-11.5,14.8-15.8c2.5-1.7,5.3-3.4,6.2-6.2C468.6,110.5,470.2,106.1,469.6,105.3z"/>
<linearGradient id="SVGID_12_" gradientUnits="userSpaceOnUse" x1="456.6698" y1="184.3" x2="456.6698" y2="184.3" gradientTransform="matrix(1 0 0 -1 0 289.8)">
	<stop  offset="0" style="stop-color:#AE4F6F"/>
	<stop  offset="1" style="stop-color:#6C365E"/>
</linearGradient>
<path class="st41" d="M456.7,105.5"/>
<ellipse transform="matrix(0.1108 -0.9938 0.9938 0.1108 -637.5317 -626.3134)" class="st13" cx="-668.8" cy="43.1" rx="6.1" ry="6.1"/>
<ellipse transform="matrix(0.1586 -0.9873 0.9873 0.1586 -646.8779 -598.9385)" class="st13" cx="-674.9" cy="80.1" rx="20.1" ry="5.8"/>
<ellipse transform="matrix(0.1454 -0.9894 0.9894 0.1454 337.1278 504.6567)" class="st13" cx="460.7" cy="57.2" rx="7.2" ry="4"/>
<ellipse transform="matrix(8.062100e-02 -0.9967 0.9967 8.062100e-02 325.7911 541.9438)" class="st13" cx="456.7" cy="94.4" rx="20.1" ry="5.8"/>
<ellipse transform="matrix(1.111432e-03 -1 1 1.111432e-03 -355.7892 -267.0921)" class="st13" cx="-311.6" cy="44.5" rx="6.1" ry="3.6"/>
<ellipse transform="matrix(0.9997 -2.536585e-02 2.536585e-02 0.9997 -1.2013 2.2875)" class="st13" cx="89.6" cy="48.5" rx="3.8" ry="3.8"/>
<path class="st13" d="M-307,82.5c0,12.7-5.6,24.7-8.2,24.7c-2.6,0-1.1-12-1.1-24.7s2.1-23,4.7-23C-309.1,59.5-307,69.8-307,82.5z"/>
<path class="st13" d="M93.5,82.5c0,7.7-3.9,14-6.1,14c-2.2,0-1.8-6.3-1.8-14s1.8-14,3.9-14C91.7,68.5,93.5,74.7,93.5,82.5z"/>
</svg>
