<?xml version="1.0" encoding="utf-8"?>
<!-- Generator: Adobe Illustrator 22.0.1, SVG Export Plug-In . SVG Version: 6.00 Build 0)  -->
<svg version="1.1" id="Layer_1" xmlns="http://www.w3.org/2000/svg" xmlns:xlink="http://www.w3.org/1999/xlink" x="0px" y="0px"
	 viewBox="0 0 130.2 271.4" style="enable-background:new 0 0 130.2 271.4;" xml:space="preserve">
<style type="text/css">
	.st0{display:none;}
	.st1{display:inline;fill:#FFFFFF;stroke:#000000;stroke-miterlimit:10;}
	.st2{fill:#707B7F;}
	.st3{fill:#CE403F;}
	.st4{fill:#FFFFFF;}
	.st5{fill:#CD915F;}
	.st6{fill:#AA6628;}
	.st7{opacity:0.5;fill:#F9F9FA;enable-background:new    ;}
	.st8{fill:url(#SVGID_1_);}
	.st9{fill:#DDDDDD;}
	.st10{fill:#F7F7F7;}
	.st11{opacity:0.35;fill:#F4F4F5;enable-background:new    ;}
	.st12{fill:url(#SVGID_2_);}
	.st13{opacity:0.6;fill:#F4F4F5;enable-background:new    ;}
	.st14{display:none;fill:#34A6C9;stroke:#1B8EB7;stroke-width:10;stroke-miterlimit:10;}
	.st15{display:none;fill:#F27CA7;stroke:#C94C72;stroke-width:10;stroke-miterlimit:10;}
	.st16{fill:#476269;}
	.st17{fill:#222728;}
	.st18{fill:#DDDDDC;}
	.st19{fill:#F6F7F7;}
	.st20{fill:url(#SVGID_3_);}
	.st21{fill:url(#SVGID_4_);}
	.st22{enable-background:new    ;}
	.st23{fill:#F9F9FA;stroke:#E2E2E2;stroke-width:3;stroke-miterlimit:10;}
	.st24{fill:none;stroke:#E2E2E2;stroke-width:3;stroke-miterlimit:10;}
	.st25{fill:#D95F56;}
	.st26{fill:url(#SVGID_5_);}
	.st27{fill:url(#SVGID_6_);}
	.st28{opacity:0.84;fill:#E8CD2C;enable-background:new    ;}
	.st29{opacity:0.39;fill:#90D7EB;enable-background:new    ;}
	.st30{opacity:0.84;fill:url(#SVGID_7_);enable-background:new    ;}
	.st31{fill:#D2E8C9;stroke:#6EBF59;stroke-width:2;stroke-miterlimit:10;}
	.st32{fill:none;}
	.st33{fill:#E4F1DD;}
	.st34{fill:#7AC25B;}
	.st35{fill:none;stroke:#E2E2E2;stroke-miterlimit:10;}
	.st36{fill:#157D3E;stroke:#E2E2E2;stroke-width:3;stroke-miterlimit:10;}
	.st37{fill:url(#SVGID_8_);}
	.st38{fill:url(#SVGID_9_);}
	.st39{fill:url(#SVGID_10_);}
	.st40{fill:url(#SVGID_11_);}
	.st41{fill:url(#SVGID_12_);}
</style>
<g id="Layer_1_1_" class="st0">
	<rect x="-3126.7" y="-241.2" class="st1" width="136.5" height="482"/>
</g>
<path class="st2" d="M-2863.1,1536.3h-127c-11.1,0-20.2-9.1-20.2-20.2v-93.6c0-11.1,9.1-20.2,20.2-20.2h127
	c11.1,0,20.2,9.1,20.2,20.2v93.6C-2842.9,1527.2-2852,1536.3-2863.1,1536.3z"/>
<rect x="-3591.8" y="-402.6" class="st3" width="658.6" height="188.9"/>
<circle class="st4" cx="-4166.2" cy="46.8" r="6.2"/>
<g>
	<polygon class="st5" points="-2975,-664.8 -3017.2,-652.2 -2924.7,-652.2 	"/>
	<polygon class="st5" points="-2636.6,-664.8 -2594.5,-652.2 -2687,-652.2 	"/>
	<rect x="-2975.1" y="-664.8" class="st5" width="338.4" height="14.9"/>
	<rect x="-3017.2" y="-652.2" class="st6" width="422.8" height="11.1"/>
</g>
<path class="st7" d="M-4047.9,279.5h-148.8c-11.7,0-21.2-9.5-21.2-21.2V30.7c0-11.7,9.5-21.2,21.2-21.2h148.8
	c11.7,0,21.2,9.5,21.2,21.2v227.7C-4026.7,270-4036.2,279.5-4047.9,279.5z"/>
<linearGradient id="SVGID_1_" gradientUnits="userSpaceOnUse" x1="-4123.8169" y1="-1387.6001" x2="-4123.8169" y2="-1163.3784" gradientTransform="matrix(1 0 0 1 0 1429.8)">
	<stop  offset="0" style="stop-color:#FFCC4C"/>
	<stop  offset="1" style="stop-color:#FEBF4B"/>
</linearGradient>
<path class="st8" d="M-4064.4,267.3h-118.8c-11.7,0-21.2-9.5-21.2-21.2V63.4c0-11.7,9.5-21.2,21.2-21.2h118.8
	c11.7,0,21.2,9.5,21.2,21.2v182.7C-4043.2,257.8-4052.7,267.3-4064.4,267.3z"/>
<circle class="st9" cx="-4179.7" cy="40.6" r="33"/>
<circle class="st9" cx="-4144" cy="31" r="23.4"/>
<circle class="st9" cx="-4109" cy="40.9" r="23.4"/>
<circle class="st9" cx="-4059.5" cy="36.1" r="28.2"/>
<circle class="st10" cx="-4109" cy="31.9" r="23.4"/>
<circle class="st10" cx="-4087.7" cy="21.9" r="11.7"/>
<path class="st10" d="M-4167.4,21.9c0-1.5,0.1-2.9,0.4-4.3h-42.6c-2,4.2-3.1,9-3.1,14c0,18.2,14.8,33,33,33
	c13.6,0,25.3-8.2,30.3-19.9C-4159.7,42.2-4167.4,33-4167.4,21.9z"/>
<path class="st10" d="M-4146.7,31.6c0,4.6-1,9.1-2.7,13.1c1.7,0.4,3.5,0.6,5.4,0.6c12.9,0,23.4-10.5,23.4-23.4
	c0-1.5-0.1-2.9-0.4-4.3h-28.7C-4147.8,21.8-4146.7,26.6-4146.7,31.6z"/>
<path class="st10" d="M-4149.8,17.6h-17.2c-0.3,1.4-0.4,2.8-0.4,4.3c0,11.1,7.7,20.3,18,22.7c1.7-4,2.7-8.4,2.7-13.1
	C-4146.7,26.6-4147.8,21.8-4149.8,17.6z"/>
<path class="st10" d="M-4032.9,17.6h-53.1c-1.1,3-1.6,6.1-1.6,9.5c0,15.6,12.6,28.2,28.2,28.2c15.6,0,28.2-12.6,28.2-28.2
	C-4031.3,23.7-4031.9,20.5-4032.9,17.6z"/>
<path class="st10" d="M-4028.3,18.4c0,0-0.1-0.1-0.2-0.2C-4028.5,18.3-4028.4,18.4-4028.3,18.4L-4028.3,18.4z"/>
<path class="st10" d="M-4032.9,17.6h-116.9c-2.4-5-5.9-9.3-10.3-12.6c-3.5,3.3-5.9,7.7-6.8,12.6h-42.6c0.5-1.1,1.1-2.2,1.8-3.3
	C-4203.5,9.7-4195,2-4185,2h55.4c0,0,6.7,0,16,0h55.4c13.2,0,23.9,13.4,25.3,15.3C-4033,17.4-4033,17.5-4032.9,17.6z"/>
<path class="st10" d="M-4167,17.6h17.2c-2.3-5-5.9-9.3-10.3-12.6C-4163.6,8.3-4166,12.7-4167,17.6z"/>
<path class="st7" d="M-3969.9,83.4c-2.3-11.7-10.8-20.4-21-20.4h-35.8v22.5h25.3c6,0,10.8,5.9,10.8,13.3v77.4
	c0,7.3-4.8,13.3-10.8,13.3h-25.3v23.4h35.8c10.7,0,19.6-9.6,21.3-22.2c0.2-1.1,0.3-2.2,0.3-3.4v-1l0,0V89.6l0,0v-1.4
	C-3969.3,86.5-3969.5,84.9-3969.9,83.4z"/>
<path class="st11" d="M-4170.9,237.1L-4170.9,237.1c-6,0-10.8-4.8-10.8-10.8v-134c0-6,4.8-10.8,10.8-10.8l0,0
	c6,0,10.8,4.8,10.8,10.8v134C-4160,232.3-4164.9,237.1-4170.9,237.1z"/>
<path class="st11" d="M-4120.6,237.1L-4120.6,237.1c-6,0-10.8-4.8-10.8-10.8v-134c0-6,4.8-10.8,10.8-10.8l0,0
	c6,0,10.8,4.8,10.8,10.8v134C-4109.8,232.3-4114.7,237.1-4120.6,237.1z"/>
<path class="st11" d="M-4071.6,233.8L-4071.6,233.8c-6,0-10.8-4.8-10.8-10.8V89c0-6,4.8-10.8,10.8-10.8l0,0c6,0,10.8,4.8,10.8,10.8
	v134C-4060.7,229-4065.6,233.8-4071.6,233.8z"/>
<g>
	<circle class="st4" cx="-419.6" cy="819" r="4.7"/>
	<path class="st7" d="M-333.7,1001.2h-104.4c-11.7,0-21.2-9.5-21.2-21.2V815c0-11.7,9.5-21.2,21.2-21.2h104.4
		c11.7,0,21.2,9.5,21.2,21.2v165C-312.5,991.7-322,1001.2-333.7,1001.2z"/>
	
		<linearGradient id="SVGID_2_" gradientUnits="userSpaceOnUse" x1="-387.017" y1="-610.8" x2="-387.017" y2="-438.6418" gradientTransform="matrix(1 0 0 1 0 1429.8)">
		<stop  offset="0" style="stop-color:#FFCC4C"/>
		<stop  offset="1" style="stop-color:#FEBF4B"/>
	</linearGradient>
	<path class="st12" d="M-346.3,991.8h-81.4c-11.7,0-21.2-9.5-21.2-21.2V840.2c0-11.7,9.5-21.2,21.2-21.2h81.4
		c11.7,0,21.2,9.5,21.2,21.2v130.4C-325.1,982.3-334.6,991.8-346.3,991.8z"/>
	<circle class="st9" cx="-429.9" cy="814.3" r="25.3"/>
	<circle class="st9" cx="-402.5" cy="806.9" r="17.9"/>
	<circle class="st9" cx="-375.7" cy="814.5" r="17.9"/>
	<circle class="st9" cx="-337.6" cy="810.8" r="21.6"/>
	<circle class="st10" cx="-375.7" cy="807.6" r="17.9"/>
	<circle class="st10" cx="-359.3" cy="799.9" r="9"/>
	<path class="st10" d="M-420.5,799.9c0-1.1,0.1-2.2,0.3-3.3h-32.7c-1.5,3.3-2.4,6.9-2.4,10.7c0,14,11.3,25.3,25.3,25.3
		c10.4,0,19.4-6.3,23.3-15.3C-414.6,815.5-420.5,808.4-420.5,799.9z"/>
	<path class="st10" d="M-404.6,807.3c0,3.6-0.7,7-2.1,10c1.3,0.3,2.7,0.5,4.1,0.5c9.9,0,17.9-8,17.9-17.9c0-1.1-0.1-2.2-0.3-3.3
		h-22.1C-405.4,799.9-404.6,803.5-404.6,807.3z"/>
	<path class="st10" d="M-407,796.6h-13.2c-0.2,1.1-0.3,2.2-0.3,3.3c0,8.5,5.9,15.6,13.8,17.5c1.3-3.1,2.1-6.5,2.1-10
		C-404.6,803.5-405.4,799.9-407,796.6z"/>
	<path class="st10" d="M-317.2,796.6H-358c-0.8,2.3-1.3,4.7-1.3,7.3c0,12,9.7,21.6,21.6,21.6c12,0,21.6-9.7,21.6-21.6
		C-316,801.3-316.4,798.9-317.2,796.6z"/>
	<path class="st10" d="M-313.7,800.7c0,0-0.1-0.1-0.1-0.2C-313.8,800.6-313.8,800.7-313.7,800.7L-313.7,800.7z"/>
	<path class="st10" d="M-317.2,796.6h-89.7c-1.8-3.8-4.5-7.2-7.9-9.7c-2.7,2.5-4.6,5.9-5.3,9.7h-32.7c0.4-0.9,0.9-1.7,1.4-2.5
		c3.2-3.5,9.8-9.4,17.5-9.4h42.5c0,0,5.1,0,12.3,0h42.5c10,0,18.2,10.2,19.3,11.7C-317.3,796.5-317.3,796.5-317.2,796.6z"/>
	<path class="st10" d="M-420.2,796.6h13.2c-1.8-3.8-4.5-7.2-7.9-9.7C-417.6,789.5-419.5,792.8-420.2,796.6z"/>
	<path class="st7" d="M-268.9,850.6c-1.7-9-8.3-15.7-16.1-15.7h-27.5v17.3h19.4c4.6,0,8.3,4.6,8.3,10.2v59.4
		c0,5.6-3.7,10.2-8.3,10.2h-19.4v17.9h27.5c8.2,0,15.1-7.4,16.4-17c0.1-0.8,0.2-1.7,0.2-2.6v-0.8l0,0v-74.2l0,0v-1.1
		C-268.4,853-268.6,851.8-268.9,850.6z"/>
	<path class="st13" d="M-423.2,968.6L-423.2,968.6c-4.6,0-8.3-3.7-8.3-8.3V857.4c0-4.6,3.7-8.3,8.3-8.3l0,0c4.6,0,8.3,3.7,8.3,8.3
		v102.9C-414.8,964.9-418.6,968.6-423.2,968.6z"/>
	<path class="st13" d="M-384.6,968.6L-384.6,968.6c-4.6,0-8.3-3.7-8.3-8.3V857.4c0-4.6,3.7-8.3,8.3-8.3l0,0c4.6,0,8.3,3.7,8.3,8.3
		v102.9C-376.3,964.9-380,968.6-384.6,968.6z"/>
	<path class="st13" d="M-346.9,966.1L-346.9,966.1c-4.6,0-8.3-3.7-8.3-8.3V854.9c0-4.6,3.7-8.3,8.3-8.3l0,0c4.6,0,8.3,3.7,8.3,8.3
		v102.9C-338.6,962.4-342.3,966.1-346.9,966.1z"/>
</g>
<path class="st14" d="M-3212.9,667.5v-32.9l5.8,5.8c9.5,9.5,25,9.5,34.5,0s9.5-25,0-34.5l-45-45l-2.9-2.9
	c-4.5-4.5-10.2-6.8-16.1-7.1c-0.2,0-0.5,0-0.8,0c-0.1,0-0.2,0-0.2,0c-0.1,0-0.1,0-0.2,0c-0.1,0-0.1,0-0.2,0
	c-6.3-0.1-12.7,2.3-17.5,7.2l-47.9,47.9c-9.5,9.5-9.5,25,0,34.5s25,9.5,34.5,0l7.1-7.1l0.6,33.7c-34.6,10-59.9,41.9-59.9,79.8
	c0,45.9,37.2,83.1,83.1,83.1c45.9,0,83.1-37.2,83.1-83.1C-3154.9,709.5-3179.3,678.1-3212.9,667.5z M-3238,781.9
	c-19.4,0-35.2-15.8-35.2-35.2s15.8-35.2,35.2-35.2s35.2,15.8,35.2,35.2S-3218.5,781.9-3238,781.9z"/>
<path class="st15" d="M-2926.9,709.1c32.4-32.4,32.4-85.1,0-117.5c-32.4-32.4-85.1-32.4-117.5,0c-32.4,32.4-32.4,85.1,0,117.5
	c10.6,10.6,23.3,17.7,36.8,21.4v25.9h-9.6c-12.1,0-21.9,9.8-21.9,21.9l0,0c0,12.1,9.8,21.9,21.9,21.9h9.6v9.6
	c0,12.1,9.8,21.9,21.9,21.9l0,0c12.1,0,21.9-9.8,21.9-21.9v-9.6h9.6c12.1,0,21.9-9.8,21.9-21.9l0,0c0-12.1-9.8-21.9-21.9-21.9h-9.6
	v-25.9C-2950.2,726.8-2937.5,719.7-2926.9,709.1z M-3010.5,625.4c13.8-13.8,36-13.8,49.8,0s13.8,36,0,49.8s-36,13.8-49.8,0
	C-3024.3,661.5-3024.3,639.2-3010.5,625.4z"/>
<rect x="-3135.4" y="487.1" class="st16" width="578.1" height="600.5"/>
<path class="st4" d="M-2985.5,665l-59.5,59.5c-6.3,6.3-16.4,6.3-22.7,0l0,0c-6.3-6.3-6.3-16.4,0-22.7l59.5-59.5
	c6.3-6.3,16.4-6.3,22.7,0l0,0C-2979.3,648.6-2979.3,658.8-2985.5,665z"/>
<path class="st4" d="M-2948.7,724.5l-59.5-59.5c-6.3-6.3-6.3-16.4,0-22.7l0,0c6.3-6.3,16.4-6.3,22.7,0l59.5,59.5
	c6.3,6.3,6.3,16.4,0,22.7l0,0C-2932.3,730.7-2942.5,730.7-2948.7,724.5z"/>
<path class="st4" d="M-2977,675.7v75.2c0,11.9-9.6,21.5-21.5,21.5l0,0c-11.9,0-21.5-9.6-21.5-21.5v-75.2c0-11.9,9.6-21.5,21.5-21.5
	l0,0C-2986.6,654.2-2977,663.8-2977,675.7z"/>
<path class="st4" d="M-2996.9,751.2c-52.3,0-94.6,42.4-94.6,94.6c0,52.2,42.4,94.6,94.6,94.6c52.2,0,94.6-42.4,94.6-94.6
	C-2902.3,793.6-2944.6,751.2-2996.9,751.2z M-2996.9,904c-32.1,0-58.2-26-58.2-58.2c0-32.1,26-58.2,58.2-58.2
	c32.1,0,58.2,26,58.2,58.2S-2964.7,904-2996.9,904z"/>
<path class="st4" d="M-2756.2,919V817.5c0-11.9,9.6-21.5,21.5-21.5l0,0c11.9,0,21.5,9.6,21.5,21.5v101.4c0,11.9-9.6,21.5-21.5,21.5
	l0,0C-2746.5,940.5-2756.2,930.8-2756.2,919z"/>
<path class="st4" d="M-2694.8,898.2h-79.7c-11.9,0-21.5-9.6-21.5-21.5l0,0c0-11.9,9.6-21.5,21.5-21.5h79.7
	c11.9,0,21.5,9.6,21.5,21.5l0,0C-2673.3,888.5-2683,898.2-2694.8,898.2z"/>
<path class="st4" d="M-2736.3,817.2c52.3,0,94.6-42.4,94.6-94.6c0-52.2-42.4-94.6-94.6-94.6s-94.6,42.4-94.6,94.6
	S-2788.6,817.2-2736.3,817.2z M-2736.3,664.4c32.1,0,58.2,26,58.2,58.2c0,32.1-26,58.2-58.2,58.2c-32.1,0-58.2-26-58.2-58.2
	C-2794.5,690.5-2768.4,664.4-2736.3,664.4z"/>
<rect x="-3650" y="487.1" class="st17" width="508.9" height="434.6"/>
<path class="st4" d="M-3371.1,664.4l-59.5,59.5c-6.3,6.3-16.4,6.3-22.7,0l0,0c-6.3-6.3-6.3-16.4,0-22.7l59.5-59.5
	c6.3-6.3,16.4-6.3,22.7,0l0,0C-3364.8,648-3364.8,658.2-3371.1,664.4z"/>
<path class="st4" d="M-3334.3,723.9l-59.5-59.5c-6.3-6.3-6.3-16.4,0-22.7l0,0c6.3-6.3,16.4-6.3,22.7,0l59.5,59.5
	c6.3,6.3,6.3,16.4,0,22.7l0,0C-3317.9,730.2-3328,730.2-3334.3,723.9z"/>
<path class="st4" d="M-3364.8,672.8v79.8c0,10.6-8.6,19.2-19.2,19.2l0,0c-10.6,0-19.2-8.6-19.2-19.2v-79.8
	c0-10.6,8.6-19.2,19.2-19.2l0,0C-3373.4,653.6-3364.8,662.2-3364.8,672.8z"/>
<path class="st18" d="M-3500.7-360.6c-18,0-34.3,7.5-45.7,19.5v83.2c11.4,12,27.6,19.5,45.7,19.5c34.4,0,62.4-27.4,62.4-61.1
	S-3466.2-360.6-3500.7-360.6z"/>
<path class="st18" d="M-2962.2-331.7c-8-8.2-19.5-13.4-32.2-13.4c-24.1,0-43.7,18.4-43.7,41.1s19.6,41.1,43.7,41.1
	c12.8,0,24.3-5.2,32.2-13.4V-331.7z"/>
<ellipse class="st18" cx="-3418.5" cy="-312.6" rx="28" ry="27.5"/>
<ellipse class="st18" cx="-3343.4" cy="-305.1" rx="54.2" ry="53.1"/>
<ellipse class="st18" cx="-3264.1" cy="-309.9" rx="35.9" ry="35.2"/>
<ellipse class="st18" cx="-3198.9" cy="-325.8" rx="33.6" ry="32.9"/>
<ellipse class="st18" cx="-3164.7" cy="-302.4" rx="38.4" ry="37.6"/>
<ellipse class="st18" cx="-3102" cy="-311" rx="38" ry="37.3"/>
<ellipse class="st18" cx="-3052.8" cy="-322.4" rx="23.2" ry="22.7"/>
<path class="st18" d="M-2962.2-307h-583.1c2.2-15.3,1.6-11,3.5-24.2l0,0c0-13.3,12.2-24.2,27.2-24.2h521.7c15,0,27.2,10.8,27.2,24.2
	l0,0C-2964.5-319-2964.6-319.3-2962.2-307z"/>
<circle class="st19" cx="-3418.5" cy="-324.8" r="28"/>
<circle class="st19" cx="-3343.4" cy="-317.2" r="54.2"/>
<circle class="st19" cx="-3264.1" cy="-322" r="35.9"/>
<circle class="st19" cx="-3198.9" cy="-338.2" r="33.6"/>
<circle class="st19" cx="-3164.7" cy="-314.4" r="38.4"/>
<circle class="st19" cx="-3102" cy="-323.1" r="38"/>
<circle class="st19" cx="-3052.8" cy="-334.8" r="23.2"/>
<rect x="-3546.1" y="-378.3" class="st19" width="583.9" height="61.1"/>
<path class="st19" d="M-2962.2-345c-8-8.4-19.5-13.7-32.2-13.7c-24.1,0-43.7,18.8-43.7,41.9s19.6,41.9,43.7,41.9
	c12.8,0,24.3-5.3,32.2-13.7V-345z"/>
<path class="st19" d="M-3500.7-375.6c-18,0-34.3,7.7-45.7,19.9v84.9c11.4,12.2,27.6,19.9,45.7,19.9c34.4,0,62.4-27.9,62.4-62.4
	S-3466.2-375.6-3500.7-375.6z"/>
<path class="st7" d="M-4258.6,248.2c1.4,1.9,2.6,3.6,3.7,5.2c6,8.5,2.2,20.3-7.8,23.9c-8.4,3-21.4,5.2-41.4,4.8
	c-20.1,0.4-33.1-1.8-41.5-4.8c-10-3.5-13.8-15.4-7.8-23.9c1.1-1.6,2.3-3.3,3.7-5.2c8.4-11.5,11-58.3,7.8-119.2
	c-2.6-49.2-25.6-180.6-34.4-229.4c-1.7-9.7,5.9-18.6,16-18.6h112.2c10.1,0,17.8,8.9,16,18.6c-8.8,48.8-31.8,180.2-34.4,229.4
	C-4269.6,189.9-4267,236.7-4258.6,248.2z"/>
<g>
	
		<linearGradient id="SVGID_3_" gradientUnits="userSpaceOnUse" x1="-4304.167" y1="-1501.5332" x2="-4304.167" y2="-1198.9698" gradientTransform="matrix(1 0 0 1 0 1429.8)">
		<stop  offset="0" style="stop-color:#FFCC4C"/>
		<stop  offset="1" style="stop-color:#FEBF4B"/>
	</linearGradient>
	<path class="st20" d="M-4275,118.1c2-38,19.8-139.3,26.5-177c1.3-7.5-4.6-14.3-12.4-14.3h-86.5c-7.8,0-13.7,6.8-12.4,14.3
		c6.8,37.6,24.5,139,26.5,177c0.9,16.3,1.2,79.1,1,92c-0.2,15.3,11.4,19.1,26.6,19.9c0.5,0,1,0,1.5,0s1,0,1.5,0
		c15.2-0.8,26.9-4.6,26.6-19.9C-4276.2,197.1-4275.9,134.4-4275,118.1z"/>
</g>
<circle class="st13" cx="-4269.2" cy="-51.2" r="6.1"/>
<ellipse transform="matrix(0.1256 -0.9921 0.9921 0.1256 -3769.8469 -4223.7017)" class="st13" cx="-4281" cy="26.7" rx="53" ry="6.1"/>
<g>
	<path class="st7" d="M-4417.2,267.1c0.8,2.1,0.1,4-1.5,5.5c-3.6,3.2-9.4,4.2-14,5c-11.5,1.9-23.2,2-34.8,1.9
		c-11.6,0.1-23.4,0-34.8-1.9c-4.6-0.8-10.4-1.7-14-5c-1.6-1.5-2.3-3.4-1.5-5.5c0.8-2,2.5-3.5,4.7-3.8c1.3-0.2,2.6-0.3,4-0.5
		c5.2-0.9,10.2-2.7,15-4.9c13.4-6,22-13.8,22-13.8s0.8-103,0.8-121.9s-38.2-28.4-54-46.5c-15.8-18.2,18.5-106.5,18.5-106.5h78.9
		c0,0,36.7,86.7,20.9,104.8c-15.8,18.1-56.4,29.3-56.4,48.2s0.8,121.9,0.8,121.9s8.6,7.8,22,13.8c4.8,2.1,9.8,3.9,15,4.9
		c1.3,0.2,2.6,0.3,4,0.5C-4419.7,263.6-4418,265.1-4417.2,267.1z"/>
	
		<linearGradient id="SVGID_4_" gradientUnits="userSpaceOnUse" x1="-4466.3672" y1="-1439.4954" x2="-4466.3672" y2="-1329.2866" gradientTransform="matrix(1 0 0 1 0 1429.8)">
		<stop  offset="0" style="stop-color:#FFCC4C"/>
		<stop  offset="1" style="stop-color:#FEBF4B"/>
	</linearGradient>
	<path class="st21" d="M-4423.8,77l-37.7,21.8c-3,1.7-6.8,1.7-9.8,0L-4509,77c-0.3-0.2-0.6-0.3-0.8-0.4c-2.2-1-15.2-8.3-5.3-39.8
		l9.8-38.6c1.1-4.3,5-7.4,9.5-7.4h58.8c4.5,0,8.4,3,9.5,7.4l9.9,38.6c9.9,31.5-3.1,38.8-5.3,39.8
		C-4423.3,76.7-4423.5,76.8-4423.8,77z"/>
	<circle class="st13" cx="-4438.2" cy="13" r="6.1"/>
	<ellipse class="st13" cx="-4438.2" cy="46" rx="6.1" ry="17"/>
</g>
<text transform="matrix(1 0 0 1 -3575.1521 13.0402)" style="font-family:'MyriadPro-Regular'; font-size:72px;">Beer</text>
<text transform="matrix(1 0 0 1 -2115.5049 -168.2128)" style="font-family:'MyriadPro-Regular'; font-size:72px;">Cocktail</text>
<path class="st23" d="M-2298.9,273.7c-77,0-50.8-18-50.8-18s14.7-4.4,27.8-6.6s16.3-27.3,16.3-27.3s0-73.2,0-95
	c0-21.9-5-22.9-5-22.9l-73.6-93.7h170.4l-73.6,93.7c0,0-5,1-5,22.9c0,21.8,0,95,0,95s3.2,25.1,16.3,27.3c13.1,2.2,27.9,6.6,27.9,6.6
	S-2221.9,273.7-2298.9,273.7z"/>
<path class="st23" d="M-2005.4,55.8c-12.3,13.9-52.3,27.8-58,37.6c0,0-0.4,8.6-9.1,9.1c0,0-4.5,3.2-4.5,13.2s-4.3,112,0,116.3
	c4.3,4.3,36.7,14.1,42.2,15.9c5.5,1.8,38.8,25-54,25c-92.8,0-59.4-23.2-54-25c5.5-1.8,37.9-11.6,42.2-15.9s0-106.3,0-116.3
	s-4.6-13.2-4.6-13.2c-8.6-0.5-9.1-9.1-9.1-9.1c-5.7-9.8-45.8-23.7-58-37.6c-12.3-13.9-9-46.6-9-46.6h184.8
	C-1996.4,9.2-1993.1,41.9-2005.4,55.8z"/>
<path class="st23" d="M-1932.6,272.5c-37.3-5.2-19.8-13.9-19.8-13.9l25.9-9.8v-107c-12.1-6.8-20.5-22.5-20.5-22.5
	c-14-24.2-5.4-143.7-5.4-143.7h60.6c0,0,8.6,119.5-5.4,143.7c0,0-8.4,15.6-20.5,22.5v107l25.9,9.8c0,0,17.5,8.7-19.8,13.9
	C-1918.6,273.4-1925.7,273.4-1932.6,272.5z"/>
<path class="st23" d="M-1756.1,46.6c6.4,48.4,20.4,121.1,1.3,140.2c-12.4,12.4-18.3,19.6-20.9,23.1c-1.2,1.6-1.6,3.6-1.1,5.5
	c1.2,5.2,3.3,16.3,0.7,21c-0.9,1.7-1.8,3.3-2.5,4.9c-1.8,3.9,0.5,8.5,4.7,9.4l17.8,3.9c0.2,0,0.4,0.1,0.7,0.2
	c4.1,1.3,41,14.1-33.3,18.8c-0.3,0-0.6,0-0.9,0c-74.3-4.7-37.3-17.5-33.3-18.8c0.2-0.1,0.4-0.1,0.7-0.2l17.8-3.9
	c4.2-0.9,6.5-5.5,4.7-9.4c-0.7-1.5-1.5-3.2-2.5-4.9c-2.6-4.8-0.5-15.8,0.7-21c0.4-1.9,0-3.9-1.1-5.5c-2.6-3.5-8.5-10.7-20.9-23.1
	c-19.1-19.1-5.1-91.8,1.3-140.2c3.8-29-3.8-48-10.5-58.5c-2.9-4.5,0.4-10.3,5.7-10.3h76c5.3,0,8.5,5.9,5.7,10.3
	C-1752.3-1.4-1759.9,17.6-1756.1,46.6z"/>
<path class="st23" d="M-1572.9,2.6l-5,253.9c-0.1,5.5-3.8,10.2-9.1,11.7c-7.7,2.2-21.6,4.6-45.8,5c-24.2-0.3-38-2.7-45.8-5
	c-5.3-1.5-8.9-6.2-9.1-11.7l-5-253.9c-0.1-7,5.5-12.7,12.4-12.7h94.7C-1578.3-10-1572.7-4.3-1572.9,2.6z"/>
<path class="st23" d="M-1480,271.4c-59.6,0.5-52.6-4.3-34.3-14.3c16.8-9.2,12.4-29.6,11.5-32.8c-0.1-0.3-0.1-0.7-0.2-1L-1525.3-72
	c-0.3-3.5,2.5-6.6,6.1-6.6h78.3c3.6,0,6.4,3,6.1,6.6l-22.3,295.3c0,0.3-0.1,0.7-0.2,1c-0.8,3.3-5.3,23.7,11.5,32.8
	C-1427.4,267.1-1420.4,271.9-1480,271.4z"/>
<text transform="matrix(1 0 0 1 -2115.5042 704.443)" style="font-family:'MyriadPro-Regular'; font-size:72px;">Lhao</text>
<path class="st23" d="M-2109.5,977.2c-23.7,31.1-43,36.1-53.2,41.7c-10.2,5.6-16.2,26.8,3.2,30.9c19.4,4.2,27.9,6.7,27.9,6.7
	s35.7,18.2-50,18.2c-86.4,0-50-18.2-50-18.2s8.4-2.5,27.8-6.7c19.4-4.1,13.4-25.4,3.2-30.9c-10.2-5.6-29.4-10.5-53.2-41.7
	c-23.7-31.1,24.6-122.1,24.6-122.1h95C-2134,855.2-2085.7,946.1-2109.5,977.2z"/>
<path class="st24" d="M-2029.7,1074.8c-66.8-0.8-42.6-10.7-26.2-11.9c16.4-1.2,21.7-15.2,21.7-15.2s-0.8-91.8,0-107.3
	c0.8-15.6-11.7-23.3-11.7-23.3c-30.1-32-16.2-104.1-16.2-104.1h64.7c0,0,13.9,72.1-16.2,104.1c0,0-12.5,7.8-11.7,23.3
	c0.8,15.6,0,107.3,0,107.3s5.3,13.9,21.7,15.2C-1987.1,1064.1-1962.9,1073.9-2029.7,1074.8z"/>
<path class="st23" d="M-1919.8,1074.8c-39.6,0-30.4-5.9-23.1-9.4c7-3.4,15.4-9.1,15.4-9.1l1.3-28.9c0.9-20.1-4.1-22.3-8.8-29.2
	c-4.7-6.9-5.6-11.3-10-27.3s-1.9-68.1-1.9-68.1h54.4c0,0,2.5,52.1-1.9,68.1s-5.3,20.4-10,27.3c-4.7,6.9-9.7,9.1-8.8,29.2l1.3,28.9
	c0,0,8.4,5.7,15.4,9.1C-1889.4,1068.9-1880.2,1074.8-1919.8,1074.8z"/>
<path class="st23" d="M-1782,953.7c4.1,0,7.4,3.4,7.2,7.5l-3.8,95.7c0,0-0.9,17.9-13.2,17.9c-17.1,0-28.7,0-28.7,0s-11.6,0-28.7,0
	c-12.3,0-13.2-17.9-13.2-17.9l-3.8-95.7c-0.2-4.1,3.1-7.5,7.2-7.5L-1782,953.7L-1782,953.7z"/>
<ellipse class="st13" cx="-1851.5" cy="1014.2" rx="2.7" ry="39.4"/>
<ellipse class="st13" cx="-1841.4" cy="1014.2" rx="2.7" ry="39.4"/>
<ellipse class="st13" cx="-1824.4" cy="1014.2" rx="2.7" ry="39.4"/>
<ellipse class="st13" cx="-1814.1" cy="1014.2" rx="2.7" ry="39.4"/>
<ellipse class="st13" cx="-1796.8" cy="1014.2" rx="2.7" ry="39.4"/>
<ellipse class="st13" cx="-1788.7" cy="1014.2" rx="2.7" ry="39.4"/>
<path class="st13" d="M-1845.3,1060.9c-0.7,0-1.3,4.6-1.7,12.3h3.5C-1844.1,1065.5-1844.7,1060.9-1845.3,1060.9z"/>
<path class="st13" d="M-1819.1,1059.2c-0.7,0-1.4,5.3-1.8,13.9h3.7C-1817.8,1064.5-1818.4,1059.2-1819.1,1059.2z"/>
<path class="st13" d="M-1793,1060.9c-0.7,0-1.3,4.6-1.7,12.3h3.5C-1791.7,1065.5-1792.3,1060.9-1793,1060.9z"/>
<text transform="matrix(1 0 0 1 -861.0519 -168.2131)" style="font-family:'MyriadPro-Regular'; font-size:72px;">Wine</text>
<path class="st7" d="M-1044.9,271.4c-103.5-0.2-51.2-11.8-48-12.5c0.1,0,0.2,0,0.3-0.1c1.8-0.5,17.6-5.2,22.9-8.2
	c5.5-3.2,14.6-18.7,14.8-25.7c0.2-6.3-4-21.5-5-25.2c-0.2-0.5-0.4-1-0.7-1.5c-7.5-11-1.3-17.9,3.1-24.8c4.5-7,2-23.6-1.9-30
	c-3.8-6.4-13.9-31.9-17.7-51c-3.1-15.9-27.1-81.2-35-102.7c-1.2-3.3,1.2-6.9,4.8-6.9l126.2,0.3c3.6,0,6,3.6,4.8,6.9
	c-8.1,21.4-32.3,86.6-35.5,102.5c-3.9,19.1-14.1,44.6-18,50.9c-3.8,6.4-6.4,22.9-2,30c4.4,6.9,10.5,13.9,3,24.8
	c-0.3,0.5-0.6,0.9-0.7,1.5c-1,3.6-5.3,18.9-5.1,25.2c0.2,7,9.2,22.6,14.7,25.8c5.2,3.1,21.1,7.8,22.8,8.3c0.1,0,0.2,0.1,0.3,0.1
	C-993.6,259.9-941.4,271.7-1044.9,271.4z"/>
<path class="st7" d="M-693.4,146.2v101.1c0,0,16.4,7.2,26.1,10.7c8.8,3.2,30.8,14.5-32.3,14.5s-41.1-11.3-32.3-14.5
	c9.7-3.5,26-10.7,26-10.7V146.2c0,0-3.9-2.4-12.9-8.9c-10.2-7.4-27.4-26.8-33.9-48.7c-6.6-21.9,9.9-105.6,9.9-105.6h86.5
	c0,0,16.4,83.8,9.9,105.6c-6.6,21.9-23.7,41.3-33.9,48.7C-689.5,143.8-693.4,146.2-693.4,146.2z"/>
<path class="st7" d="M-289.1,122.6c0,6.3-0.4,117.8-0.4,117.8l25.6,14.7c0,0,44.2,16.3-32.6,16.3s-32.6-16.3-32.6-16.3l25.6-14.7
	c0,0-0.4-111.5-0.4-117.8c0-6.3-3.1-8-8.5-11.4s-25-14.8-35.1-32.4s12.4-95.9,12.4-95.9h77.3c0,0,22.5,78.4,12.4,95.9
	c-10.1,17.6-29.7,29-35.1,32.4C-285.9,114.6-289.1,116.4-289.1,122.6z"/>
<path class="st7" d="M73.3,163.4c0,4.6,0,69.5,0,69.5s15.3,22.4,24.2,23s44.4,15.5-32.5,15.5s-41.4-14.9-32.5-15.5s24.2-23,24.2-23
	s0-65,0-69.5c0-4.6-3.6-7.7-3.6-7.7C51.5,139.4,34,126.5,9.2,99.8c-24.7-26.7,8-99.8,8-99.8h95.7c0,0,32.7,73.1,8,99.8
	S78.6,139.4,77,155.7C76.9,155.7,73.3,158.8,73.3,163.4z"/>
<path class="st25" d="M-2867.5,1531.3h-118.2c-10.7,0-19.4-8.7-19.4-19.4v-118.2c0-10.7,8.7-19.4,19.4-19.4h118.2
	c10.7,0,19.4,8.7,19.4,19.4v118.2C-2848.1,1522.5-2856.8,1531.3-2867.5,1531.3z"/>
<path class="st4" d="M-3005.1,1425.7v86.2c0,10.7,8.7,19.4,19.4,19.4h118.2c10.7,0,19.4-8.7,19.4-19.4v-86.2H-3005.1z"/>
<text transform="matrix(1 0 0 1 -2950.3743 1407.8342)" class="st4" style="font-family:'Cloud-Bold'; font-size:26px;">DAY</text>
<g>
	<path class="st7" d="M-33.5,844c0,6.3-0.4,117.8-0.4,117.8l25.6,14.7c0,0,44.2,16.3-32.6,16.3c-65.3,0-24.6-16.3-24.6-16.3
		l25.6-14.7c0,0-0.4-111.5-0.4-117.8s-3.1-8-8.5-11.4s-25-14.8-35.1-32.4c-10.2-17.6,12.3-95.9,12.3-95.9h69.3
		c0,0,22.5,78.4,12.4,95.9C0,817.8-19.6,829.2-25,832.6C-30.4,836-33.5,837.7-33.5,844z"/>
	
		<linearGradient id="SVGID_5_" gradientUnits="userSpaceOnUse" x1="1.2378" y1="-655.1501" x2="0.7765" y2="-646.3847" gradientTransform="matrix(1 0 0 1 0 1429.8)">
		<stop  offset="0" style="stop-color:#AE4F6F"/>
		<stop  offset="1" style="stop-color:#6C365E"/>
	</linearGradient>
	<path class="st26" d="M-0.6,779.7c-0.3-1.5,0.2-3,1.3-4.1c0.2-0.2,0.4-0.4,0.7-0.4c0.7-0.1,1.3,0.6,1.4,1.3c0.3,1.4-0.7,3-2.2,3.4
		c-0.5,0.1-1.1,0-1.3-0.4"/>
	
		<linearGradient id="SVGID_6_" gradientUnits="userSpaceOnUse" x1="-36.865" y1="-652.8824" x2="-36.865" y2="-600.4051" gradientTransform="matrix(1 0 0 1 0 1429.8)">
		<stop  offset="0" style="stop-color:#AE4F6F"/>
		<stop  offset="1" style="stop-color:#6C365E"/>
	</linearGradient>
	<path class="st27" d="M5.2,793.1c-0.7,0.1-1.3,0.5-2,0.8s-1.6,0.4-2.3,0.2c-0.1,0-0.2,0-0.3-0.1s-0.1-0.1-0.1-0.2
		c0-0.1,0-0.1,0-0.2c0-1.9,0.2-4.1-2.1-5.3c-0.7-0.3-1.4-0.5-2.1-0.5c-2.4,0-4.4,1.4-6.5,2.5c-3.5,1.9-7.3,3-11.2,3.5h-13.2
		c-4.4-0.5-8.7-1.3-13-2.2c-1.8-0.4-3.7-0.8-5.1-1.9c-1.1-0.9-1.9-2.1-2.9-3.1s-2.5-1.8-3.9-1.3c-0.7,0.2-1.2,0.7-1.9,0.9
		c-1.1,0.3-2.2-0.1-3.2-0.5c-1.6-0.7-3.2-1.3-4.5-2.4c-2-1.6-3.7-4.1-6.6-3.4c-1.2,0.3-2.2,1.1-2.8,2.1c-6.3,9.8,5,20.6,11.6,26.7
		c5.5,5.1,11.6,9.3,18,13.2c0.9,0.5,1.7,1,2.4,1.5c7.6,5,9.3,5.8,11.6,5.8c2,0,6.1-3,10.1-5.8c0.7-0.5,1.5-1,2.4-1.5
		c0.5-0.3,1-0.6,1.5-0.9c5-3.1,9.8-6.5,14.3-10.4c2.9-2.6,5.7-5.3,8.2-8.3c1.3-1.6,2.5-3.2,3.6-4.9C5.7,796.5,8.2,792.8,5.2,793.1z"
		/>
</g>
<g>
	<path class="st7" d="M-529.2,848.5c4.9,0,8.9,4.1,8.7,9l-4.6,115c0,0-1.1,21.5-15.8,21.5c-20.6,0-34.5,0-34.5,0s-13.9,0-34.5,0
		c-14.7,0-15.8-21.5-15.8-21.5l-4.6-115c-0.2-4.9,3.7-9,8.7-9C-621.6,848.5-529.2,848.5-529.2,848.5z"/>
	<path class="st28" d="M-609.4,897.8c-6.7,0-12.1,3.8-11.8,8.5l2.9,51.1c0,0,0.9,12.4,13.3,12.4c17.3,0,28.9,0,28.9,0s11.7,0,28.9,0
		c12.3,0,13.3-12.4,13.3-12.4l2.9-51.1c0.3-4.6-5.1-8.5-11.8-8.5H-609.4z"/>
	<path class="st29" d="M-593.1,918.4l-13.1-8.9c-2.6-1.8-3.3-5.4-1.5-8l8.9-13.1c1.8-2.6,5.4-3.3,8-1.5l13.1,8.9
		c2.6,1.8,3.3,5.4,1.5,8l-8.9,13.1C-586.9,919.5-590.5,920.2-593.1,918.4z"/>
	<path class="st29" d="M-550.5,905.9l-7,2.1c-2,0.6-4-0.5-4.6-2.5l-2.1-7c-0.6-2,0.5-4,2.5-4.6l7-2.1c2-0.6,4,0.5,4.6,2.5l2.1,7
		C-547.4,903.2-548.5,905.3-550.5,905.9z"/>
</g>
<g>
	<path class="st7" d="M-166,977.3l-20.2-11.6c0,0,0.3-67.4,0.3-87.6l45.4-63h-96.1l45.3,62.8c0.1,20,0.3,87.7,0.3,87.7l-20.2,11.6
		c0,0-32.1,12.9,19.4,12.9C-131.1,990.2-166,977.3-166,977.3z"/>
	
		<linearGradient id="SVGID_7_" gradientUnits="userSpaceOnUse" x1="-188.567" y1="-591.5001" x2="-188.567" y2="-558.5467" gradientTransform="matrix(1 0 0 1 0 1429.8)">
		<stop  offset="0" style="stop-color:#14AFAB"/>
		<stop  offset="1" style="stop-color:#227893"/>
	</linearGradient>
	<polygon class="st30" points="-164.8,838.3 -188.5,871.3 -212.3,838.3 	"/>
	<path class="st31" d="M-162.9,826.3c5.3-4.6,5.8-12.7,1.2-18s-12.7-5.8-18-1.2"/>
	<g>
		<polygon class="st32" points="-172.6,815.1 -180,815.1 -180,815.9 -171.2,815.9 		"/>
		<polygon class="st33" points="-167,821.5 -167,815.1 -172.6,815.1 -171.9,815.9 		"/>
	</g>
</g>
<path class="st34" d="M-4590,47.3c-0.6-0.8-2.8-5.7-5.3-10.7c-1.7-3.4-1.8-7.2-1.7-9.3c0-0.9,0.4-1.6,0.9-2.3
	c0.4-0.5,0.8-1.4,0.8-2.8c0-2.8-55.6-3.9-55.6-3.9s-55.6,1.1-55.6,3.9c0,1.4,0.4,2.3,0.8,2.8c0.5,0.7,0.9,1.5,0.9,2.3
	c0.1,2.1,0,5.9-1.7,9.3c-2.5,5-4.6,9.9-5.3,10.7c-0.7,0.8,0,15.1,0,18.7v151.9c0,1,0.4,1.9,1,2.7c1.1,1.2,3.1,3.1,5.7,4.7
	c2.4,1.4,4.1,2.7,5.1,3.5c0.7,0.6,1.3,1.4,1.4,2.3l0,0c0.1,0.5,0.3,0.9,0.5,1.3l1.1,1.7c0.7,1.1,1.8,1.7,3,1.8
	c7.4,0.6,33.5,2.5,42.9,2.5c9.8,0,35.6-1.9,42.9-2.5c1.2-0.1,2.4-0.8,3-1.8l1.1-1.7c0.3-0.4,0.4-0.9,0.5-1.3l0,0
	c0.2-0.9,0.7-1.8,1.4-2.3c1-0.8,2.7-2,5.1-3.5c2.6-1.6,4.6-3.5,5.7-4.7c0.7-0.7,1-1.7,1-2.7V66C-4590,62.4-4589.3,48.1-4590,47.3z"
	/>
<path class="st35" d="M-4694.7,229c0,0,50.3,5.5,87.7,0"/>
<rect x="-4703.6" y="116.9" class="st36" width="105.5" height="26.5"/>
<path class="st35" d="M-4700.1,24.9c0,0,40.7,4.1,98.6,0"/>
<path class="st36" d="M-4682.6,143.5h63.5c-3.5,24-16.4,41.8-31.7,41.8C-4666.2,185.3-4679,167.5-4682.6,143.5z"/>
<path class="st36" d="M-4619.1,116.9h-63.5c3.5-24,16.4-41.8,31.7-41.8C-4635.5,75.1-4622.6,92.9-4619.1,116.9z"/>
<path d="M-3354.7,1733.3h-23.1v-106c0-6.4,5.2-11.6,11.6-11.6l0,0c6.4,0,11.6,5.2,11.6,11.6v106H-3354.7z"/>
<path d="M-3262.2,1744.8L-3262.2,1744.8c0,6.4-5.2,11.6-11.6,11.6h-307.1c-6.4,0-11.6-5.2-11.6-11.6l0,0c0-6.4,5.2-11.6,11.6-11.6
	h307.1C-3267.4,1733.3-3262.2,1738.4-3262.2,1744.8z"/>
<path d="M-2737.1,1939.4L-2737.1,1939.4c0,6.4-5.2,11.6-11.6,11.6h-307.1c-6.4,0-11.6-5.2-11.6-11.6l0,0c0-6.4,5.2-11.6,11.6-11.6
	h307.1C-2742.3,1927.9-2737.1,1933-2737.1,1939.4z"/>
<path d="M-3326.3,1629.3L-3326.3,1629.3c-4.5,4.5-11.8,4.5-16.3,0l-99.2-99.2c-4.5-4.5-4.5-11.8,0-16.3l0,0c4.5-4.5,11.8-4.5,16.3,0
	l99.2,99.2C-3321.7,1617.4-3321.7,1624.7-3326.3,1629.3z"/>
<path d="M-3542.1,1629.3L-3542.1,1629.3c4.5,4.5,11.8,4.5,16.3,0l99.2-99.2c4.5-4.5,4.5-11.8,0-16.3l0,0c-4.5-4.5-11.8-4.5-16.3,0
	l-99.2,99.2C-3546.6,1617.4-3546.6,1624.7-3542.1,1629.3z"/>
<path d="M-3490.7,1733.3h-23.1v-106c0-6.4,5.2-11.6,11.6-11.6l0,0c6.4,0,11.6,5.2,11.6,11.6v106H-3490.7z"/>
<path d="M-3430,1733.3h-43.1v-52.4c0-11.9,9.7-21.6,21.6-21.6l0,0c11.9,0,21.6,9.7,21.6,21.6v52.4H-3430z"/>
<path d="M-2844,1804.1h-109.4c-4.3,0-7.9,3.5-7.9,7.9l0,0c0,13.9-11.3,25.2-25.2,25.2l0,0c-10.3,0-18.6,8.3-18.6,18.6v33.7h196.6
	c13.8,0,24.9-11.2,24.9-24.9l0,0C-2783.5,1831.2-2810.6,1804.1-2844,1804.1z"/>
<path d="M-2806.1,1826.5h-38.5c-8.7,0-15.8-7.1-15.8-15.8v-38.5c0-8.7,7.1-15.8,15.8-15.8h38.5c8.7,0,15.8,7.1,15.8,15.8v38.5
	C-2790.3,1819.4-2797.4,1826.5-2806.1,1826.5z"/>
<linearGradient id="SVGID_8_" gradientUnits="userSpaceOnUse" x1="-1044.2238" y1="181.0681" x2="-1044.2238" y2="108.2197" gradientTransform="matrix(1 0 0 -1 0 255.6)">
	<stop  offset="0" style="stop-color:#AE4F6F"/>
	<stop  offset="1" style="stop-color:#6C365E"/>
</linearGradient>
<path class="st37" d="M-1020.2,76.2h-24h-24c-1.6,0-2.7,1.6-2.1,3.1c1.8,4.3,3.5,11.5,3.9,12.8c2.4,10.1,3.1,20.3,8.1,29.4
	c3.7,6.7,8.1,12.8,12.6,19c0.9,1.2,1.5,1.7,1.5,1.7s0.6-0.5,1.5-1.7c4.5-6.2,8.9-12.3,12.6-19c5-9.1,5.7-19.3,8.1-29.4
	c0.3-1.3,2.1-8.5,3.9-12.8C-1017.5,77.8-1018.6,76.2-1020.2,76.2z"/>
<linearGradient id="SVGID_9_" gradientUnits="userSpaceOnUse" x1="-699.6089" y1="177.1613" x2="-699.6089" y2="117.9422" gradientTransform="matrix(1 0 0 -1 0 255.6)">
	<stop  offset="0" style="stop-color:#AE4F6F"/>
	<stop  offset="1" style="stop-color:#6C365E"/>
</linearGradient>
<path class="st38" d="M-654.1,82.8c0.3-2.1-1.6-3.9-4-3.9h-41.5h-41.5c-2.4,0-4.2,1.8-4,3.9c1,8.1,6.2,27.8,32.1,48.9
	c7.5,6.1,19.2,6.1,26.7,0C-660.3,110.6-655.1,90.9-654.1,82.8z"/>
<linearGradient id="SVGID_10_" gradientUnits="userSpaceOnUse" x1="-296.5257" y1="187.2394" x2="-296.5257" y2="147.0448" gradientTransform="matrix(1 0 0 -1 0 255.6)">
	<stop  offset="0" style="stop-color:#AE4F6F"/>
	<stop  offset="1" style="stop-color:#6C365E"/>
</linearGradient>
<path class="st39" d="M-251,71.3c0.3-1.4-1.6-2.6-4-2.6h-41.5H-338c-2.4,0-4.2,1.2-4,2.6c1,5.5,6.2,18.8,32.1,33.2
	c7.5,4.1,19.2,4.1,26.7,0C-257.2,90.2-252,76.8-251,71.3z"/>
<linearGradient id="SVGID_11_" gradientUnits="userSpaceOnUse" x1="65.0789" y1="167.8606" x2="65.0789" y2="118.1538" gradientTransform="matrix(1 0 0 -1 0 255.6)">
	<stop  offset="0" style="stop-color:#AE4F6F"/>
	<stop  offset="1" style="stop-color:#6C365E"/>
</linearGradient>
<path class="st40" d="M119.4,88.2H70.6c-1.9,0-3.7,0-5.6,0c-1.9,0-3.7,0-5.6,0H10.7c-0.6,0.8,1,5.2,1.3,6.2c0.9,2.8,3.7,4.5,6.2,6.2
	c6.3,4.3,9.8,10.3,14.8,15.8c5.5,6.1,12,11.4,18.8,16.1c3.7,2.6,8.5,3.8,13.3,3.8s9.6-1.3,13.3-3.8c6.8-4.7,13.3-9.9,18.8-16.1
	c5-5.5,8.5-11.5,14.8-15.8c2.5-1.7,5.3-3.4,6.2-6.2C118.4,93.4,120,89,119.4,88.2z"/>
<linearGradient id="SVGID_12_" gradientUnits="userSpaceOnUse" x1="106.5287" y1="167.2" x2="106.5287" y2="167.2" gradientTransform="matrix(1 0 0 -1 0 255.6)">
	<stop  offset="0" style="stop-color:#AE4F6F"/>
	<stop  offset="1" style="stop-color:#6C365E"/>
</linearGradient>
<path class="st41" d="M106.5,88.4"/>
<ellipse transform="matrix(0.1108 -0.9938 0.9938 0.1108 -931.8962 -989.506)" class="st13" cx="-1018.9" cy="26" rx="6.1" ry="6.1"/>
<ellipse transform="matrix(0.1586 -0.9873 0.9873 0.1586 -924.5933 -959.0336)" class="st13" cx="-1025" cy="63" rx="20.1" ry="5.8"/>
<ellipse transform="matrix(0.1454 -0.9894 0.9894 0.1454 54.8222 143.6243)" class="st13" cx="110.5" cy="40.1" rx="7.2" ry="4"/>
<ellipse transform="matrix(8.062100e-02 -0.9967 0.9967 8.062100e-02 20.9231 177.2211)" class="st13" cx="106.5" cy="77.3" rx="20.1" ry="5.8"/>
<ellipse transform="matrix(1.111432e-03 -1 1 1.111432e-03 -688.441 -634.314)" class="st13" cx="-661.7" cy="27.4" rx="6.1" ry="3.6"/>
<ellipse transform="matrix(0.9997 -2.536585e-02 2.536585e-02 0.9997 -0.8802 -6.5997)" class="st13" cx="-260.6" cy="31.4" rx="3.8" ry="3.8"/>
<path class="st13" d="M-657.1,65.4c0,12.7-5.6,24.7-8.2,24.7c-2.6,0-1.1-12-1.1-24.7s2.1-23,4.7-23S-657.1,52.7-657.1,65.4z"/>
<path class="st13" d="M-256.7,65.4c0,7.7-3.9,14-6.1,14c-2.2,0-1.8-6.3-1.8-14s1.8-14,3.9-14C-258.4,51.4-256.7,57.6-256.7,65.4z"/>
</svg>
