<?xml version="1.0" encoding="utf-8"?>
<!-- Generator: Adobe Illustrator 22.0.1, SVG Export Plug-In . SVG Version: 6.00 Build 0)  -->
<svg version="1.1" id="Layer_1" xmlns="http://www.w3.org/2000/svg" xmlns:xlink="http://www.w3.org/1999/xlink" x="0px" y="0px"
	 viewBox="0 0 153.9 299" style="enable-background:new 0 0 153.9 299;" xml:space="preserve">
<style type="text/css">
	.st0{display:none;}
	.st1{display:inline;fill:#FFFFFF;stroke:#000000;stroke-miterlimit:10;}
	.st2{fill:#707B7F;}
	.st3{fill:#CE403F;}
	.st4{fill:#FFFFFF;}
	.st5{fill:#CD915F;}
	.st6{fill:#AA6628;}
	.st7{opacity:0.5;fill:#F9F9FA;enable-background:new    ;}
	.st8{fill:url(#SVGID_1_);}
	.st9{fill:#DDDDDD;}
	.st10{fill:#F7F7F7;}
	.st11{opacity:0.35;fill:#F4F4F5;enable-background:new    ;}
	.st12{fill:#F9F9FA;stroke:#E2E2E2;stroke-width:3;stroke-miterlimit:10;}
	.st13{fill:url(#SVGID_2_);}
	.st14{opacity:0.6;fill:#F4F4F5;enable-background:new    ;}
	.st15{display:none;fill:#34A6C9;stroke:#1B8EB7;stroke-width:10;stroke-miterlimit:10;}
	.st16{display:none;fill:#F27CA7;stroke:#C94C72;stroke-width:10;stroke-miterlimit:10;}
	.st17{fill:#476269;}
	.st18{fill:#222728;}
	.st19{fill:#DDDDDC;}
	.st20{fill:#F6F7F7;}
	.st21{fill:url(#SVGID_3_);}
	.st22{fill:url(#SVGID_4_);}
	.st23{enable-background:new    ;}
	.st24{opacity:0.84;fill:url(#SVGID_5_);enable-background:new    ;}
	.st25{fill:none;stroke:#E2E2E2;stroke-width:3;stroke-miterlimit:10;}
	.st26{fill:#D95F56;}
	.st27{fill:url(#SVGID_6_);}
	.st28{fill:url(#SVGID_7_);}
	.st29{opacity:0.84;fill:#E8CD2C;enable-background:new    ;}
	.st30{opacity:0.39;fill:#90D7EB;enable-background:new    ;}
	.st31{opacity:0.84;fill:url(#SVGID_8_);enable-background:new    ;}
	.st32{fill:#D2E8C9;stroke:#6EBF59;stroke-width:2;stroke-miterlimit:10;}
	.st33{fill:none;}
	.st34{opacity:0.84;fill:url(#SVGID_9_);enable-background:new    ;}
	.st35{fill:#7AC25B;}
	.st36{fill:none;stroke:#E2E2E2;stroke-miterlimit:10;}
	.st37{fill:#157D3E;stroke:#E2E2E2;stroke-width:3;stroke-miterlimit:10;}
	.st38{opacity:0.84;fill:url(#SVGID_10_);enable-background:new    ;}
	.st39{opacity:0.84;fill:url(#SVGID_11_);enable-background:new    ;}
	.st40{opacity:0.84;fill:url(#SVGID_12_);enable-background:new    ;}
	.st41{opacity:0.84;fill:url(#SVGID_13_);enable-background:new    ;}
</style>
<g id="Layer_1_1_" class="st0">
	<rect x="-467.1" y="-215.7" class="st1" width="136.5" height="482"/>
</g>
<path class="st2" d="M-203.5,1561.7h-127c-11.1,0-20.2-9.1-20.2-20.2v-93.6c0-11.1,9.1-20.2,20.2-20.2h127
	c11.1,0,20.2,9.1,20.2,20.2v93.6C-183.2,1552.6-192.3,1561.7-203.5,1561.7z"/>
<rect x="-932.2" y="-377.1" class="st3" width="658.6" height="188.9"/>
<circle class="st4" cx="-1230.6" cy="72.2" r="6.2"/>
<g>
	<polygon class="st5" points="-315.3,-639.4 -357.6,-626.7 -265,-626.7 	"/>
	<polygon class="st5" points="23,-639.4 65.2,-626.7 -27.4,-626.7 	"/>
	<rect x="-315.4" y="-639.4" class="st5" width="338.4" height="14.9"/>
	<rect x="-357.6" y="-626.7" class="st6" width="422.8" height="11.1"/>
</g>
<path class="st7" d="M-1112.3,305h-148.8c-11.7,0-21.2-9.5-21.2-21.2V56.1c0-11.7,9.5-21.2,21.2-21.2h148.8
	c11.7,0,21.2,9.5,21.2,21.2v227.7C-1091.1,295.5-1100.6,305-1112.3,305z"/>
<linearGradient id="SVGID_1_" gradientUnits="userSpaceOnUse" x1="-1188.2389" y1="233.5" x2="-1188.2389" y2="9.2784" gradientTransform="matrix(1 0 0 -1 0 301.2)">
	<stop  offset="0" style="stop-color:#FFCC4C"/>
	<stop  offset="1" style="stop-color:#FEBF4B"/>
</linearGradient>
<path class="st8" d="M-1128.7,292.7h-118.9c-11.7,0-21.2-9.5-21.2-21.2V88.9c0-11.7,9.5-21.2,21.2-21.2h118.8
	c11.7,0,21.2,9.5,21.2,21.2v182.7C-1107.6,283.2-1117,292.7-1128.7,292.7z"/>
<circle class="st9" cx="-1244" cy="66.1" r="33"/>
<circle class="st9" cx="-1208.4" cy="56.5" r="23.4"/>
<circle class="st9" cx="-1173.4" cy="66.4" r="23.4"/>
<circle class="st9" cx="-1123.8" cy="61.6" r="28.2"/>
<circle class="st10" cx="-1173.4" cy="57.3" r="23.4"/>
<circle class="st10" cx="-1152" cy="47.4" r="11.7"/>
<path class="st10" d="M-1231.7,47.4c0-1.5,0.1-2.9,0.4-4.3h-42.7c-2,4.2-3.1,9-3.1,14c0,18.2,14.8,33,33,33
	c13.6,0,25.3-8.2,30.3-19.9C-1224,67.7-1231.7,58.4-1231.7,47.4z"/>
<path class="st10" d="M-1211,57c0,4.6-1,9.1-2.7,13.1c1.7,0.4,3.5,0.6,5.4,0.6c12.9,0,23.4-10.5,23.4-23.4c0-1.5-0.1-2.9-0.4-4.3
	h-28.7C-1212.2,47.3-1211,52-1211,57z"/>
<path class="st10" d="M-1214.1,43h-17.2c-0.3,1.4-0.4,2.8-0.4,4.3c0,11.1,7.7,20.3,18,22.7c1.7-4,2.7-8.4,2.7-13.1
	C-1211,52-1212.2,47.3-1214.1,43z"/>
<path class="st10" d="M-1097.3,43h-53.1c-1.1,3-1.6,6.1-1.6,9.5c0,15.6,12.6,28.2,28.2,28.2s28.2-12.6,28.2-28.2
	C-1095.7,49.2-1096.2,46-1097.3,43z"/>
<path class="st10" d="M-1368.7,43.9c0,0-0.1-0.1-0.2-0.2C-1368.8,43.7-1368.8,43.8-1368.7,43.9L-1368.7,43.9z"/>
<path class="st10" d="M-1097.3,43h-116.8c-2.4-5-5.9-9.3-10.3-12.6c-3.5,3.3-5.9,7.7-6.8,12.6h-42.6c0.5-1.1,1.1-2.2,1.8-3.3
	c4.2-4.6,12.7-12.3,22.7-12.3h55.4c0,0,6.7,0,16,0h55.4c13.2,0,23.9,13.4,25.3,15.3C-1097.3,42.9-1097.3,43-1097.3,43z"/>
<path class="st10" d="M-1231.3,43h17.2c-2.3-5-5.9-9.3-10.3-12.6C-1227.9,33.8-1230.4,38.1-1231.3,43z"/>
<path class="st7" d="M-1034.3,108.9c-2.3-11.7-10.8-20.4-21-20.4h-35.8V111h25.3c6,0,10.8,5.9,10.8,13.3v77.3
	c0,7.3-4.8,13.3-10.8,13.3h-25.3v23.4h35.8c10.7,0,19.6-9.6,21.3-22.2c0.2-1.1,0.3-2.2,0.3-3.4v-1l0,0V115l0,0v-1.4
	C-1033.7,111.9-1033.9,110.4-1034.3,108.9z"/>
<path class="st11" d="M-1235.2,262.6L-1235.2,262.6c-6,0-10.8-4.8-10.8-10.8v-134c0-6,4.8-10.8,10.8-10.8l0,0
	c6,0,10.8,4.8,10.8,10.8v134C-1224.4,257.7-1229.2,262.6-1235.2,262.6z"/>
<path class="st11" d="M-1185,262.6L-1185,262.6c-6,0-10.8-4.8-10.8-10.8v-134c0-6,4.8-10.8,10.8-10.8l0,0c6,0,10.8,4.8,10.8,10.8
	v134C-1174.2,257.7-1179,262.6-1185,262.6z"/>
<path class="st11" d="M-1135.9,259.3L-1135.9,259.3c-6,0-10.8-4.8-10.8-10.8v-134c0-6,4.8-10.8,10.8-10.8l0,0
	c6,0,10.8,4.8,10.8,10.8v134C-1125.1,254.5-1130,259.3-1135.9,259.3z"/>
<g>
	<circle class="st4" cx="2240" cy="844.5" r="4.7"/>
	<path class="st12" d="M2326,1026.7h-104.4c-11.7,0-21.2-9.5-21.2-21.2v-165c0-11.7,9.5-21.2,21.2-21.2H2326
		c11.7,0,21.2,9.5,21.2,21.2v165C2347.1,1017.2,2337.7,1026.7,2326,1026.7z"/>
	
		<linearGradient id="SVGID_2_" gradientUnits="userSpaceOnUse" x1="2272.5847" y1="-543.3" x2="2272.5847" y2="-715.4585" gradientTransform="matrix(1 0 0 -1 0 301.2)">
		<stop  offset="0" style="stop-color:#FFCC4C"/>
		<stop  offset="1" style="stop-color:#FEBF4B"/>
	</linearGradient>
	<path class="st13" d="M2313.3,1017.3h-81.4c-11.7,0-21.2-9.5-21.2-21.2V865.7c0-11.7,9.5-21.2,21.2-21.2h81.4
		c11.7,0,21.2,9.5,21.2,21.2v130.4C2334.5,1007.8,2325,1017.3,2313.3,1017.3z"/>
	
		<ellipse transform="matrix(0.2298 -0.9732 0.9732 0.2298 900.0735 2816.8918)" class="st9" cx="2229.7" cy="839.8" rx="25.3" ry="25.3"/>
	<circle class="st9" cx="2257.1" cy="832.4" r="17.9"/>
	<circle class="st9" cx="2284" cy="840" r="17.9"/>
	<circle class="st9" cx="2322" cy="836.3" r="21.6"/>
	<circle class="st10" cx="2284" cy="833" r="17.9"/>
	<circle class="st10" cx="2300.4" cy="825.4" r="9"/>
	<path class="st10" d="M2239.2,825.4c0-1.1,0.1-2.2,0.3-3.3h-32.7c-1.5,3.3-2.4,6.9-2.4,10.7c0,14,11.3,25.3,25.3,25.3
		c10.4,0,19.4-6.3,23.3-15.3C2245.1,841,2239.2,833.9,2239.2,825.4z"/>
	<path class="st10" d="M2255.1,832.8c0,3.6-0.7,7-2.1,10c1.3,0.3,2.7,0.5,4.1,0.5c9.9,0,17.9-8,17.9-17.9c0-1.1-0.1-2.2-0.3-3.3
		h-22.1C2254.2,825.3,2255.1,829,2255.1,832.8z"/>
	<path class="st10" d="M2252.7,822.1h-13.2c-0.2,1.1-0.3,2.2-0.3,3.3c0,8.5,5.9,15.6,13.8,17.5c1.3-3.1,2.1-6.5,2.1-10
		C2255.1,829,2254.2,825.3,2252.7,822.1z"/>
	<path class="st10" d="M2342.4,822.1h-40.8c-0.8,2.3-1.3,4.7-1.3,7.3c0,12,9.7,21.6,21.6,21.6s21.6-9.7,21.6-21.6
		C2343.6,826.8,2343.2,824.3,2342.4,822.1z"/>
	<path class="st10" d="M2345.9,826.2c0,0,0-0.1-0.1-0.2C2345.8,826.1,2345.8,826.1,2345.9,826.2L2345.9,826.2z"/>
	<path class="st10" d="M2342.4,822.1h-89.7c-1.8-3.8-4.5-7.2-7.9-9.7c-2.7,2.5-4.6,5.9-5.3,9.7h-32.7c0.4-0.9,0.9-1.7,1.4-2.5
		c3.2-3.5,9.8-9.4,17.5-9.4h42.5c0,0,5.1,0,12.3,0h42.5c10.2,0,18.3,10.3,19.4,11.8C2342.4,821.9,2342.4,822,2342.4,822.1z"/>
	<path class="st10" d="M2239.5,822.1h13.2c-1.8-3.8-4.5-7.2-7.9-9.7C2242.1,814.9,2240.2,818.3,2239.5,822.1z"/>
	<path class="st12" d="M2390.8,876.1c-1.7-9-8.3-15.7-16.1-15.7h-27.5v17.3h19.4c4.6,0,8.3,4.6,8.3,10.2v59.4
		c0,5.6-3.7,10.2-8.3,10.2h-19.4v17.9h27.5c8.2,0,15.1-7.4,16.4-17c0.1-0.8,0.2-1.7,0.2-2.6V955l0,0v-74.2l0,0v-1.1
		C2391.2,878.4,2391.1,877.2,2390.8,876.1z"/>
	<path class="st14" d="M2236.5,994.1L2236.5,994.1c-4.6,0-8.3-3.7-8.3-8.3V882.9c0-4.6,3.7-8.3,8.3-8.3l0,0c4.6,0,8.3,3.7,8.3,8.3
		v102.9C2244.8,990.4,2241.1,994.1,2236.5,994.1z"/>
	<path class="st14" d="M2275,994.1L2275,994.1c-4.6,0-8.3-3.7-8.3-8.3V882.9c0-4.6,3.7-8.3,8.3-8.3l0,0c4.6,0,8.3,3.7,8.3,8.3v102.9
		C2283.3,990.4,2279.6,994.1,2275,994.1z"/>
	<path class="st14" d="M2312.7,991.6L2312.7,991.6c-4.6,0-8.3-3.7-8.3-8.3V880.4c0-4.6,3.7-8.3,8.3-8.3l0,0c4.6,0,8.3,3.7,8.3,8.3
		v102.9C2321,987.9,2317.3,991.6,2312.7,991.6z"/>
</g>
<path class="st15" d="M-553.3,692.9V660l5.8,5.8c9.5,9.5,25,9.5,34.5,0s9.5-25,0-34.5l-45-45l-2.9-2.9c-4.5-4.5-10.2-6.8-16.1-7.1
	c-0.2,0-0.5,0-0.8,0c-0.1,0-0.2,0-0.2,0c-0.1,0-0.1,0-0.2,0s-0.1,0-0.2,0c-6.3-0.1-12.7,2.3-17.5,7.2l-47.9,47.9
	c-9.5,9.5-9.5,25,0,34.5s25,9.5,34.5,0l7.1-7.1l0.6,33.7c-34.6,10-59.9,41.9-59.9,79.8c0,45.9,37.2,83.1,83.1,83.1
	s83.1-37.2,83.1-83.1C-495.3,735-519.6,703.6-553.3,692.9z M-578.3,807.4c-19.4,0-35.2-15.8-35.2-35.2s15.8-35.2,35.2-35.2
	c19.4,0,35.2,15.8,35.2,35.2S-558.9,807.4-578.3,807.4z"/>
<path class="st16" d="M-267.2,734.6c32.4-32.4,32.4-85.1,0-117.5s-85.1-32.4-117.5,0s-32.4,85.1,0,117.5
	c10.6,10.6,23.3,17.7,36.8,21.4v25.9h-9.6c-12.1,0-21.9,9.8-21.9,21.9l0,0c0,12.1,9.8,21.9,21.9,21.9h9.6v9.6
	c0,12.1,9.8,21.9,21.9,21.9l0,0c12.1,0,21.9-9.8,21.9-21.9v-9.6h9.6c12.1,0,21.9-9.8,21.9-21.9l0,0c0-12.1-9.8-21.9-21.9-21.9h-9.6
	V756C-290.6,752.3-277.8,745.1-267.2,734.6z M-350.9,650.9c13.8-13.8,36-13.8,49.8,0s13.8,36,0,49.8s-36,13.8-49.8,0
	C-364.6,687-364.6,664.7-350.9,650.9z"/>
<rect x="-475.8" y="512.6" class="st17" width="578.1" height="600.5"/>
<path class="st4" d="M-325.9,690.5l-59.5,59.5c-6.3,6.3-16.4,6.3-22.7,0l0,0c-6.3-6.3-6.3-16.4,0-22.7l59.5-59.5
	c6.3-6.3,16.4-6.3,22.7,0l0,0C-319.6,674.1-319.6,684.2-325.9,690.5z"/>
<path class="st4" d="M-289.1,750l-59.5-59.5c-6.3-6.3-6.3-16.4,0-22.7l0,0c6.3-6.3,16.4-6.3,22.7,0l59.5,59.5
	c6.3,6.3,6.3,16.4,0,22.7l0,0C-272.7,756.2-282.8,756.2-289.1,750z"/>
<path class="st4" d="M-317.4,701.1v75.2c0,11.9-9.6,21.5-21.5,21.5l0,0c-11.9,0-21.5-9.6-21.5-21.5v-75.2c0-11.9,9.6-21.5,21.5-21.5
	l0,0C-327,679.6-317.4,689.3-317.4,701.1z"/>
<path class="st4" d="M-337.2,776.7c-52.3,0-94.6,42.4-94.6,94.6s42.4,94.6,94.6,94.6s94.6-42.4,94.6-94.6S-285,776.7-337.2,776.7z
	 M-337.2,929.5c-32.1,0-58.2-26-58.2-58.2c0-32.1,26-58.2,58.2-58.2s58.2,26,58.2,58.2C-279.1,903.4-305.1,929.5-337.2,929.5z"/>
<path class="st4" d="M-96.5,944.4V843c0-11.9,9.6-21.5,21.5-21.5l0,0c11.9,0,21.5,9.6,21.5,21.5v101.4c0,11.9-9.6,21.5-21.5,21.5
	l0,0C-86.9,965.9-96.5,956.3-96.5,944.4z"/>
<path class="st4" d="M-35.2,923.6h-79.7c-11.9,0-21.5-9.6-21.5-21.5l0,0c0-11.9,9.6-21.5,21.5-21.5h79.7c11.9,0,21.5,9.6,21.5,21.5
	l0,0C-13.7,914-23.3,923.6-35.2,923.6z"/>
<path class="st4" d="M-76.7,842.7c52.3,0,94.6-42.4,94.6-94.6s-42.4-94.6-94.6-94.6s-94.6,42.4-94.6,94.6S-128.9,842.7-76.7,842.7z
	 M-76.7,689.9c32.1,0,58.2,26,58.2,58.2c0,32.1-26,58.2-58.2,58.2s-58.2-26-58.2-58.2C-134.8,715.9-108.8,689.9-76.7,689.9z"/>
<rect x="-990.4" y="512.6" class="st18" width="508.9" height="434.6"/>
<path class="st4" d="M-711.4,689.9l-59.5,59.5c-6.3,6.3-16.4,6.3-22.7,0l0,0c-6.3-6.3-6.3-16.4,0-22.7l59.5-59.5
	c6.3-6.3,16.4-6.3,22.7,0l0,0C-705.2,673.5-705.2,683.6-711.4,689.9z"/>
<path class="st4" d="M-674.6,749.4l-59.5-59.5c-6.3-6.3-6.3-16.4,0-22.7l0,0c6.3-6.3,16.4-6.3,22.7,0l59.5,59.5
	c6.3,6.3,6.3,16.4,0,22.7l0,0C-658.2,755.6-668.4,755.6-674.6,749.4z"/>
<path class="st4" d="M-705.2,698.2V778c0,10.6-8.6,19.2-19.2,19.2l0,0c-10.6,0-19.2-8.6-19.2-19.2v-79.8c0-10.6,8.6-19.2,19.2-19.2
	l0,0C-713.8,679-705.2,687.6-705.2,698.2z"/>
<path class="st19" d="M-841-335.1c-18,0-34.3,7.5-45.7,19.5v83.2c11.4,12,27.6,19.5,45.7,19.5c34.4,0,62.4-27.4,62.4-61.1
	C-778.7-307.8-806.6-335.1-841-335.1z"/>
<path class="st19" d="M-302.6-306.3c-8-8.2-19.5-13.4-32.2-13.4c-24.1,0-43.7,18.4-43.7,41.1s19.6,41.1,43.7,41.1
	c12.8,0,24.3-5.2,32.2-13.4V-306.3z"/>
<ellipse class="st19" cx="-758.8" cy="-287.1" rx="28" ry="27.5"/>
<ellipse class="st19" cx="-683.7" cy="-279.7" rx="54.2" ry="53.1"/>
<ellipse class="st19" cx="-604.5" cy="-284.4" rx="35.9" ry="35.2"/>
<ellipse class="st19" cx="-539.3" cy="-300.3" rx="33.6" ry="32.9"/>
<ellipse class="st19" cx="-505.1" cy="-276.9" rx="38.4" ry="37.6"/>
<ellipse class="st19" cx="-442.4" cy="-285.5" rx="38" ry="37.3"/>
<ellipse class="st19" cx="-393.2" cy="-296.9" rx="23.2" ry="22.7"/>
<path class="st19" d="M-302.6-281.5h-583.1c2.2-15.3,1.6-11,3.5-24.2l0,0c0-13.3,12.2-24.2,27.2-24.2h521.7
	c15,0,27.2,10.8,27.2,24.2l0,0C-304.9-293.6-304.9-293.9-302.6-281.5z"/>
<circle class="st20" cx="-758.8" cy="-299.3" r="28"/>
<circle class="st20" cx="-683.7" cy="-291.7" r="54.2"/>
<circle class="st20" cx="-604.5" cy="-296.6" r="35.9"/>
<circle class="st20" cx="-539.3" cy="-312.8" r="33.6"/>
<circle class="st20" cx="-505.1" cy="-288.9" r="38.4"/>
<circle class="st20" cx="-442.4" cy="-297.7" r="38"/>
<circle class="st20" cx="-393.2" cy="-309.3" r="23.2"/>
<rect x="-886.5" y="-352.8" class="st20" width="583.9" height="61.1"/>
<path class="st20" d="M-302.6-319.5c-8-8.4-19.5-13.7-32.2-13.7c-24.1,0-43.7,18.8-43.7,41.9c0,23.2,19.6,41.9,43.7,41.9
	c12.8,0,24.3-5.3,32.2-13.7V-319.5z"/>
<path class="st20" d="M-841-350.2c-18,0-34.3,7.7-45.7,19.9v84.9c11.4,12.2,27.6,19.9,45.7,19.9c34.4,0,62.4-27.9,62.4-62.4
	C-778.7-322.2-806.6-350.2-841-350.2z"/>
<image style="display:none;overflow:visible;enable-background:new    ;" width="2056" height="494" xlink:href="C610C9FE7E237211.png"  transform="matrix(0.5771 0 0 0.5771 -1179.6432 -152.0194)">
</image>
<path class="st7" d="M-1323,273.6c1.4,1.9,2.6,3.6,3.7,5.2c6,8.5,2.2,20.3-7.8,23.9c-8.4,3-21.4,5.2-41.4,4.8
	c-20.1,0.4-33.1-1.8-41.5-4.8c-10-3.5-13.8-15.4-7.8-23.9c1.1-1.6,2.3-3.3,3.7-5.2c8.4-11.5,11-58.3,7.8-119.2
	c-2.6-49.2-25.6-180.6-34.4-229.4c-1.7-9.7,5.9-18.6,16-18.6h112.2c10.1,0,17.8,8.9,16,18.6c-8.8,48.8-31.8,180.2-34.4,229.4
	C-1334,215.4-1331.4,262.2-1323,273.6z"/>
<g>
	
		<linearGradient id="SVGID_3_" gradientUnits="userSpaceOnUse" x1="-1368.5889" y1="347.4662" x2="-1368.5889" y2="44.9028" gradientTransform="matrix(1 0 0 -1 0 301.2)">
		<stop  offset="0" style="stop-color:#FFCC4C"/>
		<stop  offset="1" style="stop-color:#FEBF4B"/>
	</linearGradient>
	<path class="st21" d="M-1339.4,143.6c2-38,19.8-139.3,26.5-177c1.3-7.5-4.6-14.3-12.4-14.3h-86.5c-7.8,0-13.7,6.8-12.4,14.3
		c6.8,37.6,24.5,139,26.5,177c0.9,16.3,1.2,79.1,1,92c-0.2,15.3,11.4,19.1,26.6,19.9c0.5,0,1,0,1.5,0s1,0,1.5,0
		c15.2-0.8,26.9-4.6,26.6-19.9C-1340.5,222.6-1340.2,159.8-1339.4,143.6z"/>
</g>
<circle class="st14" cx="-1333.6" cy="-25.7" r="6.1"/>
<ellipse transform="matrix(0.1256 -0.9921 0.9921 0.1256 -1227.9819 -1288.7994)" class="st14" cx="-1345.1" cy="52.2" rx="53" ry="6.1"/>
<g>
	<path class="st7" d="M-1757.5,292.6c0.8,2.1,0.1,4-1.5,5.5c-3.6,3.2-9.4,4.2-14,5c-11.5,1.9-23.2,2-34.8,1.9
		c-11.6,0.1-23.4,0-34.8-1.9c-4.6-0.8-10.4-1.7-14-5c-1.6-1.5-2.3-3.4-1.5-5.5c0.8-2,2.5-3.5,4.7-3.8c1.3-0.2,2.6-0.3,4-0.5
		c5.2-0.9,10.2-2.7,15-4.9c13.4-6,22-13.8,22-13.8s0.8-103,0.8-121.9s-38.2-28.4-54-46.5c-16-18.2,18.3-106.6,18.3-106.6h78.9
		c0,0,36.7,86.7,20.9,104.8c-15.8,18.2-56.4,29.3-56.4,48.2s0.8,121.9,0.8,121.9s8.5,7.8,22,13.8c4.8,2.1,9.8,3.9,15,4.9
		c1.3,0.2,2.6,0.3,4,0.5C-1760,289-1758.3,290.6-1757.5,292.6z"/>
	
		<linearGradient id="SVGID_4_" gradientUnits="userSpaceOnUse" x1="-1806.7653" y1="285.4282" x2="-1806.7653" y2="175.2194" gradientTransform="matrix(1 0 0 -1 0 301.2)">
		<stop  offset="0" style="stop-color:#FFCC4C"/>
		<stop  offset="1" style="stop-color:#FEBF4B"/>
	</linearGradient>
	<path class="st22" d="M-1764.2,102.4l-37.7,21.8c-3,1.7-6.8,1.7-9.8,0l-37.7-21.8c-0.3-0.2-0.6-0.3-0.8-0.4
		c-2.2-1-15.2-8.3-5.3-39.8l9.8-38.6c1.1-4.3,5-7.4,9.5-7.4h58.8c4.5,0,8.4,3,9.5,7.4l9.9,38.6c9.9,31.5-3.1,38.8-5.3,39.8
		C-1763.6,102.1-1763.9,102.3-1764.2,102.4z"/>
	<circle class="st14" cx="-1778.6" cy="38.5" r="6.1"/>
	<ellipse class="st14" cx="-1778.6" cy="71.5" rx="6.1" ry="17"/>
</g>
<text transform="matrix(1 0 0 1 -915.525 38.5073)" style="font-family:'MyriadPro-Regular'; font-size:72px;">Beer</text>
<image style="display:none;overflow:visible;enable-background:new    ;" width="2056" height="986" xlink:href="C610C9FE7E237213.png"  transform="matrix(0.5 0 0 0.5 -989.2509 1342.9393)">
</image>
<image style="display:none;overflow:visible;enable-background:new    ;" width="2114" height="968" xlink:href="C610C9FE7E237216.png"  transform="matrix(0.5 0 0 0.5 -1038.9109 1221.3608)">
</image>
<image style="display:none;overflow:visible;enable-background:new    ;" width="2114" height="968" xlink:href="C610C9FE7E237217.png"  transform="matrix(0.5 0 0 0.5 -1201.7656 1171.8727)">
</image>
<text transform="matrix(1 0 0 1 544.1224 -142.7456)" style="font-family:'MyriadPro-Regular'; font-size:72px;">Cocktail</text>
<image style="display:none;overflow:visible;enable-background:new    ;" width="2056" height="986" xlink:href="C610C9FE7E237212.png"  transform="matrix(0.5 0 0 0.5 347.2379 -367.6288)">
</image>
<image style="display:none;overflow:visible;enable-background:new    ;" width="2114" height="968" xlink:href="C610C9FE7E23721D.png"  transform="matrix(0.5 0 0 0.5 297.578 -489.2073)">
</image>
<image style="display:none;overflow:visible;enable-background:new    ;" width="2114" height="968" xlink:href="C610C9FE7E23721E.png"  transform="matrix(0.5 0 0 0.5 134.7232 -538.6955)">
</image>
<path class="st7" d="M1492.6-626.7l-5,253.9c-0.1,5.5-3.8,10.2-9.1,11.7c-7.7,2.2-21.6,4.6-45.8,5c-24.2-0.3-38-2.7-45.8-5
	c-5.3-1.5-8.9-6.2-9.1-11.7l-5-253.9c-0.1-7,5.5-12.7,12.4-12.7h94.7C1487.1-639.4,1492.7-633.6,1492.6-626.7z"/>
<linearGradient id="SVGID_5_" gradientUnits="userSpaceOnUse" x1="1432.7302" y1="-615.9066" x2="1432.7302" y2="-380.4693">
	<stop  offset="0" style="stop-color:#14AFAB"/>
	<stop  offset="1" style="stop-color:#227893"/>
</linearGradient>
<path class="st24" d="M1482-603.8l-4.1,208.7c-0.1,4.5-3.1,8.4-7.5,9.6c-6.3,1.8-17.8,3.8-37.7,4.1c-19.9-0.2-31.2-2.2-37.7-4.1
	c-4.4-1.2-7.3-5.1-7.5-9.6l-4.1-208.7c-0.1-5.8,4.5-10.4,10.2-10.4h77.9C1477.5-614.2,1482.1-609.5,1482-603.8z"/>
<path class="st7" d="M1585.5-357.9c-59.6,0.5-52.6-4.3-34.3-14.3c16.8-9.2,12.4-29.6,11.5-32.8c-0.1-0.3-0.1-0.7-0.2-1l-22.3-295.3
	c-0.3-3.5,2.5-6.6,6.1-6.6h78.3c3.6,0,6.4,3,6.1,6.6L1608.4-406c0,0.3-0.1,0.7-0.2,1c-0.8,3.3-5.3,23.7,11.5,32.8
	C1638-362.2,1645.1-357.4,1585.5-357.9z"/>
<image style="display:none;overflow:visible;enable-background:new    ;" width="2056" height="986" xlink:href="C610C9FE7E23721F.png"  transform="matrix(0.5 0 0 0.5 347.2379 501.0493)">
</image>
<image style="display:none;overflow:visible;enable-background:new    ;" width="2114" height="968" xlink:href="C610C9FE7E237214.png"  transform="matrix(0.5 0 0 0.5 297.578 379.4709)">
</image>
<image style="display:none;overflow:visible;enable-background:new    ;" width="2114" height="968" xlink:href="A06D31C83B1F7C8A.png"  transform="matrix(0.5 0 0 0.5 134.7232 329.9827)">
</image>
<text transform="matrix(1 0 0 1 544.1232 729.9101)" style="font-family:'MyriadPro-Regular'; font-size:72px;">Lhao</text>
<path class="st12" d="M550.2,1002.7c-23.7,31.1-43,36.1-53.2,41.7s-16.2,26.8,3.2,30.9c19.4,4.2,27.9,6.7,27.9,6.7
	s35.7,18.2-50,18.2c-86.4,0-50-18.2-50-18.2s8.4-2.5,27.8-6.7c19.4-4.1,13.4-25.4,3.2-30.9c-10.2-5.6-29.4-10.5-53.2-41.7
	c-23.7-31.1,24.6-122.1,24.6-122.1h95C525.6,880.6,573.9,971.5,550.2,1002.7z"/>
<path class="st25" d="M629.9,1100.2c-66.8-0.8-42.6-10.7-26.2-11.9c16.4-1.2,21.7-15.2,21.7-15.2s-0.8-91.8,0-107.3
	c0.8-15.6-11.7-23.3-11.7-23.3c-30.1-32-16.2-104.1-16.2-104.1h64.7c0,0,13.9,72.1-16.2,104.1c0,0-12.5,7.8-11.7,23.3
	c0.8,15.6,0,107.3,0,107.3s5.3,13.9,21.7,15.2C672.5,1089.6,696.7,1099.4,629.9,1100.2z"/>
<path class="st12" d="M739.8,1100.2c-39.6,0-30.4-5.9-23.1-9.4c7-3.4,15.4-9.1,15.4-9.1l1.3-28.9c0.9-20.1-4.1-22.3-8.8-29.2
	c-4.7-6.9-5.6-11.3-10-27.3s-1.9-68.1-1.9-68.1h54.4c0,0,2.5,52.1-1.9,68.1s-5.3,20.4-10,27.3c-4.7,6.9-9.7,9.1-8.8,29.2l1.3,28.9
	c0,0,8.4,5.7,15.4,9.1C770.2,1094.3,779.4,1100.2,739.8,1100.2z"/>
<path class="st12" d="M877.6,979.2c4.1,0,7.4,3.4,7.2,7.5l-3.8,95.7c0,0-0.9,17.9-13.2,17.9c-17.1,0-28.7,0-28.7,0s-11.6,0-28.7,0
	c-12.3,0-13.2-17.9-13.2-17.9l-3.8-95.7c-0.2-4.1,3.1-7.5,7.2-7.5L877.6,979.2L877.6,979.2z"/>
<ellipse class="st14" cx="808.1" cy="1039.7" rx="2.7" ry="39.4"/>
<ellipse class="st14" cx="818.2" cy="1039.7" rx="2.7" ry="39.4"/>
<ellipse class="st14" cx="835.2" cy="1039.7" rx="2.7" ry="39.4"/>
<ellipse class="st14" cx="845.6" cy="1039.7" rx="2.7" ry="39.4"/>
<ellipse class="st14" cx="862.8" cy="1039.7" rx="2.7" ry="39.4"/>
<ellipse class="st14" cx="871" cy="1039.7" rx="2.7" ry="39.4"/>
<path class="st14" d="M814.3,1086.4c-0.7,0-1.3,4.6-1.7,12.3h3.5C815.6,1091,815,1086.4,814.3,1086.4z"/>
<path class="st14" d="M840.5,1084.7c-0.7,0-1.4,5.3-1.8,13.9h3.7C841.9,1090,841.2,1084.7,840.5,1084.7z"/>
<path class="st14" d="M866.7,1086.4c-0.7,0-1.3,4.6-1.7,12.3h3.5C867.9,1091,867.3,1086.4,866.7,1086.4z"/>
<image style="display:none;overflow:visible;enable-background:new    ;" width="2056" height="986" xlink:href="A06D31C83B1F7C8D.png"  transform="matrix(0.5 0 0 0.5 1695.4137 501.0493)">
</image>
<image style="display:none;overflow:visible;enable-background:new    ;" width="2114" height="968" xlink:href="A06D31C83B1F7C8E.png"  transform="matrix(0.5 0 0 0.5 1645.7535 379.4709)">
</image>
<image style="display:none;overflow:visible;enable-background:new    ;" width="2114" height="968" xlink:href="A06D31C83B1F7C8C.png"  transform="matrix(0.5 0 0 0.5 1482.8988 329.9827)">
</image>
<image style="display:none;overflow:visible;enable-background:new    ;" width="2056" height="986" xlink:href="A06D31C83B1F7C8B.png"  transform="matrix(0.5 0 0 0.5 1695.4137 -367.6288)">
</image>
<image style="display:none;overflow:visible;enable-background:new    ;" width="2114" height="968" xlink:href="A06D31C83B1F7C95.png"  transform="matrix(0.5 0 0 0.5 1645.7535 -489.2073)">
</image>
<image style="display:none;overflow:visible;enable-background:new    ;" width="2114" height="968" xlink:href="A06D31C83B1F7C96.png"  transform="matrix(0.5 0 0 0.5 1482.8988 -538.6955)">
</image>
<text transform="matrix(1 0 0 1 1798.5753 -142.7458)" style="font-family:'MyriadPro-Regular'; font-size:72px;">Wine</text>
<path class="st12" d="M1746,296.9c-103.5-0.2-51.2-11.8-48-12.5c0.1,0,0.2,0,0.3-0.1c1.8-0.5,17.6-5.2,22.9-8.2
	c5.5-3.2,14.6-18.7,14.8-25.7c0.2-6.3-4-21.5-5-25.2c-0.2-0.5-0.4-1-0.7-1.5c-7.5-11-1.3-17.9,3.1-24.8c4.5-7,2-23.6-1.9-30
	c-3.8-6.4-13.9-31.9-17.7-51c-3.1-15.9-27.1-81.2-35-102.7c-1.2-3.3,1.2-6.9,4.8-6.9l126.2,0.3c3.6,0,6,3.6,4.8,6.9
	c-8.1,21.4-32.3,86.6-35.5,102.5c-3.9,19.1-14.1,44.6-18,50.9c-3.8,6.4-6.4,22.9-2,30c4.4,6.9,10.5,13.9,3,24.8
	c-0.3,0.5-0.6,0.9-0.7,1.5c-1,3.6-5.3,18.9-5.1,25.2c0.2,7,9.2,22.6,14.7,25.8c5.2,3.1,21.1,7.8,22.8,8.3c0.1,0,0.2,0.1,0.3,0.1
	C1797.2,285.3,1849.5,297.2,1746,296.9z"/>
<path class="st12" d="M1894.6,171.7v101.1c0,0,16.4,7.2,26.1,10.7c8.8,3.2,30.8,14.5-32.3,14.5s-41.1-11.3-32.3-14.5
	c9.7-3.5,26-10.7,26-10.7V171.7c0,0-3.9-2.4-12.9-8.9c-10.2-7.4-27.4-26.8-33.9-48.7c-6.6-21.9,9.9-105.6,9.9-105.6h86.5
	c0,0,16.4,83.8,9.9,105.6c-6.6,21.9-23.7,41.3-33.9,48.7C1898.5,169.3,1894.6,171.7,1894.6,171.7z"/>
<path class="st12" d="M2039.8,148.1c0,6.3-0.4,117.8-0.4,117.8l25.6,14.7c0,0,44.2,16.3-32.6,16.3c-76.8,0-32.6-16.3-32.6-16.3
	l25.6-14.7c0,0-0.4-111.5-0.4-117.8s-3.1-8-8.5-11.4s-25-14.8-35.1-32.4s12.4-95.9,12.4-95.9h77.3c0,0,22.5,78.4,12.4,95.9
	c-10.1,17.6-29.7,29-35.1,32.4C2042.9,140.1,2039.8,141.8,2039.8,148.1z"/>
<path class="st12" d="M2180.4,188.8c0,4.6,0,69.5,0,69.5s15.3,22.4,24.2,23s44.4,15.5-32.5,15.5c-76.9,0-41.4-14.9-32.5-15.5
	s24.2-23,24.2-23s0-65,0-69.5c0-4.6-3.6-7.7-3.6-7.7c-1.6-16.3-19.1-29.2-43.9-55.9c-24.7-26.7,8-99.8,8-99.8h95.7
	c0,0,32.7,73.1,8,99.8c-24.7,26.7-42.3,39.6-43.9,55.9C2184,181.1,2180.4,184.2,2180.4,188.8z"/>
<path class="st26" d="M-207.9,1556.7h-118.2c-10.7,0-19.4-8.7-19.4-19.4v-118.2c0-10.7,8.7-19.4,19.4-19.4h118.2
	c10.7,0,19.4,8.7,19.4,19.4v118.2C-188.5,1548-197.2,1556.7-207.9,1556.7z"/>
<path class="st4" d="M-345.4,1451.2v86.2c0,10.7,8.7,19.4,19.4,19.4h118.2c10.7,0,19.4-8.7,19.4-19.4v-86.2H-345.4z"/>
<text transform="matrix(1 0 0 1 -290.7471 1433.3013)" class="st4" style="font-family:'Cloud-Bold'; font-size:26px;">DAY</text>
<g>
	<path class="st12" d="M2626.2,869.5c0,6.3-0.4,117.8-0.4,117.8l25.6,14.7c0,0,44.2,16.3-32.6,16.3c-65.3,0-24.6-16.3-24.6-16.3
		l25.6-14.7c0,0-0.4-111.5-0.4-117.8s-3.1-8-8.5-11.4s-25-14.8-35.1-32.4c-10.1-17.6,12.4-95.9,12.4-95.9h69.3
		c0,0,22.5,78.4,12.4,95.9c-10.1,17.6-29.7,29-35.1,32.4C2629.3,861.4,2626.2,863.2,2626.2,869.5z"/>
	
		<linearGradient id="SVGID_6_" gradientUnits="userSpaceOnUse" x1="2660.9358" y1="-498.9207" x2="2660.4749" y2="-507.6861" gradientTransform="matrix(1 0 0 -1 0 301.2)">
		<stop  offset="0" style="stop-color:#AE4F6F"/>
		<stop  offset="1" style="stop-color:#6C365E"/>
	</linearGradient>
	<path class="st27" d="M2659.1,805.1c-0.3-1.5,0.2-3,1.3-4.1c0.2-0.2,0.4-0.4,0.7-0.4c0.7-0.1,1.3,0.6,1.4,1.3
		c0.3,1.4-0.7,3-2.2,3.4c-0.5,0.1-1.1,0-1.3-0.4"/>
	
		<linearGradient id="SVGID_7_" gradientUnits="userSpaceOnUse" x1="2622.7588" y1="-501.1848" x2="2622.7588" y2="-553.662" gradientTransform="matrix(1 0 0 -1 0 301.2)">
		<stop  offset="0" style="stop-color:#AE4F6F"/>
		<stop  offset="1" style="stop-color:#6C365E"/>
	</linearGradient>
	<path class="st28" d="M2664.8,818.6c-0.7,0.1-1.3,0.5-2,0.8s-1.6,0.4-2.3,0.2c-0.1,0-0.2,0-0.3-0.1c-0.1-0.1-0.1-0.1-0.1-0.2
		c0-0.1,0-0.1,0-0.2c0-1.9,0.2-4.1-2.1-5.3c-0.7-0.3-1.4-0.5-2.1-0.5c-2.4,0-4.4,1.4-6.5,2.5c-3.5,1.9-7.3,3-11.2,3.5H2625
		c-4.4-0.5-8.7-1.3-13-2.2c-1.8-0.4-3.7-0.8-5.1-1.9c-1.1-0.9-1.9-2.1-2.9-3.1s-2.5-1.8-3.9-1.3c-0.7,0.2-1.2,0.7-1.9,0.9
		c-1.1,0.3-2.2-0.1-3.2-0.5c-1.6-0.7-3.2-1.3-4.5-2.4c-2-1.6-3.7-4.1-6.6-3.4c-1.2,0.3-2.2,1.1-2.8,2.1c-6.3,9.8,5,20.6,11.6,26.7
		c5.5,5.1,11.6,9.3,18,13.2c0.9,0.5,1.7,1,2.4,1.5c7.6,5,9.3,5.8,11.6,5.8c2,0,6.1-3,10.1-5.8c0.7-0.5,1.5-1,2.4-1.5
		c0.5-0.3,1-0.6,1.5-0.9c5-3.1,9.8-6.5,14.3-10.4c2.9-2.6,5.7-5.3,8.2-8.3c1.3-1.6,2.5-3.2,3.6-4.9
		C2665.3,822,2667.9,818.3,2664.8,818.6z"/>
</g>
<g>
	<path class="st12" d="M2130.4,874c4.9,0,8.9,4.1,8.7,9l-4.6,115c0,0-1.1,21.5-15.8,21.5c-20.6,0-34.5,0-34.5,0s-13.9,0-34.5,0
		c-14.7,0-15.8-21.5-15.8-21.5l-4.6-115c-0.2-4.9,3.7-9,8.7-9H2130.4z"/>
	<path class="st29" d="M2050.3,923.3c-6.7,0-12.1,3.8-11.8,8.5l2.9,51.1c0,0,0.9,12.4,13.3,12.4c17.3,0,28.9,0,28.9,0s11.7,0,28.9,0
		c12.3,0,13.3-12.4,13.3-12.4l2.9-51.1c0.3-4.6-5.1-8.5-11.8-8.5H2050.3z"/>
	<path class="st30" d="M2066.6,943.9l-13.1-8.9c-2.6-1.8-3.3-5.4-1.5-8l8.9-13.1c1.8-2.6,5.4-3.3,8-1.5l13.1,8.9
		c2.6,1.8,3.3,5.4,1.5,8l-8.9,13.1C2072.8,945,2069.2,945.7,2066.6,943.9z"/>
	<path class="st30" d="M2109.2,931.3l-7,2.1c-2,0.6-4-0.5-4.6-2.5l-2.1-7c-0.6-2,0.5-4,2.5-4.6l7-2.1c2-0.6,4,0.5,4.6,2.5l2.1,7
		C2112.3,928.7,2111.2,930.7,2109.2,931.3z"/>
</g>
<path class="st7" d="M2493.6,1002.7l-20.2-11.6c0,0,0.3-67.4,0.3-87.6l45.4-63H2423l45.3,62.8c0.1,20,0.3,87.7,0.3,87.7l-20.2,11.6
	c0,0-32.1,12.9,19.4,12.9C2528.5,1015.6,2493.6,1002.7,2493.6,1002.7z"/>
<linearGradient id="SVGID_8_" gradientUnits="userSpaceOnUse" x1="2471.0847" y1="-562.6" x2="2471.0847" y2="-595.5535" gradientTransform="matrix(1 0 0 -1 0 301.2)">
	<stop  offset="0" style="stop-color:#14AFAB"/>
	<stop  offset="1" style="stop-color:#227893"/>
</linearGradient>
<polygon class="st31" points="2494.9,863.8 2471.1,896.7 2447.3,863.8 "/>
<path class="st32" d="M2496.8,851.7c5.3-4.6,5.8-12.7,1.2-18c-4.6-5.3-12.7-5.8-18-1.2"/>
<polygon class="st33" points="2487.1,840.5 2479.7,840.5 2479.7,843.5 2489.7,843.5 "/>
<polygon class="st7" points="2492.6,846.9 2492.6,840.5 2487,840.5 2489.6,843.5 "/>
<g>
	<path class="st7" d="M113,278.5L80.7,260c0,0,0.5-107.9,0.5-140.3l72.7-100.9H0l72.5,100.6c0.2,32,0.5,140.4,0.5,140.4l-32.3,18.6
		c0,0-51.4,20.7,31.1,20.7C168.9,299.2,113,278.5,113,278.5z"/>
	
		<linearGradient id="SVGID_9_" gradientUnits="userSpaceOnUse" x1="77.0166" y1="245.0555" x2="77.0166" y2="192.291" gradientTransform="matrix(1 0 0 -1 0 301.2)">
		<stop  offset="0" style="stop-color:#14AFAB"/>
		<stop  offset="1" style="stop-color:#227893"/>
	</linearGradient>
	<polygon class="st34" points="115.1,56.1 77,108.8 38.9,56.1 	"/>
	<polygon class="st33" points="102.6,18.8 90.8,18.8 90.8,23.6 106.8,23.6 	"/>
	<g>
		<path class="st32" d="M118.2,36.8c8.5-7.4,9.3-20.3,1.9-28.8C112.7-0.5,99.8-1.3,91.3,6"/>
		<polygon class="st7" points="111.5,29.1 111.5,18.8 102.5,18.8 106.7,23.6 		"/>
	</g>
</g>
<path class="st35" d="M-2112.8,72.8c-0.6-0.8-2.8-5.7-5.3-10.7c-1.7-3.4-1.8-7.2-1.7-9.3c0-0.9,0.4-1.6,0.9-2.3
	c0.4-0.5,0.8-1.4,0.8-2.8c0-2.8-55.6-3.9-55.6-3.9s-55.6,1.1-55.6,3.9c0,1.4,0.4,2.3,0.8,2.8c0.5,0.7,0.9,1.5,0.9,2.3
	c0.1,2.1,0,5.9-1.7,9.3c-2.5,5-4.6,9.9-5.3,10.7c-0.6,0.8,0,15.1,0,18.7v151.9c0,1,0.4,1.9,1,2.7c1.1,1.2,3.1,3.1,5.7,4.7
	c2.4,1.4,4.1,2.7,5.1,3.5c0.7,0.6,1.3,1.4,1.4,2.3l0,0c0.1,0.5,0.3,0.9,0.5,1.3l1.1,1.7c0.7,1.1,1.8,1.7,3,1.8
	c7.4,0.6,33.5,2.5,42.9,2.5c9.8,0,35.6-1.9,42.9-2.5c1.2-0.1,2.4-0.8,3-1.8l1.1-1.7c0.3-0.4,0.4-0.9,0.5-1.3l0,0
	c0.2-0.9,0.7-1.8,1.4-2.3c1-0.8,2.7-2,5.1-3.5c2.6-1.6,4.6-3.5,5.7-4.7c0.7-0.7,1-1.7,1-2.7v-152
	C-2112.8,87.9-2112.2,73.6-2112.8,72.8z"/>
<path class="st36" d="M-2217.5,254.5c0,0,50.3,5.5,87.7,0"/>
<rect x="-2226.4" y="142.4" class="st37" width="105.5" height="26.5"/>
<path class="st36" d="M-2223,50.4c0,0,40.7,4.1,98.6,0"/>
<path class="st37" d="M-2205.4,168.9h63.5c-3.5,24-16.4,41.8-31.7,41.8C-2188.9,210.7-2201.9,192.9-2205.4,168.9z"/>
<path class="st37" d="M-2142,142.4h-63.5c3.5-24,16.4-41.8,31.7-41.8C-2158.3,100.6-2145.5,118.4-2142,142.4z"/>
<path d="M-695.1,1758.7h-23.1v-106c0-6.4,5.2-11.6,11.6-11.6l0,0c6.4,0,11.6,5.2,11.6,11.6L-695.1,1758.7L-695.1,1758.7z"/>
<path d="M-602.6,1770.3L-602.6,1770.3c0,6.4-5.2,11.6-11.6,11.6h-307c-6.4,0-11.6-5.2-11.6-11.6l0,0c0-6.4,5.2-11.6,11.6-11.6h307.1
	C-607.8,1758.7-602.6,1763.9-602.6,1770.3z"/>
<path d="M-77.5,1964.9L-77.5,1964.9c0,6.4-5.2,11.6-11.6,11.6h-307.1c-6.4,0-11.6-5.2-11.6-11.6l0,0c0-6.4,5.2-11.6,11.6-11.6h307.1
	C-82.7,1953.3-77.5,1958.5-77.5,1964.9z"/>
<path d="M-666.6,1654.7L-666.6,1654.7c-4.5,4.5-11.8,4.5-16.3,0l-99.2-99.2c-4.5-4.5-4.5-11.8,0-16.3l0,0c4.5-4.5,11.8-4.5,16.3,0
	l99.2,99.2C-662.1,1642.9-662.1,1650.2-666.6,1654.7z"/>
<path d="M-882.5,1654.7L-882.5,1654.7c4.5,4.5,11.8,4.5,16.3,0l99.2-99.2c4.5-4.5,4.5-11.8,0-16.3l0,0c-4.5-4.5-11.8-4.5-16.3,0
	l-99.2,99.2C-887,1642.9-887,1650.2-882.5,1654.7z"/>
<path d="M-831.1,1758.7h-23.1v-106c0-6.4,5.2-11.6,11.6-11.6l0,0c6.4,0,11.6,5.2,11.6,11.6L-831.1,1758.7L-831.1,1758.7z"/>
<path d="M-770.4,1758.7h-43.1v-52.4c0-11.9,9.7-21.6,21.6-21.6l0,0c11.9,0,21.6,9.7,21.6,21.6L-770.4,1758.7L-770.4,1758.7z"/>
<path d="M-184.4,1829.6h-109.4c-4.3,0-7.9,3.5-7.9,7.9l0,0c0,13.9-11.3,25.2-25.2,25.2l0,0c-10.3,0-18.6,8.3-18.6,18.6v33.7h196.6
	c13.8,0,24.9-11.2,24.9-24.9l0,0C-123.9,1856.7-151,1829.6-184.4,1829.6z"/>
<path d="M-146.5,1851.9H-185c-8.7,0-15.8-7.1-15.8-15.8v-38.5c0-8.7,7.1-15.8,15.8-15.8h38.5c8.7,0,15.8,7.1,15.8,15.8v38.5
	C-130.7,1844.9-137.8,1851.9-146.5,1851.9z"/>
<g>
	<path class="st7" d="M606.2,81.2c-12.3,13.9-52.3,27.8-58,37.6c0,0-0.4,8.6-9.1,9.1c0,0-4.5,3.2-4.5,13.2s-4.3,112,0,116.3
		c4.3,4.3,36.7,14.1,42.2,15.9s38.8,25-54,25s-59.4-23.2-54-25c5.5-1.8,37.9-11.6,42.2-15.9c4.3-4.3,0-106.3,0-116.3
		s-4.6-13.2-4.6-13.2c-8.6-0.5-9.1-9.1-9.1-9.1c-5.7-9.8-45.8-23.7-58-37.6c-12.3-13.9-9-46.6-9-46.6h184.8
		C615.2,34.6,618.5,67.3,606.2,81.2z"/>
	<g>
		<path class="st32" d="M586.4,52c8.5-7.4,9.3-20.3,1.9-28.8c-7.4-8.5-20.3-9.3-28.8-1.9"/>
		<polygon class="st7" points="579.7,44.3 579.7,34.1 570.7,34.1 574.9,38.9 		"/>
	</g>
	<linearGradient id="SVGID_10_" gradientUnits="userSpaceOnUse" x1="522.7673" y1="56.1445" x2="522.7673" y2="121.7784">
		<stop  offset="0" style="stop-color:#14AFAB"/>
		<stop  offset="1" style="stop-color:#227893"/>
	</linearGradient>
	<path class="st38" d="M454.3,56.1c-4.8,0-8.4,4.3-7.5,9c1.1,6.1,3.1,12.2,6.7,16.2c9.2,10.5,37.5,21,46.2,28.9
		c1.1,1,1.9,2.4,2.3,3.8c0.6,2.1,2.2,5.8,7.3,6.1c10.1,3.8,23.9,0.8,26.7,0.1c0.4-0.1,0.7-0.1,1.1-0.2c4.6-0.5,6.2-3.9,6.7-6
		c0.4-1.5,1.1-2.9,2.3-3.9c8.7-7.9,36.9-18.4,46.2-28.9c3.6-4.1,5.6-10.1,6.7-16.3c0.8-4.7-2.8-9-7.5-9H454.3z"/>
</g>
<g>
	<path class="st7" d="M871.3,297.9c-37.3-5.2-19.8-13.9-19.8-13.9l25.9-9.8v-107c-12.1-6.8-20.5-22.5-20.5-22.5
		C842.9,120.5,851.5,1,851.5,1h60.6c0,0,8.6,119.5-5.4,143.7c0,0-8.4,15.6-20.5,22.5v107l25.9,9.8c0,0,17.5,8.7-19.8,13.9
		C885.4,298.9,878.3,298.9,871.3,297.9z"/>
	<g>
		<path class="st32" d="M906.9,18.9c8.5-7.4,9.3-20.3,1.9-28.8c-7.4-8.5-20.3-9.3-28.8-1.9"/>
		<polygon class="st7" points="900.2,11.2 900.2,1 891.3,1 895.5,5.8 		"/>
	</g>
	<linearGradient id="SVGID_11_" gradientUnits="userSpaceOnUse" x1="881.8368" y1="31.817" x2="881.8368" y2="158.6003">
		<stop  offset="0" style="stop-color:#14AFAB"/>
		<stop  offset="1" style="stop-color:#227893"/>
	</linearGradient>
	<path class="st39" d="M862.9,34.1c-2.9,0-5.3,2.3-5.4,5.1c-1.4,27.4-3.2,85.1,5,99.6c0,0,6.5,12.5,15.9,17.9c2,1.3,4.8,0.6,6.1,0.2
		c0.4-0.1,0.8-0.3,1.2-0.5c9.1-5.6,15.4-17.6,15.4-17.6c8.2-14.5,6.4-72.2,5-99.6c-0.1-2.9-2.5-5.1-5.4-5.1H862.9z"/>
</g>
<g>
	<path class="st7" d="M1227.6,72.1c6.4,48.4,20.4,121.1,1.3,140.2c-12.4,12.4-18.3,19.6-20.9,23.1c-1.2,1.6-1.6,3.6-1.1,5.5
		c1.2,5.2,3.3,16.3,0.7,21c-0.9,1.7-1.8,3.3-2.5,4.9c-1.8,3.9,0.5,8.5,4.7,9.4l17.8,3.9c0.2,0,0.4,0.1,0.7,0.2
		c4.1,1.3,41,14.1-33.3,18.8c-0.3,0-0.6,0-0.9,0c-74.3-4.7-37.3-17.5-33.3-18.8c0.2-0.1,0.4-0.1,0.7-0.2l17.8-3.9
		c4.2-0.9,6.5-5.5,4.7-9.4c-0.7-1.5-1.5-3.2-2.5-4.9c-2.6-4.8-0.5-15.8,0.7-21c0.4-1.9,0-3.9-1.1-5.5c-2.6-3.5-8.5-10.7-20.9-23.1
		c-19.1-19.1-5.1-91.8,1.3-140.2c3.8-29-3.8-48-10.5-58.5c-2.9-4.5,0.4-10.3,5.7-10.3h76c5.3,0,8.5,5.9,5.7,10.3
		C1231.4,24.1,1223.8,43,1227.6,72.1z"/>
	<g>
		<path class="st32" d="M1225.7,21.2c8.5-7.4,9.3-20.3,1.9-28.8c-7.4-8.5-20.3-9.3-28.8-1.9"/>
		<polygon class="st7" points="1219,13.5 1219,3.3 1210.1,3.3 1214.3,8.1 		"/>
	</g>
	<linearGradient id="SVGID_12_" gradientUnits="userSpaceOnUse" x1="1194.4773" y1="27.1767" x2="1194.4773" y2="227.2673">
		<stop  offset="0" style="stop-color:#14AFAB"/>
		<stop  offset="1" style="stop-color:#227893"/>
	</linearGradient>
	<path class="st40" d="M1218.1,27.9h-47.2c-2.4,0-4.1,2.3-3.5,4.6c2.6,9.6,4.2,22.4,2.4,38.6c-4.8,43.6-15.2,109.1-1,126.3
		c8.9,10.8,13.3,17.2,15.4,20.4c0.2,0.2,0.3,0.5,0.5,0.7c8.8,8.8,17.5,1.8,19.4,0.1c0.2-0.2,0.5-0.5,0.6-0.8
		c2.1-3.3,6.5-9.7,15.4-20.4c14.3-17.2,3.8-82.7-1-126.3c-1.8-16.3-0.2-29,2.4-38.6C1222.3,30.2,1220.5,27.9,1218.1,27.9z"/>
</g>
<linearGradient id="SVGID_13_" gradientUnits="userSpaceOnUse" x1="1585.4878" y1="-684.2884" x2="1585.9897" y2="-415.1986">
	<stop  offset="0" style="stop-color:#14AFAB"/>
	<stop  offset="1" style="stop-color:#227893"/>
</linearGradient>
<path class="st41" d="M1618.6-683.8h-66.2c-3,0-5.4,2.6-5.2,5.6l18.9,249.7c0,5.1,8.7,9.2,19.4,9.2s19.4-4.1,19.4-9.2l18.9-249.7
	C1624-681.2,1621.6-683.8,1618.6-683.8z"/>
</svg>
