<?xml version="1.0" encoding="utf-8"?>
<!-- Generator: Adobe Illustrator 22.0.1, SVG Export Plug-In . SVG Version: 6.00 Build 0)  -->
<svg version="1.1" id="Layer_1" xmlns="http://www.w3.org/2000/svg" xmlns:xlink="http://www.w3.org/1999/xlink" x="0px" y="0px"
	 viewBox="0 0 185.7 283" style="enable-background:new 0 0 185.7 283;" xml:space="preserve">
<style type="text/css">
	.st0{display:none;}
	.st1{display:inline;fill:#FFFFFF;stroke:#000000;stroke-miterlimit:10;}
	.st2{fill:#707B7F;}
	.st3{fill:#CE403F;}
	.st4{fill:#FFFFFF;}
	.st5{fill:#CD915F;}
	.st6{fill:#AA6628;}
	.st7{opacity:0.5;fill:#F9F9FA;enable-background:new    ;}
	.st8{fill:url(#SVGID_1_);}
	.st9{fill:#DDDDDD;}
	.st10{fill:#F7F7F7;}
	.st11{opacity:0.35;fill:#F4F4F5;enable-background:new    ;}
	.st12{fill:#F9F9FA;stroke:#E2E2E2;stroke-width:3;stroke-miterlimit:10;}
	.st13{fill:url(#SVGID_2_);}
	.st14{opacity:0.6;fill:#F4F4F5;enable-background:new    ;}
	.st15{display:none;fill:#34A6C9;stroke:#1B8EB7;stroke-width:10;stroke-miterlimit:10;}
	.st16{display:none;fill:#F27CA7;stroke:#C94C72;stroke-width:10;stroke-miterlimit:10;}
	.st17{fill:#476269;}
	.st18{fill:#222728;}
	.st19{fill:#DDDDDC;}
	.st20{fill:#F6F7F7;}
	.st21{fill:url(#SVGID_3_);}
	.st22{fill:url(#SVGID_4_);}
	.st23{enable-background:new    ;}
	.st24{opacity:0.84;fill:url(#SVGID_5_);enable-background:new    ;}
	.st25{fill:none;stroke:#E2E2E2;stroke-width:3;stroke-miterlimit:10;}
	.st26{fill:#D95F56;}
	.st27{fill:url(#SVGID_6_);}
	.st28{fill:url(#SVGID_7_);}
	.st29{opacity:0.84;fill:#E8CD2C;enable-background:new    ;}
	.st30{opacity:0.39;fill:#90D7EB;enable-background:new    ;}
	.st31{opacity:0.84;fill:url(#SVGID_8_);enable-background:new    ;}
	.st32{fill:#D2E8C9;stroke:#6EBF59;stroke-width:2;stroke-miterlimit:10;}
	.st33{fill:none;}
	.st34{opacity:0.84;fill:url(#SVGID_9_);enable-background:new    ;}
	.st35{fill:#7AC25B;}
	.st36{fill:none;stroke:#E2E2E2;stroke-miterlimit:10;}
	.st37{fill:#157D3E;stroke:#E2E2E2;stroke-width:3;stroke-miterlimit:10;}
	.st38{opacity:0.84;fill:url(#SVGID_10_);enable-background:new    ;}
	.st39{opacity:0.84;fill:url(#SVGID_11_);enable-background:new    ;}
	.st40{opacity:0.84;fill:url(#SVGID_12_);enable-background:new    ;}
	.st41{opacity:0.84;fill:url(#SVGID_13_);enable-background:new    ;}
</style>
<g id="Layer_1_1_" class="st0">
	<rect x="-897" y="-231" class="st1" width="136.5" height="482"/>
</g>
<path class="st2" d="M-633.4,1546.4h-127c-11.1,0-20.2-9.1-20.2-20.2v-93.6c0-11.1,9.1-20.2,20.2-20.2h127
	c11.1,0,20.2,9.1,20.2,20.2v93.6C-613.1,1537.3-622.2,1546.4-633.4,1546.4z"/>
<rect x="-1362.1" y="-392.4" class="st3" width="658.6" height="188.9"/>
<circle class="st4" cx="-1660.6" cy="56.9" r="6.2"/>
<g>
	<polygon class="st5" points="-745.2,-654.7 -787.5,-642 -694.9,-642 	"/>
	<polygon class="st5" points="-406.9,-654.7 -364.7,-642 -457.3,-642 	"/>
	<rect x="-745.3" y="-654.7" class="st5" width="338.4" height="14.9"/>
	<rect x="-787.5" y="-642" class="st6" width="422.8" height="11.1"/>
</g>
<path class="st7" d="M-1542.3,289.7h-148.8c-11.7,0-21.2-9.5-21.2-21.2V40.8c0-11.7,9.5-21.2,21.2-21.2h148.8
	c11.7,0,21.2,9.5,21.2,21.2v227.7C-1521.1,280.2-1530.6,289.7-1542.3,289.7z"/>
<linearGradient id="SVGID_1_" gradientUnits="userSpaceOnUse" x1="-1618.1578" y1="218.2326" x2="-1618.1578" y2="-5.9891" gradientTransform="matrix(1 0 0 -1 0 270.6651)">
	<stop  offset="0" style="stop-color:#FFCC4C"/>
	<stop  offset="1" style="stop-color:#FEBF4B"/>
</linearGradient>
<path class="st8" d="M-1558.7,277.4h-118.9c-11.7,0-21.2-9.5-21.2-21.2V73.6c0-11.7,9.5-21.2,21.2-21.2h118.8
	c11.7,0,21.2,9.5,21.2,21.2v182.7C-1537.6,267.9-1547,277.4-1558.7,277.4z"/>
<circle class="st9" cx="-1674" cy="50.8" r="33"/>
<circle class="st9" cx="-1638.4" cy="41.2" r="23.4"/>
<circle class="st9" cx="-1603.4" cy="51.1" r="23.4"/>
<circle class="st9" cx="-1553.8" cy="46.3" r="28.2"/>
<circle class="st10" cx="-1603.4" cy="42" r="23.4"/>
<circle class="st10" cx="-1582" cy="32.1" r="11.7"/>
<path class="st10" d="M-1661.7,32.1c0-1.5,0.1-2.9,0.4-4.3h-42.7c-2,4.2-3.1,9-3.1,14c0,18.2,14.8,33,33,33
	c13.6,0,25.3-8.2,30.3-19.9C-1654,52.4-1661.7,43.1-1661.7,32.1z"/>
<path class="st10" d="M-1641,41.7c0,4.6-1,9.1-2.7,13.1c1.7,0.4,3.5,0.6,5.4,0.6c12.9,0,23.4-10.5,23.4-23.4c0-1.5-0.1-2.9-0.4-4.3
	h-28.7C-1642.2,32-1641,36.7-1641,41.7z"/>
<path class="st10" d="M-1644.1,27.7h-17.2c-0.3,1.4-0.4,2.8-0.4,4.3c0,11.1,7.7,20.3,18,22.7c1.7-4,2.7-8.4,2.7-13.1
	C-1641,36.7-1642.2,32-1644.1,27.7z"/>
<path class="st10" d="M-1527.3,27.7h-53.1c-1.1,3-1.6,6.1-1.6,9.5c0,15.6,12.6,28.2,28.2,28.2c15.6,0,28.2-12.6,28.2-28.2
	C-1525.7,33.9-1526.2,30.7-1527.3,27.7z"/>
<path class="st10" d="M-1798.6,28.6c0,0-0.1-0.1-0.2-0.2C-1798.7,28.4-1798.7,28.5-1798.6,28.6L-1798.6,28.6z"/>
<path class="st10" d="M-1527.3,27.7h-116.8c-2.4-5-5.9-9.3-10.3-12.6c-3.5,3.3-5.9,7.7-6.8,12.6h-42.6c0.5-1.1,1.1-2.2,1.8-3.3
	c4.2-4.6,12.7-12.3,22.7-12.3h55.4c0,0,6.7,0,16,0h55.4c13.2,0,23.9,13.4,25.3,15.3C-1527.3,27.6-1527.3,27.7-1527.3,27.7z"/>
<path class="st10" d="M-1661.3,27.7h17.2c-2.3-5-5.9-9.3-10.3-12.6C-1657.9,18.5-1660.4,22.8-1661.3,27.7z"/>
<path class="st7" d="M-1464.3,93.6c-2.3-11.7-10.8-20.4-21-20.4h-35.8v22.5h25.3c6,0,10.8,5.9,10.8,13.3v77.3
	c0,7.3-4.8,13.3-10.8,13.3h-25.3V223h35.8c10.7,0,19.6-9.6,21.3-22.2c0.2-1.1,0.3-2.2,0.3-3.4v-1l0,0V99.7l0,0v-1.4
	C-1463.7,96.6-1463.9,95.1-1464.3,93.6z"/>
<path class="st11" d="M-1665.2,247.3L-1665.2,247.3c-6,0-10.8-4.8-10.8-10.8v-134c0-6,4.8-10.8,10.8-10.8l0,0
	c6,0,10.8,4.8,10.8,10.8v134C-1654.4,242.4-1659.2,247.3-1665.2,247.3z"/>
<path class="st11" d="M-1615,247.3L-1615,247.3c-6,0-10.8-4.8-10.8-10.8v-134c0-6,4.8-10.8,10.8-10.8l0,0c6,0,10.8,4.8,10.8,10.8
	v134C-1604.2,242.4-1609,247.3-1615,247.3z"/>
<path class="st11" d="M-1565.9,244L-1565.9,244c-6,0-10.8-4.8-10.8-10.8v-134c0-6,4.8-10.8,10.8-10.8l0,0c6,0,10.8,4.8,10.8,10.8
	v134C-1555.1,239.2-1560,244-1565.9,244z"/>
<g>
	<circle class="st4" cx="1810.1" cy="829.2" r="4.7"/>
	<path class="st12" d="M1896.1,1011.4h-104.4c-11.7,0-21.2-9.5-21.2-21.2v-165c0-11.7,9.5-21.2,21.2-21.2h104.4
		c11.7,0,21.2,9.5,21.2,21.2v165C1917.2,1001.9,1907.8,1011.4,1896.1,1011.4z"/>
	
		<linearGradient id="SVGID_2_" gradientUnits="userSpaceOnUse" x1="1842.6658" y1="-558.5674" x2="1842.6658" y2="-730.7259" gradientTransform="matrix(1 0 0 -1 0 270.6651)">
		<stop  offset="0" style="stop-color:#FFCC4C"/>
		<stop  offset="1" style="stop-color:#FEBF4B"/>
	</linearGradient>
	<path class="st13" d="M1883.4,1002H1802c-11.7,0-21.2-9.5-21.2-21.2V850.4c0-11.7,9.5-21.2,21.2-21.2h81.4
		c11.7,0,21.2,9.5,21.2,21.2v130.4C1904.6,992.5,1895.1,1002,1883.4,1002z"/>
	
		<ellipse transform="matrix(0.2298 -0.9732 0.9732 0.2298 583.7888 2386.7141)" class="st9" cx="1799.8" cy="824.5" rx="25.3" ry="25.3"/>
	<circle class="st9" cx="1827.2" cy="817.1" r="17.9"/>
	<circle class="st9" cx="1854.1" cy="824.7" r="17.9"/>
	<circle class="st9" cx="1892.1" cy="821" r="21.6"/>
	<circle class="st10" cx="1854.1" cy="817.7" r="17.9"/>
	<circle class="st10" cx="1870.5" cy="810.1" r="9"/>
	<path class="st10" d="M1809.3,810.1c0-1.1,0.1-2.2,0.3-3.3h-32.7c-1.5,3.3-2.4,6.9-2.4,10.7c0,14,11.3,25.3,25.3,25.3
		c10.4,0,19.4-6.3,23.3-15.3C1815.2,825.7,1809.3,818.6,1809.3,810.1z"/>
	<path class="st10" d="M1825.2,817.5c0,3.6-0.7,7-2.1,10c1.3,0.3,2.7,0.5,4.1,0.5c9.9,0,17.9-8,17.9-17.9c0-1.1-0.1-2.2-0.3-3.3
		h-22.1C1824.3,810,1825.2,813.7,1825.2,817.5z"/>
	<path class="st10" d="M1822.8,806.8h-13.2c-0.2,1.1-0.3,2.2-0.3,3.3c0,8.5,5.9,15.6,13.8,17.5c1.3-3.1,2.1-6.5,2.1-10
		C1825.2,813.7,1824.3,810,1822.8,806.8z"/>
	<path class="st10" d="M1912.5,806.8h-40.8c-0.8,2.3-1.3,4.7-1.3,7.3c0,12,9.7,21.6,21.6,21.6s21.6-9.7,21.6-21.6
		C1913.7,811.5,1913.3,809,1912.5,806.8z"/>
	<path class="st10" d="M1916,810.9c0,0,0-0.1-0.1-0.2C1915.9,810.8,1915.9,810.8,1916,810.9L1916,810.9z"/>
	<path class="st10" d="M1912.5,806.8h-89.7c-1.8-3.8-4.5-7.2-7.9-9.7c-2.7,2.5-4.6,5.9-5.3,9.7h-32.7c0.4-0.9,0.9-1.7,1.4-2.5
		c3.2-3.5,9.8-9.4,17.5-9.4h42.5c0,0,5.1,0,12.3,0h42.5c10.2,0,18.3,10.3,19.4,11.8C1912.5,806.6,1912.5,806.7,1912.5,806.8z"/>
	<path class="st10" d="M1809.6,806.8h13.2c-1.8-3.8-4.5-7.2-7.9-9.7C1812.2,799.6,1810.3,803,1809.6,806.8z"/>
	<path class="st12" d="M1960.9,860.8c-1.7-9-8.3-15.7-16.1-15.7h-27.5v17.3h19.4c4.6,0,8.3,4.6,8.3,10.2V932
		c0,5.6-3.7,10.2-8.3,10.2h-19.4v17.9h27.5c8.2,0,15.1-7.4,16.4-17c0.1-0.8,0.2-1.7,0.2-2.6v-0.8l0,0v-74.2l0,0v-1.1
		C1961.3,863.1,1961.2,861.9,1960.9,860.8z"/>
	<path class="st14" d="M1806.6,978.8L1806.6,978.8c-4.6,0-8.3-3.7-8.3-8.3V867.6c0-4.6,3.7-8.3,8.3-8.3l0,0c4.6,0,8.3,3.7,8.3,8.3
		v102.9C1814.9,975.1,1811.2,978.8,1806.6,978.8z"/>
	<path class="st14" d="M1845.1,978.8L1845.1,978.8c-4.6,0-8.3-3.7-8.3-8.3V867.6c0-4.6,3.7-8.3,8.3-8.3l0,0c4.6,0,8.3,3.7,8.3,8.3
		v102.9C1853.4,975.1,1849.7,978.8,1845.1,978.8z"/>
	<path class="st14" d="M1882.8,976.3L1882.8,976.3c-4.6,0-8.3-3.7-8.3-8.3V865.1c0-4.6,3.7-8.3,8.3-8.3l0,0c4.6,0,8.3,3.7,8.3,8.3
		V968C1891.1,972.6,1887.4,976.3,1882.8,976.3z"/>
</g>
<path class="st15" d="M-983.2,677.6v-32.9l5.8,5.8c9.5,9.5,25,9.5,34.5,0s9.5-25,0-34.5l-45-45l-2.9-2.9c-4.5-4.5-10.2-6.8-16.1-7.1
	c-0.2,0-0.5,0-0.8,0c-0.1,0-0.2,0-0.2,0c-0.1,0-0.1,0-0.2,0s-0.1,0-0.2,0c-6.3-0.1-12.7,2.3-17.5,7.2l-47.9,47.9
	c-9.5,9.5-9.5,25,0,34.5s25,9.5,34.5,0l7.1-7.1l0.6,33.7c-34.6,10-59.9,41.9-59.9,79.8c0,45.9,37.2,83.1,83.1,83.1
	s83.1-37.2,83.1-83.1C-925.2,719.7-949.5,688.3-983.2,677.6z M-1008.2,792.1c-19.4,0-35.2-15.8-35.2-35.2s15.8-35.2,35.2-35.2
	c19.4,0,35.2,15.8,35.2,35.2S-988.8,792.1-1008.2,792.1z"/>
<path class="st16" d="M-697.1,719.3c32.4-32.4,32.4-85.1,0-117.5s-85.1-32.4-117.5,0s-32.4,85.1,0,117.5
	c10.6,10.6,23.3,17.7,36.8,21.4v25.9h-9.6c-12.1,0-21.9,9.8-21.9,21.9l0,0c0,12.1,9.8,21.9,21.9,21.9h9.6v9.6
	c0,12.1,9.8,21.9,21.9,21.9l0,0c12.1,0,21.9-9.8,21.9-21.9v-9.6h9.6c12.1,0,21.9-9.8,21.9-21.9l0,0c0-12.1-9.8-21.9-21.9-21.9h-9.6
	v-25.9C-720.5,737-707.7,729.8-697.1,719.3z M-780.8,635.6c13.8-13.8,36-13.8,49.8,0s13.8,36,0,49.8s-36,13.8-49.8,0
	C-794.5,671.7-794.5,649.4-780.8,635.6z"/>
<rect x="-905.7" y="497.3" class="st17" width="578.1" height="600.5"/>
<path class="st4" d="M-755.8,675.2l-59.5,59.5c-6.3,6.3-16.4,6.3-22.7,0l0,0c-6.3-6.3-6.3-16.4,0-22.7l59.5-59.5
	c6.3-6.3,16.4-6.3,22.7,0l0,0C-749.5,658.8-749.5,668.9-755.8,675.2z"/>
<path class="st4" d="M-719,734.7l-59.5-59.5c-6.3-6.3-6.3-16.4,0-22.7l0,0c6.3-6.3,16.4-6.3,22.7,0l59.5,59.5
	c6.3,6.3,6.3,16.4,0,22.7l0,0C-702.6,740.9-712.7,740.9-719,734.7z"/>
<path class="st4" d="M-747.3,685.8V761c0,11.9-9.6,21.5-21.5,21.5l0,0c-11.9,0-21.5-9.6-21.5-21.5v-75.2c0-11.9,9.6-21.5,21.5-21.5
	l0,0C-756.9,664.3-747.3,674-747.3,685.8z"/>
<path class="st4" d="M-767.1,761.4c-52.3,0-94.6,42.4-94.6,94.6s42.4,94.6,94.6,94.6s94.6-42.4,94.6-94.6S-714.9,761.4-767.1,761.4z
	 M-767.1,914.2c-32.1,0-58.2-26-58.2-58.2c0-32.1,26-58.2,58.2-58.2s58.2,26,58.2,58.2C-709,888.1-735,914.2-767.1,914.2z"/>
<path class="st4" d="M-526.4,929.1V827.7c0-11.9,9.6-21.5,21.5-21.5l0,0c11.9,0,21.5,9.6,21.5,21.5v101.4c0,11.9-9.6,21.5-21.5,21.5
	l0,0C-516.8,950.6-526.4,941-526.4,929.1z"/>
<path class="st4" d="M-465.1,908.3h-79.7c-11.9,0-21.5-9.6-21.5-21.5l0,0c0-11.9,9.6-21.5,21.5-21.5h79.7c11.9,0,21.5,9.6,21.5,21.5
	l0,0C-443.6,898.7-453.2,908.3-465.1,908.3z"/>
<path class="st4" d="M-506.6,827.4c52.3,0,94.6-42.4,94.6-94.6s-42.4-94.6-94.6-94.6s-94.6,42.4-94.6,94.6S-558.8,827.4-506.6,827.4
	z M-506.6,674.6c32.1,0,58.2,26,58.2,58.2c0,32.1-26,58.2-58.2,58.2s-58.2-26-58.2-58.2C-564.7,700.6-538.7,674.6-506.6,674.6z"/>
<rect x="-1420.3" y="497.3" class="st18" width="508.9" height="434.6"/>
<path class="st4" d="M-1141.3,674.6l-59.5,59.5c-6.3,6.3-16.4,6.3-22.7,0l0,0c-6.3-6.3-6.3-16.4,0-22.7l59.5-59.5
	c6.3-6.3,16.4-6.3,22.7,0l0,0C-1135.1,658.2-1135.1,668.3-1141.3,674.6z"/>
<path class="st4" d="M-1104.5,734.1l-59.5-59.5c-6.3-6.3-6.3-16.4,0-22.7l0,0c6.3-6.3,16.4-6.3,22.7,0l59.5,59.5
	c6.3,6.3,6.3,16.4,0,22.7l0,0C-1088.1,740.3-1098.3,740.3-1104.5,734.1z"/>
<path class="st4" d="M-1135.1,682.9v79.8c0,10.6-8.6,19.2-19.2,19.2l0,0c-10.6,0-19.2-8.6-19.2-19.2v-79.8
	c0-10.6,8.6-19.2,19.2-19.2l0,0C-1143.7,663.7-1135.1,672.3-1135.1,682.9z"/>
<path class="st19" d="M-1270.9-350.4c-18,0-34.3,7.5-45.7,19.5v83.2c11.4,12,27.6,19.5,45.7,19.5c34.4,0,62.4-27.4,62.4-61.1
	C-1208.6-323.1-1236.5-350.4-1270.9-350.4z"/>
<path class="st19" d="M-732.5-321.6c-8-8.2-19.5-13.4-32.2-13.4c-24.1,0-43.7,18.4-43.7,41.1s19.6,41.1,43.7,41.1
	c12.8,0,24.3-5.2,32.2-13.4V-321.6z"/>
<ellipse class="st19" cx="-1188.7" cy="-302.4" rx="28" ry="27.5"/>
<ellipse class="st19" cx="-1113.6" cy="-295" rx="54.2" ry="53.1"/>
<ellipse class="st19" cx="-1034.4" cy="-299.7" rx="35.9" ry="35.2"/>
<ellipse class="st19" cx="-969.2" cy="-315.6" rx="33.6" ry="32.9"/>
<ellipse class="st19" cx="-935" cy="-292.2" rx="38.4" ry="37.6"/>
<ellipse class="st19" cx="-872.3" cy="-300.8" rx="38" ry="37.3"/>
<ellipse class="st19" cx="-823.1" cy="-312.2" rx="23.2" ry="22.7"/>
<path class="st19" d="M-732.5-296.8h-583.1c2.2-15.3,1.6-11,3.5-24.2l0,0c0-13.3,12.2-24.2,27.2-24.2h521.7
	c15,0,27.2,10.8,27.2,24.2l0,0C-734.8-308.9-734.8-309.2-732.5-296.8z"/>
<circle class="st20" cx="-1188.7" cy="-314.6" r="28"/>
<circle class="st20" cx="-1113.6" cy="-307" r="54.2"/>
<circle class="st20" cx="-1034.4" cy="-311.9" r="35.9"/>
<circle class="st20" cx="-969.2" cy="-328.1" r="33.6"/>
<circle class="st20" cx="-935" cy="-304.2" r="38.4"/>
<circle class="st20" cx="-872.3" cy="-313" r="38"/>
<circle class="st20" cx="-823.1" cy="-324.6" r="23.2"/>
<rect x="-1316.4" y="-368.1" class="st20" width="583.9" height="61.1"/>
<path class="st20" d="M-732.5-334.8c-8-8.4-19.5-13.7-32.2-13.7c-24.1,0-43.7,18.8-43.7,41.9c0,23.2,19.6,41.9,43.7,41.9
	c12.8,0,24.3-5.3,32.2-13.7V-334.8z"/>
<path class="st20" d="M-1270.9-365.5c-18,0-34.3,7.7-45.7,19.9v84.9c11.4,12.2,27.6,19.9,45.7,19.9c34.4,0,62.4-27.9,62.4-62.4
	C-1208.6-337.5-1236.5-365.5-1270.9-365.5z"/>
<image style="display:none;overflow:visible;enable-background:new    ;" width="2056" height="494" xlink:href="4A359D74FE430B22.png"  transform="matrix(0.5771 0 0 0.5771 -1609.5621 -167.2868)">
</image>
<path class="st7" d="M-1753,258.3c1.4,1.9,2.6,3.6,3.7,5.2c6,8.5,2.2,20.3-7.8,23.9c-8.4,3-21.4,5.2-41.4,4.8
	c-20.1,0.4-33.1-1.8-41.5-4.8c-10-3.5-13.8-15.4-7.8-23.9c1.1-1.6,2.3-3.3,3.7-5.2c8.4-11.5,11-58.3,7.8-119.2
	c-2.6-49.2-25.6-180.6-34.4-229.4c-1.7-9.7,5.9-18.6,16-18.6h112.2c10.1,0,17.8,8.9,16,18.6c-8.8,48.8-31.8,180.2-34.4,229.4
	C-1764,200.1-1761.4,246.9-1753,258.3z"/>
<g>
	
		<linearGradient id="SVGID_3_" gradientUnits="userSpaceOnUse" x1="-1798.5078" y1="332.1988" x2="-1798.5078" y2="29.6353" gradientTransform="matrix(1 0 0 -1 0 270.6651)">
		<stop  offset="0" style="stop-color:#FFCC4C"/>
		<stop  offset="1" style="stop-color:#FEBF4B"/>
	</linearGradient>
	<path class="st21" d="M-1769.4,128.3c2-38,19.8-139.3,26.5-177c1.3-7.5-4.6-14.3-12.4-14.3h-86.5c-7.8,0-13.7,6.8-12.4,14.3
		c6.8,37.6,24.5,139,26.5,177c0.9,16.3,1.2,79.1,1,92c-0.2,15.3,11.4,19.1,26.6,19.9c0.5,0,1,0,1.5,0s1,0,1.5,0
		c15.2-0.8,26.9-4.6,26.6-19.9C-1770.5,207.3-1770.2,144.5-1769.4,128.3z"/>
</g>
<circle class="st14" cx="-1763.6" cy="-41" r="6.1"/>
<ellipse transform="matrix(0.1256 -0.9921 0.9921 0.1256 -1588.7576 -1728.6638)" class="st14" cx="-1775" cy="37" rx="53" ry="6.1"/>
<g>
	<path class="st7" d="M-2187.4,277.3c0.8,2.1,0.1,4-1.5,5.5c-3.6,3.2-9.4,4.2-14,5c-11.5,1.9-23.2,2-34.8,1.9
		c-11.6,0.1-23.4,0-34.8-1.9c-4.6-0.8-10.4-1.7-14-5c-1.6-1.5-2.3-3.4-1.5-5.5c0.8-2,2.5-3.5,4.7-3.8c1.3-0.2,2.6-0.3,4-0.5
		c5.2-0.9,10.2-2.7,15-4.9c13.4-6,22-13.8,22-13.8s0.8-103,0.8-121.9s-38.2-28.4-54-46.5c-16-18.2,18.3-106.6,18.3-106.6h78.9
		c0,0,36.7,86.7,20.9,104.8c-15.8,18.2-56.4,29.3-56.4,48.2s0.8,121.9,0.8,121.9s8.5,7.8,22,13.8c4.8,2.1,9.8,3.9,15,4.9
		c1.3,0.2,2.6,0.3,4,0.5C-2189.9,273.7-2188.2,275.3-2187.4,277.3z"/>
	
		<linearGradient id="SVGID_4_" gradientUnits="userSpaceOnUse" x1="-2236.6843" y1="270.1608" x2="-2236.6843" y2="159.952" gradientTransform="matrix(1 0 0 -1 0 270.6651)">
		<stop  offset="0" style="stop-color:#FFCC4C"/>
		<stop  offset="1" style="stop-color:#FEBF4B"/>
	</linearGradient>
	<path class="st22" d="M-2194.1,87.1l-37.7,21.8c-3,1.7-6.8,1.7-9.8,0l-37.7-21.8c-0.3-0.2-0.6-0.3-0.8-0.4
		c-2.2-1-15.2-8.3-5.3-39.8l9.8-38.6c1.1-4.3,5-7.4,9.5-7.4h58.8c4.5,0,8.4,3,9.5,7.4l9.9,38.6c9.9,31.5-3.1,38.8-5.3,39.8
		C-2193.5,86.8-2193.8,87-2194.1,87.1z"/>
	<circle class="st14" cx="-2208.5" cy="23.2" r="6.1"/>
	<ellipse class="st14" cx="-2208.5" cy="56.2" rx="6.1" ry="17"/>
</g>
<text transform="matrix(1 0 0 1 -1345.444 23.2398)" style="font-family:'MyriadPro-Regular'; font-size:72px;">Beer</text>
<image style="display:none;overflow:visible;enable-background:new    ;" width="2056" height="986" xlink:href="4A359D74FE430B26.png"  transform="matrix(0.5 0 0 0.5 -1419.1698 1327.6719)">
</image>
<image style="display:none;overflow:visible;enable-background:new    ;" width="2114" height="968" xlink:href="4A359D74FE430B21.png"  transform="matrix(0.5 0 0 0.5 -1468.8298 1206.0934)">
</image>
<image style="display:none;overflow:visible;enable-background:new    ;" width="2114" height="968" xlink:href="4A359D74FE430B23.png"  transform="matrix(0.5 0 0 0.5 -1631.6847 1156.6052)">
</image>
<text transform="matrix(1 0 0 1 114.2035 -158.013)" style="font-family:'MyriadPro-Regular'; font-size:72px;">Cocktail</text>
<image style="display:none;overflow:visible;enable-background:new    ;" width="2056" height="986" xlink:href="4A359D74FE430B20.png"  transform="matrix(0.5 0 0 0.5 -82.681 -382.8962)">
</image>
<image style="display:none;overflow:visible;enable-background:new    ;" width="2114" height="968" xlink:href="4A359D74FE430B2E.png"  transform="matrix(0.5 0 0 0.5 -132.341 -504.4748)">
</image>
<image style="display:none;overflow:visible;enable-background:new    ;" width="2114" height="968" xlink:href="4A359D74FE430B25.png"  transform="matrix(0.5 0 0 0.5 -295.1958 -553.9629)">
</image>
<path class="st7" d="M1062.7-642l-5,253.9c-0.1,5.5-3.8,10.2-9.1,11.7c-7.7,2.2-21.6,4.6-45.8,5c-24.2-0.3-38-2.7-45.8-5
	c-5.3-1.5-8.9-6.2-9.1-11.7l-5-253.9c-0.1-7,5.5-12.7,12.4-12.7h94.7C1057.2-654.7,1062.8-648.9,1062.7-642z"/>
<linearGradient id="SVGID_5_" gradientUnits="userSpaceOnUse" x1="1002.8112" y1="-631.174" x2="1002.8112" y2="-395.7367">
	<stop  offset="0" style="stop-color:#14AFAB"/>
	<stop  offset="1" style="stop-color:#227893"/>
</linearGradient>
<path class="st24" d="M1052.1-619.1l-4.1,208.7c-0.1,4.5-3.1,8.4-7.5,9.6c-6.3,1.8-17.8,3.8-37.7,4.1c-19.9-0.2-31.2-2.2-37.7-4.1
	c-4.4-1.2-7.3-5.1-7.5-9.6l-4.1-208.7c-0.1-5.8,4.5-10.4,10.2-10.4h77.9C1047.5-629.5,1052.1-624.7,1052.1-619.1z"/>
<path class="st7" d="M1155.6-373.2c-59.6,0.5-52.6-4.3-34.3-14.3c16.8-9.2,12.4-29.6,11.5-32.8c-0.1-0.3-0.1-0.7-0.2-1l-22.3-295.3
	c-0.3-3.5,2.5-6.6,6.1-6.6h78.3c3.6,0,6.4,3,6.1,6.6l-22.3,295.3c0,0.3-0.1,0.7-0.2,1c-0.8,3.3-5.3,23.7,11.5,32.8
	C1208.1-377.5,1215.2-372.7,1155.6-373.2z"/>
<image style="display:none;overflow:visible;enable-background:new    ;" width="2056" height="986" xlink:href="4A359D74FE430B27.png"  transform="matrix(0.5 0 0 0.5 -82.681 485.7819)">
</image>
<image style="display:none;overflow:visible;enable-background:new    ;" width="2114" height="968" xlink:href="4A359D74FE430B24.png"  transform="matrix(0.5 0 0 0.5 -132.341 364.2035)">
</image>
<image style="display:none;overflow:visible;enable-background:new    ;" width="2114" height="968" xlink:href="B9BFC1E8BFB09C35.png"  transform="matrix(0.5 0 0 0.5 -295.1958 314.7152)">
</image>
<text transform="matrix(1 0 0 1 114.2042 714.6427)" style="font-family:'MyriadPro-Regular'; font-size:72px;">Lhao</text>
<path class="st12" d="M120.3,987.4c-23.7,31.1-43,36.1-53.2,41.7c-10.2,5.6-16.2,26.8,3.2,30.9c19.4,4.2,27.9,6.7,27.9,6.7
	s35.7,18.2-50,18.2c-86.4,0-50-18.2-50-18.2s8.4-2.5,27.8-6.7c19.4-4.1,13.4-25.4,3.2-30.9c-10.2-5.6-29.4-10.5-53.2-41.7
	C-47.7,956.3,0.6,865.3,0.6,865.3h95C95.7,865.3,144,956.2,120.3,987.4z"/>
<path class="st25" d="M200,1084.9c-66.8-0.8-42.6-10.7-26.2-11.9c16.4-1.2,21.7-15.2,21.7-15.2s-0.8-91.8,0-107.3
	c0.8-15.6-11.7-23.3-11.7-23.3c-30.1-32-16.2-104.1-16.2-104.1h64.7c0,0,13.9,72.1-16.2,104.1c0,0-12.5,7.8-11.7,23.3
	c0.8,15.6,0,107.3,0,107.3s5.3,13.9,21.7,15.2C242.6,1074.3,266.8,1084.1,200,1084.9z"/>
<path class="st12" d="M309.9,1084.9c-39.6,0-30.4-5.9-23.1-9.4c7-3.4,15.4-9.1,15.4-9.1l1.3-28.9c0.9-20.1-4.1-22.3-8.8-29.2
	c-4.7-6.9-5.6-11.3-10-27.3s-1.9-68.1-1.9-68.1h54.4c0,0,2.5,52.1-1.9,68.1s-5.3,20.4-10,27.3c-4.7,6.9-9.7,9.1-8.8,29.2l1.3,28.9
	c0,0,8.4,5.7,15.4,9.1C340.3,1079,349.5,1084.9,309.9,1084.9z"/>
<path class="st12" d="M447.7,963.9c4.1,0,7.4,3.4,7.2,7.5l-3.8,95.7c0,0-0.9,17.9-13.2,17.9c-17.1,0-28.7,0-28.7,0s-11.6,0-28.7,0
	c-12.3,0-13.2-17.9-13.2-17.9l-3.8-95.7c-0.2-4.1,3.1-7.5,7.2-7.5L447.7,963.9L447.7,963.9z"/>
<ellipse class="st14" cx="378.2" cy="1024.4" rx="2.7" ry="39.4"/>
<ellipse class="st14" cx="388.3" cy="1024.4" rx="2.7" ry="39.4"/>
<ellipse class="st14" cx="405.3" cy="1024.4" rx="2.7" ry="39.4"/>
<ellipse class="st14" cx="415.7" cy="1024.4" rx="2.7" ry="39.4"/>
<ellipse class="st14" cx="432.9" cy="1024.4" rx="2.7" ry="39.4"/>
<ellipse class="st14" cx="441.1" cy="1024.4" rx="2.7" ry="39.4"/>
<path class="st14" d="M384.4,1071.1c-0.7,0-1.3,4.6-1.7,12.3h3.5C385.7,1075.7,385.1,1071.1,384.4,1071.1z"/>
<path class="st14" d="M410.6,1069.4c-0.7,0-1.4,5.3-1.8,13.9h3.7C412,1074.7,411.3,1069.4,410.6,1069.4z"/>
<path class="st14" d="M436.8,1071.1c-0.7,0-1.3,4.6-1.7,12.3h3.5C438,1075.7,437.4,1071.1,436.8,1071.1z"/>
<image style="display:none;overflow:visible;enable-background:new    ;" width="2056" height="986" xlink:href="B9BFC1E8BFB09C4B.png"  transform="matrix(0.5 0 0 0.5 1265.4948 485.7819)">
</image>
<image style="display:none;overflow:visible;enable-background:new    ;" width="2114" height="968" xlink:href="B9BFC1E8BFB09C4D.png"  transform="matrix(0.5 0 0 0.5 1215.8346 364.2035)">
</image>
<image style="display:none;overflow:visible;enable-background:new    ;" width="2114" height="968" xlink:href="B9BFC1E8BFB09C4F.png"  transform="matrix(0.5 0 0 0.5 1052.9799 314.7152)">
</image>
<image style="display:none;overflow:visible;enable-background:new    ;" width="2056" height="986" xlink:href="B9BFC1E8BFB09C4C.png"  transform="matrix(0.5 0 0 0.5 1265.4948 -382.8962)">
</image>
<image style="display:none;overflow:visible;enable-background:new    ;" width="2114" height="968" xlink:href="B9BFC1E8BFB09C54.png"  transform="matrix(0.5 0 0 0.5 1215.8346 -504.4748)">
</image>
<image style="display:none;overflow:visible;enable-background:new    ;" width="2114" height="968" xlink:href="B9BFC1E8BFB09C55.png"  transform="matrix(0.5 0 0 0.5 1052.9799 -553.9629)">
</image>
<text transform="matrix(1 0 0 1 1368.6564 -158.0133)" style="font-family:'MyriadPro-Regular'; font-size:72px;">Wine</text>
<path class="st12" d="M1316.1,281.6c-103.5-0.2-51.2-11.8-48-12.5c0.1,0,0.2,0,0.3-0.1c1.8-0.5,17.6-5.2,22.9-8.2
	c5.5-3.2,14.6-18.7,14.8-25.7c0.2-6.3-4-21.5-5-25.2c-0.2-0.5-0.4-1-0.7-1.5c-7.5-11-1.3-17.9,3.1-24.8c4.5-7,2-23.6-1.9-30
	c-3.8-6.4-13.9-31.9-17.7-51c-3.1-15.9-27.1-81.2-35-102.7c-1.2-3.3,1.2-6.9,4.8-6.9l126.2,0.3c3.6,0,6,3.6,4.8,6.9
	c-8.1,21.4-32.3,86.6-35.5,102.5c-3.9,19.1-14.1,44.6-18,50.9c-3.8,6.4-6.4,22.9-2,30c4.4,6.9,10.5,13.9,3,24.8
	c-0.3,0.5-0.6,0.9-0.7,1.5c-1,3.6-5.3,18.9-5.1,25.2c0.2,7,9.2,22.6,14.7,25.8c5.2,3.1,21.1,7.8,22.8,8.3c0.1,0,0.2,0.1,0.3,0.1
	C1367.3,270,1419.6,281.9,1316.1,281.6z"/>
<path class="st12" d="M1464.7,156.4v101.1c0,0,16.4,7.2,26.1,10.7c8.8,3.2,30.8,14.5-32.3,14.5s-41.1-11.3-32.3-14.5
	c9.7-3.5,26-10.7,26-10.7V156.4c0,0-3.9-2.4-12.9-8.9c-10.2-7.4-27.4-26.8-33.9-48.7c-6.6-21.9,9.9-105.6,9.9-105.6h86.5
	c0,0,16.4,83.8,9.9,105.6c-6.6,21.9-23.7,41.3-33.9,48.7C1468.6,154,1464.7,156.4,1464.7,156.4z"/>
<path class="st12" d="M1609.9,132.8c0,6.3-0.4,117.8-0.4,117.8l25.6,14.7c0,0,44.2,16.3-32.6,16.3s-32.6-16.3-32.6-16.3l25.6-14.7
	c0,0-0.4-111.5-0.4-117.8s-3.1-8-8.5-11.4s-25-14.8-35.1-32.4s12.4-95.9,12.4-95.9h77.3c0,0,22.5,78.4,12.4,95.9
	c-10.1,17.6-29.7,29-35.1,32.4C1613,124.8,1609.9,126.5,1609.9,132.8z"/>
<path class="st12" d="M1750.5,173.5c0,4.6,0,69.5,0,69.5s15.3,22.4,24.2,23s44.4,15.5-32.5,15.5c-76.9,0-41.4-14.9-32.5-15.5
	s24.2-23,24.2-23s0-65,0-69.5c0-4.6-3.6-7.7-3.6-7.7c-1.6-16.3-19.1-29.2-43.9-55.9c-24.7-26.7,8-99.8,8-99.8h95.7
	c0,0,32.7,73.1,8,99.8c-24.7,26.7-42.3,39.6-43.9,55.9C1754.1,165.8,1750.5,168.9,1750.5,173.5z"/>
<path class="st26" d="M-637.8,1541.4H-756c-10.7,0-19.4-8.7-19.4-19.4v-118.2c0-10.7,8.7-19.4,19.4-19.4h118.2
	c10.7,0,19.4,8.7,19.4,19.4V1522C-618.4,1532.7-627.1,1541.4-637.8,1541.4z"/>
<path class="st4" d="M-775.3,1435.9v86.2c0,10.7,8.7,19.4,19.4,19.4h118.2c10.7,0,19.4-8.7,19.4-19.4v-86.2H-775.3z"/>
<text transform="matrix(1 0 0 1 -720.666 1418.0338)" class="st4" style="font-family:'Cloud-Bold'; font-size:26px;">DAY</text>
<g>
	<path class="st12" d="M2196.3,854.2c0,6.3-0.4,117.8-0.4,117.8l25.6,14.7c0,0,44.2,16.3-32.6,16.3c-65.3,0-24.6-16.3-24.6-16.3
		l25.6-14.7c0,0-0.4-111.5-0.4-117.8s-3.1-8-8.5-11.4s-25-14.8-35.1-32.4c-10.1-17.6,12.4-95.9,12.4-95.9h69.3
		c0,0,22.5,78.4,12.4,95.9c-10.1,17.6-29.7,29-35.1,32.4C2199.4,846.1,2196.3,847.9,2196.3,854.2z"/>
	
		<linearGradient id="SVGID_6_" gradientUnits="userSpaceOnUse" x1="2231.0168" y1="-514.1881" x2="2230.5559" y2="-522.9536" gradientTransform="matrix(1 0 0 -1 0 270.6651)">
		<stop  offset="0" style="stop-color:#AE4F6F"/>
		<stop  offset="1" style="stop-color:#6C365E"/>
	</linearGradient>
	<path class="st27" d="M2229.2,789.8c-0.3-1.5,0.2-3,1.3-4.1c0.2-0.2,0.4-0.4,0.7-0.4c0.7-0.1,1.3,0.6,1.4,1.3
		c0.3,1.4-0.7,3-2.2,3.4c-0.5,0.1-1.1,0-1.3-0.4"/>
	
		<linearGradient id="SVGID_7_" gradientUnits="userSpaceOnUse" x1="2192.8398" y1="-516.4522" x2="2192.8398" y2="-568.9294" gradientTransform="matrix(1 0 0 -1 0 270.6651)">
		<stop  offset="0" style="stop-color:#AE4F6F"/>
		<stop  offset="1" style="stop-color:#6C365E"/>
	</linearGradient>
	<path class="st28" d="M2234.9,803.3c-0.7,0.1-1.3,0.5-2,0.8s-1.6,0.4-2.3,0.2c-0.1,0-0.2,0-0.3-0.1c-0.1-0.1-0.1-0.1-0.1-0.2
		c0-0.1,0-0.1,0-0.2c0-1.9,0.2-4.1-2.1-5.3c-0.7-0.3-1.4-0.5-2.1-0.5c-2.4,0-4.4,1.4-6.5,2.5c-3.5,1.9-7.3,3-11.2,3.5h-13.2
		c-4.4-0.5-8.7-1.3-13-2.2c-1.8-0.4-3.7-0.8-5.1-1.9c-1.1-0.9-1.9-2.1-2.9-3.1s-2.5-1.8-3.9-1.3c-0.7,0.2-1.2,0.7-1.9,0.9
		c-1.1,0.3-2.2-0.1-3.2-0.5c-1.6-0.7-3.2-1.3-4.5-2.4c-2-1.6-3.7-4.1-6.6-3.4c-1.2,0.3-2.2,1.1-2.8,2.1c-6.3,9.8,5,20.6,11.6,26.7
		c5.5,5.1,11.6,9.3,18,13.2c0.9,0.5,1.7,1,2.4,1.5c7.6,5,9.3,5.8,11.6,5.8c2,0,6.1-3,10.1-5.8c0.7-0.5,1.5-1,2.4-1.5
		c0.5-0.3,1-0.6,1.5-0.9c5-3.1,9.8-6.5,14.3-10.4c2.9-2.6,5.7-5.3,8.2-8.3c1.3-1.6,2.5-3.2,3.6-4.9
		C2235.4,806.7,2238,803,2234.9,803.3z"/>
</g>
<g>
	<path class="st12" d="M1700.5,858.7c4.9,0,8.9,4.1,8.7,9l-4.6,115c0,0-1.1,21.5-15.8,21.5c-20.6,0-34.5,0-34.5,0s-13.9,0-34.5,0
		c-14.7,0-15.8-21.5-15.8-21.5l-4.6-115c-0.2-4.9,3.7-9,8.7-9H1700.5z"/>
	<path class="st29" d="M1620.4,908c-6.7,0-12.1,3.8-11.8,8.5l2.9,51.1c0,0,0.9,12.4,13.3,12.4c17.3,0,28.9,0,28.9,0s11.7,0,28.9,0
		c12.3,0,13.3-12.4,13.3-12.4l2.9-51.1c0.3-4.6-5.1-8.5-11.8-8.5H1620.4z"/>
	<path class="st30" d="M1636.7,928.6l-13.1-8.9c-2.6-1.8-3.3-5.4-1.5-8l8.9-13.1c1.8-2.6,5.4-3.3,8-1.5l13.1,8.9
		c2.6,1.8,3.3,5.4,1.5,8l-8.9,13.1C1642.9,929.7,1639.3,930.4,1636.7,928.6z"/>
	<path class="st30" d="M1679.3,916l-7,2.1c-2,0.6-4-0.5-4.6-2.5l-2.1-7c-0.6-2,0.5-4,2.5-4.6l7-2.1c2-0.6,4,0.5,4.6,2.5l2.1,7
		C1682.4,913.4,1681.3,915.4,1679.3,916z"/>
</g>
<path class="st7" d="M2063.7,987.4l-20.2-11.6c0,0,0.3-67.4,0.3-87.6l45.4-63h-96.1l45.3,62.8c0.1,20,0.3,87.7,0.3,87.7l-20.2,11.6
	c0,0-32.1,12.9,19.4,12.9C2098.6,1000.3,2063.7,987.4,2063.7,987.4z"/>
<linearGradient id="SVGID_8_" gradientUnits="userSpaceOnUse" x1="2041.1656" y1="-577.8674" x2="2041.1656" y2="-610.8209" gradientTransform="matrix(1 0 0 -1 0 270.6651)">
	<stop  offset="0" style="stop-color:#14AFAB"/>
	<stop  offset="1" style="stop-color:#227893"/>
</linearGradient>
<polygon class="st31" points="2065,848.5 2041.2,881.4 2017.4,848.5 "/>
<path class="st32" d="M2066.9,836.4c5.3-4.6,5.8-12.7,1.2-18c-4.6-5.3-12.7-5.8-18-1.2"/>
<polygon class="st33" points="2057.1,825.2 2049.7,825.2 2049.7,828.2 2059.8,828.2 "/>
<polygon class="st7" points="2062.7,831.6 2062.7,825.2 2057.1,825.2 2059.7,828.2 "/>
<g>
	<path class="st7" d="M-316.9,263.3l-32.3-18.6c0,0,0.5-107.9,0.5-140.3L-276,3.6h-153.9l72.5,100.6c0.2,32,0.5,140.4,0.5,140.4
		l-32.3,18.6c0,0-51.4,20.7,31.1,20.7C-261,283.9-316.9,263.3-316.9,263.3z"/>
	
		<linearGradient id="SVGID_9_" gradientUnits="userSpaceOnUse" x1="-352.9024" y1="229.7881" x2="-352.9024" y2="177.0236" gradientTransform="matrix(1 0 0 -1 0 270.6651)">
		<stop  offset="0" style="stop-color:#14AFAB"/>
		<stop  offset="1" style="stop-color:#227893"/>
	</linearGradient>
	<polygon class="st34" points="-314.8,40.9 -352.9,93.6 -391,40.9 	"/>
	<polygon class="st33" points="-327.3,3.6 -339.2,3.6 -339.2,8.4 -323.1,8.4 	"/>
	<g>
		<path class="st32" d="M-311.8,21.5c8.5-7.4,9.3-20.3,1.9-28.8c-7.4-8.5-20.3-9.3-28.8-1.9"/>
		<polygon class="st7" points="-318.5,13.8 -318.5,3.6 -327.4,3.6 -323.2,8.4 		"/>
	</g>
</g>
<path class="st35" d="M-2542.7,57.5c-0.6-0.8-2.8-5.7-5.3-10.7c-1.7-3.4-1.8-7.2-1.7-9.3c0-0.9,0.4-1.6,0.9-2.3
	c0.4-0.5,0.8-1.4,0.8-2.8c0-2.8-55.6-3.9-55.6-3.9s-55.6,1.1-55.6,3.9c0,1.4,0.4,2.3,0.8,2.8c0.5,0.7,0.9,1.5,0.9,2.3
	c0.1,2.1,0,5.9-1.7,9.3c-2.5,5-4.6,9.9-5.3,10.7c-0.6,0.8,0,15.1,0,18.7v151.9c0,1,0.4,1.9,1,2.7c1.1,1.2,3.1,3.1,5.7,4.7
	c2.4,1.4,4.1,2.7,5.1,3.5c0.7,0.6,1.3,1.4,1.4,2.3l0,0c0.1,0.5,0.3,0.9,0.5,1.3l1.1,1.7c0.7,1.1,1.8,1.7,3,1.8
	c7.4,0.6,33.5,2.5,42.9,2.5c9.8,0,35.6-1.9,42.9-2.5c1.2-0.1,2.4-0.8,3-1.8l1.1-1.7c0.3-0.4,0.4-0.9,0.5-1.3l0,0
	c0.2-0.9,0.7-1.8,1.4-2.3c1-0.8,2.7-2,5.1-3.5c2.6-1.6,4.6-3.5,5.7-4.7c0.7-0.7,1-1.7,1-2.7v-152
	C-2542.7,72.6-2542.1,58.3-2542.7,57.5z"/>
<path class="st36" d="M-2647.4,239.2c0,0,50.3,5.5,87.7,0"/>
<rect x="-2656.3" y="127.1" class="st37" width="105.5" height="26.5"/>
<path class="st36" d="M-2652.9,35.1c0,0,40.7,4.1,98.6,0"/>
<path class="st37" d="M-2635.3,153.6h63.5c-3.5,24-16.4,41.8-31.7,41.8C-2618.8,195.4-2631.8,177.6-2635.3,153.6z"/>
<path class="st37" d="M-2571.9,127.1h-63.5c3.5-24,16.4-41.8,31.7-41.8C-2588.2,85.3-2575.4,103.1-2571.9,127.1z"/>
<path d="M-1125,1743.4h-23.1v-106c0-6.4,5.2-11.6,11.6-11.6l0,0c6.4,0,11.6,5.2,11.6,11.6L-1125,1743.4L-1125,1743.4z"/>
<path d="M-1032.5,1755L-1032.5,1755c0,6.4-5.2,11.6-11.6,11.6h-307c-6.4,0-11.6-5.2-11.6-11.6l0,0c0-6.4,5.2-11.6,11.6-11.6h307.1
	C-1037.7,1743.4-1032.5,1748.6-1032.5,1755z"/>
<path d="M-507.4,1949.6L-507.4,1949.6c0,6.4-5.2,11.6-11.6,11.6h-307.1c-6.4,0-11.6-5.2-11.6-11.6l0,0c0-6.4,5.2-11.6,11.6-11.6
	H-519C-512.6,1938-507.4,1943.2-507.4,1949.6z"/>
<path d="M-1096.5,1639.4L-1096.5,1639.4c-4.5,4.5-11.8,4.5-16.3,0l-99.2-99.2c-4.5-4.5-4.5-11.8,0-16.3l0,0c4.5-4.5,11.8-4.5,16.3,0
	l99.2,99.2C-1092,1627.6-1092,1634.9-1096.5,1639.4z"/>
<path d="M-1312.4,1639.4L-1312.4,1639.4c4.5,4.5,11.8,4.5,16.3,0l99.2-99.2c4.5-4.5,4.5-11.8,0-16.3l0,0c-4.5-4.5-11.8-4.5-16.3,0
	l-99.2,99.2C-1316.9,1627.6-1316.9,1634.9-1312.4,1639.4z"/>
<path d="M-1261,1743.4h-23.1v-106c0-6.4,5.2-11.6,11.6-11.6l0,0c6.4,0,11.6,5.2,11.6,11.6L-1261,1743.4L-1261,1743.4z"/>
<path d="M-1200.3,1743.4h-43.1V1691c0-11.9,9.7-21.6,21.6-21.6l0,0c11.9,0,21.6,9.7,21.6,21.6L-1200.3,1743.4L-1200.3,1743.4z"/>
<path d="M-614.3,1814.3h-109.4c-4.3,0-7.9,3.5-7.9,7.9l0,0c0,13.9-11.3,25.2-25.2,25.2l0,0c-10.3,0-18.6,8.3-18.6,18.6v33.7h196.6
	c13.8,0,24.9-11.2,24.9-24.9l0,0C-553.8,1841.4-580.9,1814.3-614.3,1814.3z"/>
<path d="M-576.4,1836.6h-38.5c-8.7,0-15.8-7.1-15.8-15.8v-38.5c0-8.7,7.1-15.8,15.8-15.8h38.5c8.7,0,15.8,7.1,15.8,15.8v38.5
	C-560.6,1829.6-567.7,1836.6-576.4,1836.6z"/>
<g>
	<path class="st7" d="M176.3,65.9c-12.3,13.9-52.3,27.8-58,37.6c0,0-0.4,8.6-9.1,9.1c0,0-4.5,3.2-4.5,13.2s-4.3,112,0,116.3
		s36.7,14.1,42.2,15.9s38.8,25-54,25s-59.4-23.2-54-25c5.5-1.8,37.9-11.6,42.2-15.9s0-106.3,0-116.3s-4.6-13.2-4.6-13.2
		c-8.6-0.5-9.1-9.1-9.1-9.1c-5.7-9.8-45.8-23.7-58-37.6c-12.3-13.9-9-46.6-9-46.6h184.8C185.3,19.3,188.6,52,176.3,65.9z"/>
	<g>
		<path class="st32" d="M156.5,36.8c8.5-7.4,9.3-20.3,1.9-28.8C151-0.5,138-1.3,129.6,6"/>
		<polygon class="st7" points="149.8,29.1 149.8,18.8 140.8,18.8 145,23.6 		"/>
	</g>
	<linearGradient id="SVGID_10_" gradientUnits="userSpaceOnUse" x1="92.8484" y1="40.877" x2="92.8484" y2="106.5109">
		<stop  offset="0" style="stop-color:#14AFAB"/>
		<stop  offset="1" style="stop-color:#227893"/>
	</linearGradient>
	<path class="st38" d="M24.4,40.9c-4.8,0-8.4,4.3-7.5,9c1.1,6.1,3.1,12.2,6.7,16.2C32.7,76.6,61,87.1,69.7,95c1.1,1,1.9,2.4,2.3,3.8
		c0.6,2.1,2.2,5.8,7.3,6.1c10.1,3.8,23.9,0.8,26.7,0.1c0.4-0.1,0.7-0.1,1.1-0.2c4.6-0.5,6.2-3.9,6.7-6c0.4-1.5,1.1-2.9,2.3-3.9
		c8.7-7.9,36.9-18.4,46.2-28.9c3.6-4.1,5.6-10.1,6.7-16.3c0.8-4.7-2.8-9-7.5-9H24.4z"/>
</g>
<g>
	<path class="st7" d="M441.4,282.6c-37.3-5.2-19.8-13.9-19.8-13.9l25.9-9.8v-107c-12.1-6.8-20.5-22.5-20.5-22.5
		c-14-24.2-5.4-143.7-5.4-143.7h60.6c0,0,8.6,119.5-5.4,143.7c0,0-8.4,15.6-20.5,22.5v107l25.9,9.8c0,0,17.5,8.7-19.8,13.9
		C455.5,283.6,448.4,283.6,441.4,282.6z"/>
	<g>
		<path class="st32" d="M477,3.6c8.5-7.4,9.3-20.3,1.9-28.8c-7.4-8.5-20.3-9.3-28.8-1.9"/>
		<polygon class="st7" points="470.3,-4.1 470.3,-14.3 461.4,-14.3 465.6,-9.5 		"/>
	</g>
	<linearGradient id="SVGID_11_" gradientUnits="userSpaceOnUse" x1="451.9178" y1="16.5496" x2="451.9178" y2="143.3329">
		<stop  offset="0" style="stop-color:#14AFAB"/>
		<stop  offset="1" style="stop-color:#227893"/>
	</linearGradient>
	<path class="st39" d="M433,18.8c-2.9,0-5.3,2.3-5.4,5.1c-1.4,27.4-3.2,85.1,5,99.6c0,0,6.5,12.5,15.9,17.9c2,1.3,4.8,0.6,6.1,0.2
		c0.4-0.1,0.8-0.3,1.2-0.5c9.1-5.6,15.4-17.6,15.4-17.6c8.2-14.5,6.4-72.2,5-99.6c-0.1-2.9-2.5-5.1-5.4-5.1H433z"/>
</g>
<g>
	<path class="st7" d="M797.7,56.8c6.4,48.4,20.4,121.1,1.3,140.2c-12.4,12.4-18.3,19.6-20.9,23.1c-1.2,1.6-1.6,3.6-1.1,5.5
		c1.2,5.2,3.3,16.3,0.7,21c-0.9,1.7-1.8,3.3-2.5,4.9c-1.8,3.9,0.5,8.5,4.7,9.4l17.8,3.9c0.2,0,0.4,0.1,0.7,0.2
		c4.1,1.3,41,14.1-33.3,18.8c-0.3,0-0.6,0-0.9,0c-74.3-4.7-37.3-17.5-33.3-18.8c0.2-0.1,0.4-0.1,0.7-0.2l17.8-3.9
		c4.2-0.9,6.5-5.5,4.7-9.4c-0.7-1.5-1.5-3.2-2.5-4.9c-2.6-4.8-0.5-15.8,0.7-21c0.4-1.9,0-3.9-1.1-5.5c-2.6-3.5-8.5-10.7-20.9-23.1
		c-19.1-19.1-5.1-91.8,1.3-140.2c3.8-29-3.8-48-10.5-58.5c-2.9-4.5,0.4-10.3,5.7-10.3h76c5.3,0,8.5,5.9,5.7,10.3
		C801.5,8.8,793.9,27.7,797.7,56.8z"/>
	<g>
		<path class="st32" d="M795.8,6c8.5-7.4,9.3-20.3,1.9-28.8c-7.4-8.5-20.3-9.3-28.8-1.9"/>
		<polygon class="st7" points="789.1,-1.7 789.1,-12 780.1,-12 784.3,-7.2 		"/>
	</g>
	<linearGradient id="SVGID_12_" gradientUnits="userSpaceOnUse" x1="764.5583" y1="11.9092" x2="764.5583" y2="211.9999">
		<stop  offset="0" style="stop-color:#14AFAB"/>
		<stop  offset="1" style="stop-color:#227893"/>
	</linearGradient>
	<path class="st40" d="M788.2,12.6H741c-2.4,0-4.1,2.3-3.5,4.6c2.6,9.6,4.2,22.4,2.4,38.6c-4.8,43.6-15.2,109.1-1,126.3
		c8.9,10.8,13.3,17.2,15.4,20.4c0.2,0.2,0.3,0.5,0.5,0.7c8.8,8.8,17.5,1.8,19.4,0.1c0.2-0.2,0.5-0.5,0.6-0.8
		c2.1-3.3,6.5-9.7,15.4-20.4c14.3-17.2,3.8-82.7-1-126.3c-1.8-16.3-0.2-29,2.4-38.6C792.3,14.9,790.6,12.6,788.2,12.6z"/>
</g>
<linearGradient id="SVGID_13_" gradientUnits="userSpaceOnUse" x1="1155.5688" y1="-699.5558" x2="1156.0708" y2="-430.466">
	<stop  offset="0" style="stop-color:#14AFAB"/>
	<stop  offset="1" style="stop-color:#227893"/>
</linearGradient>
<path class="st41" d="M1188.7-699.1h-66.2c-3,0-5.4,2.6-5.2,5.6l18.9,249.7c0,5.1,8.7,9.2,19.4,9.2s19.4-4.1,19.4-9.2l18.9-249.7
	C1194.1-696.5,1191.7-699.1,1188.7-699.1z"/>
</svg>
