<?xml version="1.0" encoding="utf-8"?>
<!-- Generator: Adobe Illustrator 22.0.1, SVG Export Plug-In . SVG Version: 6.00 Build 0)  -->
<svg version="1.1" id="Layer_1" xmlns="http://www.w3.org/2000/svg" xmlns:xlink="http://www.w3.org/1999/xlink" x="0px" y="0px"
	 viewBox="0 0 68.8 316.5" style="enable-background:new 0 0 68.8 316.5;" xml:space="preserve">
<style type="text/css">
	.st0{display:none;}
	.st1{display:inline;fill:#FFFFFF;stroke:#000000;stroke-miterlimit:10;}
	.st2{fill:#707B7F;}
	.st3{fill:#CE403F;}
	.st4{fill:#FFFFFF;}
	.st5{fill:#CD915F;}
	.st6{fill:#AA6628;}
	.st7{opacity:0.5;fill:#F9F9FA;enable-background:new    ;}
	.st8{fill:url(#SVGID_1_);}
	.st9{fill:#DDDDDD;}
	.st10{fill:#F7F7F7;}
	.st11{opacity:0.35;fill:#F4F4F5;enable-background:new    ;}
	.st12{fill:#F9F9FA;stroke:#E2E2E2;stroke-width:3;stroke-miterlimit:10;}
	.st13{fill:url(#SVGID_2_);}
	.st14{opacity:0.6;fill:#F4F4F5;enable-background:new    ;}
	.st15{display:none;fill:#34A6C9;stroke:#1B8EB7;stroke-width:10;stroke-miterlimit:10;}
	.st16{display:none;fill:#F27CA7;stroke:#C94C72;stroke-width:10;stroke-miterlimit:10;}
	.st17{fill:#476269;}
	.st18{fill:#222728;}
	.st19{fill:#DDDDDC;}
	.st20{fill:#F6F7F7;}
	.st21{fill:url(#SVGID_3_);}
	.st22{fill:url(#SVGID_4_);}
	.st23{enable-background:new    ;}
	.st24{opacity:0.84;fill:url(#SVGID_5_);enable-background:new    ;}
	.st25{fill:none;stroke:#E2E2E2;stroke-width:3;stroke-miterlimit:10;}
	.st26{fill:#D95F56;}
	.st27{fill:url(#SVGID_6_);}
	.st28{fill:url(#SVGID_7_);}
	.st29{opacity:0.84;fill:#E8CD2C;enable-background:new    ;}
	.st30{opacity:0.39;fill:#90D7EB;enable-background:new    ;}
	.st31{opacity:0.84;fill:url(#SVGID_8_);enable-background:new    ;}
	.st32{fill:#D2E8C9;stroke:#6EBF59;stroke-width:2;stroke-miterlimit:10;}
	.st33{fill:none;}
	.st34{opacity:0.84;fill:url(#SVGID_9_);enable-background:new    ;}
	.st35{fill:#7AC25B;}
	.st36{fill:none;stroke:#E2E2E2;stroke-miterlimit:10;}
	.st37{fill:#157D3E;stroke:#E2E2E2;stroke-width:3;stroke-miterlimit:10;}
	.st38{opacity:0.84;fill:url(#SVGID_10_);enable-background:new    ;}
	.st39{opacity:0.84;fill:url(#SVGID_11_);enable-background:new    ;}
	.st40{opacity:0.84;fill:url(#SVGID_12_);enable-background:new    ;}
	.st41{opacity:0.84;fill:url(#SVGID_13_);enable-background:new    ;}
</style>
<g id="Layer_1_1_" class="st0">
	<rect x="-1314.6" y="-197.8" class="st1" width="136.5" height="482"/>
</g>
<path class="st2" d="M-1051,1579.6h-127c-11.1,0-20.2-9.1-20.2-20.2v-93.6c0-11.1,9.1-20.2,20.2-20.2h127c11.1,0,20.2,9.1,20.2,20.2
	v93.6C-1030.7,1570.5-1039.8,1579.6-1051,1579.6z"/>
<rect x="-1779.7" y="-359.2" class="st3" width="658.6" height="188.9"/>
<circle class="st4" cx="-2078.1" cy="90.1" r="6.2"/>
<g>
	<polygon class="st5" points="-1162.8,-621.5 -1205.1,-608.8 -1112.5,-608.8 	"/>
	<polygon class="st5" points="-824.5,-621.5 -782.3,-608.8 -874.9,-608.8 	"/>
	<rect x="-1162.9" y="-621.5" class="st5" width="338.4" height="14.9"/>
	<rect x="-1205.1" y="-608.8" class="st6" width="422.8" height="11.1"/>
</g>
<path class="st7" d="M-1959.8,322.9h-148.8c-11.7,0-21.2-9.5-21.2-21.2V74c0-11.7,9.5-21.2,21.2-21.2h148.8
	c11.7,0,21.2,9.5,21.2,21.2v227.7C-1938.6,313.4-1948.1,322.9-1959.8,322.9z"/>
<linearGradient id="SVGID_1_" gradientUnits="userSpaceOnUse" x1="-2035.6746" y1="251.385" x2="-2035.6746" y2="27.1634" gradientTransform="matrix(1 0 0 -1 0 336.9701)">
	<stop  offset="0" style="stop-color:#FFCC4C"/>
	<stop  offset="1" style="stop-color:#FEBF4B"/>
</linearGradient>
<path class="st8" d="M-1976.2,310.6h-118.9c-11.7,0-21.2-9.5-21.2-21.2V106.8c0-11.7,9.5-21.2,21.2-21.2h118.8
	c11.7,0,21.2,9.5,21.2,21.2v182.7C-1955.1,301.1-1964.5,310.6-1976.2,310.6z"/>
<circle class="st9" cx="-2091.5" cy="84" r="33"/>
<circle class="st9" cx="-2055.9" cy="74.4" r="23.4"/>
<circle class="st9" cx="-2020.9" cy="84.3" r="23.4"/>
<circle class="st9" cx="-1971.3" cy="79.5" r="28.2"/>
<circle class="st10" cx="-2020.9" cy="75.2" r="23.4"/>
<circle class="st10" cx="-1999.5" cy="65.3" r="11.7"/>
<path class="st10" d="M-2079.2,65.3c0-1.5,0.1-2.9,0.4-4.3h-42.7c-2,4.2-3.1,9-3.1,14c0,18.2,14.8,33,33,33
	c13.6,0,25.3-8.2,30.3-19.9C-2071.5,85.6-2079.2,76.3-2079.2,65.3z"/>
<path class="st10" d="M-2058.5,74.9c0,4.6-1,9.1-2.7,13.1c1.7,0.4,3.5,0.6,5.4,0.6c12.9,0,23.4-10.5,23.4-23.4
	c0-1.5-0.1-2.9-0.4-4.3h-28.7C-2059.7,65.2-2058.5,69.9-2058.5,74.9z"/>
<path class="st10" d="M-2061.6,60.9h-17.2c-0.3,1.4-0.4,2.8-0.4,4.3c0,11.1,7.7,20.3,18,22.7c1.7-4,2.7-8.4,2.7-13.1
	C-2058.5,69.9-2059.7,65.2-2061.6,60.9z"/>
<path class="st10" d="M-1944.8,60.9h-53.1c-1.1,3-1.6,6.1-1.6,9.5c0,15.6,12.6,28.2,28.2,28.2c15.6,0,28.2-12.6,28.2-28.2
	C-1943.2,67.1-1943.7,63.9-1944.8,60.9z"/>
<path class="st10" d="M-2216.2,61.8c0,0-0.1-0.1-0.2-0.2C-2216.3,61.6-2216.3,61.7-2216.2,61.8L-2216.2,61.8z"/>
<path class="st10" d="M-1944.8,60.9h-116.8c-2.4-5-5.9-9.3-10.3-12.6c-3.5,3.3-5.9,7.7-6.8,12.6h-42.6c0.5-1.1,1.1-2.2,1.8-3.3
	c4.2-4.6,12.7-12.3,22.7-12.3h55.4c0,0,6.7,0,16,0h55.4c13.2,0,23.9,13.4,25.3,15.3C-1944.8,60.8-1944.8,60.9-1944.8,60.9z"/>
<path class="st10" d="M-2078.8,60.9h17.2c-2.3-5-5.9-9.3-10.3-12.6C-2075.4,51.7-2077.9,56-2078.8,60.9z"/>
<path class="st7" d="M-1881.8,126.8c-2.3-11.7-10.8-20.4-21-20.4h-35.8v22.5h25.3c6,0,10.8,5.9,10.8,13.3v77.3
	c0,7.3-4.8,13.3-10.8,13.3h-25.3v23.4h35.8c10.7,0,19.6-9.6,21.3-22.2c0.2-1.1,0.3-2.2,0.3-3.4v-1l0,0v-96.7l0,0v-1.4
	C-1881.2,129.8-1881.4,128.3-1881.8,126.8z"/>
<path class="st11" d="M-2082.7,280.5L-2082.7,280.5c-6,0-10.8-4.8-10.8-10.8v-134c0-6,4.8-10.8,10.8-10.8l0,0
	c6,0,10.8,4.8,10.8,10.8v134C-2071.9,275.6-2076.7,280.5-2082.7,280.5z"/>
<path class="st11" d="M-2032.5,280.5L-2032.5,280.5c-6,0-10.8-4.8-10.8-10.8v-134c0-6,4.8-10.8,10.8-10.8l0,0
	c6,0,10.8,4.8,10.8,10.8v134C-2021.7,275.6-2026.5,280.5-2032.5,280.5z"/>
<path class="st11" d="M-1983.4,277.2L-1983.4,277.2c-6,0-10.8-4.8-10.8-10.8v-134c0-6,4.8-10.8,10.8-10.8l0,0
	c6,0,10.8,4.8,10.8,10.8v134C-1972.6,272.4-1977.5,277.2-1983.4,277.2z"/>
<g>
	<circle class="st4" cx="1392.5" cy="862.4" r="4.7"/>
	<path class="st12" d="M1478.5,1044.6h-104.4c-11.7,0-21.2-9.5-21.2-21.2v-165c0-11.7,9.5-21.2,21.2-21.2h104.4
		c11.7,0,21.2,9.5,21.2,21.2v165C1499.6,1035.1,1490.2,1044.6,1478.5,1044.6z"/>
	
		<linearGradient id="SVGID_2_" gradientUnits="userSpaceOnUse" x1="1425.149" y1="-525.4149" x2="1425.149" y2="-697.5734" gradientTransform="matrix(1 0 0 -1 0 336.9701)">
		<stop  offset="0" style="stop-color:#FFCC4C"/>
		<stop  offset="1" style="stop-color:#FEBF4B"/>
	</linearGradient>
	<path class="st13" d="M1465.8,1035.2h-81.4c-11.7,0-21.2-9.5-21.2-21.2V883.6c0-11.7,9.5-21.2,21.2-21.2h81.4
		c11.7,0,21.2,9.5,21.2,21.2V1014C1487,1025.7,1477.5,1035.2,1465.8,1035.2z"/>
	
		<ellipse transform="matrix(0.2298 -0.9732 0.9732 0.2298 229.9321 2005.9019)" class="st9" cx="1382.2" cy="857.7" rx="25.3" ry="25.3"/>
	<circle class="st9" cx="1409.6" cy="850.3" r="17.9"/>
	<circle class="st9" cx="1436.5" cy="857.9" r="17.9"/>
	<circle class="st9" cx="1474.5" cy="854.2" r="21.6"/>
	<circle class="st10" cx="1436.5" cy="850.9" r="17.9"/>
	<circle class="st10" cx="1452.9" cy="843.3" r="9"/>
	<path class="st10" d="M1391.7,843.3c0-1.1,0.1-2.2,0.3-3.3h-32.7c-1.5,3.3-2.4,6.9-2.4,10.7c0,14,11.3,25.3,25.3,25.3
		c10.4,0,19.4-6.3,23.3-15.3C1397.6,858.9,1391.7,851.8,1391.7,843.3z"/>
	<path class="st10" d="M1407.6,850.7c0,3.6-0.7,7-2.1,10c1.3,0.3,2.7,0.5,4.1,0.5c9.9,0,17.9-8,17.9-17.9c0-1.1-0.1-2.2-0.3-3.3
		h-22.1C1406.7,843.2,1407.6,846.9,1407.6,850.7z"/>
	<path class="st10" d="M1405.2,840H1392c-0.2,1.1-0.3,2.2-0.3,3.3c0,8.5,5.9,15.6,13.8,17.5c1.3-3.1,2.1-6.5,2.1-10
		C1407.6,846.9,1406.7,843.2,1405.2,840z"/>
	<path class="st10" d="M1494.9,840h-40.8c-0.8,2.3-1.3,4.7-1.3,7.3c0,12,9.7,21.6,21.6,21.6s21.6-9.7,21.6-21.6
		C1496.1,844.7,1495.7,842.2,1494.9,840z"/>
	<path class="st10" d="M1498.4,844.1c0,0,0-0.1-0.1-0.2C1498.3,844,1498.3,844,1498.4,844.1L1498.4,844.1z"/>
	<path class="st10" d="M1494.9,840h-89.7c-1.8-3.8-4.5-7.2-7.9-9.7c-2.7,2.5-4.6,5.9-5.3,9.7h-32.7c0.4-0.9,0.9-1.7,1.4-2.5
		c3.2-3.5,9.8-9.4,17.5-9.4h42.5c0,0,5.1,0,12.3,0h42.5c10.2,0,18.3,10.3,19.4,11.8C1494.9,839.8,1494.9,839.9,1494.9,840z"/>
	<path class="st10" d="M1392,840h13.2c-1.8-3.8-4.5-7.2-7.9-9.7C1394.6,832.8,1392.7,836.2,1392,840z"/>
	<path class="st12" d="M1543.3,894c-1.7-9-8.3-15.7-16.1-15.7h-27.5v17.3h19.4c4.6,0,8.3,4.6,8.3,10.2v59.4c0,5.6-3.7,10.2-8.3,10.2
		h-19.4v17.9h27.5c8.2,0,15.1-7.4,16.4-17c0.1-0.8,0.2-1.7,0.2-2.6v-0.8l0,0v-74.2l0,0v-1.1C1543.7,896.3,1543.6,895.1,1543.3,894z"
		/>
	<path class="st14" d="M1389,1012L1389,1012c-4.6,0-8.3-3.7-8.3-8.3V900.8c0-4.6,3.7-8.3,8.3-8.3l0,0c4.6,0,8.3,3.7,8.3,8.3v102.9
		C1397.3,1008.3,1393.6,1012,1389,1012z"/>
	<path class="st14" d="M1427.5,1012L1427.5,1012c-4.6,0-8.3-3.7-8.3-8.3V900.8c0-4.6,3.7-8.3,8.3-8.3l0,0c4.6,0,8.3,3.7,8.3,8.3
		v102.9C1435.8,1008.3,1432.1,1012,1427.5,1012z"/>
	<path class="st14" d="M1465.2,1009.5L1465.2,1009.5c-4.6,0-8.3-3.7-8.3-8.3V898.3c0-4.6,3.7-8.3,8.3-8.3l0,0c4.6,0,8.3,3.7,8.3,8.3
		v102.9C1473.5,1005.8,1469.8,1009.5,1465.2,1009.5z"/>
</g>
<path class="st15" d="M-1400.8,710.8v-32.9l5.8,5.8c9.5,9.5,25,9.5,34.5,0s9.5-25,0-34.5l-45-45l-2.9-2.9
	c-4.5-4.5-10.2-6.8-16.1-7.1c-0.2,0-0.5,0-0.8,0c-0.1,0-0.2,0-0.2,0c-0.1,0-0.1,0-0.2,0s-0.1,0-0.2,0c-6.3-0.1-12.7,2.3-17.5,7.2
	l-47.9,47.9c-9.5,9.5-9.5,25,0,34.5s25,9.5,34.5,0l7.1-7.1l0.6,33.7c-34.6,10-59.9,41.9-59.9,79.8c0,45.9,37.2,83.1,83.1,83.1
	s83.1-37.2,83.1-83.1C-1342.8,752.9-1367.1,721.5-1400.8,710.8z M-1425.8,825.3c-19.4,0-35.2-15.8-35.2-35.2s15.8-35.2,35.2-35.2
	c19.4,0,35.2,15.8,35.2,35.2S-1406.4,825.3-1425.8,825.3z"/>
<path class="st16" d="M-1114.7,752.5c32.4-32.4,32.4-85.1,0-117.5s-85.1-32.4-117.5,0s-32.4,85.1,0,117.5
	c10.6,10.6,23.3,17.7,36.8,21.4v25.9h-9.6c-12.1,0-21.9,9.8-21.9,21.9l0,0c0,12.1,9.8,21.9,21.9,21.9h9.6v9.6
	c0,12.1,9.8,21.9,21.9,21.9l0,0c12.1,0,21.9-9.8,21.9-21.9v-9.6h9.6c12.1,0,21.9-9.8,21.9-21.9l0,0c0-12.1-9.8-21.9-21.9-21.9h-9.6
	v-25.9C-1138.1,770.2-1125.3,763-1114.7,752.5z M-1198.4,668.8c13.8-13.8,36-13.8,49.8,0s13.8,36,0,49.8s-36,13.8-49.8,0
	C-1212.1,704.9-1212.1,682.6-1198.4,668.8z"/>
<rect x="-1323.3" y="530.5" class="st17" width="578.1" height="600.5"/>
<path class="st4" d="M-1173.4,708.4l-59.5,59.5c-6.3,6.3-16.4,6.3-22.7,0l0,0c-6.3-6.3-6.3-16.4,0-22.7l59.5-59.5
	c6.3-6.3,16.4-6.3,22.7,0l0,0C-1167.1,692-1167.1,702.1-1173.4,708.4z"/>
<path class="st4" d="M-1136.6,767.9l-59.5-59.5c-6.3-6.3-6.3-16.4,0-22.7l0,0c6.3-6.3,16.4-6.3,22.7,0l59.5,59.5
	c6.3,6.3,6.3,16.4,0,22.7l0,0C-1120.2,774.1-1130.3,774.1-1136.6,767.9z"/>
<path class="st4" d="M-1164.9,719v75.2c0,11.9-9.6,21.5-21.5,21.5l0,0c-11.9,0-21.5-9.6-21.5-21.5V719c0-11.9,9.6-21.5,21.5-21.5
	l0,0C-1174.5,697.5-1164.9,707.2-1164.9,719z"/>
<path class="st4" d="M-1184.7,794.6c-52.3,0-94.6,42.4-94.6,94.6s42.4,94.6,94.6,94.6s94.6-42.4,94.6-94.6
	S-1132.5,794.6-1184.7,794.6z M-1184.7,947.4c-32.1,0-58.2-26-58.2-58.2c0-32.1,26-58.2,58.2-58.2s58.2,26,58.2,58.2
	C-1126.6,921.3-1152.6,947.4-1184.7,947.4z"/>
<path class="st4" d="M-944,962.3V860.9c0-11.9,9.6-21.5,21.5-21.5l0,0c11.9,0,21.5,9.6,21.5,21.5v101.4c0,11.9-9.6,21.5-21.5,21.5
	l0,0C-934.4,983.8-944,974.2-944,962.3z"/>
<path class="st4" d="M-882.7,941.5h-79.7c-11.9,0-21.5-9.6-21.5-21.5l0,0c0-11.9,9.6-21.5,21.5-21.5h79.7c11.9,0,21.5,9.6,21.5,21.5
	l0,0C-861.2,931.9-870.8,941.5-882.7,941.5z"/>
<path class="st4" d="M-924.2,860.6c52.3,0,94.6-42.4,94.6-94.6s-42.4-94.6-94.6-94.6s-94.6,42.4-94.6,94.6S-976.4,860.6-924.2,860.6
	z M-924.2,707.8c32.1,0,58.2,26,58.2,58.2c0,32.1-26,58.2-58.2,58.2s-58.2-26-58.2-58.2C-982.3,733.8-956.3,707.8-924.2,707.8z"/>
<rect x="-1837.9" y="530.5" class="st18" width="508.9" height="434.6"/>
<path class="st4" d="M-1558.9,707.8l-59.5,59.5c-6.3,6.3-16.4,6.3-22.7,0l0,0c-6.3-6.3-6.3-16.4,0-22.7l59.5-59.5
	c6.3-6.3,16.4-6.3,22.7,0l0,0C-1552.7,691.4-1552.7,701.5-1558.9,707.8z"/>
<path class="st4" d="M-1522.1,767.3l-59.5-59.5c-6.3-6.3-6.3-16.4,0-22.7l0,0c6.3-6.3,16.4-6.3,22.7,0l59.5,59.5
	c6.3,6.3,6.3,16.4,0,22.7l0,0C-1505.7,773.5-1515.9,773.5-1522.1,767.3z"/>
<path class="st4" d="M-1552.7,716.1v79.8c0,10.6-8.6,19.2-19.2,19.2l0,0c-10.6,0-19.2-8.6-19.2-19.2v-79.8
	c0-10.6,8.6-19.2,19.2-19.2l0,0C-1561.3,696.9-1552.7,705.5-1552.7,716.1z"/>
<path class="st19" d="M-1688.5-317.2c-18,0-34.3,7.5-45.7,19.5v83.2c11.4,12,27.6,19.5,45.7,19.5c34.4,0,62.4-27.4,62.4-61.1
	C-1626.2-289.9-1654.1-317.2-1688.5-317.2z"/>
<path class="st19" d="M-1150.1-288.4c-8-8.2-19.5-13.4-32.2-13.4c-24.1,0-43.7,18.4-43.7,41.1s19.6,41.1,43.7,41.1
	c12.8,0,24.3-5.2,32.2-13.4V-288.4z"/>
<ellipse class="st19" cx="-1606.3" cy="-269.2" rx="28" ry="27.5"/>
<ellipse class="st19" cx="-1531.2" cy="-261.8" rx="54.2" ry="53.1"/>
<ellipse class="st19" cx="-1452" cy="-266.5" rx="35.9" ry="35.2"/>
<ellipse class="st19" cx="-1386.8" cy="-282.4" rx="33.6" ry="32.9"/>
<ellipse class="st19" cx="-1352.6" cy="-259" rx="38.4" ry="37.6"/>
<ellipse class="st19" cx="-1289.9" cy="-267.6" rx="38" ry="37.3"/>
<ellipse class="st19" cx="-1240.7" cy="-279" rx="23.2" ry="22.7"/>
<path class="st19" d="M-1150.1-263.6h-583.1c2.2-15.3,1.6-11,3.5-24.2l0,0c0-13.3,12.2-24.2,27.2-24.2h521.7
	c15,0,27.2,10.8,27.2,24.2l0,0C-1152.4-275.7-1152.4-276-1150.1-263.6z"/>
<circle class="st20" cx="-1606.3" cy="-281.4" r="28"/>
<circle class="st20" cx="-1531.2" cy="-273.8" r="54.2"/>
<circle class="st20" cx="-1452" cy="-278.7" r="35.9"/>
<circle class="st20" cx="-1386.8" cy="-294.9" r="33.6"/>
<circle class="st20" cx="-1352.6" cy="-271" r="38.4"/>
<circle class="st20" cx="-1289.9" cy="-279.8" r="38"/>
<circle class="st20" cx="-1240.7" cy="-291.4" r="23.2"/>
<rect x="-1734" y="-334.9" class="st20" width="583.9" height="61.1"/>
<path class="st20" d="M-1150.1-301.6c-8-8.4-19.5-13.7-32.2-13.7c-24.1,0-43.7,18.8-43.7,41.9c0,23.2,19.6,41.9,43.7,41.9
	c12.8,0,24.3-5.3,32.2-13.7V-301.6z"/>
<path class="st20" d="M-1688.5-332.3c-18,0-34.3,7.7-45.7,19.9v84.9c11.4,12.2,27.6,19.9,45.7,19.9c34.4,0,62.4-27.9,62.4-62.4
	C-1626.2-304.3-1654.1-332.3-1688.5-332.3z"/>
<image style="display:none;overflow:visible;enable-background:new    ;" width="2056" height="494" xlink:href="F4D3515DCA1FFC56.png"  transform="matrix(0.5771 0 0 0.5771 -2027.0789 -134.1344)">
</image>
<path class="st7" d="M-2170.5,291.5c1.4,1.9,2.6,3.6,3.7,5.2c6,8.5,2.2,20.3-7.8,23.9c-8.4,3-21.4,5.2-41.4,4.8
	c-20.1,0.4-33.1-1.8-41.5-4.8c-10-3.5-13.8-15.4-7.8-23.9c1.1-1.6,2.3-3.3,3.7-5.2c8.4-11.5,11-58.3,7.8-119.2
	c-2.6-49.2-25.6-180.6-34.4-229.4c-1.7-9.7,5.9-18.6,16-18.6h112.2c10.1,0,17.8,8.9,16,18.6c-8.8,48.8-31.8,180.2-34.4,229.4
	C-2181.5,233.3-2178.9,280.1-2170.5,291.5z"/>
<g>
	
		<linearGradient id="SVGID_3_" gradientUnits="userSpaceOnUse" x1="-2216.0247" y1="365.3513" x2="-2216.0247" y2="62.7878" gradientTransform="matrix(1 0 0 -1 0 336.9701)">
		<stop  offset="0" style="stop-color:#FFCC4C"/>
		<stop  offset="1" style="stop-color:#FEBF4B"/>
	</linearGradient>
	<path class="st21" d="M-2186.9,161.5c2-38,19.8-139.3,26.5-177c1.3-7.5-4.6-14.3-12.4-14.3h-86.5c-7.8,0-13.7,6.8-12.4,14.3
		c6.8,37.6,24.5,139,26.5,177c0.9,16.3,1.2,79.1,1,92c-0.2,15.3,11.4,19.1,26.6,19.9c0.5,0,1,0,1.5,0s1,0,1.5,0
		c15.2-0.8,26.9-4.6,26.6-19.9C-2188,240.5-2187.7,177.7-2186.9,161.5z"/>
</g>
<circle class="st14" cx="-2181.1" cy="-7.8" r="6.1"/>
<ellipse transform="matrix(0.1256 -0.9921 0.9921 0.1256 -1986.7252 -2113.8857)" class="st14" cx="-2192.6" cy="70.1" rx="53" ry="6.1"/>
<g>
	<path class="st7" d="M-2605,310.5c0.8,2.1,0.1,4-1.5,5.5c-3.6,3.2-9.4,4.2-14,5c-11.5,1.9-23.2,2-34.8,1.9
		c-11.6,0.1-23.4,0-34.8-1.9c-4.6-0.8-10.4-1.7-14-5c-1.6-1.5-2.3-3.4-1.5-5.5c0.8-2,2.5-3.5,4.7-3.8c1.3-0.2,2.6-0.3,4-0.5
		c5.2-0.9,10.2-2.7,15-4.9c13.4-6,22-13.8,22-13.8s0.8-103,0.8-121.9s-38.2-28.4-54-46.5c-16-18.2,18.3-106.6,18.3-106.6h78.9
		c0,0,36.7,86.7,20.9,104.8c-15.8,18.2-56.4,29.3-56.4,48.2s0.8,121.9,0.8,121.9s8.5,7.8,22,13.8c4.8,2.1,9.8,3.9,15,4.9
		c1.3,0.2,2.6,0.3,4,0.5C-2607.5,306.9-2605.8,308.5-2605,310.5z"/>
	
		<linearGradient id="SVGID_4_" gradientUnits="userSpaceOnUse" x1="-2654.2009" y1="303.3133" x2="-2654.2009" y2="193.1044" gradientTransform="matrix(1 0 0 -1 0 336.9701)">
		<stop  offset="0" style="stop-color:#FFCC4C"/>
		<stop  offset="1" style="stop-color:#FEBF4B"/>
	</linearGradient>
	<path class="st22" d="M-2611.7,120.3l-37.7,21.8c-3,1.7-6.8,1.7-9.8,0l-37.7-21.8c-0.3-0.2-0.6-0.3-0.8-0.4
		c-2.2-1-15.2-8.3-5.3-39.8l9.8-38.6c1.1-4.3,5-7.4,9.5-7.4h58.8c4.5,0,8.4,3,9.5,7.4l9.9,38.6c9.9,31.5-3.1,38.8-5.3,39.8
		C-2611.1,120-2611.4,120.2-2611.7,120.3z"/>
	<circle class="st14" cx="-2626.1" cy="56.4" r="6.1"/>
	<ellipse class="st14" cx="-2626.1" cy="89.4" rx="6.1" ry="17"/>
</g>
<text transform="matrix(1 0 0 1 -1762.9607 56.3923)" style="font-family:'MyriadPro-Regular'; font-size:72px;">Beer</text>
<image style="display:none;overflow:visible;enable-background:new    ;" width="2056" height="986" xlink:href="F4D3515DCA1FFC5A.png"  transform="matrix(0.5 0 0 0.5 -1836.6865 1360.8245)">
</image>
<image style="display:none;overflow:visible;enable-background:new    ;" width="2114" height="968" xlink:href="F4D3515DCA1FFC5D.png"  transform="matrix(0.5 0 0 0.5 -1886.3466 1239.246)">
</image>
<image style="display:none;overflow:visible;enable-background:new    ;" width="2114" height="968" xlink:href="F4D3515DCA1FFC5E.png"  transform="matrix(0.5 0 0 0.5 -2049.2014 1189.7578)">
</image>
<text transform="matrix(1 0 0 1 -303.3132 -124.8605)" style="font-family:'MyriadPro-Regular'; font-size:72px;">Cocktail</text>
<image style="display:none;overflow:visible;enable-background:new    ;" width="2056" height="986" xlink:href="F4D3515DCA1FFC5C.png"  transform="matrix(0.5 0 0 0.5 -500.1978 -349.7437)">
</image>
<image style="display:none;overflow:visible;enable-background:new    ;" width="2114" height="968" xlink:href="F4D3515DCA1FFC5B.png"  transform="matrix(0.5 0 0 0.5 -549.8577 -471.3223)">
</image>
<image style="display:none;overflow:visible;enable-background:new    ;" width="2114" height="968" xlink:href="F4D3515DCA1FFC55.png"  transform="matrix(0.5 0 0 0.5 -712.7125 -520.8104)">
</image>
<path class="st7" d="M645.2-608.8l-5,253.9c-0.1,5.5-3.8,10.2-9.1,11.7c-7.7,2.2-21.6,4.6-45.8,5c-24.2-0.3-38-2.7-45.8-5
	c-5.3-1.5-8.9-6.2-9.1-11.7l-5-253.9c-0.1-7,5.5-12.7,12.4-12.7h94.7C639.7-621.5,645.3-615.7,645.2-608.8z"/>
<linearGradient id="SVGID_5_" gradientUnits="userSpaceOnUse" x1="585.2945" y1="-598.0215" x2="585.2945" y2="-362.5842">
	<stop  offset="0" style="stop-color:#14AFAB"/>
	<stop  offset="1" style="stop-color:#227893"/>
</linearGradient>
<path class="st24" d="M634.5-585.9l-4.1,208.7c-0.1,4.5-3.1,8.4-7.5,9.6c-6.3,1.8-17.8,3.8-37.7,4.1c-19.9-0.2-31.2-2.2-37.7-4.1
	c-4.4-1.2-7.3-5.1-7.5-9.6l-4.1-208.7c-0.1-5.8,4.5-10.4,10.2-10.4h77.9C630-596.3,634.6-591.6,634.5-585.9z"/>
<path class="st7" d="M738.1-340c-59.6,0.5-52.6-4.3-34.3-14.3c16.8-9.2,12.4-29.6,11.5-32.8c-0.1-0.3-0.1-0.7-0.2-1l-22.3-295.3
	c-0.3-3.5,2.5-6.6,6.1-6.6h78.3c3.6,0,6.4,3,6.1,6.6L761-388.1c0,0.3-0.1,0.7-0.2,1c-0.8,3.3-5.3,23.7,11.5,32.8
	C790.6-344.3,797.7-339.5,738.1-340z"/>
<image style="display:none;overflow:visible;enable-background:new    ;" width="2056" height="986" xlink:href="F4D3515DCA1FFC57.png"  transform="matrix(0.5 0 0 0.5 -500.1978 518.9344)">
</image>
<image style="display:none;overflow:visible;enable-background:new    ;" width="2114" height="968" xlink:href="F4D3515DCA1FFC54.png"  transform="matrix(0.5 0 0 0.5 -549.8577 397.356)">
</image>
<image style="display:none;overflow:visible;enable-background:new    ;" width="2114" height="968" xlink:href="628AC28E369F78C9.png"  transform="matrix(0.5 0 0 0.5 -712.7125 347.8677)">
</image>
<text transform="matrix(1 0 0 1 -303.3125 747.7952)" style="font-family:'MyriadPro-Regular'; font-size:72px;">Lhao</text>
<path class="st12" d="M-297.3,1020.6c-23.7,31.1-43,36.1-53.2,41.7s-16.2,26.8,3.2,30.9c19.4,4.2,27.9,6.7,27.9,6.7
	s35.7,18.2-50,18.2c-86.4,0-50-18.2-50-18.2s8.4-2.5,27.8-6.7c19.4-4.1,13.4-25.4,3.2-30.9c-10.2-5.6-29.4-10.5-53.2-41.7
	c-23.7-31.1,24.6-122.1,24.6-122.1h95C-321.9,898.5-273.6,989.4-297.3,1020.6z"/>
<path class="st25" d="M-217.6,1118.1c-66.8-0.8-42.6-10.7-26.2-11.9c16.4-1.2,21.7-15.2,21.7-15.2s-0.8-91.8,0-107.3
	c0.8-15.6-11.7-23.3-11.7-23.3c-30.1-32-16.2-104.1-16.2-104.1h64.7c0,0,13.9,72.1-16.2,104.1c0,0-12.5,7.8-11.7,23.3
	c0.8,15.6,0,107.3,0,107.3s5.3,13.9,21.7,15.2C-175,1107.5-150.8,1117.3-217.6,1118.1z"/>
<path class="st12" d="M-107.7,1118.1c-39.6,0-30.4-5.9-23.1-9.4c7-3.4,15.4-9.1,15.4-9.1l1.3-28.9c0.9-20.1-4.1-22.3-8.8-29.2
	c-4.7-6.9-5.6-11.3-10-27.3s-1.9-68.1-1.9-68.1h54.4c0,0,2.5,52.1-1.9,68.1s-5.3,20.4-10,27.3s-9.7,9.1-8.8,29.2l1.3,28.9
	c0,0,8.4,5.7,15.4,9.1C-77.3,1112.2-68.1,1118.1-107.7,1118.1z"/>
<path class="st12" d="M30.1,997.1c4.1,0,7.4,3.4,7.2,7.5l-3.8,95.7c0,0-0.9,17.9-13.2,17.9c-17.1,0-28.7,0-28.7,0s-11.6,0-28.7,0
	c-12.3,0-13.2-17.9-13.2-17.9l-3.8-95.7c-0.2-4.1,3.1-7.5,7.2-7.5L30.1,997.1L30.1,997.1z"/>
<ellipse class="st14" cx="-39.4" cy="1057.6" rx="2.7" ry="39.4"/>
<ellipse class="st14" cx="-29.3" cy="1057.6" rx="2.7" ry="39.4"/>
<ellipse class="st14" cx="-12.3" cy="1057.6" rx="2.7" ry="39.4"/>
<ellipse class="st14" cx="-1.9" cy="1057.6" rx="2.7" ry="39.4"/>
<ellipse class="st14" cx="15.3" cy="1057.6" rx="2.7" ry="39.4"/>
<ellipse class="st14" cx="23.5" cy="1057.6" rx="2.7" ry="39.4"/>
<path class="st14" d="M-33.2,1104.3c-0.7,0-1.3,4.6-1.7,12.3h3.5C-31.9,1108.9-32.5,1104.3-33.2,1104.3z"/>
<path class="st14" d="M-7,1102.6c-0.7,0-1.4,5.3-1.8,13.9h3.7C-5.6,1107.9-6.3,1102.6-7,1102.6z"/>
<path class="st14" d="M19.2,1104.3c-0.7,0-1.3,4.6-1.7,12.3H21C20.4,1108.9,19.8,1104.3,19.2,1104.3z"/>
<image style="display:none;overflow:visible;enable-background:new    ;" width="2056" height="986" xlink:href="628AC28E369F78CF.png"  transform="matrix(0.5 0 0 0.5 847.978 518.9344)">
</image>
<image style="display:none;overflow:visible;enable-background:new    ;" width="2114" height="968" xlink:href="628AC28E369F78C8.png"  transform="matrix(0.5 0 0 0.5 798.3179 397.356)">
</image>
<image style="display:none;overflow:visible;enable-background:new    ;" width="2114" height="968" xlink:href="628AC28E369F78CB.png"  transform="matrix(0.5 0 0 0.5 635.4631 347.8677)">
</image>
<image style="display:none;overflow:visible;enable-background:new    ;" width="2056" height="986" xlink:href="628AC28E369F78D7.png"  transform="matrix(0.5 0 0 0.5 847.978 -349.7437)">
</image>
<image style="display:none;overflow:visible;enable-background:new    ;" width="2114" height="968" xlink:href="628AC28E369F78C7.png"  transform="matrix(0.5 0 0 0.5 798.3179 -471.3223)">
</image>
<image style="display:none;overflow:visible;enable-background:new    ;" width="2114" height="968" xlink:href="628AC28E369F78D9.png"  transform="matrix(0.5 0 0 0.5 635.4631 -520.8104)">
</image>
<text transform="matrix(1 0 0 1 951.1396 -124.8608)" style="font-family:'MyriadPro-Regular'; font-size:72px;">Wine</text>
<path class="st12" d="M898.5,314.8c-103.5-0.2-51.2-11.8-48-12.5c0.1,0,0.2,0,0.3-0.1c1.8-0.5,17.6-5.2,22.9-8.2
	c5.5-3.2,14.6-18.7,14.8-25.7c0.2-6.3-4-21.5-5-25.2c-0.2-0.5-0.4-1-0.7-1.5c-7.5-11-1.3-17.9,3.1-24.8c4.5-7,2-23.6-1.9-30
	c-3.8-6.4-13.9-31.9-17.7-51c-3.1-15.9-27.1-81.2-35-102.7c-1.2-3.3,1.2-6.9,4.8-6.9l126.2,0.3c3.6,0,6,3.6,4.8,6.9
	c-8.1,21.4-32.3,86.6-35.5,102.5c-3.9,19.1-14.1,44.6-18,50.9c-3.8,6.4-6.4,22.9-2,30c4.4,6.9,10.5,13.9,3,24.8
	c-0.3,0.5-0.6,0.9-0.7,1.5c-1,3.6-5.3,18.9-5.1,25.2c0.2,7,9.2,22.6,14.7,25.8c5.2,3.1,21.1,7.8,22.8,8.3c0.1,0,0.2,0.1,0.3,0.1
	C949.7,303.2,1002,315.1,898.5,314.8z"/>
<path class="st12" d="M1047.1,189.6v101.1c0,0,16.4,7.2,26.1,10.7c8.8,3.2,30.8,14.5-32.3,14.5s-41.1-11.3-32.3-14.5
	c9.7-3.5,26-10.7,26-10.7V189.6c0,0-3.9-2.4-12.9-8.9c-10.2-7.4-27.4-26.8-33.9-48.7c-6.6-21.9,9.9-105.6,9.9-105.6h86.5
	c0,0,16.4,83.8,9.9,105.6c-6.6,21.9-23.7,41.3-33.9,48.7C1051,187.2,1047.1,189.6,1047.1,189.6z"/>
<path class="st12" d="M1192.3,166c0,6.3-0.4,117.8-0.4,117.8l25.6,14.7c0,0,44.2,16.3-32.6,16.3s-32.6-16.3-32.6-16.3l25.6-14.7
	c0,0-0.4-111.5-0.4-117.8s-3.1-8-8.5-11.4s-25-14.8-35.1-32.4s12.4-95.9,12.4-95.9h77.3c0,0,22.5,78.4,12.4,95.9
	c-10.1,17.6-29.7,29-35.1,32.4C1195.4,158,1192.3,159.7,1192.3,166z"/>
<path class="st12" d="M1332.9,206.7c0,4.6,0,69.5,0,69.5s15.3,22.4,24.2,23s44.4,15.5-32.5,15.5c-76.9,0-41.4-14.9-32.5-15.5
	s24.2-23,24.2-23s0-65,0-69.5c0-4.6-3.6-7.7-3.6-7.7c-1.6-16.3-19.1-29.2-43.9-55.9c-24.7-26.7,8-99.8,8-99.8h95.7
	c0,0,32.7,73.1,8,99.8c-24.7,26.7-42.3,39.6-43.9,55.9C1336.5,199,1332.9,202.1,1332.9,206.7z"/>
<path class="st26" d="M-1055.4,1574.6h-118.2c-10.7,0-19.4-8.7-19.4-19.4V1437c0-10.7,8.7-19.4,19.4-19.4h118.2
	c10.7,0,19.4,8.7,19.4,19.4v118.2C-1036,1565.9-1044.7,1574.6-1055.4,1574.6z"/>
<path class="st4" d="M-1192.9,1469.1v86.2c0,10.7,8.7,19.4,19.4,19.4h118.2c10.7,0,19.4-8.7,19.4-19.4v-86.2H-1192.9z"/>
<text transform="matrix(1 0 0 1 -1138.1827 1451.1864)" class="st4" style="font-family:'Cloud-Bold'; font-size:26px;">DAY</text>
<g>
	<path class="st12" d="M1778.7,887.4c0,6.3-0.4,117.8-0.4,117.8l25.6,14.7c0,0,44.2,16.3-32.6,16.3c-65.3,0-24.6-16.3-24.6-16.3
		l25.6-14.7c0,0-0.4-111.5-0.4-117.8s-3.1-8-8.5-11.4s-25-14.8-35.1-32.4c-10.1-17.6,12.4-95.9,12.4-95.9h69.3
		c0,0,22.5,78.4,12.4,95.9c-10.1,17.6-29.7,29-35.1,32.4C1781.8,879.3,1778.7,881.1,1778.7,887.4z"/>
	
		<linearGradient id="SVGID_6_" gradientUnits="userSpaceOnUse" x1="1813.5001" y1="-481.0356" x2="1813.0392" y2="-489.8011" gradientTransform="matrix(1 0 0 -1 0 336.9701)">
		<stop  offset="0" style="stop-color:#AE4F6F"/>
		<stop  offset="1" style="stop-color:#6C365E"/>
	</linearGradient>
	<path class="st27" d="M1811.6,823c-0.3-1.5,0.2-3,1.3-4.1c0.2-0.2,0.4-0.4,0.7-0.4c0.7-0.1,1.3,0.6,1.4,1.3c0.3,1.4-0.7,3-2.2,3.4
		c-0.5,0.1-1.1,0-1.3-0.4"/>
	
		<linearGradient id="SVGID_7_" gradientUnits="userSpaceOnUse" x1="1775.3231" y1="-483.2997" x2="1775.3231" y2="-535.777" gradientTransform="matrix(1 0 0 -1 0 336.9701)">
		<stop  offset="0" style="stop-color:#AE4F6F"/>
		<stop  offset="1" style="stop-color:#6C365E"/>
	</linearGradient>
	<path class="st28" d="M1817.3,836.5c-0.7,0.1-1.3,0.5-2,0.8s-1.6,0.4-2.3,0.2c-0.1,0-0.2,0-0.3-0.1c-0.1-0.1-0.1-0.1-0.1-0.2
		c0-0.1,0-0.1,0-0.2c0-1.9,0.2-4.1-2.1-5.3c-0.7-0.3-1.4-0.5-2.1-0.5c-2.4,0-4.4,1.4-6.5,2.5c-3.5,1.9-7.3,3-11.2,3.5h-13.2
		c-4.4-0.5-8.7-1.3-13-2.2c-1.8-0.4-3.7-0.8-5.1-1.9c-1.1-0.9-1.9-2.1-2.9-3.1s-2.5-1.8-3.9-1.3c-0.7,0.2-1.2,0.7-1.9,0.9
		c-1.1,0.3-2.2-0.1-3.2-0.5c-1.6-0.7-3.2-1.3-4.5-2.4c-2-1.6-3.7-4.1-6.6-3.4c-1.2,0.3-2.2,1.1-2.8,2.1c-6.3,9.8,5,20.6,11.6,26.7
		c5.5,5.1,11.6,9.3,18,13.2c0.9,0.5,1.7,1,2.4,1.5c7.6,5,9.3,5.8,11.6,5.8c2,0,6.1-3,10.1-5.8c0.7-0.5,1.5-1,2.4-1.5
		c0.5-0.3,1-0.6,1.5-0.9c5-3.1,9.8-6.5,14.3-10.4c2.9-2.6,5.7-5.3,8.2-8.3c1.3-1.6,2.5-3.2,3.6-4.9
		C1817.8,839.9,1820.4,836.2,1817.3,836.5z"/>
</g>
<g>
	<path class="st12" d="M1282.9,891.9c4.9,0,8.9,4.1,8.7,9l-4.6,115c0,0-1.1,21.5-15.8,21.5c-20.6,0-34.5,0-34.5,0s-13.9,0-34.5,0
		c-14.7,0-15.8-21.5-15.8-21.5l-4.6-115c-0.2-4.9,3.7-9,8.7-9H1282.9z"/>
	<path class="st29" d="M1202.8,941.2c-6.7,0-12.1,3.8-11.8,8.5l2.9,51.1c0,0,0.9,12.4,13.3,12.4c17.3,0,28.9,0,28.9,0s11.7,0,28.9,0
		c12.3,0,13.3-12.4,13.3-12.4l2.9-51.1c0.3-4.6-5.1-8.5-11.8-8.5H1202.8z"/>
	<path class="st30" d="M1219.1,961.8l-13.1-8.9c-2.6-1.8-3.3-5.4-1.5-8l8.9-13.1c1.8-2.6,5.4-3.3,8-1.5l13.1,8.9
		c2.6,1.8,3.3,5.4,1.5,8l-8.9,13.1C1225.3,962.9,1221.7,963.6,1219.1,961.8z"/>
	<path class="st30" d="M1261.7,949.2l-7,2.1c-2,0.6-4-0.5-4.6-2.5l-2.1-7c-0.6-2,0.5-4,2.5-4.6l7-2.1c2-0.6,4,0.5,4.6,2.5l2.1,7
		C1264.8,946.6,1263.7,948.6,1261.7,949.2z"/>
</g>
<path class="st7" d="M1646.1,1020.6l-20.2-11.6c0,0,0.3-67.4,0.3-87.6l45.4-63h-96.1l45.3,62.8c0.1,20,0.3,87.7,0.3,87.7l-20.2,11.6
	c0,0-32.1,12.9,19.4,12.9C1681,1033.5,1646.1,1020.6,1646.1,1020.6z"/>
<linearGradient id="SVGID_8_" gradientUnits="userSpaceOnUse" x1="1623.6489" y1="-544.715" x2="1623.6489" y2="-577.6685" gradientTransform="matrix(1 0 0 -1 0 336.9701)">
	<stop  offset="0" style="stop-color:#14AFAB"/>
	<stop  offset="1" style="stop-color:#227893"/>
</linearGradient>
<polygon class="st31" points="1647.4,881.7 1623.6,914.6 1599.8,881.7 "/>
<path class="st32" d="M1649.3,869.6c5.3-4.6,5.8-12.7,1.2-18c-4.6-5.3-12.7-5.8-18-1.2"/>
<polygon class="st33" points="1639.6,858.4 1632.2,858.4 1632.2,861.4 1642.3,861.4 "/>
<polygon class="st7" points="1645.2,864.8 1645.2,858.4 1639.6,858.4 1642.2,861.4 "/>
<g>
	<path class="st7" d="M-734.4,296.4l-32.3-18.6c0,0,0.5-107.9,0.5-140.3l72.7-100.9h-153.9l72.5,100.6c0.2,32,0.5,140.4,0.5,140.4
		l-32.3,18.6c0,0-51.4,20.7,31.1,20.7C-678.5,317.1-734.4,296.4-734.4,296.4z"/>
	
		<linearGradient id="SVGID_9_" gradientUnits="userSpaceOnUse" x1="-770.4191" y1="262.9406" x2="-770.4191" y2="210.1761" gradientTransform="matrix(1 0 0 -1 0 336.9701)">
		<stop  offset="0" style="stop-color:#14AFAB"/>
		<stop  offset="1" style="stop-color:#227893"/>
	</linearGradient>
	<polygon class="st34" points="-732.3,74 -770.4,126.7 -808.5,74 	"/>
	<polygon class="st33" points="-744.8,36.7 -756.7,36.7 -756.7,41.5 -740.6,41.5 	"/>
	<g>
		<path class="st32" d="M-729.3,54.7c8.5-7.4,9.3-20.3,1.9-28.8c-7.4-8.5-20.3-9.3-28.8-1.9"/>
		<polygon class="st7" points="-736,47 -736,36.7 -744.9,36.7 -740.7,41.5 		"/>
	</g>
</g>
<path class="st35" d="M-2960.3,90.7c-0.6-0.8-2.8-5.7-5.3-10.7c-1.7-3.4-1.8-7.2-1.7-9.3c0-0.9,0.4-1.6,0.9-2.3
	c0.4-0.5,0.8-1.4,0.8-2.8c0-2.8-55.6-3.9-55.6-3.9s-55.6,1.1-55.6,3.9c0,1.4,0.4,2.3,0.8,2.8c0.5,0.7,0.9,1.5,0.9,2.3
	c0.1,2.1,0,5.9-1.7,9.3c-2.5,5-4.6,9.9-5.3,10.7c-0.6,0.8,0,15.1,0,18.7v151.9c0,1,0.4,1.9,1,2.7c1.1,1.2,3.1,3.1,5.7,4.7
	c2.4,1.4,4.1,2.7,5.1,3.5c0.7,0.6,1.3,1.4,1.4,2.3l0,0c0.1,0.5,0.3,0.9,0.5,1.3l1.1,1.7c0.7,1.1,1.8,1.7,3,1.8
	c7.4,0.6,33.5,2.5,42.9,2.5c9.8,0,35.6-1.9,42.9-2.5c1.2-0.1,2.4-0.8,3-1.8l1.1-1.7c0.3-0.4,0.4-0.9,0.5-1.3l0,0
	c0.2-0.9,0.7-1.8,1.4-2.3c1-0.8,2.7-2,5.1-3.5c2.6-1.6,4.6-3.5,5.7-4.7c0.7-0.7,1-1.7,1-2.7v-152
	C-2960.3,105.8-2959.7,91.5-2960.3,90.7z"/>
<path class="st36" d="M-3065,272.4c0,0,50.3,5.5,87.7,0"/>
<rect x="-3073.9" y="160.3" class="st37" width="105.5" height="26.5"/>
<path class="st36" d="M-3070.5,68.3c0,0,40.7,4.1,98.6,0"/>
<path class="st37" d="M-3052.9,186.8h63.5c-3.5,24-16.4,41.8-31.7,41.8S-3049.4,210.8-3052.9,186.8z"/>
<path class="st37" d="M-2989.5,160.3h-63.5c3.5-24,16.4-41.8,31.7-41.8C-3005.8,118.5-2993,136.3-2989.5,160.3z"/>
<path d="M-1542.6,1776.6h-23.1v-106c0-6.4,5.2-11.6,11.6-11.6l0,0c6.4,0,11.6,5.2,11.6,11.6L-1542.6,1776.6L-1542.6,1776.6z"/>
<path d="M-1450.1,1788.2L-1450.1,1788.2c0,6.4-5.2,11.6-11.6,11.6h-307c-6.4,0-11.6-5.2-11.6-11.6l0,0c0-6.4,5.2-11.6,11.6-11.6
	h307.1C-1455.3,1776.6-1450.1,1781.8-1450.1,1788.2z"/>
<path d="M-925,1982.8L-925,1982.8c0,6.4-5.2,11.6-11.6,11.6h-307.1c-6.4,0-11.6-5.2-11.6-11.6l0,0c0-6.4,5.2-11.6,11.6-11.6h307.1
	C-930.2,1971.2-925,1976.4-925,1982.8z"/>
<path d="M-1514.1,1672.6L-1514.1,1672.6c-4.5,4.5-11.8,4.5-16.3,0l-99.2-99.2c-4.5-4.5-4.5-11.8,0-16.3l0,0c4.5-4.5,11.8-4.5,16.3,0
	l99.2,99.2C-1509.6,1660.8-1509.6,1668.1-1514.1,1672.6z"/>
<path d="M-1730,1672.6L-1730,1672.6c4.5,4.5,11.8,4.5,16.3,0l99.2-99.2c4.5-4.5,4.5-11.8,0-16.3l0,0c-4.5-4.5-11.8-4.5-16.3,0
	l-99.2,99.2C-1734.5,1660.8-1734.5,1668.1-1730,1672.6z"/>
<path d="M-1678.6,1776.6h-23.1v-106c0-6.4,5.2-11.6,11.6-11.6l0,0c6.4,0,11.6,5.2,11.6,11.6L-1678.6,1776.6L-1678.6,1776.6z"/>
<path d="M-1617.9,1776.6h-43.1v-52.4c0-11.9,9.7-21.6,21.6-21.6l0,0c11.9,0,21.6,9.7,21.6,21.6L-1617.9,1776.6L-1617.9,1776.6z"/>
<path d="M-1031.9,1847.5h-109.4c-4.3,0-7.9,3.5-7.9,7.9l0,0c0,13.9-11.3,25.2-25.2,25.2l0,0c-10.3,0-18.6,8.3-18.6,18.6v33.7h196.6
	c13.8,0,24.9-11.2,24.9-24.9l0,0C-971.4,1874.6-998.5,1847.5-1031.9,1847.5z"/>
<path d="M-994,1869.8h-38.5c-8.7,0-15.8-7.1-15.8-15.8v-38.5c0-8.7,7.1-15.8,15.8-15.8h38.5c8.7,0,15.8,7.1,15.8,15.8v38.5
	C-978.2,1862.8-985.3,1869.8-994,1869.8z"/>
<g>
	<path class="st7" d="M-241.2,99.1c-12.3,13.9-52.3,27.8-58,37.6c0,0-0.4,8.6-9.1,9.1c0,0-4.5,3.2-4.5,13.2s-4.3,112,0,116.3
		s36.7,14.1,42.2,15.9s38.8,25-54,25s-59.4-23.2-54-25c5.5-1.8,37.9-11.6,42.2-15.9s0-106.3,0-116.3s-4.6-13.2-4.6-13.2
		c-8.6-0.5-9.1-9.1-9.1-9.1c-5.7-9.8-45.8-23.7-58-37.6c-12.3-13.9-9-46.6-9-46.6h184.8C-232.2,52.5-228.9,85.2-241.2,99.1z"/>
	<g>
		<path class="st32" d="M-261.1,69.9c8.5-7.4,9.3-20.3,1.9-28.8c-7.4-8.5-20.3-9.3-28.8-1.9"/>
		<polygon class="st7" points="-267.8,62.2 -267.8,52 -276.7,52 -272.5,56.8 		"/>
	</g>
	<linearGradient id="SVGID_10_" gradientUnits="userSpaceOnUse" x1="-324.6683" y1="74.0295" x2="-324.6683" y2="139.6634">
		<stop  offset="0" style="stop-color:#14AFAB"/>
		<stop  offset="1" style="stop-color:#227893"/>
	</linearGradient>
	<path class="st38" d="M-393.1,74c-4.8,0-8.4,4.3-7.5,9c1.1,6.1,3.1,12.2,6.7,16.2c9.2,10.5,37.5,21,46.2,28.9
		c1.1,1,1.9,2.4,2.3,3.8c0.6,2.1,2.2,5.8,7.3,6.1c10.1,3.8,23.9,0.8,26.7,0.1c0.4-0.1,0.7-0.1,1.1-0.2c4.6-0.5,6.2-3.9,6.7-6
		c0.4-1.5,1.1-2.9,2.3-3.9c8.7-7.9,36.9-18.4,46.2-28.9c3.6-4.1,5.6-10.1,6.7-16.3c0.8-4.7-2.8-9-7.5-9H-393.1z"/>
</g>
<g>
	<path class="st7" d="M23.9,315.8c-37.3-5.2-19.8-13.9-19.8-13.9l25.9-9.8v-107c-12.1-6.8-20.5-22.5-20.5-22.5
		c-14-24.2-5.4-143.7-5.4-143.7h60.6c0,0,8.6,119.5-5.4,143.7c0,0-8.4,15.6-20.5,22.5v107l25.9,9.8c0,0,17.5,8.7-19.8,13.9
		C38,316.8,30.9,316.8,23.9,315.8z"/>
	<g>
		<path class="st32" d="M59.5,36.8c8.5-7.4,9.3-20.3,1.9-28.8C54.1-0.5,41.1-1.3,32.6,6"/>
		<polygon class="st7" points="52.8,29.1 52.8,18.8 43.8,18.8 48,23.6 		"/>
	</g>
	<linearGradient id="SVGID_11_" gradientUnits="userSpaceOnUse" x1="34.4011" y1="49.7021" x2="34.4011" y2="176.4854">
		<stop  offset="0" style="stop-color:#14AFAB"/>
		<stop  offset="1" style="stop-color:#227893"/>
	</linearGradient>
	<path class="st39" d="M15.5,52c-2.9,0-5.3,2.3-5.4,5.1c-1.4,27.4-3.2,85.1,5,99.6c0,0,6.5,12.5,15.9,17.9c2,1.3,4.8,0.6,6.1,0.2
		c0.4-0.1,0.8-0.3,1.2-0.5c9.1-5.6,15.4-17.6,15.4-17.6c8.2-14.5,6.4-72.2,5-99.6c-0.1-2.9-2.5-5.1-5.4-5.1H15.5z"/>
</g>
<g>
	<path class="st7" d="M380.2,90c6.4,48.4,20.4,121.1,1.3,140.2c-12.4,12.4-18.3,19.6-20.9,23.1c-1.2,1.6-1.6,3.6-1.1,5.5
		c1.2,5.2,3.3,16.3,0.7,21c-0.9,1.7-1.8,3.3-2.5,4.9c-1.8,3.9,0.5,8.5,4.7,9.4l17.8,3.9c0.2,0,0.4,0.1,0.7,0.2
		c4.1,1.3,41,14.1-33.3,18.8c-0.3,0-0.6,0-0.9,0c-74.3-4.7-37.3-17.5-33.3-18.8c0.2-0.1,0.4-0.1,0.7-0.2l17.8-3.9
		c4.2-0.9,6.5-5.5,4.7-9.4c-0.7-1.5-1.5-3.2-2.5-4.9c-2.6-4.8-0.5-15.8,0.7-21c0.4-1.9,0-3.9-1.1-5.5c-2.6-3.5-8.5-10.7-20.9-23.1
		c-19.1-19.1-5.1-91.8,1.3-140.2c3.8-29-3.8-48-10.5-58.5c-2.9-4.5,0.4-10.3,5.7-10.3h76c5.3,0,8.5,5.9,5.7,10.3
		C384,42,376.4,60.9,380.2,90z"/>
	<g>
		<path class="st32" d="M378.3,39.1c8.5-7.4,9.3-20.3,1.9-28.8c-7.4-8.5-20.3-9.3-28.8-1.9"/>
		<polygon class="st7" points="371.6,31.4 371.6,21.2 362.6,21.2 366.8,26 		"/>
	</g>
	<linearGradient id="SVGID_12_" gradientUnits="userSpaceOnUse" x1="347.0417" y1="45.0617" x2="347.0417" y2="245.1524">
		<stop  offset="0" style="stop-color:#14AFAB"/>
		<stop  offset="1" style="stop-color:#227893"/>
	</linearGradient>
	<path class="st40" d="M370.7,45.8h-47.2c-2.4,0-4.1,2.3-3.5,4.6c2.6,9.6,4.2,22.4,2.4,38.6c-4.8,43.6-15.2,109.1-1,126.3
		c8.9,10.8,13.3,17.2,15.4,20.4c0.2,0.2,0.3,0.5,0.5,0.7c8.8,8.8,17.5,1.8,19.4,0.1c0.2-0.2,0.5-0.5,0.6-0.8
		c2.1-3.3,6.5-9.7,15.4-20.4c14.3-17.2,3.8-82.7-1-126.3c-1.8-16.3-0.2-29,2.4-38.6C374.8,48.1,373.1,45.8,370.7,45.8z"/>
</g>
<linearGradient id="SVGID_13_" gradientUnits="userSpaceOnUse" x1="738.0521" y1="-666.4033" x2="738.5541" y2="-397.3135">
	<stop  offset="0" style="stop-color:#14AFAB"/>
	<stop  offset="1" style="stop-color:#227893"/>
</linearGradient>
<path class="st41" d="M771.2-665.9H705c-3,0-5.4,2.6-5.2,5.6l18.9,249.7c0,5.1,8.7,9.2,19.4,9.2c10.7,0,19.4-4.1,19.4-9.2
	l18.9-249.7C776.6-663.4,774.2-665.9,771.2-665.9z"/>
</svg>
