<?xml version="1.0" encoding="utf-8"?>
<!-- Generator: Adobe Illustrator 22.0.1, SVG Export Plug-In . SVG Version: 6.00 Build 0)  -->
<svg version="1.1" id="Layer_1" xmlns="http://www.w3.org/2000/svg" xmlns:xlink="http://www.w3.org/1999/xlink" x="0px" y="0px"
	 viewBox="0 0 93 314.6" style="enable-background:new 0 0 93 314.6;" xml:space="preserve">
<style type="text/css">
	.st0{display:none;}
	.st1{display:inline;fill:#FFFFFF;stroke:#000000;stroke-miterlimit:10;}
	.st2{fill:#707B7F;}
	.st3{fill:#CE403F;}
	.st4{fill:#FFFFFF;}
	.st5{fill:#CD915F;}
	.st6{fill:#AA6628;}
	.st7{opacity:0.5;fill:#F9F9FA;enable-background:new    ;}
	.st8{fill:url(#SVGID_1_);}
	.st9{fill:#DDDDDD;}
	.st10{fill:#F7F7F7;}
	.st11{opacity:0.35;fill:#F4F4F5;enable-background:new    ;}
	.st12{fill:#F9F9FA;stroke:#E2E2E2;stroke-width:3;stroke-miterlimit:10;}
	.st13{fill:url(#SVGID_2_);}
	.st14{opacity:0.6;fill:#F4F4F5;enable-background:new    ;}
	.st15{display:none;fill:#34A6C9;stroke:#1B8EB7;stroke-width:10;stroke-miterlimit:10;}
	.st16{display:none;fill:#F27CA7;stroke:#C94C72;stroke-width:10;stroke-miterlimit:10;}
	.st17{fill:#476269;}
	.st18{fill:#222728;}
	.st19{fill:#DDDDDC;}
	.st20{fill:#F6F7F7;}
	.st21{fill:url(#SVGID_3_);}
	.st22{fill:url(#SVGID_4_);}
	.st23{enable-background:new    ;}
	.st24{opacity:0.84;fill:url(#SVGID_5_);enable-background:new    ;}
	.st25{fill:none;stroke:#E2E2E2;stroke-width:3;stroke-miterlimit:10;}
	.st26{fill:#D95F56;}
	.st27{fill:url(#SVGID_6_);}
	.st28{fill:url(#SVGID_7_);}
	.st29{opacity:0.84;fill:#E8CD2C;enable-background:new    ;}
	.st30{opacity:0.39;fill:#90D7EB;enable-background:new    ;}
	.st31{opacity:0.84;fill:url(#SVGID_8_);enable-background:new    ;}
	.st32{fill:#D2E8C9;stroke:#6EBF59;stroke-width:2;stroke-miterlimit:10;}
	.st33{fill:none;}
	.st34{opacity:0.84;fill:url(#SVGID_9_);enable-background:new    ;}
	.st35{fill:#7AC25B;}
	.st36{fill:none;stroke:#E2E2E2;stroke-miterlimit:10;}
	.st37{fill:#157D3E;stroke:#E2E2E2;stroke-width:3;stroke-miterlimit:10;}
	.st38{opacity:0.84;fill:url(#SVGID_10_);enable-background:new    ;}
	.st39{opacity:0.84;fill:url(#SVGID_11_);enable-background:new    ;}
	.st40{opacity:0.84;fill:url(#SVGID_12_);enable-background:new    ;}
	.st41{opacity:0.84;fill:url(#SVGID_13_);enable-background:new    ;}
</style>
<g id="Layer_1_1_" class="st0">
	<rect x="-1615.2" y="-200.2" class="st1" width="136.5" height="482"/>
</g>
<path class="st2" d="M-1351.6,1577.2h-127c-11.1,0-20.2-9.1-20.2-20.2v-93.6c0-11.1,9.1-20.2,20.2-20.2h127
	c11.1,0,20.2,9.1,20.2,20.2v93.6C-1331.3,1568.1-1340.4,1577.2-1351.6,1577.2z"/>
<rect x="-2080.3" y="-361.6" class="st3" width="658.6" height="188.9"/>
<circle class="st4" cx="-2378.7" cy="87.7" r="6.2"/>
<g>
	<polygon class="st5" points="-1463.4,-623.9 -1505.7,-611.2 -1413.1,-611.2 	"/>
	<polygon class="st5" points="-1125.1,-623.9 -1082.9,-611.2 -1175.5,-611.2 	"/>
	<rect x="-1463.5" y="-623.9" class="st5" width="338.4" height="14.9"/>
	<rect x="-1505.7" y="-611.2" class="st6" width="422.8" height="11.1"/>
</g>
<path class="st7" d="M-2260.4,320.5h-148.8c-11.7,0-21.2-9.5-21.2-21.2V71.6c0-11.7,9.5-21.2,21.2-21.2h148.8
	c11.7,0,21.2,9.5,21.2,21.2v227.7C-2239.2,311-2248.7,320.5-2260.4,320.5z"/>
<linearGradient id="SVGID_1_" gradientUnits="userSpaceOnUse" x1="-2336.3157" y1="249.0369" x2="-2336.3157" y2="24.8153" gradientTransform="matrix(1 0 0 -1 0 332.2739)">
	<stop  offset="0" style="stop-color:#FFCC4C"/>
	<stop  offset="1" style="stop-color:#FEBF4B"/>
</linearGradient>
<path class="st8" d="M-2276.8,308.2h-118.9c-11.7,0-21.2-9.5-21.2-21.2V104.4c0-11.7,9.5-21.2,21.2-21.2h118.8
	c11.7,0,21.2,9.5,21.2,21.2v182.7C-2255.7,298.7-2265.1,308.2-2276.8,308.2z"/>
<circle class="st9" cx="-2392.1" cy="81.6" r="33"/>
<circle class="st9" cx="-2356.5" cy="72" r="23.4"/>
<circle class="st9" cx="-2321.5" cy="81.9" r="23.4"/>
<circle class="st9" cx="-2271.9" cy="77.1" r="28.2"/>
<circle class="st10" cx="-2321.5" cy="72.8" r="23.4"/>
<circle class="st10" cx="-2300.1" cy="62.9" r="11.7"/>
<path class="st10" d="M-2379.8,62.9c0-1.5,0.1-2.9,0.4-4.3h-42.7c-2,4.2-3.1,9-3.1,14c0,18.2,14.8,33,33,33
	c13.6,0,25.3-8.2,30.3-19.9C-2372.1,83.2-2379.8,73.9-2379.8,62.9z"/>
<path class="st10" d="M-2359.1,72.5c0,4.6-1,9.1-2.7,13.1c1.7,0.4,3.5,0.6,5.4,0.6c12.9,0,23.4-10.5,23.4-23.4
	c0-1.5-0.1-2.9-0.4-4.3h-28.7C-2360.3,62.8-2359.1,67.5-2359.1,72.5z"/>
<path class="st10" d="M-2362.2,58.5h-17.2c-0.3,1.4-0.4,2.8-0.4,4.3c0,11.1,7.7,20.3,18,22.7c1.7-4,2.7-8.4,2.7-13.1
	C-2359.1,67.5-2360.3,62.8-2362.2,58.5z"/>
<path class="st10" d="M-2245.4,58.5h-53.1c-1.1,3-1.6,6.1-1.6,9.5c0,15.6,12.6,28.2,28.2,28.2s28.2-12.6,28.2-28.2
	C-2243.8,64.7-2244.3,61.5-2245.4,58.5z"/>
<path class="st10" d="M-2516.8,59.4c0,0-0.1-0.1-0.2-0.2C-2516.9,59.2-2516.9,59.3-2516.8,59.4L-2516.8,59.4z"/>
<path class="st10" d="M-2245.4,58.5h-116.8c-2.4-5-5.9-9.3-10.3-12.6c-3.5,3.3-5.9,7.7-6.8,12.6h-42.6c0.5-1.1,1.1-2.2,1.8-3.3
	c4.2-4.6,12.7-12.3,22.7-12.3h55.4c0,0,6.7,0,16,0h55.4c13.2,0,23.9,13.4,25.3,15.3C-2245.4,58.4-2245.4,58.5-2245.4,58.5z"/>
<path class="st10" d="M-2379.4,58.5h17.2c-2.3-5-5.9-9.3-10.3-12.6C-2376,49.3-2378.5,53.6-2379.4,58.5z"/>
<path class="st7" d="M-2182.4,124.4c-2.3-11.7-10.8-20.4-21-20.4h-35.8v22.5h25.3c6,0,10.8,5.9,10.8,13.3v77.3
	c0,7.3-4.8,13.3-10.8,13.3h-25.3v23.4h35.8c10.7,0,19.6-9.6,21.3-22.2c0.2-1.1,0.3-2.2,0.3-3.4v-1l0,0v-96.7l0,0v-1.4
	C-2181.8,127.4-2182,125.9-2182.4,124.4z"/>
<path class="st11" d="M-2383.3,278.1L-2383.3,278.1c-6,0-10.8-4.8-10.8-10.8v-134c0-6,4.8-10.8,10.8-10.8l0,0
	c6,0,10.8,4.8,10.8,10.8v134C-2372.5,273.2-2377.3,278.1-2383.3,278.1z"/>
<path class="st11" d="M-2333.1,278.1L-2333.1,278.1c-6,0-10.8-4.8-10.8-10.8v-134c0-6,4.8-10.8,10.8-10.8l0,0
	c6,0,10.8,4.8,10.8,10.8v134C-2322.3,273.2-2327.1,278.1-2333.1,278.1z"/>
<path class="st11" d="M-2284,274.8L-2284,274.8c-6,0-10.8-4.8-10.8-10.8V130c0-6,4.8-10.8,10.8-10.8l0,0c6,0,10.8,4.8,10.8,10.8v134
	C-2273.2,270-2278.1,274.8-2284,274.8z"/>
<g>
	<circle class="st4" cx="1091.9" cy="860" r="4.7"/>
	<path class="st12" d="M1177.9,1042.2h-104.4c-11.7,0-21.2-9.5-21.2-21.2V856c0-11.7,9.5-21.2,21.2-21.2h104.4
		c11.7,0,21.2,9.5,21.2,21.2v165C1199,1032.7,1189.6,1042.2,1177.9,1042.2z"/>
	
		<linearGradient id="SVGID_2_" gradientUnits="userSpaceOnUse" x1="1124.5081" y1="-527.763" x2="1124.5081" y2="-699.9215" gradientTransform="matrix(1 0 0 -1 0 332.2739)">
		<stop  offset="0" style="stop-color:#FFCC4C"/>
		<stop  offset="1" style="stop-color:#FEBF4B"/>
	</linearGradient>
	<path class="st13" d="M1165.2,1032.8h-81.4c-11.7,0-21.2-9.5-21.2-21.2V881.2c0-11.7,9.5-21.2,21.2-21.2h81.4
		c11.7,0,21.2,9.5,21.2,21.2v130.4C1186.4,1023.3,1176.9,1032.8,1165.2,1032.8z"/>
	
		<ellipse transform="matrix(0.2298 -0.9732 0.9732 0.2298 0.6497 1711.4948)" class="st9" cx="1081.6" cy="855.3" rx="25.3" ry="25.3"/>
	<circle class="st9" cx="1109" cy="847.9" r="17.9"/>
	<circle class="st9" cx="1135.9" cy="855.5" r="17.9"/>
	<circle class="st9" cx="1173.9" cy="851.8" r="21.6"/>
	<circle class="st10" cx="1135.9" cy="848.5" r="17.9"/>
	<circle class="st10" cx="1152.3" cy="840.9" r="9"/>
	<path class="st10" d="M1091.1,840.9c0-1.1,0.1-2.2,0.3-3.3h-32.7c-1.5,3.3-2.4,6.9-2.4,10.7c0,14,11.3,25.3,25.3,25.3
		c10.4,0,19.4-6.3,23.3-15.3C1097,856.5,1091.1,849.4,1091.1,840.9z"/>
	<path class="st10" d="M1107,848.3c0,3.6-0.7,7-2.1,10c1.3,0.3,2.7,0.5,4.1,0.5c9.9,0,17.9-8,17.9-17.9c0-1.1-0.1-2.2-0.3-3.3h-22.1
		C1106.1,840.8,1107,844.5,1107,848.3z"/>
	<path class="st10" d="M1104.6,837.6h-13.2c-0.2,1.1-0.3,2.2-0.3,3.3c0,8.5,5.9,15.6,13.8,17.5c1.3-3.1,2.1-6.5,2.1-10
		C1107,844.5,1106.1,840.8,1104.6,837.6z"/>
	<path class="st10" d="M1194.3,837.6h-40.8c-0.8,2.3-1.3,4.7-1.3,7.3c0,12,9.7,21.6,21.6,21.6s21.6-9.7,21.6-21.6
		C1195.5,842.3,1195.1,839.8,1194.3,837.6z"/>
	<path class="st10" d="M1197.8,841.7c0,0,0-0.1-0.1-0.2C1197.7,841.6,1197.7,841.6,1197.8,841.7L1197.8,841.7z"/>
	<path class="st10" d="M1194.3,837.6h-89.7c-1.8-3.8-4.5-7.2-7.9-9.7c-2.7,2.5-4.6,5.9-5.3,9.7h-32.7c0.4-0.9,0.9-1.7,1.4-2.5
		c3.2-3.5,9.8-9.4,17.5-9.4h42.5c0,0,5.1,0,12.3,0h42.5c10.2,0,18.3,10.3,19.4,11.8C1194.3,837.4,1194.3,837.5,1194.3,837.6z"/>
	<path class="st10" d="M1091.4,837.6h13.2c-1.8-3.8-4.5-7.2-7.9-9.7C1094,830.4,1092.1,833.8,1091.4,837.6z"/>
	<path class="st12" d="M1242.7,891.6c-1.7-9-8.3-15.7-16.1-15.7h-27.5v17.3h19.4c4.6,0,8.3,4.6,8.3,10.2v59.4
		c0,5.6-3.7,10.2-8.3,10.2h-19.4v17.9h27.5c8.2,0,15.1-7.4,16.4-17c0.1-0.8,0.2-1.7,0.2-2.6v-0.8l0,0v-74.2l0,0v-1.1
		C1243.1,893.9,1243,892.7,1242.7,891.6z"/>
	<path class="st14" d="M1088.4,1009.6L1088.4,1009.6c-4.6,0-8.3-3.7-8.3-8.3V898.4c0-4.6,3.7-8.3,8.3-8.3l0,0c4.6,0,8.3,3.7,8.3,8.3
		v102.9C1096.7,1005.9,1093,1009.6,1088.4,1009.6z"/>
	<path class="st14" d="M1126.9,1009.6L1126.9,1009.6c-4.6,0-8.3-3.7-8.3-8.3V898.4c0-4.6,3.7-8.3,8.3-8.3l0,0c4.6,0,8.3,3.7,8.3,8.3
		v102.9C1135.2,1005.9,1131.5,1009.6,1126.9,1009.6z"/>
	<path class="st14" d="M1164.6,1007.1L1164.6,1007.1c-4.6,0-8.3-3.7-8.3-8.3V895.9c0-4.6,3.7-8.3,8.3-8.3l0,0c4.6,0,8.3,3.7,8.3,8.3
		v102.9C1172.9,1003.4,1169.2,1007.1,1164.6,1007.1z"/>
</g>
<path class="st15" d="M-1701.4,708.4v-32.9l5.8,5.8c9.5,9.5,25,9.5,34.5,0s9.5-25,0-34.5l-45-45l-2.9-2.9
	c-4.5-4.5-10.2-6.8-16.1-7.1c-0.2,0-0.5,0-0.8,0c-0.1,0-0.2,0-0.2,0c-0.1,0-0.1,0-0.2,0s-0.1,0-0.2,0c-6.3-0.1-12.7,2.3-17.5,7.2
	l-47.9,47.9c-9.5,9.5-9.5,25,0,34.5s25,9.5,34.5,0l7.1-7.1l0.6,33.7c-34.6,10-59.9,41.9-59.9,79.8c0,45.9,37.2,83.1,83.1,83.1
	s83.1-37.2,83.1-83.1C-1643.4,750.5-1667.7,719.1-1701.4,708.4z M-1726.4,822.9c-19.4,0-35.2-15.8-35.2-35.2s15.8-35.2,35.2-35.2
	c19.4,0,35.2,15.8,35.2,35.2S-1707,822.9-1726.4,822.9z"/>
<path class="st16" d="M-1415.3,750.1c32.4-32.4,32.4-85.1,0-117.5s-85.1-32.4-117.5,0s-32.4,85.1,0,117.5
	c10.6,10.6,23.3,17.7,36.8,21.4v25.9h-9.6c-12.1,0-21.9,9.8-21.9,21.9l0,0c0,12.1,9.8,21.9,21.9,21.9h9.6v9.6
	c0,12.1,9.8,21.9,21.9,21.9l0,0c12.1,0,21.9-9.8,21.9-21.9v-9.6h9.6c12.1,0,21.9-9.8,21.9-21.9l0,0c0-12.1-9.8-21.9-21.9-21.9h-9.6
	v-25.9C-1438.7,767.8-1425.9,760.6-1415.3,750.1z M-1499,666.4c13.8-13.8,36-13.8,49.8,0s13.8,36,0,49.8s-36,13.8-49.8,0
	C-1512.7,702.5-1512.7,680.2-1499,666.4z"/>
<rect x="-1623.9" y="528.1" class="st17" width="578.1" height="600.5"/>
<path class="st4" d="M-1474,706l-59.5,59.5c-6.3,6.3-16.4,6.3-22.7,0l0,0c-6.3-6.3-6.3-16.4,0-22.7l59.5-59.5
	c6.3-6.3,16.4-6.3,22.7,0l0,0C-1467.7,689.6-1467.7,699.7-1474,706z"/>
<path class="st4" d="M-1437.2,765.5l-59.5-59.5c-6.3-6.3-6.3-16.4,0-22.7l0,0c6.3-6.3,16.4-6.3,22.7,0l59.5,59.5
	c6.3,6.3,6.3,16.4,0,22.7l0,0C-1420.8,771.7-1430.9,771.7-1437.2,765.5z"/>
<path class="st4" d="M-1465.5,716.6v75.2c0,11.9-9.6,21.5-21.5,21.5l0,0c-11.9,0-21.5-9.6-21.5-21.5v-75.2
	c0-11.9,9.6-21.5,21.5-21.5l0,0C-1475.1,695.1-1465.5,704.8-1465.5,716.6z"/>
<path class="st4" d="M-1485.3,792.2c-52.3,0-94.6,42.4-94.6,94.6s42.4,94.6,94.6,94.6s94.6-42.4,94.6-94.6
	S-1433.1,792.2-1485.3,792.2z M-1485.3,945c-32.1,0-58.2-26-58.2-58.2c0-32.1,26-58.2,58.2-58.2s58.2,26,58.2,58.2
	C-1427.2,918.9-1453.2,945-1485.3,945z"/>
<path class="st4" d="M-1244.6,959.9V858.5c0-11.9,9.6-21.5,21.5-21.5l0,0c11.9,0,21.5,9.6,21.5,21.5v101.4
	c0,11.9-9.6,21.5-21.5,21.5l0,0C-1235,981.4-1244.6,971.8-1244.6,959.9z"/>
<path class="st4" d="M-1183.3,939.1h-79.7c-11.9,0-21.5-9.6-21.5-21.5l0,0c0-11.9,9.6-21.5,21.5-21.5h79.7
	c11.9,0,21.5,9.6,21.5,21.5l0,0C-1161.8,929.5-1171.4,939.1-1183.3,939.1z"/>
<path class="st4" d="M-1224.8,858.2c52.3,0,94.6-42.4,94.6-94.6s-42.4-94.6-94.6-94.6s-94.6,42.4-94.6,94.6
	S-1277,858.2-1224.8,858.2z M-1224.8,705.4c32.1,0,58.2,26,58.2,58.2c0,32.1-26,58.2-58.2,58.2s-58.2-26-58.2-58.2
	C-1282.9,731.4-1256.9,705.4-1224.8,705.4z"/>
<rect x="-2138.5" y="528.1" class="st18" width="508.9" height="434.6"/>
<path class="st4" d="M-1859.5,705.4l-59.5,59.5c-6.3,6.3-16.4,6.3-22.7,0l0,0c-6.3-6.3-6.3-16.4,0-22.7l59.5-59.5
	c6.3-6.3,16.4-6.3,22.7,0l0,0C-1853.3,689-1853.3,699.1-1859.5,705.4z"/>
<path class="st4" d="M-1822.7,764.9l-59.5-59.5c-6.3-6.3-6.3-16.4,0-22.7l0,0c6.3-6.3,16.4-6.3,22.7,0l59.5,59.5
	c6.3,6.3,6.3,16.4,0,22.7l0,0C-1806.3,771.1-1816.5,771.1-1822.7,764.9z"/>
<path class="st4" d="M-1853.3,713.7v79.8c0,10.6-8.6,19.2-19.2,19.2l0,0c-10.6,0-19.2-8.6-19.2-19.2v-79.8
	c0-10.6,8.6-19.2,19.2-19.2l0,0C-1861.9,694.5-1853.3,703.1-1853.3,713.7z"/>
<path class="st19" d="M-1989.1-319.6c-18,0-34.3,7.5-45.7,19.5v83.2c11.4,12,27.6,19.5,45.7,19.5c34.4,0,62.4-27.4,62.4-61.1
	C-1926.8-292.3-1954.7-319.6-1989.1-319.6z"/>
<path class="st19" d="M-1450.7-290.8c-8-8.2-19.5-13.4-32.2-13.4c-24.1,0-43.7,18.4-43.7,41.1s19.6,41.1,43.7,41.1
	c12.8,0,24.3-5.2,32.2-13.4V-290.8z"/>
<ellipse class="st19" cx="-1906.9" cy="-271.6" rx="28" ry="27.5"/>
<ellipse class="st19" cx="-1831.8" cy="-264.2" rx="54.2" ry="53.1"/>
<ellipse class="st19" cx="-1752.6" cy="-268.9" rx="35.9" ry="35.2"/>
<ellipse class="st19" cx="-1687.4" cy="-284.8" rx="33.6" ry="32.9"/>
<ellipse class="st19" cx="-1653.2" cy="-261.4" rx="38.4" ry="37.6"/>
<ellipse class="st19" cx="-1590.5" cy="-270" rx="38" ry="37.3"/>
<ellipse class="st19" cx="-1541.3" cy="-281.4" rx="23.2" ry="22.7"/>
<path class="st19" d="M-1450.7-266h-583.1c2.2-15.3,1.6-11,3.5-24.2l0,0c0-13.3,12.2-24.2,27.2-24.2h521.7c15,0,27.2,10.8,27.2,24.2
	l0,0C-1453-278.1-1453-278.4-1450.7-266z"/>
<circle class="st20" cx="-1906.9" cy="-283.8" r="28"/>
<circle class="st20" cx="-1831.8" cy="-276.2" r="54.2"/>
<circle class="st20" cx="-1752.6" cy="-281.1" r="35.9"/>
<circle class="st20" cx="-1687.4" cy="-297.3" r="33.6"/>
<circle class="st20" cx="-1653.2" cy="-273.4" r="38.4"/>
<circle class="st20" cx="-1590.5" cy="-282.2" r="38"/>
<circle class="st20" cx="-1541.3" cy="-293.8" r="23.2"/>
<rect x="-2034.6" y="-337.3" class="st20" width="583.9" height="61.1"/>
<path class="st20" d="M-1450.7-304c-8-8.4-19.5-13.7-32.2-13.7c-24.1,0-43.7,18.8-43.7,41.9c0,23.2,19.6,41.9,43.7,41.9
	c12.8,0,24.3-5.3,32.2-13.7V-304z"/>
<path class="st20" d="M-1989.1-334.7c-18,0-34.3,7.7-45.7,19.9v84.9c11.4,12.2,27.6,19.9,45.7,19.9c34.4,0,62.4-27.9,62.4-62.4
	C-1926.8-306.7-1954.7-334.7-1989.1-334.7z"/>
<image style="display:none;overflow:visible;enable-background:new    ;" width="2056" height="494" xlink:href="3A5493CF106F7BE9.png"  transform="matrix(0.5771 0 0 0.5771 -2327.7197 -136.4825)">
</image>
<path class="st7" d="M-2471.1,289.1c1.4,1.9,2.6,3.6,3.7,5.2c6,8.5,2.2,20.3-7.8,23.9c-8.4,3-21.4,5.2-41.4,4.8
	c-20.1,0.4-33.1-1.8-41.5-4.8c-10-3.5-13.8-15.4-7.8-23.9c1.1-1.6,2.3-3.3,3.7-5.2c8.4-11.5,11-58.3,7.8-119.2
	c-2.6-49.2-25.6-180.6-34.4-229.4c-1.7-9.7,5.9-18.6,16-18.6h112.2c10.1,0,17.8,8.9,16,18.6c-8.8,48.8-31.8,180.2-34.4,229.4
	C-2482.1,230.9-2479.5,277.7-2471.1,289.1z"/>
<g>
	
		<linearGradient id="SVGID_3_" gradientUnits="userSpaceOnUse" x1="-2516.6655" y1="363.0031" x2="-2516.6655" y2="60.4397" gradientTransform="matrix(1 0 0 -1 0 332.2739)">
		<stop  offset="0" style="stop-color:#FFCC4C"/>
		<stop  offset="1" style="stop-color:#FEBF4B"/>
	</linearGradient>
	<path class="st21" d="M-2487.5,159.1c2-38,19.8-139.3,26.5-177c1.3-7.5-4.6-14.3-12.4-14.3h-86.5c-7.8,0-13.7,6.8-12.4,14.3
		c6.8,37.6,24.5,139,26.5,177c0.9,16.3,1.2,79.1,1,92c-0.2,15.3,11.4,19.1,26.6,19.9c0.5,0,1,0,1.5,0s1,0,1.5,0
		c15.2-0.8,26.9-4.6,26.6-19.9C-2488.6,238.1-2488.3,175.3-2487.5,159.1z"/>
</g>
<circle class="st14" cx="-2481.7" cy="-10.2" r="6.1"/>
<ellipse transform="matrix(0.1256 -0.9921 0.9921 0.1256 -2247.2769 -2414.1992)" class="st14" cx="-2493.2" cy="67.8" rx="53" ry="6.1"/>
<g>
	<path class="st7" d="M-2905.6,308.1c0.8,2.1,0.1,4-1.5,5.5c-3.6,3.2-9.4,4.2-14,5c-11.5,1.9-23.2,2-34.8,1.9
		c-11.6,0.1-23.4,0-34.8-1.9c-4.6-0.8-10.4-1.7-14-5c-1.6-1.5-2.3-3.4-1.5-5.5c0.8-2,2.5-3.5,4.7-3.8c1.3-0.2,2.6-0.3,4-0.5
		c5.2-0.9,10.2-2.7,15-4.9c13.4-6,22-13.8,22-13.8s0.8-103,0.8-121.9s-38.2-28.4-54-46.5c-16-18.2,18.3-106.6,18.3-106.6h78.9
		c0,0,36.7,86.7,20.9,104.8c-15.8,18.2-56.4,29.3-56.4,48.2s0.8,121.9,0.8,121.9s8.5,7.8,22,13.8c4.8,2.1,9.8,3.9,15,4.9
		c1.3,0.2,2.6,0.3,4,0.5C-2908.1,304.5-2906.4,306.1-2905.6,308.1z"/>
	
		<linearGradient id="SVGID_4_" gradientUnits="userSpaceOnUse" x1="-2954.8418" y1="300.9651" x2="-2954.8418" y2="190.7563" gradientTransform="matrix(1 0 0 -1 0 332.2739)">
		<stop  offset="0" style="stop-color:#FFCC4C"/>
		<stop  offset="1" style="stop-color:#FEBF4B"/>
	</linearGradient>
	<path class="st22" d="M-2912.3,117.9l-37.7,21.8c-3,1.7-6.8,1.7-9.8,0l-37.7-21.8c-0.3-0.2-0.6-0.3-0.8-0.4
		c-2.2-1-15.2-8.3-5.3-39.8l9.8-38.6c1.1-4.3,5-7.4,9.5-7.4h58.8c4.5,0,8.4,3,9.5,7.4l9.9,38.6c9.9,31.5-3.1,38.8-5.3,39.8
		C-2911.7,117.6-2912,117.8-2912.3,117.9z"/>
	<circle class="st14" cx="-2926.7" cy="54" r="6.1"/>
	<ellipse class="st14" cx="-2926.7" cy="87" rx="6.1" ry="17"/>
</g>
<text transform="matrix(1 0 0 1 -2063.6016 54.0442)" style="font-family:'MyriadPro-Regular'; font-size:72px;">Beer</text>
<image style="display:none;overflow:visible;enable-background:new    ;" width="2056" height="986" xlink:href="3A5493CF106F7BEB.png"  transform="matrix(0.5 0 0 0.5 -2137.3274 1358.4763)">
</image>
<image style="display:none;overflow:visible;enable-background:new    ;" width="2114" height="968" xlink:href="3A5493CF106F7BEE.png"  transform="matrix(0.5 0 0 0.5 -2186.9875 1236.8978)">
</image>
<image style="display:none;overflow:visible;enable-background:new    ;" width="2114" height="968" xlink:href="3A5493CF106F7BEF.png"  transform="matrix(0.5 0 0 0.5 -2349.8423 1187.4097)">
</image>
<text transform="matrix(1 0 0 1 -603.9542 -127.2086)" style="font-family:'MyriadPro-Regular'; font-size:72px;">Cocktail</text>
<image style="display:none;overflow:visible;enable-background:new    ;" width="2056" height="986" xlink:href="3A5493CF106F7BEA.png"  transform="matrix(0.5 0 0 0.5 -800.8387 -352.0919)">
</image>
<image style="display:none;overflow:visible;enable-background:new    ;" width="2114" height="968" xlink:href="3A5493CF106F7BE5.png"  transform="matrix(0.5 0 0 0.5 -850.4987 -473.6704)">
</image>
<image style="display:none;overflow:visible;enable-background:new    ;" width="2114" height="968" xlink:href="3A5493CF106F7BE6.png"  transform="matrix(0.5 0 0 0.5 -1013.3535 -523.1585)">
</image>
<path class="st7" d="M344.6-611.2l-5,253.9c-0.1,5.5-3.8,10.2-9.1,11.7c-7.7,2.2-21.6,4.6-45.8,5c-24.2-0.3-38-2.7-45.8-5
	c-5.3-1.5-8.9-6.2-9.1-11.7l-5-253.9c-0.1-7,5.5-12.7,12.4-12.7h94.7C339.1-623.9,344.7-618.1,344.6-611.2z"/>
<linearGradient id="SVGID_5_" gradientUnits="userSpaceOnUse" x1="284.6535" y1="-600.3696" x2="284.6535" y2="-364.9323">
	<stop  offset="0" style="stop-color:#14AFAB"/>
	<stop  offset="1" style="stop-color:#227893"/>
</linearGradient>
<path class="st24" d="M333.9-588.3l-4.1,208.7c-0.1,4.5-3.1,8.4-7.5,9.6c-6.3,1.8-17.8,3.8-37.7,4.1c-19.9-0.2-31.2-2.2-37.7-4.1
	c-4.4-1.2-7.3-5.1-7.5-9.6l-4.1-208.7c-0.1-5.8,4.5-10.4,10.2-10.4h77.9C329.4-598.7,334-593.9,333.9-588.3z"/>
<path class="st7" d="M437.5-342.4c-59.6,0.5-52.6-4.3-34.3-14.3c16.8-9.2,12.4-29.6,11.5-32.8c-0.1-0.3-0.1-0.7-0.2-1l-22.3-295.3
	c-0.3-3.5,2.5-6.6,6.1-6.6h78.3c3.6,0,6.4,3,6.1,6.6l-22.3,295.3c0,0.3-0.1,0.7-0.2,1c-0.8,3.3-5.3,23.7,11.5,32.8
	C490-346.7,497.1-341.9,437.5-342.4z"/>
<image style="display:none;overflow:visible;enable-background:new    ;" width="2056" height="986" xlink:href="3A5493CF106F7BE7.png"  transform="matrix(0.5 0 0 0.5 -800.8387 516.5862)">
</image>
<image style="display:none;overflow:visible;enable-background:new    ;" width="2114" height="968" xlink:href="3A5493CF106F7BF9.png"  transform="matrix(0.5 0 0 0.5 -850.4987 395.0078)">
</image>
<image style="display:none;overflow:visible;enable-background:new    ;" width="2114" height="968" xlink:href="6E395CED601CE8B2.png"  transform="matrix(0.5 0 0 0.5 -1013.3535 345.5196)">
</image>
<text transform="matrix(1 0 0 1 -603.9535 745.4471)" style="font-family:'MyriadPro-Regular'; font-size:72px;">Lhao</text>
<path class="st12" d="M-597.9,1018.2c-23.7,31.1-43,36.1-53.2,41.7s-16.2,26.8,3.2,30.9c19.4,4.2,27.9,6.7,27.9,6.7
	s35.7,18.2-50,18.2c-86.4,0-50-18.2-50-18.2s8.4-2.5,27.8-6.7c19.4-4.1,13.4-25.4,3.2-30.9c-10.2-5.6-29.4-10.5-53.2-41.7
	c-23.7-31.1,24.6-122.1,24.6-122.1h95C-622.5,896.1-574.2,987-597.9,1018.2z"/>
<path class="st25" d="M-518.2,1115.7c-66.8-0.8-42.6-10.7-26.2-11.9c16.4-1.2,21.7-15.2,21.7-15.2s-0.8-91.8,0-107.3
	c0.8-15.6-11.7-23.3-11.7-23.3c-30.1-32-16.2-104.1-16.2-104.1h64.7c0,0,13.9,72.1-16.2,104.1c0,0-12.5,7.8-11.7,23.3
	c0.8,15.6,0,107.3,0,107.3s5.3,13.9,21.7,15.2C-475.6,1105.1-451.4,1114.9-518.2,1115.7z"/>
<path class="st12" d="M-408.3,1115.7c-39.6,0-30.4-5.9-23.1-9.4c7-3.4,15.4-9.1,15.4-9.1l1.3-28.9c0.9-20.1-4.1-22.3-8.8-29.2
	c-4.7-6.9-5.6-11.3-10-27.3c-4.4-16-1.9-68.1-1.9-68.1h54.4c0,0,2.5,52.1-1.9,68.1c-4.4,16-5.3,20.4-10,27.3s-9.7,9.1-8.8,29.2
	l1.3,28.9c0,0,8.4,5.7,15.4,9.1C-377.9,1109.8-368.7,1115.7-408.3,1115.7z"/>
<path class="st12" d="M-270.5,994.7c4.1,0,7.4,3.4,7.2,7.5l-3.8,95.7c0,0-0.9,17.9-13.2,17.9c-17.1,0-28.7,0-28.7,0s-11.6,0-28.7,0
	c-12.3,0-13.2-17.9-13.2-17.9l-3.8-95.7c-0.2-4.1,3.1-7.5,7.2-7.5L-270.5,994.7L-270.5,994.7z"/>
<ellipse class="st14" cx="-340" cy="1055.2" rx="2.7" ry="39.4"/>
<ellipse class="st14" cx="-329.9" cy="1055.2" rx="2.7" ry="39.4"/>
<ellipse class="st14" cx="-312.9" cy="1055.2" rx="2.7" ry="39.4"/>
<ellipse class="st14" cx="-302.5" cy="1055.2" rx="2.7" ry="39.4"/>
<ellipse class="st14" cx="-285.3" cy="1055.2" rx="2.7" ry="39.4"/>
<ellipse class="st14" cx="-277.1" cy="1055.2" rx="2.7" ry="39.4"/>
<path class="st14" d="M-333.8,1101.9c-0.7,0-1.3,4.6-1.7,12.3h3.5C-332.5,1106.5-333.1,1101.9-333.8,1101.9z"/>
<path class="st14" d="M-307.6,1100.2c-0.7,0-1.4,5.3-1.8,13.9h3.7C-306.2,1105.5-306.9,1100.2-307.6,1100.2z"/>
<path class="st14" d="M-281.4,1101.9c-0.7,0-1.3,4.6-1.7,12.3h3.5C-280.2,1106.5-280.8,1101.9-281.4,1101.9z"/>
<image style="display:none;overflow:visible;enable-background:new    ;" width="2056" height="986" xlink:href="6E395CED601CE8B5.png"  transform="matrix(0.5 0 0 0.5 547.337 516.5862)">
</image>
<image style="display:none;overflow:visible;enable-background:new    ;" width="2114" height="968" xlink:href="6E395CED601CE8B6.png"  transform="matrix(0.5 0 0 0.5 497.6769 395.0078)">
</image>
<image style="display:none;overflow:visible;enable-background:new    ;" width="2114" height="968" xlink:href="6E395CED601CE8B4.png"  transform="matrix(0.5 0 0 0.5 334.8222 345.5196)">
</image>
<image style="display:none;overflow:visible;enable-background:new    ;" width="2056" height="986" xlink:href="6E395CED601CE8B3.png"  transform="matrix(0.5 0 0 0.5 547.337 -352.0919)">
</image>
<image style="display:none;overflow:visible;enable-background:new    ;" width="2114" height="968" xlink:href="6E395CED601CE8AD.png"  transform="matrix(0.5 0 0 0.5 497.6769 -473.6704)">
</image>
<image style="display:none;overflow:visible;enable-background:new    ;" width="2114" height="968" xlink:href="6E395CED601CE8AE.png"  transform="matrix(0.5 0 0 0.5 334.8222 -523.1585)">
</image>
<text transform="matrix(1 0 0 1 650.4987 -127.2089)" style="font-family:'MyriadPro-Regular'; font-size:72px;">Wine</text>
<path class="st12" d="M597.9,312.4c-103.5-0.2-51.2-11.8-48-12.5c0.1,0,0.2,0,0.3-0.1c1.8-0.5,17.6-5.2,22.9-8.2
	c5.5-3.2,14.6-18.7,14.8-25.7c0.2-6.3-4-21.5-5-25.2c-0.2-0.5-0.4-1-0.7-1.5c-7.5-11-1.3-17.9,3.1-24.8c4.5-7,2-23.6-1.9-30
	c-3.8-6.4-13.9-31.9-17.7-51c-3.1-15.9-27.1-81.2-35-102.7c-1.2-3.3,1.2-6.9,4.8-6.9l126.2,0.3c3.6,0,6,3.6,4.8,6.9
	c-8.1,21.4-32.3,86.6-35.5,102.5c-3.9,19.1-14.1,44.6-18,50.9c-3.8,6.4-6.4,22.9-2,30c4.4,6.9,10.5,13.9,3,24.8
	c-0.3,0.5-0.6,0.9-0.7,1.5c-1,3.6-5.3,18.9-5.1,25.2c0.2,7,9.2,22.6,14.7,25.8c5.2,3.1,21.1,7.8,22.8,8.3c0.1,0,0.2,0.1,0.3,0.1
	C649.1,300.8,701.4,312.7,597.9,312.4z"/>
<path class="st12" d="M746.5,187.2v101.1c0,0,16.4,7.2,26.1,10.7c8.8,3.2,30.8,14.5-32.3,14.5S699.2,302.2,708,299
	c9.7-3.5,26-10.7,26-10.7V187.2c0,0-3.9-2.4-12.9-8.9c-10.2-7.4-27.4-26.8-33.9-48.7c-6.6-21.9,9.9-105.6,9.9-105.6h86.5
	c0,0,16.4,83.8,9.9,105.6c-6.6,21.9-23.7,41.3-33.9,48.7C750.4,184.8,746.5,187.2,746.5,187.2z"/>
<path class="st12" d="M891.7,163.6c0,6.3-0.4,117.8-0.4,117.8l25.6,14.7c0,0,44.2,16.3-32.6,16.3s-32.6-16.3-32.6-16.3l25.6-14.7
	c0,0-0.4-111.5-0.4-117.8s-3.1-8-8.5-11.4s-25-14.8-35.1-32.4s12.4-95.9,12.4-95.9H923c0,0,22.5,78.4,12.4,95.9
	c-10.1,17.6-29.7,29-35.1,32.4C894.8,155.6,891.7,157.3,891.7,163.6z"/>
<path class="st12" d="M1032.3,204.3c0,4.6,0,69.5,0,69.5s15.3,22.4,24.2,23s44.4,15.5-32.5,15.5c-76.9,0-41.4-14.9-32.5-15.5
	s24.2-23,24.2-23s0-65,0-69.5c0-4.6-3.6-7.7-3.6-7.7c-1.6-16.3-19.1-29.2-43.9-55.9c-24.7-26.7,8-99.8,8-99.8h95.7
	c0,0,32.7,73.1,8,99.8c-24.7,26.7-42.3,39.6-43.9,55.9C1035.9,196.6,1032.3,199.7,1032.3,204.3z"/>
<path class="st26" d="M-1356,1572.2h-118.2c-10.7,0-19.4-8.7-19.4-19.4v-118.2c0-10.7,8.7-19.4,19.4-19.4h118.2
	c10.7,0,19.4,8.7,19.4,19.4v118.2C-1336.6,1563.5-1345.3,1572.2-1356,1572.2z"/>
<path class="st4" d="M-1493.5,1466.7v86.2c0,10.7,8.7,19.4,19.4,19.4h118.2c10.7,0,19.4-8.7,19.4-19.4v-86.2H-1493.5z"/>
<text transform="matrix(1 0 0 1 -1438.8237 1448.8383)" class="st4" style="font-family:'Cloud-Bold'; font-size:26px;">DAY</text>
<g>
	<path class="st12" d="M1478.1,885c0,6.3-0.4,117.8-0.4,117.8l25.6,14.7c0,0,44.2,16.3-32.6,16.3c-65.3,0-24.6-16.3-24.6-16.3
		l25.6-14.7c0,0-0.4-111.5-0.4-117.8s-3.1-8-8.5-11.4s-25-14.8-35.1-32.4c-10.1-17.6,12.4-95.9,12.4-95.9h69.3
		c0,0,22.5,78.4,12.4,95.9c-10.1,17.6-29.7,29-35.1,32.4C1481.2,876.9,1478.1,878.7,1478.1,885z"/>
	
		<linearGradient id="SVGID_6_" gradientUnits="userSpaceOnUse" x1="1512.8591" y1="-483.3838" x2="1512.3982" y2="-492.1492" gradientTransform="matrix(1 0 0 -1 0 332.2739)">
		<stop  offset="0" style="stop-color:#AE4F6F"/>
		<stop  offset="1" style="stop-color:#6C365E"/>
	</linearGradient>
	<path class="st27" d="M1511,820.6c-0.3-1.5,0.2-3,1.3-4.1c0.2-0.2,0.4-0.4,0.7-0.4c0.7-0.1,1.3,0.6,1.4,1.3c0.3,1.4-0.7,3-2.2,3.4
		c-0.5,0.1-1.1,0-1.3-0.4"/>
	
		<linearGradient id="SVGID_7_" gradientUnits="userSpaceOnUse" x1="1474.6821" y1="-485.6479" x2="1474.6821" y2="-538.1251" gradientTransform="matrix(1 0 0 -1 0 332.2739)">
		<stop  offset="0" style="stop-color:#AE4F6F"/>
		<stop  offset="1" style="stop-color:#6C365E"/>
	</linearGradient>
	<path class="st28" d="M1516.7,834.1c-0.7,0.1-1.3,0.5-2,0.8s-1.6,0.4-2.3,0.2c-0.1,0-0.2,0-0.3-0.1c-0.1-0.1-0.1-0.1-0.1-0.2
		c0-0.1,0-0.1,0-0.2c0-1.9,0.2-4.1-2.1-5.3c-0.7-0.3-1.4-0.5-2.1-0.5c-2.4,0-4.4,1.4-6.5,2.5c-3.5,1.9-7.3,3-11.2,3.5h-13.2
		c-4.4-0.5-8.7-1.3-13-2.2c-1.8-0.4-3.7-0.8-5.1-1.9c-1.1-0.9-1.9-2.1-2.9-3.1s-2.5-1.8-3.9-1.3c-0.7,0.2-1.2,0.7-1.9,0.9
		c-1.1,0.3-2.2-0.1-3.2-0.5c-1.6-0.7-3.2-1.3-4.5-2.4c-2-1.6-3.7-4.1-6.6-3.4c-1.2,0.3-2.2,1.1-2.8,2.1c-6.3,9.8,5,20.6,11.6,26.7
		c5.5,5.1,11.6,9.3,18,13.2c0.9,0.5,1.7,1,2.4,1.5c7.6,5,9.3,5.8,11.6,5.8c2,0,6.1-3,10.1-5.8c0.7-0.5,1.5-1,2.4-1.5
		c0.5-0.3,1-0.6,1.5-0.9c5-3.1,9.8-6.5,14.3-10.4c2.9-2.6,5.7-5.3,8.2-8.3c1.3-1.6,2.5-3.2,3.6-4.9
		C1517.2,837.5,1519.8,833.8,1516.7,834.1z"/>
</g>
<g>
	<path class="st12" d="M982.3,889.5c4.9,0,8.9,4.1,8.7,9l-4.6,115c0,0-1.1,21.5-15.8,21.5c-20.6,0-34.5,0-34.5,0s-13.9,0-34.5,0
		c-14.7,0-15.8-21.5-15.8-21.5l-4.6-115c-0.2-4.9,3.7-9,8.7-9H982.3z"/>
	<path class="st29" d="M902.2,938.8c-6.7,0-12.1,3.8-11.8,8.5l2.9,51.1c0,0,0.9,12.4,13.3,12.4c17.3,0,28.9,0,28.9,0s11.7,0,28.9,0
		c12.3,0,13.3-12.4,13.3-12.4l2.9-51.1c0.3-4.6-5.1-8.5-11.8-8.5H902.2z"/>
	<path class="st30" d="M918.5,959.4l-13.1-8.9c-2.6-1.8-3.3-5.4-1.5-8l8.9-13.1c1.8-2.6,5.4-3.3,8-1.5l13.1,8.9
		c2.6,1.8,3.3,5.4,1.5,8l-8.9,13.1C924.7,960.5,921.1,961.2,918.5,959.4z"/>
	<path class="st30" d="M961.1,946.8l-7,2.1c-2,0.6-4-0.5-4.6-2.5l-2.1-7c-0.6-2,0.5-4,2.5-4.6l7-2.1c2-0.6,4,0.5,4.6,2.5l2.1,7
		C964.2,944.2,963.1,946.2,961.1,946.8z"/>
</g>
<path class="st7" d="M1345.5,1018.2l-20.2-11.6c0,0,0.3-67.4,0.3-87.6l45.4-63h-96.1l45.3,62.8c0.1,20,0.3,87.7,0.3,87.7l-20.2,11.6
	c0,0-32.1,12.9,19.4,12.9C1380.4,1031.1,1345.5,1018.2,1345.5,1018.2z"/>
<linearGradient id="SVGID_8_" gradientUnits="userSpaceOnUse" x1="1323.0079" y1="-547.063" x2="1323.0079" y2="-580.0165" gradientTransform="matrix(1 0 0 -1 0 332.2739)">
	<stop  offset="0" style="stop-color:#14AFAB"/>
	<stop  offset="1" style="stop-color:#227893"/>
</linearGradient>
<polygon class="st31" points="1346.8,879.3 1323,912.2 1299.2,879.3 "/>
<path class="st32" d="M1348.7,867.2c5.3-4.6,5.8-12.7,1.2-18c-4.6-5.3-12.7-5.8-18-1.2"/>
<polygon class="st33" points="1339,856 1331.6,856 1331.6,859 1341.6,859 "/>
<polygon class="st7" points="1344.5,862.4 1344.5,856 1338.9,856 1341.5,859 "/>
<g>
	<path class="st7" d="M-1035,294.1l-32.3-18.6c0,0,0.5-107.9,0.5-140.3l72.7-100.9h-153.9l72.5,100.6c0.2,32,0.5,140.4,0.5,140.4
		l-32.3,18.6c0,0-51.4,20.7,31.1,20.7C-979.2,314.7-1035,294.1-1035,294.1z"/>
	
		<linearGradient id="SVGID_9_" gradientUnits="userSpaceOnUse" x1="-1071.0601" y1="260.5925" x2="-1071.0601" y2="207.828" gradientTransform="matrix(1 0 0 -1 0 332.2739)">
		<stop  offset="0" style="stop-color:#14AFAB"/>
		<stop  offset="1" style="stop-color:#227893"/>
	</linearGradient>
	<polygon class="st34" points="-1033,71.7 -1071.1,124.4 -1109.2,71.7 	"/>
	<polygon class="st33" points="-1045.5,34.4 -1057.3,34.4 -1057.3,39.2 -1041.3,39.2 	"/>
	<g>
		<path class="st32" d="M-1029.9,52.3c8.5-7.4,9.3-20.3,1.9-28.8c-7.4-8.5-20.3-9.3-28.8-1.9"/>
		<polygon class="st7" points="-1036.6,44.6 -1036.6,34.4 -1045.6,34.4 -1041.4,39.2 		"/>
	</g>
</g>
<path class="st35" d="M-3260.9,88.3c-0.6-0.8-2.8-5.7-5.3-10.7c-1.7-3.4-1.8-7.2-1.7-9.3c0-0.9,0.4-1.6,0.9-2.3
	c0.4-0.5,0.8-1.4,0.8-2.8c0-2.8-55.6-3.9-55.6-3.9s-55.6,1.1-55.6,3.9c0,1.4,0.4,2.3,0.8,2.8c0.5,0.7,0.9,1.5,0.9,2.3
	c0.1,2.1,0,5.9-1.7,9.3c-2.5,5-4.6,9.9-5.3,10.7c-0.6,0.8,0,15.1,0,18.7v151.9c0,1,0.4,1.9,1,2.7c1.1,1.2,3.1,3.1,5.7,4.7
	c2.4,1.4,4.1,2.7,5.1,3.5c0.7,0.6,1.3,1.4,1.4,2.3l0,0c0.1,0.5,0.3,0.9,0.5,1.3l1.1,1.7c0.7,1.1,1.8,1.7,3,1.8
	c7.4,0.6,33.5,2.5,42.9,2.5c9.8,0,35.6-1.9,42.9-2.5c1.2-0.1,2.4-0.8,3-1.8l1.1-1.7c0.3-0.4,0.4-0.9,0.5-1.3l0,0
	c0.2-0.9,0.7-1.8,1.4-2.3c1-0.8,2.7-2,5.1-3.5c2.6-1.6,4.6-3.5,5.7-4.7c0.7-0.7,1-1.7,1-2.7v-152
	C-3260.9,103.4-3260.3,89.1-3260.9,88.3z"/>
<path class="st36" d="M-3365.6,270c0,0,50.3,5.5,87.7,0"/>
<rect x="-3374.5" y="157.9" class="st37" width="105.5" height="26.5"/>
<path class="st36" d="M-3371.1,65.9c0,0,40.7,4.1,98.6,0"/>
<path class="st37" d="M-3353.5,184.4h63.5c-3.5,24-16.4,41.8-31.7,41.8C-3337,226.2-3350,208.4-3353.5,184.4z"/>
<path class="st37" d="M-3290.1,157.9h-63.5c3.5-24,16.4-41.8,31.7-41.8C-3306.4,116.1-3293.6,133.9-3290.1,157.9z"/>
<path d="M-1843.2,1774.2h-23.1v-106c0-6.4,5.2-11.6,11.6-11.6l0,0c6.4,0,11.6,5.2,11.6,11.6L-1843.2,1774.2L-1843.2,1774.2z"/>
<path d="M-1750.7,1785.8L-1750.7,1785.8c0,6.4-5.2,11.6-11.6,11.6h-307c-6.4,0-11.6-5.2-11.6-11.6l0,0c0-6.4,5.2-11.6,11.6-11.6
	h307.1C-1755.9,1774.2-1750.7,1779.4-1750.7,1785.8z"/>
<path d="M-1225.6,1980.4L-1225.6,1980.4c0,6.4-5.2,11.6-11.6,11.6h-307.1c-6.4,0-11.6-5.2-11.6-11.6l0,0c0-6.4,5.2-11.6,11.6-11.6
	h307.1C-1230.8,1968.8-1225.6,1974-1225.6,1980.4z"/>
<path d="M-1814.7,1670.2L-1814.7,1670.2c-4.5,4.5-11.8,4.5-16.3,0l-99.2-99.2c-4.5-4.5-4.5-11.8,0-16.3l0,0c4.5-4.5,11.8-4.5,16.3,0
	l99.2,99.2C-1810.2,1658.4-1810.2,1665.7-1814.7,1670.2z"/>
<path d="M-2030.6,1670.2L-2030.6,1670.2c4.5,4.5,11.8,4.5,16.3,0l99.2-99.2c4.5-4.5,4.5-11.8,0-16.3l0,0c-4.5-4.5-11.8-4.5-16.3,0
	l-99.2,99.2C-2035.1,1658.4-2035.1,1665.7-2030.6,1670.2z"/>
<path d="M-1979.2,1774.2h-23.1v-106c0-6.4,5.2-11.6,11.6-11.6l0,0c6.4,0,11.6,5.2,11.6,11.6L-1979.2,1774.2L-1979.2,1774.2z"/>
<path d="M-1918.5,1774.2h-43.1v-52.4c0-11.9,9.7-21.6,21.6-21.6l0,0c11.9,0,21.6,9.7,21.6,21.6L-1918.5,1774.2L-1918.5,1774.2z"/>
<path d="M-1332.5,1845.1h-109.4c-4.3,0-7.9,3.5-7.9,7.9l0,0c0,13.9-11.3,25.2-25.2,25.2l0,0c-10.3,0-18.6,8.3-18.6,18.6v33.7h196.6
	c13.8,0,24.9-11.2,24.9-24.9l0,0C-1272,1872.2-1299.1,1845.1-1332.5,1845.1z"/>
<path d="M-1294.6,1867.4h-38.5c-8.7,0-15.8-7.1-15.8-15.8v-38.5c0-8.7,7.1-15.8,15.8-15.8h38.5c8.7,0,15.8,7.1,15.8,15.8v38.5
	C-1278.8,1860.4-1285.9,1867.4-1294.6,1867.4z"/>
<g>
	<path class="st7" d="M-541.9,96.7c-12.3,13.9-52.3,27.8-58,37.6c0,0-0.4,8.6-9.1,9.1c0,0-4.5,3.2-4.5,13.2s-4.3,112,0,116.3
		s36.7,14.1,42.2,15.9s38.8,25-54,25s-59.4-23.2-54-25c5.5-1.8,37.9-11.6,42.2-15.9s0-106.3,0-116.3s-4.6-13.2-4.6-13.2
		c-8.6-0.5-9.1-9.1-9.1-9.1c-5.7-9.8-45.8-23.7-58-37.6c-12.3-13.9-9-46.6-9-46.6H-533C-532.9,50.1-529.6,82.8-541.9,96.7z"/>
	<g>
		<path class="st32" d="M-561.7,67.6c8.5-7.4,9.3-20.3,1.9-28.8c-7.4-8.5-20.3-9.3-28.8-1.9"/>
		<polygon class="st7" points="-568.4,59.9 -568.4,49.6 -577.4,49.6 -573.2,54.4 		"/>
	</g>
	<linearGradient id="SVGID_10_" gradientUnits="userSpaceOnUse" x1="-625.3093" y1="71.6814" x2="-625.3093" y2="137.3153">
		<stop  offset="0" style="stop-color:#14AFAB"/>
		<stop  offset="1" style="stop-color:#227893"/>
	</linearGradient>
	<path class="st38" d="M-693.8,71.7c-4.8,0-8.4,4.3-7.5,9c1.1,6.1,3.1,12.2,6.7,16.2c9.2,10.5,37.5,21,46.2,28.9
		c1.1,1,1.9,2.4,2.3,3.8c0.6,2.1,2.2,5.8,7.3,6.1c10.1,3.8,23.9,0.8,26.7,0.1c0.4-0.1,0.7-0.1,1.1-0.2c4.6-0.5,6.2-3.9,6.7-6
		c0.4-1.5,1.1-2.9,2.3-3.9c8.7-7.9,36.9-18.4,46.2-28.9c3.6-4.1,5.6-10.1,6.7-16.3c0.8-4.7-2.8-9-7.5-9H-693.8z"/>
</g>
<g>
	<path class="st7" d="M-276.7,313.4c-37.3-5.2-19.8-13.9-19.8-13.9l25.9-9.8v-107c-12.1-6.8-20.5-22.5-20.5-22.5
		c-14-24.2-5.4-143.7-5.4-143.7h60.6c0,0,8.6,119.5-5.4,143.7c0,0-8.4,15.6-20.5,22.5v107l25.9,9.8c0,0,17.5,8.7-19.8,13.9
		C-262.6,314.4-269.7,314.4-276.7,313.4z"/>
	<g>
		<path class="st32" d="M-241.1,34.4c8.5-7.4,9.3-20.3,1.9-28.8c-7.4-8.5-20.3-9.3-28.8-1.9"/>
		<polygon class="st7" points="-247.8,26.7 -247.8,16.5 -256.8,16.5 -252.6,21.3 		"/>
	</g>
	<linearGradient id="SVGID_11_" gradientUnits="userSpaceOnUse" x1="-266.2398" y1="47.354" x2="-266.2398" y2="174.1373">
		<stop  offset="0" style="stop-color:#14AFAB"/>
		<stop  offset="1" style="stop-color:#227893"/>
	</linearGradient>
	<path class="st39" d="M-285.1,49.6c-2.9,0-5.3,2.3-5.4,5.1c-1.4,27.4-3.2,85.1,5,99.6c0,0,6.5,12.5,15.9,17.9
		c2,1.3,4.8,0.6,6.1,0.2c0.4-0.1,0.8-0.3,1.2-0.5c9.1-5.6,15.4-17.6,15.4-17.6c8.2-14.5,6.4-72.2,5-99.6c-0.1-2.9-2.5-5.1-5.4-5.1
		H-285.1z"/>
</g>
<g>
	<path class="st7" d="M79.5,87.6c6.4,48.4,20.4,121.1,1.3,140.2c-12.4,12.4-18.3,19.6-20.9,23.1c-1.2,1.6-1.6,3.6-1.1,5.5
		c1.2,5.2,3.3,16.3,0.7,21c-0.9,1.7-1.8,3.3-2.5,4.9c-1.8,3.9,0.5,8.5,4.7,9.4l17.8,3.9c0.2,0,0.4,0.1,0.7,0.2
		c4.1,1.3,41,14.1-33.3,18.8c-0.3,0-0.6,0-0.9,0c-74.3-4.7-37.3-17.5-33.3-18.8c0.2-0.1,0.4-0.1,0.7-0.2l17.8-3.9
		c4.2-0.9,6.5-5.5,4.7-9.4c-0.7-1.5-1.5-3.2-2.5-4.9c-2.6-4.8-0.5-15.8,0.7-21c0.4-1.9,0-3.9-1.1-5.5c-2.6-3.5-8.5-10.7-20.9-23.1
		C-7,208.7,7,136,13.4,87.6c3.8-29-3.8-48-10.5-58.5C0,24.6,3.3,18.8,8.6,18.8h76c5.3,0,8.5,5.9,5.7,10.3
		C83.3,39.6,75.7,58.5,79.5,87.6z"/>
	<g>
		<path class="st32" d="M77.7,36.8c8.5-7.4,9.3-20.3,1.9-28.8C72.2-0.5,59.2-1.3,50.8,6"/>
		<polygon class="st7" points="70.9,29.1 70.9,18.8 62,18.8 66.2,23.6 		"/>
	</g>
	<linearGradient id="SVGID_12_" gradientUnits="userSpaceOnUse" x1="46.4007" y1="42.7136" x2="46.4007" y2="242.8043">
		<stop  offset="0" style="stop-color:#14AFAB"/>
		<stop  offset="1" style="stop-color:#227893"/>
	</linearGradient>
	<path class="st40" d="M70,43.4H22.8c-2.4,0-4.1,2.3-3.5,4.6c2.6,9.6,4.2,22.4,2.4,38.6c-4.8,43.6-15.2,109.1-1,126.3
		c8.9,10.8,13.3,17.2,15.4,20.4c0.2,0.2,0.3,0.5,0.5,0.7c8.8,8.8,17.5,1.8,19.4,0.1c0.2-0.2,0.5-0.5,0.6-0.8
		c2.1-3.3,6.5-9.7,15.4-20.4c14.3-17.2,3.8-82.7-1-126.3c-1.8-16.3-0.2-29,2.4-38.6C74.2,45.7,72.5,43.4,70,43.4z"/>
</g>
<linearGradient id="SVGID_13_" gradientUnits="userSpaceOnUse" x1="437.4111" y1="-668.7515" x2="437.9131" y2="-399.6617">
	<stop  offset="0" style="stop-color:#14AFAB"/>
	<stop  offset="1" style="stop-color:#227893"/>
</linearGradient>
<path class="st41" d="M470.5-668.2h-66.2c-3,0-5.4,2.6-5.2,5.6L418-413c0,5.1,8.7,9.2,19.4,9.2s19.4-4.1,19.4-9.2l18.9-249.7
	C475.9-665.7,473.6-668.2,470.5-668.2z"/>
</svg>
